<svg width="26" height="26" viewBox="0 0 26 26" fill="none" xmlns="http://www.w3.org/2000/svg">
<g id="vuesax/linear/call-calling">
<g id="Group 16">
<path id="Vector" d="M4 9.0567V17.9425C4 19.6777 5.23288 20.39 6.73059 19.5316L8.87671 18.3078C9.34247 18.043 10.1187 18.0156 10.6027 18.2622L15.3973 20.664C15.8813 20.9014 16.6575 20.8832 17.1233 20.6183L21.0776 18.3535C21.5799 18.0613 22 17.3489 22 16.7645V7.87862C22 6.14346 20.7671 5.43113 19.2694 6.28958L17.1233 7.51332C16.6575 7.77816 15.8813 7.80556 15.3973 7.55898L10.6027 5.16629C10.1187 4.92884 9.34247 4.94711 8.87671 5.21195L4.92237 7.47679C4.41096 7.76903 4 8.48136 4 9.0567Z" stroke="black" stroke-width="2" stroke-linecap="round" stroke-linejoin="round"/>
<path id="Vector_2" d="M9.72742 5.60352V17.4757" stroke="black" stroke-width="2" stroke-linecap="round" stroke-linejoin="round"/>
<path id="Vector_3" d="M16.2751 7.99756V20.2167" stroke="black" stroke-width="2" stroke-linecap="round" stroke-linejoin="round"/>
</g>
</g>
</svg>
