<svg width="92" height="40" viewBox="0 0 92 40" fill="none" xmlns="http://www.w3.org/2000/svg">
<g id="Company logo" clip-path="url(#clip0_4734_111427)">
<g id="Vector">
<path fill-rule="evenodd" clip-rule="evenodd" d="M56.6118 31.5061C51.3088 35.4148 43.6225 37.5003 37.0047 37.5003C27.7255 37.5003 19.3718 34.0682 13.0519 28.3601C12.5554 27.9112 13.0003 27.2995 13.5961 27.649C20.4165 31.6173 28.8496 34.0047 37.5608 34.0047C43.4358 34.0047 49.8987 32.7892 55.8412 30.2668C56.7389 29.8854 57.4897 30.8547 56.6118 31.5061Z" fill="#808791"/>
<path fill-rule="evenodd" clip-rule="evenodd" d="M58.8165 28.9838C58.1412 28.1178 54.3358 28.5746 52.6277 28.7772C52.1073 28.8408 52.0279 28.3879 52.4966 28.0622C55.5274 25.9291 60.5007 26.5448 61.0806 27.2598C61.6606 27.9788 60.9297 32.964 58.0816 35.3434C57.6446 35.7088 57.2276 35.5142 57.4222 35.0295C58.0617 33.4327 59.4957 29.8537 58.8165 28.9838Z" fill="#808791"/>
</g>
<g id="Vector_2">
<path fill-rule="evenodd" clip-rule="evenodd" d="M52.7477 13.003V10.9295C52.7477 10.6157 52.9861 10.4052 53.2721 10.4052H62.5553C62.8532 10.4052 63.0915 10.6197 63.0915 10.9295V12.7051C63.0876 13.003 62.8373 13.3923 62.3924 14.008L57.582 20.8761C59.3695 20.8324 61.2563 21.0985 62.877 22.0121C63.2425 22.2187 63.3418 22.5206 63.3696 22.8185V25.031C63.3696 25.3329 63.0359 25.6865 62.6864 25.5037C59.8303 24.0062 56.0368 23.8433 52.8788 25.5196C52.5571 25.6944 52.2194 25.3449 52.2194 25.043V22.9416C52.2194 22.604 52.2234 22.028 52.5611 21.5156L58.1341 13.5234H53.284C52.9861 13.5234 52.7477 13.3129 52.7477 13.003Z" fill="#808791"/>
<path fill-rule="evenodd" clip-rule="evenodd" d="M18.8842 25.9407H16.0599C15.7898 25.9209 15.5753 25.7183 15.5554 25.4601V10.9653C15.5554 10.6753 15.7977 10.4449 16.0996 10.4449H18.7332C19.0073 10.4568 19.2258 10.6674 19.2457 10.9295V12.8243H19.2973C19.9845 10.9931 21.2755 10.1391 23.0153 10.1391C24.783 10.1391 25.8873 10.9931 26.6817 12.8243C27.365 10.9931 28.9181 10.1391 30.5825 10.1391C31.7662 10.1391 33.0612 10.6276 33.8517 11.724C34.7454 12.9435 34.5627 14.7151 34.5627 16.2683L34.5587 25.4164C34.5587 25.7064 34.3164 25.9407 34.0145 25.9407H31.1942C30.9122 25.9209 30.6858 25.6944 30.6858 25.4164V17.734C30.6858 17.1223 30.7414 15.5969 30.6063 15.017C30.3958 14.0438 29.7642 13.7697 28.9459 13.7697C28.2627 13.7697 27.5477 14.2265 27.2577 14.9574C26.9677 15.6883 26.9955 16.9118 26.9955 17.734V25.4164C26.9955 25.7064 26.7532 25.9407 26.4513 25.9407H23.631C23.345 25.9209 23.1226 25.6944 23.1226 25.4164L23.1186 17.734C23.1186 16.1173 23.3848 13.7379 21.3788 13.7379C19.3489 13.7379 19.4284 16.0577 19.4284 17.734V25.4164C19.4284 25.7064 19.1861 25.9407 18.8842 25.9407Z" fill="#808791"/>
<path fill-rule="evenodd" clip-rule="evenodd" d="M71.0836 10.1391C75.2743 10.1391 77.5425 13.7379 77.5425 18.314C77.5425 22.7351 75.036 26.2426 71.0836 26.2426C66.9683 26.2426 64.728 22.6437 64.728 18.1591C64.728 13.6466 66.9961 10.1391 71.0836 10.1391ZM71.1074 13.0984C69.026 13.0984 68.8949 15.9346 68.8949 17.7022C68.8949 19.4739 68.8671 23.2555 71.0836 23.2555C73.2723 23.2555 73.3756 20.2048 73.3756 18.3457C73.3756 17.1223 73.324 15.6605 72.9545 14.5006C72.6368 13.4916 72.0052 13.0984 71.1074 13.0984Z" fill="#808791"/>
<path fill-rule="evenodd" clip-rule="evenodd" d="M82.9767 25.9407H80.1643C79.8823 25.9209 79.6559 25.6944 79.6559 25.4164L79.6519 10.9176C79.6757 10.6515 79.9101 10.4449 80.1961 10.4449H82.8138C83.0601 10.4568 83.2627 10.6237 83.3183 10.8501V13.0666H83.3699C84.1604 11.0845 85.2687 10.1391 87.219 10.1391C88.4862 10.1391 89.7216 10.5959 90.516 11.8471C91.2549 13.007 91.2549 14.9574 91.2549 16.3596V25.4839C91.2231 25.7381 90.9887 25.9407 90.7107 25.9407H87.8784C87.6202 25.9209 87.4057 25.7302 87.3779 25.4839V17.6109C87.3779 16.026 87.5607 13.7061 85.6103 13.7061C84.9231 13.7061 84.2915 14.1669 83.9777 14.866C83.5805 15.7519 83.5288 16.6337 83.5288 17.6109V25.4164C83.5248 25.7064 83.2786 25.9407 82.9767 25.9407Z" fill="#808791"/>
<path fill-rule="evenodd" clip-rule="evenodd" d="M45.3474 19.017C45.3474 20.1174 45.3752 21.0349 44.8191 22.0121C44.3703 22.8066 43.6553 23.2952 42.8648 23.2952C41.7803 23.2952 41.1448 22.4689 41.1448 21.2495C41.1448 18.8423 43.3017 18.4053 45.3474 18.4053V19.017ZM48.1956 25.901C48.0089 26.0678 47.7387 26.0797 47.5282 25.9685C46.5908 25.1899 46.42 24.8285 45.9075 24.0857C44.3583 25.6666 43.258 26.1393 41.252 26.1393C38.8727 26.1393 37.0256 24.6735 37.0256 21.738C37.0256 19.446 38.2649 17.8849 40.0365 17.1223C41.5698 16.447 43.7109 16.3278 45.3474 16.1411V15.7757C45.3474 15.1044 45.3991 14.3099 45.0019 13.73C44.6602 13.2096 44.0008 12.9951 43.4169 12.9951C42.3404 12.9951 41.3831 13.5472 41.1488 14.6912C41.1011 14.9455 40.9144 15.1957 40.6562 15.2076L37.9193 14.9137C37.6889 14.8621 37.4307 14.6754 37.4982 14.3218C38.1259 11.001 41.1289 10 43.8141 10C45.1885 10 46.984 10.3654 48.0684 11.4062C49.4428 12.6892 49.3118 14.4013 49.3118 16.2643V20.6655C49.3118 21.9883 49.8599 22.5682 50.3763 23.2833C50.5551 23.5375 50.5948 23.8433 50.3644 24.034C49.7884 24.5147 48.7636 25.4084 48.1995 25.9089L48.1956 25.901Z" fill="#808791"/>
<path fill-rule="evenodd" clip-rule="evenodd" d="M8.32189 19.017C8.32189 20.1173 8.34969 21.0349 7.79358 22.0121C7.34471 22.8066 6.63368 23.2952 5.83922 23.2952C4.7548 23.2952 4.12321 22.4689 4.12321 21.2494C4.12321 18.8423 6.28014 18.4053 8.32189 18.4053V19.017ZM11.17 25.901C10.9833 26.0678 10.7132 26.0797 10.5027 25.9685C9.56521 25.1899 9.39837 24.8285 8.88198 24.0856C7.33279 25.6666 6.23645 26.1393 4.22648 26.1393C1.85107 26.1393 0 24.6735 0 21.738C0 19.446 1.24332 17.8849 3.01097 17.1223C4.54427 16.447 6.68531 16.3278 8.32189 16.1411V15.7757C8.32189 15.1044 8.37353 14.3099 7.98027 13.73C7.63468 13.2096 6.97529 12.9951 6.39534 12.9951C5.31886 12.9951 4.35757 13.5472 4.12321 14.6912C4.07554 14.9455 3.88884 15.1957 3.63462 15.2076L0.893759 14.9137C0.663367 14.8621 0.409142 14.6754 0.472698 14.3218C1.10429 11.001 4.10334 10 6.7886 10C8.163 10 9.95846 10.3654 11.0429 11.4062C12.4173 12.6892 12.2862 14.4013 12.2862 16.2643V20.6655C12.2862 21.9883 12.8344 22.5682 13.3508 23.2832C13.5335 23.5375 13.5732 23.8433 13.3428 24.034C12.7668 24.5146 11.742 25.4084 11.1779 25.9089L11.17 25.901Z" fill="#808791"/>
</g>
</g>
<defs>
<clipPath id="clip0_4734_111427">
<rect width="91.6667" height="40" fill="white"/>
</clipPath>
</defs>
</svg>
