<svg width="23" height="28" viewBox="0 0 23 28" fill="none" xmlns="http://www.w3.org/2000/svg">
<g id="Frame" clip-path="url(#clip0_4734_111867)">
<g id="Group">
<g id="b">
<path id="Vector" d="M11.5299 15.7389C15.4146 15.7389 18.5637 12.832 18.5637 9.24617C18.5637 5.66032 15.4146 2.75342 11.5299 2.75342C7.64524 2.75342 4.49609 5.66032 4.49609 9.24617C4.49609 12.832 7.64524 15.7389 11.5299 15.7389Z" fill="#3DDC84"/>
<path id="Vector_2" d="M16.8632 7.62305H6.19658C5.25743 7.62305 4.49609 8.38438 4.49609 9.32353V19.9902C4.49609 20.9293 5.25743 21.6907 6.19658 21.6907H16.8632C17.8024 21.6907 18.5637 20.9293 18.5637 19.9902V9.32353C18.5637 8.38438 17.8024 7.62305 16.8632 7.62305Z" fill="#3DDC84"/>
</g>
<g id="a">
<path id="Vector_3" d="M6.7249 1.71466C6.59038 1.47197 6.67806 1.16618 6.92075 1.03166C7.16343 0.897139 7.46922 0.984822 7.60374 1.22751L10.3393 6.16256C10.4738 6.40525 10.3861 6.71104 10.1434 6.84556C9.90076 6.98008 9.59497 6.8924 9.46044 6.64971L6.7249 1.71466Z" fill="#3DDC84"/>
<path id="c" d="M18.8727 11.1014C18.8727 10.0769 19.7032 9.24634 20.7278 9.24634C21.7523 9.24634 22.5828 10.0769 22.5828 11.1014V17.6715C22.5828 18.696 21.7523 19.5265 20.7278 19.5265C19.7032 19.5265 18.8727 18.696 18.8727 17.6715V11.1014Z" fill="#3DDC84"/>
<path id="c_2" d="M12.3025 18.599C12.3025 17.5744 13.133 16.7439 14.1576 16.7439C15.1821 16.7439 16.0126 17.5744 16.0126 18.599V25.169C16.0126 26.1935 15.1821 27.0241 14.1576 27.0241C13.133 27.0241 12.3025 26.1935 12.3025 25.169V18.599Z" fill="#3DDC84"/>
</g>
<g id="a_2">
<path id="Vector_4" d="M16.3335 1.71466C16.468 1.47197 16.3804 1.16618 16.1377 1.03166C15.895 0.897139 15.5892 0.984822 15.4547 1.22751L12.7191 6.16256C12.5846 6.40525 12.6723 6.71104 12.915 6.84556C13.1577 6.98008 13.4634 6.8924 13.598 6.64971L16.3335 1.71466Z" fill="#3DDC84"/>
<path id="c_3" d="M4.18665 11.1014C4.18665 10.0769 3.3561 9.24634 2.33157 9.24634C1.30705 9.24634 0.476501 10.0769 0.476501 11.1014V17.6715C0.476501 18.696 1.30705 19.5265 2.33157 19.5265C3.3561 19.5265 4.18665 18.696 4.18665 17.6715V11.1014Z" fill="#3DDC84"/>
<path id="c_4" d="M10.757 18.599C10.757 17.5744 9.92648 16.7439 8.90195 16.7439C7.87742 16.7439 7.04688 17.5744 7.04688 18.599V25.169C7.04688 26.1935 7.87742 27.0241 8.90195 27.0241C9.92648 27.0241 10.757 26.1935 10.757 25.169V18.599Z" fill="#3DDC84"/>
</g>
<g id="b_2">
<path id="Vector_5" d="M11.5299 15.7389C15.4146 15.7389 18.5637 12.832 18.5637 9.24617C18.5637 5.66032 15.4146 2.75342 11.5299 2.75342C7.64524 2.75342 4.49609 5.66032 4.49609 9.24617C4.49609 12.832 7.64524 15.7389 11.5299 15.7389Z" fill="#3DDC84"/>
<path id="Vector_6" d="M16.8632 7.62305H6.19658C5.25743 7.62305 4.49609 8.38438 4.49609 9.32353V19.9902C4.49609 20.9293 5.25743 21.6907 6.19658 21.6907H16.8632C17.8024 21.6907 18.5637 20.9293 18.5637 19.9902V9.32353C18.5637 8.38438 17.8024 7.62305 16.8632 7.62305Z" fill="#3DDC84"/>
</g>
</g>
<g id="Group_2">
<g id="Vector_7">
<path d="M4.49512 9.51709H18.5627H4.49512Z" fill="white"/>
<path d="M4.49512 9.51709H18.5628" stroke="white" stroke-width="0.314089"/>
</g>
<path id="Vector_8" d="M8.41939 6.38667C8.58296 6.38667 8.71555 6.24824 8.71555 6.07749C8.71555 5.90673 8.58296 5.76831 8.41939 5.76831C8.25583 5.76831 8.12323 5.90673 8.12323 6.07749C8.12323 6.24824 8.25583 6.38667 8.41939 6.38667Z" fill="white" stroke="white" stroke-width="0.314089"/>
<path id="Vector_9" d="M14.6389 6.38667C14.8025 6.38667 14.9351 6.24824 14.9351 6.07749C14.9351 5.90673 14.8025 5.76831 14.6389 5.76831C14.4754 5.76831 14.3428 5.90673 14.3428 6.07749C14.3428 6.24824 14.4754 6.38667 14.6389 6.38667Z" fill="white" stroke="white" stroke-width="0.314089"/>
</g>
</g>
<defs>
<clipPath id="clip0_4734_111867">
<rect width="22.7246" height="26.6667" fill="white" transform="translate(0.166992 0.666748)"/>
</clipPath>
</defs>
</svg>
