<svg width="23" height="28" viewBox="0 0 23 28" fill="none" xmlns="http://www.w3.org/2000/svg">
<g id="Apple svg" clip-path="url(#clip0_4734_111863)">
<g id="Group">
<path id="Vector" d="M21.6848 9.76479C19.9113 10.8628 18.8159 12.7452 18.8159 14.8367C18.8159 17.1896 20.2243 19.3334 22.3629 20.2223C21.9456 21.5818 21.3196 22.8367 20.5372 23.987C19.3897 25.6079 18.19 27.2811 16.4165 27.2811C14.643 27.2811 14.1213 26.2354 12.0349 26.2354C10.0006 26.2354 9.27032 27.3334 7.60115 27.3334C5.93198 27.3334 4.78442 25.8171 3.48038 23.9347C1.75905 21.3203 0.767982 18.2877 0.71582 15.0981C0.71582 9.92165 4.05416 7.15041 7.3925 7.15041C9.166 7.15041 10.6265 8.30073 11.7219 8.30073C12.7651 8.30073 14.4343 7.09812 16.4165 7.09812C18.5029 7.04583 20.4851 8.0393 21.6848 9.76479ZM15.4775 4.90204C16.3643 3.85629 16.8337 2.5491 16.8859 1.18962C16.8859 1.03276 16.8859 0.823611 16.8337 0.666748C15.3211 0.823611 13.9127 1.55564 12.9216 2.70596C12.0349 3.69943 11.5133 4.95433 11.4611 6.31381C11.4611 6.47067 11.4611 6.62753 11.5133 6.78439C11.6176 6.78439 11.7741 6.83668 11.8784 6.83668C13.2868 6.73211 14.5908 6.00008 15.4775 4.90204Z" fill="black"/>
</g>
</g>
<defs>
<clipPath id="clip0_4734_111863">
<rect width="21.6471" height="26.6667" fill="white" transform="translate(0.71582 0.666748)"/>
</clipPath>
</defs>
</svg>
