<svg width="149" height="40" viewBox="0 0 149 40" fill="none" xmlns="http://www.w3.org/2000/svg">
<g id="Company logo" clip-path="url(#clip0_4734_111430)">
<path id="Vector" d="M6.03912 18.3616C5.98529 18.2912 5.9142 18.2358 5.83272 18.2009C5.75123 18.1659 5.66212 18.1526 5.57398 18.1622C5.48585 18.1718 5.40168 18.2039 5.3296 18.2555C5.25752 18.3072 5.19998 18.3765 5.16253 18.4568L0.720741 27.3377C0.680277 27.4186 0.661172 27.5085 0.66524 27.5989C0.669308 27.6893 0.696414 27.7772 0.743985 27.8542C0.791555 27.9311 0.858011 27.9947 0.937043 28.0387C1.01607 28.0828 1.10506 28.1059 1.19555 28.106H7.38051C7.47957 28.1083 7.57717 28.0817 7.66145 28.0296C7.74574 27.9775 7.81309 27.9021 7.85532 27.8125C9.18949 25.0555 8.38094 20.8636 6.03912 18.3616Z" fill="#808791"/>
<path id="Vector_2" d="M9.29701 10.2839C8.19025 11.9869 7.54526 13.9483 7.42537 15.9758C7.30547 18.0033 7.71478 20.0271 8.61313 21.8486L11.595 27.8123C11.639 27.9005 11.7068 27.9746 11.7907 28.0265C11.8745 28.0783 11.9712 28.1058 12.0698 28.1058H18.2536C18.3441 28.1058 18.4331 28.0826 18.5121 28.0386C18.5912 27.9945 18.6576 27.931 18.7052 27.854C18.7528 27.777 18.7799 27.6892 18.7839 27.5988C18.788 27.5084 18.7689 27.4184 18.7284 27.3375C18.7284 27.3375 10.4091 10.6968 10.2 10.2806C10.1586 10.1959 10.0943 10.1245 10.0142 10.0747C9.93417 10.0249 9.84172 9.99868 9.74745 9.99903C9.65318 9.99937 9.56092 10.0263 9.48125 10.0767C9.40158 10.1271 9.33772 10.1989 9.29701 10.2839Z" fill="#808791"/>
<path id="Vector_3" d="M81.8304 17.4043C81.8304 19.6034 82.8505 21.3494 86.8408 22.1201C89.2215 22.6199 89.7202 23.0042 89.7202 23.7978C89.7202 24.5686 89.2204 25.0676 87.5436 25.0676C85.517 25.0311 83.5308 24.4937 81.7624 23.5032V27.0851C82.9641 27.6745 84.5509 28.332 87.4983 28.332C91.67 28.332 93.3251 26.4717 93.3251 23.707L81.8304 17.4043ZM93.3251 23.707C93.3251 21.0997 91.9421 19.8752 88.0426 19.0367C85.8887 18.5605 85.3673 18.0846 85.3673 17.4043C85.3673 16.5435 86.1381 16.1801 87.5664 16.1801C89.2895 16.1801 90.99 16.7015 92.5996 17.4271V14.0035C91.0561 13.301 89.3752 12.9524 87.6797 12.9833C83.8254 12.9833 81.8304 14.661 81.8304 17.4043" fill="#808791"/>
<path id="Vector_4" d="M135.424 13.21V28.1055H138.598V16.7468L139.936 19.762L144.425 28.1055H148.416V13.21H145.242V22.823L144.04 20.0341L140.435 13.21H135.424Z" fill="#808791"/>
<path id="Vector_5" d="M115.237 13.21H111.768V28.1055H115.237V13.21Z" fill="#808791"/>
<path id="Vector_6" d="M107.767 23.707C107.767 21.0997 106.383 19.8752 102.484 19.0367C100.33 18.5605 99.8087 18.0846 99.8087 17.4043C99.8087 16.5435 100.579 16.1801 102.008 16.1801C103.731 16.1801 105.431 16.7015 107.041 17.4271V14.0035C105.498 13.301 103.817 12.9524 102.121 12.9833C98.2668 12.9833 96.2718 14.661 96.2718 17.4043C96.2718 19.6034 97.2919 21.3494 101.282 22.1201C103.663 22.6199 104.162 23.0042 104.162 23.7978C104.162 24.5686 103.662 25.0676 101.985 25.0676C99.9584 25.0311 97.9722 24.4937 96.2038 23.5032V27.0851C97.4055 27.6745 98.9923 28.332 101.94 28.332C106.111 28.332 107.767 26.4717 107.767 23.707Z" fill="#808791"/>
<path id="Vector_7" d="M54.8834 13.2101V28.1056H62.0132L63.1358 24.8861H58.3747V13.2101H54.8834Z" fill="#808791"/>
<path id="Vector_8" d="M40.7977 13.2101V16.4293H44.6519V28.1056H48.1433V16.4293H52.2696V13.2101H40.7977Z" fill="#808791"/>
<path id="Vector_9" d="M35.7354 13.21H31.1597L25.9655 28.1055H29.9322L30.6686 25.5968C32.4821 26.1294 34.4105 26.1294 36.2241 25.5968L36.9604 28.1055H40.928L35.7354 13.21ZM33.4474 22.9107C32.8013 22.9107 32.1584 22.8182 31.5385 22.6361L33.4474 16.1357L35.3564 22.6383C34.7363 22.8197 34.0935 22.9114 33.4474 22.9107Z" fill="#808791"/>
<path id="Vector_10" d="M74.3055 13.2101H69.7302L64.5359 28.1056H68.5034L69.2398 25.597C71.0533 26.1295 72.9817 26.1295 74.7953 25.597L75.5317 28.1056H79.4992L74.3055 13.2101ZM72.0178 22.9108C71.3717 22.9108 70.7288 22.8183 70.1089 22.6362L72.0178 16.1358L73.9268 22.6384C73.3067 22.8198 72.6639 22.9115 72.0178 22.9108Z" fill="#808791"/>
<path id="Vector_11" d="M127.737 13.2101H123.162L117.968 28.1056H121.935L122.672 25.597C124.485 26.1295 126.414 26.1295 128.227 25.597L128.963 28.1056H132.931L127.737 13.2101ZM125.448 22.9108C124.802 22.9108 124.159 22.8183 123.539 22.6362L125.448 16.1358L127.357 22.6384C126.737 22.8198 126.094 22.9115 125.448 22.9108Z" fill="#808791"/>
</g>
<defs>
<clipPath id="clip0_4734_111430">
<rect width="148.333" height="40" fill="white" transform="translate(0.666656)"/>
</clipPath>
</defs>
</svg>
