<svg width="25" height="24" viewBox="0 0 25 24" fill="none" xmlns="http://www.w3.org/2000/svg">
<g id="chrome" clip-path="url(#clip0_5789_114810)">
<path id="Vector" d="M3.39764 4.18148C8.97614 -2.31048 19.3201 -1.02949 23.1856 6.55447C20.4631 6.55597 16.2016 6.55297 13.8931 6.55447C12.2191 6.55447 11.1376 6.51697 9.96764 7.13346C8.59214 7.85796 7.55264 9.20045 7.19114 10.7784L3.39764 4.18148Z" fill="#F44336"/>
<path id="Vector_2" d="M8.50818 12.001C8.50818 14.2015 10.2977 15.991 12.4967 15.991C14.6957 15.991 16.4852 14.2015 16.4852 12.001C16.4852 9.80049 14.6957 8.01099 12.4967 8.01099C10.2962 8.00949 8.50818 9.80049 8.50818 12.001Z" fill="#2196F3"/>
<path id="Vector_3" d="M14.0431 17.2239C11.8051 17.8884 9.18464 17.1519 7.75064 14.6739C6.65564 12.7839 3.76064 7.74246 2.44664 5.44897C-2.16136 12.5109 1.80914 22.1334 10.1731 23.7759L14.0431 17.2239Z" fill="#4CAF50"/>
<path id="Vector_4" d="M16.2002 8.00931C18.0647 9.7433 18.4712 12.5513 17.2082 14.7278C16.2572 16.3688 13.2197 21.4942 11.7482 23.9752C20.3657 24.5062 26.6477 16.0613 23.8097 8.00781L16.2002 8.00931Z" fill="#FFC107"/>
</g>
<defs>
<clipPath id="clip0_5789_114810">
<rect width="24.0001" height="24" fill="white" transform="translate(0.499939)"/>
</clipPath>
</defs>
</svg>
