<svg width="136" height="40" viewBox="0 0 136 40" fill="none" xmlns="http://www.w3.org/2000/svg">
<g clip-path="url(#clip0_4734_111442)">
<path d="M37.541 11.6778H43.8928C47.9422 11.6778 51.2874 14.0208 51.2874 19.3704V20.4945C51.2874 25.8847 48.1589 28.3089 44.0147 28.3089H37.541V11.6778ZM41.0893 14.698V25.2752H43.8115C46.1139 25.2752 47.6578 23.7719 47.6578 20.4268V19.5465C47.6578 16.2013 46.0326 14.698 43.6896 14.698H41.0893ZM53.1699 14.8605H56.014L56.4745 17.989C57.0162 15.8627 58.3976 14.7251 60.9031 14.7251H61.7834V18.314H60.3208C57.4361 18.314 56.7318 19.3162 56.7318 22.1603V28.3496H53.2241V14.8605H53.1699ZM62.4877 21.8759V21.4967C62.4877 16.9868 65.3724 14.5219 69.2999 14.5219C73.3087 14.5219 76.1122 16.9868 76.1122 21.4967V21.8759C76.1122 26.3045 73.39 28.6881 69.2999 28.6881C64.9526 28.6475 62.4877 26.3181 62.4877 21.8759ZM72.5232 21.8353V21.4967C72.5232 18.9912 71.2637 17.4879 69.2593 17.4879C67.2955 17.4879 65.9954 18.8693 65.9954 21.4967V21.8353C65.9954 24.2595 67.2549 25.6409 69.2593 25.6409C71.2637 25.6003 72.5232 24.2595 72.5232 21.8353ZM77.9541 14.8605H80.8794L81.218 17.4066C81.9223 15.7002 83.4256 14.5219 85.6467 14.5219C89.0731 14.5219 91.3348 16.9868 91.3348 21.5509V21.9301C91.3348 26.3587 88.8293 28.7017 85.6467 28.7017C83.5204 28.7017 82.0577 27.7401 81.3399 26.1962V33.0084H77.9135L77.9541 14.8605ZM87.7729 21.8353V21.5373C87.7729 18.8557 86.3915 17.5285 84.5496 17.5285C82.5859 17.5285 81.2857 19.0318 81.2857 21.5373V21.7946C81.2857 24.1782 82.5452 25.6815 84.509 25.6815C86.527 25.6409 87.7729 24.3543 87.7729 21.8353ZM96.5219 25.8576L96.2239 28.3225H93.2173V10.3506H96.6438V17.2441C97.4022 15.4835 98.9055 14.5219 101.032 14.5219C104.255 14.5625 106.639 16.7836 106.639 21.2529V21.6727C106.639 26.142 104.377 28.7017 100.951 28.7017C98.6888 28.6475 97.2261 27.6047 96.5219 25.8576ZM103.036 21.6727V21.3342C103.036 18.8693 101.695 17.4879 99.8129 17.4879C97.8898 17.4879 96.549 19.0318 96.549 21.3748V21.6727C96.549 24.1782 97.8491 25.6409 99.7723 25.6409C101.831 25.6409 103.036 24.3543 103.036 21.6727ZM108.142 21.8759V21.4967C108.142 16.9868 111.027 14.5219 114.954 14.5219C118.963 14.5219 121.767 16.9868 121.767 21.4967V21.8759C121.767 26.3045 119.004 28.6881 114.954 28.6881C110.607 28.6475 108.142 26.3181 108.142 21.8759ZM118.205 21.8353V21.4967C118.205 18.9912 116.945 17.4879 114.941 17.4879C112.977 17.4879 111.677 18.8693 111.677 21.4967V21.8353C111.677 24.2595 112.936 25.6409 114.941 25.6409C116.959 25.6003 118.205 24.2595 118.205 21.8353ZM126.358 21.3342L121.631 14.8605H125.681L128.403 18.9099L131.166 14.8605H135.174L130.38 21.2935L135.432 28.3225H131.463L128.376 23.8532L125.369 28.3225H121.225L126.358 21.3342Z" fill="url(#paint0_linear_4734_111442)"/>
<path d="M15.7102 11.678L7.85509 16.689L15.7102 21.7L7.85509 26.711L0 21.6729L7.85509 16.6619L0 11.678L7.85509 6.66699L15.7102 11.678ZM7.81446 28.3227L15.6695 23.3117L23.5246 28.3227L15.6695 33.3337L7.81446 28.3227ZM15.7102 21.6729L23.5653 16.6619L15.7102 11.678L23.5246 6.66699L31.3797 11.678L23.5246 16.689L31.3797 21.7L23.5246 26.711L15.7102 21.6729Z" fill="url(#paint1_linear_4734_111442)"/>
</g>
<defs>
<linearGradient id="paint0_linear_4734_111442" x1="175.122" y1="42.0253" x2="33.8358" y2="14.801" gradientUnits="userSpaceOnUse">
<stop stop-color="#808791"/>
<stop offset="1" stop-color="#808791"/>
</linearGradient>
<linearGradient id="paint1_linear_4734_111442" x1="44.1028" y1="43.9459" x2="-2.74034" y2="41.4874" gradientUnits="userSpaceOnUse">
<stop stop-color="#808791"/>
<stop offset="1" stop-color="#808791"/>
</linearGradient>
<clipPath id="clip0_4734_111442">
<rect width="135.833" height="40" fill="white"/>
</clipPath>
</defs>
</svg>
