<svg width="25" height="24" viewBox="0 0 25 24" fill="none" xmlns="http://www.w3.org/2000/svg">
<g id="firefox" clip-path="url(#clip0_5789_114827)">
<g id="Group">
<path id="shape-base" d="M23.2763 8.0499C22.7709 6.83422 21.7473 5.5218 20.9435 5.10701C21.5977 6.38948 21.9764 7.67599 22.121 8.63611C22.121 8.63799 22.1218 8.64267 22.1233 8.65547C20.8084 5.37813 18.5788 4.05661 16.7582 1.17915C16.6663 1.03365 16.5741 0.887778 16.4843 0.733984C16.4386 0.65547 16.3958 0.575221 16.3563 0.493426C16.2806 0.347366 16.2223 0.19301 16.1824 0.0334505C16.183 0.0177946 16.1715 0.00429485 16.156 0.00227927C16.1488 0.000216807 16.1413 0.000216807 16.1341 0.00227927C16.1325 0.00284176 16.13 0.00476359 16.1283 0.00541983C16.1257 0.00645106 16.1082 0.0168571 16.109 0.0159196C13.1879 1.72668 12.2126 4.87911 12.1215 6.46247C10.9551 6.54267 9.83978 6.97241 8.92114 7.69572C8.82496 7.61449 8.72441 7.53855 8.61993 7.46829C8.35491 6.54103 8.34361 5.55958 8.58731 4.62645C7.39277 5.17038 6.46363 6.03015 5.78817 6.78932H5.78278C5.32182 6.20546 5.35431 4.2794 5.3806 3.87727C5.37507 3.85233 5.03674 4.0529 4.99239 4.08314C4.58562 4.37348 4.20533 4.69925 3.85598 5.05667C3.45844 5.45978 3.09521 5.89538 2.77009 6.35887C2.77009 6.35944 2.76976 6.36014 2.76958 6.3607C2.76958 6.36009 2.7699 6.35944 2.77009 6.35887C2.02236 7.41851 1.49202 8.61581 1.20979 9.88165C1.20422 9.90687 1.19953 9.93298 1.19414 9.95838C1.17225 10.0608 1.0935 10.5729 1.07972 10.6842C1.07864 10.6928 1.07817 10.701 1.07714 10.7095C0.975283 11.239 0.912238 11.7752 0.888426 12.3139C0.888426 12.3337 0.887207 12.3534 0.887207 12.3733C0.887488 18.7948 6.09384 24.0003 12.5159 24.0003C18.2673 24.0003 23.0428 19.8251 23.9777 14.341C23.9974 14.1921 24.0132 14.0425 24.0305 13.8924C24.2617 11.8984 24.0049 9.80253 23.2763 8.0499ZM9.87358 17.1511C9.92795 17.177 9.97904 17.2054 10.0349 17.2304C10.0373 17.232 10.0405 17.2338 10.0428 17.2352C9.98594 17.2081 9.92955 17.18 9.87358 17.1511ZM22.1242 8.65833L22.1227 8.64703C22.1232 8.65116 22.124 8.65547 22.1246 8.65955L22.1242 8.65833Z" fill="url(#paint0_linear_5789_114827)"/>
<path id="body-outer-ring" d="M23.2763 8.04958C22.7709 6.83391 21.7473 5.52148 20.9435 5.10669C21.5977 6.38916 21.9764 7.67567 22.121 8.63579C22.121 8.63298 22.1215 8.63814 22.1227 8.64671C22.1233 8.65084 22.1241 8.65515 22.1247 8.65923C23.2218 11.6335 22.6241 14.6581 21.7628 16.5063C20.4303 19.3659 17.2041 22.2967 12.1545 22.1537C6.69864 21.9993 1.89222 17.9511 0.994999 12.6491C0.831502 11.813 0.994999 11.3884 1.07726 10.7095C0.977046 11.2329 0.938891 11.3841 0.888548 12.3139C0.888548 12.3337 0.887329 12.3534 0.887329 12.3733C0.88747 18.7945 6.09382 24 12.5159 24C18.2673 24 23.0428 19.8248 23.9777 14.3406C23.9974 14.1918 24.0132 14.0422 24.0305 13.8921C24.2617 11.898 24.0049 9.80221 23.2763 8.04958Z" fill="url(#paint1_radial_5789_114827)"/>
<path id="body-outer-ring-shadow" d="M23.2763 8.04958C22.7709 6.83391 21.7473 5.52148 20.9435 5.10669C21.5977 6.38916 21.9764 7.67567 22.121 8.63579C22.121 8.63298 22.1215 8.63814 22.1227 8.64671C22.1233 8.65084 22.1241 8.65515 22.1247 8.65923C23.2218 11.6335 22.6241 14.6581 21.7628 16.5063C20.4303 19.3659 17.2041 22.2967 12.1545 22.1537C6.69864 21.9993 1.89222 17.9511 0.994999 12.6491C0.831502 11.813 0.994999 11.3884 1.07726 10.7095C0.977046 11.2329 0.938891 11.3841 0.888548 12.3139C0.888548 12.3337 0.887329 12.3534 0.887329 12.3733C0.88747 18.7945 6.09382 24 12.5159 24C18.2673 24 23.0428 19.8248 23.9777 14.3406C23.9974 14.1918 24.0132 14.0422 24.0305 13.8921C24.2617 11.898 24.0049 9.80221 23.2763 8.04958Z" fill="url(#paint2_radial_5789_114827)"/>
<path id="tail-tip" d="M17.6253 9.41635C17.6507 9.43416 17.6737 9.45188 17.6976 9.46955C17.4057 8.95159 17.0423 8.47742 16.6181 8.06094C13.0034 4.44671 16.1112 0.0150976 16.112 0.0141602C13.1909 1.72492 12.2128 4.87866 12.1218 6.46197C12.2572 6.4526 12.3924 6.44121 12.5302 6.44121C14.7101 6.44125 16.6086 7.63978 17.6253 9.41635Z" fill="url(#paint3_radial_5789_114827)"/>
<path id="globe-base" d="M12.5375 10.138C12.5185 10.4272 11.4965 11.4247 11.1392 11.4247C7.83247 11.4247 7.29572 13.4248 7.29572 13.4248C7.4422 15.1091 8.61475 16.4961 10.0349 17.23C10.0997 17.2635 10.1653 17.2937 10.2309 17.3236C10.3434 17.3735 10.4573 17.42 10.5724 17.4633C11.0594 17.6357 11.5694 17.734 12.0855 17.7551C17.8812 18.0269 19.0041 10.8265 14.8215 8.73551C15.8927 8.54923 17.0045 8.98 17.6254 9.41617C16.6087 7.63973 14.7101 6.44116 12.5303 6.44116C12.3924 6.44116 12.2573 6.45255 12.1218 6.46193C10.9554 6.54213 9.84009 6.97187 8.92145 7.69518C9.09873 7.84518 9.29888 8.04571 9.72051 8.46106C10.5093 9.23847 12.5332 10.0435 12.5375 10.138Z" fill="url(#paint4_radial_5789_114827)"/>
<path id="globe-shadow" d="M12.5375 10.138C12.5185 10.4272 11.4965 11.4247 11.1392 11.4247C7.83247 11.4247 7.29572 13.4248 7.29572 13.4248C7.4422 15.1091 8.61475 16.4961 10.0349 17.23C10.0997 17.2635 10.1653 17.2937 10.2309 17.3236C10.3434 17.3735 10.4573 17.42 10.5724 17.4633C11.0594 17.6357 11.5694 17.734 12.0855 17.7551C17.8812 18.0269 19.0041 10.8265 14.8215 8.73551C15.8927 8.54923 17.0045 8.98 17.6254 9.41617C16.6087 7.63973 14.7101 6.44116 12.5303 6.44116C12.3924 6.44116 12.2573 6.45255 12.1218 6.46193C10.9554 6.54213 9.84009 6.97187 8.92145 7.69518C9.09873 7.84518 9.29888 8.04571 9.72051 8.46106C10.5093 9.23847 12.5332 10.0435 12.5375 10.138Z" fill="url(#paint5_radial_5789_114827)"/>
<path id="ear" d="M8.37906 7.30865C8.46006 7.36091 8.5404 7.41411 8.62009 7.4683C8.35506 6.54104 8.34376 5.55959 8.58746 4.62646C7.39292 5.17039 6.46379 6.03016 5.78833 6.78933C5.8442 6.78778 7.53092 6.75741 8.37906 7.30865Z" fill="url(#paint6_radial_5789_114827)"/>
<path id="body" d="M0.995021 12.6491C1.89224 17.9512 6.69866 21.9994 12.1545 22.1539C17.2041 22.2968 20.4303 19.3658 21.7628 16.5064C22.6241 14.6581 23.2219 11.6339 22.1247 8.65937L22.1243 8.6581L22.1228 8.64685C22.1215 8.63823 22.1208 8.63312 22.121 8.63593C22.121 8.6378 22.1218 8.64249 22.1233 8.65529C22.5358 11.3485 21.1658 13.9576 19.0242 15.7218L19.0177 15.737C14.8447 19.1348 10.8514 17.787 10.0428 17.2353C9.98603 17.208 9.92955 17.1799 9.87349 17.151C7.44054 15.9883 6.43546 13.7718 6.65094 11.8709C4.59659 11.8709 3.89611 10.1382 3.89611 10.1382C3.89611 10.1382 5.74055 8.82314 8.17144 9.96692C10.4229 11.0262 12.5372 10.1383 12.5375 10.1382C12.5332 10.0438 10.5093 9.23873 9.7203 8.46137C9.29872 8.04602 9.09852 7.84577 8.92124 7.69549C8.82506 7.61426 8.72451 7.53832 8.62003 7.46806C8.54025 7.41397 8.45991 7.36077 8.379 7.30841C7.53091 6.75717 5.84415 6.78754 5.78827 6.789H5.78288C5.32192 6.20513 5.3544 4.27908 5.3807 3.8769C5.37517 3.85196 5.03683 4.05253 4.99249 4.08277C4.58572 4.37311 4.20543 4.69893 3.85607 5.05629C3.45854 5.45951 3.09531 5.8952 2.77019 6.35879C2.77019 6.35935 2.76986 6.36005 2.76967 6.36061C2.76967 6.36 2.77 6.35935 2.77019 6.35879C2.02245 7.41842 1.49212 8.61573 1.20989 9.88156C1.20431 9.90669 0.791307 11.7125 0.995021 12.6491Z" fill="url(#paint7_radial_5789_114827)"/>
<path id="tail-flame" d="M16.6181 8.06102C17.0423 8.47749 17.4058 8.95167 17.6976 9.46963C17.7616 9.51772 17.8214 9.56567 17.8721 9.61245C20.5083 12.0414 19.1271 15.4769 19.0241 15.7217C21.1657 13.9575 22.5357 11.3484 22.1233 8.65515C20.8083 5.37785 18.5788 4.05633 16.7581 1.17887C16.6662 1.03337 16.574 0.8875 16.4842 0.733706C16.4385 0.655192 16.3958 0.574944 16.3562 0.493148C16.2805 0.347089 16.2222 0.192732 16.1823 0.0331729C16.1829 0.017517 16.1715 0.00401723 16.1559 0.00200164C16.1488 -6.08195e-05 16.1446 -0.000857679 16.1374 0.00120478C16.1358 0.00176727 16.13 0.00448597 16.1282 0.0051422C16.1257 0.00617343 16.1225 0.00856401 16.1197 0.00997023C15.6769 0.237872 13.0034 4.44679 16.6181 8.06102Z" fill="url(#paint8_radial_5789_114827)"/>
<path id="tail-small" d="M17.8722 9.61241C17.8214 9.56563 17.7616 9.51767 17.6976 9.46958C17.6739 9.45177 17.6507 9.43405 17.6254 9.41638C17.0045 8.98022 15.8927 8.54944 14.8216 8.73572C19.0041 10.8267 17.8813 18.0271 12.0856 17.7553C11.5694 17.7343 11.0594 17.6359 10.5725 17.4635C10.4573 17.4202 10.3434 17.3736 10.2309 17.3238C10.1653 17.2939 10.0997 17.2637 10.0349 17.2302C10.0373 17.2318 10.0404 17.2336 10.0428 17.2351C10.8513 17.7867 14.8446 19.1345 19.0177 15.7367L19.0241 15.7216C19.1271 15.477 20.5083 12.0415 17.8722 9.61241Z" fill="url(#paint9_radial_5789_114827)"/>
<path id="cheek-tufts" d="M7.29571 13.4248C7.29571 13.4248 7.83246 11.4248 11.1391 11.4248C11.4966 11.4248 12.5186 10.4273 12.5375 10.138C12.5564 9.84877 10.423 11.026 8.17146 9.9667C5.74057 8.82293 3.89612 10.138 3.89612 10.138C3.89612 10.138 4.5966 11.8707 6.65095 11.8707C6.43547 13.7716 7.44055 15.9883 9.8735 17.1508C9.92788 17.1767 9.97897 17.2051 10.0348 17.2301C8.61479 16.4962 7.44219 15.1092 7.29571 13.4248Z" fill="url(#paint10_radial_5789_114827)"/>
<path id="overlay-yellow" d="M23.2764 8.04963C22.771 6.83395 21.7474 5.52152 20.9436 5.10673C21.5978 6.3892 21.9764 7.67571 22.1211 8.63583C22.1211 8.63771 22.1218 8.6424 22.1234 8.65519C20.8085 5.37785 18.5789 4.05633 16.7583 1.17887C16.6664 1.03337 16.5742 0.8875 16.4843 0.733706C16.4386 0.655192 16.3959 0.574944 16.3563 0.493148C16.2807 0.347089 16.2224 0.192732 16.1825 0.0331729C16.183 0.017517 16.1716 0.00401723 16.156 0.00200164C16.1489 -6.08195e-05 16.1447 -0.000857679 16.1376 0.00120478C16.1359 0.00176727 16.1301 0.00448597 16.1284 0.0051422C16.1258 0.00617343 16.1165 0.0114702 16.1154 0.0121264C13.1115 1.81022 12.2127 4.87887 12.1216 6.46219C12.2571 6.45281 12.3921 6.44142 12.5301 6.44142C14.71 6.44142 16.6086 7.63995 17.6251 9.41643C17.0042 8.98026 15.8924 8.54949 14.8213 8.73577C19.0039 10.8267 17.881 18.0272 12.0853 17.7554C11.5692 17.7343 11.0591 17.6359 10.5722 17.4636C10.457 17.4203 10.3432 17.3737 10.2306 17.3239C10.165 17.294 10.0995 17.2638 10.0347 17.2303C10.037 17.2319 10.0402 17.2337 10.0425 17.2352C9.98573 17.2078 9.92924 17.1797 9.87318 17.1508C9.92755 17.1768 9.97865 17.2052 10.0345 17.2302C8.61438 16.4962 7.44177 15.1092 7.29534 13.4249C7.29534 13.4249 7.8321 11.4248 11.1388 11.4248C11.4962 11.4248 12.5182 10.4274 12.5371 10.1381C12.5328 10.0436 10.5089 9.23859 9.71995 8.46123C9.29836 8.04588 9.09816 7.84563 8.92089 7.69535C8.8247 7.61412 8.72416 7.53818 8.61967 7.46792C8.35465 6.54065 8.34335 5.55921 8.58705 4.62608C7.39251 5.17001 6.46337 6.02977 5.78792 6.78895H5.78253C5.32157 6.20508 5.35405 4.27903 5.38035 3.87685C5.37481 3.85191 5.03648 4.05248 4.99214 4.08272C4.58536 4.37306 4.20507 4.69883 3.85572 5.05625C3.45832 5.45946 3.09519 5.89506 2.77016 6.3586C2.77016 6.35916 2.76983 6.35986 2.76965 6.36042C2.76965 6.35981 2.76998 6.35916 2.77016 6.3586C2.02243 7.41823 1.49209 8.61554 1.20987 9.88137C1.20429 9.90659 1.1996 9.9327 1.19421 9.9581C1.17232 10.0605 1.07393 10.58 1.0602 10.6914C1.05912 10.7 1.06123 10.6829 1.0602 10.6914C0.970432 11.2283 0.913199 11.7701 0.888731 12.3139C0.888731 12.3337 0.887512 12.3533 0.887512 12.3732C0.887512 18.7945 6.09386 24 12.5159 24C18.2673 24 23.0428 19.8248 23.9777 14.3406C23.9974 14.1918 24.0132 14.0422 24.0306 13.8921C24.2617 11.8981 24.005 9.80225 23.2764 8.04963ZM22.1228 8.64675C22.1234 8.65088 22.1241 8.65519 22.1248 8.65927L22.1244 8.658L22.1228 8.64675Z" fill="url(#paint11_linear_5789_114827)"/>
</g>
</g>
<defs>
<linearGradient id="paint0_linear_5789_114827" x1="21.145" y1="3.71308" x2="2.47355" y2="21.7307" gradientUnits="userSpaceOnUse">
<stop offset="0.05" stop-color="#FFF339"/>
<stop offset="0.37" stop-color="#FF9800"/>
<stop offset="0.53" stop-color="#FF3346"/>
<stop offset="0.7" stop-color="#FF0D8A"/>
</linearGradient>
<radialGradient id="paint1_radial_5789_114827" cx="0" cy="0" r="1" gradientUnits="userSpaceOnUse" gradientTransform="translate(21.2604 5.10793) scale(23.783 24.1835)">
<stop offset="0.13" stop-color="#FFBD44"/>
<stop offset="0.28" stop-color="#FF9800"/>
<stop offset="0.47" stop-color="#FF3450"/>
<stop offset="0.78" stop-color="#FF027B"/>
<stop offset="0.86" stop-color="#FF0083"/>
</radialGradient>
<radialGradient id="paint2_radial_5789_114827" cx="0" cy="0" r="1" gradientUnits="userSpaceOnUse" gradientTransform="translate(12.2669 12.6726) scale(24.3776 24.1835)">
<stop offset="0.3" stop-color="#AF0611"/>
<stop offset="0.35" stop-color="#CE1223" stop-opacity="0.74"/>
<stop offset="0.43" stop-color="#FD243B" stop-opacity="0.34"/>
<stop offset="0.5" stop-color="#FF304B" stop-opacity="0.09"/>
<stop offset="0.53" stop-color="#FF3450" stop-opacity="0"/>
</radialGradient>
<radialGradient id="paint3_radial_5789_114827" cx="0" cy="0" r="1" gradientUnits="userSpaceOnUse" gradientTransform="translate(14.7979 -1.11999) scale(7.80583 13.2523)">
<stop offset="0.13" stop-color="#FFF339"/>
<stop offset="0.53" stop-color="#FF9800"/>
</radialGradient>
<radialGradient id="paint4_radial_5789_114827" cx="0" cy="0" r="1" gradientUnits="userSpaceOnUse" gradientTransform="translate(9.6461 18.91) scale(10.33 11.3218)">
<stop offset="0.35" stop-color="#008EE9"/>
<stop offset="0.67" stop-color="#A059FF"/>
<stop offset="1" stop-color="#DF36EA"/>
</radialGradient>
<radialGradient id="paint5_radial_5789_114827" cx="0" cy="0" r="1" gradientUnits="userSpaceOnUse" gradientTransform="translate(12.1299 10.1754) scale(5.48474 6.67926)">
<stop offset="0.21" stop-color="#A059FF" stop-opacity="0"/>
<stop offset="0.97" stop-color="#80008E" stop-opacity="0.6"/>
</radialGradient>
<radialGradient id="paint6_radial_5789_114827" cx="0" cy="0" r="1" gradientUnits="userSpaceOnUse" gradientTransform="translate(11.7352 1.78429) scale(8.21222 8.24141)">
<stop offset="0.1" stop-color="#FFE200"/>
<stop offset="0.79" stop-color="#FF7232"/>
</radialGradient>
<radialGradient id="paint7_radial_5789_114827" cx="0" cy="0" r="1" gradientUnits="userSpaceOnUse" gradientTransform="translate(19.2328 -3.62049) scale(39.207 32.9121)">
<stop offset="0.11" stop-color="#FFF339"/>
<stop offset="0.46" stop-color="#FF9800"/>
<stop offset="0.72" stop-color="#FF3346"/>
<stop offset="0.9" stop-color="#FF0D8A"/>
</radialGradient>
<radialGradient id="paint8_radial_5789_114827" cx="0" cy="0" r="1" gradientUnits="userSpaceOnUse" gradientTransform="translate(15.9174 -2.97694) rotate(83.9544) scale(25.7754 25.9683)">
<stop stop-color="#FFF339"/>
<stop offset="0.3" stop-color="#FF9800"/>
<stop offset="0.57" stop-color="#FF3346"/>
<stop offset="0.74" stop-color="#FF0D8A"/>
</radialGradient>
<radialGradient id="paint9_radial_5789_114827" cx="0" cy="0" r="1" gradientUnits="userSpaceOnUse" gradientTransform="translate(11.8191 4.74855) scale(22.5101 22.1147)">
<stop offset="0.14" stop-color="#FFF339"/>
<stop offset="0.48" stop-color="#FF9800"/>
<stop offset="0.66" stop-color="#FF3346"/>
<stop offset="0.9" stop-color="#FF0D8A"/>
</radialGradient>
<radialGradient id="paint10_radial_5789_114827" cx="0" cy="0" r="1" gradientUnits="userSpaceOnUse" gradientTransform="translate(17.6623 6.04036) scale(27.0564 24.2052)">
<stop offset="0.09" stop-color="#FFF339"/>
<stop offset="0.63" stop-color="#FF9800"/>
</radialGradient>
<linearGradient id="paint11_linear_5789_114827" x1="20.0005" y1="3.84998" x2="5.06738" y2="20.1662" gradientUnits="userSpaceOnUse">
<stop offset="0.17" stop-color="#FFF339" stop-opacity="0.8"/>
<stop offset="0.6" stop-color="#FFF339" stop-opacity="0"/>
</linearGradient>
<clipPath id="clip0_5789_114827">
<rect width="24" height="24" fill="white" transform="translate(0.500061)"/>
</clipPath>
</defs>
</svg>
