<svg width="14" height="15" viewBox="0 0 14 15" fill="none" xmlns="http://www.w3.org/2000/svg">
<g id="Frame">
<path id="Vector" d="M5.42376 2.4249C5.42376 2.28566 5.36845 2.15213 5.26999 2.05367C5.17153 1.95521 5.038 1.8999 4.89876 1.8999C4.75952 1.8999 4.62598 1.95521 4.52753 2.05367C4.42907 2.15213 4.37376 2.28566 4.37376 2.4249V3.3055C3.53107 3.32434 2.69004 3.3893 1.85446 3.5001C1.78611 3.5092 1.72023 3.53168 1.66057 3.56624C1.6009 3.6008 1.54864 3.64678 1.50674 3.70154C1.46485 3.7563 1.43415 3.81878 1.41641 3.88541C1.39866 3.95204 1.39421 4.02151 1.40331 4.08985C1.41241 4.1582 1.43488 4.22408 1.46945 4.28374C1.50401 4.34341 1.54998 4.39568 1.60475 4.43757C1.65951 4.47946 1.72199 4.51016 1.78862 4.52791C1.85524 4.54565 1.92471 4.5501 1.99306 4.541C3.35039 4.36093 4.72153 4.3075 6.08876 4.3814C5.79907 5.36001 5.39988 6.30281 4.89876 7.1919C4.63703 6.72773 4.40283 6.24857 4.19736 5.7569C4.14135 5.63209 4.03884 5.53407 3.91164 5.4837C3.78445 5.43334 3.64262 5.43462 3.51635 5.48726C3.39008 5.5399 3.28935 5.63975 3.23559 5.76555C3.18184 5.89136 3.17932 6.03317 3.22856 6.1608C3.52305 6.866 3.87224 7.54707 4.27296 8.1978C3.52475 9.29129 2.62219 10.2707 1.59336 11.1056C1.53747 11.1482 1.49071 11.2016 1.45585 11.2627C1.42098 11.3237 1.39873 11.3911 1.39041 11.4609C1.38209 11.5307 1.38787 11.6015 1.4074 11.669C1.42694 11.7365 1.45983 11.7994 1.50413 11.854C1.54843 11.9085 1.60324 11.9536 1.6653 11.9866C1.72737 12.0196 1.79542 12.0398 1.86544 12.046C1.93545 12.0522 2.006 12.0443 2.07289 12.0227C2.13978 12.0011 2.20166 11.9663 2.25486 11.9204C3.25376 11.1098 4.14257 10.1723 4.89876 9.1316C4.96526 9.224 5.03316 9.315 5.10176 9.4053C5.18623 9.51614 5.31127 9.58887 5.44937 9.60752C5.58747 9.62616 5.72732 9.58917 5.83816 9.5047C5.94899 9.42023 6.02173 9.29519 6.04037 9.15709C6.05901 9.01899 6.02203 8.87914 5.93756 8.7683C5.79476 8.5821 5.65756 8.3917 5.52456 8.1978C6.24043 7.03598 6.79014 5.77965 7.15766 4.4654C7.37466 4.4871 7.59026 4.513 7.80446 4.541C7.94249 4.55938 8.08217 4.52218 8.19277 4.43757C8.30337 4.35296 8.37583 4.22788 8.39421 4.08985C8.41259 3.95182 8.37538 3.81214 8.29077 3.70154C8.20617 3.59094 8.08109 3.51848 7.94306 3.5001C7.1075 3.38909 6.26646 3.32412 5.42376 3.3055V2.4249Z" fill="white"/>
<path id="Vector_2" fill-rule="evenodd" clip-rule="evenodd" d="M9.09948 6.1001C9.19703 6.1001 9.29265 6.12728 9.37561 6.17859C9.45858 6.22991 9.52561 6.30332 9.56918 6.3906L12.5442 12.3406C12.5756 12.4023 12.5945 12.4697 12.5998 12.5388C12.6051 12.6079 12.5966 12.6773 12.5749 12.7431C12.5532 12.8089 12.5187 12.8698 12.4734 12.9222C12.4281 12.9746 12.3728 13.0175 12.3108 13.0485C12.2488 13.0794 12.1813 13.0978 12.1122 13.1025C12.0431 13.1073 11.9737 13.0983 11.9081 13.0761C11.8424 13.0539 11.7818 13.0189 11.7298 12.9731C11.6777 12.9274 11.6352 12.8718 11.6048 12.8096L11.0504 11.7001H7.14928L6.59418 12.8096C6.56371 12.8718 6.52123 12.9274 6.46918 12.9731C6.41713 13.0189 6.35654 13.0539 6.29091 13.0761C6.22527 13.0983 6.15589 13.1073 6.08677 13.1025C6.01764 13.0978 5.95014 13.0794 5.88815 13.0485C5.82616 13.0175 5.77091 12.9746 5.72558 12.9222C5.68025 12.8698 5.64575 12.8089 5.62405 12.7431C5.60236 12.6773 5.59391 12.6079 5.59918 12.5388C5.60445 12.4697 5.62335 12.4023 5.65478 12.3406L8.62978 6.3906C8.67335 6.30332 8.74038 6.22991 8.82334 6.17859C8.90631 6.12728 9.00193 6.1001 9.09948 6.1001ZM10.5254 10.6501L9.09948 7.799L7.67428 10.6501H10.5254Z" fill="white"/>
</g>
</svg>
