<svg width="122" height="40" viewBox="0 0 122 40" fill="none" xmlns="http://www.w3.org/2000/svg">
<g id="Company logo" clip-path="url(#clip0_4734_111445)">
<path id="Vector" d="M9.87141 10.6176C14.8524 10.6176 18.9095 14.6691 18.9095 19.6833C18.9095 24.6976 14.8524 28.7491 9.87141 28.7491C4.89041 28.7491 0.833313 24.7377 0.833313 19.6833C0.833313 14.629 4.89041 10.6176 9.87141 10.6176ZM80.73 10.417V26.3021C80.73 27.5055 81.2121 27.8265 82.136 28.0671L82.1761 28.2677H77.0746V26.3021C76.4721 27.7462 75.2268 28.6287 73.6201 28.6287C70.8886 28.6287 69.0809 26.1417 69.0809 22.4512C69.0809 20.3653 69.6835 18.6002 70.8082 17.2765C71.8928 15.9928 73.3791 15.3109 75.026 15.3109C75.8294 15.3109 76.5123 15.4714 77.0746 15.8324V13.6662C77.0746 13.1849 76.9541 12.8639 76.7131 12.6233C76.3918 12.3425 75.8696 12.2221 75.0662 12.3023H75.026V12.1018L80.73 10.417ZM100.092 15.351V26.3021C100.092 27.5055 100.574 27.8265 101.498 28.0671V28.2677H96.3961V26.262C95.7935 27.7061 94.4679 28.6287 92.9817 28.6287C91.2142 28.6287 90.0895 27.8265 89.6476 26.262L89.5673 25.8609C89.4869 25.4597 89.4468 25.0586 89.4468 24.6574V18.8008C89.4468 17.5172 89.1656 17.116 88.0409 17.0358H88.0007V16.8352L93.1022 15.351V24.5772C93.1022 25.9411 93.7047 26.7033 94.8295 26.7033C95.5123 26.7033 96.0747 26.3422 96.3961 25.7405V18.8008C96.3961 17.4771 96.1551 17.0759 95.2312 16.9957H95.191V16.7951L100.092 15.351ZM63.2564 15.3109C64.6222 15.3109 65.9477 15.7923 66.8315 16.6347C67.8357 17.5974 68.3579 19.0014 68.3981 20.8466V20.8867H60.7257C60.5651 23.5343 62.212 25.7004 64.3811 25.7806C65.9477 25.901 67.3135 24.9382 68.0767 23.3738L68.2776 23.454C67.8357 26.3824 66.1084 28.5886 63.0957 28.5886C59.6813 28.5886 57.7532 25.7405 57.6729 22.1704V21.2478C57.8335 19.6833 58.3156 18.2793 59.1591 17.2364C59.6813 16.5945 60.2839 16.1132 61.0069 15.7923C61.6095 15.4714 62.4932 15.3109 63.2162 15.3109H63.2564ZM116.4 15.351C118.57 15.351 119.895 16.7149 119.895 19.0415V26.5027C119.895 27.3852 120.297 27.8265 121.301 28.0671H121.341V28.2677H116.2V19.1618C116.2 17.7177 115.677 16.9957 114.593 16.9957C113.709 16.9957 113.267 17.6375 113.026 18.1991C113.066 18.4799 113.106 18.7607 113.106 19.0415V26.623C113.106 27.5457 113.388 27.8666 114.191 28.0671H114.231V28.2677H109.451V19.1618C109.451 17.7177 108.889 16.9957 107.844 16.9957C107.001 16.9957 106.559 17.5974 106.358 18.0788V26.6631C106.358 27.5858 106.639 27.9067 107.443 28.1073H107.483V28.3078H102.703V18.7607C102.703 17.477 102.381 17.0759 101.297 16.9957H101.257V16.7951L106.358 15.3911V17.5172C106.88 16.1533 108.085 15.351 109.612 15.351C111.339 15.351 112.544 16.1934 112.946 17.7177C113.468 16.2736 114.794 15.351 116.4 15.351ZM43.1316 11.2193L47.9117 22.4111L52.6919 11.2193H57.8335L57.7934 11.4198L57.735 11.4328C56.8492 11.6344 56.3874 11.9652 56.3874 13.0645V26.7033C56.4678 27.5858 56.9498 27.8666 57.7934 28.0671H57.8335V28.2677H51.2859V28.0671H51.3261C52.1697 27.8666 52.6517 27.5858 52.732 26.7033V13.4255L46.4255 28.2276H46.0639L39.918 13.8267V26.3824C39.918 27.5055 40.4001 27.8265 41.324 28.027H41.3641V28.2276H37.5882V28.027H37.6284C38.5523 27.8265 39.0343 27.5055 39.0343 26.3824V13.0645C39.0343 11.9413 38.5523 11.6204 37.6284 11.4198H37.5882V11.2193H43.1316ZM86.9563 15.351V26.3021L86.9569 26.3762C86.9766 27.5189 87.4576 27.8315 88.3622 28.0671L88.4024 28.2677H83.3009V18.8008C83.3009 17.5172 83.0197 17.116 81.895 17.0358H81.8548V16.8352L86.9563 15.351ZM24.3324 11.139C26.7827 11.139 28.8313 14.99 28.8313 19.6833C28.8313 24.4168 26.8228 28.2276 24.3324 28.2276C21.8419 28.2276 19.8334 24.4168 19.8334 19.6833C19.8334 14.9499 21.8419 11.139 24.3324 11.139ZM31.2415 12.0216C32.1654 12.0216 32.8482 15.4714 32.8482 19.6833C32.8482 23.8953 32.1252 27.3451 31.2415 27.3451C30.3666 27.3451 29.6492 23.9639 29.6349 19.8094L29.6347 19.6833C29.6347 15.4714 30.3577 12.0216 31.2415 12.0216ZM75.6285 16.0329C74.0218 16.0329 73.0175 18.159 73.0175 21.4483C73.0175 23.0128 73.2987 24.3767 73.7808 25.2993C74.2226 26.1818 74.8653 26.6631 75.5884 26.6631C76.3114 26.6631 76.8336 26.3422 77.0746 25.7405V16.9155C76.7934 16.3539 76.2713 16.0329 75.6285 16.0329ZM63.2162 16.0731C61.7701 16.0731 60.9266 17.798 60.8061 20.2048V20.2449H65.1845C65.2649 18.3596 64.9435 17.116 64.341 16.5143C64.0196 16.2335 63.6581 16.0731 63.2162 16.0731ZM84.988 10.5373C86.1529 10.5373 87.0366 11.4198 87.0366 12.5831C87.0366 13.7465 86.1529 14.629 84.988 14.629C83.8231 14.629 82.9394 13.7465 82.9394 12.5831C82.9394 11.4198 83.8231 10.5373 84.988 10.5373Z" fill="#808791"/>
</g>
<defs>
<clipPath id="clip0_4734_111445">
<rect width="121" height="40" fill="white" transform="translate(0.833313)"/>
</clipPath>
</defs>
</svg>
