<svg width="109" height="40" viewBox="0 0 109 40" fill="none" xmlns="http://www.w3.org/2000/svg">
<g id="Company logo" clip-path="url(#clip0_4734_111447)">
<g id="Vector">
<path d="M38.2797 28.9787V16.8495H38.4958L47.3246 28.9787H50.103V11.1668H47.0159V23.2654H46.7999L37.971 11.1668H35.1926V28.9787H38.2797ZM58.8392 29.2537C62.9141 29.2537 65.4146 26.6262 65.4146 22.2267C65.4146 17.8577 62.9141 15.1997 58.8392 15.1997C54.7952 15.1997 52.2639 17.8577 52.2639 22.2267C52.2948 26.6262 54.7644 29.2537 58.8392 29.2537ZM58.8392 26.6873C56.6783 26.6873 55.4435 25.068 55.4435 22.2267C55.4435 19.4159 56.6783 17.7661 58.8392 17.7661C61.0002 17.7661 62.235 19.4159 62.235 22.2267C62.235 25.068 61.0002 26.6873 58.8392 26.6873ZM68.2238 12.175V15.5663H66.0629V18.0105H68.2238V25.3736C68.2238 28.001 69.4586 29.0398 72.6074 29.0398C73.1939 29.0398 73.7804 28.9787 74.2435 28.887V26.504C73.8731 26.5345 73.6261 26.5651 73.1939 26.5651C71.8974 26.5651 71.3108 25.9846 71.3108 24.6403V18.0105H74.2435V15.5663H71.3108V12.175H68.2238ZM76.0957 28.9787H79.1827V15.4746H76.0957V28.9787ZM77.6392 13.2443C78.6579 13.2443 79.4914 12.4194 79.4914 11.4112C79.4914 10.3724 78.6579 9.54753 77.6392 9.54753C76.6205 9.54753 75.787 10.3724 75.787 11.4112C75.787 12.4194 76.6205 13.2443 77.6392 13.2443ZM87.6412 29.2537C91.7161 29.2537 94.2165 26.6262 94.2165 22.2267C94.2165 17.8577 91.7161 15.1997 87.6412 15.1997C83.5972 15.1997 81.0658 17.8577 81.0658 22.2267C81.0658 26.6262 83.5354 29.2537 87.6412 29.2537ZM87.6412 26.6873C85.4803 26.6873 84.2455 25.068 84.2455 22.2267C84.2455 19.4159 85.4803 17.7661 87.6412 17.7661C89.7712 17.7661 91.0369 19.4159 91.0369 22.2267C91.006 25.068 89.7712 26.6873 87.6412 26.6873ZM96.0379 28.9787H99.1249V21.1268C99.1249 19.1409 100.298 17.8883 102.119 17.8883C104.002 17.8883 104.867 18.927 104.867 20.974V28.9787H107.954V20.2408C107.954 17.0023 106.287 15.1997 103.262 15.1997C101.224 15.1997 99.8658 16.1162 99.2175 17.6439H99.0014V15.4746H96.007C96.0379 15.4746 96.0379 28.9787 96.0379 28.9787Z" fill="#808791"/>
<path fill-rule="evenodd" clip-rule="evenodd" d="M5.59336 10.0267C6.49184 10.7516 6.81682 10.6944 8.49909 10.5799L24.3468 9.62618C24.6909 9.62618 24.4041 9.28284 24.2894 9.24469L21.6513 7.35631C21.1543 6.97482 20.4661 6.51703 19.1853 6.63148L3.85374 7.75688C3.29936 7.8141 3.18466 8.10022 3.41406 8.31004L5.59336 10.0267ZM6.54919 13.7081V30.3411C6.54919 31.2376 6.98888 31.5619 8.00206 31.5047L25.4173 30.4937C26.4305 30.4365 26.5452 29.8261 26.5452 29.1013V12.5827C26.5452 11.8579 26.2585 11.4573 25.6467 11.5146L7.44767 12.5827C6.77859 12.64 6.54919 12.9833 6.54919 13.7081ZM23.7351 14.6046C23.8498 15.1006 23.7351 15.6156 23.238 15.6728L22.3969 15.8445V28.1285C21.6705 28.51 21.0014 28.7389 20.4279 28.7389C19.5294 28.7389 19.3 28.4528 18.6309 27.6135L13.1444 19.0109V27.3274L14.8841 27.7088C14.8841 27.7088 14.8841 28.7198 13.4885 28.7198L9.62697 28.9487C9.51227 28.7198 9.62697 28.1666 10.0093 28.0522L11.0225 27.7661V16.7791L9.62697 16.6647C9.51227 16.1687 9.79902 15.4439 10.5828 15.3867L14.7311 15.1006L20.447 23.7986V16.1115L18.9941 15.9399C18.8794 15.3295 19.3382 14.8717 19.8926 14.8145L23.7351 14.6046ZM2.57293 6.23091L18.5353 5.06737C20.4852 4.8957 21.0014 5.01014 22.2248 5.90665L27.3099 9.47359C28.151 10.084 28.4378 10.2556 28.4378 10.9233V30.5128C28.4378 31.7336 27.9981 32.4584 26.4305 32.5729L7.90647 33.6983C6.72124 33.7555 6.16686 33.5838 5.55513 32.8017L1.78915 27.9377C1.12006 27.0412 0.833313 26.3736 0.833313 25.5916V8.17652C0.833313 7.16557 1.29211 6.34536 2.57293 6.23091Z" fill="#808791"/>
</g>
</g>
<defs>
<clipPath id="clip0_4734_111447">
<rect width="107.5" height="40" fill="white" transform="translate(0.833313)"/>
</clipPath>
</defs>
</svg>
