<svg width="26" height="26" viewBox="0 0 26 26" fill="none" xmlns="http://www.w3.org/2000/svg">
<g id="vuesax/linear/call-calling">
<g id="Group 12">
<path id="Vector" d="M21.973 18.697C21.973 19.021 21.901 19.354 21.748 19.678C21.595 20.002 21.397 20.308 21.136 20.596C20.695 21.082 20.209 21.433 19.66 21.658C19.12 21.883 18.535 22 17.905 22C16.987 22 16.006 21.784 14.971 21.343C13.936 20.902 12.901 20.308 11.875 19.561C10.84 18.805 9.859 17.968 8.923 17.041C7.996 16.105 7.159 15.124 6.412 14.098C5.674 13.072 5.08 12.046 4.648 11.029C4.216 10.003 4 9.022 4 8.086C4 7.474 4.108 6.889 4.324 6.349C4.54 5.8 4.882 5.296 5.359 4.846C5.935 4.279 6.565 4 7.231 4C7.483 4 7.735 4.054 7.96 4.162C8.194 4.27 8.401 4.432 8.563 4.666L10.651 7.609C10.813 7.834 10.93 8.041 11.011 8.239C11.092 8.428 11.137 8.617 11.137 8.788C11.137 9.004 11.074 9.22 10.948 9.427C10.831 9.634 10.66 9.85 10.444 10.066L9.76 10.777C9.661 10.876 9.616 10.993 9.616 11.137C9.616 11.209 9.625 11.272 9.643 11.344C9.67 11.416 9.697 11.47 9.715 11.524C9.877 11.821 10.156 12.208 10.552 12.676C10.957 13.144 11.389 13.621 11.857 14.098C12.343 14.575 12.811 15.016 13.288 15.421C13.756 15.817 14.143 16.087 14.449 16.249C14.494 16.267 14.548 16.294 14.611 16.321C14.683 16.348 14.755 16.357 14.836 16.357C14.989 16.357 15.106 16.303 15.205 16.204L15.889 15.529C16.114 15.304 16.33 15.133 16.537 15.025C16.744 14.899 16.951 14.836 17.176 14.836C17.347 14.836 17.527 14.872 17.725 14.953C17.923 15.034 18.13 15.151 18.355 15.304L21.334 17.419C21.568 17.581 21.73 17.77 21.829 17.995C21.919 18.22 21.973 18.445 21.973 18.697Z" stroke="black" stroke-width="2" stroke-miterlimit="10"/>
<path id="Vector_2" d="M18.8482 10.3004C18.8482 9.76039 18.4252 8.93239 17.7952 8.25739C17.2192 7.63639 16.4542 7.15039 15.6982 7.15039" stroke="black" stroke-width="2" stroke-linecap="round" stroke-linejoin="round"/>
<path id="Vector_3" d="M21.9982 10.3C21.9982 6.817 19.1812 4 15.6982 4" stroke="black" stroke-width="2" stroke-linecap="round" stroke-linejoin="round"/>
</g>
</g>
</svg>
