<svg width="25" height="24" viewBox="0 0 25 24" fill="none" xmlns="http://www.w3.org/2000/svg">
<g id="safari" clip-path="url(#clip0_5789_114841)">
<g id="Group" opacity="0.08">
<path id="Vector" d="M12.5001 24.0001C18.8015 24.0001 23.9099 18.8917 23.9099 12.5903C23.9099 6.28878 18.8015 1.18042 12.5001 1.18042C6.19857 1.18042 1.09021 6.28878 1.09021 12.5903C1.09021 18.8917 6.19857 24.0001 12.5001 24.0001Z" fill="black"/>
</g>
<path id="Vector_2" d="M12.5001 23.6063C19.0188 23.6063 24.3032 18.3218 24.3032 11.8031C24.3032 5.28444 19.0188 0 12.5001 0C5.9814 0 0.69696 5.28444 0.69696 11.8031C0.69696 18.3218 5.9814 23.6063 12.5001 23.6063Z" fill="url(#paint0_linear_5789_114841)"/>
<g id="Group_2" opacity="0.08">
<path id="Vector_3" d="M12.5 0C5.98109 0 0.696777 5.28431 0.696777 11.8033C0.696777 18.3222 5.98109 23.6066 12.5 23.6066C19.019 23.6066 24.3033 18.3223 24.3033 11.8033C24.3033 5.28436 19.019 0 12.5 0ZM12.5 22.8197C6.4257 22.8197 1.48367 17.8777 1.48367 11.8033C1.48367 5.72897 6.4257 0.786891 12.5 0.786891C18.5744 0.786891 23.5164 5.72892 23.5164 11.8033C23.5164 17.8776 18.5744 22.8197 12.5 22.8197Z" fill="url(#paint1_linear_5789_114841)"/>
</g>
<g id="Group_3" opacity="0.16">
<path id="Vector_4" d="M12.5 0C5.98109 0 0.696777 5.28431 0.696777 11.8033C0.696777 18.3222 5.98109 23.6066 12.5 23.6066C19.019 23.6066 24.3033 18.3223 24.3033 11.8033C24.3033 5.28436 19.019 0 12.5 0ZM12.5 23.2131C6.19868 23.2131 1.0902 18.1047 1.0902 11.8033C1.0902 5.50186 6.19868 0.393422 12.5 0.393422C18.8014 0.393422 23.9099 5.50186 23.9099 11.8033C23.9099 18.1047 18.8014 23.2131 12.5 23.2131Z" fill="black"/>
</g>
<path id="Vector_5" d="M12.5001 22.426C18.3669 22.426 23.1229 17.67 23.1229 11.8032C23.1229 5.93641 18.3669 1.18042 12.5001 1.18042C6.63325 1.18042 1.87726 5.93641 1.87726 11.8032C1.87726 17.67 6.63325 22.426 12.5001 22.426Z" fill="url(#paint2_linear_5789_114841)"/>
<g id="Group_4" opacity="0.16">
<path id="Vector_6" d="M12.5001 1.18042C6.63307 1.18042 1.87714 5.93636 1.87714 11.8034C1.87714 17.6704 6.63307 22.4263 12.5001 22.4263C18.3671 22.4263 23.123 17.6704 23.123 11.8034C23.123 5.93636 18.3671 1.18042 12.5001 1.18042ZM12.5001 22.0329C6.85067 22.0329 2.2706 17.4528 2.2706 11.8034C2.2706 6.154 6.85067 1.57389 12.5001 1.57389C18.1495 1.57389 22.7296 6.15395 22.7296 11.8034C22.7296 17.4528 18.1495 22.0329 12.5001 22.0329Z" fill="url(#paint3_linear_5789_114841)"/>
</g>
<g id="Group_5" opacity="0.36">
<path id="SVGCleanerId_0" d="M12.5001 3.90166C12.4095 3.90166 12.336 3.82821 12.336 3.7376V2.16382C12.336 2.07321 12.4095 1.99976 12.5001 1.99976C12.5907 1.99976 12.6641 2.07321 12.6641 2.16382V3.7376C12.6641 3.82821 12.5907 3.90166 12.5001 3.90166Z" fill="white"/>
<g id="Group_6">
<path id="Vector_7" d="M11.3443 3.19043C11.2632 3.19043 11.1927 3.13034 11.1818 3.04779L11.0791 2.26798C11.0673 2.17812 11.1305 2.09571 11.2204 2.0839C11.31 2.07228 11.3926 2.13532 11.4044 2.22513L11.5071 3.00495C11.5189 3.09481 11.4557 3.17721 11.3659 3.18903C11.3587 3.18996 11.3515 3.19043 11.3443 3.19043Z" fill="white"/>
<path id="Vector_8" d="M9.11258 3.78894C9.04817 3.78894 8.98714 3.75083 8.96094 3.68765L8.65958 2.96057C8.62489 2.87685 8.6646 2.7809 8.74831 2.74616C8.83213 2.71152 8.92803 2.75123 8.96272 2.8349L9.26408 3.56198C9.29877 3.64569 9.25906 3.74165 9.17535 3.77638C9.15477 3.78491 9.13349 3.78894 9.11258 3.78894Z" fill="white"/>
<path id="Vector_9" d="M7.11123 4.94441C7.06196 4.94441 7.01326 4.92233 6.98096 4.88024L6.50176 4.25586C6.44659 4.184 6.46013 4.08102 6.53204 4.02585C6.6039 3.97072 6.70693 3.98422 6.76206 4.05613L7.24126 4.6805C7.29643 4.75236 7.28288 4.85535 7.21098 4.91052C7.18121 4.93339 7.14606 4.94441 7.11123 4.94441Z" fill="white"/>
<path id="Vector_10" d="M5.47698 6.57832C5.4421 6.57832 5.40699 6.56726 5.37723 6.54439L4.7528 6.06518C4.6809 6.01001 4.66735 5.90703 4.72252 5.83517C4.77769 5.76331 4.88073 5.74976 4.95254 5.80489L5.57696 6.28409C5.64887 6.33926 5.66241 6.44225 5.60724 6.51411C5.57494 6.55625 5.52624 6.57832 5.47698 6.57832Z" fill="white"/>
<path id="Vector_11" d="M4.32148 8.57982C4.30058 8.57982 4.2793 8.57579 4.25872 8.56725L3.53164 8.2659C3.44792 8.23121 3.40822 8.13521 3.44291 8.05149C3.47759 7.96782 3.57355 7.92802 3.65731 7.96275L4.38439 8.26411C4.46811 8.2988 4.50781 8.3948 4.47312 8.47852C4.44692 8.54166 4.38584 8.57982 4.32148 8.57982Z" fill="white"/>
<path id="Vector_12" d="M3.72338 10.8119C3.71626 10.8119 3.70904 10.8114 3.70177 10.8105L2.92196 10.7078C2.8321 10.6959 2.76887 10.6135 2.78073 10.5237C2.79254 10.4339 2.87495 10.371 2.9648 10.3824L3.74462 10.4852C3.83448 10.497 3.89771 10.5794 3.88585 10.6692C3.87498 10.7518 3.80443 10.8119 3.72338 10.8119Z" fill="white"/>
<path id="Vector_13" d="M10.4123 4.17683C10.3399 4.17683 10.2736 4.1285 10.254 4.05518L9.84675 2.53493C9.82331 2.44742 9.87525 2.35742 9.96277 2.33398C10.0502 2.31059 10.1402 2.36243 10.1637 2.45L10.5709 3.97025C10.5944 4.05776 10.5424 4.14776 10.4549 4.1712C10.4407 4.175 10.4264 4.17683 10.4123 4.17683Z" fill="white"/>
<path id="Vector_14" d="M8.46745 4.98228C8.41073 4.98228 8.35561 4.95289 8.32519 4.90025L7.53829 3.53736C7.49301 3.45889 7.51987 3.35858 7.59834 3.31325C7.67681 3.26801 7.77712 3.29478 7.82245 3.37329L8.60934 4.73618C8.65462 4.81465 8.62776 4.91497 8.54929 4.96029C8.52347 4.97515 8.49525 4.98228 8.46745 4.98228Z" fill="white"/>
<path id="Vector_15" d="M6.7967 6.264C6.7547 6.264 6.7127 6.24797 6.68069 6.21596L5.56802 5.10333C5.50394 5.03925 5.50394 4.93538 5.56802 4.8713C5.6321 4.80722 5.73597 4.80722 5.80005 4.8713L6.91272 5.98393C6.9768 6.048 6.9768 6.15188 6.91272 6.21596C6.88066 6.24797 6.83866 6.264 6.7967 6.264Z" fill="white"/>
<path id="Vector_16" d="M5.5147 7.93459C5.48686 7.93459 5.45869 7.92751 5.43281 7.9126L4.06992 7.12571C3.99145 7.08039 3.96454 6.98007 4.00987 6.9016C4.0552 6.82314 4.15556 6.79632 4.23398 6.84156L5.59687 7.62845C5.67534 7.67378 5.70225 7.77409 5.65692 7.85256C5.62659 7.9052 5.57142 7.93459 5.5147 7.93459Z" fill="white"/>
<path id="Vector_17" d="M4.70954 9.87969C4.69552 9.87969 4.68123 9.87786 4.66698 9.87407L3.14673 9.46686C3.05921 9.44343 3.00727 9.35347 3.03071 9.26591C3.05415 9.17844 3.14396 9.1265 3.23166 9.14989L4.75191 9.5571C4.83943 9.58053 4.89137 9.67049 4.86793 9.75805C4.84829 9.83132 4.78201 9.87969 4.70954 9.87969Z" fill="white"/>
<path id="Vector_18" d="M4.4345 11.9673H2.86072C2.77011 11.9673 2.69666 11.8938 2.69666 11.8032C2.69666 11.7126 2.77011 11.6392 2.86072 11.6392H4.4345C4.52511 11.6392 4.59856 11.7126 4.59856 11.8032C4.59856 11.8938 4.52511 11.9673 4.4345 11.9673Z" fill="white"/>
</g>
<g id="Group_7">
<path id="Vector_19" d="M2.94312 13.2255C2.86203 13.2255 2.79153 13.1654 2.78065 13.0828C2.76884 12.993 2.83208 12.9105 2.92189 12.8987L3.7017 12.7961C3.79175 12.7844 3.87397 12.8475 3.88578 12.9373C3.89759 13.0272 3.83436 13.1096 3.74455 13.1214L2.96473 13.224C2.95747 13.225 2.95025 13.2255 2.94312 13.2255Z" fill="white"/>
<path id="Vector_20" d="M3.59455 15.6562C3.53014 15.6562 3.46911 15.6181 3.44291 15.5549C3.40822 15.4712 3.44792 15.3752 3.53164 15.3405L4.25872 15.0392C4.34253 15.0044 4.43844 15.0442 4.47312 15.128C4.50781 15.2116 4.46811 15.3076 4.38439 15.3423L3.65731 15.6437C3.63678 15.6522 3.61545 15.6562 3.59455 15.6562Z" fill="white"/>
<path id="Vector_21" d="M4.85279 17.8354C4.80352 17.8354 4.75482 17.8133 4.72252 17.7713C4.66735 17.6994 4.6809 17.5964 4.7528 17.5412L5.37723 17.062C5.44913 17.0068 5.55212 17.0204 5.60724 17.0923C5.66241 17.1642 5.64887 17.2672 5.57696 17.3223L4.95254 17.8015C4.92277 17.8244 4.88766 17.8354 4.85279 17.8354Z" fill="white"/>
<path id="Vector_22" d="M6.63179 19.6146C6.59691 19.6146 6.56181 19.6036 6.53204 19.5807C6.46013 19.5255 6.44659 19.4225 6.50176 19.3507L6.98096 18.7263C7.03613 18.6544 7.13916 18.6408 7.21098 18.696C7.28288 18.7512 7.29643 18.8542 7.24126 18.926L6.76206 19.5504C6.72971 19.5926 6.68101 19.6146 6.63179 19.6146Z" fill="white"/>
<path id="Vector_23" d="M8.81108 20.8728C8.79017 20.8728 8.76889 20.8687 8.74831 20.8602C8.6646 20.8255 8.62489 20.7295 8.65958 20.6458L8.96094 19.9187C8.99563 19.835 9.09153 19.7952 9.17535 19.8299C9.25906 19.8646 9.29877 19.9606 9.26408 20.0443L8.96272 20.7714C8.93652 20.8347 8.87544 20.8728 8.81108 20.8728Z" fill="white"/>
<path id="Vector_24" d="M11.242 21.524C11.2349 21.524 11.2277 21.5235 11.2204 21.5226C11.1306 21.5107 11.0673 21.4283 11.0792 21.3385L11.1819 20.5587C11.1938 20.4688 11.2762 20.4057 11.366 20.4174C11.4558 20.4292 11.5191 20.5117 11.5072 20.6015L11.4045 21.3813C11.3936 21.4639 11.3231 21.524 11.242 21.524Z" fill="white"/>
<path id="Vector_25" d="M3.1891 14.462C3.11663 14.462 3.05035 14.4137 3.03071 14.3403C3.00727 14.2528 3.05921 14.1628 3.14673 14.1394L4.66698 13.7321C4.75468 13.7088 4.84449 13.7606 4.86793 13.8482C4.89137 13.9357 4.83943 14.0257 4.75191 14.0491L3.23166 14.4564C3.21746 14.4602 3.20316 14.462 3.1891 14.462Z" fill="white"/>
<path id="Vector_26" d="M4.15212 16.787C4.0954 16.787 4.04027 16.7576 4.00985 16.7049C3.96457 16.6264 3.99143 16.5261 4.0699 16.4808L5.43279 15.6939C5.51131 15.6485 5.61162 15.6755 5.6569 15.754C5.70218 15.8324 5.67532 15.9327 5.59685 15.9781L4.23396 16.765C4.20813 16.7799 4.17996 16.787 4.15212 16.787Z" fill="white"/>
<path id="Vector_27" d="M7.68019 20.3154C7.65235 20.3154 7.62418 20.3083 7.5983 20.2933C7.51983 20.248 7.49293 20.1477 7.53825 20.0692L8.32515 18.7063C8.37047 18.6278 8.47083 18.601 8.54925 18.6463C8.62772 18.6916 8.65463 18.7919 8.6093 18.8704L7.82241 20.2333C7.79204 20.286 7.73686 20.3154 7.68019 20.3154Z" fill="white"/>
<path id="Vector_28" d="M10.0053 21.2782C9.99127 21.2782 9.97702 21.2764 9.96277 21.2726C9.87525 21.2491 9.82331 21.1592 9.84675 21.0717L10.254 19.5514C10.2774 19.4638 10.3672 19.4119 10.4549 19.4353C10.5424 19.4587 10.5944 19.5487 10.5709 19.6362L10.1637 21.1565C10.1441 21.2298 10.0778 21.2782 10.0053 21.2782Z" fill="white"/>
<path id="Vector_29" d="M12.5001 21.6064C12.4095 21.6064 12.336 21.533 12.336 21.4424V19.8687C12.336 19.778 12.4095 19.7046 12.5001 19.7046C12.5907 19.7046 12.6641 19.778 12.6641 19.8687V21.4424C12.6641 21.533 12.5907 21.6064 12.5001 21.6064Z" fill="white"/>
</g>
<g id="Group_8">
<path id="Vector_30" d="M13.758 21.524C13.677 21.524 13.6065 21.4639 13.5956 21.3813L13.4929 20.6015C13.4811 20.5117 13.5444 20.4292 13.6342 20.4174C13.7242 20.4056 13.8064 20.4688 13.8183 20.5587L13.9209 21.3385C13.9328 21.4283 13.8695 21.5107 13.7797 21.5226C13.7724 21.5235 13.7651 21.524 13.758 21.524Z" fill="white"/>
<path id="Vector_31" d="M16.189 20.8729C16.1246 20.8729 16.0636 20.8348 16.0374 20.7716L15.736 20.0445C15.7013 19.9608 15.741 19.8648 15.8248 19.8302C15.9082 19.7955 16.0044 19.8352 16.0391 19.9189L16.3405 20.6461C16.3752 20.7297 16.3355 20.8257 16.2518 20.8604C16.2313 20.8689 16.21 20.8729 16.189 20.8729Z" fill="white"/>
<path id="Vector_32" d="M18.3684 19.6146C18.3191 19.6146 18.2704 19.5925 18.2381 19.5504L17.7588 18.9261C17.7037 18.8542 17.7172 18.7512 17.7891 18.696C17.8609 18.6409 17.9639 18.6544 18.0191 18.7263L18.4984 19.3507C18.5536 19.4226 18.54 19.5255 18.4681 19.5807C18.4384 19.6035 18.4032 19.6146 18.3684 19.6146Z" fill="white"/>
<path id="Vector_33" d="M20.1472 17.8355C20.1124 17.8355 20.0773 17.8245 20.0475 17.8015L19.4231 17.3223C19.3513 17.2672 19.3377 17.1642 19.3928 17.0923C19.4479 17.0204 19.5509 17.0068 19.6229 17.062L20.2472 17.5412C20.3191 17.5964 20.3326 17.6994 20.2775 17.7713C20.2452 17.8134 20.1965 17.8355 20.1472 17.8355Z" fill="white"/>
<path id="Vector_34" d="M21.4056 15.6562C21.3846 15.6562 21.3634 15.6521 21.3428 15.6436L20.6157 15.3423C20.532 15.3076 20.4923 15.2116 20.5269 15.1279C20.5616 15.0441 20.6576 15.0045 20.7413 15.0391L21.4684 15.3405C21.5521 15.3752 21.5918 15.4712 21.5572 15.5548C21.531 15.6181 21.4699 15.6562 21.4056 15.6562Z" fill="white"/>
<path id="Vector_35" d="M22.057 13.2255C22.0499 13.2255 22.0426 13.225 22.0353 13.2241L21.2555 13.1214C21.1657 13.1096 21.1024 13.0272 21.1143 12.9373C21.1261 12.8476 21.2086 12.7842 21.2984 12.7961L22.0782 12.8988C22.168 12.9106 22.2313 12.993 22.2194 13.0828C22.2085 13.1653 22.138 13.2255 22.057 13.2255Z" fill="white"/>
<path id="Vector_36" d="M14.9948 21.2782C14.9223 21.2782 14.856 21.2299 14.8364 21.1565L14.4291 19.6362C14.4057 19.5487 14.4576 19.4587 14.5452 19.4353C14.6325 19.4119 14.7227 19.4638 14.7461 19.5514L15.1534 21.0717C15.1768 21.1592 15.1249 21.2491 15.0373 21.2726C15.0231 21.2763 15.0089 21.2782 14.9948 21.2782Z" fill="white"/>
<path id="Vector_37" d="M17.3198 20.3154C17.2631 20.3154 17.208 20.2859 17.1776 20.2333L16.3907 18.8704C16.3454 18.7919 16.3723 18.6916 16.4508 18.6463C16.5292 18.601 16.6296 18.6278 16.6749 18.7063L17.4617 20.0692C17.5071 20.1477 17.4802 20.248 17.4017 20.2933C17.3759 20.3083 17.3476 20.3154 17.3198 20.3154Z" fill="white"/>
<path id="Vector_38" d="M19.3161 18.7832C19.2741 18.7832 19.2321 18.7672 19.2 18.7352L18.0874 17.6226C18.0233 17.5585 18.0233 17.4546 18.0874 17.3906C18.1513 17.3265 18.2553 17.3265 18.3193 17.3906L19.432 18.5032C19.4961 18.5672 19.4961 18.6712 19.432 18.7352C19.4001 18.7672 19.3581 18.7832 19.3161 18.7832Z" fill="white"/>
<path id="Vector_39" d="M20.848 16.787C20.8201 16.787 20.7919 16.7799 20.7661 16.7649L19.4032 15.978C19.3248 15.9327 19.2979 15.8324 19.3432 15.7539C19.3885 15.6754 19.4889 15.6486 19.5673 15.6939L20.9301 16.4808C21.0086 16.5261 21.0355 16.6264 20.9902 16.7049C20.9598 16.7575 20.9046 16.787 20.848 16.787Z" fill="white"/>
<path id="Vector_40" d="M21.811 14.462C21.7969 14.462 21.7827 14.4602 21.7684 14.4564L20.2482 14.0491C20.1606 14.0257 20.1086 13.9358 20.1321 13.8482C20.1555 13.7607 20.2457 13.7088 20.333 13.7322L21.8533 14.1394C21.9408 14.1629 21.9928 14.2528 21.9694 14.3403C21.9497 14.4137 21.8834 14.462 21.811 14.462Z" fill="white"/>
</g>
<path id="SVGCleanerId_1" d="M22.1394 11.9673H20.5656C20.475 11.9673 20.4016 11.8938 20.4016 11.8032C20.4016 11.7126 20.475 11.6392 20.5656 11.6392H22.1394C22.23 11.6392 22.3035 11.7126 22.3035 11.8032C22.3035 11.8938 22.23 11.9673 22.1394 11.9673Z" fill="white"/>
<g id="Group_9">
<path id="SVGCleanerId_1_1_" d="M22.1394 11.9673H20.5656C20.475 11.9673 20.4016 11.8938 20.4016 11.8032C20.4016 11.7126 20.475 11.6392 20.5656 11.6392H22.1394C22.23 11.6392 22.3035 11.7126 22.3035 11.8032C22.3035 11.8938 22.23 11.9673 22.1394 11.9673Z" fill="white"/>
</g>
<g id="Group_10">
<path id="Vector_41" d="M21.2767 10.8119C21.1957 10.8119 21.1252 10.7518 21.1143 10.6692C21.1024 10.5794 21.1657 10.497 21.2555 10.4852L22.0353 10.3825C22.1251 10.3709 22.2076 10.4339 22.2194 10.5237C22.2313 10.6136 22.168 10.696 22.0782 10.7078L21.2984 10.8105C21.2911 10.8114 21.2839 10.8119 21.2767 10.8119Z" fill="white"/>
<path id="Vector_42" d="M20.6786 8.57976C20.6142 8.57976 20.5532 8.54166 20.527 8.47847C20.4923 8.39475 20.532 8.2988 20.6158 8.26406L21.3429 7.9627C21.4264 7.92811 21.5225 7.96772 21.5572 8.05144C21.5919 8.13516 21.5522 8.23111 21.4684 8.26584L20.7414 8.5672C20.7208 8.57573 20.6996 8.57976 20.6786 8.57976Z" fill="white"/>
<path id="Vector_43" d="M19.5231 6.57833C19.4739 6.57833 19.4252 6.55625 19.3929 6.51416C19.3377 6.4423 19.3512 6.33932 19.4232 6.28414L20.0475 5.80494C20.1194 5.74972 20.2223 5.76332 20.2775 5.83522C20.3327 5.90708 20.3192 6.01007 20.2473 6.06524L19.6229 6.54444C19.5931 6.56732 19.558 6.57833 19.5231 6.57833Z" fill="white"/>
<path id="Vector_44" d="M17.8889 4.94425C17.8541 4.94425 17.819 4.93319 17.7891 4.91032C17.7173 4.85514 17.7037 4.75216 17.7589 4.6803L18.2381 4.05592C18.2933 3.98402 18.3961 3.97042 18.4681 4.02564C18.54 4.08082 18.5535 4.1838 18.4984 4.25566L18.0192 4.88003C17.9869 4.92217 17.9382 4.94425 17.8889 4.94425Z" fill="white"/>
<path id="Vector_45" d="M15.8875 3.78895C15.8666 3.78895 15.8453 3.78492 15.8248 3.77639C15.7411 3.7417 15.7013 3.6457 15.736 3.56198L16.0374 2.8349C16.0721 2.75118 16.1683 2.71153 16.2518 2.74617C16.3355 2.78086 16.3752 2.87686 16.3405 2.96058L16.0391 3.68765C16.0129 3.75079 15.9519 3.78895 15.8875 3.78895Z" fill="white"/>
<path id="Vector_46" d="M13.6558 3.19042C13.6486 3.19042 13.6414 3.18995 13.6341 3.18902C13.5443 3.1772 13.481 3.09475 13.4929 3.00494L13.5955 2.22513C13.6074 2.13527 13.6897 2.07231 13.7796 2.08389C13.8694 2.0957 13.9327 2.17816 13.9209 2.26797L13.8182 3.04778C13.8074 3.13033 13.7369 3.19042 13.6558 3.19042Z" fill="white"/>
<path id="Vector_47" d="M20.2905 9.87971C20.218 9.87971 20.1517 9.83133 20.1321 9.75807C20.1087 9.67055 20.1606 9.58055 20.2482 9.55711L21.7685 9.14991C21.8559 9.12647 21.9459 9.17846 21.9694 9.26593C21.9928 9.35344 21.9409 9.44344 21.8533 9.46688L20.333 9.87408C20.3188 9.87783 20.3045 9.87971 20.2905 9.87971Z" fill="white"/>
<path id="Vector_48" d="M19.4854 7.9346C19.4287 7.9346 19.3736 7.90521 19.3432 7.85257C19.2979 7.7741 19.3248 7.67379 19.4032 7.62846L20.7661 6.84157C20.8445 6.79633 20.9449 6.8231 20.9902 6.90161C21.0355 6.98008 21.0086 7.0804 20.9301 7.12572L19.5673 7.91261C19.5415 7.92752 19.5132 7.9346 19.4854 7.9346Z" fill="white"/>
<path id="Vector_49" d="M16.5327 4.98227C16.5048 4.98227 16.4766 4.97519 16.4508 4.96028C16.3723 4.91496 16.3454 4.81464 16.3907 4.73617L17.1776 3.37328C17.223 3.29482 17.3233 3.268 17.4017 3.31324C17.4802 3.35857 17.5071 3.45888 17.4617 3.53735L16.6749 4.90024C16.6445 4.95283 16.5893 4.98227 16.5327 4.98227Z" fill="white"/>
<path id="Vector_50" d="M14.5877 4.17682C14.5737 4.17682 14.5594 4.17499 14.5452 4.17119C14.4577 4.14776 14.4057 4.0578 14.4291 3.97024L14.8364 2.44999C14.8598 2.36252 14.95 2.31058 15.0373 2.33398C15.1248 2.35741 15.1768 2.44737 15.1534 2.53493L14.7461 4.05518C14.7265 4.12849 14.6602 4.17682 14.5877 4.17682Z" fill="white"/>
</g>
<g id="Group_11">
<path id="SVGCleanerId_0_1_" d="M12.5001 3.90166C12.4095 3.90166 12.336 3.82821 12.336 3.7376V2.16382C12.336 2.07321 12.4095 1.99976 12.5001 1.99976C12.5907 1.99976 12.6641 2.07321 12.6641 2.16382V3.7376C12.6641 3.82821 12.5907 3.90166 12.5001 3.90166Z" fill="white"/>
</g>
</g>
<path id="Vector_51" d="M19.4215 4.88184L11.1089 10.4121L12.5001 11.8033L19.4215 4.88184Z" fill="#F4413D"/>
<path id="Vector_52" d="M19.4215 4.88184L12.5001 11.8033L13.8913 13.1945L19.4215 4.88184Z" fill="#CC2B2B"/>
<path id="Vector_53" d="M11.1088 10.4121L5.57861 18.7248L12.5 11.8033L11.1088 10.4121Z" fill="white"/>
<path id="Vector_54" d="M5.57861 18.7247L13.8912 13.1944L12.5 11.8032L5.57861 18.7247Z" fill="#D8D8D8"/>
</g>
<defs>
<linearGradient id="paint0_linear_5789_114841" x1="12.5001" y1="23.6063" x2="12.5001" y2="0" gradientUnits="userSpaceOnUse">
<stop stop-color="#F2F2F2"/>
<stop offset="1" stop-color="white"/>
</linearGradient>
<linearGradient id="paint1_linear_5789_114841" x1="12.5" y1="23.6066" x2="12.5" y2="0" gradientUnits="userSpaceOnUse">
<stop/>
<stop offset="0.36" stop-opacity="0"/>
</linearGradient>
<linearGradient id="paint2_linear_5789_114841" x1="12.5001" y1="22.426" x2="12.5001" y2="1.18042" gradientUnits="userSpaceOnUse">
<stop stop-color="#3871E9"/>
<stop offset="1" stop-color="#61C5F6"/>
</linearGradient>
<linearGradient id="paint3_linear_5789_114841" x1="12.5001" y1="22.4263" x2="12.5001" y2="1.18042" gradientUnits="userSpaceOnUse">
<stop/>
<stop offset="0.36" stop-opacity="0"/>
</linearGradient>
<clipPath id="clip0_5789_114841">
<rect width="24" height="24" fill="white" transform="translate(0.500061)"/>
</clipPath>
</defs>
</svg>
