<svg width="151" height="40" viewBox="0 0 151 40" fill="none" xmlns="http://www.w3.org/2000/svg">
<g id="Company logo" clip-path="url(#clip0_4734_111449)">
<g id="Vector">
<path fill-rule="evenodd" clip-rule="evenodd" d="M22.1815 11.9704C22.7767 12.1125 23.2987 12.4688 23.6479 12.9712C24.0099 13.605 24.1823 14.3294 24.1445 15.0583C24.144 16.0163 23.9975 16.9686 23.71 17.8824C23.372 18.949 22.9491 19.9868 22.4453 20.9859L21.8557 22.2816L18.9539 15.2367C18.8121 14.9011 18.6928 14.5564 18.597 14.2048C18.5211 13.9365 18.4742 13.6608 18.4574 13.3824C18.4427 13.0305 18.5686 12.6871 18.8072 12.4281C19.0459 12.169 19.3778 12.0155 19.7298 12.0014V11.7919H10.9781V12.0014C11.2759 12.0559 11.5636 12.1553 11.8315 12.2962C12.1049 12.4801 12.3351 12.7209 12.5065 13.0023C12.8088 13.4775 13.0684 13.9786 13.2824 14.4997L14.6479 17.7583L12.1807 22.6385L8.50308 14.104C8.40842 13.9335 8.33047 13.7542 8.27032 13.5686C8.23895 13.4337 8.22077 13.2959 8.21601 13.1574C8.21402 12.8976 8.30795 12.6462 8.4798 12.4514C8.69188 12.2225 8.95896 12.0515 9.25567 11.9548V11.7609H0.333252V11.9704C1.05887 12.1919 1.71584 12.5952 2.24187 13.1419C2.93222 13.936 3.49735 14.8308 3.91773 15.7954L9.56601 28.3488H9.79877L14.8884 18.2626L19.241 28.3488H19.4738L24.6488 17.1764C25.1971 15.904 25.8895 14.6987 26.7126 13.5842C27.2502 12.8856 27.9436 12.3223 28.7376 11.9393V11.7376H22.1815V11.9704Z" fill="#808791"/>
<path d="M36.4108 23.0574C35.8522 24.4928 34.6186 25.1988 32.6712 25.1988C31.6144 25.2546 30.5859 24.8466 29.8548 24.0816C29.1083 23.1801 28.7288 22.0305 28.7919 20.8617H36.5505V20.7143C36.5631 19.7843 36.2925 18.8724 35.7746 18.0997C35.2445 17.3532 34.5275 16.7592 33.6953 16.3773C32.7825 15.9612 31.789 15.7519 30.7858 15.7643C29.6695 15.7498 28.5676 16.0167 27.5815 16.5402C26.6201 17.0499 25.8155 17.8116 25.2539 18.7436C24.6551 19.7513 24.3538 20.908 24.385 22.0798C24.3617 23.1651 24.6296 24.2367 25.1608 25.1833C25.6841 26.0883 26.4465 26.8319 27.3643 27.3324C28.3463 27.8664 29.4511 28.1339 30.5686 28.1083C31.9918 28.1748 33.3912 27.7257 34.51 26.8436C35.6321 25.8845 36.3863 24.5654 36.6436 23.1117L36.4108 23.0574ZM29.2962 17.2617C29.4785 16.5846 30.0923 16.1139 30.7936 16.1135C31.0066 16.1144 31.2164 16.1649 31.4065 16.2609C31.6059 16.3707 31.77 16.5348 31.8798 16.7342C32.001 16.9266 32.0999 17.1323 32.1746 17.3471C32.2739 17.6538 32.3339 17.9718 32.3531 18.2936C32.3531 18.6738 32.4074 19.2014 32.4074 19.8454V20.435H28.7919C28.7948 19.8255 28.8337 19.2167 28.9083 18.6117C28.9946 18.1404 29.1245 17.6781 29.2962 17.2307V17.2617Z" fill="#808791"/>
<path d="M50.2598 26.1996C50.1849 26.265 50.0875 26.2984 49.9883 26.2927H49.7245C49.4716 26.2974 49.2365 26.1634 49.1115 25.9436C48.9333 25.5064 48.8614 25.033 48.902 24.5626V18.9376C48.9712 18.0459 48.6933 17.1619 48.1262 16.4703C47.4999 15.8858 46.6503 15.6026 45.7986 15.6945C44.8568 15.7106 43.9199 15.8329 43.0055 16.0591C41.967 16.2929 40.9593 16.647 40.0029 17.1143C39.223 17.4376 38.5199 17.9214 37.9391 18.5341C37.533 18.9521 37.293 19.5038 37.2641 20.0858C37.2455 20.5401 37.427 20.9797 37.7607 21.2884C38.1306 21.5991 38.605 21.7572 39.0874 21.7307C39.6724 21.7145 40.2285 21.4727 40.6391 21.0557C41.1354 20.5363 41.3914 19.8329 41.3452 19.116V18.7048C41.3071 18.1038 41.4861 17.5091 41.8495 17.029C42.14 16.6638 42.5856 16.4568 43.0521 16.4703C43.3852 16.4551 43.7144 16.5476 43.9908 16.7341C44.2876 16.9677 44.489 17.3015 44.5572 17.6729C44.6923 18.2919 44.7522 18.9249 44.7357 19.5583V20.7919C43.5331 21.141 42.4081 21.5212 41.5003 21.8781C40.5852 22.2258 39.6914 22.6274 38.8236 23.0807C37.8511 23.5086 37.209 24.4551 37.171 25.5169C37.1613 26.2515 37.512 26.9442 38.1098 27.3712C38.816 27.8626 39.6631 28.1105 40.5227 28.0772C41.408 28.0929 42.2848 27.9016 43.0831 27.5186C43.7482 27.1644 44.3301 26.6724 44.79 26.0755C44.8441 26.6348 45.0942 27.1569 45.496 27.5496C45.9231 27.9269 46.4782 28.1267 47.0477 28.1083C47.687 28.1174 48.3169 27.9539 48.871 27.635C49.4669 27.3179 49.9738 26.8564 50.3451 26.2927L50.2598 26.1996ZM43.3469 26.4091C42.4391 26.4091 41.9658 25.7884 41.9658 24.5238C41.9569 23.7653 42.2339 23.0312 42.7417 22.4677C43.3114 21.9045 44.0048 21.482 44.7667 21.2341V24.741C44.7984 25.1853 44.6628 25.6253 44.3865 25.9746C44.1448 26.2762 43.7714 26.4412 43.3857 26.4169L43.3469 26.4091Z" fill="#808791"/>
<path fill-rule="evenodd" clip-rule="evenodd" d="M50.2599 27.4953C50.6751 27.4998 51.0629 27.2883 51.284 26.9367C51.5555 26.3064 51.6675 25.6189 51.6099 24.935V15.0893C51.6804 14.2566 51.5165 13.4208 51.1366 12.6764C50.8668 12.2213 50.3696 11.9504 49.8409 11.9703V11.7066C50.8185 11.466 51.8426 11.2333 52.8435 10.9307C53.8444 10.6281 54.8452 10.3798 55.7219 10.0617V25.4083C55.6808 25.9394 55.7714 26.4724 55.9857 26.96C56.1892 27.2487 56.5172 27.4242 56.8702 27.4333V27.6971H50.2599V27.4953Z" fill="#808791"/>
<path fill-rule="evenodd" clip-rule="evenodd" d="M58.9883 27.4333C58.4386 26.804 58.172 25.9763 58.2512 25.1445V17.0522H56.4589L56.4046 16.8505C57.12 16.4974 57.7984 16.0737 58.4296 15.5858C59.1605 15.0085 59.8573 14.3894 60.5167 13.7315C61.1635 13.0798 61.7624 12.3823 62.3089 11.6445L62.5184 11.7065V16.0281H65.2184L64.6365 17.029H62.5184V24.3453C62.4793 24.882 62.5894 25.4191 62.8365 25.8971C63.0445 26.1966 63.3873 26.3738 63.752 26.3703C63.9503 26.3596 64.1474 26.3337 64.3417 26.2927C64.5316 26.2521 64.7112 26.1728 64.8693 26.06L65.0167 26.2695C64.3974 26.7957 63.7268 27.2584 63.015 27.6505C62.4047 27.961 61.7289 28.1206 61.0443 28.116C60.2981 28.1606 59.5629 27.9192 58.9883 27.441V27.4333Z" fill="#808791"/>
<path fill-rule="evenodd" clip-rule="evenodd" d="M77.9817 26.991C77.7878 26.4146 77.7087 25.8057 77.7489 25.1988V19.054C77.7489 16.8505 76.8334 15.7333 75.0412 15.7333C74.5626 15.7233 74.0857 15.7914 73.6291 15.935C73.1312 16.1116 72.657 16.3487 72.217 16.641C71.7515 16.9669 71.1619 17.4169 70.4869 17.9678V10.116C69.5403 10.4109 68.6093 10.7057 67.6317 10.9695C66.6541 11.2333 65.661 11.4971 64.5748 11.7454V12.0092C65.1035 11.9892 65.6006 12.2601 65.8705 12.7152C66.2351 13.4618 66.3957 14.2916 66.336 15.1204V24.741C66.3989 25.4828 66.279 26.2287 65.9869 26.9135C65.7531 27.2867 65.341 27.5105 64.9007 27.5031V27.7669H71.6041V27.5031C71.2509 27.4961 70.9272 27.3048 70.7507 26.9988C70.5269 26.4294 70.4367 25.8163 70.4869 25.2066V18.379C70.7767 18.124 71.1038 17.9147 71.4567 17.7583C71.7283 17.6174 72.0276 17.5379 72.3334 17.5255C72.7275 17.5166 73.0966 17.7175 73.3032 18.0531C73.5875 18.6054 73.7111 19.2263 73.6601 19.8454V25.1988C73.6697 25.671 73.6412 26.1432 73.5748 26.6109C73.5479 26.858 73.4321 27.0868 73.2489 27.2548C73.052 27.3988 72.8175 27.4824 72.5739 27.4954V27.7592H78.8351V27.4954C78.4797 27.4963 78.1523 27.3028 77.9817 26.991Z" fill="#808791"/>
<path fill-rule="evenodd" clip-rule="evenodd" d="M83.304 27.9376C82.7453 27.8135 82.2177 27.7281 81.7522 27.6428C81.3462 27.5574 80.9333 27.5081 80.5186 27.4954C80.3314 27.5008 80.1447 27.5189 79.96 27.5497C79.8084 27.5982 79.6606 27.6579 79.5177 27.7281V22.2971L79.7583 22.235C80.45 23.352 81.2283 24.413 82.0858 25.4083C82.6338 26.0718 83.2895 26.6384 84.0255 27.0842C84.5601 27.3994 85.1663 27.573 85.7867 27.5885C86.2343 27.6294 86.6801 27.4928 87.0281 27.2083C87.289 26.9424 87.4268 26.5795 87.4083 26.2074C87.4285 25.7375 87.2344 25.2838 86.8807 24.9738C86.3019 24.5432 85.6609 24.2031 84.9798 23.9652L83.2729 23.2902C82.2165 22.9287 81.2393 22.3677 80.3945 21.6376C79.8455 21.0843 79.5481 20.3296 79.5721 19.5505C79.5509 18.8591 79.7462 18.1782 80.1307 17.6031C80.532 16.9999 81.0899 16.5172 81.7445 16.2066C82.5358 15.8387 83.4013 15.6582 84.2738 15.679C84.7934 15.6728 85.3126 15.7117 85.8255 15.7954C86.3221 15.8885 86.7953 15.9428 87.1755 16.0359C87.5557 16.129 87.8815 16.1523 88.091 16.1523C88.2276 16.1688 88.3657 16.1688 88.5022 16.1523L88.766 16.0669L89.0919 20.4738L88.8824 20.5359C88.1589 19.3092 87.2685 18.1891 86.2367 17.2074C85.6065 16.6013 84.7818 16.2384 83.9091 16.1833C83.4825 16.1593 83.0621 16.2948 82.7298 16.5635C82.4188 16.8141 82.2436 17.1962 82.2565 17.5954C82.2355 18.0272 82.4091 18.4458 82.7298 18.7359C83.1867 19.1131 83.7142 19.3953 84.2815 19.5661L86.3065 20.2411C87.3189 20.5157 88.2555 21.0172 89.0453 21.7074C89.6007 22.2693 89.8984 23.0361 89.8677 23.8255C89.9185 25.021 89.4318 26.1766 88.541 26.9755C87.5347 27.7753 86.2713 28.1808 84.9876 28.1161C84.4148 28.1069 83.8439 28.0498 83.2807 27.9454L83.304 27.9376Z" fill="#808791"/>
<path fill-rule="evenodd" clip-rule="evenodd" d="M93.2429 14.9652C93.9133 14.9844 94.5623 14.7282 95.0387 14.2561C95.5152 13.7841 95.7774 13.1375 95.7644 12.4669C95.748 11.8364 95.4993 11.2341 95.0662 10.7755C94.6043 10.2582 93.9359 9.97377 93.2429 9.99967C92.8139 9.99488 92.393 10.1163 92.0325 10.3488C91.6565 10.5764 91.34 10.8902 91.1093 11.2643C90.8825 11.625 90.759 12.0409 90.7524 12.4669C90.758 13.1379 91.0384 13.7772 91.5282 14.2359C91.9733 14.7071 92.5947 14.9714 93.2429 14.9652Z" fill="#808791"/>
<path fill-rule="evenodd" clip-rule="evenodd" d="M117.318 27.0221C117.098 26.5224 117.007 25.9755 117.054 25.4316V19.054C117.054 16.8506 116.146 15.7333 114.354 15.7333C113.854 15.7362 113.356 15.8147 112.88 15.9661C112.358 16.1561 111.864 16.4171 111.413 16.7419C110.874 17.0944 110.356 17.4778 109.862 17.8902C109.792 17.3378 109.531 16.8272 109.124 16.4471C108.578 15.9778 107.873 15.7362 107.154 15.7721C106.346 15.7794 105.55 15.9705 104.826 16.3307C104.06 16.69 103.357 17.1722 102.747 17.7583V15.7333C102.188 15.935 101.568 16.1756 100.893 16.3773C100.218 16.579 99.5426 16.8195 98.8676 17.029C98.1926 17.2385 97.634 17.3781 97.1607 17.4945V17.7583C97.619 17.7668 98.0408 18.01 98.2779 18.4023C98.5419 19.1161 98.6529 19.8773 98.6038 20.6368V25.4316C98.6563 25.986 98.4985 26.5399 98.1615 26.9833C97.8834 27.271 97.4988 27.431 97.0986 27.4256C96.6779 27.4587 96.2654 27.2955 95.9814 26.9833C95.6821 26.5243 95.548 25.977 95.6012 25.4316V15.648C94.6934 15.9971 93.7469 16.323 92.7538 16.6178C91.7607 16.9126 90.721 17.1997 89.6891 17.4402V17.673C90.2551 17.6742 90.7802 17.9676 91.0779 18.4488C91.3946 19.182 91.5354 19.9791 91.4891 20.7764V24.6557C91.5322 25.387 91.4212 26.1192 91.1633 26.8049C90.943 27.2139 90.5104 27.4632 90.046 27.4488V27.7126H103.864V27.4488C103.514 27.412 103.2 27.2178 103.011 26.9212C102.795 26.434 102.704 25.9007 102.747 25.3695V18.2626C102.972 18.0417 103.235 17.863 103.523 17.735C103.807 17.5927 104.121 17.5209 104.438 17.5256C104.846 17.4968 105.237 17.6895 105.462 18.0299C105.724 18.5891 105.836 19.2066 105.788 19.8221V25.4083C105.833 25.9395 105.742 26.4735 105.524 26.96C105.342 27.24 105.036 27.4159 104.702 27.4333V27.6971H111.049V27.4333C110.701 27.4128 110.38 27.2396 110.172 26.96C109.973 26.4466 109.891 25.8954 109.931 25.3462V18.2316C110.188 18.0027 110.463 17.7951 110.754 17.6109C111.031 17.4454 111.346 17.3545 111.669 17.3471C112.065 17.3382 112.436 17.5426 112.639 17.8825C112.92 18.4663 113.04 19.1143 112.988 19.76V25.3462C113.037 25.895 112.968 26.4477 112.787 26.9678C112.591 27.2602 112.253 27.4259 111.902 27.4023V27.6661H118.264V27.4023C117.899 27.5043 117.511 27.3484 117.318 27.0221Z" fill="#808791"/>
<path d="M131.167 19.1161C131.032 18.4335 130.728 17.7958 130.282 17.2617C129.535 16.265 128.355 15.6877 127.109 15.71C126.453 15.6973 125.802 15.827 125.201 16.0902C124.614 16.3682 124.068 16.7259 123.579 17.1531V15.7023C123.02 15.9117 122.376 16.1135 121.701 16.354C121.026 16.5945 120.32 16.7885 119.614 16.998C118.908 17.2074 118.288 17.3781 117.706 17.5255V17.7583C118.074 17.7965 118.432 17.9045 118.761 18.0764C119.047 18.2893 119.237 18.6076 119.288 18.9609C119.422 19.5091 119.482 20.0727 119.467 20.6367V28.7833C119.493 29.4546 119.423 30.1261 119.257 30.7773C119.173 31.1703 118.943 31.5168 118.613 31.7471C118.28 31.9395 117.91 32.061 117.527 32.104V32.3678H125.402V32.104C124.874 32.1045 124.368 31.8919 123.998 31.5143C123.663 30.9373 123.516 30.27 123.579 29.6057V27.379C123.848 27.5833 124.15 27.7406 124.471 27.8445C124.929 27.9843 125.405 28.0549 125.883 28.054C126.617 28.0533 127.343 27.9137 128.025 27.6428C128.692 27.356 129.294 26.9363 129.794 26.4092C130.33 25.8094 130.739 25.1074 130.996 24.3454C131.309 23.4772 131.464 22.5602 131.454 21.6376C131.456 20.7781 131.357 19.9213 131.159 19.085L131.167 19.1161ZM126.372 26.0988C126.105 26.8039 125.449 27.2867 124.696 27.3324C124.446 27.3333 124.197 27.2831 123.967 27.185C123.816 27.1084 123.677 27.009 123.556 26.8902V17.5798C123.941 17.2386 124.424 17.0293 124.937 16.9824C125.55 16.9824 126.054 17.3936 126.488 18.185C126.96 19.4022 127.161 20.7074 127.078 22.01C127.078 23.9186 126.869 25.2764 126.395 26.0988H126.372Z" fill="#808791"/>
<path fill-rule="evenodd" clip-rule="evenodd" d="M131.314 27.4954C131.732 27.501 132.122 27.2895 132.346 26.9368C132.61 26.3043 132.719 25.6181 132.664 24.935V15.0893C132.733 14.2576 132.572 13.423 132.199 12.6764C131.929 12.2214 131.432 11.9504 130.903 11.9704V11.7066C131.873 11.4661 132.905 11.2333 133.906 10.9307C134.906 10.6281 135.899 10.3721 136.784 10.054V25.4083C136.739 25.9395 136.83 26.4734 137.048 26.96C137.251 27.2487 137.579 27.4242 137.932 27.4333V27.6971H131.314V27.4954Z" fill="#808791"/>
<path d="M149.811 23.0574C149.252 24.4928 147.987 25.1988 146.071 25.1988C145.015 25.2484 143.989 24.8414 143.255 24.0816C142.503 23.1844 142.133 22.0286 142.223 20.8617H149.981V20.7143C149.99 19.7848 149.719 18.8742 149.206 18.0997C148.675 17.356 147.965 16.7582 147.142 16.3617C145.183 15.4861 142.932 15.5518 141.028 16.5402C140.066 17.0493 139.261 17.8111 138.7 18.7436C138.099 19.7452 137.792 20.8962 137.816 22.0643C137.793 23.1495 138.061 24.2212 138.592 25.1678C139.118 26.0731 139.883 26.8165 140.803 27.3169C141.785 27.8519 142.89 28.1195 144.007 28.0928C145.438 28.1586 146.844 27.71 147.972 26.8281C149.079 25.8673 149.821 24.5551 150.075 23.1117L149.811 23.0574ZM142.696 17.2617C142.896 16.5966 143.499 16.1341 144.194 16.1134C144.407 16.1144 144.616 16.1649 144.806 16.2609C145.006 16.3707 145.17 16.5348 145.28 16.7341C145.401 16.9266 145.5 17.1323 145.575 17.3471C145.674 17.6538 145.734 17.9718 145.753 18.2936C145.753 18.6738 145.807 19.2014 145.807 19.8453V20.435H142.192C142.195 19.8255 142.234 19.2167 142.308 18.6117C142.395 18.1404 142.524 17.6781 142.696 17.2307V17.2617Z" fill="#808791"/>
</g>
</g>
<defs>
<clipPath id="clip0_4734_111449">
<rect width="150" height="40" fill="white" transform="translate(0.333252)"/>
</clipPath>
</defs>
</svg>
