<svg width="124" height="20" viewBox="0 0 124 20" fill="none" xmlns="http://www.w3.org/2000/svg">
<g clip-path="url(#clip0_4959_115860)">
<path d="M10.7359 0.906714L13.3813 6.26677L19.2965 7.1263C19.9696 7.22407 20.2383 8.0513 19.7513 8.5261L15.471 12.6983L16.4814 18.5895C16.5964 19.2599 15.8927 19.7712 15.2907 19.4546L9.99997 16.6732L4.70929 19.4546C4.10726 19.7711 3.40359 19.2599 3.51859 18.5895L4.52901 12.6983L0.248717 8.52606C-0.238351 8.05126 0.0304369 7.22411 0.703559 7.12626L6.61873 6.26673L9.26407 0.906714C9.56513 0.296756 10.4348 0.296756 10.7359 0.906714Z" fill="url(#paint0_linear_4959_115860)"/>
<path d="M10.7359 0.906706L13.3813 6.26676L19.2965 7.12629C19.9696 7.22406 20.2384 8.05129 19.7513 8.52609L15.471 12.6983L16.4814 18.5895C16.5964 19.2599 15.8928 19.7712 15.2907 19.4546L10 16.6732L10 15.625C10 15 10 14.375 10 13.75V12.5L10 8.75C10 8.125 10 7.5 10 7.12629L10 6.25L10 0.449228C10.2927 0.449237 10.5854 0.601736 10.7359 0.906706Z" fill="#E5E5E5"/>
<path d="M9.99994 10.5972L4.52894 12.6983L3.51856 18.5895C3.46125 18.9235 3.60727 19.2179 3.84254 19.3903L9.99994 10.5972Z" fill="url(#paint1_linear_4959_115860)"/>
<path d="M0.0378418 7.6961L9.99999 10.5972L6.61875 6.26673L0.703581 7.12629C0.362528 7.17583 0.125576 7.41274 0.0378418 7.6961Z" fill="url(#paint2_linear_4959_115860)"/>
<path d="M4.52902 12.6983L0.248727 8.52605C0.00845442 8.29183 -0.0476 7.97195 0.0378293 7.69609L9.99998 10.5972L4.52902 12.6983Z" fill="url(#paint3_linear_4959_115860)"/>
</g>
<g clip-path="url(#clip1_4959_115860)">
<path d="M36.7359 0.906714L39.3813 6.26677L45.2965 7.1263C45.9696 7.22407 46.2383 8.0513 45.7513 8.5261L41.471 12.6983L42.4814 18.5895C42.5964 19.2599 41.8927 19.7712 41.2907 19.4546L36 16.6732L30.7093 19.4546C30.1073 19.7711 29.4036 19.2599 29.5186 18.5895L30.529 12.6983L26.2487 8.52606C25.7616 8.05126 26.0304 7.22411 26.7036 7.12626L32.6187 6.26673L35.2641 0.906714C35.5651 0.296756 36.4348 0.296756 36.7359 0.906714Z" fill="#E5E5E5"/>
</g>
<g clip-path="url(#clip2_4959_115860)">
<path d="M62.7359 0.906714L65.3813 6.26677L71.2965 7.1263C71.9696 7.22407 72.2383 8.0513 71.7513 8.5261L67.471 12.6983L68.4814 18.5895C68.5964 19.2599 67.8927 19.7712 67.2907 19.4546L62 16.6732L56.7093 19.4546C56.1073 19.7711 55.4036 19.2599 55.5186 18.5895L56.529 12.6983L52.2487 8.52606C51.7616 8.05126 52.0304 7.22411 52.7036 7.12626L58.6187 6.26673L61.2641 0.906714C61.5651 0.296756 62.4348 0.296756 62.7359 0.906714Z" fill="#E5E5E5"/>
</g>
<g clip-path="url(#clip3_4959_115860)">
<path d="M88.7359 0.906714L91.3813 6.26677L97.2965 7.1263C97.9696 7.22407 98.2383 8.0513 97.7513 8.5261L93.471 12.6983L94.4814 18.5895C94.5964 19.2599 93.8927 19.7712 93.2907 19.4546L88 16.6732L82.7093 19.4546C82.1073 19.7711 81.4036 19.2599 81.5186 18.5895L82.529 12.6983L78.2487 8.52606C77.7616 8.05126 78.0304 7.22411 78.7036 7.12626L84.6187 6.26673L87.2641 0.906714C87.5651 0.296756 88.4348 0.296756 88.7359 0.906714Z" fill="#E5E5E5"/>
</g>
<g clip-path="url(#clip4_4959_115860)">
<path d="M114.736 0.906714L117.381 6.26677L123.296 7.1263C123.97 7.22407 124.238 8.0513 123.751 8.5261L119.471 12.6983L120.481 18.5895C120.596 19.2599 119.893 19.7712 119.291 19.4546L114 16.6732L108.709 19.4546C108.107 19.7711 107.404 19.2599 107.519 18.5895L108.529 12.6983L104.249 8.52606C103.762 8.05126 104.03 7.22411 104.704 7.12626L110.619 6.26673L113.264 0.906714C113.565 0.296756 114.435 0.296756 114.736 0.906714Z" fill="#E5E5E5"/>
</g>
<defs>
<linearGradient id="paint0_linear_4959_115860" x1="10.0003" y1="2.67693" x2="10.0003" y2="24.7446" gradientUnits="userSpaceOnUse">
<stop stop-color="#FFCF95"/>
<stop offset="0.427" stop-color="#FFC954"/>
<stop offset="1" stop-color="#FFC200"/>
</linearGradient>
<linearGradient id="paint1_linear_4959_115860" x1="2.82256" y1="11.5655" x2="7.92269" y2="15.8323" gradientUnits="userSpaceOnUse">
<stop stop-color="#FFC200" stop-opacity="0"/>
<stop offset="0.203" stop-color="#FFBB00" stop-opacity="0.203"/>
<stop offset="0.499" stop-color="#FFA700" stop-opacity="0.499"/>
<stop offset="0.852" stop-color="#FF8800" stop-opacity="0.852"/>
<stop offset="1" stop-color="#FF7800"/>
</linearGradient>
<linearGradient id="paint2_linear_4959_115860" x1="6.64587" y1="4.52732" x2="4.57914" y2="10.3941" gradientUnits="userSpaceOnUse">
<stop stop-color="#FFC200" stop-opacity="0"/>
<stop offset="0.203" stop-color="#FFBB00" stop-opacity="0.203"/>
<stop offset="0.499" stop-color="#FFA700" stop-opacity="0.499"/>
<stop offset="0.852" stop-color="#FF8800" stop-opacity="0.852"/>
<stop offset="1" stop-color="#FF7800"/>
</linearGradient>
<linearGradient id="paint3_linear_4959_115860" x1="14.4255" y1="5.13999" x2="-0.758243" y2="11.6068" gradientUnits="userSpaceOnUse">
<stop stop-color="#FFC200" stop-opacity="0"/>
<stop offset="0.203" stop-color="#FFBB00" stop-opacity="0.203"/>
<stop offset="0.499" stop-color="#FFA700" stop-opacity="0.499"/>
<stop offset="0.852" stop-color="#FF8800" stop-opacity="0.852"/>
<stop offset="1" stop-color="#FF7800"/>
</linearGradient>
<clipPath id="clip0_4959_115860">
<rect width="20" height="20" fill="white"/>
</clipPath>
<clipPath id="clip1_4959_115860">
<rect width="20" height="20" fill="white" transform="translate(26)"/>
</clipPath>
<clipPath id="clip2_4959_115860">
<rect width="20" height="20" fill="white" transform="translate(52)"/>
</clipPath>
<clipPath id="clip3_4959_115860">
<rect width="20" height="20" fill="white" transform="translate(78)"/>
</clipPath>
<clipPath id="clip4_4959_115860">
<rect width="20" height="20" fill="white" transform="translate(104)"/>
</clipPath>
</defs>
</svg>
