<svg width="124" height="20" viewBox="0 0 124 20" fill="none" xmlns="http://www.w3.org/2000/svg">
<g clip-path="url(#clip0_4959_115542)">
<path d="M10.7359 0.906715L13.3813 6.26677L19.2965 7.1263C19.9696 7.22407 20.2383 8.0513 19.7513 8.5261L15.471 12.6983L16.4814 18.5895C16.5964 19.2599 15.8927 19.7712 15.2907 19.4546L9.99997 16.6732L4.70929 19.4546C4.10726 19.7711 3.40359 19.2599 3.51859 18.5895L4.52901 12.6983L0.248717 8.52606C-0.238351 8.05126 0.0304369 7.22411 0.703559 7.12626L6.61873 6.26673L9.26407 0.906715C9.56513 0.296757 10.4348 0.296757 10.7359 0.906715Z" fill="#E5E5E5"/>
</g>
<g clip-path="url(#clip1_4959_115542)">
<path d="M36.7359 0.906715L39.3813 6.26677L45.2965 7.1263C45.9696 7.22407 46.2383 8.0513 45.7513 8.5261L41.471 12.6983L42.4814 18.5895C42.5964 19.2599 41.8927 19.7712 41.2907 19.4546L36 16.6732L30.7093 19.4546C30.1073 19.7711 29.4036 19.2599 29.5186 18.5895L30.529 12.6983L26.2487 8.52606C25.7616 8.05126 26.0304 7.22411 26.7036 7.12626L32.6187 6.26673L35.2641 0.906715C35.5651 0.296757 36.4348 0.296757 36.7359 0.906715Z" fill="#E5E5E5"/>
</g>
<g clip-path="url(#clip2_4959_115542)">
<path d="M62.7359 0.906715L65.3813 6.26677L71.2965 7.1263C71.9696 7.22407 72.2383 8.0513 71.7513 8.5261L67.471 12.6983L68.4814 18.5895C68.5964 19.2599 67.8927 19.7712 67.2907 19.4546L62 16.6732L56.7093 19.4546C56.1073 19.7711 55.4036 19.2599 55.5186 18.5895L56.529 12.6983L52.2487 8.52606C51.7616 8.05126 52.0304 7.22411 52.7036 7.12626L58.6187 6.26673L61.2641 0.906715C61.5651 0.296757 62.4348 0.296757 62.7359 0.906715Z" fill="#E5E5E5"/>
</g>
<g clip-path="url(#clip3_4959_115542)">
<path d="M88.7359 0.906715L91.3813 6.26677L97.2965 7.1263C97.9696 7.22407 98.2383 8.0513 97.7513 8.5261L93.471 12.6983L94.4814 18.5895C94.5964 19.2599 93.8927 19.7712 93.2907 19.4546L88 16.6732L82.7093 19.4546C82.1073 19.7711 81.4036 19.2599 81.5186 18.5895L82.529 12.6983L78.2487 8.52606C77.7616 8.05126 78.0304 7.22411 78.7036 7.12626L84.6187 6.26673L87.2641 0.906715C87.5651 0.296757 88.4348 0.296757 88.7359 0.906715Z" fill="#E5E5E5"/>
</g>
<g clip-path="url(#clip4_4959_115542)">
<path d="M114.736 0.906715L117.381 6.26677L123.296 7.1263C123.97 7.22407 124.238 8.0513 123.751 8.5261L119.471 12.6983L120.481 18.5895C120.596 19.2599 119.893 19.7712 119.291 19.4546L114 16.6732L108.709 19.4546C108.107 19.7711 107.404 19.2599 107.519 18.5895L108.529 12.6983L104.249 8.52606C103.762 8.05126 104.03 7.22411 104.704 7.12626L110.619 6.26673L113.264 0.906715C113.565 0.296757 114.435 0.296757 114.736 0.906715Z" fill="#E5E5E5"/>
</g>
<defs>
<clipPath id="clip0_4959_115542">
<rect width="20" height="20" fill="white"/>
</clipPath>
<clipPath id="clip1_4959_115542">
<rect width="20" height="20" fill="white" transform="translate(26)"/>
</clipPath>
<clipPath id="clip2_4959_115542">
<rect width="20" height="20" fill="white" transform="translate(52)"/>
</clipPath>
<clipPath id="clip3_4959_115542">
<rect width="20" height="20" fill="white" transform="translate(78)"/>
</clipPath>
<clipPath id="clip4_4959_115542">
<rect width="20" height="20" fill="white" transform="translate(104)"/>
</clipPath>
</defs>
</svg>
