<svg width="124" height="20" viewBox="0 0 124 20" fill="none" xmlns="http://www.w3.org/2000/svg">
<g clip-path="url(#clip0_4959_115606)">
<path d="M10.7359 0.906718L13.3813 6.26677L19.2965 7.1263C19.9696 7.22408 20.2383 8.0513 19.7513 8.5261L15.471 12.6983L16.4814 18.5895C16.5964 19.2599 15.8927 19.7712 15.2907 19.4547L9.99997 16.6732L4.70929 19.4547C4.10726 19.7711 3.40359 19.2599 3.51859 18.5895L4.52901 12.6983L0.248717 8.52606C-0.238351 8.05126 0.0304369 7.22411 0.703559 7.12626L6.61873 6.26674L9.26407 0.906718C9.56513 0.29676 10.4348 0.29676 10.7359 0.906718Z" fill="url(#paint0_linear_4959_115606)"/>
<path d="M13.3812 6.26677L10.7359 0.906716C10.5854 0.601756 10.2927 0.449257 10 0.449257V10.5972L13.3812 6.26677Z" fill="url(#paint1_linear_4959_115606)"/>
<path d="M15.471 12.6983L19.7513 8.52603C19.9915 8.29181 20.0476 7.97193 19.9621 7.69607L10 10.5972L15.471 12.6983Z" fill="url(#paint2_linear_4959_115606)"/>
<path d="M16.1574 19.3903L10 10.5972V16.6732L15.2907 19.4546C15.5928 19.6135 15.9204 19.5638 16.1574 19.3903Z" fill="url(#paint3_linear_4959_115606)"/>
<path d="M9.99994 10.5972L4.52894 12.6983L3.51856 18.5895C3.46125 18.9235 3.60727 19.2179 3.84254 19.3903L9.99994 10.5972Z" fill="url(#paint4_linear_4959_115606)"/>
<path d="M0.0378418 7.6961L9.99999 10.5972L6.61875 6.26673L0.703581 7.1263C0.362528 7.17583 0.125576 7.41274 0.0378418 7.6961Z" fill="url(#paint5_linear_4959_115606)"/>
<path d="M4.52902 12.6983L0.248727 8.52606C0.00845442 8.29185 -0.0476 7.97196 0.0378293 7.69611L9.99998 10.5972L4.52902 12.6983Z" fill="url(#paint6_linear_4959_115606)"/>
</g>
<g clip-path="url(#clip1_4959_115606)">
<path d="M36.7359 0.906718L39.3813 6.26678L45.2965 7.1263C45.9696 7.22408 46.2383 8.0513 45.7513 8.5261L41.471 12.6983L42.4814 18.5895C42.5964 19.2599 41.8927 19.7712 41.2907 19.4547L36 16.6732L30.7093 19.4547C30.1073 19.7711 29.4036 19.2599 29.5186 18.5895L30.529 12.6983L26.2487 8.52606C25.7616 8.05126 26.0304 7.22412 26.7036 7.12626L32.6187 6.26674L35.2641 0.906718C35.5651 0.29676 36.4348 0.29676 36.7359 0.906718Z" fill="url(#paint7_linear_4959_115606)"/>
<path d="M36.7359 0.906705L39.3813 6.26676L45.2964 7.12629C45.9695 7.22406 46.2383 8.05129 45.7513 8.52609L41.4709 12.6983L42.4814 18.5895C42.5964 19.2599 41.8927 19.7712 41.2907 19.4546L35.9999 16.6732L36 15.625C36 15 36 14.375 36 13.75V12.5L36 8.75C36 8.125 36 7.5 36 7.12629L36 6.25L36 0.449226C36.2927 0.449235 36.5854 0.601734 36.7359 0.906705Z" fill="#E5E5E5"/>
<path d="M35.9999 10.5972L30.5289 12.6983L29.5186 18.5895C29.4613 18.9235 29.6073 19.2179 29.8425 19.3903L35.9999 10.5972Z" fill="url(#paint8_linear_4959_115606)"/>
<path d="M26.0378 7.69609L36 10.5972L32.6188 6.26672L26.7036 7.12629C26.3625 7.17582 26.1256 7.41273 26.0378 7.69609Z" fill="url(#paint9_linear_4959_115606)"/>
<path d="M30.529 12.6983L26.2487 8.52605C26.0085 8.29183 25.9524 7.97195 26.0378 7.69609L36 10.5972L30.529 12.6983Z" fill="url(#paint10_linear_4959_115606)"/>
</g>
<g clip-path="url(#clip2_4959_115606)">
<path d="M62.7359 0.906718L65.3813 6.26677L71.2965 7.1263C71.9696 7.22408 72.2383 8.0513 71.7513 8.5261L67.471 12.6983L68.4814 18.5895C68.5964 19.2599 67.8927 19.7712 67.2907 19.4547L62 16.6732L56.7093 19.4547C56.1073 19.7711 55.4036 19.2599 55.5186 18.5895L56.529 12.6983L52.2487 8.52606C51.7616 8.05126 52.0304 7.22411 52.7036 7.12626L58.6187 6.26674L61.2641 0.906718C61.5651 0.29676 62.4348 0.29676 62.7359 0.906718Z" fill="#E5E5E5"/>
</g>
<g clip-path="url(#clip3_4959_115606)">
<path d="M88.7359 0.906718L91.3813 6.26677L97.2965 7.1263C97.9696 7.22408 98.2383 8.0513 97.7513 8.5261L93.471 12.6983L94.4814 18.5895C94.5964 19.2599 93.8927 19.7712 93.2907 19.4547L88 16.6732L82.7093 19.4547C82.1073 19.7711 81.4036 19.2599 81.5186 18.5895L82.529 12.6983L78.2487 8.52606C77.7616 8.05126 78.0304 7.22411 78.7036 7.12626L84.6187 6.26674L87.2641 0.906718C87.5651 0.29676 88.4348 0.29676 88.7359 0.906718Z" fill="#E5E5E5"/>
</g>
<g clip-path="url(#clip4_4959_115606)">
<path d="M114.736 0.906718L117.381 6.26677L123.296 7.1263C123.97 7.22408 124.238 8.0513 123.751 8.5261L119.471 12.6983L120.481 18.5895C120.596 19.2599 119.893 19.7712 119.291 19.4547L114 16.6732L108.709 19.4547C108.107 19.7711 107.404 19.2599 107.519 18.5895L108.529 12.6983L104.249 8.52606C103.762 8.05126 104.03 7.22411 104.704 7.12626L110.619 6.26674L113.264 0.906718C113.565 0.29676 114.435 0.29676 114.736 0.906718Z" fill="#E5E5E5"/>
</g>
<defs>
<linearGradient id="paint0_linear_4959_115606" x1="10.0003" y1="2.67693" x2="10.0003" y2="24.7446" gradientUnits="userSpaceOnUse">
<stop stop-color="#FFCF95"/>
<stop offset="0.427" stop-color="#FFC954"/>
<stop offset="1" stop-color="#FFC200"/>
</linearGradient>
<linearGradient id="paint1_linear_4959_115606" x1="15.1838" y1="5.52272" x2="8.51275" y2="5.52272" gradientUnits="userSpaceOnUse">
<stop stop-color="#FFC200" stop-opacity="0"/>
<stop offset="0.203" stop-color="#FFBB00" stop-opacity="0.203"/>
<stop offset="0.499" stop-color="#FFA700" stop-opacity="0.499"/>
<stop offset="0.852" stop-color="#FF8800" stop-opacity="0.852"/>
<stop offset="1" stop-color="#FF7800"/>
</linearGradient>
<linearGradient id="paint2_linear_4959_115606" x1="16.3234" y1="15.7435" x2="14.5567" y2="7.04331" gradientUnits="userSpaceOnUse">
<stop stop-color="#FFC200" stop-opacity="0"/>
<stop offset="0.203" stop-color="#FFBB00" stop-opacity="0.203"/>
<stop offset="0.499" stop-color="#FFA700" stop-opacity="0.499"/>
<stop offset="0.852" stop-color="#FF8800" stop-opacity="0.852"/>
<stop offset="1" stop-color="#FF7800"/>
</linearGradient>
<linearGradient id="paint3_linear_4959_115606" x1="7.75692" y1="20.3157" x2="14.6763" y2="13.3964" gradientUnits="userSpaceOnUse">
<stop stop-color="#FFC200" stop-opacity="0"/>
<stop offset="0.203" stop-color="#FFBB00" stop-opacity="0.203"/>
<stop offset="0.499" stop-color="#FFA700" stop-opacity="0.499"/>
<stop offset="0.852" stop-color="#FF8800" stop-opacity="0.852"/>
<stop offset="1" stop-color="#FF7800"/>
</linearGradient>
<linearGradient id="paint4_linear_4959_115606" x1="2.82256" y1="11.5655" x2="7.92269" y2="15.8323" gradientUnits="userSpaceOnUse">
<stop stop-color="#FFC200" stop-opacity="0"/>
<stop offset="0.203" stop-color="#FFBB00" stop-opacity="0.203"/>
<stop offset="0.499" stop-color="#FFA700" stop-opacity="0.499"/>
<stop offset="0.852" stop-color="#FF8800" stop-opacity="0.852"/>
<stop offset="1" stop-color="#FF7800"/>
</linearGradient>
<linearGradient id="paint5_linear_4959_115606" x1="6.64587" y1="4.52733" x2="4.57914" y2="10.3942" gradientUnits="userSpaceOnUse">
<stop stop-color="#FFC200" stop-opacity="0"/>
<stop offset="0.203" stop-color="#FFBB00" stop-opacity="0.203"/>
<stop offset="0.499" stop-color="#FFA700" stop-opacity="0.499"/>
<stop offset="0.852" stop-color="#FF8800" stop-opacity="0.852"/>
<stop offset="1" stop-color="#FF7800"/>
</linearGradient>
<linearGradient id="paint6_linear_4959_115606" x1="14.4255" y1="5.14" x2="-0.758243" y2="11.6068" gradientUnits="userSpaceOnUse">
<stop stop-color="#FFC200" stop-opacity="0"/>
<stop offset="0.203" stop-color="#FFBB00" stop-opacity="0.203"/>
<stop offset="0.499" stop-color="#FFA700" stop-opacity="0.499"/>
<stop offset="0.852" stop-color="#FF8800" stop-opacity="0.852"/>
<stop offset="1" stop-color="#FF7800"/>
</linearGradient>
<linearGradient id="paint7_linear_4959_115606" x1="36.0003" y1="2.67693" x2="36.0003" y2="24.7446" gradientUnits="userSpaceOnUse">
<stop stop-color="#FFCF95"/>
<stop offset="0.427" stop-color="#FFC954"/>
<stop offset="1" stop-color="#FFC200"/>
</linearGradient>
<linearGradient id="paint8_linear_4959_115606" x1="28.8226" y1="11.5655" x2="33.9227" y2="15.8323" gradientUnits="userSpaceOnUse">
<stop stop-color="#FFC200" stop-opacity="0"/>
<stop offset="0.203" stop-color="#FFBB00" stop-opacity="0.203"/>
<stop offset="0.499" stop-color="#FFA700" stop-opacity="0.499"/>
<stop offset="0.852" stop-color="#FF8800" stop-opacity="0.852"/>
<stop offset="1" stop-color="#FF7800"/>
</linearGradient>
<linearGradient id="paint9_linear_4959_115606" x1="32.6459" y1="4.52732" x2="30.5791" y2="10.3941" gradientUnits="userSpaceOnUse">
<stop stop-color="#FFC200" stop-opacity="0"/>
<stop offset="0.203" stop-color="#FFBB00" stop-opacity="0.203"/>
<stop offset="0.499" stop-color="#FFA700" stop-opacity="0.499"/>
<stop offset="0.852" stop-color="#FF8800" stop-opacity="0.852"/>
<stop offset="1" stop-color="#FF7800"/>
</linearGradient>
<linearGradient id="paint10_linear_4959_115606" x1="40.4255" y1="5.13998" x2="25.2418" y2="11.6068" gradientUnits="userSpaceOnUse">
<stop stop-color="#FFC200" stop-opacity="0"/>
<stop offset="0.203" stop-color="#FFBB00" stop-opacity="0.203"/>
<stop offset="0.499" stop-color="#FFA700" stop-opacity="0.499"/>
<stop offset="0.852" stop-color="#FF8800" stop-opacity="0.852"/>
<stop offset="1" stop-color="#FF7800"/>
</linearGradient>
<clipPath id="clip0_4959_115606">
<rect width="20" height="20" fill="white"/>
</clipPath>
<clipPath id="clip1_4959_115606">
<rect width="20" height="20" fill="white" transform="translate(26)"/>
</clipPath>
<clipPath id="clip2_4959_115606">
<rect width="20" height="20" fill="white" transform="translate(52)"/>
</clipPath>
<clipPath id="clip3_4959_115606">
<rect width="20" height="20" fill="white" transform="translate(78)"/>
</clipPath>
<clipPath id="clip4_4959_115606">
<rect width="20" height="20" fill="white" transform="translate(104)"/>
</clipPath>
</defs>
</svg>
