<svg width="124" height="20" viewBox="0 0 124 20" fill="none" xmlns="http://www.w3.org/2000/svg">
<g clip-path="url(#clip0_4959_115507)">
<path d="M10.7359 0.906718L13.3813 6.26677L19.2965 7.1263C19.9696 7.22408 20.2383 8.0513 19.7513 8.5261L15.471 12.6983L16.4814 18.5895C16.5964 19.2599 15.8927 19.7712 15.2907 19.4547L9.99997 16.6732L4.70929 19.4547C4.10726 19.7711 3.40359 19.2599 3.51859 18.5895L4.52901 12.6983L0.248717 8.52606C-0.238351 8.05126 0.0304369 7.22411 0.703559 7.12626L6.61873 6.26674L9.26407 0.906718C9.56513 0.29676 10.4348 0.29676 10.7359 0.906718Z" fill="url(#paint0_linear_4959_115507)"/>
<path d="M13.3812 6.26677L10.7359 0.906708C10.5854 0.601749 10.2927 0.449249 10 0.449249V10.5972L13.3812 6.26677Z" fill="url(#paint1_linear_4959_115507)"/>
<path d="M15.471 12.6983L19.7513 8.52603C19.9915 8.29181 20.0476 7.97193 19.9621 7.69608L10 10.5972L15.471 12.6983Z" fill="url(#paint2_linear_4959_115507)"/>
<path d="M16.1574 19.3903L10 10.5972V16.6732L15.2907 19.4547C15.5928 19.6135 15.9204 19.5638 16.1574 19.3903Z" fill="url(#paint3_linear_4959_115507)"/>
<path d="M9.99994 10.5972L4.52894 12.6983L3.51856 18.5895C3.46125 18.9235 3.60727 19.2179 3.84254 19.3903L9.99994 10.5972Z" fill="url(#paint4_linear_4959_115507)"/>
<path d="M0.0378418 7.69609L9.99999 10.5972L6.61875 6.26672L0.703581 7.12629C0.362528 7.17582 0.125576 7.41273 0.0378418 7.69609Z" fill="url(#paint5_linear_4959_115507)"/>
<path d="M4.52902 12.6983L0.248727 8.52606C0.00845442 8.29185 -0.0476 7.97196 0.0378293 7.69611L9.99998 10.5972L4.52902 12.6983Z" fill="url(#paint6_linear_4959_115507)"/>
</g>
<g clip-path="url(#clip1_4959_115507)">
<path d="M36.7359 0.906718L39.3813 6.26677L45.2965 7.1263C45.9696 7.22408 46.2383 8.0513 45.7513 8.5261L41.471 12.6983L42.4814 18.5895C42.5964 19.2599 41.8927 19.7712 41.2907 19.4547L36 16.6732L30.7093 19.4547C30.1073 19.7711 29.4036 19.2599 29.5186 18.5895L30.529 12.6983L26.2487 8.52606C25.7616 8.05126 26.0304 7.22411 26.7036 7.12626L32.6187 6.26674L35.2641 0.906718C35.5651 0.29676 36.4348 0.29676 36.7359 0.906718Z" fill="url(#paint7_linear_4959_115507)"/>
<path d="M39.3812 6.26677L36.7359 0.906708C36.5854 0.601749 36.2927 0.449249 36 0.449249V10.5972L39.3812 6.26677Z" fill="url(#paint8_linear_4959_115507)"/>
<path d="M41.4709 12.6983L45.7512 8.52603C45.9915 8.29181 46.0475 7.97193 45.9621 7.69608L35.9999 10.5972L41.4709 12.6983Z" fill="url(#paint9_linear_4959_115507)"/>
<path d="M42.1573 19.3903L35.9999 10.5972V16.6732L41.2906 19.4547C41.5927 19.6135 41.9203 19.5638 42.1573 19.3903Z" fill="url(#paint10_linear_4959_115507)"/>
<path d="M35.9999 10.5972L30.5289 12.6983L29.5186 18.5895C29.4613 18.9235 29.6073 19.2179 29.8425 19.3903L35.9999 10.5972Z" fill="url(#paint11_linear_4959_115507)"/>
<path d="M26.0378 7.69609L36 10.5972L32.6188 6.26672L26.7036 7.12629C26.3625 7.17582 26.1256 7.41273 26.0378 7.69609Z" fill="url(#paint12_linear_4959_115507)"/>
<path d="M30.529 12.6983L26.2487 8.52606C26.0085 8.29185 25.9524 7.97196 26.0378 7.69611L36 10.5972L30.529 12.6983Z" fill="url(#paint13_linear_4959_115507)"/>
</g>
<g clip-path="url(#clip2_4959_115507)">
<path d="M62.7359 0.906718L65.3813 6.26677L71.2965 7.1263C71.9696 7.22408 72.2383 8.0513 71.7513 8.5261L67.471 12.6983L68.4814 18.5895C68.5964 19.2599 67.8927 19.7712 67.2907 19.4547L62 16.6732L56.7093 19.4547C56.1073 19.7711 55.4036 19.2599 55.5186 18.5895L56.529 12.6983L52.2487 8.52606C51.7616 8.05126 52.0304 7.22411 52.7036 7.12626L58.6187 6.26674L61.2641 0.906718C61.5651 0.29676 62.4348 0.29676 62.7359 0.906718Z" fill="url(#paint14_linear_4959_115507)"/>
<path d="M65.3812 6.26677L62.7359 0.906708C62.5854 0.601749 62.2927 0.449249 62 0.449249V10.5972L65.3812 6.26677Z" fill="url(#paint15_linear_4959_115507)"/>
<path d="M67.4709 12.6983L71.7512 8.52603C71.9915 8.29181 72.0475 7.97193 71.9621 7.69608L61.9999 10.5972L67.4709 12.6983Z" fill="url(#paint16_linear_4959_115507)"/>
<path d="M68.1573 19.3903L61.9999 10.5972V16.6732L67.2906 19.4547C67.5927 19.6135 67.9203 19.5638 68.1573 19.3903Z" fill="url(#paint17_linear_4959_115507)"/>
<path d="M61.9999 10.5972L56.5289 12.6983L55.5186 18.5895C55.4613 18.9235 55.6073 19.2179 55.8425 19.3903L61.9999 10.5972Z" fill="url(#paint18_linear_4959_115507)"/>
<path d="M52.0378 7.69609L62 10.5972L58.6188 6.26672L52.7036 7.12629C52.3625 7.17582 52.1256 7.41273 52.0378 7.69609Z" fill="url(#paint19_linear_4959_115507)"/>
<path d="M56.529 12.6983L52.2487 8.52606C52.0085 8.29185 51.9524 7.97196 52.0378 7.69611L62 10.5972L56.529 12.6983Z" fill="url(#paint20_linear_4959_115507)"/>
</g>
<g clip-path="url(#clip3_4959_115507)">
<path d="M88.7359 0.906718L91.3813 6.26677L97.2965 7.1263C97.9696 7.22408 98.2383 8.0513 97.7513 8.5261L93.471 12.6983L94.4814 18.5895C94.5964 19.2599 93.8927 19.7712 93.2907 19.4547L88 16.6732L82.7093 19.4547C82.1073 19.7711 81.4036 19.2599 81.5186 18.5895L82.529 12.6983L78.2487 8.52606C77.7616 8.05126 78.0304 7.22411 78.7036 7.12626L84.6187 6.26674L87.2641 0.906718C87.5651 0.29676 88.4348 0.29676 88.7359 0.906718Z" fill="url(#paint21_linear_4959_115507)"/>
<path d="M91.3812 6.26677L88.7359 0.906708C88.5854 0.601749 88.2927 0.449249 88 0.449249V10.5972L91.3812 6.26677Z" fill="url(#paint22_linear_4959_115507)"/>
<path d="M93.4709 12.6983L97.7512 8.52603C97.9915 8.29181 98.0475 7.97193 97.9621 7.69608L87.9999 10.5972L93.4709 12.6983Z" fill="url(#paint23_linear_4959_115507)"/>
<path d="M94.1573 19.3903L87.9999 10.5972V16.6732L93.2906 19.4547C93.5927 19.6135 93.9203 19.5638 94.1573 19.3903Z" fill="url(#paint24_linear_4959_115507)"/>
<path d="M87.9999 10.5972L82.5289 12.6983L81.5186 18.5895C81.4613 18.9235 81.6073 19.2179 81.8425 19.3903L87.9999 10.5972Z" fill="url(#paint25_linear_4959_115507)"/>
<path d="M78.0378 7.69609L88 10.5972L84.6188 6.26672L78.7036 7.12629C78.3625 7.17582 78.1256 7.41273 78.0378 7.69609Z" fill="url(#paint26_linear_4959_115507)"/>
<path d="M82.529 12.6983L78.2487 8.52606C78.0085 8.29185 77.9524 7.97196 78.0378 7.69611L88 10.5972L82.529 12.6983Z" fill="url(#paint27_linear_4959_115507)"/>
</g>
<g clip-path="url(#clip4_4959_115507)">
<path d="M114.736 0.906718L117.381 6.26677L123.296 7.1263C123.97 7.22408 124.238 8.0513 123.751 8.5261L119.471 12.6983L120.481 18.5895C120.596 19.2599 119.893 19.7712 119.291 19.4547L114 16.6732L108.709 19.4547C108.107 19.7711 107.404 19.2599 107.519 18.5895L108.529 12.6983L104.249 8.52606C103.762 8.05126 104.03 7.22411 104.704 7.12626L110.619 6.26674L113.264 0.906718C113.565 0.29676 114.435 0.29676 114.736 0.906718Z" fill="url(#paint28_linear_4959_115507)"/>
<path d="M117.381 6.26677L114.736 0.906708C114.585 0.601749 114.293 0.449249 114 0.449249V10.5972L117.381 6.26677Z" fill="url(#paint29_linear_4959_115507)"/>
<path d="M119.471 12.6983L123.751 8.52603C123.991 8.29181 124.048 7.97193 123.962 7.69608L114 10.5972L119.471 12.6983Z" fill="url(#paint30_linear_4959_115507)"/>
<path d="M120.157 19.3903L114 10.5972V16.6732L119.291 19.4547C119.593 19.6135 119.92 19.5638 120.157 19.3903Z" fill="url(#paint31_linear_4959_115507)"/>
<path d="M114 10.5972L108.529 12.6983L107.519 18.5895C107.461 18.9235 107.607 19.2179 107.843 19.3903L114 10.5972Z" fill="url(#paint32_linear_4959_115507)"/>
<path d="M104.038 7.69609L114 10.5972L110.619 6.26672L104.704 7.12629C104.363 7.17582 104.126 7.41273 104.038 7.69609Z" fill="url(#paint33_linear_4959_115507)"/>
<path d="M108.529 12.6983L104.249 8.52606C104.008 8.29185 103.952 7.97196 104.038 7.69611L114 10.5972L108.529 12.6983Z" fill="url(#paint34_linear_4959_115507)"/>
</g>
<defs>
<linearGradient id="paint0_linear_4959_115507" x1="10.0003" y1="2.67693" x2="10.0003" y2="24.7446" gradientUnits="userSpaceOnUse">
<stop stop-color="#FFCF95"/>
<stop offset="0.427" stop-color="#FFC954"/>
<stop offset="1" stop-color="#FFC200"/>
</linearGradient>
<linearGradient id="paint1_linear_4959_115507" x1="15.1838" y1="5.52271" x2="8.51275" y2="5.52271" gradientUnits="userSpaceOnUse">
<stop stop-color="#FFC200" stop-opacity="0"/>
<stop offset="0.203" stop-color="#FFBB00" stop-opacity="0.203"/>
<stop offset="0.499" stop-color="#FFA700" stop-opacity="0.499"/>
<stop offset="0.852" stop-color="#FF8800" stop-opacity="0.852"/>
<stop offset="1" stop-color="#FF7800"/>
</linearGradient>
<linearGradient id="paint2_linear_4959_115507" x1="16.3234" y1="15.7435" x2="14.5567" y2="7.04331" gradientUnits="userSpaceOnUse">
<stop stop-color="#FFC200" stop-opacity="0"/>
<stop offset="0.203" stop-color="#FFBB00" stop-opacity="0.203"/>
<stop offset="0.499" stop-color="#FFA700" stop-opacity="0.499"/>
<stop offset="0.852" stop-color="#FF8800" stop-opacity="0.852"/>
<stop offset="1" stop-color="#FF7800"/>
</linearGradient>
<linearGradient id="paint3_linear_4959_115507" x1="7.75692" y1="20.3157" x2="14.6763" y2="13.3964" gradientUnits="userSpaceOnUse">
<stop stop-color="#FFC200" stop-opacity="0"/>
<stop offset="0.203" stop-color="#FFBB00" stop-opacity="0.203"/>
<stop offset="0.499" stop-color="#FFA700" stop-opacity="0.499"/>
<stop offset="0.852" stop-color="#FF8800" stop-opacity="0.852"/>
<stop offset="1" stop-color="#FF7800"/>
</linearGradient>
<linearGradient id="paint4_linear_4959_115507" x1="2.82256" y1="11.5655" x2="7.92269" y2="15.8323" gradientUnits="userSpaceOnUse">
<stop stop-color="#FFC200" stop-opacity="0"/>
<stop offset="0.203" stop-color="#FFBB00" stop-opacity="0.203"/>
<stop offset="0.499" stop-color="#FFA700" stop-opacity="0.499"/>
<stop offset="0.852" stop-color="#FF8800" stop-opacity="0.852"/>
<stop offset="1" stop-color="#FF7800"/>
</linearGradient>
<linearGradient id="paint5_linear_4959_115507" x1="6.64587" y1="4.52732" x2="4.57914" y2="10.3941" gradientUnits="userSpaceOnUse">
<stop stop-color="#FFC200" stop-opacity="0"/>
<stop offset="0.203" stop-color="#FFBB00" stop-opacity="0.203"/>
<stop offset="0.499" stop-color="#FFA700" stop-opacity="0.499"/>
<stop offset="0.852" stop-color="#FF8800" stop-opacity="0.852"/>
<stop offset="1" stop-color="#FF7800"/>
</linearGradient>
<linearGradient id="paint6_linear_4959_115507" x1="14.4255" y1="5.14" x2="-0.758243" y2="11.6068" gradientUnits="userSpaceOnUse">
<stop stop-color="#FFC200" stop-opacity="0"/>
<stop offset="0.203" stop-color="#FFBB00" stop-opacity="0.203"/>
<stop offset="0.499" stop-color="#FFA700" stop-opacity="0.499"/>
<stop offset="0.852" stop-color="#FF8800" stop-opacity="0.852"/>
<stop offset="1" stop-color="#FF7800"/>
</linearGradient>
<linearGradient id="paint7_linear_4959_115507" x1="36.0003" y1="2.67693" x2="36.0003" y2="24.7446" gradientUnits="userSpaceOnUse">
<stop stop-color="#FFCF95"/>
<stop offset="0.427" stop-color="#FFC954"/>
<stop offset="1" stop-color="#FFC200"/>
</linearGradient>
<linearGradient id="paint8_linear_4959_115507" x1="41.1838" y1="5.52271" x2="34.5127" y2="5.52271" gradientUnits="userSpaceOnUse">
<stop stop-color="#FFC200" stop-opacity="0"/>
<stop offset="0.203" stop-color="#FFBB00" stop-opacity="0.203"/>
<stop offset="0.499" stop-color="#FFA700" stop-opacity="0.499"/>
<stop offset="0.852" stop-color="#FF8800" stop-opacity="0.852"/>
<stop offset="1" stop-color="#FF7800"/>
</linearGradient>
<linearGradient id="paint9_linear_4959_115507" x1="42.3233" y1="15.7435" x2="40.5566" y2="7.04331" gradientUnits="userSpaceOnUse">
<stop stop-color="#FFC200" stop-opacity="0"/>
<stop offset="0.203" stop-color="#FFBB00" stop-opacity="0.203"/>
<stop offset="0.499" stop-color="#FFA700" stop-opacity="0.499"/>
<stop offset="0.852" stop-color="#FF8800" stop-opacity="0.852"/>
<stop offset="1" stop-color="#FF7800"/>
</linearGradient>
<linearGradient id="paint10_linear_4959_115507" x1="33.7569" y1="20.3157" x2="40.6762" y2="13.3964" gradientUnits="userSpaceOnUse">
<stop stop-color="#FFC200" stop-opacity="0"/>
<stop offset="0.203" stop-color="#FFBB00" stop-opacity="0.203"/>
<stop offset="0.499" stop-color="#FFA700" stop-opacity="0.499"/>
<stop offset="0.852" stop-color="#FF8800" stop-opacity="0.852"/>
<stop offset="1" stop-color="#FF7800"/>
</linearGradient>
<linearGradient id="paint11_linear_4959_115507" x1="28.8226" y1="11.5655" x2="33.9227" y2="15.8323" gradientUnits="userSpaceOnUse">
<stop stop-color="#FFC200" stop-opacity="0"/>
<stop offset="0.203" stop-color="#FFBB00" stop-opacity="0.203"/>
<stop offset="0.499" stop-color="#FFA700" stop-opacity="0.499"/>
<stop offset="0.852" stop-color="#FF8800" stop-opacity="0.852"/>
<stop offset="1" stop-color="#FF7800"/>
</linearGradient>
<linearGradient id="paint12_linear_4959_115507" x1="32.6459" y1="4.52732" x2="30.5791" y2="10.3941" gradientUnits="userSpaceOnUse">
<stop stop-color="#FFC200" stop-opacity="0"/>
<stop offset="0.203" stop-color="#FFBB00" stop-opacity="0.203"/>
<stop offset="0.499" stop-color="#FFA700" stop-opacity="0.499"/>
<stop offset="0.852" stop-color="#FF8800" stop-opacity="0.852"/>
<stop offset="1" stop-color="#FF7800"/>
</linearGradient>
<linearGradient id="paint13_linear_4959_115507" x1="40.4255" y1="5.14" x2="25.2418" y2="11.6068" gradientUnits="userSpaceOnUse">
<stop stop-color="#FFC200" stop-opacity="0"/>
<stop offset="0.203" stop-color="#FFBB00" stop-opacity="0.203"/>
<stop offset="0.499" stop-color="#FFA700" stop-opacity="0.499"/>
<stop offset="0.852" stop-color="#FF8800" stop-opacity="0.852"/>
<stop offset="1" stop-color="#FF7800"/>
</linearGradient>
<linearGradient id="paint14_linear_4959_115507" x1="62.0003" y1="2.67693" x2="62.0003" y2="24.7446" gradientUnits="userSpaceOnUse">
<stop stop-color="#FFCF95"/>
<stop offset="0.427" stop-color="#FFC954"/>
<stop offset="1" stop-color="#FFC200"/>
</linearGradient>
<linearGradient id="paint15_linear_4959_115507" x1="67.1838" y1="5.52271" x2="60.5127" y2="5.52271" gradientUnits="userSpaceOnUse">
<stop stop-color="#FFC200" stop-opacity="0"/>
<stop offset="0.203" stop-color="#FFBB00" stop-opacity="0.203"/>
<stop offset="0.499" stop-color="#FFA700" stop-opacity="0.499"/>
<stop offset="0.852" stop-color="#FF8800" stop-opacity="0.852"/>
<stop offset="1" stop-color="#FF7800"/>
</linearGradient>
<linearGradient id="paint16_linear_4959_115507" x1="68.3233" y1="15.7435" x2="66.5566" y2="7.04331" gradientUnits="userSpaceOnUse">
<stop stop-color="#FFC200" stop-opacity="0"/>
<stop offset="0.203" stop-color="#FFBB00" stop-opacity="0.203"/>
<stop offset="0.499" stop-color="#FFA700" stop-opacity="0.499"/>
<stop offset="0.852" stop-color="#FF8800" stop-opacity="0.852"/>
<stop offset="1" stop-color="#FF7800"/>
</linearGradient>
<linearGradient id="paint17_linear_4959_115507" x1="59.7569" y1="20.3157" x2="66.6762" y2="13.3964" gradientUnits="userSpaceOnUse">
<stop stop-color="#FFC200" stop-opacity="0"/>
<stop offset="0.203" stop-color="#FFBB00" stop-opacity="0.203"/>
<stop offset="0.499" stop-color="#FFA700" stop-opacity="0.499"/>
<stop offset="0.852" stop-color="#FF8800" stop-opacity="0.852"/>
<stop offset="1" stop-color="#FF7800"/>
</linearGradient>
<linearGradient id="paint18_linear_4959_115507" x1="54.8226" y1="11.5655" x2="59.9227" y2="15.8323" gradientUnits="userSpaceOnUse">
<stop stop-color="#FFC200" stop-opacity="0"/>
<stop offset="0.203" stop-color="#FFBB00" stop-opacity="0.203"/>
<stop offset="0.499" stop-color="#FFA700" stop-opacity="0.499"/>
<stop offset="0.852" stop-color="#FF8800" stop-opacity="0.852"/>
<stop offset="1" stop-color="#FF7800"/>
</linearGradient>
<linearGradient id="paint19_linear_4959_115507" x1="58.6459" y1="4.52732" x2="56.5791" y2="10.3941" gradientUnits="userSpaceOnUse">
<stop stop-color="#FFC200" stop-opacity="0"/>
<stop offset="0.203" stop-color="#FFBB00" stop-opacity="0.203"/>
<stop offset="0.499" stop-color="#FFA700" stop-opacity="0.499"/>
<stop offset="0.852" stop-color="#FF8800" stop-opacity="0.852"/>
<stop offset="1" stop-color="#FF7800"/>
</linearGradient>
<linearGradient id="paint20_linear_4959_115507" x1="66.4255" y1="5.14" x2="51.2418" y2="11.6068" gradientUnits="userSpaceOnUse">
<stop stop-color="#FFC200" stop-opacity="0"/>
<stop offset="0.203" stop-color="#FFBB00" stop-opacity="0.203"/>
<stop offset="0.499" stop-color="#FFA700" stop-opacity="0.499"/>
<stop offset="0.852" stop-color="#FF8800" stop-opacity="0.852"/>
<stop offset="1" stop-color="#FF7800"/>
</linearGradient>
<linearGradient id="paint21_linear_4959_115507" x1="88.0003" y1="2.67693" x2="88.0003" y2="24.7446" gradientUnits="userSpaceOnUse">
<stop stop-color="#FFCF95"/>
<stop offset="0.427" stop-color="#FFC954"/>
<stop offset="1" stop-color="#FFC200"/>
</linearGradient>
<linearGradient id="paint22_linear_4959_115507" x1="93.1838" y1="5.52271" x2="86.5127" y2="5.52271" gradientUnits="userSpaceOnUse">
<stop stop-color="#FFC200" stop-opacity="0"/>
<stop offset="0.203" stop-color="#FFBB00" stop-opacity="0.203"/>
<stop offset="0.499" stop-color="#FFA700" stop-opacity="0.499"/>
<stop offset="0.852" stop-color="#FF8800" stop-opacity="0.852"/>
<stop offset="1" stop-color="#FF7800"/>
</linearGradient>
<linearGradient id="paint23_linear_4959_115507" x1="94.3233" y1="15.7435" x2="92.5566" y2="7.04331" gradientUnits="userSpaceOnUse">
<stop stop-color="#FFC200" stop-opacity="0"/>
<stop offset="0.203" stop-color="#FFBB00" stop-opacity="0.203"/>
<stop offset="0.499" stop-color="#FFA700" stop-opacity="0.499"/>
<stop offset="0.852" stop-color="#FF8800" stop-opacity="0.852"/>
<stop offset="1" stop-color="#FF7800"/>
</linearGradient>
<linearGradient id="paint24_linear_4959_115507" x1="85.7569" y1="20.3157" x2="92.6762" y2="13.3964" gradientUnits="userSpaceOnUse">
<stop stop-color="#FFC200" stop-opacity="0"/>
<stop offset="0.203" stop-color="#FFBB00" stop-opacity="0.203"/>
<stop offset="0.499" stop-color="#FFA700" stop-opacity="0.499"/>
<stop offset="0.852" stop-color="#FF8800" stop-opacity="0.852"/>
<stop offset="1" stop-color="#FF7800"/>
</linearGradient>
<linearGradient id="paint25_linear_4959_115507" x1="80.8226" y1="11.5655" x2="85.9227" y2="15.8323" gradientUnits="userSpaceOnUse">
<stop stop-color="#FFC200" stop-opacity="0"/>
<stop offset="0.203" stop-color="#FFBB00" stop-opacity="0.203"/>
<stop offset="0.499" stop-color="#FFA700" stop-opacity="0.499"/>
<stop offset="0.852" stop-color="#FF8800" stop-opacity="0.852"/>
<stop offset="1" stop-color="#FF7800"/>
</linearGradient>
<linearGradient id="paint26_linear_4959_115507" x1="84.6459" y1="4.52732" x2="82.5791" y2="10.3941" gradientUnits="userSpaceOnUse">
<stop stop-color="#FFC200" stop-opacity="0"/>
<stop offset="0.203" stop-color="#FFBB00" stop-opacity="0.203"/>
<stop offset="0.499" stop-color="#FFA700" stop-opacity="0.499"/>
<stop offset="0.852" stop-color="#FF8800" stop-opacity="0.852"/>
<stop offset="1" stop-color="#FF7800"/>
</linearGradient>
<linearGradient id="paint27_linear_4959_115507" x1="92.4255" y1="5.14" x2="77.2418" y2="11.6068" gradientUnits="userSpaceOnUse">
<stop stop-color="#FFC200" stop-opacity="0"/>
<stop offset="0.203" stop-color="#FFBB00" stop-opacity="0.203"/>
<stop offset="0.499" stop-color="#FFA700" stop-opacity="0.499"/>
<stop offset="0.852" stop-color="#FF8800" stop-opacity="0.852"/>
<stop offset="1" stop-color="#FF7800"/>
</linearGradient>
<linearGradient id="paint28_linear_4959_115507" x1="114" y1="2.67693" x2="114" y2="24.7446" gradientUnits="userSpaceOnUse">
<stop stop-color="#FFCF95"/>
<stop offset="0.427" stop-color="#FFC954"/>
<stop offset="1" stop-color="#FFC200"/>
</linearGradient>
<linearGradient id="paint29_linear_4959_115507" x1="119.184" y1="5.52271" x2="112.513" y2="5.52271" gradientUnits="userSpaceOnUse">
<stop stop-color="#FFC200" stop-opacity="0"/>
<stop offset="0.203" stop-color="#FFBB00" stop-opacity="0.203"/>
<stop offset="0.499" stop-color="#FFA700" stop-opacity="0.499"/>
<stop offset="0.852" stop-color="#FF8800" stop-opacity="0.852"/>
<stop offset="1" stop-color="#FF7800"/>
</linearGradient>
<linearGradient id="paint30_linear_4959_115507" x1="120.323" y1="15.7435" x2="118.557" y2="7.04331" gradientUnits="userSpaceOnUse">
<stop stop-color="#FFC200" stop-opacity="0"/>
<stop offset="0.203" stop-color="#FFBB00" stop-opacity="0.203"/>
<stop offset="0.499" stop-color="#FFA700" stop-opacity="0.499"/>
<stop offset="0.852" stop-color="#FF8800" stop-opacity="0.852"/>
<stop offset="1" stop-color="#FF7800"/>
</linearGradient>
<linearGradient id="paint31_linear_4959_115507" x1="111.757" y1="20.3157" x2="118.676" y2="13.3964" gradientUnits="userSpaceOnUse">
<stop stop-color="#FFC200" stop-opacity="0"/>
<stop offset="0.203" stop-color="#FFBB00" stop-opacity="0.203"/>
<stop offset="0.499" stop-color="#FFA700" stop-opacity="0.499"/>
<stop offset="0.852" stop-color="#FF8800" stop-opacity="0.852"/>
<stop offset="1" stop-color="#FF7800"/>
</linearGradient>
<linearGradient id="paint32_linear_4959_115507" x1="106.823" y1="11.5655" x2="111.923" y2="15.8323" gradientUnits="userSpaceOnUse">
<stop stop-color="#FFC200" stop-opacity="0"/>
<stop offset="0.203" stop-color="#FFBB00" stop-opacity="0.203"/>
<stop offset="0.499" stop-color="#FFA700" stop-opacity="0.499"/>
<stop offset="0.852" stop-color="#FF8800" stop-opacity="0.852"/>
<stop offset="1" stop-color="#FF7800"/>
</linearGradient>
<linearGradient id="paint33_linear_4959_115507" x1="110.646" y1="4.52732" x2="108.579" y2="10.3941" gradientUnits="userSpaceOnUse">
<stop stop-color="#FFC200" stop-opacity="0"/>
<stop offset="0.203" stop-color="#FFBB00" stop-opacity="0.203"/>
<stop offset="0.499" stop-color="#FFA700" stop-opacity="0.499"/>
<stop offset="0.852" stop-color="#FF8800" stop-opacity="0.852"/>
<stop offset="1" stop-color="#FF7800"/>
</linearGradient>
<linearGradient id="paint34_linear_4959_115507" x1="118.426" y1="5.14" x2="103.242" y2="11.6068" gradientUnits="userSpaceOnUse">
<stop stop-color="#FFC200" stop-opacity="0"/>
<stop offset="0.203" stop-color="#FFBB00" stop-opacity="0.203"/>
<stop offset="0.499" stop-color="#FFA700" stop-opacity="0.499"/>
<stop offset="0.852" stop-color="#FF8800" stop-opacity="0.852"/>
<stop offset="1" stop-color="#FF7800"/>
</linearGradient>
<clipPath id="clip0_4959_115507">
<rect width="20" height="20" fill="white"/>
</clipPath>
<clipPath id="clip1_4959_115507">
<rect width="20" height="20" fill="white" transform="translate(26)"/>
</clipPath>
<clipPath id="clip2_4959_115507">
<rect width="20" height="20" fill="white" transform="translate(52)"/>
</clipPath>
<clipPath id="clip3_4959_115507">
<rect width="20" height="20" fill="white" transform="translate(78)"/>
</clipPath>
<clipPath id="clip4_4959_115507">
<rect width="20" height="20" fill="white" transform="translate(104)"/>
</clipPath>
</defs>
</svg>
