<svg width="22" height="22" viewBox="0 0 22 22" fill="none" xmlns="http://www.w3.org/2000/svg">
<path d="M16.5016 11.9173H5.50163C4.95163 11.9173 4.58496 11.5507 4.58496 11.0007C4.58496 10.4507 4.95163 10.084 5.50163 10.084H16.5016C17.0516 10.084 17.4183 10.4507 17.4183 11.0007C17.4183 11.5507 17.0516 11.9173 16.5016 11.9173Z" fill="white"/>
<path d="M13.7516 17.4173H8.25163C7.70163 17.4173 7.33496 17.0507 7.33496 16.5007C7.33496 15.9507 7.70163 15.584 8.25163 15.584H13.7516C14.3016 15.584 14.6683 15.9507 14.6683 16.5007C14.6683 17.0507 14.3016 17.4173 13.7516 17.4173Z" fill="white"/>
<path d="M19.2516 6.41732H2.75163C2.20163 6.41732 1.83496 6.05065 1.83496 5.50065C1.83496 4.95065 2.20163 4.58398 2.75163 4.58398H19.2516C19.8016 4.58398 20.1683 4.95065 20.1683 5.50065C20.1683 6.05065 19.8016 6.41732 19.2516 6.41732Z" fill="white"/>
</svg>
