<svg width="15" height="14" viewBox="0 0 15 14" fill="none" xmlns="http://www.w3.org/2000/svg">
<g clip-path="url(#clip0_1994_64900)">
<path d="M5.34008 7.00056H3.24825C3.13289 7.00054 3.02014 6.96631 2.92423 6.90221C2.82832 6.83811 2.75358 6.74702 2.70944 6.64044C2.6653 6.53387 2.65374 6.4166 2.67624 6.30346C2.69874 6.19032 2.75428 6.08639 2.83583 6.00481L6.67766 2.16298C6.78706 2.05362 6.9354 1.99219 7.09008 1.99219C7.24476 1.99219 7.39311 2.05362 7.5025 2.16298L11.3443 6.00481C11.4259 6.08639 11.4814 6.19032 11.5039 6.30346C11.5264 6.4166 11.5149 6.53387 11.4707 6.64044C11.4266 6.74702 11.3518 6.83811 11.2559 6.90221C11.16 6.96631 11.0473 7.00054 10.9319 7.00056H8.84008V8.75056H5.34008V7.00056Z" stroke="#0D6EFD" stroke-width="1.16667" stroke-linecap="round" stroke-linejoin="round"/>
<path d="M5.34009 12.25H8.84009" stroke="#0D6EFD" stroke-width="1.16667" stroke-linecap="round" stroke-linejoin="round"/>
<path d="M5.34009 10.5H8.84009" stroke="#0D6EFD" stroke-width="1.16667" stroke-linecap="round" stroke-linejoin="round"/>
</g>
<defs>
<clipPath id="clip0_1994_64900">
<rect width="14" height="14" fill="white" transform="translate(0.0900879)"/>
</clipPath>
</defs>
</svg>
