<svg width="16" height="16" viewBox="0 0 16 16" fill="none" xmlns="http://www.w3.org/2000/svg">
<path d="M4.59983 7.31423C4.45054 7.0456 4.21627 6.83415 3.93381 6.71308C3.65134 6.592 3.33666 6.56814 3.03917 6.64525C2.74168 6.72236 2.47821 6.89608 2.29013 7.13913C2.10205 7.38218 2 7.6808 2 7.98813C2 8.29545 2.10205 8.59407 2.29013 8.83712C2.47821 9.08017 2.74168 9.25389 3.03917 9.331C3.33666 9.40811 3.65134 9.38426 3.93381 9.26318C4.21627 9.1421 4.45054 8.93065 4.59983 8.66202M4.59983 7.31423C4.71081 7.51399 4.77431 7.74335 4.77431 7.98813C4.77431 8.2329 4.71081 8.46288 4.59983 8.66202M4.59983 7.31423L10.4978 4.03784M4.59983 8.66202L10.4978 11.9384M10.4978 4.03784C10.5843 4.2007 10.7024 4.34468 10.8451 4.46137C10.9879 4.57807 11.1525 4.66512 11.3293 4.71746C11.5061 4.7698 11.6916 4.78636 11.8749 4.76618C12.0582 4.746 12.2356 4.68948 12.3968 4.59994C12.558 4.51039 12.6997 4.3896 12.8136 4.24465C12.9276 4.09969 13.0115 3.93347 13.0605 3.7557C13.1095 3.57793 13.1225 3.39218 13.0989 3.20931C13.0752 3.02644 13.0153 2.85012 12.9227 2.69067C12.7403 2.37643 12.4418 2.14633 12.0915 2.04982C11.7412 1.95332 11.367 1.99811 11.0493 2.17458C10.7317 2.35104 10.496 2.64509 10.3929 2.99351C10.2897 3.34194 10.3274 3.71691 10.4978 4.03784ZM10.4978 11.9384C10.4093 12.0977 10.3531 12.2729 10.3323 12.4539C10.3115 12.635 10.3265 12.8183 10.3766 12.9936C10.4267 13.1688 10.5108 13.3324 10.6241 13.4752C10.7374 13.6179 10.8777 13.7369 11.037 13.8254C11.1963 13.9139 11.3715 13.9701 11.5525 13.9909C11.7336 14.0117 11.9169 13.9967 12.0922 13.9466C12.2674 13.8965 12.431 13.8124 12.5737 13.6991C12.7165 13.5858 12.8355 13.4455 12.924 13.2862C13.1027 12.9645 13.1463 12.5849 13.0452 12.231C12.9441 11.8772 12.7065 11.578 12.3848 11.3992C12.0631 11.2205 11.6835 11.1769 11.3296 11.278C10.9758 11.3791 10.6765 11.6167 10.4978 11.9384Z" stroke="#0D6EFD" stroke-width="1.25" stroke-linecap="round" stroke-linejoin="round"/>
</svg>
