<svg width="40" height="40" viewBox="0 0 40 40" fill="none" xmlns="http://www.w3.org/2000/svg">
	<g id="layer 1">
		<g id="Group 48096166">
			<path id="Vector-11" d="M1 2V32.4118C1 32.964 1.44772 33.4118 2 33.4118H2.23529C2.78758 33.4118 3.23529 32.964 3.23529 32.4118V12.5907C3.23529 12.3255 3.34065 12.0711 3.52819 11.8836L11.8836 3.52819C12.0711 3.34065 12.3255 3.23529 12.5907 3.23529H24.5882C25.1405 3.23529 25.5882 2.78758 25.5882 2.23529V2C25.5882 1.44772 25.1405 1 24.5882 1H2C1.44772 1 1 1.44772 1 2Z" fill="#11295A"/>
			<path id="Vector-12" d="M7.70605 12.1757L12.1766 7.70508V12.1757H7.70605Z" fill="#11295A"/>
			<path id="Vector-13" d="M39.0001 30.0547C39.0001 31.5492 38.5822 32.9486 37.8539 34.1327C36.4798 36.3807 34.0039 37.8814 31.1797 37.8814C30.3819 37.8814 29.6156 37.7611 28.8938 37.5458C26.4685 36.8049 24.5435 34.9179 23.7456 32.518C23.5493 31.9164 23.4227 31.2769 23.3784 30.6183C23.3594 30.4347 23.353 30.2447 23.353 30.0547C23.353 28.3893 23.8723 26.8506 24.7588 25.5841C25.392 24.6786 26.2026 23.9188 27.1524 23.3489C28.3302 22.6396 29.7043 22.2344 31.1797 22.2344H31.2177C32.0662 22.2407 32.8831 22.38 33.6493 22.6333C36.7585 23.6655 39.0001 26.5973 39.0001 30.0547Z" fill="#199CD8"/>
			<path id="Vector-14" d="M26.7061 30.0595L29.3139 32.2948L34.5296 27.8242" stroke="#EEF8FF" stroke-width="2" stroke-linecap="round" stroke-linejoin="round"/>
			<g id="Vector_15">
				<path d="M28.9413 7.58789C28.9413 7.03561 28.4936 6.58789 27.9413 6.58789H15.4119C14.8596 6.58789 14.4119 7.03561 14.4119 7.58789V13.4114C14.4119 13.9637 13.9642 14.4114 13.4119 14.4114H7.58838C7.03609 14.4114 6.58838 14.8591 6.58838 15.4114V37.9997C6.58838 38.5519 7.03609 38.9997 7.58838 38.9997H23.3531L20.0001 34.5291H8.82367V32.2938H20.0001V28.9408H8.82367V26.7055H18.8825V24.4702H8.82367V22.2349H22.7943C23.1668 21.4899 25.5884 18.882 28.9413 18.882V7.58789Z" fill="#11295A"/>
				<path d="M23.3497 38.998H16.6464C15.4123 38.998 14.4119 37.9976 14.4119 36.7635C14.4119 35.5295 15.4123 34.5291 16.6464 34.5291H20.7944C21.2109 36.257 22.1115 37.7991 23.3497 38.998Z" fill="#11295A"/>
				<path d="M8.82367 28.9408H20.0001V32.2938H8.82367V28.9408Z" fill="#11295A"/>
				<path d="M8.82367 23.3526H22.2354C20.8943 24.2467 20.559 25.5879 20.0001 26.7055H8.82367V23.3526Z" fill="#11295A"/>
				<path d="M8.82367 18.882H28.9413C26.706 19.4408 23.617 21.4899 23.3531 22.2349H8.82367V18.882Z" fill="#11295A"/>
			</g>
		</g>
	</g>
</svg>