<svg width="40" height="40" viewBox="0 0 40 40" fill="none" xmlns="http://www.w3.org/2000/svg">
<g id="Layer_1" clip-path="url(#clip0_1983_74624)">
<path id="Vector-157" d="M31.7754 36.01L28.3096 23.2882C28.1343 22.6445 27.3892 22.3506 26.8194 22.6977C22.1938 25.5161 18.5703 27.497 13.1671 28.6405C12.4402 28.7943 12.1979 29.5729 12.8739 29.8812C15.3144 30.9943 19.9468 31.2663 21.9453 31.5799C22.4816 31.6641 22.5635 32.1489 22.0775 32.391C19.7227 33.5641 14.5581 33.5028 11.5776 32.9939C3.90406 30.8586 1.49362 30.349 0.559652 30.9545C-0.000579834 31.3177 0.252298 32.1537 0.6978 32.6509C9.88137 42.9019 23.5122 40.4111 31.2171 37.1747C31.6708 36.9841 31.9047 36.4847 31.7754 36.01Z" fill="#11295A"/>
<path id="Vector-156" d="M40 37.1658V19C40 18.4477 39.5539 18 39.0016 18H31.4995C30.9472 18 30.4991 18.4484 30.5092 19.0006C30.6509 26.7159 32.4066 33.5138 34.2362 37.5969C34.3935 37.9478 34.7446 38.1658 35.1292 38.1658H39C39.5523 38.1658 40 37.7181 40 37.1658Z" fill="#11295A"/>
<path id="Rectangle-1534" d="M28 1.77778C28 0.795939 27.2041 0 26.2222 0H1.77778C0.79594 0 0 0.795938 0 1.77778V16.2222C0 17.2041 0.795938 18 1.77778 18H26.2222C27.2041 18 28 17.2041 28 16.2222V1.77778Z" fill="#199CD8"/>
<rect id="Rectangle-1536" width="1.92192" height="1.92192" rx="0.960961" transform="matrix(-1 0 0 1 23 8)" fill="#EEF8FF"/>
<rect id="Rectangle-1535" width="1.92192" height="1.92192" rx="0.960961" transform="matrix(-1 0 0 1 7 8)" fill="#EEF8FF"/>
<g id="Group 48096164">
<circle id="Ellipse-95" cx="5" cy="5" r="5" transform="matrix(-1 0 0 1 19 4)" fill="#EEF8FF"/>
<path id="Vector-158" d="M14.1728 6.13124C14.5631 7.42037 15.5796 8.43695 16.8688 8.82721C17.0437 8.88009 17.0437 9.11991 16.8688 9.17279C15.5796 9.56305 14.5631 10.5796 14.1728 11.8688C14.1199 12.0437 13.8801 12.0437 13.8272 11.8688C13.437 10.5796 12.4204 9.56305 11.1312 9.17279C10.9563 9.11991 10.9563 8.88009 11.1312 8.82721C12.4204 8.43695 13.437 7.42037 13.8272 6.13124C13.8801 5.95625 14.1193 5.95625 14.1728 6.13124Z" fill="#199CD8"/>
</g>
</g>
<defs>
<clipPath id="clip0_1983_74624">
<rect width="40" height="40" fill="white" transform="matrix(-1 0 0 1 40 0)"/>
</clipPath>
</defs>
</svg>
