<svg width="40" height="40" viewBox="0 0 40 40" fill="none" xmlns="http://www.w3.org/2000/svg">
<g id="Frame 48096907" clip-path="url(#clip0_1983_74647)">
<g id="Group 48096167">
<path id="Vector-167" d="M8 18.8095V3.80946C13.0943 1.00761 15.8907 0.653763 17.1641 1.23974C18.3078 1.76609 17.3073 3.17266 16.2943 3.92028C13.4458 6.02251 12.4845 8.87541 12.1476 10.7257C12.0423 11.3042 12.5061 11.8095 13.0941 11.8095H17.8908C18.6069 11.8095 19.3335 12.0417 19.7604 12.6167C21.0391 14.3394 20.544 16.318 19.7767 17.6945C19.3555 18.4501 18.5038 18.8095 17.6387 18.8095H8Z" fill="#11295A"/>
<path id="Vector-169" d="M32.0039 23.9989V35.9989C19.501 37.9989 6.73822 28.7612 7.00391 27.4989C9.40179 20.3053 27.6089 37.1972 28.9261 30.4882C29.031 29.9541 28.5627 29.4832 28.0313 29.3654C27.1961 29.1804 26.1846 28.8498 25.266 28.6802C24.0357 28.4532 22.3318 28.3783 22.0608 27.1569C21.8883 26.3799 22.1302 25.6037 22.4908 24.9741C22.8829 24.2895 23.6786 23.9989 24.4675 23.9989H32.0039Z" fill="#11295A"/>
<g id="Group 48096164">
<path id="Ellipse-9" d="M16.2886 7.91617C16.1072 8.43597 16.5073 8.9512 17.0541 9.01557C24.7362 9.91999 23.8029 16.1769 21.1836 19.6521C20.7464 20.2321 20.9969 21.1555 21.7148 21.2662C31.0451 22.7051 35.5 16.6416 35.5 11.4285C35.5 5.90564 31.0228 1.42849 25.5 1.42849C21.8055 0.966685 17.6845 3.91723 16.2886 7.91617Z" fill="#199CD8"/>
<path id="Vector-170" d="M25.8456 5.26248C26.6261 7.84075 28.6593 9.8739 31.2375 10.6544C31.5875 10.7602 31.5875 11.2398 31.2375 11.3456C28.6593 12.1261 26.6261 14.1593 25.8456 16.7375C25.7398 17.0875 25.2602 17.0875 25.1544 16.7375C24.3739 14.1593 22.3407 12.1261 19.7625 11.3456C19.4125 11.2398 19.4125 10.7602 19.7625 10.6544C22.3407 9.8739 24.3739 7.84075 25.1544 5.26248C25.2602 4.91251 25.7386 4.91251 25.8456 5.26248Z" fill="#EEF8FF"/>
</g>
<path id="Vector-166" d="M0 20.8086V3.80859H6V20.8086H0Z" fill="#199CD8"/>
<path id="Vector-168" d="M34.001 39V21H40.001V39H34.001Z" fill="#199CD8"/>
</g>
</g>
<defs>
<clipPath id="clip0_1983_74647">
<rect width="40" height="40" fill="white"/>
</clipPath>
</defs>
</svg>
