<svg width="30" height="30" viewBox="0 0 30 30" fill="none" xmlns="http://www.w3.org/2000/svg">
<path d="M12.793 2.29935C13.9966 1.04548 16.0034 1.04548 17.207 2.29935C17.9557 3.07934 19.0613 3.40596 20.1136 3.15757C21.7966 2.76028 23.4792 3.86537 23.8175 5.56127C24.0295 6.62423 24.7861 7.51366 25.8061 7.88015C27.4395 8.46697 28.2613 10.3045 27.6355 11.9233C27.2435 12.9373 27.4055 14.0974 28.066 14.9609C29.1248 16.345 28.8445 18.3355 27.4385 19.3652C26.5626 20.0067 26.0861 21.0753 26.1792 22.157C26.3276 23.8813 25.0248 25.4173 23.2969 25.5152C22.2164 25.5765 21.2436 26.2106 20.7436 27.1704C19.9434 28.7066 18.0183 29.2847 16.5148 28.4248C15.5763 27.888 14.4237 27.888 13.4852 28.4248C11.9817 29.2847 10.0566 28.7066 9.25638 27.1704C8.75638 26.2106 7.78356 25.5765 6.70308 25.5152C4.97524 25.4173 3.67241 23.8813 3.82081 22.157C3.91391 21.0753 3.43745 20.0067 2.5615 19.3652C1.15554 18.3355 0.875182 16.345 1.93398 14.9609C2.59448 14.0974 2.7565 12.9373 2.36451 11.9233C1.7387 10.3045 2.56048 8.46697 4.19386 7.88015C5.21394 7.51366 5.97046 6.62423 6.1825 5.56127C6.5208 3.86537 8.20337 2.76028 9.88642 3.15757C10.9387 3.40596 12.0443 3.07934 12.793 2.29935Z" fill="url(#paint0_linear_3480_97493)"/>
<path d="M12.793 2.29935C13.9966 1.04548 16.0033 1.04548 17.207 2.29935C17.9557 3.07934 19.0613 3.40597 20.1136 3.15757C21.7966 2.76028 23.4792 3.86537 23.8175 5.56127C24.0295 6.62423 24.7861 7.51366 25.8061 7.88015C27.4395 8.46698 28.2613 10.3045 27.6355 11.9233C27.2435 12.9373 27.4055 14.0974 28.066 14.9609C29.1248 16.345 28.8445 18.3355 27.4385 19.3652C26.5626 20.0067 26.0861 21.0753 26.1792 22.157C26.3276 23.8813 25.0248 25.4173 23.2969 25.5152C22.2164 25.5765 21.2436 26.2106 20.7436 27.1704C19.9434 28.7066 18.0183 29.2847 16.5148 28.4248C15.5763 27.888 14.4237 27.888 13.4852 28.4248C11.9817 29.2847 10.0566 28.7066 9.25638 27.1704C8.75638 26.2106 7.78356 25.5765 6.70308 25.5152C4.97524 25.4173 3.67241 23.8813 3.82081 22.157C3.91391 21.0753 3.43745 20.0067 2.5615 19.3652C1.15554 18.3355 0.875182 16.345 1.93398 14.9609C2.59448 14.0974 2.7565 12.9373 2.36451 11.9233C1.7387 10.3045 2.56048 8.46698 4.19386 7.88015C5.21394 7.51367 5.97046 6.62423 6.1825 5.56127C6.5208 3.86537 8.20337 2.76028 9.88642 3.15757C10.9387 3.40597 12.0443 3.07934 12.793 2.29935Z" fill="url(#paint1_linear_3480_97493)" fill-opacity="0.1"/>
<path d="M4.59961 15.2047C4.59961 9.46097 9.25584 4.80475 14.9996 4.80475C20.7433 4.80475 25.3996 9.46098 25.3996 15.2047V15.4186C25.3996 21.1624 20.7433 25.8186 14.9996 25.8186C9.25584 25.8186 4.59961 21.1624 4.59961 15.4186V15.2047Z" fill="black" fill-opacity="0.04"/>
<path d="M6.82253 15.2047C6.82253 10.6887 10.4835 7.02767 14.9996 7.02767C19.5156 7.02767 23.1766 10.6887 23.1766 15.2047V15.4186C23.1766 19.9347 19.5156 23.5957 14.9996 23.5957C10.4835 23.5957 6.82253 19.9347 6.82253 15.4186V15.2047Z" stroke="white" stroke-opacity="0.3" stroke-width="4.44584"/>
<path d="M25.5402 15.4072C25.5402 21.2286 20.8211 25.9478 14.9997 25.9478C9.17833 25.9478 4.45917 21.2286 4.45917 15.4072C4.45917 9.58586 9.17833 4.8667 14.9997 4.8667C20.8211 4.8667 25.5402 9.58586 25.5402 15.4072ZM6.62921 15.4072C6.62921 20.0301 10.3768 23.7777 14.9997 23.7777C19.6226 23.7777 23.3702 20.0301 23.3702 15.4072C23.3702 10.7843 19.6226 7.03674 14.9997 7.03674C10.3768 7.03674 6.62921 10.7843 6.62921 15.4072Z" fill="url(#paint2_linear_3480_97493)" fill-opacity="0.5"/>
<path fill-rule="evenodd" clip-rule="evenodd" d="M12.7482 12.882C12.7482 12.3829 12.9464 11.9042 13.2994 11.5512C13.6523 11.1983 14.131 11 14.6302 11C15.1293 11 15.608 11.1983 15.961 11.5512C16.3139 11.9042 16.5122 12.3829 16.5122 12.882C16.5122 13.3812 16.3139 13.8599 15.961 14.2128C15.608 14.5658 15.1293 14.764 14.6302 14.764C14.131 14.764 13.6523 14.5658 13.2994 14.2128C12.9464 13.8599 12.7482 13.3812 12.7482 12.882ZM11.1802 18.7811C11.1943 17.8754 11.564 17.0116 12.2095 16.3761C12.8549 15.7406 13.7244 15.3845 14.6302 15.3845C15.536 15.3845 16.4054 15.7406 17.0509 16.3761C17.6963 17.0116 18.066 17.8754 18.0801 18.7811C18.0812 18.8421 18.0645 18.902 18.032 18.9537C17.9996 19.0053 17.9528 19.0463 17.8974 19.0718C16.8724 19.5417 15.7578 19.7843 14.6302 19.7828C13.465 19.7828 12.358 19.5285 11.363 19.0718C11.3076 19.0463 11.2608 19.0053 11.2283 18.9537C11.1958 18.902 11.1791 18.8421 11.1802 18.7811Z" fill="#5C4033"/>
<defs>
<linearGradient id="paint0_linear_3480_97493" x1="19.3165" y1="30.0002" x2="9.85488" y2="3.31701" gradientUnits="userSpaceOnUse">
<stop offset="0.0625" stop-color="#87704F"/>
<stop offset="1" stop-color="#CBC6C5"/>
</linearGradient>
<linearGradient id="paint1_linear_3480_97493" x1="-5.15203" y1="-2.34351" x2="17.637" y2="38.3329" gradientUnits="userSpaceOnUse">
<stop stop-color="white"/>
<stop offset="1" stop-color="white" stop-opacity="0"/>
</linearGradient>
<linearGradient id="paint2_linear_3480_97493" x1="14.9997" y1="4.8667" x2="14.9997" y2="25.9478" gradientUnits="userSpaceOnUse">
<stop stop-color="white"/>
<stop offset="0.0001" stop-color="white" stop-opacity="0.81"/>
<stop offset="1" stop-color="white" stop-opacity="0"/>
</linearGradient>
</defs>
</svg>
