<svg width="42" height="42" viewBox="0 0 42 42" fill="none" xmlns="http://www.w3.org/2000/svg">
<path d="M17.9102 3.21899C19.5953 1.46358 22.4047 1.46358 24.0898 3.21899C25.138 4.31098 26.6858 4.76825 28.159 4.4205C30.5153 3.8643 32.8709 5.41142 33.3445 7.78568C33.6414 9.27383 34.7005 10.519 36.1286 11.0321C38.4153 11.8537 39.5658 14.4262 38.6897 16.6926C38.1409 18.1122 38.3677 19.7362 39.2924 20.9451C40.7747 22.883 40.3822 25.6696 38.4139 27.1112C37.1876 28.0093 36.5205 29.5053 36.6509 31.0197C36.8586 33.4337 35.0347 35.5841 32.6157 35.7213C31.103 35.807 29.7411 36.6948 29.0411 38.0385C27.9207 40.1891 25.2257 40.9985 23.1207 39.7946C21.8068 39.0431 20.1932 39.0431 18.8793 39.7946C16.7743 40.9985 14.0793 40.1891 12.9589 38.0385C12.2589 36.6948 10.897 35.807 9.38432 35.7213C6.96534 35.5841 5.14137 33.4337 5.34913 31.0197C5.47947 29.5053 4.81243 28.0093 3.5861 27.1112C1.61776 25.6696 1.22525 22.883 2.70757 20.9451C3.63228 19.7362 3.8591 18.1122 3.31031 16.6926C2.43418 14.4262 3.58467 11.8537 5.87141 11.0321C7.29951 10.519 8.35865 9.27383 8.65551 7.78567C9.12912 5.41143 11.4847 3.8643 13.841 4.4205C15.3142 4.76825 16.862 4.31098 17.9102 3.21899Z" fill="url(#paint0_linear_2053_105982)"/>
<path d="M17.9102 3.21899C19.5953 1.46358 22.4047 1.46358 24.0898 3.21899C25.138 4.31098 26.6858 4.76825 28.159 4.4205C30.5153 3.8643 32.8709 5.41143 33.3445 7.78568C33.6414 9.27383 34.7005 10.519 36.1286 11.0321C38.4153 11.8537 39.5658 14.4262 38.6897 16.6926C38.1409 18.1122 38.3677 19.7362 39.2924 20.9451C40.7747 22.883 40.3822 25.6696 38.4139 27.1112C37.1876 28.0093 36.5205 29.5053 36.6509 31.0197C36.8586 33.4337 35.0347 35.5841 32.6157 35.7213C31.103 35.807 29.7411 36.6948 29.0411 38.0385C27.9207 40.1891 25.2257 40.9985 23.1207 39.7946C21.8068 39.0431 20.1932 39.0431 18.8793 39.7946C16.7743 40.9985 14.0793 40.1891 12.9589 38.0385C12.2589 36.6948 10.897 35.807 9.38432 35.7213C6.96534 35.5841 5.14137 33.4337 5.34913 31.0197C5.47947 29.5053 4.81243 28.0093 3.5861 27.1112C1.61776 25.6696 1.22525 22.883 2.70757 20.9451C3.63228 19.7362 3.8591 18.1122 3.31031 16.6926C2.43418 14.4262 3.58466 11.8537 5.87141 11.0321C7.29951 10.519 8.35865 9.27383 8.65551 7.78567C9.12912 5.41143 11.4847 3.8643 13.841 4.4205C15.3142 4.76825 16.862 4.31098 17.9102 3.21899Z" fill="url(#paint1_linear_2053_105982)" fill-opacity="0.1"/>
<path d="M6.43945 21.2865C6.43945 13.2453 12.9582 6.72656 20.9994 6.72656C29.0407 6.72656 35.5594 13.2453 35.5594 21.2865V21.586C35.5594 29.6272 29.0407 36.1459 20.9994 36.1459C12.9582 36.1459 6.43945 29.6272 6.43945 21.586V21.2865Z" fill="black" fill-opacity="0.04"/>
<path d="M9.99852 21.2865C9.99852 15.2109 14.9238 10.2856 20.9994 10.2856C27.075 10.2856 32.0003 15.2109 32.0003 21.2865V21.586C32.0003 27.6616 27.075 32.5869 20.9994 32.5869C14.9238 32.5869 9.99852 27.6616 9.99852 21.586V21.2865Z" stroke="white" stroke-opacity="0.3" stroke-width="7.11814"/>
<path d="M35.7557 21.5702C35.7557 29.7202 29.1489 36.327 20.9989 36.327C12.849 36.327 6.24219 29.7202 6.24219 21.5702C6.24219 13.4203 12.849 6.81348 20.9989 6.81348C29.1489 6.81348 35.7557 13.4203 35.7557 21.5702ZM9.28025 21.5702C9.28025 28.0423 14.5269 33.2889 20.9989 33.2889C27.471 33.2889 32.7176 28.0423 32.7176 21.5702C32.7176 15.0982 27.471 9.85154 20.9989 9.85154C14.5269 9.85154 9.28025 15.0982 9.28025 21.5702Z" fill="url(#paint2_linear_2053_105982)" fill-opacity="0.5"/>
<path fill-rule="evenodd" clip-rule="evenodd" d="M18.1561 17.3348C18.1561 16.636 18.4337 15.9658 18.9278 15.4717C19.422 14.9775 20.0921 14.7 20.7909 14.7C21.4897 14.7 22.1599 14.9775 22.654 15.4717C23.1482 15.9658 23.4258 16.636 23.4258 17.3348C23.4258 18.0336 23.1482 18.7038 22.654 19.1979C22.1599 19.692 21.4897 19.9696 20.7909 19.9696C20.0921 19.9696 19.422 19.692 18.9278 19.1979C18.4337 18.7038 18.1561 18.0336 18.1561 17.3348ZM15.961 25.5935C15.9808 24.3255 16.4983 23.1162 17.4019 22.2265C18.3056 21.3368 19.5228 20.8382 20.7909 20.8382C22.059 20.8382 23.2763 21.3368 24.1799 22.2265C25.0836 23.1162 25.6011 24.3255 25.6209 25.5935C25.6224 25.6789 25.599 25.7628 25.5536 25.8351C25.5081 25.9074 25.4426 25.9648 25.365 26.0004C23.93 26.6584 22.3696 26.9979 20.7909 26.9958C19.1597 26.9958 17.6098 26.6398 16.2169 26.0004C16.1393 25.9648 16.0738 25.9074 16.0283 25.8351C15.9829 25.7628 15.9595 25.6789 15.961 25.5935Z" fill="#5C4033"/>
<defs>
<linearGradient id="paint0_linear_2053_105982" x1="27.0432" y1="42.0002" x2="13.7968" y2="4.64372" gradientUnits="userSpaceOnUse">
<stop offset="0.0625" stop-color="#87704F"/>
<stop offset="1" stop-color="#CBC6C5"/>
</linearGradient>
<linearGradient id="paint1_linear_2053_105982" x1="-7.21285" y1="-3.28101" x2="24.6918" y2="53.6659" gradientUnits="userSpaceOnUse">
<stop stop-color="white"/>
<stop offset="1" stop-color="white" stop-opacity="0"/>
</linearGradient>
<linearGradient id="paint2_linear_2053_105982" x1="20.9989" y1="6.81348" x2="20.9989" y2="36.327" gradientUnits="userSpaceOnUse">
<stop stop-color="white"/>
<stop offset="0.0001" stop-color="white" stop-opacity="0.81"/>
<stop offset="1" stop-color="white" stop-opacity="0"/>
</linearGradient>
</defs>
</svg>
