<svg width="56" height="56" viewBox="0 0 56 56" fill="none" xmlns="http://www.w3.org/2000/svg">
<path d="M23.9539 4.71502C26.1605 2.41627 29.8395 2.41627 32.0461 4.71502C33.4188 6.14501 35.4457 6.74382 37.3749 6.28843C40.4605 5.56007 43.5452 7.58607 44.1654 10.6952C44.5541 12.644 45.9411 14.2746 47.8112 14.9465C50.8058 16.0223 52.3124 19.3911 51.1651 22.359C50.4464 24.218 50.7434 26.3447 51.9544 27.9278C53.8955 30.4655 53.3815 34.1146 50.8039 36.0024C49.198 37.1786 48.3245 39.1376 48.4952 41.1208C48.7673 44.2819 46.3787 47.0979 43.211 47.2775C41.2301 47.3898 39.4466 48.5524 38.53 50.312C37.0629 53.1282 33.5336 54.1881 30.7771 52.6116C29.0565 51.6275 26.9435 51.6275 25.2229 52.6116C22.4664 54.1881 18.9371 53.1282 17.47 50.312C16.5534 48.5524 14.7699 47.3898 12.789 47.2775C9.62127 47.0979 7.23275 44.2819 7.50481 41.1208C7.6755 39.1376 6.80199 37.1786 5.19608 36.0024C2.6185 34.1146 2.1045 30.4655 4.04563 27.9278C5.25655 26.3447 5.55358 24.218 4.83493 22.359C3.68762 19.3911 5.1942 16.0223 8.18875 14.9465C10.0589 14.2746 11.4458 12.644 11.8346 10.6952C12.4548 7.58607 15.5395 5.56007 18.6251 6.28843C20.5543 6.74382 22.5812 6.14501 23.9539 4.71502Z" fill="url(#paint0_linear_1983_69682)"/>
<path d="M23.9539 4.71502C26.1605 2.41627 29.8395 2.41627 32.0461 4.71502C33.4188 6.14501 35.4457 6.74382 37.3749 6.28843C40.4605 5.56007 43.5452 7.58607 44.1654 10.6952C44.5541 12.644 45.9411 14.2746 47.8112 14.9465C50.8058 16.0223 52.3124 19.3911 51.1651 22.359C50.4464 24.218 50.7434 26.3447 51.9544 27.9278C53.8955 30.4655 53.3815 34.1146 50.8039 36.0024C49.198 37.1786 48.3245 39.1376 48.4952 41.1208C48.7673 44.2819 46.3787 47.0979 43.211 47.2775C41.2301 47.3898 39.4466 48.5524 38.53 50.312C37.0629 53.1282 33.5336 54.1881 30.7771 52.6116C29.0565 51.6275 26.9435 51.6275 25.2229 52.6116C22.4664 54.1881 18.9371 53.1282 17.47 50.312C16.5534 48.5524 14.7699 47.3898 12.789 47.2775C9.62127 47.0979 7.23275 44.2819 7.50481 41.1208C7.6755 39.1376 6.80199 37.1786 5.19608 36.0024C2.6185 34.1146 2.1045 30.4655 4.04563 27.9278C5.25655 26.3447 5.55358 24.218 4.83493 22.359C3.68762 19.3911 5.1942 16.0223 8.18875 14.9465C10.0589 14.2746 11.4458 12.644 11.8346 10.6952C12.4548 7.58607 15.5395 5.56007 18.6251 6.28843C20.5543 6.74382 22.5812 6.14501 23.9539 4.71502Z" fill="url(#paint1_linear_1983_69682)" fill-opacity="0.1"/>
<path d="M8.93262 28.3733C8.93262 17.8431 17.469 9.30664 27.9992 9.30664C38.5294 9.30664 47.0659 17.8431 47.0659 28.3733V28.7654C47.0659 39.2956 38.5294 47.832 27.9992 47.832C17.469 47.832 8.93262 39.2956 8.93262 28.7654V28.3733Z" fill="black" fill-opacity="0.04"/>
<path d="M11.1555 28.3733C11.1555 19.0707 18.6967 11.5296 27.9992 11.5296C37.3018 11.5296 44.8429 19.0707 44.8429 28.3733V28.7654C44.8429 38.0679 37.3018 45.6091 27.9992 45.6091C18.6967 45.6091 11.1555 38.0679 11.1555 28.7654V28.3733Z" stroke="white" stroke-opacity="0.3" stroke-width="4.44584"/>
<path d="M47.3244 28.7442C47.3244 39.4168 38.6726 48.0686 28.0001 48.0686C17.3276 48.0686 8.67578 39.4168 8.67578 28.7442C8.67578 18.0717 17.3276 9.41992 28.0001 9.41992C38.6726 9.41992 47.3244 18.0717 47.3244 28.7442ZM12.6542 28.7442C12.6542 37.2196 19.5248 44.0902 28.0001 44.0902C36.4754 44.0902 43.346 37.2196 43.346 28.7442C43.346 20.2689 36.4754 13.3983 28.0001 13.3983C19.5248 13.3983 12.6542 20.2689 12.6542 28.7442Z" fill="url(#paint2_linear_1983_69682)" fill-opacity="0.5"/>
<path fill-rule="evenodd" clip-rule="evenodd" d="M24.275 23.2004C24.275 22.2853 24.6385 21.4077 25.2856 20.7606C25.9327 20.1135 26.8103 19.75 27.7254 19.75C28.6405 19.75 29.5181 20.1135 30.1652 20.7606C30.8122 21.4077 31.1758 22.2853 31.1758 23.2004C31.1758 24.1155 30.8122 24.9931 30.1652 25.6401C29.5181 26.2872 28.6405 26.6507 27.7254 26.6507C26.8103 26.6507 25.9327 26.2872 25.2856 25.6401C24.6385 24.9931 24.275 24.1155 24.275 23.2004ZM21.4005 34.0154C21.4263 32.3549 22.1041 30.7713 23.2874 29.6062C24.4708 28.4412 26.0648 27.7882 27.7254 27.7882C29.386 27.7882 30.98 28.4412 32.1634 29.6062C33.3467 30.7713 34.0244 32.3549 34.0503 34.0154C34.0523 34.1271 34.0217 34.2371 33.9621 34.3317C33.9026 34.4264 33.8168 34.5016 33.7152 34.5482C31.8361 35.4098 29.7927 35.8545 27.7254 35.8517C25.5892 35.8517 23.5596 35.3855 21.7356 34.5482C21.6339 34.5016 21.5481 34.4264 21.4886 34.3317C21.4291 34.2371 21.3985 34.1271 21.4005 34.0154Z" fill="#FFE69B"/>
<defs>
<linearGradient id="paint0_linear_1983_69682" x1="10.1572" y1="5.6505" x2="40.3244" y2="53.2007" gradientUnits="userSpaceOnUse">
<stop stop-color="#FFE092"/>
<stop offset="1" stop-color="#E3A302"/>
</linearGradient>
<linearGradient id="paint1_linear_1983_69682" x1="-8.94539" y1="-3.79688" x2="32.8345" y2="70.7765" gradientUnits="userSpaceOnUse">
<stop stop-color="white"/>
<stop offset="1" stop-color="white" stop-opacity="0"/>
</linearGradient>
<linearGradient id="paint2_linear_1983_69682" x1="28.0001" y1="9.41992" x2="28.0001" y2="48.0686" gradientUnits="userSpaceOnUse">
<stop stop-color="white"/>
<stop offset="0.0001" stop-color="white" stop-opacity="0.81"/>
<stop offset="1" stop-color="white" stop-opacity="0"/>
</linearGradient>
</defs>
</svg>
