<svg width="134" height="134" viewBox="0 0 134 134" fill="none" xmlns="http://www.w3.org/2000/svg">
<path d="M57.1422 10.2701C62.5184 4.66947 71.4816 4.66947 76.8578 10.2701V10.2701C80.2021 13.754 85.1404 15.213 89.8406 14.1035V14.1035C97.3583 12.3289 104.874 17.265 106.385 24.84V24.84C107.332 29.5879 110.711 33.5607 115.267 35.1976V35.1976C122.563 37.8188 126.234 46.0263 123.439 53.2572V53.2572C121.688 57.7864 122.411 62.9679 125.362 66.8248V66.8248C130.091 73.0075 128.839 81.8982 122.559 86.4975V86.4975C118.646 89.3631 116.518 94.1359 116.934 98.9677V98.9677C117.597 106.669 111.777 113.53 104.06 113.968V113.968C99.2334 114.241 94.8882 117.074 92.6549 121.361V121.361C89.0804 128.222 80.4819 130.805 73.7661 126.964V126.964C69.574 124.566 64.426 124.566 60.2339 126.964V126.964C53.5181 130.805 44.9196 128.222 41.3451 121.361V121.361C39.1118 117.074 34.7666 114.241 29.9404 113.968V113.968C22.2227 113.53 16.4034 106.669 17.0663 98.9677V98.9677C17.4821 94.1359 15.3539 89.3631 11.4414 86.4975V86.4975C5.16143 81.8982 3.90915 73.0075 8.63844 66.8248V66.8248C11.5887 62.9679 12.3124 57.7864 10.5615 53.2572V53.2572C7.7662 46.0263 11.4368 37.8188 18.7326 35.1976V35.1976C23.2889 33.5607 26.6681 29.5879 27.6152 24.84V24.84C29.1262 17.265 36.6417 12.3289 44.1594 14.1035V14.1035C48.8595 15.213 53.7979 13.754 57.1422 10.2701V10.2701Z" fill="url(#paint0_linear_6_37)"/>
<path d="M57.1422 10.2701C62.5184 4.66947 71.4816 4.66946 76.8578 10.2701V10.2701C80.2021 13.754 85.1404 15.213 89.8406 14.1035V14.1035C97.3583 12.3289 104.874 17.265 106.385 24.84V24.84C107.332 29.5879 110.711 33.5607 115.267 35.1976V35.1976C122.563 37.8188 126.234 46.0263 123.439 53.2572V53.2572C121.688 57.7864 122.411 62.9679 125.362 66.8248V66.8248C130.091 73.0075 128.839 81.8982 122.559 86.4975V86.4975C118.646 89.3631 116.518 94.1359 116.934 98.9677V98.9677C117.597 106.669 111.777 113.53 104.06 113.968V113.968C99.2334 114.241 94.8882 117.074 92.6548 121.361V121.361C89.0804 128.222 80.4819 130.805 73.7661 126.964V126.964C69.574 124.566 64.426 124.566 60.2339 126.964V126.964C53.5181 130.805 44.9196 128.222 41.3451 121.361V121.361C39.1118 117.074 34.7666 114.241 29.9404 113.968V113.968C22.2227 113.53 16.4034 106.669 17.0663 98.9677V98.9677C17.4821 94.1359 15.3539 89.3631 11.4414 86.4975V86.4975C5.16143 81.8982 3.90914 73.0075 8.63844 66.8248V66.8248C11.5887 62.9679 12.3124 57.7864 10.5615 53.2572V53.2572C7.7662 46.0263 11.4368 37.8188 18.7326 35.1976V35.1976C23.2889 33.5607 26.6681 29.5879 27.6152 24.84V24.84C29.1262 17.265 36.6417 12.3289 44.1594 14.1035V14.1035C48.8595 15.213 53.7979 13.754 57.1422 10.2701V10.2701Z" fill="url(#paint1_linear_6_37)" fill-opacity="0.1"/>
<path d="M20.5449 67.9145C20.5449 42.2591 41.3427 21.4612 66.9981 21.4612V21.4612C92.6536 21.4612 113.451 42.2591 113.451 67.9145V68.8698C113.451 94.5252 92.6536 115.323 66.9981 115.323V115.323C41.3427 115.323 20.5449 94.5252 20.5449 68.8698V67.9145Z" fill="black" fill-opacity="0.04"/>
<path d="M102.096 67.9145V68.8698C102.096 88.254 86.3823 103.968 66.9981 103.968C47.614 103.968 31.9 88.254 31.9 68.8698V67.9145C31.9 48.5303 47.614 32.8164 66.9981 32.8164C86.3823 32.8164 102.096 48.5303 102.096 67.9145Z" stroke="white" stroke-opacity="0.3" stroke-width="22.7102"/>
<path d="M114.077 68.8191C114.077 94.8212 92.9984 115.9 66.9962 115.9C40.9941 115.9 19.9152 94.8212 19.9152 68.8191C19.9152 42.8169 40.9941 21.738 66.9962 21.738C92.9984 21.738 114.077 42.8169 114.077 68.8191ZM29.608 68.8191C29.608 89.468 46.3473 106.207 66.9962 106.207C87.6452 106.207 104.384 89.468 104.384 68.8191C104.384 48.1701 87.6452 31.4308 66.9962 31.4308C46.3473 31.4308 29.608 48.1701 29.608 68.8191Z" fill="url(#paint2_linear_6_37)" fill-opacity="0.5"/>
<path fill-rule="evenodd" clip-rule="evenodd" d="M59.0036 55.4064C59.0036 53.1768 59.8893 51.0387 61.4658 49.4622C63.0423 47.8857 65.1805 47 67.41 47C69.6395 47 71.7777 47.8857 73.3542 49.4622C74.9307 51.0387 75.8164 53.1768 75.8164 55.4064C75.8164 57.6359 74.9307 59.774 73.3542 61.3505C71.7777 62.927 69.6395 63.8127 67.41 63.8127C65.1805 63.8127 63.0423 62.927 61.4658 61.3505C59.8893 59.774 59.0036 57.6359 59.0036 55.4064V55.4064ZM52.0002 81.7556C52.0632 77.7102 53.7144 73.8519 56.5975 71.0134C59.4805 68.1749 63.3641 66.5839 67.41 66.5839C71.4559 66.5839 75.3395 68.1749 78.2225 71.0134C81.1056 73.8519 82.7568 77.7102 82.8198 81.7556C82.8246 82.0279 82.75 82.2958 82.605 82.5264C82.46 82.757 82.251 82.9403 82.0034 83.0539C77.4251 85.1531 72.4466 86.2365 67.41 86.2296C62.2055 86.2296 57.2607 85.0938 52.8166 83.0539C52.569 82.9403 52.36 82.757 52.215 82.5264C52.07 82.2958 51.9954 82.0279 52.0002 81.7556V81.7556Z" fill="#5C4033"/>
<defs>
<linearGradient id="paint0_linear_6_37" x1="86.2806" y1="134.001" x2="44.0185" y2="14.8156" gradientUnits="userSpaceOnUse">
<stop offset="0.0625" stop-color="#87704F"/>
<stop offset="1" stop-color="#CBC6C5"/>
</linearGradient>
<linearGradient id="paint1_linear_6_37" x1="-23.0124" y1="-10.468" x2="78.7787" y2="171.22" gradientUnits="userSpaceOnUse">
<stop stop-color="white"/>
<stop offset="1" stop-color="white" stop-opacity="0"/>
</linearGradient>
<linearGradient id="paint2_linear_6_37" x1="66.9962" y1="21.738" x2="66.9962" y2="115.9" gradientUnits="userSpaceOnUse">
<stop stop-color="white"/>
<stop offset="0.0001" stop-color="white" stop-opacity="0.81"/>
<stop offset="1" stop-color="white" stop-opacity="0"/>
</linearGradient>
</defs>
</svg>
