<svg width="18" height="18" viewBox="0 0 18 18" fill="none" xmlns="http://www.w3.org/2000/svg">
<rect width="18" height="18" fill="white"/>
<path d="M10.625 2V5.11111C10.625 5.31739 10.7069 5.51522 10.8528 5.66108C10.9987 5.80694 11.1965 5.88889 11.4028 5.88889H14.5139" stroke="black" stroke-linecap="round" stroke-linejoin="round"/>
<path d="M12.9583 16H5.18056C4.768 16 4.37233 15.8361 4.08061 15.5444C3.78889 15.2527 3.625 14.857 3.625 14.4444V3.55556C3.625 3.143 3.78889 2.74733 4.08061 2.45561C4.37233 2.16389 4.768 2 5.18056 2H10.625L14.5139 5.88889V14.4444C14.5139 14.857 14.35 15.2527 14.0583 15.5444C13.7666 15.8361 13.3709 16 12.9583 16Z" stroke="black" stroke-linecap="round" stroke-linejoin="round"/>
</svg>
