<svg width="14" height="16" viewBox="0 0 14 16" fill="none" xmlns="http://www.w3.org/2000/svg">
<path d="M9.72727 11.7692V14.1923C9.72727 14.6382 9.36073 15 8.90909 15H1.81818C1.60119 15 1.39308 14.9149 1.23964 14.7634C1.0862 14.612 1 14.4065 1 14.1923V5.03846C1 4.59262 1.36655 4.23077 1.81818 4.23077H3.18182C3.54733 4.23052 3.91222 4.2603 4.27273 4.3198M9.72727 11.7692H12.1818C12.6335 11.7692 13 11.4074 13 10.9615V7.46154C13 4.25949 10.6415 1.60236 7.54545 1.08903C7.18495 1.02953 6.82005 0.999756 6.45455 1H5.09091C4.63927 1 4.27273 1.36185 4.27273 1.80769V4.32051M9.72727 11.7692H5.09091C4.87391 11.7692 4.66581 11.6841 4.51237 11.5327C4.35893 11.3812 4.27273 11.1758 4.27273 10.9615V4.32051M13 9.07692V7.73077C13 7.08813 12.7414 6.47181 12.2811 6.0174C11.8208 5.56298 11.1964 5.30769 10.5455 5.30769H9.45455C9.23755 5.30769 9.02944 5.2226 8.876 5.07113C8.72256 4.91965 8.63636 4.71421 8.63636 4.5V3.42308C8.63636 3.10488 8.57288 2.78979 8.44952 2.49581C8.32617 2.20183 8.14537 1.93471 7.91744 1.7097C7.68952 1.4847 7.41893 1.30622 7.12113 1.18445C6.82333 1.06268 6.50415 1 6.18182 1H5.36364" stroke="#0D6EFD" stroke-linecap="round" stroke-linejoin="round"/>
</svg>
