<svg width="22" height="22" viewBox="0 0 22 22" fill="none" xmlns="http://www.w3.org/2000/svg">
<g id="Frame">
<rect width="22" height="22" rx="11" fill="#313131"/>
<path id="delete-icon" d="M12.9995 9.12161L12.7826 14.7625M9.78166 14.7625L9.5648 9.12161M15.8124 7.1097C16.0267 7.14229 16.2398 7.17676 16.4529 7.21374M15.8124 7.11032L15.143 15.8111C15.1157 16.1653 14.9556 16.4962 14.6949 16.7376C14.4341 16.9789 14.0919 17.113 13.7365 17.1128H8.82772C8.47241 17.113 8.13015 16.9789 7.86939 16.7376C7.60863 16.4962 7.44858 16.1653 7.42126 15.8111L6.75188 7.1097M15.8124 7.1097C15.089 7.00034 14.3619 6.91734 13.6325 6.86087M6.11133 7.21311C6.32443 7.17613 6.53753 7.14166 6.75188 7.1097M6.75188 7.1097C7.47525 7.00034 8.20236 6.91734 8.93177 6.86087M13.6325 6.86087V6.28675C13.6325 5.54717 13.0621 4.93044 12.3226 4.90725C11.6291 4.88508 10.9351 4.88508 10.2417 4.90725C9.50212 4.93044 8.93177 5.5478 8.93177 6.28675V6.86087M13.6325 6.86087C12.0679 6.73995 10.4963 6.73995 8.93177 6.86087" stroke="#DC3545" stroke-linecap="round" stroke-linejoin="round"/>
</g>
</svg>
