<svg width="22" height="22" viewBox="0 0 22 22" fill="none" xmlns="http://www.w3.org/2000/svg">
<g id="Frame">
<rect width="22" height="22" rx="11" fill="#FEF2F2"/>
<path id="delete-icon" d="M12.9995 9.11965L12.7826 14.7605M9.78166 14.7605L9.5648 9.11965M15.8124 7.10774C16.0267 7.14033 16.2398 7.17481 16.4529 7.21179M15.8124 7.10837L15.143 15.8091C15.1157 16.1634 14.9556 16.4943 14.6949 16.7356C14.4341 16.977 14.0919 17.111 13.7365 17.1109H8.82772C8.47241 17.111 8.13015 16.977 7.86939 16.7356C7.60863 16.4943 7.44858 16.1634 7.42126 15.8091L6.75188 7.10774M15.8124 7.10774C15.089 6.99838 14.3619 6.91539 13.6325 6.85892M6.11133 7.21116C6.32443 7.17418 6.53753 7.13971 6.75188 7.10774M6.75188 7.10774C7.47525 6.99838 8.20236 6.91539 8.93177 6.85892M13.6325 6.85892V6.2848C13.6325 5.54522 13.0621 4.92848 12.3226 4.90529C11.6291 4.88313 10.9351 4.88313 10.2417 4.90529C9.50212 4.92848 8.93177 5.54585 8.93177 6.2848V6.85892M13.6325 6.85892C12.0679 6.738 10.4963 6.738 8.93177 6.85892" stroke="#DC3545" stroke-linecap="round" stroke-linejoin="round"/>
</g>
</svg>
