<svg width="20" height="20" viewBox="0 0 20 20" fill="none" xmlns="http://www.w3.org/2000/svg">
<g id="gallery">
<rect width="20" height="20" fill="white"/>
<g id="Group 48095970">
<path id="Vector" d="M12.25 7H12.2575" stroke="#939393" stroke-width="1.5" stroke-linecap="round" stroke-linejoin="round"/>
<path id="Vector_2" d="M3.25 5.5C3.25 4.90326 3.48705 4.33097 3.90901 3.90901C4.33097 3.48705 4.90326 3.25 5.5 3.25H14.5C15.0967 3.25 15.669 3.48705 16.091 3.90901C16.5129 4.33097 16.75 4.90326 16.75 5.5V14.5C16.75 15.0967 16.5129 15.669 16.091 16.091C15.669 16.5129 15.0967 16.75 14.5 16.75H5.5C4.90326 16.75 4.33097 16.5129 3.90901 16.091C3.48705 15.669 3.25 15.0967 3.25 14.5V5.5Z" stroke="#939393" stroke-width="1.5" stroke-linecap="round" stroke-linejoin="round"/>
<path id="Vector_3" d="M3.25 13.0004L7 9.25036C7.696 8.58061 8.554 8.58061 9.25 9.25036L13 13.0004" stroke="#939393" stroke-width="1.5" stroke-linecap="round" stroke-linejoin="round"/>
<path id="Vector_4" d="M11.5 11.5004L12.25 10.7504C12.946 10.0806 13.804 10.0806 14.5 10.7504L16.75 13.0004" stroke="#939393" stroke-width="1.5" stroke-linecap="round" stroke-linejoin="round"/>
</g>
</g>
</svg>
