<svg width="17" height="16" viewBox="0 0 17 16" fill="none" xmlns="http://www.w3.org/2000/svg">
<g id="security level - Secure">
<g id="Flat Color">
<path id="Vector" d="M1.99611 6.81613C1.99611 10.897 4.27768 13.2938 7.86196 15.0643C8.05339 15.1542 8.26226 15.2008 8.47374 15.2008C8.68521 15.2008 8.89409 15.1542 9.08551 15.0643C12.6698 13.3297 14.9514 10.8826 14.9514 6.81613V3.46216C14.9532 3.10407 14.8214 2.75816 14.5819 2.49199C14.3423 2.22582 14.0121 2.05849 13.6558 2.02269C12.0648 1.88269 10.503 1.50922 9.02074 0.914295C8.8481 0.839417 8.66192 0.800781 8.47374 0.800781C8.28556 0.800781 8.09938 0.839417 7.92674 0.914295C6.44485 1.51169 4.88306 1.88759 3.29164 2.02989C2.93533 2.06569 2.60517 2.23302 2.36561 2.49919C2.12606 2.76536 1.99432 3.11127 1.99611 3.46936V6.81613Z" fill="#28A745"/>
<path id="Vector_2" d="M7.36901 11.009C7.13426 11.0104 6.90826 10.92 6.73924 10.7571L4.688 8.74183C4.60367 8.6582 4.53674 8.55869 4.49107 8.44906C4.44539 8.33943 4.42188 8.22184 4.42188 8.10307C4.42187 7.9843 4.44539 7.86671 4.49107 7.75708C4.53674 7.64744 4.60367 7.54794 4.688 7.4643C4.85656 7.29674 5.08458 7.20269 5.32226 7.20269C5.55994 7.20269 5.78797 7.29674 5.95653 7.4643L7.37801 8.85879L11.0757 5.26011C11.2463 5.09189 11.4767 4.99834 11.7163 5.00002C11.9559 5.00171 12.185 5.0985 12.3532 5.26911C12.5214 5.43971 12.615 5.67015 12.6133 5.90974C12.6116 6.14932 12.5148 6.37842 12.3442 6.54664L8.01678 10.8021C7.83624 10.9531 7.60369 11.0274 7.36901 11.009Z" fill="white"/>
</g>
</g>
</svg>
