<svg width="17" height="16" viewBox="0 0 17 16" fill="none" xmlns="http://www.w3.org/2000/svg">
<path d="M7.11201 1.22619C7.75394 0.557461 8.82418 0.55746 9.46611 1.22619C9.86544 1.64219 10.4551 1.81638 11.0163 1.68391C11.9139 1.47202 12.8113 2.0614 12.9917 2.96588C13.1048 3.53279 13.5083 4.00716 14.0523 4.20261C14.9235 4.51559 15.3618 5.49559 15.028 6.35898C14.8189 6.89979 14.9053 7.51847 15.2576 7.979C15.8223 8.71723 15.6728 9.7788 14.9229 10.328C14.4558 10.6701 14.2016 11.24 14.2513 11.817C14.3304 12.7365 13.6356 13.5557 12.7141 13.608C12.1378 13.6407 11.619 13.9789 11.3523 14.4908C10.9255 15.31 9.89884 15.6184 9.09696 15.1597C8.5964 14.8735 7.98172 14.8735 7.48117 15.1597C6.67928 15.6184 5.65259 15.31 5.2258 14.4908C4.95913 13.9789 4.44029 13.6407 3.86404 13.608C2.94252 13.5557 2.24768 12.7365 2.32683 11.817C2.37648 11.24 2.12237 10.6701 1.65519 10.328C0.905353 9.7788 0.755826 8.71723 1.32052 7.979C1.67279 7.51847 1.75919 6.89979 1.55013 6.35898C1.21637 5.49559 1.65465 4.51559 2.52579 4.20261C3.06983 4.00716 3.47331 3.53279 3.5864 2.96588C3.76682 2.0614 4.6642 1.47202 5.56182 1.68391C6.12304 1.81638 6.71269 1.64219 7.11201 1.22619Z" fill="url(#paint0_linear_3917_127739)"/>
<path d="M7.11201 1.22619C7.75394 0.557461 8.82418 0.55746 9.46611 1.22619C9.86544 1.64219 10.4551 1.81638 11.0163 1.68391C11.9139 1.47202 12.8113 2.0614 12.9917 2.96588C13.1048 3.53279 13.5083 4.00716 14.0523 4.20261C14.9235 4.51559 15.3618 5.49559 15.028 6.35898C14.8189 6.89979 14.9053 7.51847 15.2576 7.979C15.8223 8.71723 15.6728 9.7788 14.9229 10.328C14.4558 10.6701 14.2016 11.24 14.2513 11.817C14.3304 12.7365 13.6356 13.5557 12.7141 13.608C12.1378 13.6407 11.619 13.9789 11.3523 14.4908C10.9255 15.31 9.89884 15.6184 9.09696 15.1597C8.5964 14.8735 7.98172 14.8735 7.48117 15.1597C6.67928 15.6184 5.65259 15.31 5.2258 14.4908C4.95913 13.9789 4.44029 13.6407 3.86404 13.608C2.94252 13.5557 2.24768 12.7365 2.32683 11.817C2.37648 11.24 2.12237 10.6701 1.65519 10.328C0.905353 9.7788 0.755826 8.71723 1.32052 7.979C1.67279 7.51847 1.75919 6.89979 1.55013 6.35898C1.21637 5.49559 1.65465 4.51559 2.52579 4.20261C3.06983 4.00716 3.47331 3.53279 3.5864 2.96588C3.76682 2.0614 4.6642 1.47202 5.56182 1.68391C6.12304 1.81638 6.71269 1.64219 7.11201 1.22619Z" fill="url(#paint1_linear_3917_127739)" fill-opacity="0.1"/>
<path d="M2.74219 8.10915C2.74219 5.04582 5.22551 2.5625 8.28884 2.5625C11.3522 2.5625 13.8355 5.04582 13.8355 8.10915V8.22324C13.8355 11.2866 11.3522 13.7699 8.28884 13.7699C5.22551 13.7699 2.74219 11.2866 2.74219 8.22323V8.10915Z" fill="black" fill-opacity="0.04"/>
<path d="M3.92774 8.10915C3.92774 5.70058 5.88027 3.74806 8.28884 3.74806C10.6974 3.74806 12.6499 5.70059 12.6499 8.10915V8.22324C12.6499 10.6318 10.6974 12.5843 8.28884 12.5843C5.88027 12.5843 3.92774 10.6318 3.92774 8.22323V8.10915Z" stroke="white" stroke-opacity="0.3" stroke-width="2.37111"/>
<path d="M13.9112 8.21537C13.9112 11.3201 11.3943 13.837 8.28959 13.837C5.18485 13.837 2.66797 11.3201 2.66797 8.21537C2.66797 5.11064 5.18485 2.59375 8.28959 2.59375C11.3943 2.59375 13.9112 5.11064 13.9112 8.21537ZM3.82532 8.21537C3.82532 10.6809 5.82404 12.6796 8.28959 12.6796C10.7551 12.6796 12.7539 10.6809 12.7539 8.21537C12.7539 5.74983 10.7551 3.75111 8.28959 3.75111C5.82404 3.75111 3.82532 5.74983 3.82532 8.21537Z" fill="url(#paint2_linear_3917_127739)" fill-opacity="0.5"/>
<path fill-rule="evenodd" clip-rule="evenodd" d="M7.07454 6.86898C7.07454 6.60277 7.18029 6.34746 7.36853 6.15922C7.55677 5.97099 7.81207 5.86523 8.07828 5.86523C8.34449 5.86523 8.5998 5.97099 8.78804 6.15922C8.97627 6.34746 9.08202 6.60277 9.08202 6.86898C9.08202 7.13519 8.97627 7.39049 8.78804 7.57873C8.5998 7.76697 8.34449 7.87272 8.07828 7.87272C7.81207 7.87272 7.55677 7.76697 7.36853 7.57873C7.18029 7.39049 7.07454 7.13519 7.07454 6.86898ZM6.23831 10.0152C6.24583 9.53213 6.44299 9.07143 6.78724 8.7325C7.13148 8.39358 7.59519 8.20361 8.07828 8.20361C8.56137 8.20361 9.02508 8.39358 9.36933 8.7325C9.71357 9.07143 9.91073 9.53213 9.91825 10.0152C9.91883 10.0477 9.90992 10.0797 9.89261 10.1072C9.8753 10.1347 9.85034 10.1566 9.82078 10.1702C9.27411 10.4208 8.67967 10.5502 8.07828 10.5494C7.45685 10.5494 6.86643 10.4138 6.33578 10.1702C6.30622 10.1566 6.28126 10.1347 6.26395 10.1072C6.24664 10.0797 6.23773 10.0477 6.23831 10.0152Z" fill="#FFE69B"/>
<defs>
<linearGradient id="paint0_linear_3917_127739" x1="3.09843" y1="1.49833" x2="11.8743" y2="15.3311" gradientUnits="userSpaceOnUse">
<stop stop-color="#FFE092"/>
<stop offset="1" stop-color="#E3A302"/>
</linearGradient>
<linearGradient id="paint1_linear_3917_127739" x1="-2.45869" y1="-1.25" x2="9.69547" y2="20.4441" gradientUnits="userSpaceOnUse">
<stop stop-color="white"/>
<stop offset="1" stop-color="white" stop-opacity="0"/>
</linearGradient>
<linearGradient id="paint2_linear_3917_127739" x1="8.28959" y1="2.59375" x2="8.28959" y2="13.837" gradientUnits="userSpaceOnUse">
<stop stop-color="white"/>
<stop offset="0.0001" stop-color="white" stop-opacity="0.81"/>
<stop offset="1" stop-color="white" stop-opacity="0"/>
</linearGradient>
</defs>
</svg>
