<svg width="22" height="22" viewBox="0 0 22 22" fill="none" xmlns="http://www.w3.org/2000/svg">
<g id="Frame" clip-path="url(#clip0_4129_48692)">
<path id="Vector" d="M3.66797 6.41602H18.3346" stroke="#DC3545" stroke-width="1.5" stroke-linecap="round" stroke-linejoin="round"/>
<path id="Vector_2" d="M9.16797 10.084V15.584" stroke="#DC3545" stroke-width="1.5" stroke-linecap="round" stroke-linejoin="round"/>
<path id="Vector_3" d="M12.832 10.084V15.584" stroke="#DC3545" stroke-width="1.5" stroke-linecap="round" stroke-linejoin="round"/>
<path id="Vector_4" d="M4.58203 6.41602L5.4987 17.416C5.4987 17.9022 5.69185 18.3686 6.03567 18.7124C6.37949 19.0562 6.8458 19.2493 7.33203 19.2493H14.6654C15.1516 19.2493 15.6179 19.0562 15.9617 18.7124C16.3055 18.3686 16.4987 17.9022 16.4987 17.416L17.4154 6.41602" stroke="#DC3545" stroke-width="1.5" stroke-linecap="round" stroke-linejoin="round"/>
<path id="Vector_5" d="M8.25 6.41667V3.66667C8.25 3.42355 8.34658 3.19039 8.51849 3.01849C8.69039 2.84658 8.92355 2.75 9.16667 2.75H12.8333C13.0764 2.75 13.3096 2.84658 13.4815 3.01849C13.6534 3.19039 13.75 3.42355 13.75 3.66667V6.41667" stroke="#DC3545" stroke-width="1.5" stroke-linecap="round" stroke-linejoin="round"/>
</g>
<defs>
<clipPath id="clip0_4129_48692">
<rect width="22" height="22" fill="white"/>
</clipPath>
</defs>
</svg>
