<svg width="18" height="19" viewBox="0 0 18 19" fill="none" xmlns="http://www.w3.org/2000/svg">
<g id="Frame">
<path id="Vector" d="M12.0175 7.51205H15.7615V7.5113M2.23903 15.2341V11.4901M2.23903 11.4901H5.98303M2.23828 11.4901L4.62403 13.8773C5.39212 14.6454 6.34888 15.1978 7.39812 15.4788C8.44737 15.7599 9.55213 15.7599 10.6013 15.4786C11.6505 15.1974 12.6072 14.6449 13.3752 13.8767C14.1432 13.1084 14.6954 12.1516 14.9763 11.1023M3.02353 7.8998C3.30445 6.85051 3.85666 5.89367 4.62463 5.12545C5.3926 4.35724 6.34928 3.80474 7.39848 3.5235C8.44769 3.24225 9.55244 3.24217 10.6017 3.52326C11.6509 3.80435 12.6077 4.35671 13.3758 5.1248L15.7615 7.5113M15.7615 3.76805V7.51055" stroke="#0D6EFD" stroke-width="1.5" stroke-linecap="round" stroke-linejoin="round"/>
</g>
</svg>
