<svg width="24" height="24" viewBox="0 0 24 24" fill="none" xmlns="http://www.w3.org/2000/svg">
<g id="search" clip-path="url(#clip0_4010_37045)">
<g id="Group 48096088">
<path id="Vector" d="M5 10.25C5 10.9395 5.1358 11.6222 5.39964 12.2591C5.66348 12.8961 6.05019 13.4749 6.5377 13.9624C7.02521 14.4499 7.60397 14.8366 8.24094 15.1004C8.8779 15.3643 9.5606 15.5001 10.25 15.5001C10.9395 15.5001 11.6222 15.3643 12.2591 15.1004C12.8961 14.8366 13.4749 14.4499 13.9624 13.9624C14.4499 13.4749 14.8366 12.8961 15.1005 12.2591C15.3643 11.6222 15.5001 10.9395 15.5001 10.25C15.5001 9.5606 15.3643 8.8779 15.1005 8.24094C14.8366 7.60397 14.4499 7.02521 13.9624 6.5377C13.4749 6.05019 12.8961 5.66347 12.2591 5.39964C11.6222 5.1358 10.9395 5 10.25 5C9.5606 5 8.8779 5.1358 8.24094 5.39964C7.60397 5.66347 7.02521 6.05019 6.5377 6.5377C6.05019 7.02521 5.66348 7.60397 5.39964 8.24094C5.1358 8.8779 5 9.5606 5 10.25Z" stroke="#707070" stroke-width="1.5" stroke-linecap="round" stroke-linejoin="round"/>
<path id="Vector_2" d="M19.0007 19.0007L14.334 14.334" stroke="#707070" stroke-width="1.5" stroke-linecap="round" stroke-linejoin="round"/>
</g>
</g>
<defs>
<clipPath id="clip0_4010_37045">
<rect width="24" height="24" fill="white"/>
</clipPath>
</defs>
</svg>
