<svg width="14" height="14" viewBox="0 0 14 14" fill="none" xmlns="http://www.w3.org/2000/svg">
<path d="M11.765 5.20919V12.5629C11.765 12.8097 11.569 13 11.331 13H4.331C4.086 13 3.897 12.8026 3.897 12.5629V2.82611C3.897 2.57934 4.093 2.38898 4.331 2.38898H8.965C9.084 2.38898 9.189 2.43833 9.273 2.51589L11.639 4.89896C11.723 4.98357 11.765 5.09638 11.765 5.20919Z" stroke="#939393" stroke-linecap="round" stroke-linejoin="round"/>
<path d="M11.702 5.02589H9.581C9.336 5.02589 9.147 4.82848 9.147 4.58876V2.4736" stroke="#939393" stroke-linecap="round" stroke-linejoin="round"/>
<path d="M8.181 7.9166H10.274" stroke="#939393" stroke-width="0.8" stroke-linecap="round" stroke-linejoin="round"/>
<path d="M8.181 10.1163H10.281" stroke="#939393" stroke-width="0.8" stroke-linecap="round" stroke-linejoin="round"/>
<path d="M5.37399 8.00121L5.78699 8.41719L6.77399 7.42307" stroke="#939393" stroke-width="0.8" stroke-linecap="round" stroke-linejoin="round"/>
<path d="M5.37399 10.2009L5.78699 10.6169L6.77399 9.6228" stroke="#939393" stroke-width="0.8" stroke-linecap="round" stroke-linejoin="round"/>
<path d="M2.94336 7.77513L9.85498 1.26257" stroke="#939393" stroke-width="0.8" stroke-miterlimit="10" stroke-linecap="round"/>
<path d="M2.68608 6.21005L8.21538 1.00001" stroke="#939393" stroke-width="0.8" stroke-miterlimit="10" stroke-linecap="round"/>
</svg>
