<svg width="20" height="20" viewBox="0 0 20 20" fill="none" xmlns="http://www.w3.org/2000/svg">
<g id="Frame" clip-path="url(#clip0_6062_122649)">
<path id="Vector" d="M2.5 10C2.5 10.9849 2.69399 11.9602 3.0709 12.8701C3.44781 13.7801 4.00026 14.6069 4.6967 15.3033C5.39314 15.9997 6.21993 16.5522 7.12987 16.9291C8.03982 17.306 9.01509 17.5 10 17.5C10.9849 17.5 11.9602 17.306 12.8701 16.9291C13.7801 16.5522 14.6069 15.9997 15.3033 15.3033C15.9997 14.6069 16.5522 13.7801 16.9291 12.8701C17.306 11.9602 17.5 10.9849 17.5 10C17.5 9.01509 17.306 8.03982 16.9291 7.12987C16.5522 6.21993 15.9997 5.39314 15.3033 4.6967C14.6069 4.00026 13.7801 3.44781 12.8701 3.0709C11.9602 2.69399 10.9849 2.5 10 2.5C9.01509 2.5 8.03982 2.69399 7.12987 3.0709C6.21993 3.44781 5.39314 4.00026 4.6967 4.6967C4.00026 5.39314 3.44781 6.21993 3.0709 7.12987C2.69399 8.03982 2.5 9.01509 2.5 10Z" stroke="white" stroke-width="1.5" stroke-linecap="round" stroke-linejoin="round"/>
<path id="Vector_2" d="M7.5 8.33337C7.5 8.99642 7.76339 9.6323 8.23223 10.1011C8.70107 10.57 9.33696 10.8334 10 10.8334C10.663 10.8334 11.2989 10.57 11.7678 10.1011C12.2366 9.6323 12.5 8.99642 12.5 8.33337C12.5 7.67033 12.2366 7.03445 11.7678 6.56561C11.2989 6.09677 10.663 5.83337 10 5.83337C9.33696 5.83337 8.70107 6.09677 8.23223 6.56561C7.76339 7.03445 7.5 7.67033 7.5 8.33337Z" stroke="white" stroke-width="1.5" stroke-linecap="round" stroke-linejoin="round"/>
<path id="Vector_3" d="M5.14014 15.7075C5.34639 15.0211 5.76844 14.4194 6.34368 13.9917C6.91891 13.564 7.61668 13.3332 8.33347 13.3334H11.6668C12.3845 13.3331 13.0831 13.5645 13.6588 13.9932C14.2344 14.4219 14.6564 15.0249 14.8618 15.7125" stroke="white" stroke-width="1.5" stroke-linecap="round" stroke-linejoin="round"/>
</g>
<defs>
<clipPath id="clip0_6062_122649">
<rect width="20" height="20" fill="white"/>
</clipPath>
</defs>
</svg>
