<svg width="20" height="20" viewBox="0 0 20 20" fill="none" xmlns="http://www.w3.org/2000/svg">
<path d="M17.4923 12.0649C16.5364 12.4634 15.5108 12.6679 14.4751 12.6665C10.1447 12.6665 6.63447 9.15626 6.63447 4.82583C6.63447 3.75629 6.84838 2.73741 7.23599 1.80859C5.80736 2.40457 4.58704 3.40997 3.72872 4.69817C2.8704 5.98637 2.41247 7.49975 2.4126 9.0477C2.4126 13.3781 5.92279 16.8883 10.2532 16.8883C11.8012 16.8885 13.3146 16.4305 14.6028 15.5722C15.891 14.7139 16.8964 13.4936 17.4923 12.0649Z" fill="url(#paint0_linear_3967_250)"/>
<path d="M17.4923 12.0649C16.5364 12.4634 15.5108 12.6679 14.4751 12.6665C10.1447 12.6665 6.63447 9.15626 6.63447 4.82583C6.63447 3.75629 6.84838 2.73741 7.23599 1.80859C5.80736 2.40457 4.58704 3.40997 3.72872 4.69817C2.8704 5.98637 2.41247 7.49975 2.4126 9.0477C2.4126 13.3781 5.92279 16.8883 10.2532 16.8883C11.8012 16.8885 13.3146 16.4305 14.6028 15.5722C15.891 14.7139 16.8964 13.4936 17.4923 12.0649Z" fill="black" fill-opacity="0.1"/>
<defs>
<linearGradient id="paint0_linear_3967_250" x1="6.12298" y1="4.77607" x2="16.1219" y2="10.9444" gradientUnits="userSpaceOnUse">
<stop stop-color="#B6C0D6"/>
<stop offset="1" stop-color="#6B6A7B" stop-opacity="0.84"/>
</linearGradient>
</defs>
</svg>
