<svg width="20" height="20" viewBox="0 0 20 20" fill="none" xmlns="http://www.w3.org/2000/svg">
<g clip-path="url(#clip0_4029_118735)">
<path d="M10.0002 6.66569V9.99902L11.6669 11.6657M2.95841 12.4991C3.59068 14.23 4.83807 15.6675 6.46258 16.5375C8.08709 17.4074 9.97501 17.6488 11.7661 17.2156C13.5573 16.7824 15.1263 15.705 16.1737 14.1889C17.2212 12.6728 17.6738 10.8241 17.4452 8.99552C17.2167 7.16698 16.3229 5.48658 14.9345 4.27494C13.546 3.0633 11.7601 2.40522 9.91748 2.42627C8.07483 2.44732 6.30442 3.14601 4.94403 4.38905C4.16296 5.10274 3.54844 5.96719 3.13136 6.921M2.54175 16.6657V12.4991H6.70841" stroke="white" stroke-width="1.5" stroke-linecap="round" stroke-linejoin="round"/>
</g>
<defs>
<clipPath id="clip0_4029_118735">
<rect width="20" height="20" fill="white"/>
</clipPath>
</defs>
</svg>
