<svg width="20" height="20" viewBox="0 0 20 20" fill="none" xmlns="http://www.w3.org/2000/svg">
<g id="Frame" clip-path="url(#clip0_6062_122672)">
<path id="Vector" d="M10.0001 2.49995C10.1101 2.49995 10.2193 2.49995 10.3276 2.49995C9.25709 3.49471 8.56897 4.83316 8.38288 6.28264C8.1968 7.73212 8.52453 9.20098 9.30909 10.4339C10.0937 11.6668 11.2855 12.5858 12.6773 13.0312C14.0692 13.4765 15.5731 13.4201 16.9276 12.8716C16.4066 14.1254 15.555 15.2141 14.4636 16.0218C13.3723 16.8295 12.0822 17.3258 10.7309 17.4578C9.37962 17.5897 8.01786 17.3524 6.79088 16.7711C5.56391 16.1898 4.51774 15.2864 3.76397 14.1571C3.0102 13.0279 2.5771 11.7152 2.51088 10.3591C2.44466 9.003 2.7478 7.65437 3.38795 6.45705C4.02811 5.25973 4.98128 4.25864 6.14578 3.56056C7.31028 2.86249 8.64244 2.49361 10.0001 2.49329V2.49995Z" stroke="white" stroke-width="1.5" stroke-linecap="round" stroke-linejoin="round"/>
</g>
<defs>
<clipPath id="clip0_6062_122672">
<rect width="20" height="20" fill="white"/>
</clipPath>
</defs>
</svg>
