<svg width="19" height="19" viewBox="0 0 19 19" fill="none" xmlns="http://www.w3.org/2000/svg">
<g id="Frame" clip-path="url(#clip0_2387_6878)">
<path id="Vector" d="M2.375 9.5C2.375 10.4357 2.55929 11.3622 2.91736 12.2266C3.27542 13.0911 3.80025 13.8765 4.46186 14.5381C5.12348 15.1998 5.90894 15.7246 6.77338 16.0826C7.63783 16.4407 8.56433 16.625 9.5 16.625C10.4357 16.625 11.3622 16.4407 12.2266 16.0826C13.0911 15.7246 13.8765 15.1998 14.5381 14.5381C15.1998 13.8765 15.7246 13.0911 16.0826 12.2266C16.4407 11.3622 16.625 10.4357 16.625 9.5C16.625 8.56433 16.4407 7.63783 16.0826 6.77338C15.7246 5.90894 15.1998 5.12348 14.5381 4.46186C13.8765 3.80025 13.0911 3.27542 12.2266 2.91736C11.3622 2.55929 10.4357 2.375 9.5 2.375C8.56433 2.375 7.63783 2.55929 6.77338 2.91736C5.90894 3.27542 5.12348 3.80025 4.46186 4.46186C3.80025 5.12348 3.27542 5.90894 2.91736 6.77338C2.55929 7.63783 2.375 8.56433 2.375 9.5Z" stroke="#2E365A" stroke-width="1.25" stroke-linecap="round" stroke-linejoin="round"/>
<path id="Vector_2" d="M7.125 7.91602C7.125 8.5459 7.37522 9.15 7.82062 9.59539C8.26602 10.0408 8.87011 10.291 9.5 10.291C10.1299 10.291 10.734 10.0408 11.1794 9.59539C11.6248 9.15 11.875 8.5459 11.875 7.91602C11.875 7.28613 11.6248 6.68204 11.1794 6.23664C10.734 5.79124 10.1299 5.54102 9.5 5.54102C8.87011 5.54102 8.26602 5.79124 7.82062 6.23664C7.37522 6.68204 7.125 7.28613 7.125 7.91602Z" stroke="#2E365A" stroke-width="1.25" stroke-linecap="round" stroke-linejoin="round"/>
<path id="Vector_3" d="M4.88281 14.9215C5.07876 14.2693 5.4797 13.6977 6.02617 13.2914C6.57264 12.8851 7.23552 12.6658 7.91648 12.666H11.0831C11.765 12.6658 12.4287 12.8856 12.9755 13.2928C13.5224 13.7001 13.9232 14.2729 14.1184 14.9262" stroke="#2E365A" stroke-width="1.25" stroke-linecap="round" stroke-linejoin="round"/>
</g>
<defs>
<clipPath id="clip0_2387_6878">
<rect width="19" height="19" fill="white"/>
</clipPath>
</defs>
</svg>
