<svg width="19" height="19" viewBox="0 0 19 19" fill="none" xmlns="http://www.w3.org/2000/svg">
<g id="Frame" clip-path="url(#clip0_2387_10497)">
<path id="Vector" d="M6.33301 9.50065C6.33301 10.3405 6.66664 11.146 7.2605 11.7398C7.85437 12.3337 8.65982 12.6673 9.49967 12.6673C10.3395 12.6673 11.145 12.3337 11.7388 11.7398C12.3327 11.146 12.6663 10.3405 12.6663 9.50065C12.6663 8.6608 12.3327 7.85534 11.7388 7.26148C11.145 6.66761 10.3395 6.33398 9.49967 6.33398C8.65982 6.33398 7.85437 6.66761 7.2605 7.26148C6.66664 7.85534 6.33301 8.6608 6.33301 9.50065Z" stroke="#2E365A" stroke-width="1.25" stroke-linecap="round" stroke-linejoin="round"/>
<path id="Vector_2" d="M2.375 9.5C2.375 10.4357 2.55929 11.3622 2.91736 12.2266C3.27542 13.0911 3.80025 13.8765 4.46186 14.5381C5.12348 15.1998 5.90894 15.7246 6.77338 16.0826C7.63783 16.4407 8.56433 16.625 9.5 16.625C10.4357 16.625 11.3622 16.4407 12.2266 16.0826C13.0911 15.7246 13.8765 15.1998 14.5381 14.5381C15.1998 13.8765 15.7246 13.0911 16.0826 12.2266C16.4407 11.3622 16.625 10.4357 16.625 9.5C16.625 8.56433 16.4407 7.63783 16.0826 6.77338C15.7246 5.90894 15.1998 5.12348 14.5381 4.46186C13.8765 3.80025 13.0911 3.27542 12.2266 2.91736C11.3622 2.55929 10.4357 2.375 9.5 2.375C8.56433 2.375 7.63783 2.55929 6.77338 2.91736C5.90894 3.27542 5.12348 3.80025 4.46186 4.46186C3.80025 5.12348 3.27542 5.90894 2.91736 6.77338C2.55929 7.63783 2.375 8.56433 2.375 9.5Z" stroke="#2E365A" stroke-width="1.25" stroke-linecap="round" stroke-linejoin="round"/>
<path id="Vector_3" d="M11.875 11.875L14.5271 14.5271" stroke="#2E365A" stroke-width="1.25" stroke-linecap="round" stroke-linejoin="round"/>
<path id="Vector_4" d="M7.12474 11.875L4.47266 14.5271" stroke="#2E365A" stroke-width="1.25" stroke-linecap="round" stroke-linejoin="round"/>
<path id="Vector_5" d="M4.47266 4.47266L7.12474 7.12474" stroke="#2E365A" stroke-width="1.25" stroke-linecap="round" stroke-linejoin="round"/>
<path id="Vector_6" d="M14.5271 4.47266L11.875 7.12474" stroke="#2E365A" stroke-width="1.25" stroke-linecap="round" stroke-linejoin="round"/>
</g>
<defs>
<clipPath id="clip0_2387_10497">
<rect width="19" height="19" fill="white"/>
</clipPath>
</defs>
</svg>
