<svg width="17" height="16" viewBox="0 0 17 16" fill="none" xmlns="http://www.w3.org/2000/svg">
<g id="security level - Secure">
<g id="Flat Color">
<path id="Vector" d="M2.22267 6.94659C2.22267 10.5741 4.25073 12.7045 7.43676 14.2783C7.60692 14.3582 7.79259 14.3996 7.98056 14.3996C8.16854 14.3996 8.35421 14.3582 8.52436 14.2783C11.7104 12.7365 13.7385 10.5613 13.7385 6.94659V3.96528C13.74 3.64698 13.6229 3.3395 13.41 3.10291C13.1971 2.86631 12.9036 2.71758 12.5869 2.68575C11.1726 2.56131 9.78436 2.22934 8.46678 1.70051C8.31332 1.63395 8.14783 1.59961 7.98056 1.59961C7.81329 1.59961 7.6478 1.63395 7.49434 1.70051C6.17711 2.23153 4.78885 2.56566 3.37425 2.69215C3.05754 2.72397 2.76406 2.87271 2.55112 3.10931C2.33818 3.3459 2.22108 3.65337 2.22267 3.97168V6.94659Z" fill="#28A745"/>
<path id="Vector_2" d="M6.98637 10.1403C6.81944 10.1413 6.65872 10.077 6.53853 9.96112L5.07987 8.52805C5.0199 8.46857 4.97231 8.39781 4.93983 8.31985C4.90735 8.24189 4.89062 8.15827 4.89062 8.07381C4.89062 7.98936 4.90735 7.90574 4.93983 7.82777C4.97231 7.74981 5.0199 7.67905 5.07987 7.61958C5.19973 7.50042 5.36188 7.43354 5.5309 7.43354C5.69992 7.43354 5.86207 7.50042 5.98194 7.61958L6.99277 8.61122L9.6222 6.05215C9.74352 5.93253 9.90739 5.866 10.0778 5.8672C10.2481 5.8684 10.411 5.93723 10.5307 6.05855C10.6503 6.17987 10.7168 6.34374 10.7156 6.51411C10.7144 6.68448 10.6456 6.8474 10.5243 6.96702L7.447 9.99311C7.31862 10.1005 7.15325 10.1534 6.98637 10.1403Z" fill="white"/>
</g>
</g>
</svg>
