<svg width="14" height="14" viewBox="0 0 14 14" fill="none" xmlns="http://www.w3.org/2000/svg">
<g id="To date cheque" clip-path="url(#clip0_4311_72929)">
<g id="Group 48095939">
<path id="Vector" d="M7.58734 11.8009H2.0481C1.47089 11.8009 1 11.33 1 10.7528V3.94263C1 3.36542 1.47089 2.89453 2.0481 2.89453H10.8025C11.3797 2.89453 11.8506 3.36542 11.8506 3.94263V8.43377" stroke="#939393" stroke-miterlimit="10"/>
<path id="Vector_2" d="M9.35938 1V2.89367" stroke="#939393" stroke-miterlimit="10" stroke-linecap="round"/>
<path id="Vector_3" d="M3.50781 1V2.89367" stroke="#939393" stroke-miterlimit="10" stroke-linecap="round"/>
<path id="Vector_4" d="M1 5.26758H11.8557" stroke="#939393" stroke-miterlimit="10"/>
<path id="Vector_5" fill-rule="evenodd" clip-rule="evenodd" d="M12.5692 10.2768C12.5692 11.7806 11.3489 13.0008 9.84514 13.0008C8.34135 13.0008 7.12616 11.7806 7.12109 10.2768C7.12109 8.77299 8.34135 7.55273 9.84514 7.55273C11.3489 7.55273 12.5692 8.77299 12.5692 10.2768Z" stroke="#939393" stroke-miterlimit="10"/>
<path id="Vector_6" d="M8.35547 10.1805L9.31749 11.102C9.40357 11.183 9.54028 11.183 9.62129 11.102L11.3327 9.39062" stroke="#939393" stroke-miterlimit="10" stroke-linecap="round"/>
</g>
</g>
<defs>
<clipPath id="clip0_4311_72929">
<rect width="14" height="14" fill="white"/>
</clipPath>
</defs>
</svg>
