<svg width="14" height="14" viewBox="0 0 14 14" fill="none" xmlns="http://www.w3.org/2000/svg">
<g id="Payable">
<g id="Group 48095943">
<path id="path1017" d="M10.9244 4.82391V12.1697C10.9244 12.4129 10.7273 12.61 10.4841 12.61H3.4403C3.19712 12.61 3 12.4129 3 12.1697V2.4403C3 2.19712 3.19712 2 3.4403 2H8.1007C8.21742 2 8.32935 2.04639 8.4119 2.12894L10.7955 4.51254C10.878 4.59509 10.9244 4.70702 10.9244 4.82391Z" stroke="#939393" stroke-linecap="round" stroke-linejoin="round"/>
<path id="path1021" d="M10.8567 4.64138H8.72155C8.47837 4.64138 8.28125 4.44426 8.28125 4.20107V2.08789" stroke="#939393" stroke-linecap="round" stroke-linejoin="round"/>
<path id="path1025" d="M7.31641 6.38086H9.42018" stroke="#939393" stroke-width="0.8" stroke-linecap="round" stroke-linejoin="round"/>
<path id="path1029" d="M7.31641 8.58203H9.42018" stroke="#939393" stroke-width="0.8" stroke-linecap="round" stroke-linejoin="round"/>
<path id="path1033" d="M7.31641 10.7832H9.42959" stroke="#939393" stroke-width="0.8" stroke-linecap="round" stroke-linejoin="round"/>
<path id="path1037" d="M4.49609 6.2968L4.90916 6.70986L5.904 5.71484" stroke="#939393" stroke-width="0.8" stroke-linecap="round" stroke-linejoin="round"/>
<path id="path1041" d="M4.49609 8.66577L4.90916 9.07883L5.904 8.08398" stroke="#939393" stroke-width="0.8" stroke-linecap="round" stroke-linejoin="round"/>
<path id="path1045" d="M4.49609 10.8669L4.90916 11.28L5.904 10.2852" stroke="#939393" stroke-width="0.8" stroke-linecap="round" stroke-linejoin="round"/>
</g>
</g>
</svg>
