<svg width="17" height="16" viewBox="0 0 17 16" fill="none" xmlns="http://www.w3.org/2000/svg">
<path d="M6.91279 1.22619C7.55472 0.557461 8.62496 0.55746 9.26689 1.22619C9.66622 1.64219 10.2559 1.81638 10.8171 1.68391C11.7147 1.47202 12.6121 2.0614 12.7925 2.96588C12.9056 3.53279 13.3091 4.00716 13.8531 4.20261C14.7243 4.51559 15.1625 5.49559 14.8288 6.35898C14.6197 6.89979 14.7061 7.51847 15.0584 7.979C15.6231 8.71723 15.4736 9.7788 14.7237 10.328C14.2565 10.6701 14.0024 11.24 14.0521 11.817C14.1312 12.7365 13.4364 13.5557 12.5149 13.608C11.9386 13.6407 11.4198 13.9789 11.1531 14.4908C10.7263 15.31 9.69962 15.6184 8.89774 15.1597C8.39718 14.8735 7.7825 14.8735 7.28195 15.1597C6.48006 15.6184 5.45337 15.31 5.02658 14.4908C4.75991 13.9789 4.24107 13.6407 3.66482 13.608C2.7433 13.5557 2.04846 12.7365 2.12761 11.817C2.17726 11.24 1.92315 10.6701 1.45598 10.328C0.706134 9.7788 0.556607 8.71723 1.1213 7.979C1.47357 7.51847 1.55998 6.89979 1.35091 6.35898C1.01715 5.49559 1.45543 4.51559 2.32657 4.20261C2.87061 4.00716 3.27409 3.53279 3.38718 2.96588C3.5676 2.0614 4.46498 1.47202 5.3626 1.68391C5.92382 1.81638 6.51347 1.64219 6.91279 1.22619Z" fill="url(#paint0_linear_4373_73127)"/>
<path d="M6.91279 1.22619C7.55472 0.557461 8.62496 0.55746 9.26689 1.22619C9.66622 1.64219 10.2559 1.81638 10.8171 1.68391C11.7147 1.47202 12.6121 2.0614 12.7925 2.96588C12.9056 3.53279 13.3091 4.00716 13.8531 4.20261C14.7243 4.51559 15.1625 5.49559 14.8288 6.35898C14.6197 6.89979 14.7061 7.51847 15.0584 7.979C15.6231 8.71723 15.4736 9.7788 14.7237 10.328C14.2565 10.6701 14.0024 11.24 14.0521 11.817C14.1312 12.7365 13.4364 13.5557 12.5149 13.608C11.9386 13.6407 11.4198 13.9789 11.1531 14.4908C10.7263 15.31 9.69962 15.6184 8.89774 15.1597C8.39718 14.8735 7.7825 14.8735 7.28195 15.1597C6.48006 15.6184 5.45337 15.31 5.02658 14.4908C4.75991 13.9789 4.24107 13.6407 3.66482 13.608C2.7433 13.5557 2.04846 12.7365 2.12761 11.817C2.17726 11.24 1.92315 10.6701 1.45598 10.328C0.706134 9.7788 0.556607 8.71723 1.1213 7.979C1.47357 7.51847 1.55998 6.89979 1.35091 6.35898C1.01715 5.49559 1.45543 4.51559 2.32657 4.20261C2.87061 4.00716 3.27409 3.53279 3.38718 2.96588C3.5676 2.0614 4.46498 1.47202 5.3626 1.68391C5.92382 1.81638 6.51347 1.64219 6.91279 1.22619Z" fill="url(#paint1_linear_4373_73127)" fill-opacity="0.1"/>
<path d="M2.54297 8.10915C2.54297 5.04582 5.02629 2.5625 8.08962 2.5625C11.153 2.5625 13.6363 5.04582 13.6363 8.10915V8.22324C13.6363 11.2866 11.153 13.7699 8.08962 13.7699C5.02629 13.7699 2.54297 11.2866 2.54297 8.22323V8.10915Z" fill="black" fill-opacity="0.04"/>
<path d="M3.72853 8.10915C3.72853 5.70058 5.68105 3.74806 8.08962 3.74806C10.4982 3.74806 12.4507 5.70059 12.4507 8.10915V8.22324C12.4507 10.6318 10.4982 12.5843 8.08962 12.5843C5.68106 12.5843 3.72853 10.6318 3.72853 8.22323V8.10915Z" stroke="white" stroke-opacity="0.3" stroke-width="2.37111"/>
<path d="M13.712 8.21537C13.712 11.3201 11.1951 13.837 8.09037 13.837C4.98564 13.837 2.46875 11.3201 2.46875 8.21537C2.46875 5.11064 4.98564 2.59375 8.09037 2.59375C11.1951 2.59375 13.712 5.11064 13.712 8.21537ZM3.62611 8.21537C3.62611 10.6809 5.62483 12.6796 8.09037 12.6796C10.5559 12.6796 12.5546 10.6809 12.5546 8.21537C12.5546 5.74983 10.5559 3.75111 8.09037 3.75111C5.62483 3.75111 3.62611 5.74983 3.62611 8.21537Z" fill="url(#paint2_linear_4373_73127)" fill-opacity="0.5"/>
<path fill-rule="evenodd" clip-rule="evenodd" d="M6.87532 6.86898C6.87532 6.60277 6.98107 6.34746 7.16931 6.15922C7.35755 5.97099 7.61285 5.86523 7.87906 5.86523C8.14527 5.86523 8.40058 5.97099 8.58882 6.15922C8.77705 6.34746 8.88281 6.60277 8.88281 6.86898C8.88281 7.13519 8.77705 7.39049 8.58882 7.57873C8.40058 7.76697 8.14527 7.87272 7.87906 7.87272C7.61285 7.87272 7.35755 7.76697 7.16931 7.57873C6.98107 7.39049 6.87532 7.13519 6.87532 6.86898ZM6.03909 10.0152C6.04661 9.53213 6.24377 9.07143 6.58802 8.7325C6.93226 8.39358 7.39597 8.20361 7.87906 8.20361C8.36215 8.20361 8.82587 8.39358 9.17011 8.7325C9.51435 9.07143 9.71151 9.53213 9.71904 10.0152C9.71962 10.0477 9.7107 10.0797 9.69339 10.1072C9.67608 10.1347 9.65112 10.1566 9.62156 10.1702C9.07489 10.4208 8.48045 10.5502 7.87906 10.5494C7.25763 10.5494 6.66721 10.4138 6.13656 10.1702C6.10701 10.1566 6.08204 10.1347 6.06473 10.1072C6.04742 10.0797 6.03851 10.0477 6.03909 10.0152Z" fill="#FFE69B"/>
<defs>
<linearGradient id="paint0_linear_4373_73127" x1="2.89921" y1="1.49833" x2="11.6751" y2="15.3311" gradientUnits="userSpaceOnUse">
<stop stop-color="#FFE092"/>
<stop offset="1" stop-color="#E3A302"/>
</linearGradient>
<linearGradient id="paint1_linear_4373_73127" x1="-2.65791" y1="-1.25" x2="9.49625" y2="20.4441" gradientUnits="userSpaceOnUse">
<stop stop-color="white"/>
<stop offset="1" stop-color="white" stop-opacity="0"/>
</linearGradient>
<linearGradient id="paint2_linear_4373_73127" x1="8.09037" y1="2.59375" x2="8.09037" y2="13.837" gradientUnits="userSpaceOnUse">
<stop stop-color="white"/>
<stop offset="0.0001" stop-color="white" stop-opacity="0.81"/>
<stop offset="1" stop-color="white" stop-opacity="0"/>
</linearGradient>
</defs>
</svg>
