<svg width="18" height="18" viewBox="0 0 18 18" fill="none" xmlns="http://www.w3.org/2000/svg">
<g id="Frame 48096199">
<rect width="18" height="18" rx="9" fill="#313131"/>
<g id="Group 48095946">
<path id="Vector" d="M10.513 3.61142C10.662 2.99671 11.5363 2.99671 11.6852 3.61142C11.7637 3.93532 12.09 4.13439 12.4139 4.0559C12.4744 4.04124 12.5326 4.01713 12.586 3.9845C13.126 3.6554 13.7445 4.27341 13.4154 4.81388C13.2418 5.09854 13.3321 5.46972 13.6168 5.64326C13.6698 5.67541 13.7275 5.69953 13.788 5.71419C14.4027 5.86313 14.4027 6.73744 13.788 6.88638C13.4641 6.96488 13.265 7.29114 13.3435 7.61505C13.3582 7.67557 13.3823 7.73373 13.4149 7.78716C13.744 8.32716 13.126 8.94565 12.5855 8.61654C12.3009 8.44301 11.9297 8.53332 11.7561 8.81798C11.724 8.87094 11.6999 8.92862 11.6852 8.98915C11.5363 9.60386 10.662 9.60386 10.513 8.98915C10.4345 8.66525 10.1083 8.46618 9.78435 8.54467C9.72383 8.55933 9.66567 8.58344 9.61223 8.61607C9.07224 8.94517 8.45375 8.32716 8.78285 7.78669C8.95639 7.50203 8.86608 7.13085 8.58142 6.95731C8.52846 6.92516 8.47077 6.90104 8.41025 6.88638C7.79554 6.73744 7.79554 5.86313 8.41025 5.71419C8.73415 5.63569 8.93322 5.30943 8.85473 4.98552C8.84007 4.925 8.81595 4.86684 8.78333 4.81341C8.45422 4.27341 9.07224 3.65492 9.61271 3.98403C9.96262 4.19681 10.4161 4.00861 10.513 3.61142Z" stroke="#939393" stroke-width="0.8" stroke-linecap="round" stroke-linejoin="round"/>
<path id="Vector_2" d="M10.0508 6.29996C10.0508 6.87981 10.5209 7.34993 11.1007 7.34993C11.6806 7.34993 12.1507 6.87981 12.1507 6.29996C12.1507 5.72012 11.6806 5.25 11.1007 5.25C10.5209 5.25 10.0508 5.72012 10.0508 6.29996Z" stroke="#939393" stroke-width="0.8" stroke-linecap="round" stroke-linejoin="round"/>
<path id="path3585" d="M9.53516 11.9772L11.8187 11.7246" stroke="#939393" stroke-width="0.8" stroke-linecap="round" stroke-linejoin="round"/>
<path id="path3589" d="M9.53516 11.9772L11.8187 11.7246" stroke="#939393" stroke-width="0.8" stroke-linecap="round" stroke-linejoin="round"/>
<path id="path3593" d="M4.83302 12.4476L5.77305 13.9188C5.88784 14.0986 5.83522 14.3372 5.65567 14.452L5.18669 14.7515C5.00689 14.8663 4.76827 14.8136 4.65347 14.6341L2.76 11.6711C2.6452 11.4913 2.69783 11.2527 2.87737 11.1379L3.34635 10.8381C3.52616 10.7233 3.76478 10.776 3.87957 10.9555L4.31115 11.6309" stroke="#939393" stroke-width="0.8" stroke-linecap="round" stroke-linejoin="round"/>
<path id="path3597" d="M5.6909 13.7855L6.15937 13.3307C6.31337 13.1814 6.53471 13.1244 6.7416 13.1806L8.44211 13.6439C8.62991 13.7082 8.82881 13.7265 9.02409 13.6976L12.3457 13.2049C12.5526 13.1742 12.7491 13.0911 12.9186 12.9631L15.1508 11.275C15.3278 11.0937 15.3492 10.8011 15.2003 10.5919C15.0375 10.3631 14.7303 10.3146 14.5131 10.4838L13.0615 11.3323C12.6792 11.5557 12.2554 11.6893 11.8189 11.7244L11.8238 11.4063C11.7704 11.025 11.4768 10.7302 11.1128 10.6925L9.44225 10.5656C9.05633 10.5256 8.85873 10.399 8.51538 10.2078C8.18028 10.0213 7.56296 9.80408 7.23019 9.7205C6.64589 9.57372 6.02651 9.6831 5.51471 10.0009L3.91016 10.998" stroke="#939393" stroke-width="0.8" stroke-linecap="round" stroke-linejoin="round"/>
</g>
</g>
</svg>
