<svg width="14" height="14" viewBox="0 0 14 14" fill="none" xmlns="http://www.w3.org/2000/svg">
<g id="Named Payee">
<g id="Group 48095948">
<path id="Vector" d="M2.8125 11.4586C4.61412 10.3775 5.5152 9.29645 5.5152 8.21537C5.5152 6.59375 4.97466 6.59375 4.43412 6.59375C3.89358 6.59375 3.33574 7.18024 3.35304 8.21537C3.37142 9.3224 4.24926 9.77051 4.70439 10.3775C5.5152 11.4586 6.05574 11.7289 6.59628 10.9181C6.95682 10.3775 7.22709 9.92726 7.40709 9.56672C7.94763 10.8278 8.66817 11.4586 9.56925 11.4586H10.9206" stroke="#939393" stroke-linecap="round" stroke-linejoin="round"/>
<path id="Vector_2" d="M11.9981 10.3781V3.89163C11.9981 3.28568 11.523 2.81055 10.917 2.81055C10.3111 2.81055 9.83594 3.28568 9.83594 3.89163V10.3781L10.917 11.4592L11.9981 10.3781Z" stroke="#939393" stroke-linecap="round" stroke-linejoin="round"/>
<path id="Vector_3" d="M9.83594 4.97266H11.9981" stroke="#939393" stroke-linecap="round" stroke-linejoin="round"/>
<path id="Vector_4" d="M3.8244 2.6237C3.8244 2.78912 3.76033 2.94776 3.64627 3.06472C3.53221 3.18169 3.37752 3.2474 3.21622 3.2474C3.05491 3.2474 2.90022 3.18169 2.78616 3.06472C2.6721 2.94776 2.60803 2.78912 2.60803 2.6237C2.60803 2.45828 2.6721 2.29964 2.78616 2.18268C2.90022 2.06571 3.05491 2 3.21622 2C3.37752 2 3.53221 2.06571 3.64627 2.18268C3.76033 2.29964 3.8244 2.45828 3.8244 2.6237V2.6237ZM2 4.9718C2.00521 4.64455 2.13564 4.3325 2.36316 4.10296C2.59068 3.87342 2.89705 3.74477 3.21622 3.74477C3.53538 3.74477 3.84176 3.87342 4.06927 4.10296C4.29679 4.3325 4.42722 4.64455 4.43243 4.9718C4.05088 5.15123 3.63597 5.24382 3.21622 5.24324C2.78221 5.24324 2.37027 5.14611 2 4.9718Z" stroke="#939393" stroke-width="0.8" stroke-linecap="round" stroke-linejoin="round"/>
</g>
</g>
</svg>
