<svg width="14" height="14" viewBox="0 0 14 14" fill="none" xmlns="http://www.w3.org/2000/svg">
<g id="Frame">
<path id="Vector" d="M9.34827 5.45382H12.2603V5.45324M1.74277 11.4598V8.54782M1.74277 8.54782H4.65477M1.74219 8.54782L3.59777 10.4046C4.19517 11.002 4.93932 11.4316 5.7554 11.6502C6.57148 11.8688 7.43073 11.8688 8.24678 11.65C9.06283 11.4313 9.80691 11.0016 10.4042 10.4041C11.0015 9.80657 11.431 9.06235 11.6495 8.24624M2.35294 5.7554C2.57143 4.93929 3.00092 4.19507 3.59824 3.59758C4.19555 3.00008 4.93963 2.57036 5.75568 2.35161C6.57173 2.13286 7.43098 2.1328 8.24706 2.35142C9.06314 2.57005 9.80729 2.99966 10.4047 3.59707L12.2603 5.45324M12.2603 2.54182V5.45265" stroke="#707070" stroke-width="1.25" stroke-linecap="round" stroke-linejoin="round"/>
</g>
</svg>
