<svg width="12" height="12" viewBox="0 0 12 12" fill="none" xmlns="http://www.w3.org/2000/svg">
<g id="fast-forward_724927 1">
<g id="Group">
<g id="Group_2">
<path id="Vector" d="M11.8969 5.73219L8.2971 1.7324C8.2203 1.64761 8.11311 1.59961 7.99952 1.59961H5.59965C5.44206 1.59961 5.29886 1.6924 5.23407 1.8364C5.17007 1.98119 5.19647 2.14998 5.30206 2.26677L8.66108 5.99937L5.30206 9.73117C5.19647 9.84876 5.16927 10.0176 5.23407 10.1615C5.29886 10.3063 5.44206 10.3991 5.59965 10.3991H7.99952C8.11311 10.3991 8.2203 10.3503 8.2971 10.2671L11.8969 6.26736C12.0337 6.11537 12.0337 5.88338 11.8969 5.73219Z" fill="#28A745"/>
</g>
</g>
<g id="Group_3">
<g id="Group_4">
<path id="Vector_2" d="M6.69769 5.73219L3.09788 1.7324C3.02109 1.64761 2.91389 1.59961 2.8003 1.59961H0.400428C0.242837 1.59961 0.0996444 1.6924 0.0348479 1.8364C-0.0291486 1.98119 -0.00275003 2.14998 0.102844 2.26677L3.46186 5.99937L0.102844 9.73117C-0.00275003 9.84876 -0.0299486 10.0176 0.0348479 10.1615C0.0996444 10.3063 0.242837 10.3991 0.400428 10.3991H2.8003C2.91389 10.3991 3.02109 10.3503 3.09788 10.2671L6.69769 6.26736C6.83448 6.11537 6.83448 5.88338 6.69769 5.73219Z" fill="#28A745"/>
</g>
</g>
</g>
</svg>
