<svg width="22" height="20" viewBox="0 0 22 20" fill="none" xmlns="http://www.w3.org/2000/svg">
<path id="Vector" d="M15.7051 7.1074H21V7.10631M1.87606 18.3375V12.8926M1.87606 12.8926H7.17094M1.875 12.8926L5.249 16.3644C6.33525 17.4814 7.68833 18.2847 9.17221 18.6935C10.6561 19.1023 12.2185 19.1022 13.7023 18.6932C15.1861 18.2841 16.5391 17.4806 17.6251 16.3634C18.7112 15.2462 19.4922 13.8547 19.8895 12.3287M2.98553 7.67131C3.38281 6.14532 4.16376 4.75378 5.24985 3.63658C6.33594 2.51937 7.6889 1.71587 9.17272 1.30685C10.6565 0.897834 12.2189 0.897714 13.7028 1.3065C15.1867 1.7153 16.5397 2.51859 17.626 3.63563L21 7.10631M21 1.66251V7.10522" stroke="#0D6EFD" stroke-width="2" stroke-linecap="round" stroke-linejoin="round"/>
</svg>
