<svg width="250" height="200" viewBox="0 0 250 200" fill="none" xmlns="http://www.w3.org/2000/svg">
<rect width="250" height="200" fill="white"/>
<path fill-rule="evenodd" clip-rule="evenodd" d="M207 65C210.866 65 214 68.134 214 72C214 75.866 210.866 79 207 79H167C170.866 79 174 82.134 174 86C174 89.866 170.866 93 167 93H189C192.866 93 196 96.134 196 100C196 103.866 192.866 107 189 107H178.826C173.952 107 170 110.134 170 114C170 116.577 172 118.911 176 121C179.866 121 183 124.134 183 128C183 131.866 179.866 135 176 135H93C89.134 135 86 131.866 86 128C86 124.134 89.134 121 93 121H54C50.134 121 47 117.866 47 114C47 110.134 50.134 107 54 107H94C97.866 107 101 103.866 101 100C101 96.134 97.866 93 94 93H69C65.134 93 62 89.866 62 86C62 82.134 65.134 79 69 79H109C105.134 79 102 75.866 102 72C102 68.134 105.134 65 109 65H207ZM207 93C210.866 93 214 96.134 214 100C214 103.866 210.866 107 207 107C203.134 107 200 103.866 200 100C200 96.134 203.134 93 207 93Z" fill="#F3F7FF"/>
<path fill-rule="evenodd" clip-rule="evenodd" d="M153.671 63.9992L162.973 131.842L163.808 138.648C164.078 140.841 162.518 142.837 160.326 143.106L101.766 150.296C99.5729 150.565 97.5771 149.006 97.3079 146.813L88.2921 73.3859C88.1575 72.2896 88.9371 71.2917 90.0335 71.1571C90.0404 71.1562 90.0473 71.1554 90.0543 71.1547L107.499 67.9991" fill="white"/>
<path d="M154.909 63.8294C154.816 63.1454 154.185 62.667 153.501 62.7608C152.817 62.8545 152.339 63.485 152.432 64.169L154.909 63.8294ZM162.973 131.842L164.213 131.69C164.213 131.684 164.212 131.678 164.211 131.672L162.973 131.842ZM163.808 138.648L165.049 138.496L163.808 138.648ZM160.326 143.106L160.478 144.347L160.326 143.106ZM101.766 150.296L101.918 151.537L101.766 150.296ZM97.3079 146.813L98.5486 146.661L97.3079 146.813ZM88.2921 73.3859L87.0514 73.5383L88.2921 73.3859ZM90.0543 71.1547L90.1936 72.3969C90.2215 72.3937 90.2492 72.3897 90.2768 72.3847L90.0543 71.1547ZM107.722 69.2291C108.401 69.1062 108.852 68.4559 108.729 67.7765C108.606 67.0972 107.956 66.6461 107.277 66.769L107.722 69.2291ZM152.432 64.169L161.734 132.012L164.211 131.672L154.909 63.8294L152.432 64.169ZM161.732 131.994L162.568 138.801L165.049 138.496L164.213 131.69L161.732 131.994ZM162.568 138.801C162.753 140.308 161.681 141.68 160.173 141.865L160.478 144.347C163.356 143.993 165.403 141.374 165.049 138.496L162.568 138.801ZM160.173 141.865L101.613 149.055L101.918 151.537L160.478 144.347L160.173 141.865ZM101.613 149.055C100.106 149.241 98.7337 148.169 98.5486 146.661L96.0672 146.966C96.4206 149.844 99.04 151.89 101.918 151.537L101.613 149.055ZM98.5486 146.661L89.5328 73.2336L87.0514 73.5383L96.0672 146.966L98.5486 146.661ZM89.5328 73.2336C89.4823 72.8225 89.7747 72.4483 90.1858 72.3978L89.8811 69.9164C88.0996 70.1352 86.8327 71.7567 87.0514 73.5383L89.5328 73.2336ZM90.1858 72.3978C90.1884 72.3975 90.191 72.3972 90.1936 72.3969L89.9149 69.9124C89.9037 69.9137 89.8924 69.915 89.8811 69.9164L90.1858 72.3978ZM90.2768 72.3847L107.722 69.2291L107.277 66.769L89.8318 69.9246L90.2768 72.3847Z" fill="#0D6EFD"/>
<path fill-rule="evenodd" clip-rule="evenodd" d="M151.141 68.2686L159.56 129.752L160.318 135.921C160.562 137.908 159.168 139.714 157.204 139.955L104.762 146.394C102.798 146.635 101.009 145.22 100.765 143.233L92.6148 76.8562C92.4802 75.7599 93.2598 74.762 94.3562 74.6274L100.844 73.8308" fill="#F3F7FF"/>
<path d="M107.922 54C107.922 52.4812 109.153 51.25 110.672 51.25H156.229C156.958 51.25 157.657 51.5395 158.173 52.0549L171.616 65.4898C172.132 66.0056 172.422 66.7053 172.422 67.4349V130C172.422 131.519 171.191 132.75 169.672 132.75H110.672C109.153 132.75 107.922 131.519 107.922 130V54Z" fill="white" stroke="#0D6EFD" stroke-width="2.5"/>
<path d="M156.672 52.4023V63.9995C156.672 65.6564 158.015 66.9995 159.672 66.9995H171.605" stroke="#0D6EFD" stroke-width="2.5" stroke-linecap="round" stroke-linejoin="round"/>
<path d="M118 118H144M118 67H144H118ZM118 79H161H118ZM118 92H161H118ZM118 105H161H118Z" stroke="#0D6EFD" stroke-width="2.5" stroke-linecap="round" stroke-linejoin="round"/>
</svg>
