<svg width="14" height="14" viewBox="0 0 14 14" fill="none" xmlns="http://www.w3.org/2000/svg">
<g id="Users">
<g id="Group 48095941">
<path id="path1272" d="M6.88716 3.91211C5.60066 3.91211 4.55859 4.95517 4.55859 6.24001C4.55859 7.52486 5.60066 8.56925 6.88716 8.56925C8.17367 8.56925 9.21573 7.52619 9.21573 6.24001C9.21573 4.95384 8.17367 3.91211 6.88716 3.91211Z" stroke="#939393" stroke-linecap="round" stroke-linejoin="round"/>
<path id="path1276" d="M9.17751 6.65581H9.21415C10.5007 6.65581 11.5427 5.61375 11.5427 4.3279C11.5427 3.04206 10.5007 2 9.21415 2C8.06984 2 7.11836 2.82559 6.92188 3.91394" stroke="#939393" stroke-linecap="round" stroke-linejoin="round"/>
<path id="path1280" d="M6.85131 3.91394C6.65615 2.82559 5.70334 2 4.55904 2C3.27253 2 2.23047 3.04206 2.23047 4.3279C2.23047 5.61375 3.27253 6.65581 4.55904 6.65581H4.59567" stroke="#939393" stroke-linecap="round" stroke-linejoin="round"/>
<path id="path1284" d="M5.42657 8.05469C4.19168 8.61452 3.32812 9.85906 3.32812 11.2974V11.9995H10.4451V11.2974C10.4451 9.85906 9.5815 8.61452 8.34661 8.05469" stroke="#939393" stroke-linecap="round" stroke-linejoin="round"/>
<path id="path1288" d="M10.2344 10.0854H12.7771V9.38337C12.7771 7.94633 11.9122 6.70045 10.6776 6.14062" stroke="#939393" stroke-linecap="round" stroke-linejoin="round"/>
<path id="path1292" d="M3.09811 6.14062C1.86322 6.70045 1 7.94633 1 9.38337V10.0854H3.54138" stroke="#939393" stroke-linecap="round" stroke-linejoin="round"/>
</g>
</g>
</svg>
