<svg width="60" height="60" viewBox="0 0 60 60" fill="none" xmlns="http://www.w3.org/2000/svg">
<rect width="60" height="60" rx="30" fill="#F3F3F3"/>
<g clip-path="url(#clip0_41_1537)">
<path d="M41.945 13.9248H19.195C15.835 13.9248 13 16.7598 13 20.1548V38.8448C13 42.2398 15.835 45.0748 19.23 45.0748H41.805C45.165 45.0748 48.035 42.2398 48.035 38.8448V20.1548C48.175 16.7598 45.34 13.9248 41.945 13.9248ZM44.43 39.0198C44.43 40.4548 43.38 41.6798 41.945 41.6798H19.195C17.76 41.6798 16.535 40.4198 16.535 39.0198V20.1548C16.535 18.7198 17.795 17.4948 19.195 17.4948H41.77C43.205 17.4948 44.43 18.7548 44.43 20.1548V39.0198Z" fill="#CFCFCF"/>
<path d="M38.7596 19.9795C38.0596 19.9795 37.3246 20.3295 36.7996 20.8545C36.2746 21.3795 36.0996 21.9395 36.0996 22.6395C36.0996 24.0745 37.3596 25.2995 38.7596 25.2995C40.1596 25.2995 41.4196 24.0395 41.4196 22.6395C41.4196 21.2395 40.1596 19.9795 38.7596 19.9795Z" fill="#CFCFCF"/>
<path d="M36.6253 27.2597C36.1003 25.9997 34.3153 25.8247 33.4403 26.9097L31.1303 30.3047C30.4303 31.3897 28.8203 31.3897 28.1203 30.3047L27.4203 29.4297C26.7203 28.3447 25.1103 28.5547 24.4103 29.6047L20.4553 35.8347C19.7553 37.0947 20.4553 38.6697 22.0653 38.6697H38.7603C40.0203 38.6697 40.8953 37.2347 40.3703 36.0097L36.6253 27.2597Z" fill="#CFCFCF"/>
</g>
<defs>
<clipPath id="clip0_41_1537">
<rect width="35" height="35" fill="white" transform="translate(13 12)"/>
</clipPath>
</defs>
</svg>
