<svg width="16" height="16" viewBox="0 0 16 16" fill="none" xmlns="http://www.w3.org/2000/svg">
<g id="Frame" clip-path="url(#clip0_3369_37898)">
<path id="Vector" d="M2.66797 4.66602H13.3346" stroke="white" stroke-linecap="round" stroke-linejoin="round"/>
<path id="Vector_2" d="M6.66797 7.33398V11.334" stroke="white" stroke-linecap="round" stroke-linejoin="round"/>
<path id="Vector_3" d="M9.33203 7.33398V11.334" stroke="white" stroke-linecap="round" stroke-linejoin="round"/>
<path id="Vector_4" d="M3.33203 4.66602L3.9987 12.666C3.9987 13.0196 4.13917 13.3588 4.38922 13.6088C4.63927 13.8589 4.97841 13.9993 5.33203 13.9993H10.6654C11.019 13.9993 11.3581 13.8589 11.6082 13.6088C11.8582 13.3588 11.9987 13.0196 11.9987 12.666L12.6654 4.66602" stroke="white" stroke-linecap="round" stroke-linejoin="round"/>
<path id="Vector_5" d="M6 4.66667V2.66667C6 2.48986 6.07024 2.32029 6.19526 2.19526C6.32029 2.07024 6.48986 2 6.66667 2H9.33333C9.51014 2 9.67971 2.07024 9.80474 2.19526C9.92976 2.32029 10 2.48986 10 2.66667V4.66667" stroke="white" stroke-linecap="round" stroke-linejoin="round"/>
</g>
<defs>
<clipPath id="clip0_3369_37898">
<rect width="16" height="16" fill="white"/>
</clipPath>
</defs>
</svg>
