<svg width="18" height="18" viewBox="0 0 18 18" fill="none" xmlns="http://www.w3.org/2000/svg">
<rect width="18" height="18" fill="white"/>
<path d="M8.88861 14.4304H3.16977C2.49974 14.4304 1.95312 13.8838 1.95312 13.2137V5.30845C1.95312 4.63841 2.49974 4.0918 3.16977 4.0918H13.332C14.0021 4.0918 14.5487 4.63841 14.5487 5.30845V10.0722" stroke="black" stroke-miterlimit="10" stroke-linecap="round"/>
<path d="M11.6562 1.89453V4.09273" stroke="black" stroke-miterlimit="10" stroke-linecap="round"/>
<path d="M4.85938 1.89453V4.09273" stroke="black" stroke-miterlimit="10" stroke-linecap="round"/>
<path d="M1.95312 6.84961H14.5546" stroke="black" stroke-miterlimit="10"/>
<path d="M13.0486 16.212C13.321 16.1664 13.5048 15.9086 13.4592 15.6363C13.4135 15.3639 13.1558 15.1801 12.8834 15.2257L13.0486 16.212ZM12.8834 15.2257C11.8787 15.394 10.9279 14.7159 10.7596 13.7112L9.77336 13.8764C10.0329 15.4258 11.4992 16.4715 13.0486 16.212L12.8834 15.2257ZM10.7596 13.7112C10.5914 12.7066 11.2694 11.7557 12.2741 11.5874L12.1089 10.6012C10.5595 10.8607 9.51387 12.327 9.77336 13.8764L10.7596 13.7112ZM12.2741 11.5874C13.2788 11.4192 14.2296 12.0972 14.3979 13.1019L15.3842 12.9367C15.1247 11.3874 13.6583 10.3417 12.1089 10.6012L12.2741 11.5874ZM14.3979 13.1019C14.3992 13.1095 14.4091 13.1686 14.4188 13.2259C14.4236 13.2548 14.4285 13.2836 14.4322 13.3061C14.4366 13.3323 14.4382 13.342 14.4378 13.3398L15.4271 13.1934C15.4239 13.1721 15.3855 12.9447 15.3842 12.9367L14.3979 13.1019Z" fill="black"/>
<path d="M13.1565 13.0994L14.9358 13.2659L16.0508 11.5879" stroke="black" stroke-miterlimit="10" stroke-linecap="round" stroke-linejoin="round"/>
</svg>
