<svg width="56" height="48" viewBox="0 0 56 48" fill="none" xmlns="http://www.w3.org/2000/svg">
<g id="Upload icon">
<path id="Vector" d="M29.3549 11.7619C29.043 11.6688 28.8653 11.3408 28.9583 11.0289C30.0421 7.38692 33.4175 4.71289 37.4338 4.71289C37.7592 4.71289 38.0232 4.97688 38.0232 5.30234C38.0232 5.6278 37.7592 5.8918 37.4338 5.8918C34.0676 5.8918 31.0471 8.14223 30.088 11.3648C29.9958 11.6763 29.6682 11.8553 29.355 11.7618L29.3549 11.7619Z" fill="#0D6EFD"/>
<path id="Vector_2" d="M45.6846 34.1863H42.148C41.8225 34.1863 41.5585 33.9223 41.5585 33.5968C41.5585 33.2714 41.8225 33.0074 42.148 33.0074H45.6846C50.5597 33.0074 54.5263 29.0408 54.5263 24.1657C54.5263 19.2906 50.5597 15.324 45.6846 15.324H45.5996C45.4286 15.324 45.2661 15.2499 45.1541 15.1207C45.0421 14.9914 44.9916 14.82 45.016 14.6508C45.0686 14.2836 45.0952 13.9148 45.0952 13.5557C45.0952 9.33064 41.6574 5.89285 37.4323 5.89285C35.7886 5.89285 34.2211 6.40651 32.899 7.37866C32.6085 7.59213 32.1959 7.4974 32.0279 7.17783C28.2837 0.0480908 18.5042 -0.909361 13.434 5.29289C11.2981 7.90581 10.4589 11.3048 11.1314 14.6176C11.2055 14.9834 10.9255 15.3245 10.5537 15.3245H10.3175C5.44241 15.3245 1.47582 19.2911 1.47582 24.1662C1.47582 29.0413 5.44241 33.0078 10.3175 33.0078H13.8541C14.1796 33.0078 14.4436 33.2718 14.4436 33.5973C14.4436 33.9227 14.1796 34.1867 13.8541 34.1867H10.3175C4.79225 34.1867 0.296875 29.6914 0.296875 24.1661C0.296875 18.7959 4.54338 14.3986 9.85479 14.156C9.35586 10.7191 10.3099 7.25233 12.5212 4.54683C17.9495 -2.09411 28.3526 -1.34975 32.7502 6.05538C34.1531 5.17584 35.7584 4.71443 37.4321 4.71443C42.551 4.71443 46.6073 9.0713 46.2524 14.1615C51.5148 14.4567 55.705 18.8308 55.705 24.1657C55.705 29.6914 51.2096 34.1863 45.6843 34.1863L45.6846 34.1863Z" fill="#0D6EFD"/>
<path id="Vector_3" d="M27.9238 48C19.7983 48 13.1875 41.3893 13.1875 33.2637C13.1875 25.1381 19.7981 18.5273 27.9238 18.5273C36.0495 18.5273 42.6601 25.138 42.6601 33.2637C42.6601 41.3892 36.0495 48 27.9238 48ZM27.9238 19.7065C20.4484 19.7065 14.3667 25.7884 14.3667 33.2637C14.3667 40.7391 20.4485 46.8208 27.9238 46.8208C35.3991 46.8208 41.481 40.739 41.481 33.2637C41.481 25.7883 35.3991 19.7065 27.9238 19.7065Z" fill="#0D6EFD"/>
<g id="arrow">
<path id="Vector_4" d="M27.6269 39.1966C27.6269 39.5094 27.8805 39.763 28.1933 39.763C28.5059 39.763 28.7596 39.5097 28.7596 39.1966V27.9765C28.7596 27.6637 28.506 27.4101 28.1933 27.4101C27.8805 27.4101 27.6269 27.6637 27.6269 27.9765V39.1966Z" fill="#0D6EFD" stroke="#0D6EFD" stroke-width="0.269663"/>
<path id="Vector_5" d="M31.95 31.734L32.0455 31.8292C31.9348 31.9402 31.7893 31.9952 31.6448 31.9952L31.95 31.734ZM31.95 31.734C31.8658 31.8184 31.7552 31.8604 31.6448 31.8604L31.95 31.734ZM31.95 31.734L32.0453 31.8293C32.2666 31.6081 32.2666 31.2496 32.0453 31.0283L28.593 27.576C28.3718 27.3549 28.013 27.3547 27.792 27.576L31.95 31.734ZM28.1925 28.7775L31.2443 31.8293C31.3548 31.9398 31.5002 31.9952 31.6448 31.9952L28.1925 28.7775ZM28.1925 28.7775L25.1408 31.8292C25.1408 31.8293 25.1407 31.8293 25.1407 31.8293C24.9197 32.0507 24.5609 32.0505 24.3397 31.8293C24.1184 31.6081 24.1184 31.2496 24.3397 31.0283L27.7919 27.5761L28.1925 28.7775Z" fill="#0D6EFD" stroke="#0D6EFD" stroke-width="0.269663"/>
</g>
</g>
</svg>
