<svg width="51" height="50" viewBox="0 0 51 50" fill="none" xmlns="http://www.w3.org/2000/svg">
<g clip-path="url(#clip0_5001_109151)">
<path d="M29.3984 13.501C29.3984 13.501 25.5421 11.1719 20.7852 11.1719C16.0282 11.1719 12.1719 13.501 12.1719 13.501C12.1719 13.501 16.0282 15.8594 20.7852 15.8594C25.5421 15.8594 29.3984 13.501 29.3984 13.501Z" stroke="#0D6EFD" stroke-width="2" stroke-miterlimit="10" stroke-linecap="round" stroke-linejoin="round"/>
<path d="M12.1719 19.8877C12.1719 19.8877 15.5621 21.4088 19.9062 21.6016" stroke="#0D6EFD" stroke-width="2" stroke-miterlimit="10" stroke-linecap="round" stroke-linejoin="round"/>
<path d="M12.1719 31.3721C12.1719 31.3721 14.6812 32.5159 18.1484 32.9583" stroke="#0D6EFD" stroke-width="2" stroke-miterlimit="10" stroke-linecap="round" stroke-linejoin="round"/>
<path d="M29.3984 18.4375V13.501" stroke="#0D6EFD" stroke-width="2" stroke-miterlimit="10" stroke-linecap="round" stroke-linejoin="round"/>
<path d="M12.1719 25.6885C12.1719 25.6885 14.6812 26.8323 18.1484 27.2747" stroke="#0D6EFD" stroke-width="2" stroke-miterlimit="10" stroke-linecap="round" stroke-linejoin="round"/>
<path d="M12.1719 13.501V37.0557C12.1719 37.0557 14.8234 38.2644 18.4414 38.6772" stroke="#0D6EFD" stroke-width="2" stroke-miterlimit="10" stroke-linecap="round" stroke-linejoin="round"/>
<path d="M39.8281 25.1172C39.8281 25.1172 35.9718 22.7734 31.2148 22.7734C26.4579 22.7734 22.6016 25.1172 22.6016 25.1172C22.6016 25.1172 26.4579 27.4609 31.2148 27.4609C35.9718 27.4609 39.8281 25.1172 39.8281 25.1172Z" stroke="#0D6EFD" stroke-width="2" stroke-miterlimit="10" stroke-linecap="round" stroke-linejoin="round"/>
<path d="M39.8281 31.3721C39.8281 31.3721 35.9718 33.1299 31.2148 33.1299C26.4579 33.1299 22.6016 31.3721 22.6016 31.3721" stroke="#0D6EFD" stroke-width="2" stroke-miterlimit="10" stroke-linecap="round" stroke-linejoin="round"/>
<path d="M39.8281 25.1172V37.0557C39.8281 37.0557 35.9718 38.8281 31.2148 38.8281C26.4579 38.8281 22.6016 37.0557 22.6016 37.0557V25.1172" stroke="#0D6EFD" stroke-width="2" stroke-miterlimit="10" stroke-linecap="round" stroke-linejoin="round"/>
</g>
<defs>
<clipPath id="clip0_5001_109151">
<rect width="30" height="30" fill="white" transform="translate(11 10)"/>
</clipPath>
</defs>
</svg>
