<svg width="20" height="20" viewBox="0 0 20 20" fill="none" xmlns="http://www.w3.org/2000/svg">
<path d="M17.9276 14.5327C18.1177 13.8198 18.0934 13.0666 17.8575 12.3698C17.7811 12.1437 17.6839 11.928 17.5671 11.7233C17.5638 11.7165 17.5602 11.7101 17.5566 11.7037C17.5297 11.6576 17.5019 11.612 17.4732 11.5671C17.4219 11.4863 17.3676 11.4077 17.3103 11.3312C17.264 11.2688 17.2157 11.208 17.1655 11.1489C16.9423 10.8864 16.9944 10.4374 17.2545 10.2113C17.3495 10.1287 17.4386 10.0389 17.521 9.94249C17.7714 9.64987 17.9533 9.30455 18.0531 8.93178C18.228 8.2747 18.1379 7.57635 17.8028 6.98906C17.4677 6.40136 16.9147 5.97346 16.2651 5.79815C15.6149 5.62519 14.922 5.71925 14.338 6.06069C13.7522 6.4012 13.3249 6.96094 13.1499 7.61799C13.0479 7.99016 13.0328 8.38016 13.1055 8.76022C13.1279 8.88423 13.1597 9.00603 13.2002 9.12466C13.3116 9.45075 13.1326 9.86559 12.808 9.98136C12.735 10.0074 12.6627 10.0359 12.5914 10.0668C12.4545 10.1252 12.321 10.192 12.1919 10.2663C12.1855 10.27 12.1801 10.2732 12.1739 10.2774C11.9703 10.3962 11.7775 10.535 11.5982 10.6926C11.0455 11.1781 10.6479 11.8182 10.4561 12.5307L10.1956 13.5028C10.1778 13.5692 10.1766 13.6388 10.1921 13.7053C10.2015 13.7456 10.2168 13.7844 10.2375 13.8197C10.251 13.8426 10.2666 13.8643 10.2843 13.8846C10.3133 13.9183 10.3475 13.9463 10.3853 13.9682C10.4162 13.9861 10.4494 14 10.4844 14.009L17.1639 15.7987C17.1983 15.8084 17.2336 15.8132 17.269 15.8131C17.313 15.8131 17.3572 15.8057 17.3995 15.7911C17.4639 15.7694 17.5222 15.7318 17.5689 15.682C17.6156 15.6321 17.6494 15.5712 17.6672 15.5048L17.9276 14.5327Z" fill="url(#paint0_linear_3963_228)"/>
<path d="M0.785731 14.5327C0.595645 13.8198 0.619965 13.0666 0.855881 12.3698C0.932307 12.1437 1.02944 11.928 1.14632 11.7233C1.14959 11.7165 1.15316 11.7101 1.15683 11.7037C1.18364 11.6576 1.21144 11.612 1.24022 11.5671C1.29144 11.4863 1.34582 11.4077 1.40305 11.3312C1.44937 11.2688 1.49769 11.208 1.5479 11.1489C1.77111 10.8864 1.71896 10.4374 1.45892 10.2113C1.36392 10.1287 1.27481 10.0389 1.19241 9.94249C0.941968 9.64987 0.760104 9.30455 0.660325 8.93178C0.485402 8.2747 0.575504 7.57635 0.910617 6.98906C1.24572 6.40136 1.79869 5.97346 2.44825 5.79815C3.09844 5.62519 3.79137 5.71925 4.37533 6.06069C4.96122 6.4012 5.38843 6.96094 5.56345 7.61799C5.66545 7.99016 5.68062 8.38016 5.60783 8.76022C5.58544 8.88423 5.55373 9.00603 5.51319 9.12466C5.40176 9.45075 5.58082 9.86559 5.9054 9.98136C5.97842 10.0074 6.05065 10.0359 6.12198 10.0668C6.25887 10.1252 6.39233 10.192 6.52147 10.2663C6.52786 10.27 6.53326 10.2732 6.53947 10.2774C6.74303 10.3962 6.9359 10.535 7.11513 10.6926C7.66784 11.1781 8.06549 11.8182 8.25732 12.5307L8.51779 13.5028C8.53559 13.5692 8.53673 13.6388 8.52129 13.7053C8.51186 13.7456 8.49657 13.7844 8.47587 13.8197C8.46241 13.8426 8.44679 13.8643 8.4291 13.8846C8.4001 13.9183 8.36585 13.9463 8.32807 13.9682C8.29722 13.9861 8.26395 14 8.22894 14.009L1.54946 15.7987C1.51505 15.8084 1.47976 15.8132 1.44438 15.8131C1.40036 15.8131 1.35619 15.8057 1.31392 15.7911C1.24946 15.7694 1.1912 15.7318 1.14446 15.682C1.09783 15.6321 1.064 15.5712 1.0462 15.5048L0.785731 14.5327Z" fill="url(#paint1_linear_3963_228)"/>
<path d="M15.321 14.0596C15.3197 12.9624 14.992 11.8898 14.3797 10.9796C14.1812 10.6843 13.9567 10.4118 13.7079 10.1627C13.7005 10.1543 13.6929 10.1465 13.685 10.1386C13.6283 10.0827 13.5703 10.028 13.5112 9.97442C13.4056 9.87817 13.2963 9.78613 13.1837 9.6983C12.9935 9.54876 12.7935 9.41268 12.5853 9.29093C12.2866 9.11628 12.2216 8.67452 12.4433 8.40883C12.6431 8.16936 12.8134 7.90539 12.9497 7.62232C13.199 7.10558 13.3284 6.53952 13.3283 5.96563C13.3266 4.95441 12.925 3.9859 12.2114 3.27124C11.4977 2.55599 10.5304 2.15415 9.52121 2.15234C8.51201 2.15415 7.54455 2.55599 6.83101 3.27124C6.11431 3.9859 5.71264 4.95441 5.71414 5.96563C5.71084 6.53952 5.84027 7.10558 6.09329 7.62353C6.22749 7.90584 6.39677 8.16943 6.59608 8.4087C6.81756 8.67457 6.75268 9.11628 6.45396 9.29093C6.24572 9.41268 6.04577 9.54876 5.85559 9.6983C5.67991 9.83486 5.51248 9.98224 5.35422 10.1386C5.34641 10.1465 5.3398 10.1531 5.33244 10.1615C5.08363 10.4105 4.8581 10.6843 4.65959 10.9796C4.04725 11.8898 3.71961 12.9624 3.71826 14.0596V15.5563C3.71826 15.6586 3.74364 15.759 3.79184 15.8486C3.82112 15.9028 3.85836 15.9527 3.90205 15.9954C3.93043 16.0231 3.96152 16.0484 3.995 16.0706C4.05011 16.1079 4.11062 16.135 4.17384 16.1518C4.22549 16.1657 4.2791 16.1729 4.3333 16.1723H14.706C14.7596 16.1729 14.8126 16.1663 14.8638 16.1524C14.9276 16.1356 14.9887 16.1079 15.0443 16.0706C15.1293 16.0147 15.1991 15.9383 15.2474 15.8486C15.2956 15.759 15.321 15.6586 15.321 15.5563V14.0596Z" fill="url(#paint2_linear_3963_228)"/>
<defs>
<linearGradient id="paint0_linear_3963_228" x1="13.8866" y1="7.0814" x2="18.5927" y2="11.2962" gradientUnits="userSpaceOnUse">
<stop stop-color="#B6C0D6"/>
<stop offset="1" stop-color="#6B6A7B"/>
</linearGradient>
<linearGradient id="paint1_linear_3963_228" x1="4.82681" y1="7.0814" x2="0.120654" y2="11.2962" gradientUnits="userSpaceOnUse">
<stop stop-color="#B6C0D6"/>
<stop offset="1" stop-color="#6B6A7B"/>
</linearGradient>
<linearGradient id="paint2_linear_3963_228" x1="6.57313" y1="4.91128" x2="14.9984" y2="9.21268" gradientUnits="userSpaceOnUse">
<stop stop-color="#B6C0D6"/>
<stop offset="1" stop-color="#6B6A7B"/>
</linearGradient>
</defs>
</svg>
