<svg width="18" height="18" viewBox="0 0 18 18" fill="none" xmlns="http://www.w3.org/2000/svg">
<g clip-path="url(#clip0_2656_57812)">
<path d="M5.89425 4.5H3.76875C3.36595 4.5 2.97965 4.66001 2.69483 4.94483C2.41001 5.22965 2.25 5.61595 2.25 6.01875V8.14425C2.25 8.547 2.40975 8.93325 2.69475 9.21825L7.28175 13.8052C7.42278 13.9463 7.59022 14.0582 7.7745 14.1345C7.95877 14.2109 8.15629 14.2502 8.35575 14.2502C8.55521 14.2502 8.75273 14.2109 8.937 14.1345C9.12128 14.0582 9.28872 13.9463 9.42975 13.8052L11.5552 11.6797C11.6963 11.5387 11.8082 11.3713 11.8845 11.187C11.9609 11.0027 12.0002 10.8052 12.0002 10.6057C12.0002 10.4063 11.9609 10.2088 11.8845 10.0245C11.8082 9.84022 11.6963 9.67278 11.5552 9.53175L6.9675 4.94475C6.68283 4.66012 6.2968 4.50016 5.89425 4.5Z" stroke="#707070" stroke-width="1.25" stroke-linecap="round" stroke-linejoin="round"/>
<path d="M13.18 13.8058L15.3055 11.6803C15.4466 11.5393 15.5585 11.3718 15.6348 11.1876C15.7111 11.0033 15.7504 10.8058 15.7504 10.6063C15.7504 10.4068 15.7111 10.2093 15.6348 10.0251C15.5585 9.84078 15.4466 9.67334 15.3055 9.53231L9.96777 4.19531" stroke="#707070" stroke-width="1.25" stroke-linecap="round" stroke-linejoin="round"/>
<path d="M4.49969 6.75H4.49219" stroke="#707070" stroke-width="1.25" stroke-linecap="round" stroke-linejoin="round"/>
</g>
<defs>
<clipPath id="clip0_2656_57812">
<rect width="18" height="18" fill="white"/>
</clipPath>
</defs>
</svg>
