<svg width="28" height="28" viewBox="0 0 28 28" fill="none" xmlns="http://www.w3.org/2000/svg">
<path d="M21.0019 15.632H7.00187C6.30187 15.632 5.83521 15.072 5.83521 14.232C5.83521 13.392 6.30187 12.832 7.00187 12.832H21.0019C21.7019 12.832 22.1685 13.392 22.1685 14.232C22.1685 15.072 21.7019 15.632 21.0019 15.632Z" fill="#0D6EFD"/>
<path d="M17.5019 22.632H10.5019C9.80187 22.632 9.33521 22.072 9.33521 21.232C9.33521 20.392 9.80187 19.832 10.5019 19.832H17.5019C18.2019 19.832 18.6685 20.392 18.6685 21.232C18.6685 22.072 18.2019 22.632 17.5019 22.632Z" fill="#0D6EFD"/>
<path d="M24.5019 8.63203H3.50187C2.80187 8.63203 2.33521 8.07203 2.33521 7.23203C2.33521 6.39203 2.80187 5.83203 3.50187 5.83203H24.5019C25.2019 5.83203 25.6685 6.39203 25.6685 7.23203C25.6685 8.07203 25.2019 8.63203 24.5019 8.63203Z" fill="#0D6EFD"/>
</svg>
