<svg width="22" height="20" viewBox="0 0 22 20" fill="none" xmlns="http://www.w3.org/2000/svg">
<path d="M14.8301 7.1074H20.125V7.10631M1.00106 18.3375V12.8926M1.00106 12.8926H6.29594M1 12.8926L4.374 16.3644C5.46025 17.4814 6.81333 18.2847 8.29721 18.6935C9.78108 19.1023 11.3435 19.1022 12.8273 18.6932C14.3111 18.2841 15.6641 17.4806 16.7501 16.3634C17.8362 15.2462 18.6172 13.8547 19.0145 12.3287M2.11053 7.67131C2.50781 6.14532 3.28876 4.75378 4.37485 3.63658C5.46094 2.51937 6.8139 1.71587 8.29772 1.30685C9.78153 0.897834 11.3439 0.897714 12.8278 1.3065C14.3117 1.7153 15.6647 2.51859 16.751 3.63563L20.125 7.10631M20.125 1.66251V7.10522" stroke="#0D6EFD" stroke-width="2" stroke-linecap="round" stroke-linejoin="round"/>
</svg>
