<svg width="23" height="22" viewBox="0 0 23 22" fill="none" xmlns="http://www.w3.org/2000/svg">
<g clip-path="url(#clip0_2088_111378)">
<path d="M3.25 9.16667C3.25 10.0093 3.41597 10.8437 3.73844 11.6222C4.06091 12.4007 4.53356 13.1081 5.1294 13.7039C5.72524 14.2998 6.43261 14.7724 7.21111 15.0949C7.98962 15.4174 8.82402 15.5833 9.66667 15.5833C10.5093 15.5833 11.3437 15.4174 12.1222 15.0949C12.9007 14.7724 13.6081 14.2998 14.2039 13.7039C14.7998 13.1081 15.2724 12.4007 15.5949 11.6222C15.9174 10.8437 16.0833 10.0093 16.0833 9.16667C16.0833 8.32402 15.9174 7.48962 15.5949 6.71111C15.2724 5.93261 14.7998 5.22524 14.2039 4.6294C13.6081 4.03356 12.9007 3.56091 12.1222 3.23844C11.3437 2.91597 10.5093 2.75 9.66667 2.75C8.82402 2.75 7.98962 2.91597 7.21111 3.23844C6.43261 3.56091 5.72524 4.03356 5.1294 4.6294C4.53356 5.22524 4.06091 5.93261 3.73844 6.71111C3.41597 7.48962 3.25 8.32402 3.25 9.16667Z" stroke="white" stroke-width="1.5" stroke-linecap="round" stroke-linejoin="round"/>
<path d="M19.75 19.25L14.25 13.75" stroke="white" stroke-width="1.5" stroke-linecap="round" stroke-linejoin="round"/>
</g>
<defs>
<clipPath id="clip0_2088_111378">
<rect width="22" height="22" fill="white" transform="translate(0.5)"/>
</clipPath>
</defs>
</svg>
