<svg width="20" height="20" viewBox="0 0 20 20" fill="none" xmlns="http://www.w3.org/2000/svg">
<g id="sort 1">
<g id="Group">
<path id="Vector" d="M15.0013 10.8327H5.0013C4.5013 10.8327 4.16797 10.4993 4.16797 9.99935C4.16797 9.49935 4.5013 9.16602 5.0013 9.16602H15.0013C15.5013 9.16602 15.8346 9.49935 15.8346 9.99935C15.8346 10.4993 15.5013 10.8327 15.0013 10.8327Z" fill="#0D6EFD"/>
</g>
<g id="Group_2">
<path id="Vector_2" d="M12.5013 15.8327H7.5013C7.0013 15.8327 6.66797 15.4993 6.66797 14.9993C6.66797 14.4993 7.0013 14.166 7.5013 14.166H12.5013C13.0013 14.166 13.3346 14.4993 13.3346 14.9993C13.3346 15.4993 13.0013 15.8327 12.5013 15.8327Z" fill="#0D6EFD"/>
</g>
<g id="Group_3">
<path id="Vector_3" d="M17.5013 5.83268H2.5013C2.0013 5.83268 1.66797 5.49935 1.66797 4.99935C1.66797 4.49935 2.0013 4.16602 2.5013 4.16602H17.5013C18.0013 4.16602 18.3346 4.49935 18.3346 4.99935C18.3346 5.49935 18.0013 5.83268 17.5013 5.83268Z" fill="#0D6EFD"/>
</g>
</g>
</svg>
