<svg width="56" height="56" viewBox="0 0 20 21" fill="none" xmlns="http://www.w3.org/2000/svg">
<path d="M8.32079 2.1596C9.04465 1.40552 10.2506 1.40552 10.9745 2.1596L11.1172 2.30822C11.5679 2.77774 12.2332 2.97411 12.8666 2.82459L13.0635 2.7781C14.0766 2.53895 15.0862 3.1875 15.2898 4.20835L15.3372 4.44606C15.4634 5.07875 15.9119 5.59905 16.5191 5.81718L16.7408 5.89685C17.713 6.24613 18.2069 7.32739 17.8344 8.29095L17.7375 8.54163C17.5066 9.13903 17.6031 9.81354 17.9922 10.3223L18.1543 10.5342C18.7806 11.3529 18.6118 12.5264 17.7802 13.1355L17.5749 13.2858C17.0568 13.6653 16.7741 14.2875 16.8292 14.9274L16.8514 15.1861C16.9404 16.2191 16.1583 17.1214 15.1231 17.1801L14.9073 17.1924C14.2599 17.2291 13.6797 17.6039 13.3802 18.1789L13.2775 18.3761C12.7951 19.3021 11.6395 19.6413 10.7331 19.1229L10.5608 19.0244C9.99503 18.7008 9.30027 18.7008 8.73452 19.0244L8.56217 19.1229C7.65582 19.6413 6.50024 19.3021 6.01785 18.3761L5.91511 18.1789C5.61556 17.6039 5.03537 17.2291 4.38805 17.1924L4.1722 17.1801C3.13703 17.1214 2.35495 16.2191 2.44385 15.1861L2.46612 14.9274C2.52119 14.2875 2.23852 13.6653 1.7204 13.2858L1.51512 13.1355C0.6835 12.5264 0.514731 11.3529 1.14101 10.5342L1.3031 10.3223C1.69223 9.81354 1.7887 9.13903 1.55776 8.54163L1.46086 8.29095C1.08838 7.32739 1.58231 6.24613 2.55452 5.89685L2.77625 5.81718C3.38341 5.59905 3.83188 5.07875 3.95809 4.44606L4.00551 4.20835C4.20915 3.1875 5.21865 2.53895 6.23177 2.7781L6.42872 2.82459C7.06214 2.97411 7.72742 2.77774 8.17813 2.30822L8.32079 2.1596Z" fill="url(#paint0_linear_3922_214)"/>
<path d="M8.32079 2.1596C9.04465 1.40552 10.2506 1.40552 10.9745 2.1596L11.1172 2.30822C11.5679 2.77774 12.2332 2.97411 12.8666 2.82459L13.0635 2.7781C14.0766 2.53895 15.0862 3.1875 15.2898 4.20835L15.3372 4.44606C15.4634 5.07875 15.9119 5.59905 16.5191 5.81718L16.7408 5.89685C17.713 6.24613 18.2069 7.32739 17.8344 8.29095L17.7375 8.54163C17.5066 9.13903 17.6031 9.81354 17.9922 10.3223L18.1543 10.5342C18.7806 11.3529 18.6118 12.5264 17.7802 13.1355L17.5749 13.2858C17.0568 13.6653 16.7741 14.2875 16.8292 14.9274L16.8514 15.1861C16.9404 16.2191 16.1583 17.1214 15.1231 17.1801L14.9073 17.1924C14.2599 17.2291 13.6797 17.6039 13.3802 18.1789L13.2775 18.3761C12.7951 19.3021 11.6395 19.6413 10.7331 19.1229L10.5608 19.0244C9.99503 18.7008 9.30027 18.7008 8.73452 19.0244L8.56217 19.1229C7.65582 19.6413 6.50024 19.3021 6.01785 18.3761L5.91511 18.1789C5.61556 17.6039 5.03537 17.2291 4.38805 17.1924L4.1722 17.1801C3.13703 17.1214 2.35495 16.2191 2.44385 15.1861L2.46612 14.9274C2.52119 14.2875 2.23852 13.6653 1.7204 13.2858L1.51512 13.1355C0.6835 12.5264 0.514731 11.3529 1.14101 10.5342L1.3031 10.3223C1.69223 9.81354 1.7887 9.13903 1.55776 8.54163L1.46086 8.29095C1.08838 7.32739 1.58231 6.24613 2.55452 5.89685L2.77625 5.81718C3.38341 5.59905 3.83188 5.07875 3.95809 4.44606L4.00551 4.20835C4.20915 3.1875 5.21865 2.53895 6.23177 2.7781L6.42872 2.82459C7.06214 2.97411 7.72742 2.77774 8.17813 2.30822L8.32079 2.1596Z" fill="url(#paint1_linear_3922_214)" fill-opacity="0.1"/>
<path d="M2.9585 10.5562C2.9585 6.86196 5.95327 3.86719 9.64752 3.86719C13.3418 3.86719 16.3365 6.86197 16.3365 10.5562V10.6938C16.3365 14.388 13.3418 17.3828 9.64752 17.3828C5.95327 17.3828 2.9585 14.388 2.9585 10.6938V10.5562Z" fill="black" fill-opacity="0.04"/>
<path d="M3.64523 10.5562C3.64523 7.24123 6.33254 4.55392 9.64752 4.55392C12.9625 4.55392 15.6498 7.24124 15.6498 10.5562V10.6938C15.6498 14.0088 12.9625 16.6961 9.64752 16.6961C6.33255 16.6961 3.64523 14.0088 3.64523 10.6938V10.5562Z" stroke="white" stroke-opacity="0.3" stroke-width="1.37347"/>
<path d="M16.427 10.6876C16.427 14.4318 13.3918 17.4671 9.64759 17.4671C5.90342 17.4671 2.86816 14.4318 2.86816 10.6876C2.86816 6.94346 5.90342 3.9082 9.64759 3.9082C13.3918 3.9082 16.427 6.94346 16.427 10.6876ZM4.26389 10.6876C4.26389 13.661 6.67425 16.0713 9.64759 16.0713C12.6209 16.0713 15.0313 13.661 15.0313 10.6876C15.0313 7.71429 12.6209 5.30392 9.64759 5.30392C6.67425 5.30392 4.26389 7.71429 4.26389 10.6876Z" fill="url(#paint2_linear_3922_214)" fill-opacity="0.5"/>
<path fill-rule="evenodd" clip-rule="evenodd" d="M8.34052 8.74172C8.34052 8.42068 8.46805 8.1128 8.69506 7.88579C8.92207 7.65878 9.22995 7.53125 9.55099 7.53125C9.87203 7.53125 10.1799 7.65878 10.4069 7.88579C10.6339 8.1128 10.7615 8.42068 10.7615 8.74172C10.7615 9.06276 10.6339 9.37065 10.4069 9.59765C10.1799 9.82466 9.87203 9.95219 9.55099 9.95219C9.22995 9.95219 8.92207 9.82466 8.69506 9.59765C8.46805 9.37065 8.34052 9.06276 8.34052 8.74172ZM7.33206 12.5359C7.34113 11.9534 7.5789 11.3978 7.99405 10.989C8.40919 10.5803 8.96841 10.3512 9.55099 10.3512C10.1336 10.3512 10.6928 10.5803 11.1079 10.989C11.5231 11.3978 11.7608 11.9534 11.7699 12.5359C11.7706 12.5751 11.7599 12.6137 11.739 12.6469C11.7181 12.6801 11.688 12.7065 11.6524 12.7228C10.9931 13.0251 10.2762 13.1811 9.55099 13.1801C8.80158 13.1801 8.08955 13.0166 7.44961 12.7228C7.41397 12.7065 7.38386 12.6801 7.36299 12.6469C7.34211 12.6137 7.33136 12.5751 7.33206 12.5359Z" fill="#FFE69B"/>
<defs>
<linearGradient id="paint0_linear_3922_214" x1="3.38797" y1="2.58426" x2="13.9713" y2="19.266" gradientUnits="userSpaceOnUse">
<stop stop-color="#FFE092"/>
<stop offset="1" stop-color="#E3A302"/>
</linearGradient>
<linearGradient id="paint1_linear_3922_214" x1="-3.31367" y1="-0.730102" x2="11.3437" y2="25.432" gradientUnits="userSpaceOnUse">
<stop stop-color="white"/>
<stop offset="1" stop-color="white" stop-opacity="0"/>
</linearGradient>
<linearGradient id="paint2_linear_3922_214" x1="9.64759" y1="3.9082" x2="9.64759" y2="17.4671" gradientUnits="userSpaceOnUse">
<stop stop-color="white"/>
<stop offset="0.0001" stop-color="white" stop-opacity="0.81"/>
<stop offset="1" stop-color="white" stop-opacity="0"/>
</linearGradient>
</defs>
</svg>
