<svg width="30" height="30" viewBox="0 0 30 30" fill="none" xmlns="http://www.w3.org/2000/svg">
<path d="M12.793 2.29935C13.9966 1.04548 16.0034 1.04548 17.207 2.29935C17.9557 3.07934 19.0613 3.40596 20.1136 3.15757C21.7966 2.76028 23.4792 3.86537 23.8175 5.56127C24.0295 6.62423 24.7861 7.51366 25.8061 7.88015C27.4395 8.46697 28.2613 10.3045 27.6355 11.9233C27.2435 12.9373 27.4055 14.0974 28.066 14.9609C29.1248 16.345 28.8445 18.3355 27.4385 19.3652C26.5626 20.0067 26.0861 21.0753 26.1792 22.157C26.3276 23.8813 25.0248 25.4173 23.2969 25.5152C22.2164 25.5765 21.2436 26.2106 20.7436 27.1704C19.9434 28.7066 18.0183 29.2847 16.5148 28.4248C15.5763 27.888 14.4237 27.888 13.4852 28.4248C11.9817 29.2847 10.0566 28.7066 9.25638 27.1704C8.75638 26.2106 7.78356 25.5765 6.70308 25.5152C4.97524 25.4173 3.67241 23.8813 3.82081 22.157C3.91391 21.0753 3.43745 20.0067 2.5615 19.3652C1.15554 18.3355 0.875182 16.345 1.93398 14.9609C2.59448 14.0974 2.7565 12.9373 2.36451 11.9233C1.7387 10.3045 2.56048 8.46697 4.19386 7.88015C5.21394 7.51366 5.97046 6.62423 6.1825 5.56127C6.5208 3.86537 8.20337 2.76028 9.88642 3.15757C10.9387 3.40596 12.0443 3.07934 12.793 2.29935Z" fill="url(#paint0_linear_3480_97512)"/>
<path d="M12.793 2.29935C13.9966 1.04548 16.0034 1.04548 17.207 2.29935C17.9557 3.07934 19.0613 3.40596 20.1136 3.15757C21.7966 2.76028 23.4792 3.86537 23.8175 5.56127C24.0295 6.62423 24.7861 7.51366 25.8061 7.88015C27.4395 8.46697 28.2613 10.3045 27.6355 11.9233C27.2435 12.9373 27.4055 14.0974 28.066 14.9609C29.1248 16.345 28.8445 18.3355 27.4385 19.3652C26.5626 20.0067 26.0861 21.0753 26.1792 22.157C26.3276 23.8813 25.0248 25.4173 23.2969 25.5152C22.2164 25.5765 21.2436 26.2106 20.7436 27.1704C19.9434 28.7066 18.0183 29.2847 16.5148 28.4248C15.5763 27.888 14.4237 27.888 13.4852 28.4248C11.9817 29.2847 10.0566 28.7066 9.25638 27.1704C8.75638 26.2106 7.78356 25.5765 6.70308 25.5152C4.97524 25.4173 3.67241 23.8813 3.82081 22.157C3.91391 21.0753 3.43745 20.0067 2.5615 19.3652C1.15554 18.3355 0.875182 16.345 1.93398 14.9609C2.59448 14.0974 2.7565 12.9373 2.36451 11.9233C1.7387 10.3045 2.56048 8.46697 4.19386 7.88015C5.21394 7.51366 5.97046 6.62423 6.1825 5.56127C6.5208 3.86537 8.20337 2.76028 9.88642 3.15757C10.9387 3.40596 12.0443 3.07934 12.793 2.29935Z" fill="url(#paint1_linear_3480_97512)" fill-opacity="0.1"/>
<path d="M4.59985 15.2042C4.59985 9.46042 9.25608 4.8042 14.9998 4.8042C20.7436 4.8042 25.3998 9.46042 25.3998 15.2042V15.4181C25.3998 21.1618 20.7436 25.818 14.9998 25.818C9.25608 25.818 4.59985 21.1618 4.59985 15.4181V15.2042Z" fill="black" fill-opacity="0.04"/>
<path d="M6.82277 15.2042C6.82277 10.6881 10.4838 7.02712 14.9998 7.02712C19.5159 7.02712 23.1769 10.6881 23.1769 15.2042V15.4181C23.1769 19.9341 19.5159 23.5951 14.9998 23.5951C10.4838 23.5951 6.82277 19.9341 6.82277 15.4181V15.2042Z" stroke="white" stroke-opacity="0.3" stroke-width="4.44584"/>
<path d="M25.5405 15.406C25.5405 21.2273 20.8213 25.9465 15 25.9465C9.17857 25.9465 4.45941 21.2273 4.45941 15.406C4.45941 9.58458 9.17857 4.86542 15 4.86542C20.8213 4.86542 25.5405 9.58458 25.5405 15.406ZM6.62945 15.406C6.62945 20.0289 10.3771 23.7765 15 23.7765C19.6229 23.7765 23.3705 20.0289 23.3705 15.406C23.3705 10.7831 19.6229 7.03546 15 7.03546C10.3771 7.03546 6.62945 10.7831 6.62945 15.406Z" fill="url(#paint2_linear_3480_97512)" fill-opacity="0.5"/>
<path fill-rule="evenodd" clip-rule="evenodd" d="M12.7262 12.882C12.7262 12.3829 12.9245 11.9042 13.2775 11.5512C13.6304 11.1983 14.1091 11 14.6083 11C15.1074 11 15.5861 11.1983 15.9391 11.5512C16.292 11.9042 16.4903 12.3829 16.4903 12.882C16.4903 13.3812 16.292 13.8599 15.9391 14.2128C15.5861 14.5658 15.1074 14.764 14.6083 14.764C14.1091 14.764 13.6304 14.5658 13.2775 14.2128C12.9245 13.8599 12.7262 13.3812 12.7262 12.882ZM11.1583 18.7811C11.1724 17.8754 11.5421 17.0116 12.1876 16.3761C12.833 15.7406 13.7025 15.3845 14.6083 15.3845C15.5141 15.3845 16.3835 15.7406 17.029 16.3761C17.6744 17.0116 18.0441 17.8754 18.0582 18.7811C18.0593 18.8421 18.0426 18.902 18.0101 18.9537C17.9777 19.0053 17.9309 19.0463 17.8754 19.0718C16.8504 19.5417 15.7359 19.7843 14.6083 19.7828C13.4431 19.7828 12.336 19.5285 11.3411 19.0718C11.2857 19.0463 11.2389 19.0053 11.2064 18.9537C11.1739 18.902 11.1572 18.8421 11.1583 18.7811Z" fill="#FFE69B"/>
<defs>
<linearGradient id="paint0_linear_3480_97512" x1="5.26756" y1="2.80961" x2="21.7224" y2="28.7461" gradientUnits="userSpaceOnUse">
<stop stop-color="#FFE092"/>
<stop offset="1" stop-color="#E3A302"/>
</linearGradient>
<linearGradient id="paint1_linear_3480_97512" x1="-5.15203" y1="-2.34351" x2="17.637" y2="38.3329" gradientUnits="userSpaceOnUse">
<stop stop-color="white"/>
<stop offset="1" stop-color="white" stop-opacity="0"/>
</linearGradient>
<linearGradient id="paint2_linear_3480_97512" x1="15" y1="4.86542" x2="15" y2="25.9465" gradientUnits="userSpaceOnUse">
<stop stop-color="white"/>
<stop offset="0.0001" stop-color="white" stop-opacity="0.81"/>
<stop offset="1" stop-color="white" stop-opacity="0"/>
</linearGradient>
</defs>
</svg>
