<svg width="40" height="40" viewBox="0 0 40 40" fill="none" xmlns="http://www.w3.org/2000/svg">
<g id="Frame 48096904">
<g id="Group 48096168">
<path id="Vector 90" d="M33.9131 30.8091L38.918 25.7634L34.4268 22.3306C34.2158 22.1693 33.9211 22.1759 33.7175 22.3466L27.5106 27.5488C27.1866 27.8203 27.2625 28.338 27.6508 28.5051L33.2857 30.9307C33.5 31.023 33.7488 30.9747 33.9131 30.8091Z" fill="#11295A"/>
<path id="Vector 91" d="M5.57387 31.1985L1 25.82L5.49118 22.3873C5.7022 22.226 5.99686 22.2326 6.20042 22.4032L12.4255 27.6206C12.745 27.8884 12.6764 28.3978 12.2974 28.5716L6.24272 31.3467C6.01172 31.4526 5.73849 31.392 5.57387 31.1985Z" fill="#11295A"/>
<g id="Group 48096166">
<path id="Star 18" d="M17.9147 2.27407C19.1949 1.4919 20.8052 1.4919 22.0854 2.27407L25.0872 4.10802C25.5319 4.37968 26.0254 4.56185 26.5399 4.64428L30.0189 5.20165C31.4842 5.43642 32.6992 6.46321 33.175 7.86896L34.3383 11.3063C34.5022 11.7905 34.7574 12.2389 35.0901 12.627L37.4562 15.3876C38.408 16.4981 38.6779 18.0396 38.1599 19.4074L36.8593 22.8416C36.6795 23.3166 36.5917 23.8215 36.6007 24.3293L36.6659 27.9983C36.6921 29.469 35.9088 30.8355 34.6265 31.5563L31.5081 33.309C31.0579 33.5621 30.661 33.8999 30.3393 34.3038L28.1158 37.0953C27.1839 38.2653 25.6772 38.8175 24.21 38.527L20.777 37.8473C20.264 37.7457 19.7361 37.7457 19.2231 37.8473L15.7901 38.527C14.3229 38.8176 12.8162 38.2653 11.8843 37.0953L9.66085 34.3038C9.3391 33.8999 8.94217 33.5621 8.49198 33.309L5.37363 31.5563C4.09128 30.8355 3.30803 29.469 3.33417 27.9983L3.39939 24.3293C3.40841 23.8215 3.32064 23.3166 3.14076 22.8416L1.84021 19.4074C1.32223 18.0396 1.59206 16.4981 2.54387 15.3876L4.91 12.627C5.24271 12.2389 5.49791 11.7905 5.66181 11.3063L6.82514 7.86896C7.3009 6.46321 8.51586 5.43642 9.98125 5.20165L13.4602 4.64428C13.9747 4.56185 14.4682 4.37968 14.9129 4.10802L17.9147 2.27407Z" fill="#199CD8"/>
<circle id="Ellipse 98" cx="20.0002" cy="19.9992" r="13.3" fill="#EEF8FF"/>
<path id="Star 12" d="M19.7025 7.69642C19.7289 7.59743 19.8693 7.59743 19.8957 7.69642L20.2523 9.03389C20.264 9.07767 20.3036 9.10813 20.3489 9.10813H21.5389C21.631 9.10813 21.6741 9.22198 21.6052 9.283L20.6107 10.1637C20.5823 10.1888 20.5706 10.2277 20.5803 10.2643L20.9519 11.6582C20.9775 11.7539 20.8632 11.8245 20.789 11.7588L19.8654 10.941C19.8276 10.9075 19.7707 10.9075 19.7328 10.941L18.8092 11.7588C18.735 11.8245 18.6207 11.7539 18.6463 11.6582L19.0179 10.2643C19.0276 10.2277 19.0159 10.1888 18.9876 10.1637L17.993 9.283C17.9241 9.22198 17.9672 9.10813 18.0593 9.10813H19.2493C19.2946 9.10813 19.3342 9.07767 19.3459 9.03389L19.7025 7.69642Z" fill="#199CD8"/>
<path id="Star 13" d="M25.5538 9.89478C25.6226 9.82768 25.7349 9.89792 25.7156 9.99602L25.458 11.309C25.4494 11.3527 25.4689 11.3983 25.5059 11.4215L26.5859 12.097C26.6673 12.1479 26.6446 12.2772 26.5525 12.2877L25.3041 12.4298C25.2636 12.4344 25.2311 12.4656 25.2228 12.5079L24.9629 13.8325C24.9438 13.9298 24.8175 13.9395 24.7793 13.8466L24.2762 12.6225C24.2586 12.5797 24.2169 12.5536 24.1739 12.5585L22.9437 12.6986C22.8504 12.7092 22.795 12.5858 22.8632 12.5193L23.7922 11.6131C23.8218 11.5842 23.8305 11.5381 23.8139 11.4978L23.3034 10.2554C23.2657 10.1638 23.3577 10.0779 23.4391 10.1288L24.5191 10.8043C24.5562 10.8275 24.6023 10.8229 24.633 10.7929L25.5538 9.89478Z" fill="#199CD8"/>
<path id="Star 14" d="M15.6299 9.89478C15.6987 9.82768 15.8111 9.89792 15.7918 9.99602L15.5342 11.309C15.5256 11.3527 15.545 11.3983 15.5821 11.4215L16.6621 12.097C16.7434 12.1479 16.7208 12.2772 16.6287 12.2877L15.3803 12.4298C15.3398 12.4344 15.3073 12.4656 15.299 12.5079L15.0391 13.8325C15.02 13.9298 14.8936 13.9395 14.8555 13.8466L14.3524 12.6225C14.3348 12.5797 14.293 12.5536 14.2501 12.5585L13.0199 12.6986C12.9266 12.7092 12.8711 12.5858 12.9394 12.5193L13.8684 11.6131C13.898 11.5842 13.9067 11.5381 13.8901 11.4978L13.3795 10.2554C13.3419 10.1638 13.4339 10.0779 13.5152 10.1288L14.5952 10.8043C14.6323 10.8275 14.6785 10.8229 14.7092 10.7929L15.6299 9.89478Z" fill="#199CD8"/>
<path id="Star 19" d="M19.7145 32.62C19.6881 32.719 19.5477 32.719 19.5213 32.62L19.1647 31.2825C19.153 31.2387 19.1134 31.2083 19.0681 31.2083H17.8781C17.786 31.2083 17.7428 31.0944 17.8118 31.0334L18.8063 30.1527C18.8347 30.1276 18.8464 30.0887 18.8367 30.0521L18.465 28.6582C18.4395 28.5625 18.5538 28.4919 18.628 28.5576L19.5516 29.3754C19.5894 29.4089 19.6463 29.4089 19.6842 29.3754L20.6078 28.5576C20.682 28.4919 20.7962 28.5625 20.7707 28.6582L20.3991 30.0521C20.3894 30.0887 20.4011 30.1276 20.4294 30.1527L21.424 31.0334C21.4929 31.0944 21.4498 31.2083 21.3577 31.2083H20.1677C20.1224 31.2083 20.0828 31.2387 20.0711 31.2825L19.7145 32.62Z" fill="#199CD8"/>
<path id="Star 20" d="M13.8632 30.4197C13.7944 30.4868 13.6821 30.4165 13.7014 30.3184L13.959 29.0055C13.9675 28.9617 13.9481 28.9161 13.911 28.8929L12.831 28.2174C12.7497 28.1666 12.7724 28.0373 12.8645 28.0268L14.1129 27.8847C14.1534 27.88 14.1859 27.8488 14.1942 27.8066L14.4541 26.4819C14.4732 26.3846 14.5995 26.3749 14.6377 26.4678L15.1408 27.692C15.1584 27.7347 15.2001 27.7609 15.2431 27.756L16.4733 27.6159C16.5666 27.6053 16.622 27.7286 16.5538 27.7952L15.6248 28.7014C15.5952 28.7303 15.5865 28.7764 15.603 28.8167L16.1136 30.059C16.1513 30.1506 16.0592 30.2365 15.9779 30.1857L14.8979 29.5102C14.8608 29.487 14.8147 29.4916 14.784 29.5215L13.8632 30.4197Z" fill="#199CD8"/>
<path id="Star 21" d="M23.7861 30.4197C23.7173 30.4868 23.605 30.4165 23.6242 30.3184L23.8818 29.0055C23.8904 28.9617 23.871 28.9161 23.8339 28.8929L22.7539 28.2174C22.6726 28.1666 22.6952 28.0373 22.7873 28.0268L24.0357 27.8847C24.0762 27.88 24.1088 27.8488 24.117 27.8066L24.377 26.4819C24.396 26.3846 24.5224 26.3749 24.5606 26.4678L25.0637 27.692C25.0812 27.7347 25.123 27.7609 25.1659 27.756L26.3961 27.6159C26.4895 27.6053 26.5449 27.7286 26.4766 27.7952L25.5476 28.7014C25.518 28.7303 25.5093 28.7764 25.5259 28.8167L26.0365 30.059C26.0741 30.1506 25.9821 30.2365 25.9008 30.1857L24.8208 29.5102C24.7837 29.487 24.7375 29.4916 24.7068 29.5215L23.7861 30.4197Z" fill="#199CD8"/>
</g>
<path id="Rectangle 1508" d="M2.56638 14.7162C2.13079 14.7162 1.76546 15.045 1.71973 15.4782L0.783984 24.3431C0.730915 24.8458 1.12508 25.2838 1.63063 25.2838H38.3526C38.867 25.2838 39.264 24.8311 39.1967 24.3211L38.027 15.4562C37.9711 15.0327 37.6101 14.7162 37.183 14.7162H2.56638Z" fill="#11295A" stroke="#11295A" stroke-width="0.567568"/>
<g id="100%">
<path d="M10.9129 22.9176V18.7225H10V17.4121L12.3128 17.0824L12.3888 17.5769L12.3128 18.4011V22.9176H10.9129Z" fill="#EEF8FF"/>
<path d="M15.419 23C14.9879 23 14.5999 22.9038 14.255 22.7115C13.9152 22.5192 13.6464 22.206 13.4486 21.772C13.2508 21.3324 13.1519 20.7418 13.1519 20C13.1519 19.2637 13.2508 18.6786 13.4486 18.2445C13.6464 17.8049 13.9152 17.489 14.255 17.2967C14.5999 17.0989 14.9879 17 15.419 17C15.8552 17 16.2432 17.0989 16.583 17.2967C16.9228 17.4945 17.1916 17.8132 17.3894 18.2527C17.5872 18.6868 17.6861 19.2692 17.6861 20C17.6861 20.7308 17.5872 21.3159 17.3894 21.7555C17.1916 22.1951 16.9228 22.5137 16.583 22.7115C16.2432 22.9038 15.8552 23 15.419 23ZM15.419 21.5659C15.6929 21.5659 15.8983 21.4505 16.0352 21.2198C16.1772 20.989 16.2482 20.5824 16.2482 20C16.2482 19.4176 16.1772 19.011 16.0352 18.7802C15.8983 18.5495 15.6929 18.4341 15.419 18.4341C15.1502 18.4341 14.9448 18.5522 14.8028 18.7885C14.6608 19.0247 14.5897 19.4286 14.5897 20C14.5897 20.5714 14.6608 20.9753 14.8028 21.2115C14.9448 21.4478 15.1502 21.5659 15.419 21.5659Z" fill="#EEF8FF"/>
<path d="M20.5602 23C20.1291 23 19.7411 22.9038 19.3962 22.7115C19.0564 22.5192 18.7876 22.206 18.5898 21.772C18.392 21.3324 18.2931 20.7418 18.2931 20C18.2931 19.2637 18.392 18.6786 18.5898 18.2445C18.7876 17.8049 19.0564 17.489 19.3962 17.2967C19.7411 17.0989 20.1291 17 20.5602 17C20.9964 17 21.3844 17.0989 21.7242 17.2967C22.064 17.4945 22.3328 17.8132 22.5306 18.2527C22.7284 18.6868 22.8273 19.2692 22.8273 20C22.8273 20.7308 22.7284 21.3159 22.5306 21.7555C22.3328 22.1951 22.064 22.5137 21.7242 22.7115C21.3844 22.9038 20.9964 23 20.5602 23ZM20.5602 21.5659C20.8341 21.5659 21.0395 21.4505 21.1764 21.2198C21.3184 20.989 21.3894 20.5824 21.3894 20C21.3894 19.4176 21.3184 19.011 21.1764 18.7802C21.0395 18.5495 20.8341 18.4341 20.5602 18.4341C20.2914 18.4341 20.086 18.5522 19.944 18.7885C19.8019 19.0247 19.7309 19.4286 19.7309 20C19.7309 20.5714 19.8019 20.9753 19.944 21.2115C20.086 21.4478 20.2914 21.5659 20.5602 21.5659Z" fill="#EEF8FF"/>
<path d="M24.9558 19.728C24.6211 19.728 24.3472 19.6676 24.1342 19.5467C23.9212 19.4203 23.7639 19.2555 23.6625 19.0522C23.5611 18.8489 23.5103 18.6209 23.5103 18.3681C23.5103 18.1154 23.5611 17.8874 23.6625 17.6841C23.7639 17.4808 23.9212 17.3187 24.1342 17.1978C24.3472 17.0714 24.6211 17.0082 24.9558 17.0082C25.2855 17.0082 25.5568 17.0714 25.7698 17.1978C25.9829 17.3187 26.1401 17.4808 26.2415 17.6841C26.348 17.8874 26.4013 18.1154 26.4013 18.3681C26.4013 18.6209 26.348 18.8489 26.2415 19.0522C26.1401 19.2555 25.9829 19.4203 25.7698 19.5467C25.5568 19.6676 25.2855 19.728 24.9558 19.728ZM23.9668 22.9176V22.4231L26.5458 19.4808L27.9533 17.0907H29.3683V17.5852L26.9491 20.2967L25.3819 22.9176H23.9668ZM24.9558 18.8214C25.0775 18.8214 25.1663 18.7967 25.2221 18.7473C25.283 18.6923 25.321 18.6291 25.3362 18.5577C25.3565 18.4863 25.3666 18.4231 25.3666 18.3681C25.3666 18.3132 25.3565 18.25 25.3362 18.1786C25.321 18.1071 25.283 18.0467 25.2221 17.9973C25.1663 17.9423 25.0775 17.9148 24.9558 17.9148C24.8341 17.9148 24.7428 17.9423 24.6819 17.9973C24.6261 18.0467 24.5881 18.1071 24.5678 18.1786C24.5526 18.25 24.545 18.3132 24.545 18.3681C24.545 18.4231 24.5526 18.4863 24.5678 18.5577C24.5881 18.6291 24.6261 18.6923 24.6819 18.7473C24.7428 18.7967 24.8341 18.8214 24.9558 18.8214ZM28.3032 23C27.9685 23 27.6946 22.9396 27.4816 22.8187C27.2686 22.6923 27.1114 22.5275 27.0099 22.3242C26.9085 22.1154 26.8578 21.8874 26.8578 21.6401C26.8578 21.3874 26.9085 21.1593 27.0099 20.956C27.1114 20.7527 27.2686 20.5907 27.4816 20.4698C27.6946 20.3434 27.9685 20.2802 28.3032 20.2802C28.6329 20.2802 28.9043 20.3434 29.1173 20.4698C29.3303 20.5907 29.4875 20.7527 29.589 20.956C29.6955 21.1593 29.7487 21.3874 29.7487 21.6401C29.7487 21.8874 29.6955 22.1154 29.589 22.3242C29.4875 22.5275 29.3303 22.6923 29.1173 22.8187C28.9043 22.9396 28.6329 23 28.3032 23ZM28.3032 22.0934C28.425 22.0934 28.5137 22.0687 28.5695 22.0192C28.6304 21.9643 28.6684 21.9011 28.6836 21.8297C28.7039 21.7582 28.7141 21.6951 28.7141 21.6401C28.7141 21.5852 28.7039 21.522 28.6836 21.4505C28.6684 21.3791 28.6304 21.3187 28.5695 21.2692C28.5137 21.2143 28.425 21.1868 28.3032 21.1868C28.1815 21.1868 28.0902 21.2143 28.0294 21.2692C27.9736 21.3187 27.9355 21.3791 27.9152 21.4505C27.9 21.522 27.8924 21.5852 27.8924 21.6401C27.8924 21.6951 27.9 21.7582 27.9152 21.8297C27.9355 21.9011 27.9736 21.9643 28.0294 22.0192C28.0902 22.0687 28.1815 22.0934 28.3032 22.0934Z" fill="#EEF8FF"/>
</g>
</g>
</g>
</svg>
