<svg width="22" height="22" viewBox="0 0 22 22" fill="none" xmlns="http://www.w3.org/2000/svg">
<path d="M16.1376 5.60984C14.6509 4.66937 12.8888 4.125 10.9995 4.125C6.74614 4.125 3.13722 6.88417 1.8658 10.7094C1.80254 10.8995 1.80254 11.105 1.8658 11.2952C2.52719 13.2798 3.81739 14.9769 5.5 16.1503" stroke="#939393" stroke-width="1.5" stroke-linecap="round" stroke-linejoin="round"/>
<path d="M18.2118 7.37671C19.0593 8.33514 19.7186 9.46376 20.1322 10.7048C20.1964 10.8946 20.1964 11.0999 20.1322 11.2906C18.8617 15.1158 15.2528 17.875 10.9995 17.875C9.95218 17.875 8.94393 17.7077 8 17.3984" stroke="#939393" stroke-width="1.5" stroke-linecap="round" stroke-linejoin="round"/>
<path d="M13.75 11C13.75 11.7293 13.4603 12.4288 12.9445 12.9445C12.4288 13.4603 11.7293 13.75 11 13.75" stroke="#939393" stroke-width="1.5" stroke-linecap="round" stroke-linejoin="round"/>
<path d="M8.8475 13L2 19.8475" stroke="#939393" stroke-width="1.5" stroke-linecap="round" stroke-linejoin="round"/>
<path d="M19.8312 2L8 13.8319" stroke="#939393" stroke-width="1.5" stroke-linecap="round" stroke-linejoin="round"/>
<path d="M12.775 8.89951C12.2806 8.4817 11.6522 8.25 11 8.25C10.2707 8.25 9.57118 8.53973 9.05546 9.05546C8.53973 9.57118 8.25 10.2707 8.25 11C8.25 11.5874 8.4379 12.1553 8.78041 12.6236" stroke="#939393" stroke-width="1.5" stroke-linecap="round" stroke-linejoin="round"/>
</svg>
