<svg width="38" height="38" viewBox="0 0 38 38" fill="none" xmlns="http://www.w3.org/2000/svg">
<g id="Layer_1">
<path id="Vector" d="M26.7711 10.4492H16.9482C15.6366 10.4492 14.5732 11.5125 14.5732 12.8242C14.5732 14.1359 15.6366 15.1992 16.9482 15.1992H26.7711C28.0828 15.1992 29.1461 14.1359 29.1461 12.8242C29.1461 11.5125 28.0828 10.4492 26.7711 10.4492Z" fill="#11295A"/>
<path id="Vector_2" d="M11.7997 17.5664H1.89928C0.850337 17.5664 0 18.4167 0 19.4657C0 20.5146 0.850338 21.365 1.89928 21.365H11.7997C12.8486 21.365 13.699 20.5146 13.699 19.4657C13.699 18.4167 12.8486 17.5664 11.7997 17.5664Z" fill="#199CD8"/>
<path id="Vector_3" d="M12.6789 23.2227C13.2156 23.2227 13.6483 23.662 13.6403 24.1986C13.5571 24.1938 13.4788 24.1938 13.3956 24.1938C10.8956 24.1938 8.65971 25.3037 7.18218 27.0451L1.89611 27.0275C0.847897 27.024 0 26.1733 0 25.1251C0 24.0744 0.851753 23.2227 1.90244 23.2227H12.6789Z" fill="#199CD8"/>
<path id="Vector_4" d="M5.32303 32.0866C5.32303 32.2301 5.32793 32.3736 5.33282 32.5123H1.90167C0.851408 32.5123 0 31.6609 0 30.6107C0 29.5604 0.851409 28.709 1.90168 28.709H6.09605C5.60191 29.7328 5.32303 30.881 5.32303 32.0866Z" fill="#199CD8"/>
<path id="Vector_5" d="M7.76928 37.7458H1.89928C0.850337 37.7458 0 36.8955 0 35.8465C0 34.7976 0.850338 33.9473 1.89928 33.9473H5.54809C5.91013 35.416 6.69293 36.7268 7.76928 37.7458Z" fill="#199CD8"/>
<path id="Subtract" d="M33.1218 37.1536H19.5843C20.7585 35.7854 21.4679 34.0153 21.4679 32.0873C21.4679 28.2648 18.6889 25.0786 15 24.3514V16.1504H28.6597C28.6597 16.1504 43.7185 29.292 33.1218 37.1536Z" fill="#11295A"/>
<path id="Vector_6" d="M19.7114 32.0861C19.7114 33.2151 19.3885 34.2724 18.8259 35.167C17.7642 36.8654 15.8512 37.9992 13.6692 37.9992C13.0527 37.9992 12.4607 37.9083 11.903 37.7457C10.0292 37.1859 8.54186 35.7603 7.92541 33.9471C7.77374 33.4926 7.67589 33.0094 7.64164 32.5119C7.62696 32.3731 7.62207 32.2296 7.62207 32.0861C7.62207 30.8279 8.02325 29.6653 8.7082 28.7085C9.19745 28.0244 9.82369 27.4503 10.5576 27.0197C11.4676 26.4839 12.5292 26.1777 13.6692 26.1777H13.6985C14.3541 26.1825 14.9853 26.2878 15.5773 26.4791C17.9795 27.2589 19.7114 29.474 19.7114 32.0861Z" fill="#199CD8"/>
<path id="Vector_7" d="M13.3771 28.6662C12.8716 30.2991 11.5548 31.5868 9.88485 32.0811C9.65817 32.1481 9.65817 32.4519 9.88485 32.5189C11.5548 33.0132 12.8716 34.3009 13.3771 35.9338C13.4456 36.1554 13.7563 36.1554 13.8248 35.9338C14.3303 34.3009 15.6472 33.0132 17.3171 32.5189C17.5437 32.4519 17.5437 32.1481 17.3171 32.0811C15.6472 31.5868 14.3303 30.2991 13.8248 28.6662C13.7563 28.4446 13.4464 28.4446 13.3771 28.6662Z" fill="#EEF8FF"/>
<path id="Union" d="M32.0601 4.24201C32.065 4.18938 32.065 4.14154 32.065 4.08892L32.0601 3.8C32.0601 2.10021 31.7125 1.40403 30.9267 0.791667C30.9267 0.791667 30.7409 0.693693 30.7115 0.65542C30.1586 0.248773 29.4786 0.00478409 28.73 0.00478409C27.6194 0.00478409 26.6361 0.545386 26.0441 1.37303H26.0392C25.8484 1.57396 25.6673 1.81795 25.4961 2.10021H24.454C24.1604 1.30606 23.5489 0.65542 22.7661 0.301397C22.3453 0.110034 21.8903 0 21.3766 0C20.8629 0 20.3786 0.114818 19.948 0.320534C19.1897 0.67934 18.5928 1.32041 18.3041 2.10021H17.0419C16.5869 0.875488 15.3833 0 13.9694 0C13.2257 0 12.5359 0.243988 11.983 0.65542C11.0984 1.37303 10.6866 1.9 10.6866 3.8C10.6866 3.8 10.6914 3.85119 10.6865 3.97558V4.09996C10.6865 4.16694 10.6865 4.23392 10.6963 4.29611L12.1438 6.175L14.5173 9.5H29.1455L29.6313 8.55L32.0601 4.24201Z" fill="#11295A"/>
</g>
</svg>
