<svg width="50" height="50" viewBox="0 0 50 50" fill="none" xmlns="http://www.w3.org/2000/svg">
<path d="M10 25C10 26.9698 10.388 28.9204 11.1418 30.7403C11.8956 32.5601 13.0005 34.2137 14.3934 35.6066C15.7863 36.9995 17.4399 38.1044 19.2597 38.8582C21.0796 39.612 23.0302 40 25 40C26.9698 40 28.9204 39.612 30.7403 38.8582C32.5601 38.1044 34.2137 36.9995 35.6066 35.6066C36.9995 34.2137 38.1044 32.5601 38.8582 30.7403C39.612 28.9204 40 26.9698 40 25C40 23.0302 39.612 21.0796 38.8582 19.2597C38.1044 17.4399 36.9995 15.7863 35.6066 14.3934C34.2137 13.0005 32.5601 11.8956 30.7403 11.1418C28.9204 10.388 26.9698 10 25 10C23.0302 10 21.0796 10.388 19.2597 11.1418C17.4399 11.8956 15.7863 13.0005 14.3934 14.3934C13.0005 15.7863 11.8956 17.4399 11.1418 19.2597C10.388 21.0796 10 23.0302 10 25Z" stroke="#0D6EFD" stroke-width="2" stroke-linecap="round" stroke-linejoin="round"/>
<path d="M20.002 21.6665C20.002 22.9926 20.5287 24.2644 21.4664 25.202C22.4041 26.1397 23.6759 26.6665 25.002 26.6665C26.328 26.6665 27.5998 26.1397 28.5375 25.202C29.4752 24.2644 30.002 22.9926 30.002 21.6665C30.002 20.3404 29.4752 19.0687 28.5375 18.131C27.5998 17.1933 26.328 16.6665 25.002 16.6665C23.6759 16.6665 22.4041 17.1933 21.4664 18.131C20.5287 19.0687 20.002 20.3404 20.002 21.6665Z" stroke="#0D6EFD" stroke-width="2" stroke-linecap="round" stroke-linejoin="round"/>
<path d="M15.2793 36.4148C15.6918 35.0419 16.5359 33.8385 17.6864 32.9831C18.8368 32.1278 20.2324 31.6661 21.666 31.6665H28.3326C29.7681 31.666 31.1653 32.1288 32.3166 32.9861C33.4679 33.8435 34.3117 35.0495 34.7226 36.4248" stroke="#0D6EFD" stroke-width="2" stroke-linecap="round" stroke-linejoin="round"/>
</svg>
