<svg width="88" height="88" viewBox="0 0 88 88" fill="none" xmlns="http://www.w3.org/2000/svg">
<g id="Frame" clip-path="url(#clip0_1946_52361)">
<path id="Vector" d="M11 11L77 77" stroke="white" stroke-width="9.66667" stroke-linecap="round" stroke-linejoin="round"/>
<path id="Vector_2" d="M55 40.3338V36.6671L71.6943 28.3218C72.2532 28.0425 72.8742 27.9107 73.4983 27.9388C74.1224 27.9669 74.729 28.154 75.2606 28.4824C75.7921 28.8108 76.2308 29.2695 76.5353 29.8151C76.8397 30.3607 76.9997 30.975 77 31.5998V56.4011C77.0002 57.1651 76.7618 57.91 76.3181 58.5319C75.8744 59.1537 75.2475 59.6215 74.525 59.8698" stroke="white" stroke-width="9.66667" stroke-linecap="round" stroke-linejoin="round"/>
<path id="Vector_3" d="M36.6667 22H47.6667C49.6116 22 51.4768 22.7726 52.8521 24.1479C54.2274 25.5232 55 27.3884 55 29.3333V40.3333M55 55V58.6667C55 60.6116 54.2274 62.4768 52.8521 63.8521C51.4768 65.2274 49.6116 66 47.6667 66H18.3333C16.3884 66 14.5232 65.2274 13.1479 63.8521C11.7726 62.4768 11 60.6116 11 58.6667V29.3333C11 27.3884 11.7726 25.5232 13.1479 24.1479C14.5232 22.7726 16.3884 22 18.3333 22H22" stroke="white" stroke-width="9.66667" stroke-linecap="round" stroke-linejoin="round"/>
</g>
<defs>
<clipPath id="clip0_1946_52361">
<rect width="88" height="88" fill="white"/>
</clipPath>
</defs>
</svg>
