<svg width="16" height="17" viewBox="0 0 16 17" fill="none" xmlns="http://www.w3.org/2000/svg">
<g id="Frame" clip-path="url(#clip0_1946_52371)">
<path id="Vector" d="M10 7.16668L13.0353 5.64935C13.1369 5.59857 13.2499 5.5746 13.3633 5.57972C13.4768 5.58483 13.5871 5.61885 13.6837 5.67856C13.7804 5.73826 13.8602 5.82167 13.9155 5.92087C13.9709 6.02006 13.9999 6.13176 14 6.24535V10.7547C13.9999 10.8683 13.9709 10.98 13.9155 11.0792C13.8602 11.1784 13.7804 11.2618 13.6837 11.3215C13.5871 11.3812 13.4768 11.4152 13.3633 11.4203C13.2499 11.4254 13.1369 11.4015 13.0353 11.3507L10 9.83335V7.16668Z" stroke="#101010" stroke-width="1.5" stroke-linecap="round" stroke-linejoin="round"/>
<path id="Vector_2" d="M2 5.83333C2 5.47971 2.14048 5.14057 2.39052 4.89052C2.64057 4.64048 2.97971 4.5 3.33333 4.5H8.66667C9.02029 4.5 9.35943 4.64048 9.60948 4.89052C9.85952 5.14057 10 5.47971 10 5.83333V11.1667C10 11.5203 9.85952 11.8594 9.60948 12.1095C9.35943 12.3595 9.02029 12.5 8.66667 12.5H3.33333C2.97971 12.5 2.64057 12.3595 2.39052 12.1095C2.14048 11.8594 2 11.5203 2 11.1667V5.83333Z" stroke="#101010" stroke-width="1.5" stroke-linecap="round" stroke-linejoin="round"/>
</g>
<defs>
<clipPath id="clip0_1946_52371">
<rect width="16" height="16" fill="white" transform="translate(0 0.5)"/>
</clipPath>
</defs>
</svg>
