<svg width="12" height="13" viewBox="0 0 12 13" fill="none" xmlns="http://www.w3.org/2000/svg">
<g id="Group 48095975">
<g id="Group">
<path id="Vector" d="M6.41016 10.0254V11.418C6.41016 11.7399 6.67111 12.0011 6.9933 12.0011H9.33273C9.6547 12.0011 9.91588 11.7401 9.91588 11.418V10.0206C9.91588 9.69823 9.65401 9.43704 9.33159 9.4375L6.99216 9.4423C6.67065 9.44298 6.41038 9.70371 6.41038 10.0254H6.41016Z" stroke="#939393" stroke-width="0.7" stroke-linecap="round" stroke-linejoin="round"/>
<path id="Vector_2" d="M9.26463 10.5332C9.45393 10.5332 9.60739 10.3797 9.60739 10.1904C9.60739 10.0011 9.45393 9.84766 9.26463 9.84766C9.07533 9.84766 8.92188 10.0011 8.92188 10.1904C8.92188 10.3797 9.07533 10.5332 9.26463 10.5332Z" fill="#939393"/>
<path id="Vector_3" d="M6.94531 9.4409L6.98256 8.20218C6.9885 8.00132 7.06185 7.80892 7.18981 7.65399C7.3404 7.47165 7.58444 7.21069 7.94776 6.91318C8.05447 6.82589 8.20392 6.73198 8.34056 6.71415C8.49755 6.69382 8.69132 6.68582 8.7681 6.61727C8.83299 6.55923 9.3862 5.99688 9.64395 5.73455C9.74701 5.62967 9.88685 5.56683 10.0338 5.56455C10.2566 5.56135 10.5363 5.63904 10.497 6.06132C10.4849 6.19065 10.4264 6.31107 10.3347 6.40316C10.0132 6.72672 9.17529 7.56076 9.17529 7.56076" stroke="#939393" stroke-width="0.7" stroke-linecap="round" stroke-linejoin="round"/>
<path id="Vector_4" d="M10.1974 5.57965L10.315 5.12105C10.3724 4.89734 10.3994 4.66701 10.395 4.43622L10.3852 3.91591C10.3806 3.67941 10.48 3.44976 10.6637 3.301C10.8152 3.1783 11.0209 3.09992 11.2649 3.22697C11.3527 3.27267 11.4077 3.36339 11.41 3.4621C11.4196 3.8645 11.4404 4.4794 11.4539 4.86055C11.4619 5.0902 11.4528 5.32007 11.4265 5.54835L11.3243 6.43495C11.2823 6.80101 11.1331 7.14811 10.8886 7.42392C10.8152 7.50687 10.7289 7.5921 10.6274 7.67687C10.2958 7.95451 9.49128 8.69006 9.32812 9.44687" stroke="#939393" stroke-width="0.7" stroke-linecap="round" stroke-linejoin="round"/>
</g>
<g id="Group_2">
<path id="Vector_5" d="M5.59166 10.0254V11.418C5.59166 11.7399 5.33071 12.0011 5.00851 12.0011H2.66908C2.34712 12.0011 2.08594 11.7401 2.08594 11.418V10.0206C2.08594 9.69823 2.3478 9.43704 2.67022 9.4375L5.00966 9.4423C5.33116 9.44298 5.59143 9.70371 5.59143 10.0254H5.59166Z" stroke="#939393" stroke-width="0.7" stroke-linecap="round" stroke-linejoin="round"/>
<path id="Vector_6" d="M2.73729 10.5332C2.92659 10.5332 3.08005 10.3797 3.08005 10.1904C3.08005 10.0011 2.92659 9.84766 2.73729 9.84766C2.54799 9.84766 2.39453 10.0011 2.39453 10.1904C2.39453 10.3797 2.54799 10.5332 2.73729 10.5332Z" fill="#939393"/>
<path id="Vector_7" d="M5.05928 9.4409L5.02204 8.20218C5.01609 8.00132 4.94274 7.80892 4.81478 7.65399C4.6642 7.47165 4.42015 7.21069 4.05683 6.91318C3.95012 6.82589 3.80068 6.73198 3.66403 6.71415C3.50705 6.69382 3.31328 6.68582 3.2365 6.61727C3.1716 6.55923 2.61839 5.99688 2.36064 5.73455C2.25758 5.62967 2.11774 5.56683 1.97081 5.56455C1.74802 5.56135 1.46833 5.63904 1.50763 6.06132C1.51974 6.19065 1.57824 6.31107 1.66987 6.40316C1.99138 6.72672 2.8293 7.56076 2.8293 7.56076" stroke="#939393" stroke-width="0.7" stroke-linecap="round" stroke-linejoin="round"/>
<path id="Vector_8" d="M1.80622 5.57965L1.68854 5.12105C1.63119 4.89734 1.60422 4.66701 1.60857 4.43622L1.61839 3.91591C1.62296 3.67941 1.52356 3.44976 1.33984 3.301C1.18835 3.1783 0.982691 3.09992 0.738648 3.22697C0.650902 3.27267 0.595832 3.36339 0.593547 3.4621C0.58395 3.8645 0.563156 4.4794 0.549674 4.86055C0.541677 5.0902 0.550817 5.32007 0.577095 5.54835L0.679236 6.43495C0.721281 6.80101 0.870495 7.14811 1.115 7.42392C1.18835 7.50687 1.27472 7.5921 1.37618 7.67687C1.70774 7.95451 2.5123 8.69006 2.67545 9.44687" stroke="#939393" stroke-width="0.7" stroke-linecap="round" stroke-linejoin="round"/>
</g>
<path id="Vector_9" d="M6.02744 4.44356C6.54095 4.44356 6.95723 4.02728 6.95723 3.51377C6.95723 3.00026 6.54095 2.58398 6.02744 2.58398C5.51394 2.58398 5.09766 3.00026 5.09766 3.51377C5.09766 4.02728 5.51394 4.44356 6.02744 4.44356Z" stroke="#939393" stroke-width="0.7" stroke-linecap="round" stroke-linejoin="round"/>
<path id="Vector_10" d="M8.38371 2.91624L8.15681 3.10293C7.89791 3.3159 7.89791 3.71235 8.15681 3.92532L8.38371 4.11201C8.46415 4.17827 8.48494 4.29275 8.43284 4.38301L7.98474 5.15902C7.93264 5.24928 7.82296 5.28858 7.72539 5.25202L7.45027 5.14896C7.1363 5.03128 6.79309 5.2294 6.73802 5.56027L6.68981 5.85024C6.67267 5.95307 6.58378 6.02825 6.47958 6.02825H5.58339C5.47919 6.02825 5.3903 5.95284 5.37316 5.85024L5.32495 5.56027C5.26988 5.22962 4.92666 5.03151 4.6127 5.14896L4.33758 5.25202C4.24001 5.28858 4.13032 5.24928 4.07822 5.15902L3.63013 4.38301C3.57803 4.29275 3.59882 4.17827 3.67926 4.11201L3.90616 3.92532C4.16506 3.71235 4.16506 3.3159 3.90616 3.10293L3.67926 2.91624C3.59882 2.84998 3.57803 2.73549 3.63013 2.64523L4.07822 1.86923C4.13032 1.77897 4.24001 1.73967 4.33758 1.77623L4.6127 1.87929C4.92666 1.99697 5.26988 1.79885 5.32495 1.46798L5.37316 1.17801C5.3903 1.07518 5.47919 1 5.58339 1H6.47958C6.58378 1 6.67267 1.07541 6.68981 1.17801L6.73802 1.46798C6.79309 1.79862 7.1363 1.99674 7.45027 1.87929L7.72539 1.77623C7.82296 1.73967 7.93264 1.77897 7.98474 1.86923L8.43284 2.64523C8.48494 2.73549 8.46415 2.84998 8.38371 2.91624Z" stroke="#939393" stroke-width="0.7" stroke-linecap="round" stroke-linejoin="round"/>
</g>
</svg>
