<svg width="12" height="12" viewBox="0 0 12 12" fill="none" xmlns="http://www.w3.org/2000/svg">
<g id="Group 48095939">
<path id="Vector" d="M6.48935 9.99993H1.8734C1.3924 9.99993 1 9.60753 1 9.12653V3.45153C1 2.97052 1.3924 2.57812 1.8734 2.57812H9.16862C9.64963 2.57812 10.042 2.97052 10.042 3.45153V7.19407" stroke="#939393" stroke-width="0.8" stroke-miterlimit="10"/>
<path id="Vector_2" d="M7.96484 1V2.57803" stroke="#939393" stroke-width="0.8" stroke-miterlimit="10" stroke-linecap="round"/>
<path id="Vector_3" d="M3.08594 1V2.57803" stroke="#939393" stroke-width="0.8" stroke-miterlimit="10" stroke-linecap="round"/>
<path id="Vector_4" d="M1 4.55664H10.0462" stroke="#939393" stroke-width="0.8" stroke-miterlimit="10"/>
<path id="Vector_5" fill-rule="evenodd" clip-rule="evenodd" d="M10.6416 8.73094C10.6416 9.98408 9.6247 11.0009 8.37156 11.0009C7.11842 11.0009 6.10578 9.98408 6.10156 8.73094C6.10156 7.4778 7.11842 6.46094 8.37156 6.46094C9.6247 6.46094 10.6416 7.4778 10.6416 8.73094Z" stroke="#939393" stroke-width="0.8" stroke-miterlimit="10"/>
<path id="Vector_6" d="M7.12891 8.6504L7.93058 9.41832C8.00231 9.48583 8.11623 9.48583 8.18374 9.41832L9.60987 7.99219" stroke="#939393" stroke-width="0.8" stroke-miterlimit="10" stroke-linecap="round"/>
</g>
</svg>
