<svg width="12" height="13" viewBox="0 0 12 13" fill="none" xmlns="http://www.w3.org/2000/svg">
<g id="Group 48095977">
<path id="Vector" d="M0.441406 6.5C0.441406 7.22227 0.583668 7.93747 0.860069 8.60476C1.13647 9.27205 1.5416 9.87836 2.05232 10.3891C2.56304 10.8998 3.16936 11.3049 3.83665 11.5813C4.50394 11.8577 5.21914 12 5.94141 12C6.66368 12 7.37887 11.8577 8.04617 11.5813C8.71346 11.3049 9.31977 10.8998 9.83049 10.3891C10.3412 9.87836 10.7463 9.27205 11.0227 8.60476C11.2991 7.93747 11.4414 7.22227 11.4414 6.5C11.4414 5.77773 11.2991 5.06253 11.0227 4.39524C10.7463 3.72795 10.3412 3.12163 9.83049 2.61091C9.31977 2.10019 8.71346 1.69506 8.04617 1.41866C7.37887 1.14226 6.66368 1 5.94141 1C5.21914 1 4.50394 1.14226 3.83665 1.41866C3.16936 1.69506 2.56304 2.10019 2.05232 2.61091C1.5416 3.12163 1.13647 3.72795 0.860069 4.39524C0.583668 5.06253 0.441406 5.77773 0.441406 6.5Z" stroke="#939393" stroke-width="0.8" stroke-linecap="round" stroke-linejoin="round"/>
<path id="Vector_2" d="M4.10938 5.27669C4.10938 5.76292 4.30253 6.22924 4.64635 6.57306C4.99016 6.91687 5.45648 7.11003 5.94271 7.11003C6.42894 7.11003 6.89525 6.91687 7.23907 6.57306C7.58289 6.22924 7.77604 5.76292 7.77604 5.27669C7.77604 4.79046 7.58289 4.32415 7.23907 3.98033C6.89525 3.63651 6.42894 3.44336 5.94271 3.44336C5.45648 3.44336 4.99016 3.63651 4.64635 3.98033C4.30253 4.32415 4.10938 4.79046 4.10938 5.27669Z" stroke="#939393" stroke-width="0.8" stroke-linecap="round" stroke-linejoin="round"/>
<path id="Vector_3" d="M2.37891 10.6864C2.53016 10.183 2.83966 9.7417 3.2615 9.42808C3.68334 9.11445 4.19503 8.94516 4.72068 8.94531H7.16513C7.69145 8.94513 8.20378 9.11483 8.62592 9.42918C9.04806 9.74353 9.35747 10.1857 9.50813 10.69" stroke="#939393" stroke-width="0.8" stroke-linecap="round" stroke-linejoin="round"/>
</g>
</svg>
