<svg width="9" height="12" viewBox="0 0 9 12" fill="none" xmlns="http://www.w3.org/2000/svg">
<g id="Group 48095943">
<path id="path1017" d="M7.8829 3.66155V10.585C7.8829 10.8142 7.69712 11 7.46792 11H0.82905C0.59985 11 0.414062 10.8142 0.414062 10.585V1.41499C0.414062 1.18579 0.59985 1 0.82905 1H5.22151C5.33152 1 5.43701 1.04372 5.51481 1.12152L7.76138 3.36809C7.83918 3.44589 7.8829 3.55139 7.8829 3.66155Z" stroke="#939393" stroke-width="0.8" stroke-linecap="round" stroke-linejoin="round"/>
<path id="path1021" d="M7.818 3.48871H5.80561C5.57641 3.48871 5.39062 3.30292 5.39062 3.07372V1.08203" stroke="#939393" stroke-width="0.8" stroke-linecap="round" stroke-linejoin="round"/>
<path id="path1025" d="M4.48438 5.12891H6.4672" stroke="#939393" stroke-width="0.8" stroke-linecap="round" stroke-linejoin="round"/>
<path id="path1029" d="M4.48438 7.20312H6.4672" stroke="#939393" stroke-width="0.8" stroke-linecap="round" stroke-linejoin="round"/>
<path id="path1033" d="M4.48438 9.27734H6.47607" stroke="#939393" stroke-width="0.8" stroke-linecap="round" stroke-linejoin="round"/>
<path id="path1037" d="M1.82422 5.04849L2.21353 5.43781L3.15118 4.5" stroke="#939393" stroke-width="0.8" stroke-linecap="round" stroke-linejoin="round"/>
<path id="path1041" d="M1.82422 7.28271L2.21353 7.67203L3.15118 6.73438" stroke="#939393" stroke-width="0.8" stroke-linecap="round" stroke-linejoin="round"/>
<path id="path1045" d="M1.82422 9.35693L2.21353 9.74624L3.15118 8.80859" stroke="#939393" stroke-width="0.8" stroke-linecap="round" stroke-linejoin="round"/>
</g>
</svg>
