<svg width="12" height="12" viewBox="0 0 12 12" fill="none" xmlns="http://www.w3.org/2000/svg">
<g id="Group 48095935">
<path id="Vector" d="M1.73828 11.0004C3.6429 9.85751 4.59549 8.71463 4.59549 7.57175C4.59549 5.85742 4.02405 5.85742 3.45261 5.85742C2.88116 5.85742 2.29144 6.47744 2.30972 7.57175C2.32915 8.74206 3.25717 9.21578 3.73833 9.85751C4.59549 11.0004 5.16693 11.2861 5.73837 10.429C6.11952 9.85751 6.40525 9.3815 6.59554 9.00035C7.16698 10.3335 7.92871 11.0004 8.8813 11.0004H10.3099" stroke="#939393" stroke-width="0.8" stroke-linecap="round" stroke-linejoin="round"/>
<path id="Vector_2" d="M11.4537 9.8576V3.00031C11.4537 2.35972 10.9514 1.85742 10.3109 1.85742C9.67027 1.85742 9.16797 2.35972 9.16797 3.00031V9.8576L10.3109 11.0005L11.4537 9.8576Z" stroke="#939393" stroke-width="0.8" stroke-linecap="round" stroke-linejoin="round"/>
<path id="Vector_3" d="M9.16797 4.14258H11.4537" stroke="#939393" stroke-width="0.8" stroke-linecap="round" stroke-linejoin="round"/>
<path id="Vector_4" d="M2.81151 1.65936C2.81151 1.83423 2.74377 2.00194 2.6232 2.12559C2.50262 2.24924 2.33908 2.31871 2.16856 2.31871C1.99803 2.31871 1.83449 2.24924 1.71392 2.12559C1.59334 2.00194 1.5256 1.83423 1.5256 1.65936C1.5256 1.48448 1.59334 1.31677 1.71392 1.19312C1.83449 1.06947 1.99803 1 2.16856 1C2.33908 1 2.50262 1.06947 2.6232 1.19312C2.74377 1.31677 2.81151 1.48448 2.81151 1.65936V1.65936ZM0.882812 4.1417C0.888322 3.79573 1.02621 3.46584 1.26673 3.22318C1.50726 2.98051 1.83115 2.84452 2.16856 2.84452C2.50596 2.84452 2.82986 2.98051 3.07038 3.22318C3.3109 3.46584 3.44879 3.79573 3.4543 4.1417C3.05093 4.33137 2.61231 4.42926 2.16856 4.42865C1.70974 4.42865 1.27425 4.32596 0.882812 4.1417Z" stroke="#939393" stroke-width="0.8" stroke-linecap="round" stroke-linejoin="round"/>
</g>
</svg>
