<svg width="13" height="12" viewBox="0 0 13 12" fill="none" xmlns="http://www.w3.org/2000/svg">
<g id="Group 48095941">
<path id="path1272" d="M6.52775 2.91211C5.24126 2.91211 4.19922 3.95515 4.19922 5.23997C4.19922 6.52479 5.24126 7.56916 6.52775 7.56916C7.81423 7.56916 8.85627 6.52612 8.85627 5.23997C8.85627 3.95382 7.81423 2.91211 6.52775 2.91211Z" stroke="#939393" stroke-width="0.8" stroke-linecap="round" stroke-linejoin="round"/>
<path id="path1276" d="M8.822 5.65572H8.85863C10.1451 5.65572 11.1872 4.61368 11.1872 3.32786C11.1872 2.04204 10.1451 1 8.85863 1C7.71435 1 6.76289 1.82557 6.56641 2.91391" stroke="#939393" stroke-width="0.8" stroke-linecap="round" stroke-linejoin="round"/>
<path id="path1280" d="M6.48794 2.91391C6.29279 1.82557 5.34 1 4.19571 1C2.90923 1 1.86719 2.04204 1.86719 3.32786C1.86719 4.61368 2.90923 5.65572 4.19571 5.65572H4.23235" stroke="#939393" stroke-width="0.8" stroke-linecap="round" stroke-linejoin="round"/>
<path id="path1284" d="M5.06715 7.05469C3.83229 7.61451 2.96875 8.85903 2.96875 10.2974V10.9994H10.0855V10.2974C10.0855 8.85903 9.222 7.61451 7.98714 7.05469" stroke="#939393" stroke-width="0.8" stroke-linecap="round" stroke-linejoin="round"/>
<path id="path1288" d="M9.87109 9.08533H12.4138V8.38331C12.4138 6.9463 11.5489 5.70044 10.3144 5.14062" stroke="#939393" stroke-width="0.8" stroke-linecap="round" stroke-linejoin="round"/>
<path id="path1292" d="M2.7387 5.14062C1.50383 5.70044 0.640625 6.9463 0.640625 8.38331V9.08533H3.18196" stroke="#939393" stroke-width="0.8" stroke-linecap="round" stroke-linejoin="round"/>
</g>
</svg>
