<svg width="24" height="24" viewBox="0 0 24 24" fill="none" xmlns="http://www.w3.org/2000/svg">
<g id="favourites 11" clip-path="url(#clip0_3426_90411)">
<path id="Vector" d="M12.8831 1.08803L16.0575 7.52009L23.1557 8.55153C23.9635 8.66885 24.286 9.66152 23.7016 10.2313L18.5652 15.2379L19.7777 22.3074C19.9157 23.1119 19.0713 23.7254 18.3488 23.3455L12 20.0078L5.65114 23.3455C4.92871 23.7253 4.08431 23.1119 4.2223 22.3074L5.43482 15.2379L0.298461 10.2312C-0.286021 9.66148 0.0365243 8.6689 0.844271 8.55148L7.94248 7.52005L11.1169 1.08803C11.4782 0.356075 12.5218 0.356075 12.8831 1.08803Z" fill="url(#paint0_linear_3426_90411)"/>
<path id="Vector_2" d="M16.0574 7.52008L12.8831 1.08801C12.7025 0.722062 12.3512 0.539062 12 0.539062V12.7166L16.0574 7.52008Z" fill="url(#paint1_linear_3426_90411)"/>
<path id="Vector_3" d="M18.5652 15.239L23.7015 10.2323C23.9898 9.95122 24.0571 9.56736 23.9546 9.23633L12 12.7177L18.5652 15.239Z" fill="url(#paint2_linear_3426_90411)"/>
<path id="Vector_4" d="M19.3889 23.2685L12 12.7168V20.008L18.3488 23.3458C18.7113 23.5363 19.1045 23.4767 19.3889 23.2685Z" fill="url(#paint3_linear_3426_90411)"/>
<path id="Vector_5" d="M12.0035 12.7168L5.43835 15.2381L4.22588 22.3076C4.15712 22.7084 4.33233 23.0617 4.61466 23.2685L12.0035 12.7168Z" fill="url(#paint4_linear_3426_90411)"/>
<path id="Vector_6" d="M0.0390625 9.23673L11.9936 12.718L7.93616 7.52148L0.83795 8.55297C0.428686 8.6124 0.144343 8.8967 0.0390625 9.23673Z" fill="url(#paint5_linear_3426_90411)"/>
<path id="Vector_7" d="M5.43453 15.2389L0.298179 10.2323C0.00985234 9.95122 -0.057413 9.56736 0.0451022 9.23633L11.9997 12.7176L5.43453 15.2389Z" fill="url(#paint6_linear_3426_90411)"/>
</g>
<defs>
<linearGradient id="paint0_linear_3426_90411" x1="12.0004" y1="3.21228" x2="12.0004" y2="29.6935" gradientUnits="userSpaceOnUse">
<stop stop-color="#FFCF95"/>
<stop offset="0.427" stop-color="#FFC954"/>
<stop offset="1" stop-color="#FFC200"/>
</linearGradient>
<linearGradient id="paint1_linear_3426_90411" x1="18.2205" y1="6.62721" x2="10.2153" y2="6.62721" gradientUnits="userSpaceOnUse">
<stop stop-color="#FFC200" stop-opacity="0"/>
<stop offset="0.203" stop-color="#FFBB00" stop-opacity="0.203"/>
<stop offset="0.499" stop-color="#FFA700" stop-opacity="0.499"/>
<stop offset="0.852" stop-color="#FF8800" stop-opacity="0.852"/>
<stop offset="1" stop-color="#FF7800"/>
</linearGradient>
<linearGradient id="paint2_linear_3426_90411" x1="19.5881" y1="18.8933" x2="17.468" y2="8.45301" gradientUnits="userSpaceOnUse">
<stop stop-color="#FFC200" stop-opacity="0"/>
<stop offset="0.203" stop-color="#FFBB00" stop-opacity="0.203"/>
<stop offset="0.499" stop-color="#FFA700" stop-opacity="0.499"/>
<stop offset="0.852" stop-color="#FF8800" stop-opacity="0.852"/>
<stop offset="1" stop-color="#FF7800"/>
</linearGradient>
<linearGradient id="paint3_linear_3426_90411" x1="9.3083" y1="24.379" x2="17.6115" y2="16.0758" gradientUnits="userSpaceOnUse">
<stop stop-color="#FFC200" stop-opacity="0"/>
<stop offset="0.203" stop-color="#FFBB00" stop-opacity="0.203"/>
<stop offset="0.499" stop-color="#FFA700" stop-opacity="0.499"/>
<stop offset="0.852" stop-color="#FF8800" stop-opacity="0.852"/>
<stop offset="1" stop-color="#FF7800"/>
</linearGradient>
<linearGradient id="paint4_linear_3426_90411" x1="3.39068" y1="13.8788" x2="9.51085" y2="18.9989" gradientUnits="userSpaceOnUse">
<stop stop-color="#FFC200" stop-opacity="0"/>
<stop offset="0.203" stop-color="#FFBB00" stop-opacity="0.203"/>
<stop offset="0.499" stop-color="#FFA700" stop-opacity="0.499"/>
<stop offset="0.852" stop-color="#FF8800" stop-opacity="0.852"/>
<stop offset="1" stop-color="#FF7800"/>
</linearGradient>
<linearGradient id="paint5_linear_3426_90411" x1="7.96869" y1="5.4342" x2="5.48863" y2="12.4744" gradientUnits="userSpaceOnUse">
<stop stop-color="#FFC200" stop-opacity="0"/>
<stop offset="0.203" stop-color="#FFBB00" stop-opacity="0.203"/>
<stop offset="0.499" stop-color="#FFA700" stop-opacity="0.499"/>
<stop offset="0.852" stop-color="#FF8800" stop-opacity="0.852"/>
<stop offset="1" stop-color="#FF7800"/>
</linearGradient>
<linearGradient id="paint6_linear_3426_90411" x1="17.3103" y1="6.169" x2="-0.910185" y2="13.9292" gradientUnits="userSpaceOnUse">
<stop stop-color="#FFC200" stop-opacity="0"/>
<stop offset="0.203" stop-color="#FFBB00" stop-opacity="0.203"/>
<stop offset="0.499" stop-color="#FFA700" stop-opacity="0.499"/>
<stop offset="0.852" stop-color="#FF8800" stop-opacity="0.852"/>
<stop offset="1" stop-color="#FF7800"/>
</linearGradient>
<clipPath id="clip0_3426_90411">
<rect width="24" height="24" fill="white"/>
</clipPath>
</defs>
</svg>
