<svg width="19" height="19" viewBox="0 0 19 19" fill="none" xmlns="http://www.w3.org/2000/svg">
<mask id="path-2-inside-1_3967_224" fill="white">
<rect x="3" y="6" width="13" height="12" rx="1.86586"/>
</mask>
<rect x="3" y="6" width="13" height="12" rx="1.86586" fill="url(#paint0_linear_3967_224)"/>
<rect x="3" y="6" width="13" height="12" rx="1.86586" fill="black" fill-opacity="0.1"/>
<rect x="3" y="6" width="13" height="12" rx="1.86586" stroke="#929292" stroke-opacity="0.1" stroke-width="12" mask="url(#path-2-inside-1_3967_224)"/>
<path d="M12.5 4C12.5 3.20435 12.1839 2.44129 11.6213 1.87868C11.0587 1.31607 10.2956 1 9.5 1C8.70435 1 7.94129 1.31607 7.37868 1.87868C6.81607 2.44129 6.5 3.20435 6.5 4" stroke="url(#paint1_linear_3967_224)" stroke-width="1.5" stroke-linecap="round"/>
<path fill-rule="evenodd" clip-rule="evenodd" d="M10.4015 12.1061C10.3496 11.8988 10.4418 11.6868 10.5888 11.5317C10.8437 11.2629 11 10.8997 11 10.5C11 9.67157 10.3284 9 9.5 9C8.67157 9 8 9.67157 8 10.5C8 10.8998 8.15638 11.263 8.41131 11.5319C8.55835 11.687 8.65059 11.899 8.59876 12.1064L8.15546 13.8796C8.07656 14.1951 8.31524 14.5008 8.64053 14.5008H10.3598C10.685 14.5008 10.9237 14.1951 10.8448 13.8796L10.4015 12.1061Z" fill="white"/>
<defs>
<linearGradient id="paint0_linear_3967_224" x1="6.19867" y1="8.36143" x2="14.4249" y2="13.8591" gradientUnits="userSpaceOnUse">
<stop stop-color="#B6C0D6"/>
<stop offset="1" stop-color="#6B6A7B" stop-opacity="0.84"/>
</linearGradient>
<linearGradient id="paint1_linear_3967_224" x1="7.97631" y1="1.59036" x2="10.1539" y2="4.27707" gradientUnits="userSpaceOnUse">
<stop stop-color="#B6C0D6"/>
<stop offset="1" stop-color="#6B6A7B" stop-opacity="0.84"/>
</linearGradient>
</defs>
</svg>
