<svg width="766" height="800" viewBox="0 0 766 800" fill="none" xmlns="http://www.w3.org/2000/svg">
<path d="M520.133 772.217L513.999 773.43L503.955 776.121L484.583 752.032L492.317 755.988L503.43 762.914L521.09 766.148L536.561 765.232L536.569 771.689L527.892 774.659L520.133 772.217Z" stroke="white" stroke-width="0.2" stroke-linecap="round" stroke-linejoin="round"/>
<path d="M347.453 372.83L375.749 387.638L385.528 387.171L402.775 392.884L415.972 394.73L419.688 399.762L416.526 421.708L429.092 422.001L442.285 420.619L450.184 416.35L456.13 403.992L453.718 392.582L458.241 388.571L466.714 394.482L470.263 404.511L463.71 413.802L458.481 420.801L451.226 436.308L443.856 457.013L445.65 467.728L448.399 481.201L454.254 493.411L453.2 496.707L456.21 504.728L458.643 511.396L477.271 518.246L480.041 526.976L489.382 530.501L491.653 536.567L489.438 554.815L477.261 565.613L457.472 573.714L445.043 575.537L451.36 582.241L454.091 591.628L459.429 597.087L455.645 603.053L445.885 607.606L433.344 605.799L431.246 610.021L439.659 621.331L448.716 622.994L452.26 617.739L459.058 623.022L451.698 629.3L448.025 638.896L453.827 650.905L455.456 657.788L445.814 660.372L441.51 668.414L444.294 678.002L459.827 683.744L470.918 683.356L474.388 694.698L467.032 704.204L469.756 719.191L464.017 725.895L463.77 732.205L475.705 743.001L486.829 747.556L482.449 748.083L472.068 748.712L447.332 753.618L438.364 748.27L432.072 740.053L426.06 742.525L419.599 739.304L409.874 727.916L413.79 720.838L411.892 712.95L406.554 707.491L405.053 696.267L398.377 680.187L392.769 673.724L395.739 670.345L391.635 666.277L385.365 665.374L385.519 659.52L378 656.367L366.639 643.695L369.354 640.169L358.527 626.277L353.421 613.651L349.952 602.309L353.735 596.343L343.716 585.464L337.38 574.675L341.146 564.624L335.427 554.53L335.304 541.215L329.316 530.117L325.456 528.568L309.639 508.908L310.305 494.521L303.553 482.982L302.186 470.646L304.179 457.194L308.655 447.383L303.292 443.438L303.768 438.789L294.795 418.157L304.375 408.916L303.18 394.811L300.511 392.082L305.424 378.278L321.35 377.455L331.259 384.704L331.674 373.398L344.691 370.556L347.453 372.83Z" stroke="white" stroke-width="0.2" stroke-linecap="round" stroke-linejoin="round"/>
<path d="M388.302 333.25L386.623 329.394L374 325.671L363.501 328.269L345.24 337.253L344.035 349.632L346.321 356.555L347.452 372.829L344.69 370.555L331.673 373.398L331.258 384.704L321.35 377.455L305.423 378.278L300.51 392.082L293.16 395.989L282.143 379.78L270.835 367.308L269.708 354.262L261.827 350.561L256.941 341.967L248.144 334.851L250.256 319.43L241.524 310.144L242.55 305.132L238.847 300.957L240.942 293.507L237.433 282.821L234.957 273.581L236.036 268.771L219.39 250.84L228.15 249.785L233.868 247.822L235.055 243.414L243.297 235.608L247.83 229.226L261.902 223.087L263.682 232.944L266.835 237.482L268.547 246.281L284.672 254.232L298.12 252.997L304.032 256.58L312.565 257.092L318.556 259.362L325.586 257.478L333.439 259.465L336.434 266.628L339.868 269.799L341.923 275.061L338.562 276.177L348.224 289.735L369.878 284.578L370.865 292.28L373.818 296.871L381.215 298.764L386.782 305.884L388.322 316.451L387.218 322.776L390.762 329.576L388.302 333.25V333.25Z" stroke="white" stroke-width="0.2" stroke-linecap="round" stroke-linejoin="round"/>
<path d="M318.61 46.6381L325.16 46.1748L325.612 43.0396L322.957 41.1674L323.14 37.0279L328.083 36.9952L333.13 34.1359L340.311 35.2257L346.032 36.4914L348.532 32.1617L351.251 31.8637L353.827 35.0488L359.035 32.7921L362.109 26.5862L363.195 16.1764L366.849 2.49498L370.705 0.815858L375.254 7.34755L387.308 28.2305L394.127 28.7716L396.696 37.5561L390.912 50.5166L395.349 53.4182L416.175 49.9908L420.076 62.9397L426.453 52.1888L441.952 52.9874L463.134 55.7081L470.75 61.6333L470.88 69.3491L483.061 61.7793L506.987 62.6884L523.953 57.7117L543.679 63.8366L562.419 74.3165L572.226 75.5639L582.029 73.5831L587.324 76.4703L595.755 91.8652L600.064 99.1072L601.551 121.53L598.388 131.42L587.711 153.442L584.81 169.935L579.736 183.136L577.031 184.291L576.95 194.432L585.216 218.052L588.335 238.531L589.993 247.129L588.179 253.212L591.803 270.757L585.825 290.228L588.427 303.955L581.243 311.693L581.132 320.119L569.08 323.349L553.298 332.745L547.426 340.561L536.397 347.607L526.888 361.135L522.097 376.197L524.078 386.001L528.573 392.332L531.469 405.55L531.531 412.207L526.639 421.269L523.682 446.389L518.338 458.586L513.579 466.535L513.849 479.596L509.961 488.388L503.805 482.287L505.752 475.091L495.805 468.499L484.225 463.851L469.364 459.006L465.655 460.43L450.309 453.778L443.856 457.014L451.226 436.308L458.481 420.801L463.71 413.802L470.263 404.511L466.714 394.482L458.241 388.571L453.718 392.582L453.133 384.773L451.69 376.978L449.15 369.908L444.34 368.829L440.861 371.914L436.481 372.442L433.582 368.052L428.197 356.792L424.764 353.622L415.961 352.105L412.241 355.901L399.69 356.465L394.204 339.204L388.303 333.25L390.763 329.577L387.219 322.776L388.323 316.452L386.783 305.884L381.216 298.765L373.819 296.871L370.866 292.28L369.879 284.579L348.224 289.735L338.563 276.177L341.924 275.061L339.869 269.799L336.435 266.628L333.44 259.465L325.587 257.479L318.557 259.362L312.566 257.092L304.032 256.58L298.121 252.997L284.673 254.232L268.548 246.281L266.836 237.482L263.683 232.945L261.903 223.088L247.831 229.226L243.298 235.608L235.055 243.414L233.869 247.823L228.151 249.785L219.391 250.841L213.555 254.773L207.956 254.766L202.534 235.335L195.687 245.136L185.59 247.626L179.086 241.834L171.292 243.276L171.793 237.114L163.065 231.056L154.721 220.805L157.142 217.788L155.233 212.271L161.094 206.825L157.804 200.172L159.432 194.999L158.42 188.811L168.707 176.582L177.301 171.696L178.37 169.256L188.776 167.114L183.722 130.576L182.416 124.898L178.67 118.151L172.156 114.73L169.827 105.235L175.717 101.504L178.303 102.318L177.359 97.1885L170.354 97.5586L168.201 89.5237L190.404 84.0049L192.983 78.3622L197.327 81.7193L201.381 88.8142L203.16 86.6151L211.217 91.7763L219.84 88.6045L220.973 83.9951L228.603 78.7214L232.831 75.2201L232.784 69.4198L240.051 63.5973L238.695 60.9466L228.784 62.5258L225.171 54.6668L223.459 45.8678L217.576 43.9995L219.463 42.2022L228.129 41.6024L238.03 42.3943L240.637 38.4663L248.335 34.2508L259.899 25.9852L262.772 19.8331L260.397 16.5941L266.315 14.5777L269.479 16.744L269.433 22.9999L273.935 23.7312L277.96 29.1115L275.984 34.5928L276.882 45.9781L281.47 51.8533L283.687 57.7179L292.333 61.8603L298.118 60.9559L298.624 58.0216L302.078 56.4501L306.709 52.8411L309.409 48.4575L316.16 47.9404L318.61 46.6381V46.6381Z" stroke="white" stroke-width="0.2" stroke-linecap="round" stroke-linejoin="round"/>
<path d="M120.977 -36.9026L114.136 -32.7016L112.645 -25.4125L108.994 -20.5589L106.67 -14.7691L107.338 -5.04466L105.767 3.55731L111.808 2.7999L114.574 8.30223L117.792 10.6694L119.74 15.5297L119.626 20.7274L120.58 23.4858L123.661 23.7367L127.256 27.5099L141.597 22.3756L148.656 22.2064L159.303 31.4099L163.546 28.7659L171.944 27.1617L177.995 24.0333L182.604 25.1664L182.024 32.6419L180.597 37.7608L181.867 47.3238L186.391 55.3693L190.427 58.3785L191.582 61.083L187.479 69.0718L192.25 70.8075L196.501 74.6202L203.16 86.6148L201.381 88.8139L197.327 81.7189L192.983 78.3619L190.404 84.0045L168.2 89.5233L170.353 97.5582L177.359 97.1881L178.303 102.318L175.716 101.504L169.827 105.235L172.156 114.729L178.67 118.151L182.416 124.898L183.722 130.576L188.776 167.114L181.12 161.845L177.652 162.559L181.13 147.418L170.677 143.76L164.17 146.795L159.36 145.716L154.048 150.799L145.127 151.252L134.49 139.677L128.406 137.863L123.122 132.604L113.874 128.624L111.184 130.636L105.556 128.915L98.8009 126.204L96.1253 129.073L85.9991 129.849L81.6798 124.978L79.524 125.771L66.3375 121.554L63.8549 117.913L67.8042 115.779L65.6801 109.458L67.2006 103.884L72.6096 101.573L75.4785 92.1929L78.0677 84.1792L73.2429 82.2426L73.6618 74.1644L68.2767 62.9051L69.973 58.7905L65.6604 48.3203L59.3575 42.4738L59.4968 35.7624L63.3815 35.798L64.5686 31.3893L60.3136 24.3483L61.2353 22.1637L67.1683 21.0045L73.7855 9.54326L78.2296 6.84546L77.3002 2.5733L77.1521 -9.22814L82.4209 -16.8834L89.3437 -19.169L89.8492 -22.1032L98.9567 -23.4671L106.474 -32.3709L110.341 -36.421L114.498 -44.2089L118.73 -44.4819L122.257 -41.7668L120.977 -36.9026V-36.9026Z" stroke="white" stroke-width="0.2" stroke-linecap="round" stroke-linejoin="round"/>
<path d="M111.185 130.636L115.429 140.048L114.221 149.199L105.628 166.141L93.5149 174.769L89.6994 187.848L90.2059 196.97L85.4322 204.062L78.6342 198.779L73.6373 198.611L69.2864 200.853L67.4459 196.395L69.8525 192.52L66.9932 187.473L70.2349 176.271L66.1165 171.346L63.513 178.502L54.9216 174.561L56.1623 170.353L51.0318 159.241L54.511 156.156L54.3668 147.583L56.3783 138.217L54.3763 133.155L59.8499 128.675L66.3382 121.554L79.5247 125.771L81.6804 124.978L85.9997 129.849L96.126 129.073L98.8016 126.204L105.556 128.915L111.185 130.636V130.636Z" stroke="white" stroke-width="0.2" stroke-linecap="round" stroke-linejoin="round"/>
<path d="M298.737 -4.22877L299.85 7.95999L293.681 13.0578L295.091 15.9094L294.711 23.3311L302.008 31.2794L305.623 30.3106L308.967 37.1652L318.61 46.6379L316.16 47.9401L309.409 48.4573L306.709 52.8409L302.078 56.4499L298.624 58.0213L298.118 60.9556L292.333 61.86L283.687 57.7177L281.47 51.853L276.882 45.9778L275.984 34.5925L277.96 29.1113L273.935 23.731L269.433 22.9996L269.479 16.7438L266.315 14.5775L260.396 16.5939L250.381 8.94356L252.626 4.46664L251.011 -1.5595L257.503 -5.45204L259.67 -8.61597L254.762 -12.4681L254.529 -17.3573L261.924 -27.5201L270.447 -24.6368L279.283 -18.1772L281.314 -11.4014L285.586 -12.3308L293.281 -7.71848L298.737 -4.22877V-4.22877Z" stroke="white" stroke-width="0.2" stroke-linecap="round" stroke-linejoin="round"/>
<path d="M188.775 167.114L178.369 169.257L177.3 171.696L168.706 176.582L158.42 188.812L159.432 194.999L157.804 200.172L161.094 206.826L155.233 212.271L157.142 217.788L154.721 220.805L163.065 231.056L171.793 237.114L171.291 243.277L179.086 241.834L185.59 247.627L195.687 245.136L202.534 235.336L207.956 254.766L213.555 254.773L219.391 250.841L236.036 268.772L234.957 273.582L237.433 282.822L240.942 293.508L238.848 300.958L242.55 305.133L241.525 310.144L250.256 319.431L248.145 334.852L247.711 342.072L242.948 346.793L229.105 342.537L226.099 337.745L199.152 331.186L173.838 322.683L162.298 317.379L153.821 308.24L154.405 303.993L139.037 290.026L119.83 269.768L100.888 247.286L94.4524 242.551L87.9052 234.187L76.4046 228.226L66.7694 225.21L68.6772 218.671L59.314 207.832L60.3068 197.877L66.9923 187.474L69.8515 192.521L67.4449 196.395L69.2855 200.854L73.6364 198.612L78.6333 198.78L85.4312 204.063L90.205 196.971L89.6985 187.849L93.5139 174.77L105.627 166.142L114.22 149.2L115.428 140.049L111.184 130.637L113.874 128.624L123.122 132.605L128.406 137.863L134.49 139.678L145.126 151.252L154.047 150.8L159.359 145.716L164.17 146.796L170.676 143.76L181.129 147.418L177.651 162.56L181.12 161.846L188.775 167.114V167.114Z" stroke="white" stroke-width="0.2" stroke-linecap="round" stroke-linejoin="round"/>
<path d="M388.303 333.25L394.204 339.204L399.69 356.464L412.241 355.9L415.96 352.104L424.763 353.621L428.196 356.792L433.582 368.051L436.48 372.441L440.86 371.914L444.339 368.829L449.15 369.908L451.69 376.978L453.133 384.772L453.718 392.581L456.129 403.992L450.183 416.35L442.285 420.619L429.092 422.001L416.526 421.708L419.688 399.762L415.971 394.73L402.774 392.884L385.527 387.171L375.749 387.638L347.453 372.829L346.321 356.555L344.036 349.632L345.24 337.253L363.501 328.269L374 325.671L386.623 329.394L388.303 333.25Z" fill="white" stroke="white" stroke-width="0.2" stroke-linecap="round" stroke-linejoin="round"/>
<path d="M335.848 -11.1584L332.581 1.55805L335.552 10.2349L342.016 16.684L341.26 22.6995L341.87 28.9948L340.311 35.2257L333.129 34.1359L328.082 36.9951L323.139 37.0279L322.957 41.1674L325.611 43.0396L325.16 46.1748L318.61 46.6381L308.967 37.1654L305.623 30.3108L302.007 31.2796L294.711 23.3313L295.09 15.9096L293.68 13.058L299.85 7.96019L298.737 -4.22857L313.096 -5.27725L313.655 -8.0106L322.626 -11.4909L335.848 -11.1584V-11.1584Z" stroke="white" stroke-width="0.2" stroke-linecap="round" stroke-linejoin="round"/>
<path d="M509.96 488.388L508.953 497.485L499.989 507.422L490.853 507.071L485.605 509.984L473.104 507.521L465.981 509.86L456.209 504.728L453.199 496.708L454.253 493.411L448.398 481.201L445.649 467.728L443.855 457.014L450.307 453.778L465.653 460.43L469.362 459.006L484.224 463.851L495.803 468.499L505.751 475.091L503.804 482.287L509.96 488.388V488.388Z" stroke="white" stroke-width="0.2" stroke-linecap="round" stroke-linejoin="round"/>
<path d="M261.924 -27.52L254.528 -17.3572L254.762 -12.468L259.669 -8.61596L257.503 -5.45203L251.011 -1.5595L252.625 4.46665L250.38 8.94357L260.396 16.5939L262.771 19.8329L259.898 25.985L248.334 34.2505L240.637 38.466L238.029 42.3941L228.129 41.6022L219.463 42.202L217.576 43.9992L223.459 45.8676L225.171 54.6666L228.784 62.5255L238.695 60.9463L240.051 63.5971L232.784 69.4196L232.831 75.2199L228.602 78.7212L220.973 83.9948L219.84 88.6043L211.217 91.7761L203.16 86.6149L196.501 74.6203L192.25 70.8077L187.479 69.0719L191.582 61.0831L190.427 58.3786L186.391 55.3694L181.867 47.3239L180.596 37.7609L182.023 32.6421L182.604 25.1666L177.994 24.0334L171.943 27.1619L163.546 28.766L159.303 31.4101L148.656 22.2065L141.596 22.3757L127.256 27.5101L123.661 23.7368L120.58 23.486L119.625 20.7276L119.74 15.5299L117.791 10.6696L114.574 8.30236L111.808 2.80003L105.767 3.55745L107.337 -5.04452L106.669 -14.769L108.993 -20.5588L112.644 -25.4124L114.136 -32.7015L120.976 -36.9025L121.382 -33.7818L114.983 -30.3448L119.959 -25.4345L121.186 -18.4435L117.754 -9.55795L124.315 -0.336143L129.122 -2.4852L129.605 -12.7335L125.006 -16.2377L122.369 -26.0804L135.432 -35.1784L132.612 -40.8816L135.7 -46.2301L141.591 -37.9051L149.68 -39.8571L158.393 -34.6566L159.979 -30.3451L170.023 -33.0362L181.953 -37.5247L189.687 -33.5689L198.554 -34.2224L204.107 -40.016L203.446 -43.2838L217.493 -47.9087L230.897 -51.7158L222.077 -45.2619L227.361 -40.0037L236.616 -41.6223L246.775 -37.4549L250.926 -27.5872L256.697 -29.349L261.924 -27.52V-27.52Z" stroke="white" stroke-width="0.2" stroke-linecap="round" stroke-linejoin="round"/>
<path d="M484.583 752.033L503.956 776.122L513.999 773.431L520.133 772.218L520.42 777.308L515.015 782.847L510.087 783.737L503.59 784.401L494.185 783.046L482.853 784.144L465.958 781.351L451.38 778.368L427.981 769.783L437.921 769.918L457.402 773.525L473.25 774.015L474.153 767.745L471.29 759.47L476.721 752.417L484.583 752.033Z" stroke="white" stroke-width="0.2" stroke-linecap="round" stroke-linejoin="round"/>
<path d="M300.51 392.082L303.179 394.811L304.375 408.915L294.794 418.157L303.767 438.789L303.291 443.438L308.654 447.383L304.178 457.194L302.185 470.646L303.552 482.981L310.304 494.52L309.638 508.908L325.455 528.568L329.315 530.117L335.303 541.215L335.426 554.53L341.145 564.624L337.379 574.675L343.715 585.464L353.735 596.343L349.951 602.309L353.42 613.651L358.526 626.277L369.353 640.169L366.638 643.695L377.999 656.367L385.518 659.519L385.364 665.374L391.634 666.277L395.738 670.344L392.769 673.724L398.376 680.187L405.053 696.267L406.553 707.491L411.891 712.95L413.789 720.838L409.873 727.916L419.598 739.304L426.059 742.524L432.071 740.052L438.363 748.27L447.331 753.617L472.067 748.712L482.448 748.083L473.811 750.398L471.203 754.326L465.558 760.575L472.041 771.11L468.278 772.333L454.6 771.907L437.221 767.307L420.07 764.367L411.544 758.255L409.003 751.185L398.306 745.009L382.557 726.408L378.926 714.463L383.172 702.991L365.477 703.642L367.94 691.141L358.272 671.126L372.512 672.047L361.846 646.701L352.896 645.439L359.157 660.77L351.642 660.846L343.785 643.575L333.416 620.949L333.257 611.518L323.291 600.84L314.595 587.669L318.853 585.882L314.514 564.87L311.381 543.534L306.469 524.398L294.619 506.689L292.972 495.72L284.501 480.981L283.919 464.345L275.437 439.921L268.225 413.004L260.729 384.226L252.064 363.942L242.948 346.793L247.711 342.072L248.145 334.851L256.941 341.967L261.827 350.561L269.708 354.262L270.836 367.308L282.143 379.779L293.16 395.989L300.51 392.082Z" stroke="white" stroke-width="0.2" stroke-linecap="round" stroke-linejoin="round"/>
<path d="M340.31 35.2255L341.816 28.7938L341.259 22.6993L341.815 16.7376L335.551 10.2347L332.581 1.55786L335.847 -11.1586L340.041 -10.7751L349.084 -9.96879L363.842 -2.29733L366.848 2.49476L363.194 16.1762L362.108 26.586L359.034 32.7919L353.826 35.0486L351.25 31.8635L348.531 32.1614L346.031 36.4912L340.31 35.2255V35.2255Z" stroke="white" stroke-width="0.2" stroke-linecap="round" stroke-linejoin="round"/>
<path d="M570.616 711.541L571.822 711.218L571.969 710.964L572.919 710.494L573.83 710.68L574.795 711.067L575.158 711.616L575.212 711.817L574.261 712.287L573.698 711.792L573.242 711.699L573.203 712.355L573.658 712.449L574.021 712.997L574.516 712.434L574.971 712.527L575.387 713.277L576.044 713.316L576.191 713.062L577.357 713.395L577.342 712.538L575.628 712.567L575.56 711.509L576.054 710.945L579.014 709.937L580.743 710.766L581.198 710.859L581.414 711.662L580.155 711.784L579.043 711.652L577.945 712.376L578.655 712.617L579.513 712.602L581.374 712.319L582.031 712.358L582.339 712.706L582.207 713.818L581.202 714.087L581.055 714.342L579.703 714.92L578.806 715.59L579.516 715.831L577.924 717.119L577.067 717.133L576.116 717.603L574.71 717.98L573.397 717.901L571.977 717.42L572.138 718.023L572.848 718.263L574.161 718.342L574.925 718.783L575.273 718.475L576.13 718.46L577.095 718.848L576.747 719.156L577.418 720.053L577.017 720.16L576.253 719.719L575.395 719.734L574.606 720.806L574.043 720.311L573.333 720.071L572.73 720.233L571.618 720.1L571.27 720.409L571.887 721.104L572.49 720.943L572.999 721.237L572.651 721.546L574.38 722.374L574.032 722.683L573.121 722.496L572.519 722.658L571.755 722.216L571.098 722.177L570.442 722.138L570.564 723.397L571.622 723.328L571.783 723.931L571.69 724.387L570.833 724.401L570.524 724.053L569.412 723.92L569.104 723.573L568.702 723.68L567.629 722.891L568.017 721.926L567.909 721.524L566.837 720.735L566.729 720.334L567.626 719.663L567.317 719.315L568.268 718.845L567.905 718.296L568.895 717.17L569.993 716.445L571.012 717.033L571.227 717.837L571.776 717.474L570.448 716.538L570.488 715.882L569.175 715.803L568.21 715.416L568.303 714.96L569.214 715.146L569.146 714.088L567.632 714.063L567.672 713.407L568.127 713.5L568.622 712.937L569.225 712.775L569.465 712.065L568.701 711.624L569.504 711.409L570.616 711.541Z" stroke="white" stroke-width="0.2" stroke-linecap="round" stroke-linejoin="round"/>
</svg>
