<svg width="63" height="63" viewBox="0 0 63 63" fill="none" xmlns="http://www.w3.org/2000/svg">
<mask id="mask0_3979_212" style="mask-type:alpha" maskUnits="userSpaceOnUse" x="0" y="0" width="63" height="63">
<circle cx="31.1935" cy="31.1935" r="31.1935" fill="#D9D9D9"/>
</mask>
<g mask="url(#mask0_3979_212)">
<circle cx="31.1935" cy="31.1935" r="31.1935" fill="white"/>
<path d="M31.3006 59.374L23.556 51.6294C24.2373 49.8008 25.5138 45.3907 25.1696 42.3789C22.5881 39.9695 20.9387 36.7139 20.4367 35.3873C19.9706 35.6024 19.0383 35.71 19.0383 34.4192C17.2313 24.5233 19.2176 28.5749 20.4367 31.8377V27.6427L24.0938 17.5317L32.5914 17.209L40.7662 20.651L42.2721 31.8377C42.3797 30.9772 42.7884 29.084 43.5629 28.3956C44.7461 27.5351 44.6385 32.3755 43.5629 34.4192C42.4873 36.4629 41.7343 34.957 41.7343 35.3873C41.7343 35.8175 39.4755 40.873 37.4318 42.0562C36.9155 45.8425 38.5791 50.016 39.4755 51.6294L31.3006 59.374Z" fill="#CBCBCB"/>
<path d="M38.5078 47.7745C48.0595 47.5163 53.7819 50.3202 55.0727 51.7543L56.6861 61.3275L38.5078 67.0284L16.995 67.8889C12.5491 63.8732 4.47462 55.0243 7.74456 51.7543C11.0145 48.4844 19.6483 47.7386 23.5564 47.7745C23.6282 47.7745 24.546 48.3768 27.6439 50.7863C30.7417 53.1957 33.2372 51.7902 34.0977 50.7863C34.2411 50.6429 34.7431 50.0333 38.5078 47.7745Z" fill="#969696"/>
<path d="M37.7544 45.7129L39.3678 47.7566L34.0972 54.2104L32.5913 49.1549L37.7544 45.7129Z" fill="white"/>
<path d="M24.6314 45.6055L23.0179 47.6492L28.2885 54.103L29.7944 49.0475L24.6314 45.6055Z" fill="white"/>
<path d="M41.7351 16.6732C45.5214 18.6524 43.5996 27.1786 42.1654 31.1943C41.5558 30.1187 40.2722 27.2575 40.014 24.4178C40.3582 21.5781 38.8667 20.7248 38.0779 20.6531C36.1776 19.685 31.4304 17.9425 27.6442 18.7169C22.9114 19.685 22.1584 22.4817 21.9433 24.8481C21.7712 26.7412 20.7243 30.0111 20.2223 31.4095C19.0391 27.9674 17.103 20.0292 18.824 15.8127C22.6103 9.18677 29.7955 8.82106 32.9149 9.46644C35.855 9.574 41.7351 11.1659 41.7351 16.6732Z" fill="black"/>
<path d="M37.4322 43.8929V41.9512C31.5638 45.4032 26.8122 43.3895 25.1699 41.9512V43.8929C30.3376 46.9997 35.498 45.1874 37.4322 43.8929Z" fill="#C0C0C0"/>
</g>
</svg>
