<svg width="32" height="32" viewBox="0 0 32 32" fill="none" xmlns="http://www.w3.org/2000/svg">
<path d="M5.08865 10.7043C5.26537 9.56367 5.60812 8.83196 5.9163 8.21101C6.02363 7.99475 6.23954 8.08679 6.44656 8.21101L7.70194 8.96423C7.90828 9.08803 7.99252 9.38631 7.88486 9.6015C7.54714 10.2765 7.3321 11.1831 7.27619 11.6304V19.3403C7.27619 19.5644 7.09516 19.7461 6.87105 19.7461H3.21835C1.91985 19.7461 2.001 18.664 2.001 18.123V13.2536C2.001 11.955 2.67731 11.3599 3.21835 11.2246L4.72624 11.0571C4.9128 11.0364 5.05991 10.8898 5.08865 10.7043Z" fill="white"/>
<path d="M12.9573 2.29742C10.8472 4.5698 11.4018 5.40842 11.9428 5.54368C17.9785 2.45572 22.0213 6.22572 23.8353 9.40118C24.3531 10.3075 24.5377 11.3513 24.5587 12.3949C24.615 15.1986 24.6557 19.363 24.522 21.3692C24.3597 23.8039 20.8023 24.2773 19.0439 24.2097C19.0439 23.7672 18.7925 23.4252 18.5468 23.2094C18.3574 23.0432 18.1014 22.9924 17.8495 22.9924H13.5658C13.2682 22.9924 13.0445 23.106 12.8829 23.2553C12.5661 23.5479 12.5514 24.022 12.5514 24.4533V25.5892C12.5514 26.0205 12.5609 26.5073 12.9035 26.7693C13.1849 26.9844 13.5535 27.0502 13.7687 27.0502H17.3763C17.9433 27.0502 18.5692 26.9791 18.8544 26.489C18.9532 26.3191 19.0154 26.1498 19.0439 26.0357C25.5364 26.5227 26.6185 22.0455 26.348 19.7461H27.6633C28.4047 19.7461 29.2439 19.703 29.6717 19.0974C29.9208 18.7447 30.0001 18.3545 30.0001 18.123V13.2536C30.0001 12.6812 29.8424 12.2456 29.6313 11.9257C29.223 11.3068 28.4046 11.2247 27.6632 11.2247H26.7538C24.9683 1.97279 16.8122 1.41822 12.9573 2.29742Z" fill="white"/>
<path d="M13.7687 11.2246C13.7687 12.1211 13.042 12.8478 12.1456 12.8478C11.2492 12.8478 10.5225 12.1211 10.5225 11.2246C10.5225 10.3282 11.2492 9.6015 12.1456 9.6015C13.042 9.6015 13.7687 10.3282 13.7687 11.2246Z" fill="white"/>
<path d="M21.0728 11.2246C21.0728 12.1211 20.3461 12.8478 19.4497 12.8478C18.5533 12.8478 17.8266 12.1211 17.8266 11.2246C17.8266 10.3282 18.5533 9.6015 19.4497 9.6015C20.3461 9.6015 21.0728 10.3282 21.0728 11.2246Z" fill="white"/>
<path d="M20.2613 15.6883C20.2613 16.8721 19.791 18.0074 18.9539 18.8445C18.1168 19.6816 16.9815 20.1519 15.7976 20.1519C14.6138 20.1519 13.4785 19.6816 12.6414 18.8445C11.8043 18.0074 11.334 16.8721 11.334 15.6883H20.2613Z" fill="white"/>
<path d="M13.3629 2.20282C8.49352 3.21735 5.85593 7.68096 5.85593 8.49253L7.88352 9.60155C9.304 7.07226 10.5213 6.26069 11.9413 5.54371C13.9702 4.25873 16.5765 1.53327 13.3629 2.20282Z" fill="white"/>
</svg>
