<svg width="32" height="32" viewBox="0 0 32 32" fill="none" xmlns="http://www.w3.org/2000/svg">
<path d="M19.6417 13.4288H24.4816V13.4278M7.00097 23.4111V18.5712M7.00097 18.5712H11.8409M7 18.5712L10.0841 21.6572C11.077 22.6501 12.3138 23.3642 13.6702 23.7276C15.0265 24.0909 16.4547 24.0908 17.811 23.7272C19.1673 23.3637 20.404 22.6495 21.3968 21.6564C22.3895 20.6633 23.1034 19.4264 23.4665 18.07M8.0151 13.93C8.37825 12.5736 9.09209 11.3367 10.0849 10.3436C11.0776 9.35055 12.3143 8.63633 13.6706 8.27276C15.027 7.90919 16.4551 7.90908 17.8115 8.27245C19.1678 8.63582 20.4046 9.34986 21.3975 10.3428L24.4816 13.4278M24.4816 8.5889V13.4269" stroke="#0D6EFD" stroke-width="2" stroke-linecap="round" stroke-linejoin="round"/>
</svg>
