<svg width="24" height="24" viewBox="0 0 24 24" fill="none" xmlns="http://www.w3.org/2000/svg">
<g clip-path="url(#clip0_4061_80948)">
<path d="M7.859 6H5.025C4.48794 6 3.97287 6.21335 3.59311 6.59311C3.21335 6.97287 3 7.48794 3 8.025V10.859C3 11.396 3.213 11.911 3.593 12.291L9.709 18.407C9.89704 18.5951 10.1203 18.7443 10.366 18.846C10.6117 18.9478 10.875 19.0002 11.141 19.0002C11.407 19.0002 11.6703 18.9478 11.916 18.846C12.1617 18.7443 12.385 18.5951 12.573 18.407L15.407 15.573C15.5951 15.385 15.7443 15.1617 15.846 14.916C15.9478 14.6703 16.0002 14.407 16.0002 14.141C16.0002 13.875 15.9478 13.6117 15.846 13.366C15.7443 13.1203 15.5951 12.897 15.407 12.709L9.29 6.593C8.91044 6.2135 8.39574 6.00021 7.859 6Z" stroke="#707070" stroke-width="1.66" stroke-linecap="round" stroke-linejoin="round"/>
<path d="M17.5735 18.4077L20.4075 15.5737C20.5956 15.3857 20.7448 15.1625 20.8466 14.9168C20.9484 14.6711 21.0007 14.4077 21.0007 14.1418C21.0007 13.8758 20.9484 13.6124 20.8466 13.3667C20.7448 13.121 20.5956 12.8978 20.4075 12.7097L13.2905 5.59375" stroke="#707070" stroke-width="1.66" stroke-linecap="round" stroke-linejoin="round"/>
<path d="M5.99975 9H5.98975" stroke="#707070" stroke-width="1.66" stroke-linecap="round" stroke-linejoin="round"/>
</g>
<defs>
<clipPath id="clip0_4061_80948">
<rect width="24" height="24" fill="white"/>
</clipPath>
</defs>
</svg>
