<svg width="20" height="21" viewBox="0 0 20 21" fill="none" xmlns="http://www.w3.org/2000/svg">
<path d="M0.734823 4.53156C0.787067 3.71807 1.43108 3.10007 2.23618 2.97238C3.12863 2.83084 4.29075 2.61628 5.1861 2.34517C6.2848 2.01249 7.78523 1.35137 8.6961 0.931703C9.20584 0.696851 9.79417 0.696851 10.3039 0.931703C11.2148 1.35137 12.7152 2.01249 13.8139 2.34517C14.7092 2.61628 15.8714 2.83084 16.7638 2.97238C17.5689 3.10007 18.2129 3.71807 18.2652 4.53156C18.4887 8.01132 18.2464 17.1244 10.0065 19.8448C9.68175 19.9521 9.31825 19.9521 8.99345 19.8448C0.75363 17.1244 0.511342 8.01132 0.734823 4.53156Z" fill="#C8D1EA"/>
<path d="M0.734823 4.53156C0.787067 3.71807 1.43108 3.10007 2.23618 2.97238C3.12863 2.83084 4.29075 2.61628 5.1861 2.34517C6.2848 2.01249 7.78523 1.35137 8.6961 0.931703C9.20584 0.696851 9.79417 0.696851 10.3039 0.931703C11.2148 1.35137 12.7152 2.01249 13.8139 2.34517C14.7092 2.61628 15.8714 2.83084 16.7638 2.97238C17.5689 3.10007 18.2129 3.71807 18.2652 4.53156C18.4887 8.01132 18.2464 17.1244 10.0065 19.8448C9.68175 19.9521 9.31825 19.9521 8.99345 19.8448C0.75363 17.1244 0.511342 8.01132 0.734823 4.53156Z" fill="url(#paint0_linear_3961_248)"/>
<path d="M3.13443 6.31242C3.16889 5.49714 3.81184 4.87632 4.61514 4.73283C5.19007 4.63013 5.84713 4.49254 6.37577 4.32675C7.07883 4.10627 8.00905 3.69343 8.6711 3.38317C9.19553 3.13741 9.80373 3.13741 10.3282 3.38317C10.9902 3.69343 11.9204 4.10627 12.6235 4.32675C13.1521 4.49254 13.8092 4.63013 14.3841 4.73283C15.1874 4.87632 15.8304 5.49714 15.8648 6.31242C15.9831 9.10989 15.5928 15.3827 10.0181 17.3981C9.68546 17.5184 9.3138 17.5184 8.98111 17.3981C3.40646 15.3827 3.01618 9.10989 3.13443 6.31242Z" stroke="#FFC107" stroke-width="1.21552"/>
<path d="M8.26093 11.9238L6.98821 10.6194C6.91968 10.549 6.82665 10.5094 6.72963 10.5094C6.63261 10.5094 6.53958 10.549 6.47105 10.6194C6.32801 10.766 6.32801 11.0028 6.47105 11.1494L8.00418 12.7208C8.14723 12.8674 8.3783 12.8674 8.52134 12.7208L12.4018 8.74352C12.5449 8.59691 12.5449 8.36008 12.4018 8.21347C12.3333 8.14307 12.2403 8.10352 12.1433 8.10352C12.0462 8.10352 11.9532 8.14307 11.8847 8.21347L8.26093 11.9238Z" fill="white"/>
<defs>
<linearGradient id="paint0_linear_3961_248" x1="12.036" y1="20.001" x2="5.42827" y2="3.11335" gradientUnits="userSpaceOnUse">
<stop offset="0.0625" stop-color="#FFC107"/>
<stop offset="1" stop-color="#C5CBD2"/>
</linearGradient>
</defs>
</svg>
