<svg width="25" height="25" viewBox="0 0 30 30" fill="none" xmlns="http://www.w3.org/2000/svg">
<g id="Frame 48096396">
<path id="Vector" d="M23.6667 17.3889V22.1111C23.6667 23.3267 22.7923 24.3733 21.5867 24.5333C19.2678 24.8411 16.9023 25 14.5001 25C12.0978 25 9.73228 24.8411 7.41339 24.5333C6.20784 24.3733 5.33339 23.3267 5.33339 22.1111V17.3889M23.6667 17.3889C23.9306 17.1596 24.1417 16.8759 24.2855 16.5574C24.4294 16.2388 24.5025 15.8929 24.5001 15.5433V11.34C24.5001 10.1389 23.6467 9.10111 22.459 8.92333C21.2004 8.73491 19.9355 8.59149 18.6667 8.49333M23.6667 17.3889C23.4512 17.5722 23.2001 17.7167 22.919 17.8111C20.2036 18.712 17.3609 19.1698 14.5001 19.1667C11.5578 19.1667 8.72784 18.69 6.08117 17.8111C5.80702 17.7199 5.55309 17.5765 5.33339 17.3889M5.33339 17.3889C5.06955 17.1596 4.85846 16.8759 4.71462 16.5574C4.57077 16.2388 4.49758 15.8929 4.50006 15.5433V11.34C4.50006 10.1389 5.35339 9.10111 6.54117 8.92333C7.79973 8.73491 9.06461 8.59148 10.3334 8.49333M18.6667 8.49333V7.5C18.6667 6.83696 18.4033 6.20107 17.9345 5.73223C17.4657 5.26339 16.8298 5 16.1667 5H12.8334C12.1704 5 11.5345 5.26339 11.0656 5.73223C10.5968 6.20107 10.3334 6.83696 10.3334 7.5V8.49333M18.6667 8.49333C15.8931 8.27898 13.107 8.27898 10.3334 8.49333M14.5001 15.8333H14.509V15.8422H14.5001V15.8333Z" stroke="#939393" stroke-width="1.5" stroke-linecap="round" stroke-linejoin="round"/>
</g>
</svg>
