<svg width="31" height="30" viewBox="0 0 31 30" fill="none" xmlns="http://www.w3.org/2000/svg">
<g id="Frame 48096396">
<path id="Vector" d="M24.1667 17.3889V22.1111C24.1667 23.3267 23.2923 24.3733 22.0867 24.5333C19.7678 24.8411 17.4023 25 15.0001 25C12.5978 25 10.2323 24.8411 7.91339 24.5333C6.70784 24.3733 5.83339 23.3267 5.83339 22.1111V17.3889M24.1667 17.3889C24.4306 17.1596 24.6417 16.8759 24.7855 16.5574C24.9294 16.2388 25.0025 15.8929 25.0001 15.5433V11.34C25.0001 10.1389 24.1467 9.10111 22.959 8.92333C21.7004 8.73491 20.4355 8.59149 19.1667 8.49333M24.1667 17.3889C23.9512 17.5722 23.7001 17.7167 23.419 17.8111C20.7036 18.712 17.8609 19.1698 15.0001 19.1667C12.0578 19.1667 9.22784 18.69 6.58117 17.8111C6.30702 17.7199 6.05309 17.5765 5.83339 17.3889M5.83339 17.3889C5.56955 17.1596 5.35846 16.8759 5.21462 16.5574C5.07077 16.2388 4.99758 15.8929 5.00006 15.5433V11.34C5.00006 10.1389 5.85339 9.10111 7.04117 8.92333C8.29973 8.73491 9.56461 8.59148 10.8334 8.49333M19.1667 8.49333V7.5C19.1667 6.83696 18.9033 6.20107 18.4345 5.73223C17.9657 5.26339 17.3298 5 16.6667 5H13.3334C12.6704 5 12.0345 5.26339 11.5656 5.73223C11.0968 6.20107 10.8334 6.83696 10.8334 7.5V8.49333M19.1667 8.49333C16.3931 8.27898 13.607 8.27898 10.8334 8.49333M15.0001 15.8333H15.009V15.8422H15.0001V15.8333Z" stroke="#707070" stroke-width="1.5" stroke-linecap="round" stroke-linejoin="round"/>
</g>
</svg>
