<svg width="20" height="20" viewBox="0 0 34 32" fill="none" xmlns="http://www.w3.org/2000/svg">
<path d="M2 12.2096C2 11.3508 2.35119 10.5271 2.97631 9.91986C3.60143 9.31259 4.44928 8.97144 5.33333 8.97144H28.6667C29.5507 8.97144 30.3986 9.31259 31.0237 9.91986C31.6488 10.5271 32 11.3508 32 12.2096V26.7811C32 27.6399 31.6488 28.4635 31.0237 29.0708C30.3986 29.678 29.5507 30.0192 28.6667 30.0192H5.33333C4.44928 30.0192 3.60143 29.678 2.97631 29.0708C2.35119 28.4635 2 27.6399 2 26.7811V12.2096Z" fill="white" stroke="white" stroke-width="3.33335" stroke-linecap="round" stroke-linejoin="round"/>
<path d="M10.3333 8.97135V5.73324C10.3333 4.87443 10.6844 4.0508 11.3096 3.44354C11.9347 2.83627 12.7825 2.49512 13.6666 2.49512H20.3333C21.2173 2.49512 22.0652 2.83627 22.6903 3.44354C23.3154 4.0508 23.6666 4.87443 23.6666 5.73324V8.97135" stroke="white" stroke-width="3.33335" stroke-linecap="round" stroke-linejoin="round"/>
</svg>
