<svg width="20" height="20" viewBox="0 0 30 30" fill="none" xmlns="http://www.w3.org/2000/svg">
<path d="M17.9931 1.60784C19.4213 2.43242 20.6641 3.54262 21.6438 4.86909C22.6236 6.19557 23.3193 7.70982 23.6876 9.31727C24.0558 10.9247 24.0886 12.5908 23.784 14.2115C23.4794 15.8323 22.8438 17.3727 21.917 18.7368L29.33 26.1482C29.7427 26.5549 29.9826 27.1052 29.9995 27.6843C30.0165 28.2635 29.8093 28.8269 29.4211 29.257C29.0329 29.6872 28.4937 29.9509 27.9158 29.9932C27.3379 30.0356 26.766 29.8533 26.3192 29.4843L26.1483 29.3299L18.7368 21.917C16.9637 23.1214 14.9001 23.8287 12.7609 23.9652C10.6217 24.1017 8.48494 23.6625 6.57303 22.6932C4.66112 21.724 3.04387 20.2601 1.88956 18.4538C0.735245 16.6476 0.0860388 14.5651 0.00948467 12.4229L0.000488281 11.9956L0.00798539 11.5682C0.081746 9.5002 0.68926 7.48643 1.77148 5.72264C2.85371 3.95885 4.37383 2.50502 6.1841 1.50247C7.99437 0.499924 10.0332 -0.0172525 12.1025 0.00120995C14.1718 0.0196724 16.201 0.573146 17.9931 1.60784Z" fill="white"/>
</svg>
