<svg width="20" height="20" viewBox="0 0 26 34" fill="none" xmlns="http://www.w3.org/2000/svg">
<path d="M24.2308 16.4231V20.4615V30.2692C24.2308 31.2246 23.4555 32 22.5001 32H2.88481C1.92943 32 1.15405 31.2246 1.15405 30.2692V3.73077C1.15405 2.77538 1.92943 2 2.88481 2H6.92325H9.80785H10.3848C14.057 2 12.4035 8.2495 15.0001 10.8462C17.5968 13.4428 24.2308 12.1739 24.2308 15.8462V16.4231Z" fill="white"/>
<path d="M24.2308 20.4615V16.4231M9.80784 2H6.92325M10.3848 2H2.88481C1.92943 2 1.15405 2.77538 1.15405 3.73077V30.2692C1.15405 31.2246 1.92943 32 2.88481 32H22.5001C23.4555 32 24.2308 31.2246 24.2308 30.2692V15.8462C24.2308 12.1739 17.5968 13.4428 15.0001 10.8462C12.4035 8.2495 14.057 2 10.3848 2Z" stroke="white" stroke-width="2.24999" stroke-linecap="round" stroke-linejoin="round"/>
</svg>
