<svg width="20" height="20" viewBox="0 0 30 30" fill="none" xmlns="http://www.w3.org/2000/svg">
<path d="M17.9927 1.60711C19.4208 2.43169 20.6636 3.54189 21.6433 4.86836C22.6231 6.19484 23.3189 7.7091 23.6871 9.31655C24.0553 10.924 24.0881 12.5901 23.7835 14.2108C23.4789 15.8315 22.8433 17.372 21.9166 18.736L29.3295 26.1475C29.7422 26.5542 29.9821 27.1045 29.999 27.6836C30.016 28.2628 29.8088 28.8262 29.4206 29.2563C29.0324 29.6864 28.4932 29.9502 27.9153 29.9925C27.3374 30.0349 26.7655 29.8526 26.3188 29.4836L26.1478 29.3292L18.7364 21.9162C16.9632 23.1207 14.8996 23.828 12.7604 23.9645C10.6212 24.101 8.48445 23.6618 6.57254 22.6925C4.66063 21.7232 3.04338 20.2593 1.88907 18.4531C0.734757 16.6469 0.0855505 14.5643 0.00899639 12.4221L0 11.9948L0.00749711 11.5675C0.0812577 9.49948 0.688772 7.4857 1.77099 5.72191C2.85322 3.95812 4.37334 2.50429 6.18361 1.50174C7.99388 0.499192 10.0327 -0.017985 12.102 0.000477533C14.1713 0.01894 16.2006 0.572414 17.9927 1.60711Z" fill="#0D6EFD"/>
</svg>
