<svg width="30" height="30" viewBox="0 0 30 30" fill="none" xmlns="http://www.w3.org/2000/svg">
<g id="Frame 48096399">
<path id="Vector" d="M22 17.3077V14.6154C22 13.6973 21.6444 12.8169 21.0115 12.1677C20.3786 11.5185 19.5201 11.1538 18.625 11.1538H17.125C16.8266 11.1538 16.5405 11.0323 16.3295 10.8159C16.1185 10.5995 16 10.306 16 10V8.46154C16 7.54348 15.6444 6.66303 15.0115 6.01386C14.3785 5.3647 13.5201 5 12.625 5H10.75M13 5H8.125C7.504 5 7 5.51692 7 6.15385V23.8462C7 24.4831 7.504 25 8.125 25H20.875C21.496 25 22 24.4831 22 23.8462V14.2308C22 11.7826 21.0518 9.43473 19.364 7.70363C17.6761 5.97252 15.3869 5 13 5V5Z" stroke="#707070" stroke-width="1.5" stroke-linecap="round" stroke-linejoin="round"/>
</g>
</svg>
