<svg width="21" height="20" viewBox="0 0 21 20" fill="none" xmlns="http://www.w3.org/2000/svg">
<g id="sort 1">
<g id="Group">
<path id="Vector" d="M15.5013 11.166H5.5013C5.0013 11.166 4.66797 10.766 4.66797 10.166C4.66797 9.56602 5.0013 9.16602 5.5013 9.16602H15.5013C16.0013 9.16602 16.3346 9.56602 16.3346 10.166C16.3346 10.766 16.0013 11.166 15.5013 11.166Z" fill="white"/>
</g>
<g id="Group_2">
<path id="Vector_2" d="M13.0013 16.166H8.0013C7.5013 16.166 7.16797 15.766 7.16797 15.166C7.16797 14.566 7.5013 14.166 8.0013 14.166H13.0013C13.5013 14.166 13.8346 14.566 13.8346 15.166C13.8346 15.766 13.5013 16.166 13.0013 16.166Z" fill="white"/>
</g>
<g id="Group_3">
<path id="Vector_3" d="M18.0013 6.16602H3.0013C2.5013 6.16602 2.16797 5.76602 2.16797 5.16602C2.16797 4.56602 2.5013 4.16602 3.0013 4.16602H18.0013C18.5013 4.16602 18.8346 4.56602 18.8346 5.16602C18.8346 5.76602 18.5013 6.16602 18.0013 6.16602Z" fill="white"/>
</g>
</g>
</svg>
