<svg width="22" height="23" viewBox="0 0 22 23" fill="none" xmlns="http://www.w3.org/2000/svg">
<path d="M6.21203 10.6097C5.97016 10.1745 5.59062 9.83189 5.13299 9.63573C4.67536 9.43957 4.16555 9.40092 3.68358 9.52585C3.20161 9.65078 2.77476 9.93222 2.47005 10.326C2.16533 10.7198 2 11.2036 2 11.7015C2 12.1994 2.16533 12.6832 2.47005 13.0769C2.77476 13.4707 3.20161 13.7521 3.68358 13.8771C4.16555 14.002 4.67536 13.9634 5.13299 13.7672C5.59062 13.571 5.97016 13.2285 6.21203 12.7933M6.21203 10.6097C6.39183 10.9333 6.49471 11.3049 6.49471 11.7015C6.49471 12.098 6.39183 12.4706 6.21203 12.7933M6.21203 10.6097L15.7675 5.30154M6.21203 12.7933L15.7675 18.1014M15.7675 5.30154C15.9076 5.56539 16.0988 5.79866 16.3302 5.98771C16.5615 6.17677 16.8281 6.31781 17.1146 6.4026C17.401 6.48739 17.7015 6.51422 17.9984 6.48153C18.2954 6.44884 18.5828 6.35728 18.844 6.2122C19.1051 6.06712 19.3347 5.87144 19.5193 5.63659C19.704 5.40174 19.8399 5.13244 19.9193 4.84443C19.9986 4.55643 20.0198 4.25549 19.9814 3.95922C19.9431 3.66296 19.8461 3.3773 19.6961 3.11896C19.4005 2.60986 18.917 2.23707 18.3494 2.08072C17.7818 1.92437 17.1756 1.99694 16.661 2.28284C16.1464 2.56873 15.7645 3.04513 15.5974 3.60961C15.4303 4.17409 15.4914 4.7816 15.7675 5.30154ZM15.7675 18.1014C15.6241 18.3595 15.5329 18.6433 15.4992 18.9366C15.4656 19.2299 15.49 19.527 15.5711 19.8109C15.6522 20.0947 15.7884 20.3599 15.972 20.5911C16.1556 20.8223 16.3829 21.0151 16.641 21.1585C16.8991 21.3019 17.1829 21.393 17.4762 21.4267C17.7695 21.4604 18.0666 21.436 18.3505 21.3549C18.6343 21.2738 18.8995 21.1375 19.1307 20.954C19.3619 20.7704 19.5547 20.5431 19.6981 20.285C19.9877 19.7637 20.0583 19.1488 19.8945 18.5755C19.7307 18.0022 19.3458 17.5174 18.8246 17.2278C18.3033 16.9383 17.6884 16.8676 17.1151 17.0315C16.5418 17.1953 16.057 17.5801 15.7675 18.1014Z" stroke="#0D6EFD" stroke-width="2.5" stroke-linecap="round" stroke-linejoin="round"/>
</svg>
