<svg width="20" height="20" viewBox="0 0 20 20" fill="none" xmlns="http://www.w3.org/2000/svg">
<mask id="path-1-inside-1_3963_476" fill="white">
<path fill-rule="evenodd" clip-rule="evenodd" d="M4.58333 1.66797C3.84695 1.66797 3.25 2.26492 3.25 3.0013V17.0013C3.25 17.7377 3.84695 18.3346 4.58333 18.3346H15.4167C16.153 18.3346 16.75 17.7377 16.75 17.0013L16.75 6.6075C16.75 6.11264 16.5534 5.63806 16.2035 5.28814L13.1298 2.21447C12.7799 1.86455 12.3053 1.66797 11.8105 1.66797H4.58333Z"/>
</mask>
<path fill-rule="evenodd" clip-rule="evenodd" d="M4.58333 1.66797C3.84695 1.66797 3.25 2.26492 3.25 3.0013V17.0013C3.25 17.7377 3.84695 18.3346 4.58333 18.3346H15.4167C16.153 18.3346 16.75 17.7377 16.75 17.0013L16.75 6.6075C16.75 6.11264 16.5534 5.63806 16.2035 5.28814L13.1298 2.21447C12.7799 1.86455 12.3053 1.66797 11.8105 1.66797H4.58333Z" fill="url(#paint0_linear_3963_476)"/>
<path fill-rule="evenodd" clip-rule="evenodd" d="M4.58333 1.66797C3.84695 1.66797 3.25 2.26492 3.25 3.0013V17.0013C3.25 17.7377 3.84695 18.3346 4.58333 18.3346H15.4167C16.153 18.3346 16.75 17.7377 16.75 17.0013L16.75 6.6075C16.75 6.11264 16.5534 5.63806 16.2035 5.28814L13.1298 2.21447C12.7799 1.86455 12.3053 1.66797 11.8105 1.66797H4.58333Z" fill="black" fill-opacity="0.1"/>
<path d="M16.75 17.0013L8.66683 17.0013V17.0013H16.75ZM13.1298 2.21447L18.8455 -3.5012L13.1298 2.21447ZM16.2035 5.28814L10.4878 11.0038L16.2035 5.28814ZM11.3332 3.0013C11.3332 6.72913 8.31116 9.75114 4.58333 9.75114V-6.4152C-0.617254 -6.4152 -4.83317 -2.19929 -4.83317 3.0013H11.3332ZM11.3332 17.0013V3.0013H-4.83317V17.0013H11.3332ZM4.58333 10.2515C8.31116 10.2515 11.3332 13.2735 11.3332 17.0013H-4.83317C-4.83317 22.2019 -0.617257 26.4178 4.58333 26.4178V10.2515ZM15.4167 10.2515H4.58333V26.4178H15.4167V10.2515ZM8.66683 17.0013C8.66683 13.2735 11.6888 10.2515 15.4167 10.2515V26.4178C20.6173 26.4178 24.8332 22.2019 24.8332 17.0013H8.66683ZM8.66683 6.6075L8.66683 17.0013L24.8332 17.0013L24.8332 6.6075L8.66683 6.6075ZM7.41417 7.93013L10.4878 11.0038L21.9192 -0.427524L18.8455 -3.5012L7.41417 7.93013ZM4.58333 9.75114H11.8105V-6.4152H4.58333V9.75114ZM18.8455 -3.5012C16.9797 -5.367 14.4491 -6.4152 11.8105 -6.4152V9.75114C10.1615 9.75114 8.58014 9.0961 7.41417 7.93013L18.8455 -3.5012ZM24.8332 6.6075C24.8332 3.96886 23.785 1.43828 21.9192 -0.427524L10.4878 11.0038C9.32187 9.83783 8.66683 8.25643 8.66683 6.6075L24.8332 6.6075Z" fill="#929292" fill-opacity="0.1" mask="url(#path-1-inside-1_3963_476)"/>
<path d="M5 13C7.222 11.6667 8.33333 10.3333 8.33333 9C8.33333 7 7.66667 7 7 7C6.33333 7 5.64533 7.72333 5.66667 9C5.68933 10.3653 6.772 10.918 7.33333 11.6667C8.33333 13 9 13.3333 9.66667 12.3333C10.1113 11.6667 10.4447 11.1113 10.6667 10.6667C11.3333 12.222 12.222 13 13.3333 13H15" stroke="white" stroke-linecap="round" stroke-linejoin="round"/>
<path d="M16.3592 5.44336H12.9741L16.7502 9.2194V5.83398L16.3592 5.44336Z" fill="url(#paint1_linear_3963_476)"/>
<path d="M13.9167 5.83398L16.75 5.83398L12.5833 1.66732L12.5833 4.50065C12.5833 5.23703 13.1803 5.83398 13.9167 5.83398Z" fill="#A7A7A7"/>
<defs>
<linearGradient id="paint0_linear_3963_476" x1="6.57169" y1="4.94773" x2="16.4606" y2="9.8891" gradientUnits="userSpaceOnUse">
<stop stop-color="#B6C0D6"/>
<stop offset="1" stop-color="#6B6A7B" stop-opacity="0.84"/>
</linearGradient>
<linearGradient id="paint1_linear_3963_476" x1="13.8205" y1="4.59701" x2="17.5965" y2="8.37305" gradientUnits="userSpaceOnUse">
<stop stop-opacity="0.2"/>
<stop offset="1" stop-opacity="0"/>
</linearGradient>
</defs>
</svg>
