<svg width="14" height="14" viewBox="0 0 14 14" fill="none" xmlns="http://www.w3.org/2000/svg">
<path d="M2.81082 11.4589C4.61244 10.3778 5.51352 9.29676 5.51352 8.21568C5.51352 6.59406 4.97298 6.59406 4.43244 6.59406C3.8919 6.59406 3.33406 7.18054 3.35136 8.21568C3.36974 9.3227 4.24758 9.77081 4.70271 10.3778C5.51352 11.4589 6.05406 11.7292 6.5946 10.9184C6.95514 10.3778 7.22541 9.92757 7.40541 9.56703C7.94595 10.8281 8.66649 11.4589 9.56758 11.4589H10.9189" stroke="#939393" stroke-linecap="round" stroke-linejoin="round"/>
<path d="M11.9999 10.3784V3.8919C11.9999 3.28596 11.5247 2.81082 10.9188 2.81082C10.3128 2.81082 9.83771 3.28596 9.83771 3.8919V10.3784L10.9188 11.4595L11.9999 10.3784Z" stroke="#939393" stroke-linecap="round" stroke-linejoin="round"/>
<path d="M9.83783 4.97296H12" stroke="#939393" stroke-linecap="round" stroke-linejoin="round"/>
<path d="M3.8244 2.6237C3.8244 2.78912 3.76033 2.94776 3.64627 3.06472C3.53221 3.18169 3.37752 3.2474 3.21622 3.2474C3.05491 3.2474 2.90022 3.18169 2.78616 3.06472C2.6721 2.94776 2.60803 2.78912 2.60803 2.6237C2.60803 2.45828 2.6721 2.29964 2.78616 2.18268C2.90022 2.06571 3.05491 2 3.21622 2C3.37752 2 3.53221 2.06571 3.64627 2.18268C3.76033 2.29964 3.8244 2.45828 3.8244 2.6237V2.6237ZM2 4.9718C2.00521 4.64455 2.13564 4.3325 2.36316 4.10296C2.59068 3.87342 2.89705 3.74477 3.21622 3.74477C3.53538 3.74477 3.84176 3.87342 4.06927 4.10296C4.29679 4.3325 4.42722 4.64455 4.43243 4.9718C4.05088 5.15123 3.63597 5.24382 3.21622 5.24324C2.78221 5.24324 2.37027 5.14611 2 4.9718Z" stroke="#939393" stroke-width="0.8" stroke-linecap="round" stroke-linejoin="round"/>
</svg>
