<svg width="250" height="200" viewBox="0 0 250 200" fill="none" xmlns="http://www.w3.org/2000/svg">
<g id="Frame 48097019">
<g id="Group 48096197">
<g id="Group 48096196">
<path id="Background" fill-rule="evenodd" clip-rule="evenodd" d="M213.451 60.5938C217.932 60.5938 221.564 64.2263 221.564 68.7072C221.564 73.1882 217.932 76.8207 213.451 76.8207H167.088C171.569 76.8207 175.201 80.4532 175.201 84.9342C175.201 89.4151 171.569 93.0476 167.088 93.0476H192.588C197.068 93.0476 200.701 96.6801 200.701 101.161C200.701 105.642 197.068 109.275 192.588 109.275H180.795C175.145 109.275 170.565 112.907 170.565 117.388C170.565 120.375 172.883 123.08 177.52 125.502C182.001 125.502 185.633 129.134 185.633 133.615C185.633 138.096 182.001 141.728 177.52 141.728H116.089L161.293 97.1044L159.554 65.8096L128.839 64.071L74.3627 117.388L99.2826 141.728H81.3171C76.8361 141.728 73.2036 138.096 73.2036 133.615C73.2036 129.134 76.8361 125.502 81.3171 125.502H36.1135C31.6325 125.502 28 121.869 28 117.388C28 112.907 31.6325 109.275 36.1135 109.275H82.4761C87.1124 104.638 87.1124 104.638 90.5896 101.161C90.5896 96.6801 86.9571 93.0476 82.4761 93.0476H53.4995C49.0185 93.0476 45.386 89.4151 45.386 84.9342C45.386 80.4532 49.0185 76.8207 53.4995 76.8207H99.8622C95.3812 76.8207 91.7487 73.1882 91.7487 68.7072C91.7487 64.2263 95.3812 60.5938 99.8622 60.5938H213.451ZM213.451 93.0476C217.932 93.0476 221.564 96.6801 221.564 101.161C221.564 105.642 217.932 109.275 213.451 109.275C208.97 109.275 205.337 105.642 205.337 101.161C205.337 96.6801 208.97 93.0476 213.451 93.0476Z" fill="#313131"/>
<path id="Vector 216" d="M108.2 145.438L80.5171 118.32C80.3184 118.126 80.3147 117.808 80.5098 117.61C83.1799 114.899 88.3785 109.233 89.7733 107.777C89.9143 107.63 90.1271 107.586 90.3155 107.664C104.985 113.704 131.38 111.779 143.434 109.589C143.923 109.5 144.233 110.105 143.882 110.456L108.903 145.434C108.709 145.628 108.396 145.63 108.2 145.438Z" fill="#313131"/>
</g>
<g id="Group 48096195">
<path id="Rectangle 1546" d="M75.4336 117.029L127.813 64.6494L160.134 66.9676L160.885 97.6828L108.486 150.082L75.4336 117.029Z" stroke="#EEF8FF" stroke-width="2" stroke-linejoin="round"/>
<path id="Rectangle 1547" d="M81.3164 117.967L106.237 93.0457" stroke="#EEF8FF" stroke-width="2" stroke-linecap="round" stroke-linejoin="round"/>
<circle id="Ellipse 102" cx="145.065" cy="80.2973" r="5.79533" stroke="#EEF8FF" stroke-width="2"/>
<circle id="Ellipse 103" cx="164.77" cy="120.864" r="3.4772" stroke="#EEF8FF" stroke-width="2"/>
<circle id="Ellipse 104" opacity="0.6" cx="73.2038" cy="88.4108" r="3.4772" fill="#EEF8FF"/>
<path id="Vector 199" d="M95.2266 49.002V57.1154" stroke="#EEF8FF" stroke-width="2" stroke-linecap="round" stroke-linejoin="round"/>
<path id="Vector 203" d="M146.227 130.137V137.091" stroke="#EEF8FF" stroke-width="2" stroke-linecap="round" stroke-linejoin="round"/>
<path id="Vector 200" d="M95.2266 66.3887V74.5021" stroke="#EEF8FF" stroke-width="2" stroke-linecap="round" stroke-linejoin="round"/>
<path id="Vector 204" d="M146.227 144.045V150.999" stroke="#EEF8FF" stroke-width="2" stroke-linecap="round" stroke-linejoin="round"/>
<path id="Vector 201" d="M82.4766 61.752L90.59 61.752" stroke="#EEF8FF" stroke-width="2" stroke-linecap="round" stroke-linejoin="round"/>
<path id="Vector 205" d="M135.793 140.568L142.747 140.568" stroke="#EEF8FF" stroke-width="2" stroke-linecap="round" stroke-linejoin="round"/>
<path id="Vector 202" d="M99.8633 61.752L107.977 61.752" stroke="#EEF8FF" stroke-width="2" stroke-linecap="round" stroke-linejoin="round"/>
<path id="Vector 206" d="M149.703 140.568L156.658 140.568" stroke="#EEF8FF" stroke-width="2" stroke-linecap="round" stroke-linejoin="round"/>
</g>
</g>
</g>
</svg>
