<svg width="150" height="150" viewBox="0 0 150 150" fill="none" xmlns="http://www.w3.org/2000/svg">
<rect width="150" height="150" fill="#E9E9E9"/>
<rect x="29.8194" y="39" width="42.3546" height="45.7271" rx="4" transform="rotate(-26.3528 29.8194 39)" fill="#BDBDBD"/>
<rect x="66.3371" y="13.2412" width="55.6253" height="59.0675" rx="5.5" transform="rotate(11.0057 66.3371 13.2412)" fill="#BDBDBD" stroke="white" stroke-width="3"/>
<rect x="75.2673" y="24.0941" width="33.1344" height="35.962" rx="2.5" transform="rotate(11.0283 75.2673 24.0941)" fill="white" stroke="white" stroke-width="3"/>
<path d="M79.9716 47.6394L70.9716 53.6394L69.9716 58.1394L99.4716 64.1394L102.972 46.6394L84.4716 56.1394L79.9716 47.6394Z" fill="#D9D9D9"/>
<path d="M39.7637 109.083L32.9597 98.9849V109.083H31.1237V96.1589H33.2837L39.9257 105.987V96.1589H41.7617V109.083H39.7637ZM50.3674 109.353C46.6234 109.353 43.7974 106.419 43.7974 102.603C43.7974 98.7869 46.6234 95.8889 50.3674 95.8889C54.1114 95.8889 56.9374 98.7869 56.9374 102.603C56.9374 106.419 54.1114 109.353 50.3674 109.353ZM50.3674 107.571C53.1034 107.571 54.8854 105.375 54.8854 102.603C54.8854 99.8309 53.1034 97.6709 50.3674 97.6709C47.6314 97.6709 45.8494 99.8309 45.8494 102.603C45.8494 105.375 47.6314 107.571 50.3674 107.571ZM64.7268 109.083H62.7468V96.1589H64.7268V109.083ZM73.432 109.083L69.346 99.2009V109.083H67.528V96.1589H69.958L74.296 106.653L78.616 96.1589H81.064V109.083H79.228V99.1829L75.124 109.083H73.432ZM92.7501 109.083L91.5801 105.879H86.0001L84.8121 109.083H82.8141L87.7641 96.1589H89.9421L94.8561 109.083H92.7501ZM88.8081 98.3189L86.5941 104.277H90.9861L88.8081 98.3189ZM101.679 109.353C97.9528 109.353 95.0728 106.527 95.0728 102.603C95.0728 98.7869 97.8088 95.8889 101.571 95.8889C104.901 95.8889 107.151 97.9229 107.943 100.605H105.639C105.153 98.9489 103.731 97.6709 101.517 97.6709C98.9608 97.6709 97.1248 99.5969 97.1248 102.639C97.1248 105.501 98.8708 107.661 101.751 107.661C104.145 107.661 105.657 106.185 106.017 103.971H101.553V102.387H108.105C108.177 106.527 105.639 109.353 101.679 109.353ZM118.363 107.355V109.083H110.173V96.1589H118.237V97.8869H112.153V101.559H117.697V103.287H112.153V107.355H118.363ZM38.5392 130.083L37.3692 126.879H31.7892L30.6012 130.083H28.6032L33.5532 117.159H35.7312L40.6452 130.083H38.5392ZM34.5972 119.319L32.3832 125.277H36.7752L34.5972 119.319ZM50.8124 117.159L46.0604 130.083H43.8824L39.1304 117.159H41.2544L45.0164 127.779L48.8324 117.159H50.8124ZM59.2286 130.083L58.0586 126.879H52.4786L51.2906 130.083H49.2926L54.2426 117.159H56.4206L61.3346 130.083H59.2286ZM55.2866 119.319L53.0726 125.277H57.4646L55.2866 119.319ZM65.0959 130.083H63.1159V117.159H65.0959V130.083ZM75.7272 130.083H67.8972V117.159H69.8772V128.301H75.7272V130.083ZM86.5626 130.083L85.3926 126.879H79.8126L78.6246 130.083H76.6266L81.5766 117.159H83.7546L88.6686 130.083H86.5626ZM82.6206 119.319L80.4066 125.277H84.7986L82.6206 119.319ZM99.5939 126.375C99.5939 128.733 97.8659 130.083 95.1839 130.083H90.4499V117.159H94.9319C97.5419 117.159 99.1079 118.365 99.1079 120.543C99.1079 121.767 98.3699 122.811 97.1279 123.351C98.7299 123.801 99.5939 124.899 99.5939 126.375ZM94.8059 118.743H92.2679V122.631H94.8059C96.3719 122.631 97.2179 121.893 97.2179 120.687C97.2179 119.481 96.3719 118.743 94.8059 118.743ZM95.0579 124.215H92.2679V128.499H95.0579C96.7499 128.499 97.7039 127.689 97.7039 126.321C97.7039 125.007 96.7499 124.215 95.0579 124.215ZM109.706 130.083H101.876V117.159H103.856V128.301H109.706V130.083ZM119.839 128.355V130.083H111.649V117.159H119.713V118.887H113.629V122.559H119.173V124.287H113.629V128.355H119.839Z" fill="#8B8B8B"/>
</svg>
