<svg width="150" height="150" viewBox="0 0 150 150" fill="none" xmlns="http://www.w3.org/2000/svg">
<rect width="150" height="150" fill="#E9E9E9"/>
<circle cx="75" cy="75" r="68" fill="white"/>
<path d="M94.4685 32.1984L57.5 46V49.5L90.6838 38.4387C91.3313 38.2229 92 38.7049 92 39.3874V117.5H115V112H107.5V42L95.443 32.3544C95.1682 32.1346 94.7982 32.0753 94.4685 32.1984Z" fill="#BDBDBD"/>
<path d="M83 54.0571V116.5C83 117.052 82.5523 117.5 82 117.5H69C68.4477 117.5 68 117.052 68 116.5V55.8874C68 55.2049 67.3313 54.7229 66.6838 54.9387L40.1771 63.7743C39.772 63.9093 39.4973 64.2867 39.4933 64.7137L39.0093 116.509C39.0041 117.058 38.5579 117.5 38.0093 117.5H35C34.4477 117.5 34 117.052 34 116.5V61.7004C34 61.2799 34.2631 60.9043 34.6583 60.7606L72.0442 47.1657C72.3321 47.0611 72.652 47.0941 72.9123 47.2553L82.5264 53.2068C82.8208 53.3891 83 53.7107 83 54.0571Z" fill="#BDBDBD"/>
<path d="M45 69L63 62V71L45 77V69Z" fill="#BDBDBD"/>
<path d="M45 82L63 78V86L45 90V82Z" fill="#BDBDBD"/>
<path d="M45 96L63 94V102L45 104V96Z" fill="#BDBDBD"/>
<path d="M45 110L63 108V118H45V110Z" fill="#BDBDBD"/>
</svg>
