<svg width="250" height="200" viewBox="0 0 250 200" fill="none" xmlns="http://www.w3.org/2000/svg">
<path fill-rule="evenodd" clip-rule="evenodd" d="M80.3919 108.612C80.1415 92.8423 79.9058 78 81.5 78C82.2316 78 89.1733 78.0519 98.64 78.1226C121.523 78.2935 159.158 78.5746 159.5 78.5C165.662 81.0947 166.149 87.0309 166 101.5C167.469 101.255 168 101.5 169 102C169 105.787 169.197 108.866 169.355 111.336C169.759 117.671 169.908 120 165.826 120C165.834 123.948 165.882 128.476 166 133.839L209 134C212.866 134 216 130.866 216 127C216 123.134 212.866 120 209 120H203C199.134 120 196 116.866 196 113C196 109.134 199.134 106 203 106H222C225.866 106 229 102.866 229 99C229 95.134 225.866 92 222 92H200C203.866 92 207 88.866 207 85C207 81.134 203.866 78 200 78H157C153.5 62 138 64.5 144 72H106C108.787 70.4797 113.851 68.4457 117.926 66.8091C121.892 65.2163 124.92 64 124 64H79C75.134 64 72 67.134 72 71C72 74.866 75.134 78 79 78H39C35.134 78 32 81.134 32 85C32 88.866 35.134 92 39 92H64C67.866 92 71 95.134 71 99C71 102.866 67.866 106 64 106H24C20.134 106 17 109.134 17 113C17 116.866 20.134 120 24 120H63C59.134 120 56 123.134 56 127C56 130.866 60.134 133.839 64 133.839H80.5C80.6812 126.832 80.5341 117.572 80.3919 108.612ZM226 134C229.866 134 233 130.866 233 127C233 123.134 229.866 120 226 120C222.134 120 219 123.134 219 127C219 130.866 222.134 134 226 134Z" fill="#313131"/>
<path d="M106.5 86H87V133H161V125.327C128.2 124.176 111 98.6293 106.5 86Z" fill="#313131"/>
<path d="M166 99.5V87.5C166 82.5294 161.971 78.5 157 78.5H81V131.5C81 136.471 85.0294 140.5 90 140.5H157C161.971 140.5 166 136.471 166 131.5V120" stroke="#EEF8FF" stroke-width="2"/>
<path d="M119 66.5H87C83.6863 66.5 81 69.1863 81 72.5V78.5H157V78.5C157 71.8726 151.627 66.5 145 66.5H141.5" stroke="#EEF8FF" stroke-width="2"/>
<path d="M140.482 62.6125L147 78.5H88L135.353 60.3945C137.381 59.619 139.658 60.6034 140.482 62.6125Z" stroke="#EEF8FF" stroke-width="2" stroke-linecap="round" stroke-linejoin="round"/>
<path d="M148 110.5C148 105.529 152.029 101.5 157 101.5H169V119.5H157C152.029 119.5 148 115.471 148 110.5V110.5Z" stroke="#EEF8FF" stroke-width="2"/>
<circle cx="156" cy="110.5" r="3" stroke="#EEF8FF" stroke-width="2"/>
<path d="M87 132.5H157" stroke="#EEF8FF" stroke-width="2" stroke-linecap="round" stroke-linejoin="round"/>
<path d="M88.5 86.5H158.5" stroke="#EEF8FF" stroke-width="2" stroke-linecap="round" stroke-linejoin="round"/>
</svg>
