<svg width="42" height="42" viewBox="0 0 42 42" fill="none" xmlns="http://www.w3.org/2000/svg">
<path d="M17.9102 3.21459C19.5953 1.45918 22.4047 1.45918 24.0898 3.21459C25.138 4.30659 26.6858 4.76386 28.159 4.41611C30.5153 3.8599 32.8709 5.40703 33.3445 7.78128C33.6414 9.26943 34.7005 10.5146 36.1286 11.0277C38.4153 11.8493 39.5658 14.4218 38.6897 16.6882C38.1409 18.1078 38.3677 19.7318 39.2924 20.9407C40.7747 22.8786 40.3822 25.6652 38.4139 27.1068C37.1876 28.0049 36.5205 29.5009 36.6509 31.0153C36.8586 33.4293 35.0347 35.5797 32.6157 35.7169C31.103 35.8026 29.7411 36.6904 29.0411 38.0341C27.9207 40.1847 25.2257 40.9941 23.1207 39.7902C21.8068 39.0387 20.1932 39.0387 18.8793 39.7902C16.7743 40.9941 14.0793 40.1847 12.9589 38.0341C12.2589 36.6904 10.897 35.8026 9.38432 35.7169C6.96534 35.5797 5.14137 33.4293 5.34913 31.0153C5.47947 29.5009 4.81243 28.0049 3.5861 27.1068C1.61776 25.6652 1.22525 22.8786 2.70757 20.9407C3.63228 19.7318 3.8591 18.1078 3.31031 16.6882C2.43418 14.4218 3.58467 11.8493 5.87141 11.0277C7.29951 10.5146 8.35865 9.26943 8.65551 7.78128C9.12912 5.40703 11.4847 3.85991 13.841 4.41611C15.3142 4.76386 16.862 4.30659 17.9102 3.21459Z" fill="url(#paint0_linear_2053_106004)"/>
<path d="M17.9102 3.2146C19.5953 1.45919 22.4047 1.45918 24.0898 3.21459C25.138 4.30659 26.6858 4.76386 28.159 4.41611C30.5153 3.85991 32.8709 5.40703 33.3445 7.78128C33.6413 9.26943 34.7005 10.5146 36.1286 11.0277C38.4153 11.8493 39.5658 14.4218 38.6897 16.6882C38.1409 18.1078 38.3677 19.7318 39.2924 20.9407C40.7747 22.8786 40.3822 25.6652 38.4139 27.1068C37.1876 28.0049 36.5205 29.5009 36.6509 31.0153C36.8586 33.4293 35.0347 35.5797 32.6157 35.7169C31.103 35.8026 29.7411 36.6904 29.0411 38.0341C27.9207 40.1847 25.2257 40.9941 23.1207 39.7902C21.8068 39.0387 20.1932 39.0387 18.8793 39.7902C16.7743 40.9941 14.0793 40.1847 12.9589 38.0341C12.2589 36.6904 10.897 35.8026 9.38432 35.7169C6.96534 35.5797 5.14137 33.4293 5.34913 31.0153C5.47947 29.5009 4.81243 28.0049 3.5861 27.1068C1.61776 25.6652 1.22525 22.8786 2.70757 20.9407C3.63228 19.7318 3.85909 18.1078 3.31031 16.6882C2.43418 14.4218 3.58466 11.8493 5.87141 11.0277C7.29951 10.5146 8.35865 9.26943 8.65551 7.78128C9.12912 5.40703 11.4847 3.85991 13.841 4.41611C15.3142 4.76386 16.862 4.30659 17.9102 3.2146Z" fill="url(#paint1_linear_2053_106004)" fill-opacity="0.1"/>
<path d="M6.43945 21.2824C6.43945 13.2411 12.9582 6.72241 20.9994 6.72241C29.0407 6.72241 35.5594 13.2411 35.5594 21.2824V21.5818C35.5594 29.6231 29.0407 36.1418 20.9994 36.1418C12.9582 36.1418 6.43945 29.6231 6.43945 21.5818V21.2824Z" fill="black" fill-opacity="0.04"/>
<path d="M9.99852 21.2824C9.99852 15.2068 14.9238 10.2815 20.9994 10.2815C27.075 10.2815 32.0003 15.2068 32.0003 21.2824V21.5818C32.0003 27.6575 27.075 32.5827 20.9994 32.5827C14.9238 32.5827 9.99852 27.6575 9.99852 21.5818V21.2824Z" stroke="white" stroke-opacity="0.3" stroke-width="7.11814"/>
<path d="M35.7577 21.5654C35.7577 29.7153 29.1508 36.3221 21.0009 36.3221C12.851 36.3221 6.24414 29.7153 6.24414 21.5654C6.24414 13.4154 12.851 6.80859 21.0009 6.80859C29.1508 6.80859 35.7577 13.4154 35.7577 21.5654ZM9.2822 21.5654C9.2822 28.0374 14.5288 33.284 21.0009 33.284C27.473 33.284 32.7196 28.0374 32.7196 21.5654C32.7196 15.0933 27.473 9.84665 21.0009 9.84665C14.5288 9.84665 9.2822 15.0933 9.2822 21.5654Z" fill="url(#paint2_linear_2053_106004)" fill-opacity="0.5"/>
<path fill-rule="evenodd" clip-rule="evenodd" d="M18.5761 17.4867C18.5761 16.7879 18.8537 16.1177 19.3479 15.6236C19.842 15.1294 20.5122 14.8518 21.211 14.8518C21.9099 14.8518 22.5801 15.1294 23.0742 15.6236C23.5684 16.1177 23.846 16.7879 23.846 17.4867C23.846 18.1856 23.5684 18.8558 23.0742 19.3499C22.5801 19.8441 21.9099 20.1217 21.211 20.1217C20.5122 20.1217 19.842 19.8441 19.3479 19.3499C18.8537 18.8558 18.5761 18.1856 18.5761 17.4867ZM16.3809 25.7458C16.4007 24.4778 16.9182 23.2684 17.8219 22.3787C18.7256 21.489 19.9429 20.9903 21.211 20.9903C22.4792 20.9903 23.6965 21.489 24.6002 22.3787C25.5038 23.2684 26.0214 24.4778 26.0412 25.7458C26.0427 25.8311 26.0193 25.9151 25.9738 25.9874C25.9284 26.0596 25.8629 26.1171 25.7853 26.1527C24.3502 26.8107 22.7898 27.1503 21.211 27.1481C19.5797 27.1481 18.0298 26.7921 16.6368 26.1527C16.5592 26.1171 16.4937 26.0596 16.4482 25.9874C16.4028 25.9151 16.3794 25.8311 16.3809 25.7458Z" fill="#0D6EFD"/>
<defs>
<linearGradient id="paint0_linear_2053_106004" x1="27.0432" y1="41.9958" x2="13.7968" y2="4.63933" gradientUnits="userSpaceOnUse">
<stop offset="0.0625" stop-color="#0D6EFD"/>
<stop offset="1" stop-color="#C5CBD2"/>
</linearGradient>
<linearGradient id="paint1_linear_2053_106004" x1="-7.21285" y1="-3.2854" x2="24.6918" y2="53.6615" gradientUnits="userSpaceOnUse">
<stop stop-color="white"/>
<stop offset="1" stop-color="white" stop-opacity="0"/>
</linearGradient>
<linearGradient id="paint2_linear_2053_106004" x1="21.0009" y1="6.80859" x2="21.0009" y2="36.3221" gradientUnits="userSpaceOnUse">
<stop stop-color="white"/>
<stop offset="0.0001" stop-color="white" stop-opacity="0.81"/>
<stop offset="1" stop-color="white" stop-opacity="0"/>
</linearGradient>
</defs>
</svg>
