<svg width="30" height="30" viewBox="0 0 30 30" fill="none" xmlns="http://www.w3.org/2000/svg">
<path d="M12.793 2.29605C13.9966 1.04219 16.0034 1.04219 17.207 2.29605C17.9557 3.07605 19.0613 3.40267 20.1136 3.15428C21.7966 2.75699 23.4792 3.86208 23.8175 5.55797C24.0295 6.62094 24.7861 7.51037 25.8061 7.87685C27.4395 8.46368 28.2613 10.3012 27.6355 11.92C27.2435 12.934 27.4055 14.0941 28.066 14.9576C29.1248 16.3417 28.8445 18.3322 27.4385 19.3619C26.5626 20.0034 26.0861 21.072 26.1792 22.1537C26.3276 23.878 25.0248 25.414 23.2969 25.512C22.2164 25.5732 21.2436 26.2073 20.7436 27.1671C19.9434 28.7033 18.0183 29.2814 16.5148 28.4215C15.5763 27.8847 14.4237 27.8847 13.4852 28.4215C11.9817 29.2814 10.0566 28.7033 9.25638 27.1671C8.75638 26.2073 7.78356 25.5732 6.70308 25.512C4.97524 25.414 3.67241 23.878 3.82081 22.1537C3.91391 21.072 3.43745 20.0034 2.5615 19.3619C1.15554 18.3322 0.875182 16.3417 1.93398 14.9576C2.59448 14.0941 2.7565 12.934 2.36451 11.92C1.7387 10.3012 2.56048 8.46368 4.19386 7.87685C5.21394 7.51037 5.97046 6.62094 6.1825 5.55797C6.5208 3.86208 8.20337 2.75699 9.88642 3.15428C10.9387 3.40267 12.0443 3.07605 12.793 2.29605Z" fill="url(#paint0_linear_3480_97483)"/>
<path d="M12.793 2.29605C13.9966 1.04219 16.0033 1.04219 17.207 2.29605C17.9557 3.07605 19.0613 3.40267 20.1136 3.15428C21.7966 2.75699 23.4792 3.86208 23.8175 5.55797C24.0295 6.62094 24.7861 7.51037 25.8061 7.87685C27.4395 8.46368 28.2613 10.3012 27.6355 11.92C27.2435 12.934 27.4055 14.0941 28.066 14.9576C29.1248 16.3417 28.8445 18.3322 27.4385 19.3619C26.5626 20.0034 26.0861 21.072 26.1792 22.1537C26.3276 23.878 25.0248 25.414 23.2969 25.512C22.2164 25.5732 21.2436 26.2073 20.7436 27.1671C19.9434 28.7033 18.0183 29.2814 16.5148 28.4215C15.5763 27.8847 14.4237 27.8847 13.4852 28.4215C11.9817 29.2814 10.0566 28.7033 9.25638 27.1671C8.75638 26.2073 7.78356 25.5732 6.70308 25.512C4.97524 25.414 3.67241 23.878 3.82081 22.1537C3.91391 21.072 3.43745 20.0034 2.5615 19.3619C1.15554 18.3322 0.875182 16.3417 1.93398 14.9576C2.59448 14.0941 2.7565 12.934 2.36451 11.92C1.7387 10.3012 2.56047 8.46368 4.19386 7.87685C5.21394 7.51037 5.97046 6.62094 6.1825 5.55797C6.5208 3.86208 8.20337 2.75699 9.88642 3.15428C10.9387 3.40267 12.0443 3.07605 12.793 2.29605Z" fill="url(#paint1_linear_3480_97483)" fill-opacity="0.1"/>
<path d="M4.59961 15.2017C4.59961 9.45792 9.25584 4.8017 14.9996 4.8017C20.7433 4.8017 25.3996 9.45792 25.3996 15.2017V15.4156C25.3996 21.1593 20.7433 25.8155 14.9996 25.8155C9.25584 25.8155 4.59961 21.1593 4.59961 15.4156V15.2017Z" fill="black" fill-opacity="0.04"/>
<path d="M6.82253 15.2017C6.82253 10.6856 10.4835 7.02462 14.9996 7.02462C19.5156 7.02462 23.1766 10.6856 23.1766 15.2017V15.4156C23.1766 19.9316 19.5156 23.5926 14.9996 23.5926C10.4835 23.5926 6.82253 19.9316 6.82253 15.4156V15.2017Z" stroke="white" stroke-opacity="0.3" stroke-width="4.44584"/>
<path d="M25.5407 15.4038C25.5407 21.2252 20.8216 25.9444 15.0002 25.9444C9.17882 25.9444 4.45966 21.2252 4.45966 15.4038C4.45966 9.58244 9.17882 4.86328 15.0002 4.86328C20.8216 4.86328 25.5407 9.58244 25.5407 15.4038ZM6.6297 15.4038C6.6297 20.0267 10.3773 23.7743 15.0002 23.7743C19.6231 23.7743 23.3707 20.0267 23.3707 15.4038C23.3707 10.7809 19.6231 7.03332 15.0002 7.03332C10.3773 7.03332 6.6297 10.7809 6.6297 15.4038Z" fill="url(#paint2_linear_3480_97483)" fill-opacity="0.5"/>
<path fill-rule="evenodd" clip-rule="evenodd" d="M13.5681 12.882C13.5681 12.3829 13.7664 11.9042 14.1194 11.5512C14.4723 11.1982 14.951 10.9999 15.4502 10.9999C15.9494 10.9999 16.4281 11.1982 16.781 11.5512C17.134 11.9042 17.3323 12.3829 17.3323 12.882C17.3323 13.3812 17.134 13.8599 16.781 14.2129C16.4281 14.5658 15.9494 14.7641 15.4502 14.7641C14.951 14.7641 14.4723 14.5658 14.1194 14.2129C13.7664 13.8599 13.5681 13.3812 13.5681 12.882ZM12.0001 18.7813C12.0142 17.8756 12.3839 17.0118 13.0294 16.3763C13.6749 15.7408 14.5444 15.3846 15.4502 15.3846C16.356 15.3846 17.2255 15.7408 17.871 16.3763C18.5165 17.0118 18.8862 17.8756 18.9003 18.7813C18.9014 18.8423 18.8847 18.9023 18.8522 18.9539C18.8197 19.0055 18.7729 19.0466 18.7175 19.072C17.6925 19.542 16.5778 19.7846 15.4502 19.783C14.285 19.783 13.1779 19.5287 12.1829 19.072C12.1275 19.0466 12.0807 19.0055 12.0482 18.9539C12.0157 18.9023 11.999 18.8423 12.0001 18.7813Z" fill="#0D6EFD"/>
<defs>
<linearGradient id="paint0_linear_3480_97483" x1="19.3165" y1="29.9969" x2="9.85488" y2="3.31372" gradientUnits="userSpaceOnUse">
<stop offset="0.0625" stop-color="#0D6EFD"/>
<stop offset="1" stop-color="#C5CBD2"/>
</linearGradient>
<linearGradient id="paint1_linear_3480_97483" x1="-5.15203" y1="-2.3468" x2="17.637" y2="38.3296" gradientUnits="userSpaceOnUse">
<stop stop-color="white"/>
<stop offset="1" stop-color="white" stop-opacity="0"/>
</linearGradient>
<linearGradient id="paint2_linear_3480_97483" x1="15.0002" y1="4.86328" x2="15.0002" y2="25.9444" gradientUnits="userSpaceOnUse">
<stop stop-color="white"/>
<stop offset="0.0001" stop-color="white" stop-opacity="0.81"/>
<stop offset="1" stop-color="white" stop-opacity="0"/>
</linearGradient>
</defs>
</svg>
