<svg width="56" height="56" viewBox="0 0 20 20" fill="none" xmlns="http://www.w3.org/2000/svg">
<path d="M8.32079 1.3803C9.04465 0.626219 10.2506 0.626219 10.9745 1.3803L11.1172 1.52892C11.5679 1.99844 12.2332 2.19481 12.8666 2.04529L13.0635 1.9988C14.0766 1.75965 15.0862 2.4082 15.2898 3.42905L15.3372 3.66676C15.4634 4.29945 15.9119 4.81975 16.5191 5.03789L16.7408 5.11755C17.713 5.46684 18.2069 6.5481 17.8344 7.51166L17.7375 7.76233C17.5066 8.35973 17.6031 9.03425 17.9922 9.54296L18.1543 9.75487C18.7806 10.5736 18.6118 11.7471 17.7802 12.3562L17.5749 12.5065C17.0568 12.886 16.7741 13.5082 16.8292 14.1481L16.8514 14.4068C16.9404 15.4398 16.1583 16.3421 15.1231 16.4008L14.9073 16.4131C14.2599 16.4498 13.6797 16.8246 13.3802 17.3996L13.2775 17.5968C12.7951 18.5228 11.6395 18.862 10.7331 18.3436L10.5608 18.2451C9.99503 17.9215 9.30027 17.9215 8.73452 18.2451L8.56217 18.3436C7.65582 18.862 6.50024 18.5228 6.01785 17.5968L5.91511 17.3996C5.61556 16.8246 5.03537 16.4498 4.38805 16.4131L4.1722 16.4008C3.13703 16.3421 2.35495 15.4398 2.44385 14.4068L2.46612 14.1481C2.52119 13.5082 2.23852 12.886 1.7204 12.5065L1.51512 12.3562C0.6835 11.7471 0.514731 10.5736 1.14101 9.75487L1.3031 9.54296C1.69223 9.03425 1.7887 8.35973 1.55776 7.76233L1.46086 7.51166C1.08838 6.5481 1.58231 5.46684 2.55452 5.11755L2.77625 5.03789C3.38341 4.81975 3.83188 4.29945 3.95809 3.66676L4.00551 3.42905C4.20915 2.40821 5.21865 1.75965 6.23177 1.9988L6.42872 2.04529C7.06214 2.19481 7.72742 1.99844 8.17813 1.52892L8.32079 1.3803Z" fill="url(#paint0_linear_3922_185)"/>
<path d="M8.32079 1.3803C9.04465 0.626219 10.2506 0.626219 10.9745 1.3803L11.1172 1.52892C11.5679 1.99844 12.2332 2.19481 12.8666 2.04529L13.0635 1.9988C14.0767 1.75965 15.0862 2.4082 15.2898 3.42905L15.3372 3.66676C15.4634 4.29945 15.9119 4.81975 16.5191 5.03789L16.7408 5.11755C17.713 5.46684 18.2069 6.5481 17.8344 7.51166L17.7375 7.76233C17.5066 8.35973 17.6031 9.03425 17.9922 9.54296L18.1543 9.75487C18.7806 10.5736 18.6118 11.7471 17.7802 12.3562L17.5749 12.5065C17.0568 12.886 16.7741 13.5082 16.8292 14.1481L16.8514 14.4068C16.9404 15.4398 16.1583 16.3421 15.1231 16.4008L14.9073 16.4131C14.2599 16.4498 13.6797 16.8246 13.3802 17.3996L13.2775 17.5968C12.7951 18.5228 11.6395 18.862 10.7331 18.3436L10.5608 18.2451C9.99503 17.9215 9.30027 17.9215 8.73452 18.2451L8.56217 18.3436C7.65582 18.862 6.50024 18.5228 6.01785 17.5968L5.91511 17.3996C5.61556 16.8246 5.03537 16.4498 4.38805 16.4131L4.1722 16.4008C3.13703 16.3421 2.35495 15.4398 2.44385 14.4068L2.46612 14.1481C2.52119 13.5082 2.23852 12.886 1.7204 12.5065L1.51512 12.3562C0.6835 11.7471 0.514731 10.5736 1.14101 9.75487L1.3031 9.54296C1.69223 9.03425 1.7887 8.35973 1.55776 7.76233L1.46086 7.51166C1.08838 6.5481 1.58231 5.46684 2.55452 5.11755L2.77625 5.03789C3.38341 4.81975 3.83188 4.29945 3.95809 3.66676L4.00551 3.42905C4.20915 2.40821 5.21865 1.75965 6.23177 1.9988L6.42872 2.04529C7.06214 2.19481 7.72742 1.99844 8.17813 1.52892L8.32079 1.3803Z" fill="url(#paint1_linear_3922_185)" fill-opacity="0.1"/>
<path d="M2.9585 9.77691C2.9585 6.08266 5.95327 3.08789 9.64752 3.08789C13.3418 3.08789 16.3365 6.08267 16.3365 9.77691V9.91449C16.3365 13.6087 13.3418 16.6035 9.64752 16.6035C5.95327 16.6035 2.9585 13.6087 2.9585 9.91448V9.77691Z" fill="black" fill-opacity="0.04"/>
<path d="M3.64523 9.77691C3.64523 6.46194 6.33254 3.77462 9.64752 3.77462C12.9625 3.77462 15.6498 6.46194 15.6498 9.77691V9.91449C15.6498 13.2295 12.9625 15.9168 9.64752 15.9168C6.33255 15.9168 3.64523 13.2295 3.64523 9.91448V9.77691Z" stroke="white" stroke-opacity="0.3" stroke-width="1.37347"/>
<path d="M16.4275 9.90834C16.4275 13.6525 13.3923 16.6878 9.64808 16.6878C5.90391 16.6878 2.86865 13.6525 2.86865 9.90834C2.86865 6.16416 5.90391 3.12891 9.64808 3.12891C13.3923 3.12891 16.4275 6.16416 16.4275 9.90834ZM4.26437 9.90834C4.26437 12.8817 6.67474 15.292 9.64808 15.292C12.6214 15.292 15.0318 12.8817 15.0318 9.90834C15.0318 6.935 12.6214 4.52463 9.64808 4.52463C6.67474 4.52463 4.26437 6.935 4.26437 9.90834Z" fill="url(#paint2_linear_3922_185)" fill-opacity="0.5"/>
<path fill-rule="evenodd" clip-rule="evenodd" d="M8.53343 8.03278C8.53343 7.71173 8.66097 7.40383 8.88798 7.17682C9.115 6.9498 9.4229 6.82227 9.74395 6.82227C10.065 6.82227 10.3729 6.9498 10.5999 7.17682C10.8269 7.40383 10.9545 7.71173 10.9545 8.03278C10.9545 8.35383 10.8269 8.66173 10.5999 8.88875C10.3729 9.11576 10.065 9.2433 9.74395 9.2433C9.4229 9.2433 9.115 9.11576 8.88798 8.88875C8.66097 8.66173 8.53343 8.35383 8.53343 8.03278ZM7.52493 11.8271C7.53401 11.2445 7.77178 10.6889 8.18694 10.2802C8.6021 9.87145 9.16134 9.64235 9.74395 9.64235C10.3266 9.64235 10.8858 9.87145 11.301 10.2802C11.7161 10.6889 11.9539 11.2445 11.963 11.8271C11.9637 11.8663 11.9529 11.9049 11.932 11.9381C11.9112 11.9713 11.8811 11.9977 11.8454 12.014C11.1861 12.3163 10.4692 12.4723 9.74395 12.4713C8.9945 12.4713 8.28245 12.3078 7.64249 12.014C7.60684 11.9977 7.57674 11.9713 7.55586 11.9381C7.53498 11.9049 7.52423 11.8663 7.52493 11.8271Z" fill="#0D6EFD"/>
<defs>
<linearGradient id="paint0_linear_3922_185" x1="12.424" y1="19.2933" x2="6.33843" y2="2.13132" gradientUnits="userSpaceOnUse">
<stop offset="0.0625" stop-color="#0D6EFD"/>
<stop offset="1" stop-color="#C5CBD2"/>
</linearGradient>
<linearGradient id="paint1_linear_3922_185" x1="-3.31367" y1="-1.5094" x2="11.3437" y2="24.6527" gradientUnits="userSpaceOnUse">
<stop stop-color="white"/>
<stop offset="1" stop-color="white" stop-opacity="0"/>
</linearGradient>
<linearGradient id="paint2_linear_3922_185" x1="9.64808" y1="3.12891" x2="9.64808" y2="16.6878" gradientUnits="userSpaceOnUse">
<stop stop-color="white"/>
<stop offset="0.0001" stop-color="white" stop-opacity="0.81"/>
<stop offset="1" stop-color="white" stop-opacity="0"/>
</linearGradient>
</defs>
</svg>
