<svg width="130" height="130" viewBox="0 0 130 130" fill="none" xmlns="http://www.w3.org/2000/svg">
<path d="M55.4365 9.95008C60.6521 4.51667 69.3479 4.51667 74.5635 9.95008C77.808 13.3301 82.5989 14.7454 87.1588 13.6691C94.4521 11.9475 101.743 16.7362 103.209 24.0851C104.128 28.6913 107.406 32.5455 111.827 34.1335C118.905 36.6765 122.466 44.639 119.754 51.654C118.055 56.0481 118.757 61.0749 121.619 64.8167C126.208 70.8148 124.993 79.44 118.9 83.9021C115.104 86.6821 113.04 91.3124 113.443 96C114.086 103.472 108.441 110.128 100.953 110.552C96.2713 110.818 92.0557 113.566 89.889 117.725C86.4213 124.381 78.0795 126.887 71.5641 123.16C67.4971 120.834 62.5029 120.834 58.4359 123.16C51.9206 126.887 43.5787 124.381 40.111 117.725C37.9443 113.566 33.7287 110.818 29.0467 110.552C21.5594 110.128 15.9138 103.472 16.5568 96C16.9603 91.3124 14.8956 86.6821 11.0998 83.9021C5.00736 79.44 3.79245 70.8148 8.38058 64.8167C11.2428 61.0749 11.9448 56.0481 10.2462 51.654C7.53438 44.639 11.0954 36.6765 18.1734 34.1335C22.5937 32.5455 25.872 28.6913 26.7908 24.0851C28.2568 16.7362 35.548 11.9475 42.8412 13.6691C47.4011 14.7454 52.192 13.3301 55.4365 9.95008Z" fill="url(#paint0_linear_2053_105902)"/>
<path d="M55.4365 9.95009C60.6521 4.51667 69.3478 4.51667 74.5635 9.95008C77.808 13.3301 82.5989 14.7454 87.1588 13.6691C94.452 11.9475 101.743 16.7362 103.209 24.0851C104.128 28.6912 107.406 32.5455 111.827 34.1335C118.905 36.6765 122.466 44.639 119.754 51.654C118.055 56.0481 118.757 61.0749 121.619 64.8167C126.208 70.8148 124.993 79.44 118.9 83.9021C115.104 86.6821 113.04 91.3124 113.443 96C114.086 103.472 108.441 110.128 100.953 110.552C96.2712 110.818 92.0557 113.566 89.889 117.725C86.4213 124.381 78.0795 126.887 71.5641 123.16C67.4971 120.834 62.5029 120.834 58.4359 123.16C51.9205 126.887 43.5787 124.381 40.111 117.725C37.9443 113.566 33.7287 110.818 29.0467 110.552C21.5594 110.128 15.9138 103.472 16.5568 96C16.9603 91.3124 14.8956 86.6821 11.0998 83.9021C5.00736 79.44 3.79245 70.8148 8.38058 64.8167C11.2428 61.0749 11.9448 56.0481 10.2462 51.654C7.53438 44.639 11.0954 36.6765 18.1734 34.1335C22.5937 32.5455 25.872 28.6913 26.7908 24.0851C28.2568 16.7362 35.5479 11.9475 42.8412 13.6691C47.4011 14.7454 52.1919 13.3301 55.4365 9.95009Z" fill="url(#paint1_linear_2053_105902)" fill-opacity="0.1"/>
<path d="M19.9316 65.8741C19.9316 40.9846 40.1086 20.8076 64.9982 20.8076C89.8878 20.8076 110.065 40.9846 110.065 65.8742V66.8011C110.065 91.6906 89.8878 111.868 64.9982 111.868C40.1086 111.868 19.9316 91.6906 19.9316 66.8011V65.8741Z" fill="black" fill-opacity="0.04"/>
<path d="M29.2907 65.8741C29.2907 46.1534 45.2775 30.1666 64.9982 30.1666C84.7189 30.1666 100.706 46.1535 100.706 65.8742V66.8011C100.706 86.5218 84.7189 102.509 64.9982 102.509C45.2775 102.509 29.2907 86.5218 29.2907 66.8011V65.8741Z" stroke="white" stroke-opacity="0.3" stroke-width="18.7181"/>
<path d="M110.681 66.7499C110.681 91.9759 90.2317 112.426 65.0058 112.426C39.7798 112.426 19.3301 91.9759 19.3301 66.7499C19.3301 41.5239 39.7798 21.0742 65.0058 21.0742C90.2317 21.0742 110.681 41.5239 110.681 66.7499ZM28.7336 66.7499C28.7336 86.7825 44.9732 103.022 65.0058 103.022C85.0383 103.022 101.278 86.7825 101.278 66.7499C101.278 46.7173 85.0383 30.4777 65.0058 30.4777C44.9732 30.4777 28.7336 46.7173 28.7336 66.7499Z" fill="url(#paint2_linear_2053_105902)" fill-opacity="0.5"/>
<path fill-rule="evenodd" clip-rule="evenodd" d="M57.496 54.1257C57.496 51.9627 58.3553 49.8882 59.8848 48.3587C61.4143 46.8292 63.4887 45.97 65.6517 45.97C67.8148 45.97 69.8892 46.8292 71.4187 48.3587C72.9482 49.8882 73.8075 51.9627 73.8075 54.1257C73.8075 56.2887 72.9482 58.3632 71.4187 59.8927C69.8892 61.4222 67.8148 62.2814 65.6517 62.2814C63.4887 62.2814 61.4143 61.4222 59.8848 59.8927C58.3553 58.3632 57.496 56.2887 57.496 54.1257ZM50.7014 79.6894C50.7625 75.7646 52.3645 72.0213 55.1616 69.2674C57.9587 66.5135 61.7265 64.97 65.6517 64.97C69.577 64.97 73.3448 66.5135 76.1419 69.2674C78.939 72.0213 80.541 75.7646 80.6021 79.6894C80.6068 79.9536 80.5344 80.2135 80.3937 80.4372C80.2531 80.6609 80.0503 80.8387 79.8101 80.949C75.3682 82.9856 70.5382 84.0367 65.6517 84.03C60.6024 84.03 55.8051 82.9281 51.4934 80.949C51.2532 80.8387 51.0504 80.6609 50.9097 80.4372C50.7691 80.2135 50.6967 79.9536 50.7014 79.6894Z" fill="#0D6EFD"/>
<defs>
<linearGradient id="paint0_linear_2053_105902" x1="83.705" y1="129.987" x2="42.7045" y2="14.36" gradientUnits="userSpaceOnUse">
<stop offset="0.0625" stop-color="#0D6EFD"/>
<stop offset="1" stop-color="#C5CBD2"/>
</linearGradient>
<linearGradient id="paint1_linear_2053_105902" x1="-22.3255" y1="-10.1689" x2="76.4271" y2="166.095" gradientUnits="userSpaceOnUse">
<stop stop-color="white"/>
<stop offset="1" stop-color="white" stop-opacity="0"/>
</linearGradient>
<linearGradient id="paint2_linear_2053_105902" x1="65.0058" y1="21.0742" x2="65.0058" y2="112.426" gradientUnits="userSpaceOnUse">
<stop stop-color="white"/>
<stop offset="0.0001" stop-color="white" stop-opacity="0.81"/>
<stop offset="1" stop-color="white" stop-opacity="0"/>
</linearGradient>
</defs>
</svg>
