<svg width="173" height="92" viewBox="0 0 173 92" fill="none" xmlns="http://www.w3.org/2000/svg">
<path fill-rule="evenodd" clip-rule="evenodd" d="M165.73 10.4186C169.734 10.4186 172.98 13.6046 172.98 17.5349C172.98 21.4651 169.734 24.6511 165.73 24.6511H124.297C128.302 24.6511 131.548 27.8372 131.548 31.7674C131.548 35.6976 130.109 38.8837 126.105 38.8837H147.085C151.09 38.8837 154.336 42.0698 154.336 46C154.336 49.9302 151.09 53.1163 147.085 53.1163H136.547C131.498 53.1163 127.405 56.3023 127.405 60.2325C127.405 62.8527 129.476 65.2248 133.62 67.3488C137.624 67.3488 140.87 70.5349 140.87 74.4651C140.87 78.3953 137.624 81.5814 133.62 81.5814H106.744L103.605 60.2325L126.105 36.0581L95.2326 30.8256L83.1977 10.4186H73.7791L62.2674 30.3023L31.9186 36.5814L52.3256 60.2325L50.7558 81.5814H47.6473C43.6428 81.5814 40.3966 78.3953 40.3966 74.4651C40.3966 70.5349 43.6428 67.3488 47.6473 67.3488H7.25067C3.24624 67.3488 0 64.1627 0 60.2325C0 56.3023 3.24624 53.1163 7.25067 53.1163H46.1854C40.2907 46 41.3997 47.5697 39.0216 44.8136C35.5814 40.8265 35.5305 40.7674 33.7245 38.6744L22.7878 38.8837C18.7834 38.8837 15.5372 35.6976 15.5372 31.7674C15.5372 27.8372 18.7834 24.6511 22.7878 24.6511H62.7907C58.7863 24.6511 56.9696 21.4651 56.9696 17.5349C56.9696 13.6046 60.2158 10.4186 64.2202 10.4186H165.73ZM165.73 38.8837C169.734 38.8837 172.98 42.0698 172.98 46C172.98 49.9302 169.734 53.1163 165.73 53.1163C161.725 53.1163 158.479 49.9302 158.479 46C158.479 42.0698 161.725 38.8837 165.73 38.8837Z" fill="#313131"/>
<path d="M78.4895 2.04651L94.4665 30.2886L125.239 36.5676L104.341 60.6787L107.269 91L78.4895 79.4608L49.1872 91L52.6381 60.6787L31.7398 36.5676L62.5124 30.2886L78.4895 2.04651Z" stroke="#EEF8FF" stroke-width="2" stroke-linejoin="round"/>
<path d="M99.3211 58.0142L106.744 49.1396C98.4776 48.6163 80.3118 41.9186 73.7788 19.314L65.6126 33.3445L40.8137 38.4417L57.6551 58.0142L54.8741 82.6279L78.4881 73.2609L101.681 82.6279L99.3211 58.0142Z" fill="#313131"/>
<path d="M113.475 1V8.27786" stroke="#EEF8FF" stroke-width="2" stroke-linecap="round" stroke-linejoin="round"/>
<path d="M29.7535 58.5582V65.836" stroke="#EEF8FF" stroke-width="2" stroke-linecap="round" stroke-linejoin="round"/>
<path d="M113.475 15.5571V22.835" stroke="#EEF8FF" stroke-width="2" stroke-linecap="round" stroke-linejoin="round"/>
<path d="M29.7535 73.1153V80.3932" stroke="#EEF8FF" stroke-width="2" stroke-linecap="round" stroke-linejoin="round"/>
<path d="M102.559 11.9189L109.836 11.9189" stroke="#EEF8FF" stroke-width="2" stroke-linecap="round" stroke-linejoin="round"/>
<path d="M18.8375 69.477L26.1154 69.477" stroke="#EEF8FF" stroke-width="2" stroke-linecap="round" stroke-linejoin="round"/>
<path d="M117.11 11.9189L124.388 11.9189" stroke="#EEF8FF" stroke-width="2" stroke-linecap="round" stroke-linejoin="round"/>
<path d="M33.3922 69.477L40.6701 69.477" stroke="#EEF8FF" stroke-width="2" stroke-linecap="round" stroke-linejoin="round"/>
<path d="M77.4432 13.5582L68.0246 31.3489" stroke="#EEF8FF" stroke-width="2" stroke-linecap="round" stroke-linejoin="round"/>
</svg>
