<svg width="20" height="20" viewBox="0 0 20 20" fill="none" xmlns="http://www.w3.org/2000/svg">
<path d="M11.9476 13.7364C13.4459 13.559 14.918 13.2054 16.3335 12.6829C15.1348 11.3551 14.4724 9.6291 14.4751 7.84023V7.27732V7.23711C14.4751 5.95744 13.9667 4.73018 13.0618 3.82532C12.157 2.92046 10.9297 2.41211 9.65005 2.41211C8.37038 2.41211 7.14313 2.92046 6.23826 3.82532C5.3334 4.73018 4.82505 5.95744 4.82505 7.23711V7.84023C4.82748 9.62921 4.16482 11.3552 2.96582 12.6829C4.35944 13.1976 5.82865 13.5554 7.35255 13.7364M11.9476 13.7364C10.4212 13.9174 8.87887 13.9174 7.35255 13.7364H11.9476Z" fill="url(#paint0_linear_3967_275)"/>
<path d="M11.9476 13.7364C13.4459 13.559 14.918 13.2054 16.3335 12.6829C15.1348 11.3551 14.4724 9.6291 14.4751 7.84023V7.27732V7.23711C14.4751 5.95744 13.9667 4.73018 13.0618 3.82532C12.157 2.92046 10.9297 2.41211 9.65005 2.41211C8.37038 2.41211 7.14313 2.92046 6.23826 3.82532C5.3334 4.73018 4.82505 5.95744 4.82505 7.23711V7.84023C4.82748 9.62921 4.16482 11.3552 2.96582 12.6829C4.35944 13.1976 5.82865 13.5554 7.35255 13.7364M11.9476 13.7364C10.4212 13.9174 8.87887 13.9174 7.35255 13.7364H11.9476Z" fill="black" fill-opacity="0.1"/>
<path d="M12.1236 14.8434L7.8991 14.8123C8.08218 15.8071 8.94954 16.5628 9.99747 16.5723C11.0454 16.5817 11.9235 15.8363 12.1236 14.8434Z" fill="url(#paint1_linear_3967_275)"/>
<path d="M12.1236 14.8434L7.8991 14.8123C8.08218 15.8071 8.94954 16.5628 9.99747 16.5723C11.0454 16.5817 11.9235 15.8363 12.1236 14.8434Z" fill="black" fill-opacity="0.1"/>
<circle cx="13.0967" cy="3.44676" r="2.06786" fill="url(#paint2_linear_3967_275)"/>
<defs>
<linearGradient id="paint0_linear_3967_275" x1="6.25495" y1="4.66729" x2="14.3172" y2="10.4688" gradientUnits="userSpaceOnUse">
<stop stop-color="#B6C0D6"/>
<stop offset="1" stop-color="#6B6A7B" stop-opacity="0.84"/>
</linearGradient>
<linearGradient id="paint1_linear_3967_275" x1="9.03047" y1="14.481" x2="10.1808" y2="16.7193" gradientUnits="userSpaceOnUse">
<stop stop-color="#B6C0D6"/>
<stop offset="1" stop-color="#6B6A7B" stop-opacity="0.84"/>
</linearGradient>
<linearGradient id="paint2_linear_3967_275" x1="11.755" y1="1.7662" x2="14.0234" y2="5.34172" gradientUnits="userSpaceOnUse">
<stop stop-color="#FFE092"/>
<stop offset="1" stop-color="#E3A302"/>
</linearGradient>
</defs>
</svg>
