<svg width="102" height="102" viewBox="0 0 102 102" fill="none" xmlns="http://www.w3.org/2000/svg">
<circle cx="51" cy="51" r="51" fill="#313131"/>
<path d="M43.6187 43.6363C38.0187 21.6363 48.2853 8.80293 54.1187 5.13626C75.1182 3.13626 75.5 30.4999 73.1191 36.1363C67.5191 52.5363 62.5002 57.4999 58.5 56.9999C54.4998 56.4999 48.5 53.9999 43.6187 43.6363Z" fill="#1B1B1B"/>
<path d="M30.9996 39.5C28.3557 30.9462 26.8148 13.1916 39.9459 6.30547C41.8931 5.28437 44.1184 5 46.317 5C49.1631 5 53.1363 5 56.5585 5C59.4907 5 62.4805 5.47838 64.8064 7.26392C70.8299 11.8881 77.4078 22.1591 72.5 39.5" stroke="#EEF8FF" stroke-width="2" stroke-linecap="round" stroke-linejoin="round"/>
<path d="M13 79C13 74.1225 16.3455 64.7844 31.8326 63.2238C34.8465 62.9201 38.0575 62.1354 39.5186 59.4819C40.0935 58.4378 40.5 57.2494 40.5 56M40.5 56C38.5 54.3333 34.5 49.9 34.5 45.5C34.5 43.1 34.5 33.8333 34.5 29.5C38.1667 30 47.4 29 55 21C56 22 62 29.5 68.5 27.5C68.5 28.3 68.5 39.8333 68.5 45.5C66.6667 52.5 58.5 64.4 40.5 56Z" stroke="#EEF8FF" stroke-width="2" stroke-linecap="round" stroke-linejoin="round"/>
<path d="M62.5 55.5C62.7677 58.1767 64.2176 62.0357 70.7334 63.4521C74.3617 64.2408 78.6233 64.3745 81.8194 66.2644C85.1103 68.2104 88.9047 71.8807 90 79" stroke="#EEF8FF" stroke-width="2" stroke-linecap="round" stroke-linejoin="round"/>
<path d="M37 62.5C39.8333 67.6667 49.1 75.7 63.5 66.5" stroke="#EEF8FF" stroke-width="2" stroke-linecap="round" stroke-linejoin="round"/>
</svg>
