<svg width="18" height="18" viewBox="0 0 18 18" fill="none" xmlns="http://www.w3.org/2000/svg">
<path d="M7.67582 1.37946C8.39799 0.627143 9.60201 0.627143 10.3242 1.37946C10.7734 1.84746 11.4368 2.04343 12.0681 1.8944C13.078 1.65602 14.0875 2.31908 14.2905 3.33661C14.4177 3.97439 14.8716 4.50805 15.4837 4.72794C16.4637 5.08004 16.9568 6.18254 16.5813 7.15385C16.3461 7.76226 16.4433 8.45828 16.8396 8.97637C17.4749 9.80688 17.3067 11.0011 16.4631 11.619C15.9375 12.0039 15.6517 12.645 15.7075 13.2941C15.7966 14.3286 15.0149 15.2502 13.9782 15.309C13.3299 15.3458 12.7462 15.7262 12.4462 16.3021C11.966 17.2238 10.811 17.5707 9.90888 17.0547C9.34576 16.7326 8.65424 16.7326 8.09112 17.0547C7.189 17.5707 6.03397 17.2238 5.55383 16.3021C5.25383 15.7262 4.67013 15.3458 4.02185 15.309C2.98514 15.2502 2.20345 14.3286 2.29248 13.2941C2.34835 12.645 2.06247 12.0039 1.5369 11.619C0.693326 11.0011 0.525109 9.80688 1.16039 8.97637C1.55669 8.45828 1.6539 7.76226 1.4187 7.15385C1.04322 6.18254 1.53628 5.08004 2.51632 4.72794C3.12836 4.50805 3.58228 3.97439 3.7095 3.33661C3.91248 2.31908 4.92202 1.65602 5.93185 1.8944C6.56322 2.04343 7.22658 1.84746 7.67582 1.37946Z" fill="url(#paint0_linear_3555_95735)"/>
<path d="M7.67582 1.37946C8.39799 0.627143 9.60201 0.627143 10.3242 1.37946C10.7734 1.84746 11.4368 2.04343 12.0681 1.8944C13.078 1.65602 14.0875 2.31908 14.2905 3.33661C14.4177 3.97439 14.8716 4.50805 15.4837 4.72794C16.4637 5.08004 16.9568 6.18254 16.5813 7.15385C16.3461 7.76226 16.4433 8.45828 16.8396 8.97637C17.4749 9.80688 17.3067 11.0011 16.4631 11.619C15.9375 12.0039 15.6517 12.645 15.7075 13.2941C15.7966 14.3286 15.0149 15.2502 13.9782 15.309C13.3299 15.3458 12.7462 15.7262 12.4462 16.3021C11.966 17.2238 10.811 17.5707 9.90888 17.0547C9.34576 16.7326 8.65424 16.7326 8.09112 17.0547C7.189 17.5707 6.03397 17.2238 5.55383 16.3021C5.25383 15.7262 4.67013 15.3458 4.02185 15.309C2.98514 15.2502 2.20345 14.3286 2.29248 13.2941C2.34835 12.645 2.06247 12.0039 1.5369 11.619C0.693326 11.0011 0.525109 9.80688 1.16039 8.97637C1.55669 8.45828 1.6539 7.76226 1.4187 7.15385C1.04322 6.18254 1.53628 5.08004 2.51632 4.72794C3.12836 4.50805 3.58228 3.97439 3.7095 3.33661C3.91248 2.31908 4.92202 1.65602 5.93185 1.8944C6.56322 2.04343 7.22658 1.84746 7.67582 1.37946Z" fill="url(#paint1_linear_3555_95735)" fill-opacity="0.1"/>
<path d="M2.75781 9.1228C2.75781 5.67655 5.55155 2.88281 8.9978 2.88281C12.444 2.88281 15.2378 5.67655 15.2378 9.1228V9.25113C15.2378 12.6974 12.444 15.4911 8.9978 15.4911C5.55155 15.4911 2.75781 12.6974 2.75781 9.25113V9.1228Z" fill="black" fill-opacity="0.04"/>
<path d="M3.94337 9.1228C3.94337 6.33131 6.20631 4.06837 8.9978 4.06837C11.7893 4.06837 14.0522 6.33131 14.0522 9.1228V9.25113C14.0522 12.0426 11.7893 14.3056 8.9978 14.3056C6.20631 14.3056 3.94337 12.0426 3.94337 9.25113V9.1228Z" stroke="white" stroke-opacity="0.3" stroke-width="2.37111"/>
<path d="M15.3244 9.24229C15.3244 12.7351 12.4929 15.5666 9.00011 15.5666C5.50728 15.5666 2.67578 12.7351 2.67578 9.24229C2.67578 5.74947 5.50728 2.91797 9.00011 2.91797C12.4929 2.91797 15.3244 5.74947 15.3244 9.24229ZM3.97781 9.24229C3.97781 12.016 6.22637 14.2646 9.00011 14.2646C11.7738 14.2646 14.0224 12.016 14.0224 9.24229C14.0224 6.46855 11.7738 4.21999 9.00011 4.21999C6.22637 4.21999 3.97781 6.46855 3.97781 9.24229Z" fill="url(#paint2_linear_3555_95735)" fill-opacity="0.5"/>
<path fill-rule="evenodd" clip-rule="evenodd" d="M7.78548 7.86898C7.78548 7.60277 7.89123 7.34746 8.07946 7.15922C8.2677 6.97099 8.52301 6.86523 8.78922 6.86523C9.05543 6.86523 9.31073 6.97099 9.49897 7.15922C9.68721 7.34746 9.79296 7.60277 9.79296 7.86898C9.79296 8.13519 9.68721 8.39049 9.49897 8.57873C9.31073 8.76697 9.05543 8.87272 8.78922 8.87272C8.52301 8.87272 8.2677 8.76697 8.07946 8.57873C7.89123 8.39049 7.78548 8.13519 7.78548 7.86898ZM6.94925 11.0152C6.95677 10.5321 7.15393 10.0714 7.49817 9.7325C7.84242 9.39358 8.30613 9.20361 8.78922 9.20361C9.27231 9.20361 9.73602 9.39358 10.0803 9.7325C10.4245 10.0714 10.6217 10.5321 10.6292 11.0152C10.6298 11.0477 10.6209 11.0797 10.6035 11.1072C10.5862 11.1347 10.5613 11.1566 10.5317 11.1702C9.98505 11.4208 9.39061 11.5502 8.78922 11.5494C8.16779 11.5494 7.57737 11.4138 7.04672 11.1702C7.01716 11.1566 6.9922 11.1347 6.97489 11.1072C6.95758 11.0797 6.94867 11.0477 6.94925 11.0152Z" fill="#FFE69B"/>
<defs>
<linearGradient id="paint0_linear_3555_95735" x1="3.16053" y1="1.68562" x2="13.0334" y2="17.2475" gradientUnits="userSpaceOnUse">
<stop stop-color="#FFE092"/>
<stop offset="1" stop-color="#E3A302"/>
</linearGradient>
<linearGradient id="paint1_linear_3555_95735" x1="-3.09122" y1="-1.40625" x2="10.5822" y2="22.9996" gradientUnits="userSpaceOnUse">
<stop stop-color="white"/>
<stop offset="1" stop-color="white" stop-opacity="0"/>
</linearGradient>
<linearGradient id="paint2_linear_3555_95735" x1="9.00011" y1="2.91797" x2="9.00011" y2="15.5666" gradientUnits="userSpaceOnUse">
<stop stop-color="white"/>
<stop offset="0.0001" stop-color="white" stop-opacity="0.81"/>
<stop offset="1" stop-color="white" stop-opacity="0"/>
</linearGradient>
</defs>
</svg>
