<svg width="15" height="14" viewBox="0 0 15 14" fill="none" xmlns="http://www.w3.org/2000/svg">
<path d="M6.42321 1.07291C6.98489 0.487778 7.92136 0.487778 8.48304 1.07291C8.83245 1.43691 9.3484 1.58934 9.83946 1.47342C10.6249 1.28802 11.4101 1.80373 11.568 2.59514C11.6669 3.09119 12.02 3.50626 12.496 3.67729C13.2582 3.95114 13.6417 4.80864 13.3497 5.56411C13.1668 6.03731 13.2424 6.57866 13.5506 6.98162C14.0447 7.62757 13.9139 8.55645 13.2578 9.03698C12.849 9.33636 12.6266 9.83501 12.6701 10.3398C12.7393 11.1445 12.1313 11.8613 11.325 11.907C10.8208 11.9356 10.3668 12.2315 10.1335 12.6794C9.76004 13.3963 8.86168 13.6661 8.16003 13.2648C7.72205 13.0143 7.1842 13.0143 6.74622 13.2648C6.04457 13.6661 5.14621 13.3963 4.77277 12.6794C4.53944 12.2315 4.08545 11.9356 3.58123 11.907C2.7749 11.8613 2.16692 11.1445 2.23617 10.3398C2.27962 9.83501 2.05727 9.33636 1.64849 9.03698C0.992379 8.55645 0.861543 7.62757 1.35565 6.98162C1.66388 6.57866 1.73949 6.03731 1.55656 5.56411C1.26452 4.80864 1.64801 3.95114 2.41026 3.67729C2.8863 3.50626 3.23934 3.09119 3.33829 2.59514C3.49616 1.80373 4.28137 1.28802 5.06679 1.47342C5.55785 1.58934 6.0738 1.43691 6.42321 1.07291Z" fill="url(#paint0_linear_3523_110908)"/>
<path d="M6.42321 1.07291C6.98489 0.487778 7.92136 0.487778 8.48304 1.07291C8.83245 1.43691 9.3484 1.58934 9.83946 1.47342C10.6249 1.28802 11.4101 1.80373 11.568 2.59514C11.6669 3.09119 12.02 3.50626 12.496 3.67729C13.2582 3.95114 13.6417 4.80864 13.3497 5.56411C13.1668 6.03731 13.2424 6.57866 13.5506 6.98162C14.0447 7.62757 13.9139 8.55645 13.2578 9.03698C12.849 9.33636 12.6266 9.83501 12.6701 10.3398C12.7393 11.1445 12.1313 11.8613 11.325 11.907C10.8208 11.9356 10.3668 12.2315 10.1335 12.6794C9.76004 13.3963 8.86168 13.6661 8.16003 13.2648C7.72205 13.0143 7.1842 13.0143 6.74622 13.2648C6.04457 13.6661 5.14621 13.3963 4.77277 12.6794C4.53944 12.2315 4.08545 11.9356 3.58123 11.907C2.7749 11.8613 2.16692 11.1445 2.23617 10.3398C2.27962 9.83501 2.05727 9.33636 1.64849 9.03698C0.992379 8.55645 0.861543 7.62757 1.35565 6.98162C1.66388 6.57866 1.73949 6.03731 1.55656 5.56411C1.26452 4.80864 1.64801 3.95114 2.41026 3.67729C2.8863 3.50626 3.23934 3.09119 3.33829 2.59514C3.49616 1.80373 4.28137 1.28802 5.06679 1.47342C5.55785 1.58934 6.0738 1.43691 6.42321 1.07291Z" fill="url(#paint1_linear_3523_110908)" fill-opacity="0.1"/>
<path d="M2.60156 7.09551C2.60156 4.41509 4.77447 2.24219 7.45488 2.24219C10.1353 2.24219 12.3082 4.41509 12.3082 7.09551V7.19533C12.3082 9.87574 10.1353 12.0486 7.45488 12.0486C4.77447 12.0486 2.60156 9.87574 2.60156 7.19533V7.09551Z" fill="black" fill-opacity="0.04"/>
<path d="M3.78712 7.09551C3.78712 5.06986 5.42923 3.42774 7.45488 3.42774C9.48053 3.42774 11.1226 5.06986 11.1226 7.09551V7.19533C11.1226 9.22098 9.48053 10.8631 7.45488 10.8631C5.42923 10.8631 3.78712 9.22098 3.78712 7.19533V7.09551Z" stroke="white" stroke-opacity="0.3" stroke-width="2.37111"/>
<path d="M12.373 7.18845C12.373 9.90509 10.1707 12.1074 7.45408 12.1074C4.73743 12.1074 2.53516 9.90509 2.53516 7.18845C2.53516 4.47181 4.73743 2.26953 7.45408 2.26953C10.1707 2.26953 12.373 4.47181 12.373 7.18845ZM3.54784 7.18845C3.54784 9.3458 5.29672 11.0947 7.45408 11.0947C9.61143 11.0947 11.3603 9.3458 11.3603 7.18845C11.3603 5.0311 9.61143 3.28222 7.45408 3.28222C5.29672 3.28222 3.54784 5.0311 3.54784 7.18845Z" fill="url(#paint2_linear_3523_110908)" fill-opacity="0.5"/>
<path fill-rule="evenodd" clip-rule="evenodd" d="M6.2386 5.86898C6.2386 5.60277 6.34435 5.34746 6.53259 5.15922C6.72083 4.97099 6.97613 4.86523 7.24234 4.86523C7.50855 4.86523 7.76386 4.97099 7.9521 5.15922C8.14034 5.34746 8.24609 5.60277 8.24609 5.86898C8.24609 6.13519 8.14034 6.39049 7.9521 6.57873C7.76386 6.76697 7.50855 6.87272 7.24234 6.87272C6.97613 6.87272 6.72083 6.76697 6.53259 6.57873C6.34435 6.39049 6.2386 6.13519 6.2386 5.86898ZM5.40237 9.01516C5.40989 8.53213 5.60705 8.07143 5.9513 7.7325C6.29554 7.39358 6.75926 7.20361 7.24234 7.20361C7.72543 7.20361 8.18915 7.39358 8.53339 7.7325C8.87763 8.07143 9.0748 8.53213 9.08232 9.01516C9.0829 9.04767 9.07399 9.07966 9.05667 9.10719C9.03936 9.13472 9.0144 9.15661 8.98484 9.17018C8.43817 9.42083 7.84373 9.55018 7.24234 9.54937C6.62092 9.54937 6.03049 9.41375 5.49985 9.17018C5.47029 9.15661 5.44533 9.13472 5.42801 9.10719C5.4107 9.07966 5.40179 9.04767 5.40237 9.01516Z" fill="#FFE69B"/>
<defs>
<linearGradient id="paint0_linear_3523_110908" x1="2.91132" y1="1.31104" x2="10.5902" y2="13.4147" gradientUnits="userSpaceOnUse">
<stop stop-color="#FFE092"/>
<stop offset="1" stop-color="#E3A302"/>
</linearGradient>
<linearGradient id="paint1_linear_3523_110908" x1="-1.95116" y1="-1.09375" x2="8.68373" y2="17.8886" gradientUnits="userSpaceOnUse">
<stop stop-color="white"/>
<stop offset="1" stop-color="white" stop-opacity="0"/>
</linearGradient>
<linearGradient id="paint2_linear_3523_110908" x1="7.45408" y1="2.26953" x2="7.45408" y2="12.1074" gradientUnits="userSpaceOnUse">
<stop stop-color="white"/>
<stop offset="0.0001" stop-color="white" stop-opacity="0.81"/>
<stop offset="1" stop-color="white" stop-opacity="0"/>
</linearGradient>
</defs>
</svg>
