<svg width="18" height="18" viewBox="0 0 18 18" fill="none" xmlns="http://www.w3.org/2000/svg">
<g id="Frame">
<rect width="18" height="18" rx="9" fill="#FAFAFA"/>
<path id="Vector" d="M6.88462 10.0909L7.50718 11.0325C7.61087 11.1894 7.75508 11.3189 7.92625 11.4086C8.09742 11.4983 8.28992 11.5454 8.48564 11.5455H9.51436C9.91231 11.5455 10.2821 11.3515 10.4928 11.0325L11.1154 10.0909M4.08205 7.54545H6.45949C6.64944 7.54547 6.83644 7.58982 7.00391 7.67457C7.17138 7.75932 7.31413 7.88184 7.41949 8.03127L7.50359 8.15055C7.60895 8.29998 7.7517 8.4225 7.91916 8.50725C8.08663 8.592 8.27364 8.63635 8.46359 8.63636H9.53641C9.72636 8.63635 9.91337 8.592 10.0808 8.50725C10.2483 8.4225 10.3911 8.29998 10.4964 8.15055L10.5805 8.03127C10.6859 7.88184 10.8286 7.75932 10.9961 7.67457C11.1636 7.58982 11.3506 7.54547 11.5405 7.54545H13.9179M4.08205 7.54545C4.02793 7.67379 4.00008 7.81068 4 7.94885V9C4 9.28933 4.12157 9.5668 4.33795 9.77139C4.55434 9.97597 4.84783 10.0909 5.15385 10.0909H12.8462C13.1522 10.0909 13.4457 9.97597 13.662 9.77139C13.8784 9.5668 14 9.28933 14 9V7.94885C14 7.8097 13.9718 7.67248 13.9179 7.54545M4.08205 7.54545C4.12905 7.43381 4.19525 7.33027 4.27795 7.23903L5.96256 5.38109C6.07085 5.2616 6.2052 5.16568 6.35639 5.0999C6.50758 5.03412 6.67203 5.00004 6.83846 5H11.1615C11.4985 5 11.8185 5.13915 12.0379 5.38109L13.7221 7.23903C13.8056 7.33115 13.8713 7.43491 13.9179 7.54545M5.15385 13H12.8462C13.1522 13 13.4457 12.8851 13.662 12.6805C13.8784 12.4759 14 12.1984 14 11.9091V10.6364C14 10.3353 13.7415 10.0909 13.4231 10.0909H4.57692C4.25846 10.0909 4 10.3353 4 10.6364V11.9091C4 12.1984 4.12157 12.4759 4.33795 12.6805C4.55434 12.8851 4.84783 13 5.15385 13Z" stroke="#939393" stroke-linecap="round" stroke-linejoin="round"/>
</g>
</svg>
