<svg width="40" height="40" viewBox="0 0 40 40" fill="none" xmlns="http://www.w3.org/2000/svg">
<g id="Frame 48096455">
<g id="Group 48096165">
<path id="Vector-162" d="M32.6475 17.7653L37.9416 19.3535" stroke="#199CD8" stroke-width="1.5" stroke-linecap="round"/>
<path id="Vector-164" d="M8.29395 13.0003L2.99983 11.4121" stroke="#199CD8" stroke-width="1.5" stroke-linecap="round"/>
<path id="Vector-163" d="M37.9414 11.9411L32.6473 13.5293" stroke="#199CD8" stroke-width="1.5" stroke-linecap="round"/>
<path id="Vector-165" d="M3 18.8226L8.29412 17.2344" stroke="#199CD8" stroke-width="1.5" stroke-linecap="round"/>
<path id="Vector-161" d="M28.9225 28.9993H15.046C15.0168 28.9993 14.9889 28.9872 14.9689 28.9659L10.4408 24.1474C10.4224 24.1278 10.4121 24.1018 10.4121 24.0749V16.811C10.4121 16.7525 10.4595 16.7051 10.518 16.7051H20.2731C20.3577 16.7051 20.4081 16.7993 20.3612 16.8697L18.6502 19.4362C18.4647 19.7144 18.1525 19.8815 17.8181 19.8815H15.6474C15.0951 19.8815 14.6474 20.3293 14.6474 20.8815V21.5286C14.6474 22.0809 15.0951 22.5286 15.6474 22.5286H18.7941C19.1728 22.5286 19.5191 22.7426 19.6885 23.0814L20.1945 24.0935C20.3639 24.4323 20.7102 24.6463 21.089 24.6463H22.118C22.6703 24.6463 23.118 24.1985 23.118 23.6463V22.9428C23.118 22.6776 23.0126 22.4233 22.8251 22.2357L22.2369 21.6475C21.8463 21.257 21.8463 20.6238 22.2369 20.2333L22.8251 19.645C23.0126 19.4575 23.118 19.2031 23.118 18.9379V16.811C23.118 16.7525 23.1654 16.7051 23.2239 16.7051H30.4239C30.4824 16.7051 30.5298 16.7525 30.5298 16.811V24.1006C30.5298 24.1114 30.5281 24.1221 30.5249 24.1323L29.0235 28.925C29.0097 28.9692 28.9687 28.9993 28.9225 28.9993Z" fill="#11295A"/>
<rect id="Rectangle-1537" x="15" y="31" width="14" height="8" fill="#11295A"/>
<path id="Rectangle-1538" d="M11.4707 5.08823C11.4707 4.21108 12.1818 3.5 13.0589 3.5C13.9361 3.5 14.6472 4.21108 14.6472 5.08824V14.588H11.4707V5.08823Z" fill="#11295A"/>
<path id="Rectangle-1539" d="M16.7646 3.58824C16.7646 2.71108 17.4757 2 18.3529 2C19.23 2 19.9411 2.71108 19.9411 3.58823V14.5882H16.7646V3.58824Z" fill="#11295A"/>
<path id="Rectangle-1540" d="M22.0586 5.58824C22.0586 4.71108 22.7697 4 23.6468 4C24.524 4 25.2351 4.71108 25.2351 5.58824V14.5878H22.0586V5.58824Z" fill="#11295A"/>
<path id="Rectangle-1541" d="M27.3525 7.08824C27.3525 6.21108 28.0636 5.5 28.9408 5.5C29.8179 5.5 30.529 6.21108 30.529 7.08823V14.5883H27.3525V7.08824Z" fill="#11295A"/>
</g>
</g>
</svg>
