<svg width="15" height="14" viewBox="0 0 15 14" fill="none" xmlns="http://www.w3.org/2000/svg">
<g id="security level - Secure">
<g id="Flat Color">
<path id="Vector" d="M2.32033 6.079C2.32033 9.25304 4.09488 11.1172 6.88265 12.4942C7.03154 12.5641 7.194 12.6004 7.35848 12.6004C7.52296 12.6004 7.68542 12.5641 7.83431 12.4942C10.6221 11.1451 12.3966 9.24184 12.3966 6.079V3.47035C12.398 3.19184 12.2956 2.9228 12.1092 2.71578C11.9229 2.50875 11.6661 2.37861 11.389 2.35076C10.1515 2.24188 8.9368 1.9514 7.78392 1.48868C7.64965 1.43044 7.50484 1.40039 7.35848 1.40039C7.21212 1.40039 7.06731 1.43044 6.93304 1.48868C5.78046 1.95332 4.56573 2.24568 3.32796 2.35636C3.05083 2.38421 2.79404 2.51435 2.60772 2.72137C2.4214 2.9284 2.31893 3.19743 2.32033 3.47595V6.079Z" fill="#28A745"/>
<path id="Vector_2" d="M6.48612 8.87175C6.34005 8.87263 6.19943 8.81638 6.09426 8.71501L4.81793 7.46106C4.76546 7.40902 4.72382 7.34711 4.6954 7.27889C4.66698 7.21068 4.65234 7.13751 4.65234 7.06361C4.65234 6.98971 4.66698 6.91654 4.6954 6.84833C4.72382 6.78011 4.76546 6.7182 4.81793 6.66616C4.92281 6.56189 5.0647 6.50337 5.21259 6.50337C5.36048 6.50337 5.50236 6.56189 5.60724 6.66616L6.49172 7.53384L8.79247 5.29466C8.89863 5.18999 9.04201 5.13178 9.19109 5.13283C9.34016 5.13388 9.48271 5.1941 9.58738 5.30026C9.69205 5.40641 9.75027 5.5498 9.74922 5.69887C9.74817 5.84794 9.68794 5.9905 9.58179 6.09517L6.88917 8.743C6.77684 8.83699 6.63214 8.88321 6.48612 8.87175Z" fill="white"/>
</g>
</g>
</svg>
