<svg width="250" height="200" viewBox="0 0 250 200" fill="none" xmlns="http://www.w3.org/2000/svg">
<g id="Frame 48097025">
<rect width="250" height="200" fill="white"/>
<path id="Background" fill-rule="evenodd" clip-rule="evenodd" d="M202 64C205.866 64 209 67.134 209 71C209 74.866 205.866 78 202 78H162C165.866 78 169 81.134 169 85C169 88.866 165.866 92 162 92H184C187.866 92 191 95.134 191 99C191 102.866 187.866 106 184 106H173.826C168.952 106 165 109.134 165 113C165 115.577 167 117.911 171 120C174.866 120 178 123.134 178 127C178 130.866 174.866 134 171 134H88C84.134 134 81 130.866 81 127C81 123.134 84.134 120 88 120H49C45.134 120 42 116.866 42 113C42 109.134 45.134 106 49 106H89C92.866 106 96 102.866 96 99C96 95.134 92.866 92 89 92H64C60.134 92 57 88.866 57 85C57 81.134 60.134 78 64 78H104C100.134 78 97 74.866 97 71C97 67.134 100.134 64 104 64H202ZM202 92C205.866 92 209 95.134 209 99C209 102.866 205.866 106 202 106C198.134 106 195 102.866 195 99C195 95.134 198.134 92 202 92Z" fill="#F3F7FF"/>
<g id="Group 48096206">
<path id="Rectangle" d="M93.25 61C93.25 59.4812 94.4812 58.25 96 58.25H141.557C142.286 58.25 142.985 58.5395 143.501 59.0549L156.944 72.4898C157.46 73.0056 157.75 73.7053 157.75 74.4349V137C157.75 138.519 156.519 139.75 155 139.75H96C94.4812 139.75 93.25 138.519 93.25 137V61Z" fill="white" stroke="#0D6EFD" stroke-width="2.5"/>
<path id="Rectangle 1556" d="M120 62H97V136H154V120.685C142.667 115.918 120.8 97.5068 120 62Z" fill="#F3F7FF"/>
<path id="Shape" d="M142 59.4023V70.9995C142 72.6564 143.343 73.9995 145 73.9995H156.934" stroke="#0D6EFD" stroke-width="2.5" stroke-linecap="round" stroke-linejoin="round"/>
<path id="lines" d="M103.328 125H129.328M103.328 74H129.328H103.328ZM103.328 86H146.328H103.328ZM103.328 99H146.328H103.328ZM103.328 112H146.328H103.328Z" stroke="#75A4FE" stroke-width="2.5" stroke-linecap="round" stroke-linejoin="round"/>
</g>
</g>
</svg>
