<svg width="14" height="14" viewBox="0 0 14 14" fill="none" xmlns="http://www.w3.org/2000/svg">
<path d="M9.34681 5.45382H12.2588V5.45324M1.74131 11.4598V8.54782M1.74131 8.54782H4.65331M1.74072 8.54782L3.59631 10.4046C4.19371 11.002 4.93785 11.4316 5.75393 11.6502C6.57001 11.8688 7.42927 11.8688 8.24532 11.65C9.06136 11.4313 9.80544 11.0016 10.4028 10.4041C11.0001 9.80657 11.4296 9.06235 11.6481 8.24624M2.35147 5.7554C2.56997 4.93929 2.99946 4.19507 3.59677 3.59758C4.19408 3.00008 4.93817 2.57036 5.75421 2.35161C6.57026 2.13286 7.42952 2.1328 8.2456 2.35142C9.06168 2.57005 9.80582 2.99966 10.4032 3.59707L12.2588 5.45324M12.2588 2.54182V5.45265" stroke="#707070" stroke-width="1.25" stroke-linecap="round" stroke-linejoin="round"/>
</svg>
