<svg width="48" height="52" viewBox="0 0 48 52" fill="none" xmlns="http://www.w3.org/2000/svg">
<path d="M19.1375 1.25562C19.6616 1.17893 20.2367 1.08947 20.4156 1.0639C20.5946 1.03834 21.7448 1.01278 22.9718 1C24.1988 1 25.6941 1.05112 26.2948 1.11503C26.8955 1.19171 27.8413 1.37064 28.4036 1.49845C28.966 1.63904 29.8351 1.88188 30.3208 2.04803C30.8192 2.21418 31.5605 2.5337 31.9823 2.73819C32.404 2.95547 33.1453 3.42836 33.6438 3.799C34.1422 4.16965 34.6662 4.59141 34.8324 4.74478C34.9986 4.89815 35.382 5.35826 35.6887 5.78003C35.9955 6.2018 36.4044 6.89196 36.5834 7.31373C36.8518 7.90165 36.954 8.36176 36.9924 9.23085C37.0563 10.2789 37.1202 10.4962 37.6825 11.6592C38.2832 12.9117 38.3216 12.9501 39.1523 13.4485C39.6252 13.7297 40.2387 14.2282 40.5326 14.5477C40.8138 14.8672 41.2356 15.4807 41.8235 16.7076H43.1016C44.0474 16.7076 44.5075 16.7715 44.8909 16.9377C45.1721 17.0655 45.5555 17.3722 45.7344 17.6151C45.9262 17.8579 46.1562 18.2797 46.2457 18.5609C46.3607 18.9059 46.4118 19.775 46.4118 21.1809C46.4118 23.1492 46.3863 23.3664 46.054 24.44C45.8495 25.0663 45.5427 25.8459 45.3638 26.1654C45.1977 26.485 44.9037 26.9451 44.7248 27.1879C44.418 27.6352 44.418 27.648 44.6097 28.2743C44.7248 28.6321 44.8781 29.2073 44.9676 29.5524C45.0443 29.9102 45.1849 30.741 45.2871 31.4056C45.4021 32.0702 45.4916 33.5144 45.4916 34.6008C45.5044 35.6872 45.4277 37.0164 45.351 37.5404C45.2616 38.0644 45.1082 38.8696 44.9932 39.3297C44.8909 39.7898 44.6609 40.5311 44.4819 40.9912C44.3158 41.4513 43.9324 42.2821 43.6512 42.8444C43.37 43.4068 42.8332 44.2631 42.4626 44.7616C42.1047 45.26 41.3251 46.1035 40.7627 46.6531C40.1876 47.1899 39.2418 47.944 38.6539 48.3146C38.0787 48.6853 37.2863 49.1454 36.9029 49.3243C36.5195 49.516 35.8804 49.7844 35.497 49.925C35.1136 50.0656 34.3595 50.2957 33.8355 50.4235C33.3115 50.564 32.3913 50.7558 31.7906 50.8452C31.1899 50.9347 29.9885 51.0114 29.1066 50.9986C28.2247 50.9986 26.9338 50.8964 26.2309 50.7813C25.528 50.6791 24.3521 50.4107 23.6108 50.1934C22.8695 49.9761 21.6681 49.5032 20.9269 49.1582C20.1856 48.8003 19.2142 48.2763 18.7541 47.9951C18.294 47.7011 17.6038 47.2283 17.2204 46.9343C16.837 46.6403 16.0574 45.9374 15.5078 45.3878C14.9454 44.8382 14.1658 43.9436 13.7696 43.4196C13.3606 42.8955 12.7855 42.0009 11.9036 40.4161L10.5744 40.3394C9.8331 40.301 9.06625 40.2244 8.84898 40.1732C8.6317 40.1221 8.14603 39.956 7.76261 39.8026C7.37918 39.662 6.85517 39.4192 6.61233 39.2786C6.3695 39.138 5.87104 38.8185 5.52596 38.5629C5.1681 38.3072 4.5674 37.7449 4.18397 37.3231C3.80055 36.8886 3.25097 36.1473 2.95701 35.6616C2.67584 35.1887 2.31797 34.473 2.1646 34.0896C2.01123 33.7061 1.79396 32.9904 1.69171 32.492C1.58947 31.9935 1.5 31.1116 1.5 30.5109C1.5 29.9102 1.58947 29.0539 1.70449 28.5938C1.80674 28.1337 2.07514 27.3924 2.30519 26.9323C2.54803 26.4338 3.0337 25.7565 4.37569 24.3506L4.18397 23.1747C4.06895 22.4462 3.99226 21.2065 4.00504 19.8389C4.00504 18.3436 4.08173 17.3083 4.2351 16.5159C4.35012 15.8897 4.5674 14.9311 4.70799 14.4071C4.84858 13.8831 5.15532 12.9245 5.39815 12.2983C5.64099 11.672 6.13944 10.624 6.4973 9.9977C6.86795 9.37144 7.45587 8.43844 7.82651 7.95277C8.18437 7.4671 8.98957 6.57244 9.60305 5.97174C10.2165 5.37104 11.1623 4.57863 11.6991 4.20799C12.2359 3.82456 12.9644 3.37723 13.3223 3.18552C13.6673 3.00659 14.332 2.68707 14.7921 2.49536C15.2522 2.29086 15.904 2.04803 16.2619 1.933C16.6069 1.83075 17.1821 1.6646 17.5399 1.56236C17.885 1.47289 18.6135 1.3323 19.1375 1.25562Z" fill="white" stroke="black" stroke-width="1.33182"/>
<path fill-rule="evenodd" clip-rule="evenodd" d="M23.6751 3.34987C25.2088 3.37543 26.4613 3.4649 27.062 3.57993C27.586 3.69495 28.4296 3.91223 28.9152 4.05282C29.4009 4.20619 30.27 4.55127 30.8324 4.83245C31.3947 5.10084 32.1999 5.5993 32.6217 5.9316C33.0434 6.27668 33.6314 6.9285 33.9381 7.37583C34.2448 7.83594 34.5516 8.43664 34.6283 8.71782C34.7049 8.999 34.7305 9.57413 34.6922 9.9959C34.6283 10.5583 34.5132 10.9033 34.2576 11.274C34.0531 11.5552 33.5802 11.9769 33.1968 12.1942C32.7878 12.437 32.1488 12.6671 31.6631 12.7566C31.1391 12.8588 30.2189 12.8844 29.1708 12.8332C28.2506 12.7949 26.9086 12.6415 26.1674 12.4882C25.4261 12.3348 24.3653 12.0792 23.8029 11.913C23.2405 11.7469 22.2948 11.4657 21.6941 11.274C21.0934 11.0951 20.1731 10.865 19.6491 10.7628C19.1251 10.6605 18.2305 10.571 17.6681 10.571C17.1057 10.571 16.3517 10.6477 16.0066 10.7372C15.6487 10.8394 15.0864 11.0439 14.7413 11.2229C14.3962 11.389 13.9744 11.6958 13.7827 11.913C13.591 12.1303 13.3482 12.5648 13.2332 12.8972C13.1181 13.2422 13.0414 13.7407 13.0798 14.0474C13.1053 14.3542 13.2587 14.8526 13.4249 15.1721C13.6294 15.5811 14 15.9645 14.7285 16.5141C15.5081 17.102 15.7893 17.4088 15.981 17.8561C16.1727 18.2907 16.2239 18.6102 16.1727 19.1981C16.1216 19.7477 15.9555 20.2461 15.5848 20.9874C15.3036 21.5498 15.0353 22.2783 14.9969 22.6106C14.9458 23.0579 14.9586 23.2241 15.0736 23.2241C15.1631 23.2241 15.5848 22.994 16.0066 22.7256C16.4284 22.4572 17.4636 21.8182 18.2944 21.2942C19.1251 20.7701 19.8281 20.2973 19.8536 20.2206C19.8664 20.1439 19.9175 19.8755 20.0326 19.1342H31.6631L31.7398 19.9905C31.7909 20.4762 31.7909 21.4092 31.7526 22.0738C31.7015 23.0196 31.5992 23.5052 31.2925 24.3104C31.0752 24.8728 30.6662 25.6396 30.385 25.9975C30.1038 26.3681 29.5671 26.8794 29.2092 27.1222C28.8385 27.3651 28.1612 27.6846 27.701 27.8252C27.1515 27.9913 26.4997 28.0808 25.7839 28.0808C25.1832 28.0808 24.4675 28.0169 24.1863 27.9402C23.9051 27.8635 23.3939 27.6718 23.036 27.5056C22.691 27.3395 22.0775 26.8666 21.6813 26.4576C21.2723 26.0486 20.7994 25.3968 20.6205 25.0134C20.4415 24.63 20.2115 23.9781 20.0965 23.5691C19.9942 23.1729 19.9047 22.7256 19.9047 22.585C19.9047 22.4444 19.8153 22.3294 19.713 22.3294C19.6108 22.3294 19.074 22.6106 18.5372 22.9557C17.9876 23.288 17.0035 23.9142 15.1503 25.0773L15.2397 25.5885C15.2781 25.8697 15.5209 26.5343 15.7638 27.0583C16.0066 27.5823 16.1983 28.0936 16.1983 28.1702C16.1983 28.2597 15.572 28.6815 14.7924 29.1032C14.0256 29.525 13.361 29.8701 13.3226 29.8701C13.2843 29.8701 13.0031 29.5122 12.7091 29.0649C12.4024 28.6304 11.9295 28.0936 11.6483 27.8763C11.3799 27.659 10.9198 27.3778 10.6386 27.25C10.3575 27.1094 9.75677 26.9816 9.29666 26.9561C8.6704 26.9177 8.32532 26.9688 7.89077 27.1606C7.57125 27.2884 7.12392 27.5695 6.88108 27.774C6.63825 27.9785 6.31873 28.3492 6.16536 28.592C5.99921 28.8348 5.82027 29.3589 5.74359 29.7423C5.64134 30.228 5.64134 30.7008 5.73081 31.276C5.80749 31.7361 6.06311 32.5413 6.31873 33.0653C6.62547 33.6916 7.03445 34.2795 7.49456 34.7396C7.89077 35.1358 8.46591 35.5831 8.78543 35.7493C9.10495 35.9026 9.61618 36.1199 9.9357 36.2094C10.2552 36.3116 10.7409 36.3883 11.0221 36.3883C11.3032 36.3883 11.9039 36.2733 12.3641 36.1455C12.8242 36.0049 13.5399 35.6854 13.9617 35.4298C14.3834 35.1741 14.818 34.9696 14.9202 34.9824C15.0225 34.9824 15.1886 35.0463 15.2781 35.1358C15.3676 35.2253 15.4315 35.4425 15.4315 35.6215C15.4315 35.8004 15.2909 36.0816 15.1119 36.2605C14.933 36.4394 14.7924 36.6567 14.7924 36.7334C14.7924 36.8229 14.9969 37.3213 15.2525 37.8198C15.5081 38.331 16.0194 39.1873 16.3772 39.7113C16.7223 40.2353 17.4253 41.0917 17.9237 41.6157C18.4094 42.1269 19.2785 42.8938 19.8408 43.3155C20.4032 43.7245 21.4129 44.3508 22.0775 44.6959C22.7421 45.0282 23.8412 45.4883 24.5058 45.7055C25.1704 45.9228 26.2952 46.1912 26.9981 46.2935C27.7011 46.3957 28.7619 46.4852 29.3626 46.4852C29.9633 46.4852 30.9729 46.3957 31.5992 46.2935C32.2255 46.1912 33.1201 45.9867 33.5802 45.8333C34.0403 45.6928 34.8072 45.3605 35.3056 45.1176C35.8041 44.862 36.4559 44.4914 36.7754 44.2613C37.095 44.044 37.7084 43.52 38.1302 43.0983C38.5648 42.6765 39.1782 41.9352 39.4978 41.4367C39.8173 40.9383 40.1879 40.2865 40.3285 39.9669C40.4563 39.6474 40.6864 39.0467 40.8397 38.625C40.9803 38.2032 41.1976 37.398 41.2999 36.8356C41.4404 36.1583 41.5043 35.1358 41.5043 33.7682C41.5043 32.618 41.4149 31.161 41.3126 30.4452C41.2104 29.7423 41.1465 29.0649 41.1848 28.9371C41.2232 28.8221 41.4021 28.6815 41.6066 28.6431C41.7983 28.592 42.0411 28.6176 42.1434 28.6815C42.2456 28.7454 42.4373 29.2055 42.5652 29.6912C42.6802 30.1768 42.8719 31.1098 42.9741 31.7489C43.0764 32.4007 43.1659 33.7299 43.1659 34.6885C43.1659 35.6726 43.0892 36.8995 42.9741 37.4747C42.8847 38.037 42.6802 38.9189 42.5268 39.4174C42.3862 39.9286 42.0795 40.7338 41.8494 41.2067C41.6194 41.6924 41.1593 42.472 40.8397 42.9704C40.5202 43.4689 39.8045 44.2996 39.2421 44.8237C38.6926 45.3477 37.849 46.0506 37.3506 46.3701C36.8521 46.6897 36.1364 47.0987 35.753 47.2776C35.3695 47.4565 34.7689 47.6994 34.411 47.8272C34.0659 47.9422 33.4908 48.1211 33.1329 48.2106C32.7878 48.3128 31.9698 48.4534 31.3436 48.5429C30.6662 48.6324 29.5159 48.6579 28.5318 48.6196C27.6116 48.5812 26.4102 48.4662 25.8478 48.3384C25.2855 48.2234 24.3013 47.955 23.6751 47.7505C23.0488 47.5332 22.0647 47.1242 21.5023 46.843C20.94 46.5619 19.9942 45.9867 19.3935 45.5777C18.7928 45.1687 17.9748 44.5297 17.5659 44.1591C17.1569 43.7884 16.4923 43.0855 16.0961 42.587C15.6999 42.0886 15.1119 41.2578 14.7924 40.7338C14.4601 40.2098 13.9872 39.2896 13.7316 38.6889C13.3737 37.8709 13.2076 37.6153 13.0414 37.6281C12.9136 37.6408 12.3768 37.7559 11.8528 37.8709C11.0349 38.0498 10.7537 38.0626 9.9357 37.9348C9.34778 37.8453 8.60649 37.6025 8.01858 37.3213C7.31563 36.989 6.81718 36.6184 6.16536 35.9538C5.61578 35.3914 5.09177 34.7012 4.79781 34.1517C4.54219 33.6532 4.20989 32.8225 4.0693 32.2985C3.91593 31.7744 3.8009 30.9948 3.8009 30.573C3.8009 30.1513 3.86481 29.5506 3.94149 29.2311C4.0054 28.9115 4.22267 28.3364 4.41438 27.953C4.6061 27.5695 5.01508 27.0072 5.3346 26.7004C5.65412 26.3937 6.19092 25.9847 6.52322 25.8058C7.02167 25.5246 7.12392 25.4096 7.06001 25.2051C7.02167 25.0645 6.8683 24.5149 6.72771 23.9909C6.58712 23.4669 6.42097 22.5083 6.35707 21.8821C6.29316 21.2558 6.25482 20.1055 6.29316 19.3259C6.31873 18.5463 6.43375 17.396 6.54878 16.7697C6.65103 16.1435 6.93221 15.0443 7.14948 14.3414C7.37954 13.6384 7.85243 12.4882 8.21029 11.7852C8.56815 11.0823 9.15607 10.1109 9.50115 9.61248C9.84623 9.12681 10.562 8.28327 11.086 7.75926C11.61 7.23524 12.5302 6.46839 13.1309 6.07219C13.7316 5.67598 14.6518 5.15197 15.1758 4.90913C15.6999 4.6663 16.4284 4.35956 16.7734 4.24453C17.1313 4.1295 17.7064 3.95057 18.0515 3.8611C18.4094 3.77164 19.0996 3.63105 19.5852 3.55436C20.0709 3.47768 20.646 3.38821 20.8633 3.36265C21.0806 3.33709 22.3459 3.32431 23.6751 3.34987ZM34.7049 11.4657C34.7561 11.4657 34.9989 11.5935 35.2417 11.7597C35.4846 11.913 35.8169 12.2837 35.9702 12.5521C36.1875 12.9355 36.2642 13.2806 36.2642 13.8557C36.2642 14.5459 36.2259 14.6609 36.0469 14.6609C35.9063 14.6609 35.7274 14.4564 35.5996 14.1752C35.4846 13.9196 35.1778 13.255 34.935 12.7054C34.6794 12.1686 34.5005 11.6702 34.5388 11.5935C34.5899 11.5168 34.6538 11.4657 34.7049 11.4657ZM36.5837 15.0827C37.1205 15.1082 37.5295 15.2233 37.9641 15.4661C38.2964 15.6578 38.7437 16.054 38.961 16.348C39.1655 16.6547 39.3827 17.0381 39.4211 17.2171C39.4722 17.4471 39.4211 17.6005 39.2166 17.7539C38.961 17.9711 38.9226 17.9711 38.028 17.4982C37.2483 17.102 36.9672 17.0254 36.3281 17.0254C35.868 17.0381 35.3951 17.1276 35.1523 17.2554C34.9222 17.3704 34.6155 17.6644 34.4749 17.8817C34.3215 18.1245 34.2321 18.4696 34.2832 19.0703L43.9327 19.1342L44.0094 19.671C44.0477 19.9777 44.0605 20.8852 44.0222 21.6904C43.9838 22.7128 43.8816 23.4286 43.7027 24.0165C43.5493 24.5021 43.1786 25.2434 42.8719 25.678C42.5652 26.1253 42.0284 26.7004 41.6833 26.9688C41.3382 27.2245 40.7375 27.5695 40.3541 27.7229C39.7534 27.9657 39.3955 28.0169 37.9257 28.0169C36.4176 28.0297 36.1492 28.068 35.8169 28.2853C35.6124 28.4259 35.2545 28.6176 35.05 28.707C34.8455 28.7965 34.3215 28.8732 33.8998 28.886C33.478 28.8988 32.8517 28.8221 32.5066 28.7198C32.1616 28.6176 31.7398 28.4003 31.5736 28.2341C31.4203 28.0808 31.2797 27.8252 31.2797 27.659C31.2797 27.5056 31.3819 27.2756 31.5097 27.1478C31.6248 27.02 31.8548 26.9177 32.021 26.9305C32.1743 26.9305 32.5194 27.0583 32.7878 27.1989C33.0946 27.3778 33.4908 27.4801 33.8998 27.4801C34.2576 27.4801 34.7305 27.3906 34.9606 27.2628C35.1778 27.1478 35.4974 26.8666 35.6507 26.6365C35.8424 26.3554 35.9575 25.9847 35.9958 25.4607C36.0341 24.8472 35.983 24.5788 35.753 24.1187C35.5868 23.7992 35.0756 23.0579 34.6155 22.4572C34.1426 21.8565 33.6186 21.0769 33.4524 20.7318C33.184 20.195 33.1329 19.901 33.1329 18.8786C33.1329 17.7794 33.1712 17.5877 33.5163 16.8976C33.7208 16.4886 34.1042 15.9773 34.3471 15.7856C34.5899 15.5811 35.0245 15.3383 35.3056 15.236C35.6252 15.1082 36.1108 15.0571 36.5837 15.0827ZM26.0779 15.1849C26.5891 15.1721 27.2026 15.2616 27.5988 15.3894C27.9567 15.5172 28.3273 15.7345 28.4296 15.8751C28.519 16.0157 28.5957 16.2841 28.5957 16.4758C28.5957 16.6931 28.4551 16.9615 28.2506 17.1787C27.9183 17.4982 27.8544 17.511 27.1898 17.4088C26.8064 17.3449 25.9629 17.2938 25.3238 17.2938C24.2374 17.281 24.1096 17.3065 23.215 17.7539C22.691 18.0223 22.1925 18.2395 22.1158 18.2395C22.0264 18.2395 21.873 18.1117 21.7707 17.9456C21.6685 17.7922 21.6302 17.5494 21.6685 17.4216C21.7196 17.281 22.0519 16.9231 22.397 16.6036C22.7549 16.2969 23.2661 15.9134 23.5473 15.7728C23.8285 15.6322 24.3141 15.4405 24.6337 15.3511C24.9532 15.2616 25.5922 15.1849 26.0779 15.1849ZM9.20719 28.4642C9.53949 28.4642 9.99961 28.5409 10.2297 28.6431C10.4469 28.7326 10.8431 29.0393 11.0988 29.3077C11.3544 29.5889 11.6356 30.0107 11.725 30.2535C11.8145 30.4964 11.8528 30.8031 11.8145 30.9181C11.725 31.1354 11.6995 31.1354 11.3799 30.9053C11.1754 30.7648 10.7026 30.5091 10.3191 30.3302C9.91014 30.1385 9.38613 29.9979 9.07939 29.9979C8.77265 29.9979 8.31254 30.1001 8.05692 30.2407C7.78852 30.3685 7.48178 30.573 7.37954 30.6881C7.27729 30.8031 7.11114 30.9053 7.03445 30.8926C6.94499 30.8926 6.8683 30.752 6.8683 30.573C6.8683 30.3941 6.95777 30.0362 7.0728 29.7678C7.18782 29.5122 7.39232 29.1927 7.54569 29.0521C7.69906 28.9243 8.0058 28.7326 8.21029 28.6431C8.42756 28.5537 8.86211 28.477 9.20719 28.4642ZM25.3366 28.7326C25.6178 28.7198 25.8862 28.7582 25.9501 28.8093C26.0012 28.8604 25.8606 29.0905 25.2088 29.7167L25.5283 29.8829C25.7072 29.9723 26.2185 30.1513 26.6786 30.2791C27.1387 30.4197 27.7138 30.5858 27.9567 30.6497C28.1995 30.7008 28.9536 30.8542 29.6182 30.982C30.5001 31.1482 31.4714 31.1993 33.1968 31.1993C34.9094 31.1993 35.8808 31.1354 36.7115 30.9692C37.3378 30.8542 38.0791 30.7136 38.3347 30.6625C38.782 30.573 38.8076 30.5986 38.8971 30.9565C38.961 31.2504 38.9226 31.3782 38.7437 31.506C38.6031 31.5955 38.3858 31.6978 38.2452 31.7233C38.1046 31.7489 37.6701 31.8383 36.5837 32.0428L36.0853 33.0909C35.8169 33.6788 35.4974 34.3817 35.3695 34.6629C35.2417 34.9441 35.0628 35.4298 34.9733 35.7493C34.8711 36.056 34.6027 36.5033 34.3854 36.7334C34.1426 36.9762 33.7208 37.2191 33.4269 37.2958C33.1073 37.3852 32.43 37.4108 31.7909 37.3724C31.1902 37.3341 30.4489 37.2063 30.1294 37.104C29.8099 36.989 29.4137 36.8229 29.2348 36.7462C29.0558 36.6567 28.5957 36.3755 28.2123 36.1199C27.8289 35.8515 27.1515 35.2764 26.7297 34.8291C26.2952 34.3945 25.7711 33.7555 25.5411 33.4104C25.3238 33.0781 25.1193 32.6947 25.081 32.5541C25.0299 32.3368 25.0682 32.3112 25.311 32.3879C25.4644 32.439 25.9117 32.6435 26.2952 32.848C26.6786 33.0397 27.5477 33.3976 28.2123 33.6404C28.8769 33.8705 30.0016 34.1517 30.7045 34.2667C31.4714 34.3945 32.4683 34.4712 34.411 34.4073L34.8839 33.4487C35.1523 32.9247 35.344 32.4263 35.3184 32.3624C35.2929 32.2857 34.641 32.2473 33.5675 32.2729C32.5322 32.2985 31.2925 32.2345 30.4489 32.1195C29.6693 32.0173 28.7619 31.8639 28.404 31.8C28.0589 31.7361 27.2665 31.5316 26.653 31.3527C26.0268 31.1737 25.311 30.9309 25.0554 30.8287C24.787 30.7136 24.4547 30.6369 24.3141 30.6369C24.1735 30.6369 23.6751 30.9565 23.2022 31.3399C22.4609 31.9406 22.3075 32.0173 22.1286 31.8767C22.0136 31.8 21.8347 31.5699 21.7452 31.3655C21.6429 31.1737 21.5663 30.8031 21.5663 30.5347C21.579 30.2791 21.6685 29.934 21.7963 29.7934C21.9113 29.64 22.3075 29.3844 22.6526 29.2311C23.0105 29.0777 23.6367 28.8988 24.0585 28.8476C24.4803 28.7965 25.0554 28.7454 25.3366 28.7326ZM9.28388 32.1706C9.32222 32.1706 10.0507 32.4007 10.8943 32.6947C11.7378 32.9758 12.4919 33.2698 12.5558 33.3465C12.6452 33.4232 12.5558 33.5765 12.3002 33.7682C12.0829 33.9344 11.6995 34.1005 11.4311 34.1389C11.1754 34.1772 10.7665 34.1772 10.5364 34.1261C10.3191 34.075 9.96126 33.8577 9.74399 33.6404C9.52671 33.4232 9.29666 33.0525 9.20719 32.8097C9.13051 32.5668 9.09217 32.324 9.13051 32.2601C9.18163 32.209 9.24554 32.1706 9.28388 32.1706ZM31.7015 39.4813C32.9156 39.4813 33.9764 39.5068 34.0531 39.5324C34.1426 39.558 34.2193 39.7752 34.2193 39.9925C34.2193 40.2226 34.1426 40.5037 34.0531 40.6188C33.9637 40.721 33.7592 40.9127 33.5802 41.0405C33.3502 41.1939 32.9795 41.2578 32.3021 41.2706C31.5353 41.2834 31.2158 41.2195 30.7173 40.9766C30.3722 40.8105 29.8994 40.4654 29.6693 40.2226C29.3626 39.8903 29.2731 39.7369 29.3753 39.6219C29.4776 39.5068 30.1166 39.4685 31.7015 39.4813Z" fill="black"/>
<path d="M21.3619 21.8427C21.2852 20.9736 21.3108 20.8458 21.5153 20.7052V20.6924C21.6942 20.5774 22.7806 20.5391 25.8096 20.5391C28.8259 20.5391 29.9506 20.5774 30.1551 20.6924C30.4107 20.8458 30.4235 20.9225 30.334 21.7532C30.2957 22.2389 30.1807 22.9035 30.0784 23.223C29.989 23.5426 29.81 24.0027 29.6822 24.2455C29.5544 24.4883 29.2605 24.9357 29.0304 25.2296C28.7492 25.5875 28.3019 25.9198 27.8034 26.1754C27.0877 26.5205 26.8704 26.5588 25.848 26.5716C24.8255 26.5716 24.6082 26.5333 23.8669 26.1882C23.2535 25.8942 22.8956 25.6131 22.4994 25.1146C22.1927 24.7312 21.8476 24.0921 21.6942 23.632C21.5536 23.1975 21.4002 22.3923 21.3619 21.8427Z" fill="white"/>
<path d="M34.8329 20.8202C34.8201 20.7563 34.8968 20.6669 34.9991 20.6413C35.0885 20.603 36.7756 20.5646 38.7311 20.5646C41.939 20.5518 42.2969 20.5774 42.4758 20.7691C42.6548 20.9608 42.6803 21.1653 42.6036 21.8555C42.5653 22.3412 42.4119 23.0824 42.2586 23.517C42.118 23.9643 41.7985 24.5906 41.5556 24.9229C41.3128 25.268 40.8655 25.7153 40.5459 25.9198C40.2008 26.1498 39.6001 26.3799 39.0506 26.5077C38.5393 26.61 37.9003 26.6739 37.159 26.5588V24.3861H37.6702C38.0792 24.3861 38.2454 24.3094 38.501 24.0027C38.714 23.7471 38.8205 23.4574 38.8205 23.1336C38.8205 22.8524 38.7183 22.4817 38.5266 22.2134C38.2709 21.8171 38.1687 21.766 37.6702 21.766C37.1718 21.766 37.0695 21.8171 36.8011 22.2134C36.635 22.4562 36.4688 22.6735 36.4177 22.699C36.3666 22.7118 35.996 22.3284 35.5997 21.8299C35.1908 21.3443 34.8457 20.8841 34.8329 20.8202Z" fill="white"/>
<path d="M24.0705 22.3344C24.1983 22.1299 24.3772 21.8998 24.4922 21.8359C24.6073 21.7592 24.8245 21.6953 24.9779 21.6953C25.144 21.6953 25.3869 21.7464 25.5275 21.8231C25.6681 21.8998 25.8726 22.1299 25.9748 22.3344C26.0771 22.5516 26.1665 22.9223 26.1665 23.1651C26.1665 23.4718 26.0515 23.7402 25.8087 24.0086C25.5147 24.3409 25.3869 24.3921 24.9523 24.3537C24.5434 24.3282 24.39 24.2387 24.1599 23.8681C23.9938 23.6252 23.866 23.2674 23.866 23.0756C23.866 22.8711 23.9554 22.5516 24.0705 22.3344Z" fill="black"/>
</svg>
