<svg width="12" height="12" viewBox="0 0 12 12" fill="none" xmlns="http://www.w3.org/2000/svg">
<path d="M8.83938 2.06646V1.03119C8.83938 0.941456 8.73625 0.891902 8.66661 0.946813L2.62911 5.66244C2.57781 5.70233 2.5363 5.75341 2.50775 5.81179C2.4792 5.87016 2.46436 5.93429 2.46436 5.99927C2.46436 6.06425 2.4792 6.12838 2.50775 6.18675C2.5363 6.24512 2.57781 6.29621 2.62911 6.3361L8.66661 11.0517C8.73759 11.1066 8.83938 11.0571 8.83938 10.9673V9.93208C8.83938 9.86646 8.80857 9.80351 8.75768 9.76333L3.93625 5.99994L8.75768 2.23521C8.80857 2.19503 8.83938 2.13208 8.83938 2.06646Z" fill="black"/>
</svg>
