<svg width="20" height="20" viewBox="0 0 20 20" fill="none" xmlns="http://www.w3.org/2000/svg">
<mask id="path-1-inside-1_3963_340" fill="white">
<path fill-rule="evenodd" clip-rule="evenodd" d="M4.46956 1.60938C3.73318 1.60938 3.13623 2.20633 3.13623 2.94271V16.3594C3.13623 17.0958 3.73318 17.6927 4.46956 17.6927H14.8304C15.5668 17.6927 16.1637 17.0958 16.1637 16.3594L16.1637 6.40307C16.1637 5.90822 15.9672 5.43363 15.6172 5.08371L12.6894 2.15587C12.3395 1.80596 11.8649 1.60938 11.37 1.60938H4.46956Z"/>
</mask>
<path fill-rule="evenodd" clip-rule="evenodd" d="M4.46956 1.60938C3.73318 1.60938 3.13623 2.20633 3.13623 2.94271V16.3594C3.13623 17.0958 3.73318 17.6927 4.46956 17.6927H14.8304C15.5668 17.6927 16.1637 17.0958 16.1637 16.3594L16.1637 6.40307C16.1637 5.90822 15.9672 5.43363 15.6172 5.08371L12.6894 2.15587C12.3395 1.80596 11.8649 1.60938 11.37 1.60938H4.46956Z" fill="url(#paint0_linear_3963_340)"/>
<path fill-rule="evenodd" clip-rule="evenodd" d="M4.46956 1.60938C3.73318 1.60938 3.13623 2.20633 3.13623 2.94271V16.3594C3.13623 17.0958 3.73318 17.6927 4.46956 17.6927H14.8304C15.5668 17.6927 16.1637 17.0958 16.1637 16.3594L16.1637 6.40307C16.1637 5.90822 15.9672 5.43363 15.6172 5.08371L12.6894 2.15587C12.3395 1.80596 11.8649 1.60938 11.37 1.60938H4.46956Z" fill="black" fill-opacity="0.1"/>
<path d="M16.1637 16.3594H8.08056H16.1637ZM16.1637 6.40307L8.08056 6.40307L16.1637 6.40307ZM11.2194 2.94271C11.2194 6.67055 8.19738 9.69254 4.46956 9.69254V-6.47379C-0.731015 -6.47379 -4.94694 -2.25789 -4.94694 2.94271H11.2194ZM11.2194 16.3594V2.94271H-4.94694V16.3594H11.2194ZM4.46956 9.60954C8.19739 9.60954 11.2194 12.6315 11.2194 16.3594H-4.94694C-4.94694 21.56 -0.731022 25.7759 4.46956 25.7759V9.60954ZM14.8304 9.60954H4.46956V25.7759H14.8304V9.60954ZM8.08056 16.3594C8.08056 12.6315 11.1026 9.60954 14.8304 9.60954V25.7759C20.031 25.7759 24.2469 21.56 24.2469 16.3594H8.08056ZM8.08056 6.40307L8.08056 16.3594L24.2469 16.3594V6.40307L8.08056 6.40307ZM6.97373 7.87153L9.90157 10.7994L21.3329 -0.631951L18.4051 -3.55979L6.97373 7.87153ZM4.46956 9.69254H11.37V-6.47379H4.46956V9.69254ZM18.4051 -3.55979C16.5393 -5.42559 14.0087 -6.47379 11.37 -6.47379V9.69254C9.7211 9.69254 8.1397 9.0375 6.97373 7.87153L18.4051 -3.55979ZM24.2469 6.40307C24.2469 3.76443 23.1987 1.23386 21.3329 -0.631951L9.90157 10.7994C8.7356 9.6334 8.08056 8.052 8.08056 6.40307L24.2469 6.40307Z" fill="#929292" fill-opacity="0.1" mask="url(#path-1-inside-1_3963_340)"/>
<path d="M10.27 11.5C11.88 11.5 12.92 10.65 12.92 9.14C12.92 7.64 11.88 6.82 10.27 6.82H7.78V14H8.88V11.5H10.27ZM10.26 7.75C11.23 7.75 11.82 8.26 11.82 9.15C11.82 10.04 11.23 10.57 10.26 10.57H8.88V7.75H10.26Z" fill="white"/>
<path d="M15.7867 5.25195H12.52L16.1639 8.89583V5.62891L15.7867 5.25195Z" fill="url(#paint1_linear_3963_340)"/>
<path d="M13.4761 5.62891L16.1636 5.62891L12.1427 1.60807L12.1427 4.29557C12.1427 5.03195 12.7397 5.62891 13.4761 5.62891Z" fill="#A7A7A7"/>
<defs>
<linearGradient id="paint0_linear_3963_340" x1="6.34166" y1="4.77435" x2="15.8845" y2="9.54277" gradientUnits="userSpaceOnUse">
<stop stop-color="#B6C0D6"/>
<stop offset="1" stop-color="#6B6A7B" stop-opacity="0.84"/>
</linearGradient>
<linearGradient id="paint1_linear_3963_340" x1="13.3368" y1="4.43522" x2="16.9806" y2="8.0791" gradientUnits="userSpaceOnUse">
<stop stop-opacity="0.2"/>
<stop offset="1" stop-opacity="0"/>
</linearGradient>
</defs>
</svg>
