<svg width="14" height="14" viewBox="0 0 14 14" fill="none" xmlns="http://www.w3.org/2000/svg">
<path d="M2 11.4113C3.96062 10.2348 4.94122 9.05835 4.94122 7.88186C4.94122 6.11713 4.35298 6.11713 3.76473 6.11713C3.17649 6.11713 2.56942 6.75537 2.58824 7.88186C2.60824 9.08658 3.56355 9.57423 4.05885 10.2348C4.94122 11.4113 5.52946 11.7054 6.11771 10.8231C6.51007 10.2348 6.80419 9.74483 7.00007 9.35247C7.58832 10.7248 8.37244 11.4113 9.35305 11.4113H10.8237" stroke="#939393" stroke-linecap="round" stroke-linejoin="round"/>
<path d="M12 10.2354V3.17649C12 2.51707 11.4829 2 10.8235 2C10.1641 2 9.64703 2.51707 9.64703 3.17649V10.2354L10.8235 11.4119L12 10.2354Z" stroke="#939393" stroke-linecap="round" stroke-linejoin="round"/>
<path d="M9.64703 4.35239H12" stroke="#939393" stroke-linecap="round" stroke-linejoin="round"/>
</svg>
