<svg width="14" height="14" viewBox="0 0 14 14" fill="none" xmlns="http://www.w3.org/2000/svg">
<path d="M10.9244 4.82391V12.1697C10.9244 12.4129 10.7273 12.61 10.4841 12.61H3.4403C3.19712 12.61 3 12.4129 3 12.1697V2.4403C3 2.19712 3.19712 2 3.4403 2H8.1007C8.21742 2 8.32935 2.04639 8.4119 2.12894L10.7955 4.51254C10.878 4.59509 10.9244 4.70702 10.9244 4.82391Z" stroke="#939393" stroke-linecap="round" stroke-linejoin="round"/>
<path d="M10.8584 4.64147H8.72326C8.48008 4.64147 8.28296 4.44435 8.28296 4.20117V2.08798" stroke="#939393" stroke-linecap="round" stroke-linejoin="round"/>
<path d="M7.31668 6.3804H9.42045" stroke="#939393" stroke-width="0.8" stroke-linecap="round" stroke-linejoin="round"/>
<path d="M7.31668 8.58173H9.42045" stroke="#939393" stroke-width="0.8" stroke-linecap="round" stroke-linejoin="round"/>
<path d="M7.31668 10.7829H9.42986" stroke="#939393" stroke-width="0.8" stroke-linecap="round" stroke-linejoin="round"/>
<path d="M4.49475 6.2967L4.90781 6.70976L5.90266 5.71475" stroke="#939393" stroke-width="0.8" stroke-linecap="round" stroke-linejoin="round"/>
<path d="M4.49475 8.66611L4.90781 9.07917L5.90266 8.08432" stroke="#939393" stroke-width="0.8" stroke-linecap="round" stroke-linejoin="round"/>
<path d="M4.49475 10.8673L4.90781 11.2803L5.90266 10.2855" stroke="#939393" stroke-width="0.8" stroke-linecap="round" stroke-linejoin="round"/>
</svg>
