<svg width="30" height="30" viewBox="0 0 30 30" fill="none" xmlns="http://www.w3.org/2000/svg">
<mask id="path-1-inside-1_3480_97522" fill="white">
<path d="M12.793 2.2991C13.9966 1.04524 16.0034 1.04524 17.207 2.2991C17.9557 3.0791 19.0613 3.40572 20.1136 3.15733C21.7966 2.76004 23.4792 3.86513 23.8175 5.56102C24.0295 6.62399 24.7861 7.51342 25.8061 7.8799C27.4395 8.46673 28.2613 10.3042 27.6355 11.9231C27.2435 12.9371 27.4055 14.0971 28.066 14.9606C29.1248 16.3448 28.8445 18.3352 27.4385 19.365C26.5626 20.0065 26.0861 21.075 26.1792 22.1568C26.3276 23.881 25.0248 25.417 23.2969 25.515C22.2164 25.5763 21.2436 26.2104 20.7436 27.1702C19.9434 28.7063 18.0183 29.2844 16.5148 28.4245C15.5763 27.8877 14.4237 27.8877 13.4852 28.4245C11.9817 29.2844 10.0566 28.7063 9.25638 27.1702C8.75638 26.2104 7.78356 25.5763 6.70308 25.515C4.97524 25.417 3.67241 23.881 3.82081 22.1568C3.91391 21.075 3.43745 20.0065 2.5615 19.365C1.15554 18.3352 0.875182 16.3448 1.93398 14.9606C2.59448 14.0971 2.7565 12.9371 2.36451 11.9231C1.7387 10.3042 2.56048 8.46673 4.19386 7.8799C5.21394 7.51342 5.97046 6.62399 6.1825 5.56102C6.5208 3.86513 8.20337 2.76004 9.88642 3.15733C10.9387 3.40572 12.0443 3.0791 12.793 2.2991Z"/>
</mask>
<path d="M12.793 2.2991C13.9966 1.04524 16.0034 1.04524 17.207 2.2991C17.9557 3.0791 19.0613 3.40572 20.1136 3.15733C21.7966 2.76004 23.4792 3.86513 23.8175 5.56102C24.0295 6.62399 24.7861 7.51342 25.8061 7.8799C27.4395 8.46673 28.2613 10.3042 27.6355 11.9231C27.2435 12.9371 27.4055 14.0971 28.066 14.9606C29.1248 16.3448 28.8445 18.3352 27.4385 19.365C26.5626 20.0065 26.0861 21.075 26.1792 22.1568C26.3276 23.881 25.0248 25.417 23.2969 25.515C22.2164 25.5763 21.2436 26.2104 20.7436 27.1702C19.9434 28.7063 18.0183 29.2844 16.5148 28.4245C15.5763 27.8877 14.4237 27.8877 13.4852 28.4245C11.9817 29.2844 10.0566 28.7063 9.25638 27.1702C8.75638 26.2104 7.78356 25.5763 6.70308 25.515C4.97524 25.417 3.67241 23.881 3.82081 22.1568C3.91391 21.075 3.43745 20.0065 2.5615 19.365C1.15554 18.3352 0.875182 16.3448 1.93398 14.9606C2.59448 14.0971 2.7565 12.9371 2.36451 11.9231C1.7387 10.3042 2.56048 8.46673 4.19386 7.8799C5.21394 7.51342 5.97046 6.62399 6.1825 5.56102C6.5208 3.86513 8.20337 2.76004 9.88642 3.15733C10.9387 3.40572 12.0443 3.0791 12.793 2.2991Z" fill="url(#paint0_linear_3480_97522)"/>
<path d="M9.88642 3.15733L3.87536 28.6223L9.88642 3.15733ZM4.19386 7.8799L-4.65275 -16.744L4.19386 7.8799ZM2.36451 11.9231L-22.0403 21.3573L2.36451 11.9231ZM2.5615 19.365L-12.8985 40.4739L2.5615 19.365ZM6.70308 25.515L5.22183 51.6378L6.70308 25.515ZM13.4852 28.4245L26.4753 51.137L13.4852 28.4245ZM16.5148 28.4245L3.52473 51.137L16.5148 28.4245ZM20.7436 27.1702L-2.46125 15.0817L20.7436 27.1702ZM26.1792 22.1568L0.110762 24.4004L26.1792 22.1568ZM28.066 14.9606L7.28404 30.8574L28.066 14.9606ZM25.8061 7.8799L16.9595 32.5038L25.8061 7.8799ZM23.8175 5.56102L-1.84176 10.6795L23.8175 5.56102ZM17.207 2.2991L-1.6687 20.4183L17.207 2.2991ZM3.87536 28.6223C13.9438 30.999 24.512 27.8738 31.6687 20.4183L-6.08263 -15.8201C-0.423436 -21.7156 7.93362 -24.1875 15.8975 -22.3076L3.87536 28.6223ZM31.8418 10.6795C29.3454 23.194 16.9124 31.6997 3.87536 28.6223L15.8975 -22.3076C-0.505704 -26.1796 -16.3038 -15.4637 -19.4768 0.442521L31.8418 10.6795ZM13.0405 32.5038C22.8344 28.9851 29.8629 20.5998 31.8418 10.6795L-19.4768 0.442521C-17.9219 -7.35183 -12.4065 -13.9583 -4.65275 -16.744L13.0405 32.5038ZM26.7693 2.48887C31.3527 14.3454 25.4705 28.038 13.0405 32.5038L-4.65275 -16.744C-20.3495 -11.1046 -27.8753 6.26307 -22.0403 21.3573L26.7693 2.48887ZM22.716 30.8574C28.9563 22.6993 30.4203 11.9334 26.7693 2.48887L-22.0403 21.3573C-24.9073 13.9408 -23.7673 5.49499 -18.848 -0.936111L22.716 30.8574ZM18.0215 -1.74396C28.5185 5.94399 30.5116 20.666 22.716 30.8574L-18.848 -0.936111C-28.7613 12.0236 -26.2074 30.7265 -12.8985 40.4739L18.0215 -1.74396ZM29.8892 24.4004C30.7525 14.3703 26.392 4.38654 18.0215 -1.74396L-12.8985 40.4739C-19.5171 35.6264 -22.9247 27.7798 -22.2476 19.9132L29.8892 24.4004ZM8.18434 -0.607834C21.5163 0.148135 30.9768 11.7643 29.8892 24.4004L-22.2476 19.9132C-23.632 35.9978 -11.5658 50.6859 5.22183 51.6378L8.18434 -0.607834ZM32.4613 15.0817C27.7417 6.0222 18.5636 -0.0192927 8.18434 -0.607834L5.22183 51.6378C-2.9965 51.1718 -10.229 46.3986 -13.9485 39.2586L32.4613 15.0817ZM0.495132 5.71208C12.0556 -0.899792 26.4902 3.61981 32.4613 15.0817L-13.9485 39.2586C-6.377 53.7928 11.9077 59.4687 26.4753 51.137L0.495132 5.71208ZM29.5049 5.71208C20.518 0.572149 9.48203 0.572146 0.495132 5.71208L26.4753 51.137C19.3654 55.2033 10.6346 55.2033 3.52473 51.137L29.5049 5.71208ZM-2.46125 15.0817C3.50977 3.61981 17.9444 -0.899796 29.5049 5.71208L3.52473 51.137C18.0923 59.4687 36.377 53.7928 43.9485 39.2586L-2.46125 15.0817ZM21.8157 -0.607834C11.4364 -0.0192931 2.25826 6.0222 -2.46125 15.0817L43.9485 39.2586C40.229 46.3986 32.9965 51.1718 24.7782 51.6378L21.8157 -0.607834ZM0.110762 24.4004C-0.976773 11.7643 8.4837 0.148135 21.8157 -0.607834L24.7782 51.6378C41.5658 50.6859 53.632 35.9978 52.2476 19.9132L0.110762 24.4004ZM11.9785 -1.74396C3.608 4.38654 -0.752486 14.3703 0.110762 24.4004L52.2476 19.9132C52.9247 27.7798 49.5171 35.6264 42.8985 40.4739L11.9785 -1.74396ZM7.28404 30.8574C-0.511628 20.666 1.48147 5.94399 11.9785 -1.74396L42.8985 40.4739C56.2074 30.7265 58.7613 12.0236 48.848 -0.936111L7.28404 30.8574ZM3.23073 2.48887C-0.420273 11.9334 1.0437 22.6993 7.28404 30.8574L48.848 -0.936111C53.7673 5.49499 54.9073 13.9408 52.0403 21.3573L3.23073 2.48887ZM16.9595 32.5038C4.5295 28.038 -1.35267 14.3454 3.23073 2.48887L52.0403 21.3573C57.8753 6.26308 50.3495 -11.1046 34.6528 -16.7439L16.9595 32.5038ZM-1.84176 10.6795C0.13713 20.5998 7.16565 28.9851 16.9595 32.5038L34.6528 -16.7439C42.4065 -13.9583 47.9219 -7.35183 49.4768 0.442517L-1.84176 10.6795ZM26.1246 28.6223C13.0876 31.6997 0.654618 23.194 -1.84176 10.6795L49.4768 0.442517C46.3038 -15.4637 30.5057 -26.1796 14.1025 -22.3076L26.1246 28.6223ZM-1.6687 20.4183C5.48797 27.8738 16.0562 30.999 26.1246 28.6223L14.1025 -22.3076C22.0664 -24.1875 30.4234 -21.7156 36.0826 -15.8201L-1.6687 20.4183ZM36.0826 -15.8201C24.5815 -27.8014 5.41852 -27.8014 -6.08263 -15.8201L31.6687 20.4183C22.5748 29.8919 7.42523 29.8919 -1.6687 20.4183L36.0826 -15.8201Z" fill="#929292" fill-opacity="0.1" mask="url(#path-1-inside-1_3480_97522)"/>
<path d="M4.86456 15.2654C4.86456 9.52164 9.52079 4.86542 15.2645 4.86542C21.0083 4.86542 25.6645 9.52164 25.6645 15.2654V15.4793C25.6645 21.223 21.0083 25.8793 15.2645 25.8793C9.52079 25.8793 4.86456 21.223 4.86456 15.4793V15.2654Z" fill="black" fill-opacity="0.04"/>
<path d="M7.11964 15.2654C7.11964 10.7671 10.7662 7.1205 15.2645 7.1205C19.7628 7.1205 23.4094 10.7671 23.4094 15.2654V15.4793C23.4094 19.9776 19.7628 23.6242 15.2645 23.6242C10.7662 23.6242 7.11964 19.9776 7.11964 15.4793V15.2654Z" stroke="white" stroke-opacity="0.3" stroke-width="4.51016"/>
<path d="M25.6941 15.3865C25.6941 21.1952 21.0326 25.9041 15.2823 25.9041C9.53205 25.9041 4.87054 21.1952 4.87054 15.3865C4.87054 9.57775 9.53205 4.86884 15.2823 4.86884C21.0326 4.86884 25.6941 9.57775 25.6941 15.3865ZM7.04236 15.3865C7.04236 19.9836 10.7315 23.7102 15.2823 23.7102C19.8331 23.7102 23.5223 19.9836 23.5223 15.3865C23.5223 10.7894 19.8331 7.06274 15.2823 7.06274C10.7315 7.06274 7.04236 10.7894 7.04236 15.3865Z" fill="url(#paint1_linear_3480_97522)" fill-opacity="0.5"/>
<path fill-rule="evenodd" clip-rule="evenodd" d="M13.0259 12.882C13.0259 12.3829 13.2242 11.9042 13.5771 11.5512C13.93 11.1983 14.4087 11 14.9079 11C15.407 11 15.8857 11.1983 16.2387 11.5512C16.5916 11.9042 16.7899 12.3829 16.7899 12.882C16.7899 13.3812 16.5916 13.8599 16.2387 14.2128C15.8857 14.5658 15.407 14.764 14.9079 14.764C14.4087 14.764 13.93 14.5658 13.5771 14.2128C13.2242 13.8599 13.0259 13.3812 13.0259 12.882ZM11.4579 18.7811C11.472 17.8754 11.8417 17.0116 12.4872 16.3761C13.1326 15.7406 14.0021 15.3845 14.9079 15.3845C15.8137 15.3845 16.6831 15.7406 17.3286 16.3761C17.9741 17.0116 18.3437 17.8754 18.3578 18.7811C18.3589 18.8421 18.3422 18.902 18.3098 18.9537C18.2773 19.0053 18.2305 19.0463 18.1751 19.0718C17.1501 19.5417 16.0355 19.7843 14.9079 19.7828C13.7427 19.7828 12.6357 19.5285 11.6407 19.0718C11.5853 19.0463 11.5385 19.0053 11.506 18.9537C11.4736 18.902 11.4568 18.8421 11.4579 18.7811Z" fill="#8E7AC8"/>
<defs>
<linearGradient id="paint0_linear_3480_97522" x1="5.26756" y1="2.80937" x2="21.7224" y2="28.7458" gradientUnits="userSpaceOnUse">
<stop stop-color="#D2E0ED"/>
<stop offset="0.109389" stop-color="#BFC8E7"/>
<stop offset="0.463563" stop-color="#CBCDFC"/>
<stop offset="0.739611" stop-color="#C3ADCB"/>
<stop offset="1" stop-color="#9699B5"/>
</linearGradient>
<linearGradient id="paint1_linear_3480_97522" x1="15.2823" y1="4.86884" x2="15.2823" y2="25.9041" gradientUnits="userSpaceOnUse">
<stop stop-color="white"/>
<stop offset="0.0001" stop-color="white" stop-opacity="0.81"/>
<stop offset="1" stop-color="white" stop-opacity="0"/>
</linearGradient>
</defs>
</svg>
