<svg width="56" height="56" viewBox="0 0 20 20" fill="none" xmlns="http://www.w3.org/2000/svg">
<mask id="path-1-inside-1_3922_224" fill="white">
<path d="M8.30159 2.10733C9.03593 1.34234 10.2594 1.34234 10.9937 2.10733L11.1067 2.22499C11.5639 2.7013 12.2388 2.90052 12.8814 2.74883L13.0367 2.71216C14.0645 2.46955 15.0886 3.12749 15.2952 4.1631L15.3343 4.35904C15.4623 5.00088 15.9173 5.52872 16.5332 5.75L16.7151 5.81537C17.7014 6.1697 18.2025 7.26661 17.8246 8.24411L17.7429 8.45545C17.5086 9.06149 17.6065 9.74577 18.0013 10.2618L18.1378 10.4403C18.7731 11.2709 18.6019 12.4614 17.7583 13.0793L17.587 13.2047C17.0614 13.5897 16.7746 14.2209 16.8305 14.87L16.8491 15.0865C16.9393 16.1345 16.1459 17.0499 15.0957 17.1094L14.9224 17.1192C14.2657 17.1565 13.6771 17.5367 13.3732 18.1201L13.2902 18.2793C12.8009 19.2187 11.6286 19.5628 10.7091 19.0369L10.574 18.9597C10.0001 18.6314 9.29525 18.6314 8.72131 18.9597L8.58619 19.0369C7.66674 19.5628 6.49443 19.2187 6.00506 18.2793L5.9221 18.1201C5.61821 17.5367 5.02964 17.1565 4.37295 17.1192L4.19956 17.1094C3.14941 17.0499 2.35601 16.1345 2.4462 15.0865L2.46484 14.87C2.5207 14.2209 2.23395 13.5897 1.70833 13.2047L1.53703 13.0793C0.693388 12.4614 0.522178 11.2709 1.15751 10.4403L1.29404 10.2618C1.6888 9.74577 1.78667 9.06149 1.55239 8.45545L1.47069 8.24411C1.09281 7.26661 1.59389 6.1697 2.58017 5.81537L2.76209 5.75C3.37804 5.52872 3.833 5.00088 3.96103 4.35904L4.00012 4.1631C4.2067 3.12749 5.23081 2.46955 6.25859 2.71216L6.41393 2.74883C7.05652 2.90051 7.73142 2.70131 8.18865 2.22499L8.30159 2.10733Z"/>
</mask>
<path d="M8.30159 2.10733C9.03593 1.34234 10.2594 1.34234 10.9937 2.10733L11.1067 2.22499C11.5639 2.7013 12.2388 2.90052 12.8814 2.74883L13.0367 2.71216C14.0645 2.46955 15.0886 3.12749 15.2952 4.1631L15.3343 4.35904C15.4623 5.00088 15.9173 5.52872 16.5332 5.75L16.7151 5.81537C17.7014 6.1697 18.2025 7.26661 17.8246 8.24411L17.7429 8.45545C17.5086 9.06149 17.6065 9.74577 18.0013 10.2618L18.1378 10.4403C18.7731 11.2709 18.6019 12.4614 17.7583 13.0793L17.587 13.2047C17.0614 13.5897 16.7746 14.2209 16.8305 14.87L16.8491 15.0865C16.9393 16.1345 16.1459 17.0499 15.0957 17.1094L14.9224 17.1192C14.2657 17.1565 13.6771 17.5367 13.3732 18.1201L13.2902 18.2793C12.8009 19.2187 11.6286 19.5628 10.7091 19.0369L10.574 18.9597C10.0001 18.6314 9.29525 18.6314 8.72131 18.9597L8.58619 19.0369C7.66674 19.5628 6.49443 19.2187 6.00506 18.2793L5.9221 18.1201C5.61821 17.5367 5.02964 17.1565 4.37295 17.1192L4.19956 17.1094C3.14941 17.0499 2.35601 16.1345 2.4462 15.0865L2.46484 14.87C2.5207 14.2209 2.23395 13.5897 1.70833 13.2047L1.53703 13.0793C0.693388 12.4614 0.522178 11.2709 1.15751 10.4403L1.29404 10.2618C1.6888 9.74577 1.78667 9.06149 1.55239 8.45545L1.47069 8.24411C1.09281 7.26661 1.59389 6.1697 2.58017 5.81537L2.76209 5.75C3.37804 5.52872 3.833 5.00088 3.96103 4.35904L4.00012 4.1631C4.2067 3.12749 5.23081 2.46955 6.25859 2.71216L6.41393 2.74883C7.05652 2.90051 7.73142 2.70131 8.18865 2.22499L8.30159 2.10733Z" fill="url(#paint0_linear_3922_224)"/>
<path d="M6.41393 2.74883L4.55692 10.6158L6.41393 2.74883ZM6.25859 2.71216L8.1156 -5.1548L6.25859 2.71216ZM2.76209 5.75L0.0290835 -1.85711L2.76209 5.75ZM2.58017 5.81537L-0.152845 -1.79175L2.58017 5.81537ZM1.29404 10.2618L7.71428 15.1729L1.29404 10.2618ZM1.55239 8.45545L-5.98705 11.37L1.55239 8.45545ZM1.53703 13.0793L-3.23906 19.6005L1.53703 13.0793ZM2.46484 14.87L-5.58856 14.1769L2.46484 14.87ZM4.19956 17.1094L3.74195 25.1796L4.19956 17.1094ZM5.9221 18.1201L13.0908 14.3855L5.9221 18.1201ZM10.574 18.9597L6.56094 25.9763L10.574 18.9597ZM8.72131 18.9597L4.70825 11.943L8.72131 18.9597ZM13.2902 18.2793L6.12149 14.5448L13.2902 18.2793ZM10.7091 19.0369L6.69606 26.0535L10.7091 19.0369ZM14.9224 17.1192L14.4647 9.04903L14.9224 17.1192ZM16.8491 15.0865L8.79571 15.7797L16.8491 15.0865ZM17.587 13.2047L12.8109 6.68348L17.587 13.2047ZM16.8305 14.87L8.77707 15.5631L16.8305 14.87ZM18.1378 10.4403L11.7176 15.3513L18.1378 10.4403ZM17.7583 13.0793L12.9822 6.55803L17.7583 13.0793ZM17.7429 8.45545L25.2824 11.37L17.7429 8.45545ZM18.0013 10.2618L24.4215 5.35082L18.0013 10.2618ZM16.7151 5.81537L13.9821 13.4225L16.7151 5.81537ZM17.8246 8.24411L10.2852 5.32957L17.8246 8.24411ZM15.3343 4.35904L23.2613 2.77777L15.3343 4.35904ZM16.5332 5.75L13.8002 13.3571L16.5332 5.75ZM15.2952 4.1631L7.36819 5.74438L15.2952 4.1631ZM10.9937 2.10733L5.1624 7.70495L10.9937 2.10733ZM5.1624 7.70495L5.27534 7.82262L16.938 -3.37263L16.825 -3.49029L5.1624 7.70495ZM14.7384 10.6158L14.8937 10.5791L11.1797 -5.1548L11.0244 -5.11813L14.7384 10.6158ZM7.36819 5.74438L7.40728 5.94032L23.2613 2.77777L23.2222 2.58183L7.36819 5.74438ZM13.8002 13.3571L13.9821 13.4225L19.4482 -1.79175L19.2662 -1.85711L13.8002 13.3571ZM10.2852 5.32957L10.2035 5.54091L25.2824 11.37L25.364 11.1586L10.2852 5.32957ZM11.581 15.1729L11.7176 15.3513L24.558 5.5293L24.4215 5.35082L11.581 15.1729ZM12.9822 6.55803L12.8109 6.68348L22.3631 19.726L22.5344 19.6005L12.9822 6.55803ZM8.77707 15.5631L8.79571 15.7797L24.9025 14.3934L24.8839 14.1769L8.77707 15.5631ZM14.6381 9.0392L14.4647 9.04903L15.38 25.1894L15.5534 25.1796L14.6381 9.0392ZM6.20446 14.3855L6.12149 14.5448L20.459 22.0138L20.542 21.8546L6.20446 14.3855ZM14.7222 12.0203L14.5871 11.943L6.56094 25.9763L6.69606 26.0535L14.7222 12.0203ZM4.70825 11.943L4.57313 12.0203L12.5992 26.0535L12.7344 25.9763L4.70825 11.943ZM13.1738 14.5448L13.0908 14.3855L-1.24665 21.8546L-1.16369 22.0138L13.1738 14.5448ZM4.83055 9.04903L4.65717 9.0392L3.74195 25.1796L3.91534 25.1894L4.83055 9.04903ZM10.4996 15.7797L10.5182 15.5631L-5.58856 14.1769L-5.60719 14.3934L10.4996 15.7797ZM6.48442 6.68348L6.31313 6.55803L-3.23906 19.6005L-3.06776 19.726L6.48442 6.68348ZM7.57775 15.3513L7.71428 15.1729L-5.1262 5.35082L-5.26272 5.5293L7.57775 15.3513ZM9.09182 5.54091L9.01012 5.32957L-6.06875 11.1586L-5.98705 11.37L9.09182 5.54091ZM5.31318 13.4225L5.49511 13.3571L0.0290835 -1.85711L-0.152845 -1.79175L5.31318 13.4225ZM11.888 5.94032L11.9271 5.74438L-3.92687 2.58183L-3.96596 2.77777L11.888 5.94032ZM4.40157 10.5791L4.55692 10.6158L8.27094 -5.11813L8.1156 -5.1548L4.40157 10.5791ZM14.02 7.82262L14.1329 7.70495L2.47028 -3.49029L2.35733 -3.37263L14.02 7.82262ZM4.55692 10.6158C7.98328 11.4246 11.582 10.3624 14.02 7.82262L2.35733 -3.37263C3.88087 -4.95977 6.12975 -5.62356 8.27094 -5.11813L4.55692 10.6158ZM11.9271 5.74438C11.2387 9.19519 7.82626 11.3875 4.40157 10.5791L8.1156 -5.1548C2.63536 -6.44842 -2.82534 -2.94021 -3.92687 2.58183L11.9271 5.74438ZM5.49511 13.3571C8.77939 12.1772 11.2053 9.3627 11.888 5.94032L-3.96596 2.77777C-3.53933 0.639067 -2.02332 -1.11975 0.0290835 -1.85711L5.49511 13.3571ZM9.01012 5.32957C10.2693 8.58673 8.59958 12.2418 5.31318 13.4225L-0.152845 -1.79175C-5.4118 0.0976328 -8.08362 5.94649 -6.06875 11.1586L9.01012 5.32957ZM7.71428 15.1729C9.8192 12.4211 10.341 8.77241 9.09182 5.54091L-5.98705 11.37C-6.7677 9.35057 -6.4416 7.07046 -5.1262 5.35082L7.71428 15.1729ZM6.31313 6.55803C9.12428 8.61689 9.69478 12.5837 7.57775 15.3513L-5.26272 5.5293C-8.65042 9.95808 -7.7375 16.3059 -3.23906 19.6005L6.31313 6.55803ZM10.5182 15.5631C10.8161 12.102 9.28709 8.73613 6.48442 6.68348L-3.06776 19.726C-4.8192 18.4432 -5.77471 16.3398 -5.58856 14.1769L10.5182 15.5631ZM4.65717 9.0392C8.15642 9.23762 10.8001 12.2877 10.4996 15.7797L-5.60719 14.3934C-6.08811 19.9813 -1.8576 24.8621 3.74195 25.1796L4.65717 9.0392ZM13.0908 14.3855C11.4705 11.2751 8.33213 9.24758 4.83055 9.04903L3.91534 25.1894C1.72715 25.0654 -0.234063 23.7983 -1.24665 21.8546L13.0908 14.3855ZM4.57313 12.0203C7.63688 10.268 11.5432 11.4146 13.1738 14.5448L-1.16369 22.0138C1.44571 27.0228 7.69659 28.8576 12.5992 26.0535L4.57313 12.0203ZM14.5871 11.943C11.5267 10.1927 7.7686 10.1927 4.70825 11.943L12.7344 25.9763C10.8219 27.0701 8.47339 27.0701 6.56094 25.9763L14.5871 11.943ZM6.12149 14.5448C7.75214 11.4146 11.6584 10.268 14.7222 12.0203L6.69606 26.0535C11.5987 28.8576 17.8496 27.0228 20.459 22.0138L6.12149 14.5448ZM14.4647 9.04903C10.9632 9.24758 7.82482 11.2751 6.20446 14.3855L20.542 21.8546C19.5294 23.7983 17.5682 25.0654 15.38 25.1894L14.4647 9.04903ZM8.79571 15.7797C8.49517 12.2877 11.1389 9.23762 14.6381 9.0392L15.5534 25.1796C21.1529 24.8621 25.3834 19.9813 24.9025 14.3934L8.79571 15.7797ZM12.8109 6.68348C10.0082 8.73613 8.47919 12.102 8.77707 15.5631L24.8839 14.1769C25.07 16.3398 24.1145 18.4432 22.3631 19.726L12.8109 6.68348ZM11.7176 15.3513C9.60053 12.5837 10.171 8.61689 12.9822 6.55803L22.5344 19.6005C27.0328 16.3059 27.9457 9.95807 24.558 5.5293L11.7176 15.3513ZM10.2035 5.54091C8.95427 8.77241 9.4761 12.4211 11.581 15.1729L24.4215 5.35082C25.7369 7.07046 26.063 9.35057 25.2824 11.37L10.2035 5.54091ZM13.9821 13.4225C10.6957 12.2418 9.02605 8.58673 10.2852 5.32957L25.364 11.1586C27.3789 5.94649 24.7071 0.0976348 19.4482 -1.79175L13.9821 13.4225ZM7.40728 5.94032C8.08998 9.3627 10.5159 12.1772 13.8002 13.3571L19.2662 -1.85711C21.3186 -1.11975 22.8346 0.639068 23.2613 2.77777L7.40728 5.94032ZM14.8937 10.5791C11.4691 11.3875 8.05656 9.1952 7.36819 5.74438L23.2222 2.58183C22.1206 -2.94022 16.6599 -6.44842 11.1797 -5.1548L14.8937 10.5791ZM5.27534 7.82262C7.71332 10.3624 11.312 11.4246 14.7384 10.6158L11.0244 -5.11813C13.1656 -5.62357 15.4144 -4.95977 16.938 -3.37263L5.27534 7.82262ZM16.825 -3.49029C12.9094 -7.56935 6.38586 -7.56934 2.47028 -3.49029L14.1329 7.70495C11.686 10.254 7.60931 10.254 5.1624 7.70495L16.825 -3.49029Z" fill="#929292" fill-opacity="0.1" mask="url(#path-1-inside-1_3922_224)"/>
<path d="M3.12891 10.525C3.12891 6.83071 6.12368 3.83594 9.81793 3.83594C13.5122 3.83594 16.5069 6.83072 16.5069 10.525V10.6625C16.5069 14.3568 13.5122 17.3516 9.81793 17.3516C6.12368 17.3516 3.12891 14.3568 3.12891 10.6625V10.525Z" fill="black" fill-opacity="0.04"/>
<path d="M3.82557 10.525C3.82557 7.21547 6.50844 4.53261 9.81793 4.53261C13.1274 4.53261 15.8103 7.21547 15.8103 10.525V10.6625C15.8103 13.972 13.1274 16.6549 9.81793 16.6549C6.50844 16.6549 3.82557 13.972 3.82557 10.6625V10.525Z" stroke="white" stroke-opacity="0.3" stroke-width="1.39334"/>
<path d="M16.526 10.6026C16.526 14.3386 13.5279 17.3673 9.82942 17.3673C6.13098 17.3673 3.13281 14.3386 3.13281 10.6026C3.13281 6.86655 6.13098 3.83789 9.82942 3.83789C13.5279 3.83789 16.526 6.86655 16.526 10.6026ZM4.52967 10.6026C4.52967 13.5593 6.90245 15.9562 9.82942 15.9562C12.7564 15.9562 15.1292 13.5593 15.1292 10.6026C15.1292 7.64586 12.7564 5.24896 9.82942 5.24896C6.90245 5.24896 4.52967 7.64586 4.52967 10.6026Z" fill="url(#paint1_linear_3922_224)" fill-opacity="0.5"/>
<path fill-rule="evenodd" clip-rule="evenodd" d="M8.34052 8.67141C8.34052 8.35037 8.46805 8.04248 8.69506 7.81548C8.92207 7.58847 9.22995 7.46094 9.55099 7.46094C9.87203 7.46094 10.1799 7.58847 10.4069 7.81548C10.6339 8.04248 10.7615 8.35037 10.7615 8.67141C10.7615 8.99245 10.6339 9.30033 10.4069 9.52734C10.1799 9.75435 9.87203 9.88188 9.55099 9.88188C9.22995 9.88188 8.92207 9.75435 8.69506 9.52734C8.46805 9.30033 8.34052 8.99245 8.34052 8.67141ZM7.33206 12.4656C7.34113 11.883 7.5789 11.3275 7.99405 10.9187C8.40919 10.51 8.96841 10.2809 9.55099 10.2809C10.1336 10.2809 10.6928 10.51 11.1079 10.9187C11.5231 11.3275 11.7608 11.883 11.7699 12.4656C11.7706 12.5048 11.7599 12.5433 11.739 12.5765C11.7181 12.6098 11.688 12.6362 11.6524 12.6525C10.9931 12.9548 10.2762 13.1108 9.55099 13.1098C8.80158 13.1098 8.08955 12.9463 7.44961 12.6525C7.41397 12.6362 7.38386 12.6098 7.36299 12.5765C7.34211 12.5433 7.33136 12.5048 7.33206 12.4656Z" fill="#8E7AC8"/>
<defs>
<linearGradient id="paint0_linear_3922_224" x1="3.38797" y1="2.512" x2="13.9713" y2="19.1937" gradientUnits="userSpaceOnUse">
<stop stop-color="#D2E0ED"/>
<stop offset="0.109389" stop-color="#BFC8E7"/>
<stop offset="0.463563" stop-color="#CBCDFC"/>
<stop offset="0.739611" stop-color="#C3ADCB"/>
<stop offset="1" stop-color="#9699B5"/>
</linearGradient>
<linearGradient id="paint1_linear_3922_224" x1="9.82942" y1="3.83789" x2="9.82942" y2="17.3673" gradientUnits="userSpaceOnUse">
<stop stop-color="white"/>
<stop offset="0.0001" stop-color="white" stop-opacity="0.81"/>
<stop offset="1" stop-color="white" stop-opacity="0"/>
</linearGradient>
</defs>
</svg>
