<svg width="14" height="14" viewBox="0 0 14 14" fill="none" xmlns="http://www.w3.org/2000/svg">
<g clip-path="url(#clip0_3432_98741)">
<path d="M6.85659 11.5865H2.02739C1.46158 11.5865 1 11.1249 1 10.5591V3.88362C1 3.31781 1.46158 2.85623 2.02739 2.85623H10.6088C11.1746 2.85623 11.6362 3.31781 11.6362 3.88362V7.9063" stroke="#939393" stroke-miterlimit="10" stroke-linecap="round"/>
<path d="M9.19426 1V2.85624" stroke="#939393" stroke-miterlimit="10" stroke-linecap="round"/>
<path d="M3.45679 1V2.85624" stroke="#939393" stroke-miterlimit="10" stroke-linecap="round"/>
<path d="M1 5.18402H11.6411" stroke="#939393" stroke-miterlimit="10"/>
<path d="M10.3859 13.1661C10.6583 13.1205 10.8421 12.8628 10.7965 12.5904C10.7508 12.3181 10.4931 12.1343 10.2207 12.1799L10.3859 13.1661ZM10.2207 12.1799C9.41471 12.3149 8.65186 11.7709 8.51687 10.9649L7.53061 11.13C7.75683 12.4808 9.03519 13.3923 10.3859 13.1661L10.2207 12.1799ZM8.51687 10.9649C8.38188 10.1588 8.92586 9.39598 9.73189 9.26099L9.56671 8.27473C8.21598 8.50094 7.30439 9.77931 7.53061 11.13L8.51687 10.9649ZM9.73189 9.26099C10.5379 9.126 11.3008 9.66998 11.4357 10.476L12.422 10.3108C12.1958 8.9601 10.9174 8.04851 9.56671 8.27473L9.73189 9.26099ZM11.4357 10.476C11.4368 10.4824 11.4453 10.5325 11.4534 10.5807C11.4575 10.6052 11.4616 10.6295 11.4647 10.6483C11.4685 10.671 11.4697 10.6782 11.4692 10.6754L12.4585 10.529C12.4557 10.5101 12.423 10.3165 12.422 10.3108L11.4357 10.476Z" fill="#939393"/>
<path d="M10.4613 10.4613L11.9638 10.6018L12.9053 9.18488" stroke="#939393" stroke-miterlimit="10" stroke-linecap="round" stroke-linejoin="round"/>
</g>
<defs>
<clipPath id="clip0_3432_98741">
<rect width="14" height="14" fill="white"/>
</clipPath>
</defs>
</svg>
