<svg width="20" height="20" viewBox="0 0 20 20" fill="none" xmlns="http://www.w3.org/2000/svg">
<path d="M7.65625 8.99156C7.65625 9.63722 7.90318 10.2564 8.34272 10.713C8.78226 11.1695 9.3784 11.426 10 11.426C10.6216 11.426 11.2177 11.1695 11.6573 10.713C12.0968 10.2564 12.3437 9.63722 12.3437 8.99156C12.3437 8.34591 12.0968 7.7267 11.6573 7.27016C11.2177 6.81361 10.6216 6.55713 10 6.55713C9.3784 6.55713 8.78226 6.81361 8.34272 7.27016C7.90318 7.7267 7.65625 8.34591 7.65625 8.99156Z" stroke="#0D6EFD" stroke-width="1.2" stroke-linecap="round" stroke-linejoin="round"/>
<path d="M14.4195 13.5821L11.1047 17.0252C10.8117 17.3292 10.4145 17.5 10.0004 17.5C9.58626 17.5 9.18907 17.3292 8.89609 17.0252L5.58047 13.5821C4.70643 12.6742 4.1112 11.5175 3.87007 10.2582C3.62894 8.99891 3.75273 7.69364 4.22579 6.50744C4.69884 5.32123 5.49992 4.30736 6.52772 3.59405C7.55552 2.88073 8.76388 2.5 10 2.5C11.2361 2.5 12.4445 2.88073 13.4723 3.59405C14.5001 4.30736 15.3012 5.32123 15.7742 6.50744C16.2473 7.69364 16.3711 8.99891 16.1299 10.2582C15.8888 11.5175 15.2936 12.6742 14.4195 13.5821Z" stroke="#0D6EFD" stroke-width="1.2" stroke-linecap="round" stroke-linejoin="round"/>
</svg>
