<svg width="22" height="22" viewBox="0 0 22 22" fill="none" xmlns="http://www.w3.org/2000/svg">
<rect width="22" height="22" rx="11" fill="#0D6EFD"/>
<path d="M5.75 7.24988H6.5C6.89782 7.24988 7.27936 7.09184 7.56066 6.81054C7.84196 6.52923 8 6.1477 8 5.74988C8 5.55097 8.07902 5.3602 8.21967 5.21955C8.36032 5.0789 8.55109 4.99988 8.75 4.99988H13.25C13.4489 4.99988 13.6397 5.0789 13.7803 5.21955C13.921 5.3602 14 5.55097 14 5.74988C14 6.1477 14.158 6.52923 14.4393 6.81054C14.7206 7.09184 15.1022 7.24988 15.5 7.24988H16.25C16.6478 7.24988 17.0294 7.40791 17.3107 7.68922C17.592 7.97052 17.75 8.35205 17.75 8.74988V15.4999C17.75 15.8977 17.592 16.2792 17.3107 16.5605C17.0294 16.8418 16.6478 16.9999 16.25 16.9999H5.75C5.35218 16.9999 4.97064 16.8418 4.68934 16.5605C4.40804 16.2792 4.25 15.8977 4.25 15.4999V8.74988C4.25 8.35205 4.40804 7.97052 4.68934 7.68922C4.97064 7.40791 5.35218 7.24988 5.75 7.24988Z" stroke="white" stroke-linecap="round" stroke-linejoin="round"/>
<path d="M8.75 11.7499C8.75 12.3466 8.98705 12.9189 9.40901 13.3409C9.83097 13.7628 10.4033 13.9999 11 13.9999C11.5967 13.9999 12.169 13.7628 12.591 13.3409C13.0129 12.9189 13.25 12.3466 13.25 11.7499C13.25 11.1531 13.0129 10.5808 12.591 10.1589C12.169 9.73693 11.5967 9.49988 11 9.49988C10.4033 9.49988 9.83097 9.73693 9.40901 10.1589C8.98705 10.5808 8.75 11.1531 8.75 11.7499Z" stroke="white" stroke-linecap="round" stroke-linejoin="round"/>
</svg>
