<svg width="14" height="14" viewBox="0 0 14 14" fill="none" xmlns="http://www.w3.org/2000/svg">
<g clip-path="url(#clip0_3432_98821)">
<path d="M1 7C1 7.78793 1.15519 8.56815 1.45672 9.2961C1.75825 10.0241 2.20021 10.6855 2.75736 11.2426C3.31451 11.7998 3.97595 12.2417 4.7039 12.5433C5.43185 12.8448 6.21207 13 7 13C7.78793 13 8.56815 12.8448 9.2961 12.5433C10.0241 12.2417 10.6855 11.7998 11.2426 11.2426C11.7998 10.6855 12.2417 10.0241 12.5433 9.2961C12.8448 8.56815 13 7.78793 13 7C13 6.21207 12.8448 5.43185 12.5433 4.7039C12.2417 3.97595 11.7998 3.31451 11.2426 2.75736C10.6855 2.20021 10.0241 1.75825 9.2961 1.45672C8.56815 1.15519 7.78793 1 7 1C6.21207 1 5.43185 1.15519 4.7039 1.45672C3.97595 1.75825 3.31451 2.20021 2.75736 2.75736C2.20021 3.31451 1.75825 3.97595 1.45672 4.7039C1.15519 5.43185 1 6.21207 1 7Z" stroke="#939393" stroke-linecap="round" stroke-linejoin="round"/>
<path d="M4.99928 5.66653C4.99928 6.19697 5.21 6.70568 5.58507 7.08075C5.96014 7.45582 6.46885 7.66653 6.99928 7.66653C7.52972 7.66653 8.03842 7.45582 8.4135 7.08075C8.78857 6.70568 8.99928 6.19697 8.99928 5.66653C8.99928 5.1361 8.78857 4.62739 8.4135 4.25232C8.03842 3.87725 7.52972 3.66653 6.99928 3.66653C6.46885 3.66653 5.96014 3.87725 5.58507 4.25232C5.21 4.62739 4.99928 5.1361 4.99928 5.66653Z" stroke="#939393" stroke-linecap="round" stroke-linejoin="round"/>
<path d="M3.11151 11.5659C3.27652 11.0167 3.61416 10.5353 4.07434 10.1932C4.53453 9.85105 5.09274 9.66637 5.66618 9.66653H8.33284C8.90702 9.66634 9.46592 9.85147 9.92644 10.1944C10.387 10.5373 10.7245 11.0197 10.8888 11.5699" stroke="#939393" stroke-linecap="round" stroke-linejoin="round"/>
</g>
<defs>
<clipPath id="clip0_3432_98821">
<rect width="14" height="14" fill="white"/>
</clipPath>
</defs>
</svg>
