<svg width="20" height="20" viewBox="0 0 20 20" fill="none" xmlns="http://www.w3.org/2000/svg">
<path d="M2.5 5.41667C2.5 4.97464 2.67559 4.55072 2.98816 4.23816C3.30072 3.92559 3.72464 3.75 4.16667 3.75H15.8333C16.2754 3.75 16.6993 3.92559 17.0118 4.23816C17.3244 4.55072 17.5 4.97464 17.5 5.41667V13.75C17.5 14.192 17.3244 14.6159 17.0118 14.9285C16.6993 15.2411 16.2754 15.4167 15.8333 15.4167H4.16667C3.72464 15.4167 3.30072 15.2411 2.98816 14.9285C2.67559 14.6159 2.5 14.192 2.5 13.75V5.41667Z" stroke="#0D6EFD" stroke-width="1.2" stroke-linecap="round" stroke-linejoin="round"/>
<path d="M2.5 5.41663L10 10.4166L17.5 5.41663" stroke="#0D6EFD" stroke-width="1.2" stroke-linecap="round" stroke-linejoin="round"/>
</svg>
