<svg width="5" height="9" viewBox="0 0 5 9" fill="none" xmlns="http://www.w3.org/2000/svg">
<g id="Vector">
<path d="M3.24257 8.16801C3.05888 8.18514 2.87445 8.14369 2.71575 8.04956C2.59979 7.93052 2.5442 7.76526 2.56466 7.60034C2.56894 7.46305 2.58533 7.32639 2.61366 7.19197C2.64107 7.03777 2.67648 6.8851 2.71982 6.73458L3.20171 5.07653C3.25141 4.91288 3.28426 4.74456 3.29974 4.57421C3.29974 4.39045 3.32423 4.26383 3.32423 4.19034C3.33448 3.86279 3.19463 3.54848 2.94443 3.33682C2.63668 3.10056 2.25344 2.98443 1.8663 3.01012C1.58887 3.01429 1.31358 3.05971 1.04953 3.14488C0.760938 3.23473 0.457363 3.34226 0.138838 3.46751L0 4.00658C0.0939152 3.97391 0.208291 3.93716 0.338951 3.89631C0.46361 3.85939 0.592831 3.84012 0.722824 3.83914C0.90518 3.81938 1.08873 3.86416 1.24146 3.96573C1.34521 4.08951 1.39388 4.25032 1.37623 4.41088C1.37577 4.54821 1.36072 4.68511 1.33131 4.81925C1.3027 4.96219 1.26596 5.11328 1.22104 5.27254L0.735072 6.93873C0.695906 7.0936 0.664566 7.25034 0.641158 7.40837C0.622066 7.54366 0.61252 7.68012 0.612555 7.81674C0.610554 8.14653 0.761359 8.45867 1.02092 8.66208C1.33341 8.90203 1.72213 9.02097 2.11537 8.99696C2.39227 9.00265 2.66823 8.96264 2.93215 8.87852C3.16357 8.79955 3.47258 8.68658 3.85919 8.53957L3.98989 8.025C3.88516 8.06845 3.77731 8.10393 3.66725 8.13116C3.52807 8.16296 3.38516 8.17531 3.24257 8.16801Z" fill="#939393"/>
<path d="M3.75303 0.306652C3.53077 0.102537 3.23793 -0.00727624 2.93625 0.000374542C2.63475 -0.00643396 2.34219 0.103274 2.11948 0.306652C1.71125 0.658658 1.66566 1.27497 2.0177 1.68323C2.04908 1.71963 2.08309 1.75363 2.11948 1.78501C2.58456 2.20099 3.28794 2.20099 3.75299 1.78501C4.16122 1.42953 4.204 0.810445 3.84852 0.402216C3.81897 0.368209 3.78704 0.336272 3.75303 0.306652Z" fill="#939393"/>
</g>
</svg>
