<svg width="104" height="16" viewBox="0 0 104 16" fill="none" xmlns="http://www.w3.org/2000/svg">
<g clip-path="url(#clip0_2656_57498)">
<path d="M8.58872 0.72535L10.705 5.0134L15.4372 5.70102C15.9757 5.77924 16.1907 6.44102 15.801 6.82086L12.3768 10.1586L13.1851 14.8716C13.2771 15.4079 12.7142 15.8169 12.2326 15.5637L7.99997 13.3385L3.76743 15.5637C3.28581 15.8169 2.72287 15.4079 2.81487 14.8716L3.62321 10.1586L0.198974 6.82083C-0.190681 6.44098 0.0243495 5.77927 0.562847 5.70099L5.29498 5.01336L7.41126 0.72535C7.6521 0.237383 8.34788 0.237383 8.58872 0.72535Z" fill="url(#paint0_linear_2656_57498)"/>
<path d="M10.705 5.01339L8.58872 0.725342C8.46831 0.481374 8.23416 0.359375 8 0.359375V8.47775L10.705 5.01339Z" fill="url(#paint1_linear_2656_57498)"/>
<path d="M12.3768 10.158L15.801 6.82022C15.9932 6.63284 16.0381 6.37694 15.9697 6.15625L8 8.47715L12.3768 10.158Z" fill="url(#paint2_linear_2656_57498)"/>
<path d="M12.9259 15.513L8 8.47852V13.3393L12.2325 15.5645C12.4742 15.6915 12.7363 15.6518 12.9259 15.513Z" fill="url(#paint3_linear_2656_57498)"/>
<path d="M8 8.47852L3.6232 10.1594L2.81489 14.8724C2.76905 15.1396 2.88586 15.3751 3.07408 15.513L8 8.47852Z" fill="url(#paint4_linear_2656_57498)"/>
<path d="M0.0302734 6.15717L7.99999 8.47803L5.295 5.01367L0.562865 5.70133C0.290022 5.74095 0.100461 5.93048 0.0302734 6.15717Z" fill="url(#paint5_linear_2656_57498)"/>
<path d="M3.62327 10.158L0.19903 6.82022C0.00681237 6.63284 -0.0380312 6.37694 0.0303123 6.15625L8.00003 8.47712L3.62327 10.158Z" fill="url(#paint6_linear_2656_57498)"/>
</g>
<g clip-path="url(#clip1_2656_57498)">
<path d="M30.5887 0.72535L32.705 5.0134L37.4372 5.70102C37.9757 5.77924 38.1907 6.44102 37.801 6.82086L34.3768 10.1586L35.1851 14.8716C35.2771 15.4079 34.7142 15.8169 34.2326 15.5637L30 13.3385L25.7674 15.5637C25.2858 15.8169 24.7229 15.4079 24.8149 14.8716L25.6232 10.1586L22.199 6.82083C21.8093 6.44098 22.0243 5.77927 22.5628 5.70099L27.295 5.01336L29.4113 0.72535C29.6521 0.237383 30.3479 0.237383 30.5887 0.72535Z" fill="url(#paint7_linear_2656_57498)"/>
<path d="M32.705 5.01339L30.5887 0.725342C30.4683 0.481374 30.2342 0.359375 30 0.359375V8.47775L32.705 5.01339Z" fill="url(#paint8_linear_2656_57498)"/>
<path d="M34.3768 10.158L37.801 6.82022C37.9932 6.63284 38.0381 6.37694 37.9697 6.15625L30 8.47715L34.3768 10.158Z" fill="url(#paint9_linear_2656_57498)"/>
<path d="M34.9259 15.513L30 8.47852V13.3393L34.2325 15.5645C34.4742 15.6915 34.7363 15.6518 34.9259 15.513Z" fill="url(#paint10_linear_2656_57498)"/>
<path d="M30 8.47852L25.6232 10.1594L24.8149 14.8724C24.7691 15.1396 24.8859 15.3751 25.0741 15.513L30 8.47852Z" fill="url(#paint11_linear_2656_57498)"/>
<path d="M22.0303 6.15717L30 8.47803L27.295 5.01367L22.5629 5.70133C22.29 5.74095 22.1005 5.93048 22.0303 6.15717Z" fill="url(#paint12_linear_2656_57498)"/>
<path d="M25.6233 10.158L22.199 6.82022C22.0068 6.63284 21.962 6.37694 22.0303 6.15625L30 8.47712L25.6233 10.158Z" fill="url(#paint13_linear_2656_57498)"/>
</g>
<g clip-path="url(#clip2_2656_57498)">
<path d="M52.5887 0.72535L54.705 5.0134L59.4372 5.70102C59.9757 5.77924 60.1907 6.44102 59.801 6.82086L56.3768 10.1586L57.1851 14.8716C57.2771 15.4079 56.7142 15.8169 56.2326 15.5637L52 13.3385L47.7674 15.5637C47.2858 15.8169 46.7229 15.4079 46.8149 14.8716L47.6232 10.1586L44.199 6.82083C43.8093 6.44098 44.0243 5.77927 44.5628 5.70099L49.295 5.01336L51.4113 0.72535C51.6521 0.237383 52.3479 0.237383 52.5887 0.72535Z" fill="url(#paint14_linear_2656_57498)"/>
<path d="M54.705 5.01339L52.5887 0.725342C52.4683 0.481374 52.2342 0.359375 52 0.359375V8.47775L54.705 5.01339Z" fill="url(#paint15_linear_2656_57498)"/>
<path d="M56.3768 10.158L59.801 6.82022C59.9932 6.63284 60.0381 6.37694 59.9697 6.15625L52 8.47715L56.3768 10.158Z" fill="url(#paint16_linear_2656_57498)"/>
<path d="M56.9259 15.513L52 8.47852V13.3393L56.2325 15.5645C56.4742 15.6915 56.7363 15.6518 56.9259 15.513Z" fill="url(#paint17_linear_2656_57498)"/>
<path d="M52 8.47852L47.6232 10.1594L46.8149 14.8724C46.7691 15.1396 46.8859 15.3751 47.0741 15.513L52 8.47852Z" fill="url(#paint18_linear_2656_57498)"/>
<path d="M44.0303 6.15717L52 8.47803L49.295 5.01367L44.5629 5.70133C44.29 5.74095 44.1005 5.93048 44.0303 6.15717Z" fill="url(#paint19_linear_2656_57498)"/>
<path d="M47.6233 10.158L44.199 6.82022C44.0068 6.63284 43.962 6.37694 44.0303 6.15625L52 8.47712L47.6233 10.158Z" fill="url(#paint20_linear_2656_57498)"/>
</g>
<g clip-path="url(#clip3_2656_57498)">
<path d="M74.5887 0.72535L76.705 5.0134L81.4372 5.70102C81.9757 5.77924 82.1907 6.44102 81.801 6.82086L78.3768 10.1586L79.1851 14.8716C79.2771 15.4079 78.7142 15.8169 78.2326 15.5637L74 13.3385L69.7674 15.5637C69.2858 15.8169 68.7229 15.4079 68.8149 14.8716L69.6232 10.1586L66.199 6.82083C65.8093 6.44098 66.0243 5.77927 66.5628 5.70099L71.295 5.01336L73.4113 0.72535C73.6521 0.237383 74.3479 0.237383 74.5887 0.72535Z" fill="url(#paint21_linear_2656_57498)"/>
<path d="M76.705 5.01339L74.5887 0.725342C74.4683 0.481374 74.2342 0.359375 74 0.359375V8.47775L76.705 5.01339Z" fill="url(#paint22_linear_2656_57498)"/>
<path d="M78.3768 10.158L81.801 6.82022C81.9932 6.63284 82.0381 6.37694 81.9697 6.15625L74 8.47715L78.3768 10.158Z" fill="url(#paint23_linear_2656_57498)"/>
<path d="M78.9259 15.513L74 8.47852V13.3393L78.2325 15.5645C78.4742 15.6915 78.7363 15.6518 78.9259 15.513Z" fill="url(#paint24_linear_2656_57498)"/>
<path d="M74 8.47852L69.6232 10.1594L68.8149 14.8724C68.7691 15.1396 68.8859 15.3751 69.0741 15.513L74 8.47852Z" fill="url(#paint25_linear_2656_57498)"/>
<path d="M66.0303 6.15717L74 8.47803L71.295 5.01367L66.5629 5.70133C66.29 5.74095 66.1005 5.93048 66.0303 6.15717Z" fill="url(#paint26_linear_2656_57498)"/>
<path d="M69.6233 10.158L66.199 6.82022C66.0068 6.63284 65.962 6.37694 66.0303 6.15625L74 8.47712L69.6233 10.158Z" fill="url(#paint27_linear_2656_57498)"/>
</g>
<g clip-path="url(#clip4_2656_57498)">
<path d="M96.5887 0.72535L98.705 5.0134L103.437 5.70102C103.976 5.77924 104.191 6.44102 103.801 6.82086L100.377 10.1586L101.185 14.8716C101.277 15.4079 100.714 15.8169 100.233 15.5637L96 13.3385L91.7674 15.5637C91.2858 15.8169 90.7229 15.4079 90.8149 14.8716L91.6232 10.1586L88.199 6.82083C87.8093 6.44098 88.0243 5.77927 88.5628 5.70099L93.295 5.01336L95.4113 0.72535C95.6521 0.237383 96.3479 0.237383 96.5887 0.72535Z" fill="url(#paint28_linear_2656_57498)"/>
<path d="M98.705 5.01339L96.5887 0.725342C96.4683 0.481374 96.2342 0.359375 96 0.359375V8.47775L98.705 5.01339Z" fill="url(#paint29_linear_2656_57498)"/>
<path d="M100.377 10.158L103.801 6.82022C103.993 6.63284 104.038 6.37694 103.97 6.15625L96 8.47715L100.377 10.158Z" fill="url(#paint30_linear_2656_57498)"/>
<path d="M100.926 15.513L96 8.47852V13.3393L100.233 15.5645C100.474 15.6915 100.736 15.6518 100.926 15.513Z" fill="url(#paint31_linear_2656_57498)"/>
<path d="M96 8.47852L91.6232 10.1594L90.8149 14.8724C90.7691 15.1396 90.8859 15.3751 91.0741 15.513L96 8.47852Z" fill="url(#paint32_linear_2656_57498)"/>
<path d="M88.0303 6.15717L96 8.47803L93.295 5.01367L88.5629 5.70133C88.29 5.74095 88.1005 5.93048 88.0303 6.15717Z" fill="url(#paint33_linear_2656_57498)"/>
<path d="M91.6233 10.158L88.199 6.82022C88.0068 6.63284 87.962 6.37694 88.0303 6.15625L96 8.47712L91.6233 10.158Z" fill="url(#paint34_linear_2656_57498)"/>
</g>
<defs>
<linearGradient id="paint0_linear_2656_57498" x1="8.00024" y1="2.14152" x2="8.00024" y2="19.7957" gradientUnits="userSpaceOnUse">
<stop stop-color="#FFCF95"/>
<stop offset="0.427" stop-color="#FFC954"/>
<stop offset="1" stop-color="#FFC200"/>
</linearGradient>
<linearGradient id="paint1_linear_2656_57498" x1="12.147" y1="4.41814" x2="6.8102" y2="4.41814" gradientUnits="userSpaceOnUse">
<stop stop-color="#FFC200" stop-opacity="0"/>
<stop offset="0.203" stop-color="#FFBB00" stop-opacity="0.203"/>
<stop offset="0.499" stop-color="#FFA700" stop-opacity="0.499"/>
<stop offset="0.852" stop-color="#FF8800" stop-opacity="0.852"/>
<stop offset="1" stop-color="#FF7800"/>
</linearGradient>
<linearGradient id="paint2_linear_2656_57498" x1="13.0587" y1="12.5942" x2="11.6453" y2="5.63404" gradientUnits="userSpaceOnUse">
<stop stop-color="#FFC200" stop-opacity="0"/>
<stop offset="0.203" stop-color="#FFBB00" stop-opacity="0.203"/>
<stop offset="0.499" stop-color="#FFA700" stop-opacity="0.499"/>
<stop offset="0.852" stop-color="#FF8800" stop-opacity="0.852"/>
<stop offset="1" stop-color="#FF7800"/>
</linearGradient>
<linearGradient id="paint3_linear_2656_57498" x1="6.20554" y1="16.2534" x2="11.741" y2="10.7179" gradientUnits="userSpaceOnUse">
<stop stop-color="#FFC200" stop-opacity="0"/>
<stop offset="0.203" stop-color="#FFBB00" stop-opacity="0.203"/>
<stop offset="0.499" stop-color="#FFA700" stop-opacity="0.499"/>
<stop offset="0.852" stop-color="#FF8800" stop-opacity="0.852"/>
<stop offset="1" stop-color="#FF7800"/>
</linearGradient>
<linearGradient id="paint4_linear_2656_57498" x1="2.25809" y1="9.25318" x2="6.3382" y2="12.6666" gradientUnits="userSpaceOnUse">
<stop stop-color="#FFC200" stop-opacity="0"/>
<stop offset="0.203" stop-color="#FFBB00" stop-opacity="0.203"/>
<stop offset="0.499" stop-color="#FFA700" stop-opacity="0.499"/>
<stop offset="0.852" stop-color="#FF8800" stop-opacity="0.852"/>
<stop offset="1" stop-color="#FF7800"/>
</linearGradient>
<linearGradient id="paint5_linear_2656_57498" x1="5.31669" y1="3.62215" x2="3.66331" y2="8.31561" gradientUnits="userSpaceOnUse">
<stop stop-color="#FFC200" stop-opacity="0"/>
<stop offset="0.203" stop-color="#FFBB00" stop-opacity="0.203"/>
<stop offset="0.499" stop-color="#FFA700" stop-opacity="0.499"/>
<stop offset="0.852" stop-color="#FF8800" stop-opacity="0.852"/>
<stop offset="1" stop-color="#FF7800"/>
</linearGradient>
<linearGradient id="paint6_linear_2656_57498" x1="11.5405" y1="4.11136" x2="-0.606546" y2="9.28484" gradientUnits="userSpaceOnUse">
<stop stop-color="#FFC200" stop-opacity="0"/>
<stop offset="0.203" stop-color="#FFBB00" stop-opacity="0.203"/>
<stop offset="0.499" stop-color="#FFA700" stop-opacity="0.499"/>
<stop offset="0.852" stop-color="#FF8800" stop-opacity="0.852"/>
<stop offset="1" stop-color="#FF7800"/>
</linearGradient>
<linearGradient id="paint7_linear_2656_57498" x1="30.0002" y1="2.14152" x2="30.0002" y2="19.7957" gradientUnits="userSpaceOnUse">
<stop stop-color="#FFCF95"/>
<stop offset="0.427" stop-color="#FFC954"/>
<stop offset="1" stop-color="#FFC200"/>
</linearGradient>
<linearGradient id="paint8_linear_2656_57498" x1="34.147" y1="4.41814" x2="28.8102" y2="4.41814" gradientUnits="userSpaceOnUse">
<stop stop-color="#FFC200" stop-opacity="0"/>
<stop offset="0.203" stop-color="#FFBB00" stop-opacity="0.203"/>
<stop offset="0.499" stop-color="#FFA700" stop-opacity="0.499"/>
<stop offset="0.852" stop-color="#FF8800" stop-opacity="0.852"/>
<stop offset="1" stop-color="#FF7800"/>
</linearGradient>
<linearGradient id="paint9_linear_2656_57498" x1="35.0587" y1="12.5942" x2="33.6453" y2="5.63404" gradientUnits="userSpaceOnUse">
<stop stop-color="#FFC200" stop-opacity="0"/>
<stop offset="0.203" stop-color="#FFBB00" stop-opacity="0.203"/>
<stop offset="0.499" stop-color="#FFA700" stop-opacity="0.499"/>
<stop offset="0.852" stop-color="#FF8800" stop-opacity="0.852"/>
<stop offset="1" stop-color="#FF7800"/>
</linearGradient>
<linearGradient id="paint10_linear_2656_57498" x1="28.2055" y1="16.2534" x2="33.741" y2="10.7179" gradientUnits="userSpaceOnUse">
<stop stop-color="#FFC200" stop-opacity="0"/>
<stop offset="0.203" stop-color="#FFBB00" stop-opacity="0.203"/>
<stop offset="0.499" stop-color="#FFA700" stop-opacity="0.499"/>
<stop offset="0.852" stop-color="#FF8800" stop-opacity="0.852"/>
<stop offset="1" stop-color="#FF7800"/>
</linearGradient>
<linearGradient id="paint11_linear_2656_57498" x1="24.2581" y1="9.25318" x2="28.3382" y2="12.6666" gradientUnits="userSpaceOnUse">
<stop stop-color="#FFC200" stop-opacity="0"/>
<stop offset="0.203" stop-color="#FFBB00" stop-opacity="0.203"/>
<stop offset="0.499" stop-color="#FFA700" stop-opacity="0.499"/>
<stop offset="0.852" stop-color="#FF8800" stop-opacity="0.852"/>
<stop offset="1" stop-color="#FF7800"/>
</linearGradient>
<linearGradient id="paint12_linear_2656_57498" x1="27.3167" y1="3.62215" x2="25.6633" y2="8.31561" gradientUnits="userSpaceOnUse">
<stop stop-color="#FFC200" stop-opacity="0"/>
<stop offset="0.203" stop-color="#FFBB00" stop-opacity="0.203"/>
<stop offset="0.499" stop-color="#FFA700" stop-opacity="0.499"/>
<stop offset="0.852" stop-color="#FF8800" stop-opacity="0.852"/>
<stop offset="1" stop-color="#FF7800"/>
</linearGradient>
<linearGradient id="paint13_linear_2656_57498" x1="33.5405" y1="4.11136" x2="21.3935" y2="9.28484" gradientUnits="userSpaceOnUse">
<stop stop-color="#FFC200" stop-opacity="0"/>
<stop offset="0.203" stop-color="#FFBB00" stop-opacity="0.203"/>
<stop offset="0.499" stop-color="#FFA700" stop-opacity="0.499"/>
<stop offset="0.852" stop-color="#FF8800" stop-opacity="0.852"/>
<stop offset="1" stop-color="#FF7800"/>
</linearGradient>
<linearGradient id="paint14_linear_2656_57498" x1="52.0002" y1="2.14152" x2="52.0002" y2="19.7957" gradientUnits="userSpaceOnUse">
<stop stop-color="#FFCF95"/>
<stop offset="0.427" stop-color="#FFC954"/>
<stop offset="1" stop-color="#FFC200"/>
</linearGradient>
<linearGradient id="paint15_linear_2656_57498" x1="56.147" y1="4.41814" x2="50.8102" y2="4.41814" gradientUnits="userSpaceOnUse">
<stop stop-color="#FFC200" stop-opacity="0"/>
<stop offset="0.203" stop-color="#FFBB00" stop-opacity="0.203"/>
<stop offset="0.499" stop-color="#FFA700" stop-opacity="0.499"/>
<stop offset="0.852" stop-color="#FF8800" stop-opacity="0.852"/>
<stop offset="1" stop-color="#FF7800"/>
</linearGradient>
<linearGradient id="paint16_linear_2656_57498" x1="57.0587" y1="12.5942" x2="55.6453" y2="5.63404" gradientUnits="userSpaceOnUse">
<stop stop-color="#FFC200" stop-opacity="0"/>
<stop offset="0.203" stop-color="#FFBB00" stop-opacity="0.203"/>
<stop offset="0.499" stop-color="#FFA700" stop-opacity="0.499"/>
<stop offset="0.852" stop-color="#FF8800" stop-opacity="0.852"/>
<stop offset="1" stop-color="#FF7800"/>
</linearGradient>
<linearGradient id="paint17_linear_2656_57498" x1="50.2055" y1="16.2534" x2="55.741" y2="10.7179" gradientUnits="userSpaceOnUse">
<stop stop-color="#FFC200" stop-opacity="0"/>
<stop offset="0.203" stop-color="#FFBB00" stop-opacity="0.203"/>
<stop offset="0.499" stop-color="#FFA700" stop-opacity="0.499"/>
<stop offset="0.852" stop-color="#FF8800" stop-opacity="0.852"/>
<stop offset="1" stop-color="#FF7800"/>
</linearGradient>
<linearGradient id="paint18_linear_2656_57498" x1="46.2581" y1="9.25318" x2="50.3382" y2="12.6666" gradientUnits="userSpaceOnUse">
<stop stop-color="#FFC200" stop-opacity="0"/>
<stop offset="0.203" stop-color="#FFBB00" stop-opacity="0.203"/>
<stop offset="0.499" stop-color="#FFA700" stop-opacity="0.499"/>
<stop offset="0.852" stop-color="#FF8800" stop-opacity="0.852"/>
<stop offset="1" stop-color="#FF7800"/>
</linearGradient>
<linearGradient id="paint19_linear_2656_57498" x1="49.3167" y1="3.62215" x2="47.6633" y2="8.31561" gradientUnits="userSpaceOnUse">
<stop stop-color="#FFC200" stop-opacity="0"/>
<stop offset="0.203" stop-color="#FFBB00" stop-opacity="0.203"/>
<stop offset="0.499" stop-color="#FFA700" stop-opacity="0.499"/>
<stop offset="0.852" stop-color="#FF8800" stop-opacity="0.852"/>
<stop offset="1" stop-color="#FF7800"/>
</linearGradient>
<linearGradient id="paint20_linear_2656_57498" x1="55.5405" y1="4.11136" x2="43.3935" y2="9.28484" gradientUnits="userSpaceOnUse">
<stop stop-color="#FFC200" stop-opacity="0"/>
<stop offset="0.203" stop-color="#FFBB00" stop-opacity="0.203"/>
<stop offset="0.499" stop-color="#FFA700" stop-opacity="0.499"/>
<stop offset="0.852" stop-color="#FF8800" stop-opacity="0.852"/>
<stop offset="1" stop-color="#FF7800"/>
</linearGradient>
<linearGradient id="paint21_linear_2656_57498" x1="74.0002" y1="2.14152" x2="74.0002" y2="19.7957" gradientUnits="userSpaceOnUse">
<stop stop-color="#FFCF95"/>
<stop offset="0.427" stop-color="#FFC954"/>
<stop offset="1" stop-color="#FFC200"/>
</linearGradient>
<linearGradient id="paint22_linear_2656_57498" x1="78.147" y1="4.41814" x2="72.8102" y2="4.41814" gradientUnits="userSpaceOnUse">
<stop stop-color="#FFC200" stop-opacity="0"/>
<stop offset="0.203" stop-color="#FFBB00" stop-opacity="0.203"/>
<stop offset="0.499" stop-color="#FFA700" stop-opacity="0.499"/>
<stop offset="0.852" stop-color="#FF8800" stop-opacity="0.852"/>
<stop offset="1" stop-color="#FF7800"/>
</linearGradient>
<linearGradient id="paint23_linear_2656_57498" x1="79.0587" y1="12.5942" x2="77.6453" y2="5.63404" gradientUnits="userSpaceOnUse">
<stop stop-color="#FFC200" stop-opacity="0"/>
<stop offset="0.203" stop-color="#FFBB00" stop-opacity="0.203"/>
<stop offset="0.499" stop-color="#FFA700" stop-opacity="0.499"/>
<stop offset="0.852" stop-color="#FF8800" stop-opacity="0.852"/>
<stop offset="1" stop-color="#FF7800"/>
</linearGradient>
<linearGradient id="paint24_linear_2656_57498" x1="72.2055" y1="16.2534" x2="77.741" y2="10.7179" gradientUnits="userSpaceOnUse">
<stop stop-color="#FFC200" stop-opacity="0"/>
<stop offset="0.203" stop-color="#FFBB00" stop-opacity="0.203"/>
<stop offset="0.499" stop-color="#FFA700" stop-opacity="0.499"/>
<stop offset="0.852" stop-color="#FF8800" stop-opacity="0.852"/>
<stop offset="1" stop-color="#FF7800"/>
</linearGradient>
<linearGradient id="paint25_linear_2656_57498" x1="68.2581" y1="9.25318" x2="72.3382" y2="12.6666" gradientUnits="userSpaceOnUse">
<stop stop-color="#FFC200" stop-opacity="0"/>
<stop offset="0.203" stop-color="#FFBB00" stop-opacity="0.203"/>
<stop offset="0.499" stop-color="#FFA700" stop-opacity="0.499"/>
<stop offset="0.852" stop-color="#FF8800" stop-opacity="0.852"/>
<stop offset="1" stop-color="#FF7800"/>
</linearGradient>
<linearGradient id="paint26_linear_2656_57498" x1="71.3167" y1="3.62215" x2="69.6633" y2="8.31561" gradientUnits="userSpaceOnUse">
<stop stop-color="#FFC200" stop-opacity="0"/>
<stop offset="0.203" stop-color="#FFBB00" stop-opacity="0.203"/>
<stop offset="0.499" stop-color="#FFA700" stop-opacity="0.499"/>
<stop offset="0.852" stop-color="#FF8800" stop-opacity="0.852"/>
<stop offset="1" stop-color="#FF7800"/>
</linearGradient>
<linearGradient id="paint27_linear_2656_57498" x1="77.5405" y1="4.11136" x2="65.3935" y2="9.28484" gradientUnits="userSpaceOnUse">
<stop stop-color="#FFC200" stop-opacity="0"/>
<stop offset="0.203" stop-color="#FFBB00" stop-opacity="0.203"/>
<stop offset="0.499" stop-color="#FFA700" stop-opacity="0.499"/>
<stop offset="0.852" stop-color="#FF8800" stop-opacity="0.852"/>
<stop offset="1" stop-color="#FF7800"/>
</linearGradient>
<linearGradient id="paint28_linear_2656_57498" x1="96.0002" y1="2.14152" x2="96.0002" y2="19.7957" gradientUnits="userSpaceOnUse">
<stop stop-color="#FFCF95"/>
<stop offset="0.427" stop-color="#FFC954"/>
<stop offset="1" stop-color="#FFC200"/>
</linearGradient>
<linearGradient id="paint29_linear_2656_57498" x1="100.147" y1="4.41814" x2="94.8102" y2="4.41814" gradientUnits="userSpaceOnUse">
<stop stop-color="#FFC200" stop-opacity="0"/>
<stop offset="0.203" stop-color="#FFBB00" stop-opacity="0.203"/>
<stop offset="0.499" stop-color="#FFA700" stop-opacity="0.499"/>
<stop offset="0.852" stop-color="#FF8800" stop-opacity="0.852"/>
<stop offset="1" stop-color="#FF7800"/>
</linearGradient>
<linearGradient id="paint30_linear_2656_57498" x1="101.059" y1="12.5942" x2="99.6453" y2="5.63404" gradientUnits="userSpaceOnUse">
<stop stop-color="#FFC200" stop-opacity="0"/>
<stop offset="0.203" stop-color="#FFBB00" stop-opacity="0.203"/>
<stop offset="0.499" stop-color="#FFA700" stop-opacity="0.499"/>
<stop offset="0.852" stop-color="#FF8800" stop-opacity="0.852"/>
<stop offset="1" stop-color="#FF7800"/>
</linearGradient>
<linearGradient id="paint31_linear_2656_57498" x1="94.2055" y1="16.2534" x2="99.741" y2="10.7179" gradientUnits="userSpaceOnUse">
<stop stop-color="#FFC200" stop-opacity="0"/>
<stop offset="0.203" stop-color="#FFBB00" stop-opacity="0.203"/>
<stop offset="0.499" stop-color="#FFA700" stop-opacity="0.499"/>
<stop offset="0.852" stop-color="#FF8800" stop-opacity="0.852"/>
<stop offset="1" stop-color="#FF7800"/>
</linearGradient>
<linearGradient id="paint32_linear_2656_57498" x1="90.2581" y1="9.25318" x2="94.3382" y2="12.6666" gradientUnits="userSpaceOnUse">
<stop stop-color="#FFC200" stop-opacity="0"/>
<stop offset="0.203" stop-color="#FFBB00" stop-opacity="0.203"/>
<stop offset="0.499" stop-color="#FFA700" stop-opacity="0.499"/>
<stop offset="0.852" stop-color="#FF8800" stop-opacity="0.852"/>
<stop offset="1" stop-color="#FF7800"/>
</linearGradient>
<linearGradient id="paint33_linear_2656_57498" x1="93.3167" y1="3.62215" x2="91.6633" y2="8.31561" gradientUnits="userSpaceOnUse">
<stop stop-color="#FFC200" stop-opacity="0"/>
<stop offset="0.203" stop-color="#FFBB00" stop-opacity="0.203"/>
<stop offset="0.499" stop-color="#FFA700" stop-opacity="0.499"/>
<stop offset="0.852" stop-color="#FF8800" stop-opacity="0.852"/>
<stop offset="1" stop-color="#FF7800"/>
</linearGradient>
<linearGradient id="paint34_linear_2656_57498" x1="99.5405" y1="4.11136" x2="87.3935" y2="9.28484" gradientUnits="userSpaceOnUse">
<stop stop-color="#FFC200" stop-opacity="0"/>
<stop offset="0.203" stop-color="#FFBB00" stop-opacity="0.203"/>
<stop offset="0.499" stop-color="#FFA700" stop-opacity="0.499"/>
<stop offset="0.852" stop-color="#FF8800" stop-opacity="0.852"/>
<stop offset="1" stop-color="#FF7800"/>
</linearGradient>
<clipPath id="clip0_2656_57498">
<rect width="16" height="16" fill="white"/>
</clipPath>
<clipPath id="clip1_2656_57498">
<rect width="16" height="16" fill="white" transform="translate(22)"/>
</clipPath>
<clipPath id="clip2_2656_57498">
<rect width="16" height="16" fill="white" transform="translate(44)"/>
</clipPath>
<clipPath id="clip3_2656_57498">
<rect width="16" height="16" fill="white" transform="translate(66)"/>
</clipPath>
<clipPath id="clip4_2656_57498">
<rect width="16" height="16" fill="white" transform="translate(88)"/>
</clipPath>
</defs>
</svg>
