<svg width="104" height="16" viewBox="0 0 104 16" fill="none" xmlns="http://www.w3.org/2000/svg">
<g clip-path="url(#clip0_2656_57386)">
<path d="M8.58872 0.72535L10.705 5.0134L15.4372 5.70102C15.9757 5.77924 16.1907 6.44102 15.801 6.82086L12.3768 10.1586L13.1851 14.8716C13.2771 15.4079 12.7142 15.8169 12.2326 15.5637L7.99997 13.3385L3.76743 15.5637C3.28581 15.8169 2.72287 15.4079 2.81487 14.8716L3.62321 10.1586L0.198974 6.82083C-0.190681 6.44098 0.0243495 5.77927 0.562847 5.70099L5.29498 5.01336L7.41126 0.72535C7.6521 0.237383 8.34788 0.237383 8.58872 0.72535Z" fill="url(#paint0_linear_2656_57386)"/>
<path d="M10.705 5.01339L8.58872 0.725342C8.46831 0.481374 8.23416 0.359375 8 0.359375V8.47775L10.705 5.01339Z" fill="url(#paint1_linear_2656_57386)"/>
<path d="M12.3768 10.158L15.801 6.82022C15.9932 6.63284 16.0381 6.37694 15.9697 6.15625L8 8.47715L12.3768 10.158Z" fill="url(#paint2_linear_2656_57386)"/>
<path d="M12.9259 15.513L8 8.47852V13.3393L12.2325 15.5645C12.4742 15.6915 12.7363 15.6518 12.9259 15.513Z" fill="url(#paint3_linear_2656_57386)"/>
<path d="M8 8.47852L3.6232 10.1594L2.81489 14.8724C2.76905 15.1396 2.88586 15.3751 3.07408 15.513L8 8.47852Z" fill="url(#paint4_linear_2656_57386)"/>
<path d="M0.0302734 6.15717L7.99999 8.47803L5.295 5.01367L0.562865 5.70133C0.290022 5.74095 0.100461 5.93048 0.0302734 6.15717Z" fill="url(#paint5_linear_2656_57386)"/>
<path d="M3.62327 10.158L0.19903 6.82022C0.00681237 6.63284 -0.0380312 6.37694 0.0303123 6.15625L8.00003 8.47712L3.62327 10.158Z" fill="url(#paint6_linear_2656_57386)"/>
</g>
<g clip-path="url(#clip1_2656_57386)">
<path d="M30.5887 0.72535L32.705 5.0134L37.4372 5.70102C37.9757 5.77924 38.1907 6.44102 37.801 6.82086L34.3768 10.1586L35.1851 14.8716C35.2771 15.4079 34.7142 15.8169 34.2326 15.5637L30 13.3385L25.7674 15.5637C25.2858 15.8169 24.7229 15.4079 24.8149 14.8716L25.6232 10.1586L22.199 6.82083C21.8093 6.44098 22.0243 5.77927 22.5628 5.70099L27.295 5.01336L29.4113 0.72535C29.6521 0.237383 30.3479 0.237383 30.5887 0.72535Z" fill="#E5E5E5"/>
</g>
<g clip-path="url(#clip2_2656_57386)">
<path d="M52.5887 0.72535L54.705 5.0134L59.4372 5.70102C59.9757 5.77924 60.1907 6.44102 59.801 6.82086L56.3768 10.1586L57.1851 14.8716C57.2771 15.4079 56.7142 15.8169 56.2326 15.5637L52 13.3385L47.7674 15.5637C47.2858 15.8169 46.7229 15.4079 46.8149 14.8716L47.6232 10.1586L44.199 6.82083C43.8093 6.44098 44.0243 5.77927 44.5628 5.70099L49.295 5.01336L51.4113 0.72535C51.6521 0.237383 52.3479 0.237383 52.5887 0.72535Z" fill="#E5E5E5"/>
</g>
<g clip-path="url(#clip3_2656_57386)">
<path d="M74.5887 0.72535L76.705 5.0134L81.4372 5.70102C81.9757 5.77924 82.1907 6.44102 81.801 6.82086L78.3768 10.1586L79.1851 14.8716C79.2771 15.4079 78.7142 15.8169 78.2326 15.5637L74 13.3385L69.7674 15.5637C69.2858 15.8169 68.7229 15.4079 68.8149 14.8716L69.6232 10.1586L66.199 6.82083C65.8093 6.44098 66.0243 5.77927 66.5628 5.70099L71.295 5.01336L73.4113 0.72535C73.6521 0.237383 74.3479 0.237383 74.5887 0.72535Z" fill="#E5E5E5"/>
</g>
<g clip-path="url(#clip4_2656_57386)">
<path d="M96.5887 0.72535L98.705 5.0134L103.437 5.70102C103.976 5.77924 104.191 6.44102 103.801 6.82086L100.377 10.1586L101.185 14.8716C101.277 15.4079 100.714 15.8169 100.233 15.5637L96 13.3385L91.7674 15.5637C91.2858 15.8169 90.7229 15.4079 90.8149 14.8716L91.6232 10.1586L88.199 6.82083C87.8093 6.44098 88.0243 5.77927 88.5628 5.70099L93.295 5.01336L95.4113 0.72535C95.6521 0.237383 96.3479 0.237383 96.5887 0.72535Z" fill="#E5E5E5"/>
</g>
<defs>
<linearGradient id="paint0_linear_2656_57386" x1="8.00024" y1="2.14152" x2="8.00024" y2="19.7957" gradientUnits="userSpaceOnUse">
<stop stop-color="#FFCF95"/>
<stop offset="0.427" stop-color="#FFC954"/>
<stop offset="1" stop-color="#FFC200"/>
</linearGradient>
<linearGradient id="paint1_linear_2656_57386" x1="12.147" y1="4.41814" x2="6.8102" y2="4.41814" gradientUnits="userSpaceOnUse">
<stop stop-color="#FFC200" stop-opacity="0"/>
<stop offset="0.203" stop-color="#FFBB00" stop-opacity="0.203"/>
<stop offset="0.499" stop-color="#FFA700" stop-opacity="0.499"/>
<stop offset="0.852" stop-color="#FF8800" stop-opacity="0.852"/>
<stop offset="1" stop-color="#FF7800"/>
</linearGradient>
<linearGradient id="paint2_linear_2656_57386" x1="13.0587" y1="12.5942" x2="11.6453" y2="5.63404" gradientUnits="userSpaceOnUse">
<stop stop-color="#FFC200" stop-opacity="0"/>
<stop offset="0.203" stop-color="#FFBB00" stop-opacity="0.203"/>
<stop offset="0.499" stop-color="#FFA700" stop-opacity="0.499"/>
<stop offset="0.852" stop-color="#FF8800" stop-opacity="0.852"/>
<stop offset="1" stop-color="#FF7800"/>
</linearGradient>
<linearGradient id="paint3_linear_2656_57386" x1="6.20554" y1="16.2534" x2="11.741" y2="10.7179" gradientUnits="userSpaceOnUse">
<stop stop-color="#FFC200" stop-opacity="0"/>
<stop offset="0.203" stop-color="#FFBB00" stop-opacity="0.203"/>
<stop offset="0.499" stop-color="#FFA700" stop-opacity="0.499"/>
<stop offset="0.852" stop-color="#FF8800" stop-opacity="0.852"/>
<stop offset="1" stop-color="#FF7800"/>
</linearGradient>
<linearGradient id="paint4_linear_2656_57386" x1="2.25809" y1="9.25318" x2="6.3382" y2="12.6666" gradientUnits="userSpaceOnUse">
<stop stop-color="#FFC200" stop-opacity="0"/>
<stop offset="0.203" stop-color="#FFBB00" stop-opacity="0.203"/>
<stop offset="0.499" stop-color="#FFA700" stop-opacity="0.499"/>
<stop offset="0.852" stop-color="#FF8800" stop-opacity="0.852"/>
<stop offset="1" stop-color="#FF7800"/>
</linearGradient>
<linearGradient id="paint5_linear_2656_57386" x1="5.31669" y1="3.62215" x2="3.66331" y2="8.31561" gradientUnits="userSpaceOnUse">
<stop stop-color="#FFC200" stop-opacity="0"/>
<stop offset="0.203" stop-color="#FFBB00" stop-opacity="0.203"/>
<stop offset="0.499" stop-color="#FFA700" stop-opacity="0.499"/>
<stop offset="0.852" stop-color="#FF8800" stop-opacity="0.852"/>
<stop offset="1" stop-color="#FF7800"/>
</linearGradient>
<linearGradient id="paint6_linear_2656_57386" x1="11.5405" y1="4.11136" x2="-0.606546" y2="9.28484" gradientUnits="userSpaceOnUse">
<stop stop-color="#FFC200" stop-opacity="0"/>
<stop offset="0.203" stop-color="#FFBB00" stop-opacity="0.203"/>
<stop offset="0.499" stop-color="#FFA700" stop-opacity="0.499"/>
<stop offset="0.852" stop-color="#FF8800" stop-opacity="0.852"/>
<stop offset="1" stop-color="#FF7800"/>
</linearGradient>
<clipPath id="clip0_2656_57386">
<rect width="16" height="16" fill="white"/>
</clipPath>
<clipPath id="clip1_2656_57386">
<rect width="16" height="16" fill="white" transform="translate(22)"/>
</clipPath>
<clipPath id="clip2_2656_57386">
<rect width="16" height="16" fill="white" transform="translate(44)"/>
</clipPath>
<clipPath id="clip3_2656_57386">
<rect width="16" height="16" fill="white" transform="translate(66)"/>
</clipPath>
<clipPath id="clip4_2656_57386">
<rect width="16" height="16" fill="white" transform="translate(88)"/>
</clipPath>
</defs>
</svg>
