<svg width="18" height="18" viewBox="0 0 18 18" fill="none" xmlns="http://www.w3.org/2000/svg">
<g id="Frame 48096199">
<rect width="18" height="18" rx="9" fill="#FAFAFA"/>
<g id="Group 48095946">
<path id="Vector" d="M10.4418 3.43909C10.5837 2.85364 11.4163 2.85364 11.5582 3.43909C11.633 3.74758 11.9437 3.93718 12.2522 3.86242C12.3098 3.84846 12.3652 3.82549 12.4161 3.79442C12.9304 3.48097 13.5195 4.06958 13.206 4.58433C13.0408 4.85544 13.1268 5.20896 13.3979 5.37424C13.4483 5.40486 13.5033 5.42783 13.5609 5.44179C14.1464 5.58365 14.1464 6.41635 13.5609 6.55821C13.2524 6.63297 13.0628 6.94371 13.1376 7.2522C13.1515 7.30984 13.1745 7.36523 13.2056 7.41612C13.519 7.93042 12.9304 8.51948 12.4157 8.20603C12.1446 8.04076 11.791 8.12677 11.6258 8.39788C11.5951 8.44832 11.5722 8.50327 11.5582 8.56091C11.4163 9.14636 10.5837 9.14636 10.4418 8.56091C10.367 8.25242 10.0563 8.06282 9.7478 8.13758C9.69016 8.15154 9.63477 8.17451 9.58388 8.20558C9.06958 8.51903 8.48052 7.93042 8.79396 7.41567C8.95924 7.14456 8.87323 6.79104 8.60212 6.62576C8.55168 6.59514 8.49674 6.57217 8.43909 6.55821C7.85364 6.41635 7.85364 5.58365 8.43909 5.44179C8.74758 5.36703 8.93718 5.05629 8.86242 4.7478C8.84846 4.69016 8.82549 4.63477 8.79442 4.58388C8.48097 4.06958 9.06958 3.48052 9.58433 3.79397C9.91759 3.99662 10.3495 3.81738 10.4418 3.43909Z" stroke="#939393" stroke-width="0.8" stroke-linecap="round" stroke-linejoin="round"/>
<path id="Vector_2" d="M10 6C10 6.55225 10.4477 7 11 7C11.5523 7 12 6.55225 12 6C12 5.44775 11.5523 5 11 5C10.4477 5 10 5.44775 10 6Z" stroke="#939393" stroke-width="0.8" stroke-linecap="round" stroke-linejoin="round"/>
<path id="path3585" d="M9.50781 12.2093L11.6827 11.9688" stroke="#939393" stroke-width="0.8" stroke-linecap="round" stroke-linejoin="round"/>
<path id="path3593" d="M5.03226 12.6552L5.92755 14.0564C6.03689 14.2276 5.98677 14.4549 5.81576 14.5642L5.3691 14.8495C5.19785 14.9588 4.97059 14.9087 4.86126 14.7377L3.05788 11.9157C2.94855 11.7444 2.99867 11.5172 3.16967 11.4078L3.61634 11.1223C3.78759 11.013 4.01485 11.0631 4.12418 11.2341L4.53522 11.8773" stroke="#939393" stroke-width="0.8" stroke-linecap="round" stroke-linejoin="round"/>
<path id="path3597" d="M5.84835 13.9328L6.29452 13.4996C6.4412 13.3574 6.652 13.3031 6.84905 13.3566L8.46864 13.7979C8.6475 13.8591 8.83693 13.8765 9.02292 13.849L12.1864 13.3797C12.3835 13.3505 12.5707 13.2714 12.7321 13.1495L14.8581 11.5417C15.0266 11.369 15.047 11.0904 14.9052 10.8911C14.7502 10.6732 14.4576 10.627 14.2507 10.7882L12.8682 11.5963C12.5041 11.809 12.1004 11.9363 11.6847 11.9697L11.6894 11.6668C11.6385 11.3037 11.3589 11.0228 11.0123 10.987L9.42118 10.8661C9.05363 10.828 8.86543 10.7074 8.53842 10.5253C8.21926 10.3477 7.63133 10.1408 7.31439 10.0612C6.7579 9.9214 6.16799 10.0256 5.68054 10.3283L4.15234 11.2779" stroke="#939393" stroke-width="0.8" stroke-linecap="round" stroke-linejoin="round"/>
</g>
</g>
</svg>
