<svg width="30" height="30" viewBox="0 0 30 30" fill="none" xmlns="http://www.w3.org/2000/svg">
<path d="M4.00003 13.0256C4.00003 19.8271 7.80226 23.8216 13.7755 26.7725C14.0945 26.9223 14.4426 27 14.795 27C15.1474 27 15.4955 26.9223 15.8145 26.7725C21.7877 23.8816 25.59 19.8031 25.59 13.0256V7.43563C25.593 6.83881 25.3734 6.2623 24.9742 5.81868C24.575 5.37506 24.0248 5.09619 23.431 5.03651C20.7795 4.80318 18.1768 4.18074 15.7066 3.18919C15.4189 3.06439 15.1086 3 14.795 3C14.4814 3 14.1711 3.06439 13.8834 3.18919C11.4139 4.18485 8.81113 4.81134 6.15902 5.04851C5.56525 5.10818 5.01503 5.38706 4.61581 5.83068C4.21659 6.2743 3.99704 6.85081 4.00003 7.44763V13.0256Z" fill="#DC3545"/>
<path d="M12.9288 18.9963C12.6159 18.9982 12.3146 18.8779 12.0893 18.6611L9.35477 15.9793C9.24235 15.8681 9.15313 15.7356 9.09224 15.5897C9.03135 15.4439 9 15.2874 9 15.1293C9 14.9713 9.03135 14.8148 9.09224 14.6689C9.15313 14.523 9.24235 14.3906 9.35477 14.2793C9.57948 14.0563 9.88346 13.9312 10.2003 13.9312C10.5172 13.9312 10.8211 14.0563 11.0459 14.2793L12.9408 16.135L17.8702 11.3461C18.0976 11.1223 18.4048 10.9978 18.7242 11C19.0436 11.0023 19.349 11.1311 19.5732 11.3581C19.7975 11.5851 19.9222 11.8918 19.92 12.2106C19.9177 12.5294 19.7887 12.8343 19.5613 13.0581L13.7924 18.721C13.5517 18.922 13.2417 19.0208 12.9288 18.9963Z" fill="white"/>
</svg>
