<svg width="30" height="30" viewBox="0 0 30 30" fill="none" xmlns="http://www.w3.org/2000/svg">
<path d="M4.00003 13.0256C4.00003 19.8271 7.80264 23.8216 13.7764 26.7725C14.0955 26.9223 14.4436 27 14.7961 27C15.1485 27 15.4967 26.9223 15.8157 26.7725C21.7895 23.8816 25.5921 19.8031 25.5921 13.0256V7.43563C25.5951 6.83881 25.3755 6.2623 24.9763 5.81868C24.577 5.37506 24.0267 5.09619 23.4329 5.03651C20.7811 4.80318 18.1782 4.18074 15.7077 3.18919C15.42 3.06439 15.1097 3 14.7961 3C14.4824 3 14.1721 3.06439 13.8844 3.18919C11.4146 4.18485 8.81161 4.81134 6.15924 5.04851C5.5654 5.10818 5.01513 5.38706 4.61587 5.83068C4.21661 6.2743 3.99704 6.85081 4.00003 7.44763V13.0256Z" fill="#28A745"/>
<path d="M12.9295 19.012C12.6165 19.0139 12.3152 18.8934 12.0898 18.6761L9.35483 15.9891C9.2424 15.8776 9.15315 15.7449 9.09225 15.5987C9.03135 15.4526 9 15.2958 9 15.1374C9 14.9791 9.03135 14.8223 9.09225 14.6761C9.15315 14.5299 9.2424 14.3973 9.35483 14.2857C9.57958 14.0623 9.88361 13.9369 10.2005 13.9369C10.5174 13.9369 10.8215 14.0623 11.0462 14.2857L12.9415 16.1451L17.8717 11.3468C18.0992 11.1225 18.4064 10.9978 18.7259 11C19.0453 11.0023 19.3508 11.1313 19.5751 11.3588C19.7994 11.5863 19.9241 11.8935 19.9219 12.213C19.9196 12.5324 19.7906 12.8379 19.5631 13.0622L13.7932 18.7361C13.5525 18.9375 13.2424 19.0366 12.9295 19.012Z" fill="white"/>
</svg>
