<svg width="18" height="18" viewBox="0 0 18 18" fill="none" xmlns="http://www.w3.org/2000/svg">
<g id="security level - Secure">
<g id="Flat Color">
<path id="Vector" d="M2.39846 7.81613C2.39846 11.897 4.68002 14.2938 8.26431 16.0643C8.45573 16.1542 8.66461 16.2008 8.87608 16.2008C9.08756 16.2008 9.29643 16.1542 9.48786 16.0643C13.0721 14.3297 15.3537 11.8826 15.3537 7.81613V4.46216C15.3555 4.10407 15.2238 3.75816 14.9842 3.49199C14.7446 3.22582 14.4145 3.05849 14.0582 3.02269C12.4671 2.88269 10.9053 2.50922 9.42308 1.9143C9.25044 1.83942 9.06426 1.80078 8.87608 1.80078C8.6879 1.80078 8.50172 1.83942 8.32908 1.9143C6.84719 2.51169 5.2854 2.88759 3.69398 3.02989C3.33768 3.06569 3.00751 3.23302 2.76796 3.49919C2.5284 3.76536 2.39666 4.11127 2.39846 4.46936V7.81613Z" fill="#28A745"/>
<path id="Vector_2" d="M7.75615 11.4088C7.56835 11.4099 7.38755 11.3376 7.25233 11.2072L5.61133 9.59503C5.54387 9.52812 5.49033 9.44852 5.45379 9.36081C5.41725 9.2731 5.39844 9.17903 5.39844 9.08402C5.39844 8.989 5.41725 8.89493 5.45379 8.80722C5.49033 8.71952 5.54387 8.63991 5.61133 8.573C5.74619 8.43895 5.9286 8.36371 6.11875 8.36371C6.30889 8.36371 6.49131 8.43895 6.62616 8.573L7.76335 9.6886L10.7215 6.80965C10.8579 6.67508 11.0423 6.60023 11.234 6.60158C11.4256 6.60293 11.6089 6.68036 11.7435 6.81685C11.8781 6.95333 11.9529 7.13768 11.9516 7.32935C11.9502 7.52102 11.8728 7.7043 11.7363 7.83887L8.27436 11.2432C8.12993 11.3641 7.94389 11.4235 7.75615 11.4088Z" fill="white"/>
</g>
</g>
</svg>
