<svg width="136" height="120" viewBox="0 0 136 120" fill="none" xmlns="http://www.w3.org/2000/svg">
<g clip-path="url(#clip0_1876_53535)">
<path d="M2.5 45.5L68 0L134 45.5406L69 73L42 62L2.5 45.5Z" fill="#E5E5E5"/>
<path d="M134.267 45.8904C134.219 45.8905 134.172 45.8758 134.132 45.8484L68.6789 0.678263C68.4797 0.541442 68.243 0.468322 68.0007 0.468732C67.7583 0.469141 67.5219 0.54306 67.3231 0.680553L2.3414 45.8479C2.29 45.8837 2.22639 45.8977 2.16455 45.8869C2.10272 45.8762 2.04772 45.8415 2.01167 45.7906C1.97562 45.7397 1.96146 45.6766 1.97231 45.6154C1.98317 45.5541 2.01814 45.4996 2.06954 45.4639L67.0513 0.296475C67.3296 0.104012 67.6606 0.000554795 67.9999 2.22507e-06C68.3392 -0.000550345 68.6706 0.101828 68.9494 0.293383L134.403 45.4634C134.444 45.492 134.475 45.5328 134.491 45.5801C134.508 45.6274 134.508 45.6786 134.493 45.7262C134.478 45.7738 134.448 45.8155 134.407 45.845C134.367 45.8745 134.318 45.8904 134.267 45.8904L134.267 45.8904Z" fill="#11295A"/>
<path d="M41.7899 107.07H11.1552C10.9671 107.07 10.7808 107.034 10.607 106.962C10.4331 106.891 10.2751 106.787 10.142 106.655C10.0089 106.523 9.90334 106.367 9.83129 106.195C9.75925 106.023 9.72217 105.838 9.72217 105.652C9.72217 105.465 9.75925 105.281 9.83129 105.108C9.90334 104.936 10.0089 104.78 10.142 104.648C10.2751 104.516 10.4331 104.412 10.607 104.341C10.7808 104.27 10.9671 104.233 11.1552 104.233H41.7899C41.978 104.233 42.1643 104.27 42.3382 104.341C42.512 104.412 42.67 104.516 42.8031 104.648C42.9362 104.78 43.0418 104.936 43.1138 105.108C43.1859 105.281 43.223 105.465 43.223 105.652C43.223 105.838 43.1859 106.023 43.1138 106.195C43.0418 106.367 42.9362 106.523 42.8031 106.655C42.67 106.787 42.512 106.891 42.3382 106.962C42.1643 107.034 41.978 107.07 41.7899 107.07Z" fill="#0D6EFD"/>
<path d="M22.1463 100.972H11.1552C10.9671 100.972 10.7808 100.936 10.607 100.865C10.4331 100.794 10.2751 100.689 10.142 100.557C10.0089 100.426 9.90334 100.269 9.83129 100.097C9.75925 99.9249 9.72217 99.7403 9.72217 99.5539C9.72217 99.3675 9.75925 99.183 9.83129 99.0108C9.90334 98.8386 10.0089 98.6822 10.142 98.5504C10.2751 98.4187 10.4331 98.3143 10.607 98.2431C10.7808 98.1719 10.9671 98.1354 11.1552 98.1357H22.1463C22.3344 98.1354 22.5207 98.1719 22.6945 98.2431C22.8684 98.3143 23.0264 98.4187 23.1595 98.5504C23.2926 98.6822 23.3982 98.8386 23.4702 99.0108C23.5423 99.183 23.5793 99.3675 23.5793 99.5539C23.5793 99.7403 23.5423 99.9249 23.4702 100.097C23.3982 100.269 23.2926 100.426 23.1595 100.557C23.0264 100.689 22.8684 100.794 22.6945 100.865C22.5207 100.936 22.3344 100.972 22.1463 100.972Z" fill="#0D6EFD"/>
<path d="M68.9369 72.8571C68.7041 72.8573 68.4734 72.8126 68.2579 72.7253L30.0142 57.0007V7.78025C30.0147 7.34501 30.1894 6.92774 30.5 6.61997C30.8105 6.31221 31.2316 6.13909 31.6709 6.13858H105.039C105.478 6.13909 105.899 6.31221 106.209 6.61997C106.52 6.92774 106.695 7.34501 106.695 7.78025V57.0351L106.623 57.0655L69.6365 72.7176C69.415 72.8098 69.1772 72.8573 68.9369 72.8571Z" fill="white"/>
<path d="M68.9371 72.9742C68.6888 72.9745 68.4428 72.9268 68.213 72.8338L29.896 57.079V7.78023C29.8965 7.3139 30.0837 6.86681 30.4165 6.53706C30.7492 6.20731 31.2004 6.02183 31.671 6.0213H105.039C105.509 6.02183 105.961 6.20731 106.293 6.53706C106.626 6.86681 106.813 7.3139 106.814 7.78023V57.1125L69.6831 72.8254C69.447 72.9238 69.1933 72.9744 68.9371 72.9742ZM30.3693 56.7657L68.3935 72.4002C68.7481 72.5428 69.1453 72.5404 69.4982 72.3936L106.34 56.8028V7.78023C106.34 7.43826 106.203 7.11041 105.959 6.86859C105.715 6.62678 105.384 6.49075 105.039 6.49035H31.671C31.3259 6.49075 30.9951 6.62678 30.7511 6.86859C30.507 7.11041 30.3698 7.43826 30.3693 7.78023L30.3693 56.7657Z" fill="#11295A"/>
<path d="M133.794 45.4214H133.747L106.577 56.9178L69.4033 72.6473C69.258 72.7078 69.1022 72.7394 68.9446 72.7402C68.787 72.741 68.6308 72.711 68.4849 72.652L30.1326 56.8849L2.29543 45.4402L2.2529 45.4214H2.20552C1.76629 45.4219 1.34518 45.595 1.0346 45.9028C0.724014 46.2105 0.549315 46.6278 0.548828 47.0631V118.358C0.549316 118.794 0.724014 119.211 1.0346 119.519C1.34518 119.826 1.76629 120 2.20552 120H133.794C134.233 120 134.654 119.826 134.965 119.519C135.276 119.211 135.45 118.794 135.451 118.358V47.0631C135.45 46.6278 135.276 46.2105 134.965 45.9028C134.654 45.595 134.233 45.4219 133.794 45.4214ZM134.977 118.358C134.977 118.669 134.853 118.967 134.631 119.187C134.409 119.407 134.108 119.531 133.794 119.531H2.20552C1.89171 119.531 1.5908 119.407 1.3689 119.187C1.14701 118.967 1.02229 118.669 1.02217 118.358V47.0631C1.0226 46.7598 1.1413 46.4685 1.35345 46.2499C1.56561 46.0314 1.8548 45.9026 2.16057 45.8904L30.1326 57.3915L68.3028 73.0858C68.716 73.2524 69.179 73.2499 69.5903 73.0788L106.577 57.4267L133.841 45.8904C134.147 45.9035 134.435 46.0327 134.647 46.2511C134.858 46.4695 134.977 46.7603 134.977 47.0631V118.358Z" fill="#11295A"/>
<path d="M68.555 58.9C67.1431 58.9026 65.7687 58.4502 64.6391 57.611L64.569 57.5589L49.8219 46.3703C49.1389 45.8518 48.5657 45.205 48.135 44.467C47.7042 43.7289 47.4244 42.914 47.3115 42.0688C47.1986 41.2235 47.2548 40.3646 47.4769 39.5409C47.699 38.7172 48.0827 37.9449 48.606 37.2681C49.1293 36.5913 49.782 36.0233 50.5268 35.5965C51.2716 35.1697 52.094 34.8924 52.9469 34.7805C53.7999 34.6686 54.6667 34.7243 55.498 34.9444C56.3292 35.1645 57.1086 35.5447 57.7915 36.0632L67.3436 43.3212L89.9167 14.1495C90.4402 13.4729 91.0931 12.9051 91.8381 12.4786C92.5831 12.052 93.4055 11.775 94.2585 11.6634C95.1115 11.5519 95.9784 11.6079 96.8095 11.8283C97.6407 12.0487 98.4199 12.4291 99.1027 12.9479L98.9623 13.1368L99.1063 12.9507C100.484 13.9996 101.385 15.5471 101.612 17.2536C101.839 18.9601 101.374 20.6862 100.319 22.0534L73.7675 56.3662C73.1534 57.1569 72.3638 57.7968 71.4598 58.2362C70.5558 58.6756 69.5618 58.9027 68.555 58.9Z" fill="#0D6EFD"/>
</g>
<defs>
<clipPath id="clip0_1876_53535">
<rect width="134.902" height="120" fill="white" transform="translate(0.548828)"/>
</clipPath>
</defs>
</svg>
