<svg width="21" height="20" viewBox="0 0 21 20" fill="none" xmlns="http://www.w3.org/2000/svg">
<g clip-path="url(#clip0_3211_82794)">
<path d="M10.4819 6.66569V9.99902L12.1486 11.6657M3.4401 12.4991C4.07237 14.23 5.31976 15.6675 6.94427 16.5375C8.56878 17.4074 10.4567 17.6488 12.2478 17.2156C14.039 16.7824 15.6079 15.705 16.6554 14.1889C17.7029 12.6728 18.1555 10.8241 17.9269 8.99552C17.6983 7.16698 16.8046 5.48658 15.4162 4.27494C14.0277 3.0633 12.2418 2.40522 10.3992 2.42627C8.55652 2.44732 6.78611 3.14601 5.42571 4.38905C4.64465 5.10274 4.03013 5.96719 3.61305 6.921M3.02344 16.6657V12.4991H7.1901" stroke="#0D6EFD" stroke-width="1.5" stroke-linecap="round" stroke-linejoin="round"/>
</g>
<defs>
<clipPath id="clip0_3211_82794">
<rect width="20" height="20" fill="white" transform="translate(0.481689)"/>
</clipPath>
</defs>
</svg>
