<svg width="21" height="20" viewBox="0 0 21 20" fill="none" xmlns="http://www.w3.org/2000/svg">
<rect x="0.0922852" width="20" height="20" rx="10" fill="#FAFAFA"/>
<path d="M7.62941 9.42852C7.50501 9.20467 7.30978 9.02846 7.0744 8.92756C6.83901 8.82666 6.57678 8.80678 6.32887 8.87104C6.08096 8.9353 5.8614 9.08007 5.70467 9.28261C5.54793 9.48515 5.46289 9.734 5.46289 9.99011C5.46289 10.2462 5.54793 10.4951 5.70467 10.6976C5.8614 10.9001 6.08096 11.0449 6.32887 11.1092C6.57678 11.1734 6.83901 11.1535 7.0744 11.0526C7.30978 10.9517 7.50501 10.7755 7.62941 10.5517M7.62941 9.42852C7.7219 9.59499 7.77482 9.78613 7.77482 9.99011C7.77482 10.1941 7.7219 10.3857 7.62941 10.5517M7.62941 9.42852L12.5444 6.6982M7.62941 10.5517L12.5444 13.282M12.5444 13.282C12.4707 13.4148 12.4238 13.5607 12.4064 13.7116C12.3891 13.8625 12.4017 14.0153 12.4434 14.1613C12.4851 14.3073 12.5552 14.4437 12.6496 14.5626C12.744 14.6816 12.861 14.7807 12.9937 14.8545C13.1265 14.9282 13.2725 14.9751 13.4233 14.9924C13.5742 15.0098 13.727 14.9972 13.873 14.9555C14.019 14.9138 14.1554 14.8437 14.2743 14.7493C14.3933 14.6548 14.4925 14.5379 14.5662 14.4052C14.7151 14.1371 14.7515 13.8208 14.6672 13.5259C14.5829 13.231 14.385 12.9816 14.1169 12.8327C13.8488 12.6838 13.5325 12.6474 13.2376 12.7317C12.9427 12.8159 12.6933 13.0139 12.5444 13.282V13.282ZM12.5444 6.6982C12.6165 6.83392 12.7149 6.9539 12.8338 7.05115C12.9528 7.14839 13.09 7.22094 13.2373 7.26455C13.3847 7.30816 13.5392 7.32196 13.692 7.30515C13.8447 7.28833 13.9925 7.24124 14.1269 7.16661C14.2612 7.09199 14.3793 6.99134 14.4743 6.87054C14.5692 6.74974 14.6392 6.61122 14.68 6.46308C14.7208 6.31494 14.7316 6.16015 14.7119 6.00776C14.6922 5.85537 14.6423 5.70844 14.5652 5.57555C14.4131 5.31369 14.1644 5.12194 13.8725 5.04152C13.5805 4.9611 13.2687 4.99843 13.004 5.14548C12.7393 5.29254 12.5429 5.53758 12.4569 5.82793C12.371 6.11828 12.4024 6.43076 12.5444 6.6982V6.6982Z" stroke="#939393" stroke-linecap="round" stroke-linejoin="round"/>
</svg>
