<svg width="42" height="42" viewBox="0 0 42 42" fill="none" xmlns="http://www.w3.org/2000/svg">
<mask id="path-1-inside-1_2053_105961" fill="white">
<path d="M17.9102 3.21874C19.5953 1.46333 22.4047 1.46333 24.0898 3.21874C25.138 4.31074 26.6858 4.76801 28.159 4.42026C30.5153 3.86405 32.8709 5.41118 33.3445 7.78543C33.6414 9.27358 34.7005 10.5188 36.1286 11.0319C38.4153 11.8534 39.5658 14.4259 38.6897 16.6923C38.1409 18.1119 38.3677 19.736 39.2924 20.9449C40.7747 22.8827 40.3822 25.6693 38.4139 27.1109C37.1876 28.0091 36.5205 29.505 36.6509 31.0195C36.8586 33.4334 35.0347 35.5838 32.6157 35.721C31.103 35.8068 29.7411 36.6946 29.0411 38.0382C27.9207 40.1888 25.2257 40.9982 23.1207 39.7943C21.8068 39.0428 20.1932 39.0428 18.8793 39.7943C16.7743 40.9982 14.0793 40.1888 12.9589 38.0382C12.2589 36.6946 10.897 35.8068 9.38432 35.721C6.96534 35.5838 5.14137 33.4334 5.34913 31.0195C5.47947 29.505 4.81243 28.0091 3.5861 27.1109C1.61776 25.6693 1.22525 22.8827 2.70757 20.9449C3.63228 19.736 3.8591 18.1119 3.31031 16.6923C2.43418 14.4259 3.58466 11.8534 5.87141 11.0319C7.29951 10.5188 8.35865 9.27358 8.65551 7.78543C9.12912 5.41118 11.4847 3.86406 13.841 4.42026C15.3142 4.76801 16.862 4.31074 17.9102 3.21874Z"/>
</mask>
<path d="M17.9102 3.21874C19.5953 1.46333 22.4047 1.46333 24.0898 3.21874C25.138 4.31074 26.6858 4.76801 28.159 4.42026C30.5153 3.86405 32.8709 5.41118 33.3445 7.78543C33.6414 9.27358 34.7005 10.5188 36.1286 11.0319C38.4153 11.8534 39.5658 14.4259 38.6897 16.6923C38.1409 18.1119 38.3677 19.736 39.2924 20.9449C40.7747 22.8827 40.3822 25.6693 38.4139 27.1109C37.1876 28.0091 36.5205 29.505 36.6509 31.0195C36.8586 33.4334 35.0347 35.5838 32.6157 35.721C31.103 35.8068 29.7411 36.6946 29.0411 38.0382C27.9207 40.1888 25.2257 40.9982 23.1207 39.7943C21.8068 39.0428 20.1932 39.0428 18.8793 39.7943C16.7743 40.9982 14.0793 40.1888 12.9589 38.0382C12.2589 36.6946 10.897 35.8068 9.38432 35.721C6.96534 35.5838 5.14137 33.4334 5.34913 31.0195C5.47947 29.505 4.81243 28.0091 3.5861 27.1109C1.61776 25.6693 1.22525 22.8827 2.70757 20.9449C3.63228 19.736 3.8591 18.1119 3.31031 16.6923C2.43418 14.4259 3.58466 11.8534 5.87141 11.0319C7.29951 10.5188 8.35865 9.27358 8.65551 7.78543C9.12912 5.41118 11.4847 3.86406 13.841 4.42026C15.3142 4.76801 16.862 4.31074 17.9102 3.21874Z" fill="url(#paint0_linear_2053_105961)"/>
<path d="M17.9102 3.21874C19.5953 1.46333 22.4047 1.46333 24.0898 3.21874C25.138 4.31074 26.6858 4.76801 28.159 4.42026C30.5153 3.86405 32.8709 5.41118 33.3445 7.78543C33.6414 9.27358 34.7005 10.5188 36.1286 11.0319C38.4153 11.8534 39.5658 14.4259 38.6897 16.6923C38.1409 18.1119 38.3677 19.736 39.2924 20.9449C40.7747 22.8827 40.3822 25.6693 38.4139 27.1109C37.1876 28.0091 36.5205 29.505 36.6509 31.0195C36.8586 33.4334 35.0347 35.5838 32.6157 35.721C31.103 35.8068 29.7411 36.6946 29.0411 38.0382C27.9207 40.1888 25.2257 40.9982 23.1207 39.7943C21.8068 39.0428 20.1932 39.0428 18.8793 39.7943C16.7743 40.9982 14.0793 40.1888 12.9589 38.0382C12.2589 36.6946 10.897 35.8068 9.38432 35.721C6.96534 35.5838 5.14137 33.4334 5.34913 31.0195C5.47947 29.505 4.81243 28.0091 3.5861 27.1109C1.61776 25.6693 1.22525 22.8827 2.70757 20.9449C3.63228 19.736 3.8591 18.1119 3.31031 16.6923C2.43418 14.4259 3.58466 11.8534 5.87141 11.0319C7.29951 10.5188 8.35865 9.27358 8.65551 7.78543C9.12912 5.41118 11.4847 3.86406 13.841 4.42026C15.3142 4.76801 16.862 4.31074 17.9102 3.21874Z" fill="black" fill-opacity="0.1"/>
<path d="M2.70757 20.9449L-30.566 -4.50704L2.70757 20.9449ZM9.38432 35.721L7.01271 77.5457L9.38432 35.721ZM18.8793 39.7943L-1.91883 3.42993L18.8793 39.7943ZM23.1207 39.7943L43.9188 3.42993L23.1207 39.7943ZM29.0411 38.0382L-8.11175 18.6837L29.0411 38.0382ZM32.6157 35.721L34.9873 77.5457L32.6157 35.721ZM36.6509 31.0195L78.3885 27.4273L36.6509 31.0195ZM38.4139 27.1109L13.6613 -6.68609V-6.68609L38.4139 27.1109ZM38.6897 16.6923L-0.384242 1.58741L38.6897 16.6923ZM36.1286 11.0319L21.9645 50.4566L36.1286 11.0319ZM33.3445 7.78543L74.427 -0.409696L33.3445 7.78543ZM17.9102 3.21874L-12.3112 -25.7915L17.9102 3.21874ZM4.21682 45.1916C20.1256 48.9469 36.8238 44.0089 48.1317 32.229L-12.3112 -25.7915C-3.09979 -35.3875 10.5028 -39.4109 23.4652 -36.3511L4.21682 45.1916ZM49.738 15.9805C45.6731 36.3582 25.4286 50.1987 4.21682 45.1916L23.4652 -36.3511C-2.45917 -42.4706 -27.4148 -25.5358 -32.427 -0.40969L49.738 15.9805ZM20.0355 50.4566C35.5112 44.8966 46.6123 31.6499 49.738 15.9805L-32.427 -0.40969C-29.895 -13.1028 -20.9122 -23.8591 -8.29272 -28.3929L20.0355 50.4566ZM42.3842 1.58741C49.8485 20.8961 40.2654 43.1886 20.0355 50.4566L-8.29272 -28.3929C-33.0961 -19.4817 -44.9801 7.95573 -35.7636 31.7972L42.3842 1.58741ZM35.9811 46.3968C45.8396 33.5087 48.151 16.505 42.3842 1.58741L-35.7636 31.7972C-40.4328 19.7189 -38.5751 5.96329 -30.566 -4.50704L35.9811 46.3968ZM28.3387 -6.68609C45.428 5.82998 48.6755 29.8013 35.9811 46.3968L-30.566 -4.50704C-46.225 15.9642 -42.1925 45.5087 -21.1665 60.908L28.3387 -6.68609ZM47.0867 34.6117C48.4501 18.7702 41.5645 3.00033 28.3387 -6.68609L-21.1665 60.908C-31.9396 53.0178 -37.4912 40.2399 -36.3885 27.4273L47.0867 34.6117ZM11.7559 -6.1037C33.4489 -4.87363 48.8578 14.0336 47.0867 34.6117L-36.3885 27.4273C-38.575 52.8333 -19.5182 76.0413 7.01271 77.5457L11.7559 -6.1037ZM50.1117 18.6837C42.656 4.37166 28.1567 -5.17372 11.7559 -6.1037L7.01271 77.5457C-6.36272 76.7873 -18.1381 69.0174 -24.1939 57.3928L50.1117 18.6837ZM-1.91883 3.42993C16.8928 -7.32911 40.3908 0.0234045 50.1117 18.6837L-24.1939 57.3928C-12.2322 80.3543 16.6559 89.3256 39.6774 76.1587L-1.91883 3.42993ZM43.9188 3.42993C29.7188 -4.69156 12.2812 -4.69156 -1.91883 3.42993L39.6774 76.1587C28.1053 82.7772 13.8947 82.7772 2.32261 76.1587L43.9188 3.42993ZM-8.11175 18.6837C1.60922 0.0234112 25.1072 -7.32911 43.9188 3.42993L2.32261 76.1587C25.3441 89.3256 54.2323 80.3543 66.1939 57.3928L-8.11175 18.6837ZM30.2441 -6.1037C13.8433 -5.17372 -0.655971 4.37166 -8.11175 18.6837L66.1939 57.3928C60.1381 69.0174 48.3627 76.7873 34.9873 77.5457L30.2441 -6.1037ZM-5.08673 34.6117C-6.8578 14.0335 8.55115 -4.87364 30.2441 -6.1037L34.9873 77.5457C61.5182 76.0413 80.5751 52.8333 78.3885 27.4273L-5.08673 34.6117ZM13.6613 -6.68609C0.435534 3.00033 -6.45013 18.7702 -5.08673 34.6117L78.3885 27.4273C79.4912 40.2399 73.9396 53.0178 63.1665 60.908L13.6613 -6.68609ZM6.01885 46.3968C-6.67551 29.8013 -3.42805 5.82998 13.6613 -6.68609L63.1665 60.908C84.1925 45.5087 88.225 15.9642 72.566 -4.50704L6.01885 46.3968ZM-0.384242 1.58741C-6.15096 16.505 -3.83961 33.5087 6.01885 46.3968L72.566 -4.50704C80.5751 5.96329 82.4328 19.7189 77.7636 31.7972L-0.384242 1.58741ZM21.9645 50.4566C1.73459 43.1886 -7.84846 20.8961 -0.384242 1.58741L77.7636 31.7972C86.9801 7.95573 75.0961 -19.4817 50.2927 -28.3929L21.9645 50.4566ZM-7.73799 15.9806C-4.61226 31.65 6.48882 44.8966 21.9645 50.4566L50.2927 -28.3929C62.9122 -23.8591 71.895 -13.1028 74.427 -0.409696L-7.73799 15.9806ZM37.7832 45.1916C16.5714 50.1987 -3.67306 36.3582 -7.73799 15.9806L74.427 -0.409696C69.4148 -25.5358 44.4592 -42.4706 18.5348 -36.3511L37.7832 45.1916ZM-6.13166 32.229C5.17616 44.0089 21.8744 48.9469 37.7832 45.1916L18.5348 -36.3511C31.4972 -39.4109 45.0998 -35.3875 54.3112 -25.7915L-6.13166 32.229ZM54.3112 -25.7915C36.1389 -44.7224 5.86104 -44.7224 -12.3112 -25.7915L48.1317 32.229C33.3296 47.6491 8.67046 47.6491 -6.13166 32.229L54.3112 -25.7915Z" fill="#929292" fill-opacity="0.1" mask="url(#path-1-inside-1_2053_105961)"/>
<path d="M6.81055 21.3715C6.81055 13.3302 13.3293 6.81152 21.3705 6.81152C29.4118 6.81152 35.9305 13.3302 35.9305 21.3715V21.6709C35.9305 29.7122 29.4118 36.2309 21.3705 36.2309C13.3293 36.2309 6.81055 29.7122 6.81055 21.6709V21.3715Z" fill="black" fill-opacity="0.04"/>
<path d="M10.4211 21.3715C10.4211 15.3243 15.3233 10.4221 21.3705 10.4221C27.4177 10.4221 32.3199 15.3243 32.3199 21.3715V21.6709C32.3199 27.7181 27.4177 32.6203 21.3705 32.6203C15.3233 32.6203 10.4211 27.7181 10.4211 21.6709V21.3715Z" stroke="white" stroke-opacity="0.3" stroke-width="7.22112"/>
<path d="M35.9713 21.5411C35.9713 29.6733 29.4452 36.2658 21.3948 36.2658C13.3445 36.2658 6.81836 29.6733 6.81836 21.5411C6.81836 13.4089 13.3445 6.81641 21.3948 6.81641C29.4452 6.81641 35.9713 13.4089 35.9713 21.5411ZM9.8589 21.5411C9.8589 27.977 15.0237 33.1944 21.3948 33.1944C27.7659 33.1944 32.9308 27.977 32.9308 21.5411C32.9308 15.1052 27.7659 9.88787 21.3948 9.88787C15.0237 9.88787 9.8589 15.1052 9.8589 21.5411Z" fill="url(#paint1_linear_2053_105961)" fill-opacity="0.5"/>
<path fill-rule="evenodd" clip-rule="evenodd" d="M18.1561 17.3348C18.1561 16.636 18.4337 15.9658 18.9278 15.4717C19.422 14.9775 20.0921 14.7 20.7909 14.7C21.4897 14.7 22.1599 14.9775 22.654 15.4717C23.1482 15.9658 23.4258 16.636 23.4258 17.3348C23.4258 18.0336 23.1482 18.7038 22.654 19.1979C22.1599 19.692 21.4897 19.9696 20.7909 19.9696C20.0921 19.9696 19.422 19.692 18.9278 19.1979C18.4337 18.7038 18.1561 18.0336 18.1561 17.3348ZM15.961 25.5935C15.9808 24.3255 16.4983 23.1162 17.4019 22.2265C18.3056 21.3368 19.5228 20.8382 20.7909 20.8382C22.059 20.8382 23.2763 21.3368 24.1799 22.2265C25.0836 23.1162 25.6011 24.3255 25.6209 25.5935C25.6224 25.6789 25.599 25.7628 25.5536 25.8351C25.5081 25.9074 25.4426 25.9648 25.365 26.0004C23.93 26.6584 22.3696 26.9979 20.7909 26.9958C19.1597 26.9958 17.6098 26.6398 16.2169 26.0004C16.1393 25.9648 16.0738 25.9074 16.0283 25.8351C15.9829 25.7628 15.9595 25.6789 15.961 25.5935Z" fill="#CFCFCF"/>
<defs>
<linearGradient id="paint0_linear_2053_105961" x1="10.3341" y1="8.265" x2="38.1831" y2="25.445" gradientUnits="userSpaceOnUse">
<stop stop-color="#B6C0D6"/>
<stop offset="1" stop-color="#6B6A7B" stop-opacity="0.84"/>
</linearGradient>
<linearGradient id="paint1_linear_2053_105961" x1="21.3948" y1="6.81641" x2="21.3948" y2="36.2658" gradientUnits="userSpaceOnUse">
<stop stop-color="white"/>
<stop offset="0.0001" stop-color="white" stop-opacity="0.81"/>
<stop offset="1" stop-color="white" stop-opacity="0"/>
</linearGradient>
</defs>
</svg>
