<svg width="134" height="134" viewBox="0 0 134 134" fill="none" xmlns="http://www.w3.org/2000/svg">
<path d="M57.1422 10.2693C62.5184 4.66874 71.4816 4.66873 76.8578 10.2693V10.2693C80.2021 13.7533 85.1404 15.2122 89.8406 14.1027V14.1027C97.3583 12.3282 104.874 17.2642 106.385 24.8392V24.8392C107.332 29.5871 110.711 33.5599 115.267 35.1969V35.1969C122.563 37.8181 126.234 46.0256 123.439 53.2565V53.2565C121.688 57.7857 122.411 62.9672 125.362 66.8241V66.8241C130.091 73.0068 128.839 81.8974 122.559 86.4968V86.4968C118.646 89.3623 116.518 94.1351 116.934 98.967V98.967C117.597 106.669 111.777 113.529 104.06 113.967V113.967C99.2334 114.241 94.8882 117.073 92.6549 121.36V121.36C89.0804 128.222 80.4819 130.804 73.7661 126.963V126.963C69.574 124.565 64.426 124.565 60.2339 126.963V126.963C53.5181 130.804 44.9196 128.222 41.3451 121.36V121.36C39.1118 117.073 34.7666 114.241 29.9404 113.967V113.967C22.2227 113.529 16.4034 106.669 17.0663 98.967V98.967C17.4821 94.1351 15.3539 89.3623 11.4414 86.4968V86.4968C5.16143 81.8974 3.90914 73.0068 8.63844 66.8241V66.8241C11.5887 62.9672 12.3124 57.7857 10.5615 53.2565V53.2565C7.7662 46.0256 11.4368 37.8181 18.7326 35.1969V35.1969C23.2889 33.5599 26.6681 29.5871 27.6152 24.8392V24.8392C29.1262 17.2642 36.6417 12.3282 44.1594 14.1027V14.1027C48.8595 15.2122 53.7979 13.7533 57.1422 10.2693V10.2693Z" fill="url(#paint0_linear_6_77)"/>
<path d="M57.1422 10.2693C62.5184 4.66874 71.4816 4.66873 76.8578 10.2693V10.2693C80.2021 13.7533 85.1404 15.2122 89.8406 14.1027V14.1027C97.3583 12.3282 104.874 17.2642 106.385 24.8392V24.8392C107.332 29.5871 110.711 33.5599 115.267 35.1969V35.1969C122.563 37.8181 126.234 46.0256 123.439 53.2565V53.2565C121.688 57.7857 122.411 62.9672 125.362 66.8241V66.8241C130.091 73.0068 128.839 81.8974 122.559 86.4968V86.4968C118.646 89.3623 116.518 94.1351 116.934 98.967V98.967C117.597 106.669 111.777 113.529 104.06 113.967V113.967C99.2334 114.241 94.8882 117.073 92.6549 121.36V121.36C89.0804 128.222 80.4819 130.804 73.7661 126.963V126.963C69.574 124.565 64.426 124.565 60.2339 126.963V126.963C53.5181 130.804 44.9196 128.222 41.3451 121.36V121.36C39.1118 117.073 34.7666 114.241 29.9404 113.967V113.967C22.2227 113.529 16.4034 106.669 17.0663 98.967V98.967C17.4821 94.1351 15.3539 89.3623 11.4414 86.4968V86.4968C5.16143 81.8974 3.90914 73.0068 8.63844 66.8241V66.8241C11.5887 62.9672 12.3124 57.7857 10.5615 53.2565V53.2565C7.7662 46.0256 11.4368 37.8181 18.7326 35.1969V35.1969C23.2889 33.5599 26.6681 29.5871 27.6152 24.8392V24.8392C29.1262 17.2642 36.6417 12.3282 44.1594 14.1027V14.1027C48.8595 15.2122 53.7979 13.7533 57.1422 10.2693V10.2693Z" fill="black" fill-opacity="0.1"/>
<path d="M62.8016 71.2281C62.4434 70.4824 62.1028 69.7286 61.78 68.9675C61.873 68.1922 61.983 67.4188 62.1101 66.6481C62.6837 65.9432 63.2756 65.2526 63.8853 64.5773C64.9135 64.2376 65.9523 63.9291 67 63.6523C68.0477 63.9291 69.0865 64.2376 70.1148 64.5773C70.7244 65.2526 71.3163 65.9432 71.8899 66.6481C72.017 67.4188 72.127 68.1922 72.22 68.9675C71.8972 69.7286 71.5566 70.4824 71.1984 71.2281C70.372 71.7989 69.5292 72.3466 68.6711 72.8703C67.5573 72.9051 66.4427 72.9051 65.3289 72.8703C64.4708 72.3466 63.628 71.7989 62.8016 71.2281Z" stroke="#929292" stroke-opacity="0.1" stroke-width="133.655"/>
<path d="M21.7308 68.1851C21.7308 42.5297 42.5286 21.7319 68.1841 21.7319V21.7319C93.8395 21.7319 114.637 42.5297 114.637 68.1851V69.1404C114.637 94.7959 93.8395 115.594 68.1841 115.594V115.594C42.5286 115.594 21.7308 94.7959 21.7308 69.1404V68.1851Z" fill="black" fill-opacity="0.04"/>
<path d="M103.118 68.1851V69.1404C103.118 88.4339 87.4775 104.074 68.1841 104.074C48.8906 104.074 33.2502 88.4339 33.2502 69.1404V68.1851C33.2502 48.8917 48.8906 33.2513 68.1841 33.2513C87.4775 33.2513 103.118 48.8917 103.118 68.1851Z" stroke="white" stroke-opacity="0.3" stroke-width="23.0388"/>
<path d="M114.767 68.7262C114.767 94.6719 93.9454 115.705 68.2609 115.705C42.5764 115.705 21.755 94.6719 21.755 68.7262C21.755 42.7805 42.5764 21.7474 68.2609 21.7474C93.9454 21.7474 114.767 42.7805 114.767 68.7262ZM31.4558 68.7262C31.4558 89.2598 47.934 105.906 68.2609 105.906C88.5878 105.906 105.066 89.2598 105.066 68.7262C105.066 48.1926 88.5878 31.5468 68.2609 31.5468C47.934 31.5468 31.4558 48.1926 31.4558 68.7262Z" fill="url(#paint1_linear_6_77)" fill-opacity="0.5"/>
<path fill-rule="evenodd" clip-rule="evenodd" d="M59.0036 55.4064C59.0036 53.1768 59.8893 51.0387 61.4658 49.4622C63.0423 47.8857 65.1805 47 67.41 47C69.6395 47 71.7777 47.8857 73.3542 49.4622C74.9307 51.0387 75.8164 53.1768 75.8164 55.4064C75.8164 57.6359 74.9307 59.774 73.3542 61.3505C71.7777 62.927 69.6395 63.8127 67.41 63.8127C65.1805 63.8127 63.0423 62.927 61.4658 61.3505C59.8893 59.774 59.0036 57.6359 59.0036 55.4064V55.4064ZM52.0002 81.7556C52.0632 77.7102 53.7144 73.8519 56.5975 71.0134C59.4805 68.1749 63.3641 66.5839 67.41 66.5839C71.4559 66.5839 75.3395 68.1749 78.2225 71.0134C81.1056 73.8519 82.7568 77.7102 82.8198 81.7556C82.8246 82.0279 82.75 82.2958 82.605 82.5264C82.46 82.757 82.251 82.9403 82.0034 83.0539C77.4251 85.1531 72.4466 86.2365 67.41 86.2296C62.2055 86.2296 57.2607 85.0938 52.8166 83.0539C52.569 82.9403 52.36 82.757 52.215 82.5264C52.07 82.2958 51.9954 82.0279 52.0002 81.7556V81.7556Z" fill="#CFCFCF"/>
<defs>
<linearGradient id="paint0_linear_6_77" x1="32.9709" y1="26.3693" x2="121.822" y2="81.1817" gradientUnits="userSpaceOnUse">
<stop stop-color="#B6C0D6"/>
<stop offset="1" stop-color="#6B6A7B" stop-opacity="0.84"/>
</linearGradient>
<linearGradient id="paint1_linear_6_77" x1="68.2609" y1="21.7474" x2="68.2609" y2="115.705" gradientUnits="userSpaceOnUse">
<stop stop-color="white"/>
<stop offset="0.0001" stop-color="white" stop-opacity="0.81"/>
<stop offset="1" stop-color="white" stop-opacity="0"/>
</linearGradient>
</defs>
</svg>
