<svg width="56" height="56" viewBox="0 0 20 21" fill="none" xmlns="http://www.w3.org/2000/svg">
<mask id="path-1-inside-1_3922_205" fill="white">
<path d="M8.30159 2.25382C9.03593 1.48882 10.2594 1.48882 10.9937 2.25381L11.1067 2.37148C11.5639 2.84779 12.2388 3.047 12.8814 2.89532L13.0367 2.85865C14.0645 2.61604 15.0886 3.27397 15.2952 4.30959L15.3343 4.50553C15.4623 5.14737 15.9173 5.6752 16.5332 5.89649L16.7151 5.96185C17.7014 6.31619 18.2025 7.41309 17.8246 8.39059L17.7429 8.60193C17.5086 9.20797 17.6065 9.89225 18.0013 10.4083L18.1378 10.5868C18.7731 11.4174 18.6019 12.6079 17.7583 13.2257L17.587 13.3512C17.0614 13.7362 16.7746 14.3674 16.8305 15.0165L16.8491 15.233C16.9393 16.281 16.1459 17.1963 15.0957 17.2559L14.9224 17.2657C14.2657 17.303 13.6771 17.6832 13.3732 18.2665L13.2902 18.4258C12.8009 19.3652 11.6286 19.7093 10.7091 19.1834L10.574 19.1061C10.0001 18.7779 9.29525 18.7779 8.72131 19.1061L8.58619 19.1834C7.66674 19.7093 6.49443 19.3652 6.00506 18.4258L5.9221 18.2665C5.61821 17.6832 5.02964 17.303 4.37295 17.2657L4.19956 17.2559C3.14941 17.1963 2.35601 16.281 2.4462 15.233L2.46484 15.0165C2.5207 14.3674 2.23395 13.7362 1.70833 13.3512L1.53703 13.2257C0.693388 12.6079 0.522178 11.4174 1.15751 10.5868L1.29404 10.4083C1.6888 9.89225 1.78667 9.20797 1.55239 8.60193L1.47069 8.39059C1.09281 7.41309 1.59389 6.31619 2.58017 5.96185L2.76209 5.89649C3.37804 5.6752 3.833 5.14737 3.96103 4.50553L4.00012 4.30959C4.2067 3.27397 5.23081 2.61604 6.25859 2.85865L6.41393 2.89531C7.05652 3.047 7.73142 2.84779 8.18865 2.37148L8.30159 2.25382Z"/>
</mask>
<path d="M8.30159 2.25382C9.03593 1.48882 10.2594 1.48882 10.9937 2.25381L11.1067 2.37148C11.5639 2.84779 12.2388 3.047 12.8814 2.89532L13.0367 2.85865C14.0645 2.61604 15.0886 3.27397 15.2952 4.30959L15.3343 4.50553C15.4623 5.14737 15.9173 5.6752 16.5332 5.89649L16.7151 5.96185C17.7014 6.31619 18.2025 7.41309 17.8246 8.39059L17.7429 8.60193C17.5086 9.20797 17.6065 9.89225 18.0013 10.4083L18.1378 10.5868C18.7731 11.4174 18.6019 12.6079 17.7583 13.2257L17.587 13.3512C17.0614 13.7362 16.7746 14.3674 16.8305 15.0165L16.8491 15.233C16.9393 16.281 16.1459 17.1963 15.0957 17.2559L14.9224 17.2657C14.2657 17.303 13.6771 17.6832 13.3732 18.2665L13.2902 18.4258C12.8009 19.3652 11.6286 19.7093 10.7091 19.1834L10.574 19.1061C10.0001 18.7779 9.29525 18.7779 8.72131 19.1061L8.58619 19.1834C7.66674 19.7093 6.49443 19.3652 6.00506 18.4258L5.9221 18.2665C5.61821 17.6832 5.02964 17.303 4.37295 17.2657L4.19956 17.2559C3.14941 17.1963 2.35601 16.281 2.4462 15.233L2.46484 15.0165C2.5207 14.3674 2.23395 13.7362 1.70833 13.3512L1.53703 13.2257C0.693388 12.6079 0.522178 11.4174 1.15751 10.5868L1.29404 10.4083C1.6888 9.89225 1.78667 9.20797 1.55239 8.60193L1.47069 8.39059C1.09281 7.41309 1.59389 6.31619 2.58017 5.96185L2.76209 5.89649C3.37804 5.6752 3.833 5.14737 3.96103 4.50553L4.00012 4.30959C4.2067 3.27397 5.23081 2.61604 6.25859 2.85865L6.41393 2.89531C7.05652 3.047 7.73142 2.84779 8.18865 2.37148L8.30159 2.25382Z" fill="url(#paint0_linear_3922_205)"/>
<path d="M8.30159 2.25382C9.03593 1.48882 10.2594 1.48882 10.9937 2.25381L11.1067 2.37148C11.5639 2.84779 12.2388 3.047 12.8814 2.89532L13.0367 2.85865C14.0645 2.61604 15.0886 3.27397 15.2952 4.30959L15.3343 4.50553C15.4623 5.14737 15.9173 5.6752 16.5332 5.89649L16.7151 5.96185C17.7014 6.31619 18.2025 7.41309 17.8246 8.39059L17.7429 8.60193C17.5086 9.20797 17.6065 9.89225 18.0013 10.4083L18.1378 10.5868C18.7731 11.4174 18.6019 12.6079 17.7583 13.2257L17.587 13.3512C17.0614 13.7362 16.7746 14.3674 16.8305 15.0165L16.8491 15.233C16.9393 16.281 16.1459 17.1963 15.0957 17.2559L14.9224 17.2657C14.2657 17.303 13.6771 17.6832 13.3732 18.2665L13.2902 18.4258C12.8009 19.3652 11.6286 19.7093 10.7091 19.1834L10.574 19.1061C10.0001 18.7779 9.29525 18.7779 8.72131 19.1061L8.58619 19.1834C7.66674 19.7093 6.49443 19.3652 6.00506 18.4258L5.9221 18.2665C5.61821 17.6832 5.02964 17.303 4.37295 17.2657L4.19956 17.2559C3.14941 17.1963 2.35601 16.281 2.4462 15.233L2.46484 15.0165C2.5207 14.3674 2.23395 13.7362 1.70833 13.3512L1.53703 13.2257C0.693388 12.6079 0.522178 11.4174 1.15751 10.5868L1.29404 10.4083C1.6888 9.89225 1.78667 9.20797 1.55239 8.60193L1.47069 8.39059C1.09281 7.41309 1.59389 6.31619 2.58017 5.96185L2.76209 5.89649C3.37804 5.6752 3.833 5.14737 3.96103 4.50553L4.00012 4.30959C4.2067 3.27397 5.23081 2.61604 6.25859 2.85865L6.41393 2.89531C7.05652 3.047 7.73142 2.84779 8.18865 2.37148L8.30159 2.25382Z" fill="black" fill-opacity="0.1"/>
<path d="M6.41393 2.89531L4.55692 10.7623L6.41393 2.89531ZM6.25859 2.85865L8.1156 -5.00832L6.25859 2.85865ZM2.76209 5.89649L0.0290835 -1.71063L2.76209 5.89649ZM2.58017 5.96185L-0.152845 -1.64527L2.58017 5.96185ZM1.29404 10.4083L7.71428 15.3194L1.29404 10.4083ZM1.55239 8.60193L-5.98705 11.5165L1.55239 8.60193ZM1.53703 13.2257L-3.23906 19.747L1.53703 13.2257ZM2.46484 15.0165L-5.58856 14.3234L2.46484 15.0165ZM4.19956 17.2559L3.74195 25.3261L4.19956 17.2559ZM5.9221 18.2665L13.0908 14.532L5.9221 18.2665ZM10.574 19.1061L6.56094 26.1228L10.574 19.1061ZM8.72131 19.1061L4.70825 12.0895L8.72131 19.1061ZM13.2902 18.4258L6.12149 14.6913L13.2902 18.4258ZM10.7091 19.1834L6.69606 26.2L10.7091 19.1834ZM14.9224 17.2657L14.4647 9.19552L14.9224 17.2657ZM16.8491 15.233L8.79571 15.9261L16.8491 15.233ZM17.587 13.3512L12.8109 6.82997L17.587 13.3512ZM16.8305 15.0165L8.77707 15.7096L16.8305 15.0165ZM18.1378 10.5868L11.7176 15.4978L18.1378 10.5868ZM17.7583 13.2257L12.9822 6.70451L17.7583 13.2257ZM17.7429 8.60193L25.2824 11.5165L17.7429 8.60193ZM18.0013 10.4083L24.4215 5.4973L18.0013 10.4083ZM16.7151 5.96185L13.9821 13.569L16.7151 5.96185ZM17.8246 8.39059L10.2852 5.47605L17.8246 8.39059ZM15.3343 4.50553L23.2613 2.92425L15.3343 4.50553ZM16.5332 5.89649L13.8002 13.5036L16.5332 5.89649ZM15.2952 4.30959L7.36819 5.89086L15.2952 4.30959ZM10.9937 2.25381L5.1624 7.85144L10.9937 2.25381ZM5.1624 7.85144L5.27534 7.9691L16.938 -3.22615L16.825 -3.34381L5.1624 7.85144ZM14.7384 10.7623L14.8937 10.7256L11.1797 -5.00832L11.0244 -4.97165L14.7384 10.7623ZM7.36819 5.89086L7.40728 6.0868L23.2613 2.92425L23.2222 2.72831L7.36819 5.89086ZM13.8002 13.5036L13.9821 13.569L19.4482 -1.64527L19.2662 -1.71063L13.8002 13.5036ZM10.2852 5.47605L10.2035 5.68739L25.2824 11.5165L25.364 11.3051L10.2852 5.47605ZM11.581 15.3194L11.7176 15.4978L24.558 5.67579L24.4215 5.4973L11.581 15.3194ZM12.9822 6.70451L12.8109 6.82997L22.3631 19.8724L22.5344 19.747L12.9822 6.70451ZM8.77707 15.7096L8.79571 15.9261L24.9025 14.5399L24.8839 14.3234L8.77707 15.7096ZM14.6381 9.18568L14.4647 9.19552L15.38 25.3359L15.5534 25.3261L14.6381 9.18568ZM6.20446 14.532L6.12149 14.6913L20.459 22.1603L20.542 22.0011L6.20446 14.532ZM14.7222 12.1668L14.5871 12.0895L6.56094 26.1228L6.69606 26.2L14.7222 12.1668ZM4.70825 12.0895L4.57313 12.1668L12.5992 26.2L12.7344 26.1228L4.70825 12.0895ZM13.1738 14.6913L13.0908 14.532L-1.24665 22.0011L-1.16369 22.1603L13.1738 14.6913ZM4.83055 9.19552L4.65717 9.18568L3.74195 25.3261L3.91534 25.3359L4.83055 9.19552ZM10.4996 15.9261L10.5182 15.7096L-5.58856 14.3234L-5.60719 14.5399L10.4996 15.9261ZM6.48442 6.82997L6.31313 6.70451L-3.23906 19.747L-3.06776 19.8724L6.48442 6.82997ZM7.57775 15.4978L7.71428 15.3194L-5.1262 5.4973L-5.26272 5.67579L7.57775 15.4978ZM9.09182 5.68739L9.01012 5.47605L-6.06875 11.3051L-5.98705 11.5165L9.09182 5.68739ZM5.31318 13.569L5.49511 13.5036L0.0290835 -1.71063L-0.152845 -1.64527L5.31318 13.569ZM11.888 6.0868L11.9271 5.89086L-3.92687 2.72832L-3.96596 2.92425L11.888 6.0868ZM4.40157 10.7256L4.55692 10.7623L8.27094 -4.97165L8.1156 -5.00832L4.40157 10.7256ZM14.02 7.9691L14.1329 7.85144L2.47028 -3.34381L2.35733 -3.22615L14.02 7.9691ZM4.55692 10.7623C7.98328 11.5711 11.582 10.5089 14.02 7.9691L2.35733 -3.22615C3.88087 -4.81329 6.12975 -5.47708 8.27094 -4.97165L4.55692 10.7623ZM11.9271 5.89086C11.2387 9.34167 7.82626 11.534 4.40157 10.7256L8.1156 -5.00832C2.63536 -6.30194 -2.82534 -2.79373 -3.92687 2.72832L11.9271 5.89086ZM5.49511 13.5036C8.77939 12.3237 11.2053 9.50918 11.888 6.0868L-3.96596 2.92425C-3.53933 0.785552 -2.02332 -0.973262 0.0290835 -1.71063L5.49511 13.5036ZM9.01012 5.47605C10.2693 8.73322 8.59958 12.3883 5.31318 13.569L-0.152845 -1.64527C-5.4118 0.244117 -8.08362 6.09297 -6.06875 11.3051L9.01012 5.47605ZM7.71428 15.3194C9.8192 12.5676 10.341 8.9189 9.09182 5.68739L-5.98705 11.5165C-6.7677 9.49705 -6.4416 7.21695 -5.1262 5.4973L7.71428 15.3194ZM6.31313 6.70451C9.12428 8.76337 9.69478 12.7302 7.57775 15.4978L-5.26272 5.67579C-8.65042 10.1046 -7.7375 16.4524 -3.23906 19.747L6.31313 6.70451ZM10.5182 15.7096C10.8161 12.2485 9.28709 8.88262 6.48442 6.82997L-3.06776 19.8724C-4.8192 18.5897 -5.77471 16.4863 -5.58856 14.3234L10.5182 15.7096ZM4.65717 9.18568C8.15642 9.3841 10.8001 12.4342 10.4996 15.9261L-5.60719 14.5399C-6.08811 20.1278 -1.8576 25.0086 3.74195 25.3261L4.65717 9.18568ZM13.0908 14.532C11.4705 11.4216 8.33213 9.39407 4.83055 9.19552L3.91534 25.3359C1.72715 25.2118 -0.234063 23.9448 -1.24665 22.0011L13.0908 14.532ZM4.57313 12.1668C7.63688 10.4145 11.5432 11.5611 13.1738 14.6913L-1.16369 22.1603C1.44571 27.1693 7.69659 29.004 12.5992 26.2L4.57313 12.1668ZM14.5871 12.0895C11.5267 10.3392 7.7686 10.3392 4.70825 12.0895L12.7344 26.1228C10.8219 27.2166 8.47339 27.2166 6.56094 26.1228L14.5871 12.0895ZM6.12149 14.6913C7.75214 11.5611 11.6584 10.4145 14.7222 12.1668L6.69606 26.2C11.5987 29.0041 17.8496 27.1693 20.459 22.1603L6.12149 14.6913ZM14.4647 9.19552C10.9632 9.39407 7.82482 11.4216 6.20446 14.532L20.542 22.0011C19.5294 23.9448 17.5682 25.2118 15.38 25.3359L14.4647 9.19552ZM8.79571 15.9261C8.49517 12.4342 11.1389 9.3841 14.6381 9.18568L15.5534 25.3261C21.1529 25.0086 25.3834 20.1278 24.9025 14.5399L8.79571 15.9261ZM12.8109 6.82997C10.0082 8.88261 8.47919 12.2485 8.77707 15.7096L24.8839 14.3234C25.07 16.4863 24.1145 18.5897 22.3631 19.8724L12.8109 6.82997ZM11.7176 15.4978C9.60053 12.7302 10.171 8.76338 12.9822 6.70451L22.5344 19.747C27.0328 16.4524 27.9457 10.1046 24.558 5.67579L11.7176 15.4978ZM10.2035 5.68739C8.95427 8.9189 9.4761 12.5676 11.581 15.3194L24.4215 5.4973C25.7369 7.21695 26.063 9.49705 25.2824 11.5165L10.2035 5.68739ZM13.9821 13.569C10.6957 12.3883 9.02605 8.73321 10.2852 5.47605L25.364 11.3051C27.3789 6.09298 24.7071 0.244119 19.4482 -1.64527L13.9821 13.569ZM7.40728 6.0868C8.08998 9.50918 10.5159 12.3237 13.8002 13.5036L19.2662 -1.71063C21.3186 -0.973261 22.8346 0.785552 23.2613 2.92425L7.40728 6.0868ZM14.8937 10.7256C11.4691 11.534 8.05656 9.34169 7.36819 5.89086L23.2222 2.72831C22.1206 -2.79374 16.6599 -6.30193 11.1797 -5.00832L14.8937 10.7256ZM5.27534 7.9691C7.71332 10.5089 11.312 11.5711 14.7384 10.7623L11.0244 -4.97165C13.1656 -5.47708 15.4144 -4.81328 16.938 -3.22615L5.27534 7.9691ZM16.825 -3.34381C12.9094 -7.42286 6.38586 -7.42285 2.47028 -3.34381L14.1329 7.85144C11.686 10.4005 7.60931 10.4005 5.1624 7.85144L16.825 -3.34381Z" fill="#929292" fill-opacity="0.1" mask="url(#path-1-inside-1_3922_205)"/>
<path d="M3.12891 10.6695C3.12891 6.97524 6.12368 3.98047 9.81793 3.98047C13.5122 3.98047 16.5069 6.97525 16.5069 10.6695V10.8071C16.5069 14.5013 13.5122 17.4961 9.81793 17.4961C6.12368 17.4961 3.12891 14.5013 3.12891 10.8071V10.6695Z" fill="black" fill-opacity="0.04"/>
<path d="M3.82557 10.6695C3.82557 7.36 6.50844 4.67714 9.81793 4.67714C13.1274 4.67714 15.8103 7.36001 15.8103 10.6695V10.8071C15.8103 14.1165 13.1274 16.7994 9.81793 16.7994C6.50844 16.7994 3.82557 14.1165 3.82557 10.8071V10.6695Z" stroke="white" stroke-opacity="0.3" stroke-width="1.39334"/>
<path d="M16.526 10.7471C16.526 14.4832 13.5279 17.5118 9.82942 17.5118C6.13098 17.5118 3.13281 14.4832 3.13281 10.7471C3.13281 7.01108 6.13098 3.98242 9.82942 3.98242C13.5279 3.98242 16.526 7.01108 16.526 10.7471ZM4.52967 10.7471C4.52967 13.7039 6.90245 16.1008 9.82942 16.1008C12.7564 16.1008 15.1292 13.7039 15.1292 10.7471C15.1292 7.7904 12.7564 5.39349 9.82942 5.39349C6.90245 5.39349 4.52967 7.7904 4.52967 10.7471Z" fill="url(#paint1_linear_3922_205)" fill-opacity="0.5"/>
<path fill-rule="evenodd" clip-rule="evenodd" d="M8.34052 8.81399C8.34052 8.49295 8.46805 8.18506 8.69506 7.95805C8.92207 7.73105 9.22995 7.60352 9.55099 7.60352C9.87203 7.60352 10.1799 7.73105 10.4069 7.95805C10.6339 8.18506 10.7615 8.49295 10.7615 8.81399C10.7615 9.13502 10.6339 9.44291 10.4069 9.66992C10.1799 9.89693 9.87203 10.0245 9.55099 10.0245C9.22995 10.0245 8.92207 9.89693 8.69506 9.66992C8.46805 9.44291 8.34052 9.13502 8.34052 8.81399ZM7.33206 12.6081C7.34113 12.0256 7.5789 11.47 7.99405 11.0613C8.40919 10.6526 8.96841 10.4235 9.55099 10.4235C10.1336 10.4235 10.6928 10.6526 11.1079 11.0613C11.5231 11.47 11.7608 12.0256 11.7699 12.6081C11.7706 12.6474 11.7599 12.6859 11.739 12.7191C11.7181 12.7523 11.688 12.7787 11.6524 12.7951C10.9931 13.0974 10.2762 13.2534 9.55099 13.2524C8.80158 13.2524 8.08955 13.0888 7.44961 12.7951C7.41397 12.7787 7.38386 12.7523 7.36299 12.7191C7.34211 12.6859 7.33136 12.6474 7.33206 12.6081Z" fill="#CFCFCF"/>
<defs>
<linearGradient id="paint0_linear_3922_205" x1="4.74763" y1="4.6486" x2="17.5418" y2="12.5413" gradientUnits="userSpaceOnUse">
<stop stop-color="#B6C0D6"/>
<stop offset="1" stop-color="#6B6A7B" stop-opacity="0.84"/>
</linearGradient>
<linearGradient id="paint1_linear_3922_205" x1="9.82942" y1="3.98242" x2="9.82942" y2="17.5118" gradientUnits="userSpaceOnUse">
<stop stop-color="white"/>
<stop offset="0.0001" stop-color="white" stop-opacity="0.81"/>
<stop offset="1" stop-color="white" stop-opacity="0"/>
</linearGradient>
</defs>
</svg>
