<svg width="16" height="16" viewBox="0 0 16 16" fill="none" xmlns="http://www.w3.org/2000/svg">
<path d="M1.49391 6.83113C1.49391 10.8613 3.74709 13.2282 7.28678 14.9767C7.47582 15.0654 7.6821 15.1115 7.89094 15.1115C8.09979 15.1115 8.30607 15.0654 8.49511 14.9767C12.0348 13.2637 14.288 10.847 14.288 6.83113V3.51889C14.2897 3.16525 14.1596 2.82365 13.9231 2.56079C13.6865 2.29793 13.3604 2.13269 13.0086 2.09733C11.4373 1.95907 9.89496 1.59025 8.43114 1.00273C8.26064 0.92878 8.07678 0.890625 7.89094 0.890625C7.7051 0.890625 7.52124 0.92878 7.35075 1.00273C5.8873 1.59269 4.34494 1.96391 2.77332 2.10444C2.42145 2.1398 2.09539 2.30504 1.85882 2.5679C1.62225 2.83076 1.49214 3.17236 1.49391 3.526V6.83113Z" fill="#28A745"/>
<path d="M6.78492 10.3802C6.59946 10.3813 6.4209 10.3099 6.28737 10.1812L4.66679 8.58903C4.60017 8.52296 4.54729 8.44435 4.51121 8.35773C4.47512 8.27111 4.45654 8.17821 4.45654 8.08438C4.45654 7.99055 4.47512 7.89765 4.51121 7.81103C4.54729 7.72441 4.60017 7.6458 4.66679 7.57973C4.79996 7.44734 4.98011 7.37304 5.16789 7.37304C5.35567 7.37304 5.53582 7.44734 5.66899 7.57973L6.79203 8.68144L9.71334 5.83831C9.84812 5.70541 10.0302 5.6315 10.2195 5.63283C10.4087 5.63416 10.5897 5.71063 10.7226 5.84542C10.8555 5.9802 10.9295 6.16226 10.9281 6.35155C10.9268 6.54083 10.8503 6.72183 10.7155 6.85473L7.29668 10.2167C7.15405 10.3361 6.97032 10.3948 6.78492 10.3802Z" fill="white"/>
</svg>
