<svg width="16" height="16" viewBox="0 0 16 16" fill="none" xmlns="http://www.w3.org/2000/svg">
<path d="M6.82271 1.22619C7.46463 0.557461 8.53488 0.55746 9.1768 1.22619C9.57613 1.64219 10.1658 1.81638 10.727 1.68391C11.6246 1.47202 12.522 2.0614 12.7024 2.96588C12.8155 3.53279 13.219 4.00716 13.763 4.20261C14.6342 4.51559 15.0724 5.49559 14.7387 6.35898C14.5296 6.89979 14.616 7.51847 14.9683 7.979C15.533 8.71723 15.3835 9.7788 14.6336 10.328C14.1665 10.6701 13.9123 11.24 13.962 11.817C14.0411 12.7365 13.3463 13.5557 12.4248 13.608C11.8485 13.6407 11.3297 13.9789 11.063 14.4908C10.6362 15.31 9.60954 15.6184 8.80765 15.1597C8.3071 14.8735 7.69242 14.8735 7.19186 15.1597C6.38998 15.6184 5.36328 15.31 4.93649 14.4908C4.66983 13.9789 4.15099 13.6407 3.57473 13.608C2.65322 13.5557 1.95837 12.7365 2.03752 11.817C2.08717 11.24 1.83306 10.6701 1.36589 10.328C0.616046 9.7788 0.466519 8.71723 1.03121 7.979C1.38348 7.51847 1.46989 6.89979 1.26083 6.35898C0.927064 5.49559 1.36534 4.51559 2.23648 4.20261C2.78052 4.00716 3.184 3.53279 3.29709 2.96588C3.47752 2.0614 4.37489 1.47202 5.27251 1.68391C5.83373 1.81638 6.42338 1.64219 6.82271 1.22619Z" fill="url(#paint0_linear_3554_95721)"/>
<path d="M6.82271 1.22619C7.46463 0.557461 8.53488 0.55746 9.1768 1.22619C9.57613 1.64219 10.1658 1.81638 10.727 1.68391C11.6246 1.47202 12.522 2.0614 12.7024 2.96588C12.8155 3.53279 13.219 4.00716 13.763 4.20261C14.6342 4.51559 15.0724 5.49559 14.7387 6.35898C14.5296 6.89979 14.616 7.51847 14.9683 7.979C15.533 8.71723 15.3835 9.7788 14.6336 10.328C14.1665 10.6701 13.9123 11.24 13.962 11.817C14.0411 12.7365 13.3463 13.5557 12.4248 13.608C11.8485 13.6407 11.3297 13.9789 11.063 14.4908C10.6362 15.31 9.60954 15.6184 8.80765 15.1597C8.3071 14.8735 7.69242 14.8735 7.19186 15.1597C6.38998 15.6184 5.36328 15.31 4.93649 14.4908C4.66983 13.9789 4.15099 13.6407 3.57473 13.608C2.65322 13.5557 1.95837 12.7365 2.03752 11.817C2.08717 11.24 1.83306 10.6701 1.36589 10.328C0.616046 9.7788 0.466519 8.71723 1.03121 7.979C1.38348 7.51847 1.46989 6.89979 1.26083 6.35898C0.927064 5.49559 1.36534 4.51559 2.23648 4.20261C2.78052 4.00716 3.184 3.53279 3.29709 2.96588C3.47752 2.0614 4.37489 1.47202 5.27251 1.68391C5.83373 1.81638 6.42338 1.64219 6.82271 1.22619Z" fill="url(#paint1_linear_3554_95721)" fill-opacity="0.1"/>
<path d="M2.45288 8.10915C2.45288 5.04582 4.9362 2.5625 7.99953 2.5625C11.0629 2.5625 13.5462 5.04582 13.5462 8.10915V8.22324C13.5462 11.2866 11.0629 13.7699 7.99953 13.7699C4.9362 13.7699 2.45288 11.2866 2.45288 8.22323V8.10915Z" fill="black" fill-opacity="0.04"/>
<path d="M3.63844 8.10915C3.63844 5.70058 5.59097 3.74806 7.99953 3.74806C10.4081 3.74806 12.3606 5.70059 12.3606 8.10915V8.22324C12.3606 10.6318 10.4081 12.5843 7.99953 12.5843C5.59097 12.5843 3.63844 10.6318 3.63844 8.22323V8.10915Z" stroke="white" stroke-opacity="0.3" stroke-width="2.37111"/>
<path d="M13.6214 8.21537C13.6214 11.3201 11.1045 13.837 7.9998 13.837C4.89506 13.837 2.37817 11.3201 2.37817 8.21537C2.37817 5.11064 4.89506 2.59375 7.9998 2.59375C11.1045 2.59375 13.6214 5.11064 13.6214 8.21537ZM3.53553 8.21537C3.53553 10.6809 5.53425 12.6796 7.9998 12.6796C10.4653 12.6796 12.4641 10.6809 12.4641 8.21537C12.4641 5.74983 10.4653 3.75111 7.9998 3.75111C5.53425 3.75111 3.53553 5.74983 3.53553 8.21537Z" fill="url(#paint2_linear_3554_95721)" fill-opacity="0.5"/>
<path fill-rule="evenodd" clip-rule="evenodd" d="M6.78718 6.87093C6.78718 6.60472 6.89294 6.34942 7.08117 6.16118C7.26941 5.97294 7.52472 5.86719 7.79093 5.86719C8.05714 5.86719 8.31244 5.97294 8.50068 6.16118C8.68892 6.34942 8.79467 6.60472 8.79467 6.87093C8.79467 7.13714 8.68892 7.39245 8.50068 7.58068C8.31244 7.76892 8.05714 7.87467 7.79093 7.87467C7.52472 7.87467 7.26941 7.76892 7.08117 7.58068C6.89294 7.39245 6.78718 7.13714 6.78718 6.87093ZM5.95095 10.0171C5.95848 9.53408 6.15564 9.07338 6.49988 8.73445C6.84413 8.39553 7.30784 8.20556 7.79093 8.20556C8.27402 8.20556 8.73773 8.39553 9.08197 8.73445C9.42622 9.07338 9.62338 9.53408 9.6309 10.0171C9.63148 10.0496 9.62257 10.0816 9.60526 10.1091C9.58795 10.1367 9.56298 10.1586 9.53343 10.1721C8.98676 10.4228 8.39232 10.5521 7.79093 10.5513C7.1695 10.5513 6.57907 10.4157 6.04843 10.1721C6.01887 10.1586 5.99391 10.1367 5.9766 10.1091C5.95929 10.0816 5.95037 10.0496 5.95095 10.0171Z" fill="#FFE69B"/>
<defs>
<linearGradient id="paint0_linear_3554_95721" x1="2.80912" y1="1.49833" x2="11.585" y2="15.3311" gradientUnits="userSpaceOnUse">
<stop stop-color="#FFE092"/>
<stop offset="1" stop-color="#E3A302"/>
</linearGradient>
<linearGradient id="paint1_linear_3554_95721" x1="-2.74799" y1="-1.25" x2="9.40616" y2="20.4441" gradientUnits="userSpaceOnUse">
<stop stop-color="white"/>
<stop offset="1" stop-color="white" stop-opacity="0"/>
</linearGradient>
<linearGradient id="paint2_linear_3554_95721" x1="7.9998" y1="2.59375" x2="7.9998" y2="13.837" gradientUnits="userSpaceOnUse">
<stop stop-color="white"/>
<stop offset="0.0001" stop-color="white" stop-opacity="0.81"/>
<stop offset="1" stop-color="white" stop-opacity="0"/>
</linearGradient>
</defs>
</svg>
