<svg width="14" height="15" viewBox="0 0 14 15" fill="none" xmlns="http://www.w3.org/2000/svg">
<g clip-path="url(#clip0_2795_122782)">
<path d="M1.75 7.00391C1.75 7.69335 1.8858 8.37603 2.14963 9.01299C2.41347 9.64995 2.80018 10.2287 3.28769 10.7162C3.7752 11.2037 4.35395 11.5904 4.99091 11.8543C5.62787 12.1181 6.31056 12.2539 7 12.2539C7.68944 12.2539 8.37213 12.1181 9.00909 11.8543C9.64605 11.5904 10.2248 11.2037 10.7123 10.7162C11.1998 10.2287 11.5865 9.64995 11.8504 9.01299C12.1142 8.37603 12.25 7.69335 12.25 7.00391C12.25 6.31447 12.1142 5.63178 11.8504 4.99482C11.5865 4.35786 11.1998 3.7791 10.7123 3.2916C10.2248 2.80409 9.64605 2.41738 9.00909 2.15354C8.37213 1.8897 7.68944 1.75391 7 1.75391C6.31056 1.75391 5.62787 1.8897 4.99091 2.15354C4.35395 2.41738 3.7752 2.80409 3.28769 3.2916C2.80018 3.7791 2.41347 4.35786 2.14963 4.99482C1.8858 5.63178 1.75 6.31447 1.75 7.00391Z" stroke="#DC3545" stroke-width="1.16667" stroke-linecap="round" stroke-linejoin="round"/>
<path d="M7 7.00391H9.04167" stroke="#DC3545" stroke-width="1.16667" stroke-linecap="round" stroke-linejoin="round"/>
<path d="M7 4.08594V7.0026" stroke="#DC3545" stroke-width="1.16667" stroke-linecap="round" stroke-linejoin="round"/>
</g>
<defs>
<clipPath id="clip0_2795_122782">
<rect width="14" height="14" fill="white" transform="translate(0 0.00390625)"/>
</clipPath>
</defs>
</svg>
