<svg width="64" height="64" viewBox="0 0 64 64" fill="none" xmlns="http://www.w3.org/2000/svg">
<path d="M27.2918 4.905C29.8595 2.23009 34.1405 2.23009 36.7082 4.905C38.3055 6.56899 40.6641 7.26578 42.909 6.73588C46.4995 5.88833 50.089 8.24585 50.8107 11.8638C51.263 14.1314 52.8769 16.0289 55.0531 16.8107C58.5377 18.0626 60.2908 21.9826 58.9557 25.4362C58.1195 27.5994 58.4651 30.0741 59.8742 31.9162C62.1329 34.8692 61.5348 39.1154 58.5355 41.3121C56.6668 42.6808 55.6503 44.9603 55.8489 47.2681C56.1655 50.9464 53.3862 54.2232 49.7001 54.4323C47.3951 54.563 45.3197 55.9158 44.2531 57.9633C42.5459 61.2404 38.4391 62.4737 35.2316 60.6392C33.2294 59.4941 30.7706 59.4941 28.7684 60.6392C25.5609 62.4737 21.4541 61.2404 19.7469 57.9633C18.6803 55.9158 16.6049 54.563 14.2999 54.4323C10.6138 54.2232 7.83447 50.9464 8.15106 47.2681C8.34967 44.9603 7.33322 42.6808 5.46453 41.3121C2.46516 39.1154 1.86705 34.8692 4.12582 31.9162C5.5349 30.0741 5.88053 27.5994 5.04428 25.4362C3.70923 21.9826 5.46235 18.0626 8.94691 16.8107C11.1231 16.0289 12.737 14.1314 13.1893 11.8638C13.911 8.24585 17.5005 5.88833 21.091 6.73588C23.3359 7.26578 25.6945 6.56899 27.2918 4.905Z" fill="url(#paint0_linear_2053_105721)"/>
<path d="M27.2918 4.905C29.8595 2.23009 34.1405 2.23009 36.7082 4.905C38.3055 6.56899 40.6641 7.26578 42.909 6.73588C46.4995 5.88833 50.089 8.24585 50.8107 11.8638C51.263 14.1314 52.8769 16.0289 55.0531 16.8107C58.5377 18.0626 60.2908 21.9826 58.9557 25.4362C58.1195 27.5994 58.4651 30.0741 59.8742 31.9162C62.1329 34.8692 61.5348 39.1154 58.5355 41.3121C56.6668 42.6808 55.6503 44.9603 55.8489 47.2681C56.1655 50.9464 53.3862 54.2232 49.7001 54.4323C47.3951 54.563 45.3197 55.9158 44.2531 57.9633C42.5459 61.2404 38.4391 62.4737 35.2316 60.6392C33.2294 59.4941 30.7706 59.4941 28.7684 60.6392C25.5609 62.4737 21.4541 61.2404 19.7469 57.9633C18.6803 55.9158 16.6049 54.563 14.2999 54.4323C10.6138 54.2232 7.83447 50.9464 8.15106 47.2681C8.34967 44.9603 7.33322 42.6808 5.46453 41.3121C2.46516 39.1154 1.86705 34.8692 4.12582 31.9162C5.5349 30.0741 5.88053 27.5994 5.04428 25.4362C3.70923 21.9826 5.46235 18.0626 8.94691 16.8107C11.1231 16.0289 12.737 14.1314 13.1893 11.8638C13.911 8.24585 17.5005 5.88833 21.091 6.73588C23.3359 7.26578 25.6945 6.56899 27.2918 4.905Z" fill="url(#paint1_linear_2053_105721)" fill-opacity="0.1"/>
<path d="M9.8125 32.4348C9.8125 20.1814 19.7458 10.2482 31.9991 10.2482C44.2524 10.2482 54.1857 20.1815 54.1857 32.4348V32.8911C54.1857 45.1444 44.2524 55.0777 31.9991 55.0777C19.7458 55.0777 9.8125 45.1444 9.8125 32.8911V32.4348Z" fill="black" fill-opacity="0.04"/>
<path d="M18.7042 32.4348C18.7042 25.0922 24.6565 19.1399 31.9991 19.1399C39.3417 19.1399 45.294 25.0922 45.294 32.4348V32.8911C45.294 40.2337 39.3417 46.186 31.9991 46.186C24.6565 46.186 18.7042 40.2337 18.7042 32.8911V32.4348Z" stroke="white" stroke-opacity="0.3" stroke-width="17.7834"/>
<path d="M54.4847 32.8662C54.4847 45.2852 44.4171 55.3527 31.9982 55.3527C19.5793 55.3527 9.51172 45.2852 9.51172 32.8662C9.51172 20.4473 19.5793 10.3798 31.9982 10.3798C44.4171 10.3798 54.4847 20.4473 54.4847 32.8662ZM14.1411 32.8662C14.1411 42.7284 22.136 50.7233 31.9982 50.7233C41.8604 50.7233 49.8553 42.7284 49.8553 32.8662C49.8553 23.0041 41.8604 15.0092 31.9982 15.0092C22.136 15.0092 14.1411 23.0041 14.1411 32.8662Z" fill="url(#paint2_linear_2053_105721)" fill-opacity="0.5"/>
<path fill-rule="evenodd" clip-rule="evenodd" d="M27.6634 26.4149C27.6634 25.35 28.0864 24.3288 28.8393 23.5759C29.5923 22.8229 30.6135 22.3999 31.6784 22.3999C32.7432 22.3999 33.7644 22.8229 34.5174 23.5759C35.2703 24.3288 35.6933 25.35 35.6933 26.4149C35.6933 27.4797 35.2703 28.5009 34.5174 29.2539C33.7644 30.0068 32.7432 30.4299 31.6784 30.4299C30.6135 30.4299 29.5923 30.0068 28.8393 29.2539C28.0864 28.5009 27.6634 27.4797 27.6634 26.4149ZM24.3185 38.9996C24.3486 37.0675 25.1372 35.2247 26.5142 33.869C27.8912 32.5133 29.746 31.7534 31.6784 31.7534C33.6107 31.7534 35.4656 32.5133 36.8425 33.869C38.2195 35.2247 39.0082 37.0675 39.0383 38.9996C39.0406 39.1297 39.0049 39.2576 38.9357 39.3677C38.8664 39.4779 38.7666 39.5654 38.6484 39.6197C36.4617 40.6223 34.0839 41.1397 31.6784 41.1364C29.1926 41.1364 26.8309 40.594 24.7084 39.6197C24.5901 39.5654 24.4903 39.4779 24.421 39.3677C24.3518 39.2576 24.3161 39.1297 24.3185 38.9996Z" fill="#FFE69B"/>
<defs>
<linearGradient id="paint0_linear_2053_105721" x1="11.2375" y1="5.99356" x2="46.3411" y2="61.3247" gradientUnits="userSpaceOnUse">
<stop stop-color="#FFE092"/>
<stop offset="1" stop-color="#E3A302"/>
</linearGradient>
<linearGradient id="paint1_linear_2053_105721" x1="-10.991" y1="-4.99976" x2="37.6256" y2="81.7765" gradientUnits="userSpaceOnUse">
<stop stop-color="white"/>
<stop offset="1" stop-color="white" stop-opacity="0"/>
</linearGradient>
<linearGradient id="paint2_linear_2053_105721" x1="31.9982" y1="10.3798" x2="31.9982" y2="55.3527" gradientUnits="userSpaceOnUse">
<stop stop-color="white"/>
<stop offset="0.0001" stop-color="white" stop-opacity="0.81"/>
<stop offset="1" stop-color="white" stop-opacity="0"/>
</linearGradient>
</defs>
</svg>
