<svg width="64" height="64" viewBox="0 0 64 64" fill="none" xmlns="http://www.w3.org/2000/svg">
<path d="M27.705 4.46788C30.0481 2.02695 33.9519 2.02695 36.295 4.46788L36.9324 5.13186C38.3913 6.65167 40.5447 7.2873 42.5951 6.80331L43.4782 6.59486C46.7576 5.82075 50.0253 7.92008 50.6845 11.2245L50.8878 12.2437C51.2963 14.2917 52.748 15.9759 54.7133 16.682L55.6687 17.0252C58.8157 18.1558 60.4145 21.6558 59.2088 24.7748L58.8034 25.8236C58.0559 27.7573 58.3681 29.9407 59.6277 31.5874L60.3066 32.4749C62.3338 35.1251 61.7875 38.9237 59.0956 40.8952L58.227 41.5314C56.5498 42.7597 55.6349 44.7739 55.8131 46.8451L55.907 47.9364C56.1948 51.2802 53.6633 54.2009 50.3124 54.3909L49.362 54.4448C47.2666 54.5636 45.3886 55.7769 44.419 57.6382L43.969 58.502C42.4075 61.4994 38.6669 62.5974 35.7331 60.9194L34.9558 60.4748C33.1244 59.4274 30.8756 59.4274 29.0442 60.4748L28.2669 60.9194C25.3331 62.5974 21.5925 61.4994 20.0311 58.502L19.581 57.6382C18.6114 55.7769 16.7334 54.5636 14.638 54.4448L13.6876 54.3909C10.3368 54.2009 7.80518 51.2802 8.09297 47.9364L8.18689 46.8451C8.36514 44.7739 7.45016 42.7597 5.77303 41.5314L4.90435 40.8952C2.21245 38.9237 1.66616 35.1251 3.69338 32.4749L4.37228 31.5874C5.63188 29.9407 5.94415 27.7573 5.19661 25.8236L4.7912 24.7748C3.58548 21.6558 5.18432 18.1558 8.33131 17.0252L9.28666 16.682C11.252 15.9759 12.7037 14.2917 13.1122 12.2437L13.3155 11.2245C13.9747 7.92008 17.2424 5.82075 20.5218 6.59486L21.4049 6.80331C23.4553 7.2873 25.6087 6.65167 27.0676 5.13186L27.705 4.46788Z" fill="url(#paint0_linear_4796_110705)"/>
<path d="M27.705 4.46788C30.0481 2.02695 33.9519 2.02695 36.295 4.46788L36.9323 5.13186C38.3913 6.65167 40.5447 7.28731 42.5951 6.80331L43.4782 6.59486C46.7576 5.82075 50.0253 7.92008 50.6845 11.2245L50.8878 12.2437C51.2963 14.2917 52.748 15.9759 54.7133 16.682L55.6687 17.0252C58.8157 18.1558 60.4145 21.6558 59.2088 24.7748L58.8034 25.8236C58.0559 27.7573 58.3681 29.9407 59.6277 31.5874L60.3066 32.4749C62.3338 35.1251 61.7875 38.9237 59.0956 40.8952L58.227 41.5314C56.5498 42.7597 55.6349 44.7739 55.8131 46.8451L55.907 47.9364C56.1948 51.2802 53.6632 54.2009 50.3124 54.3909L49.362 54.4448C47.2666 54.5636 45.3886 55.7769 44.419 57.6382L43.9689 58.502C42.4075 61.4994 38.6669 62.5974 35.7331 60.9194L34.9558 60.4748C33.1244 59.4274 30.8756 59.4274 29.0442 60.4748L28.2669 60.9194C25.3331 62.5974 21.5925 61.4994 20.031 58.502L19.581 57.6382C18.6114 55.7769 16.7334 54.5636 14.638 54.4448L13.6876 54.3909C10.3367 54.2009 7.80518 51.2802 8.09297 47.9364L8.18689 46.8451C8.36514 44.7739 7.45016 42.7597 5.77303 41.5314L4.90435 40.8952C2.21245 38.9237 1.66616 35.1251 3.69338 32.4749L4.37228 31.5874C5.63188 29.9407 5.94415 27.7573 5.19661 25.8236L4.7912 24.7748C3.58548 21.6558 5.18432 18.1558 8.33131 17.0252L9.28666 16.682C11.252 15.9759 12.7037 14.2917 13.1122 12.2437L13.3155 11.2245C13.9747 7.92008 17.2424 5.82075 20.5218 6.59486L21.4049 6.80331C23.4553 7.2873 25.6087 6.65167 27.0676 5.13186L27.705 4.46788Z" fill="url(#paint1_linear_4796_110705)" fill-opacity="0.1"/>
<path d="M9.8125 32.4302C9.8125 20.1769 19.7458 10.2436 31.9991 10.2436V10.2436C44.2524 10.2436 54.1857 20.1769 54.1857 32.4302V32.8865C54.1857 45.1399 44.2524 55.0731 31.9991 55.0731V55.0731C19.7458 55.0731 9.8125 45.1398 9.8125 32.8865V32.4302Z" fill="black" fill-opacity="0.04"/>
<path d="M51.9628 32.4302V32.8865C51.9628 43.9122 43.0247 52.8502 31.9991 52.8502C20.9735 52.8502 12.0354 43.9122 12.0354 32.8865V32.4302C12.0354 21.4045 20.9735 12.4665 31.9991 12.4665C43.0247 12.4665 51.9628 21.4046 51.9628 32.4302Z" stroke="white" stroke-opacity="0.3" stroke-width="4.44584"/>
<path d="M54.4869 32.8615C54.4869 45.2804 44.4193 55.348 32.0004 55.348C19.5815 55.348 9.51392 45.2804 9.51392 32.8615C9.51392 20.4425 19.5815 10.375 32.0004 10.375C44.4193 10.375 54.4869 20.4425 54.4869 32.8615ZM14.1433 32.8615C14.1433 42.7237 22.1382 50.7185 32.0004 50.7185C41.8626 50.7185 49.8575 42.7237 49.8575 32.8615C49.8575 22.9993 41.8626 15.0044 32.0004 15.0044C22.1382 15.0044 14.1433 22.9993 14.1433 32.8615Z" fill="url(#paint2_linear_4796_110705)" fill-opacity="0.5"/>
<path fill-rule="evenodd" clip-rule="evenodd" d="M28.3046 26.6463C28.3046 25.5814 28.7276 24.5601 29.4806 23.8071C30.2336 23.0542 31.2549 22.6311 32.3198 22.6311C33.3846 22.6311 34.4059 23.0542 35.1589 23.8071C35.9119 24.5601 36.3349 25.5814 36.3349 26.6463C36.3349 27.7111 35.9119 28.7324 35.1589 29.4854C34.4059 30.2384 33.3846 30.6614 32.3198 30.6614C31.2549 30.6614 30.2336 30.2384 29.4806 29.4854C28.7276 28.7324 28.3046 27.7111 28.3046 26.6463V26.6463ZM24.9596 39.2315C24.9897 37.2993 25.7783 35.4564 27.1554 34.1006C28.5324 32.7449 30.3873 31.985 32.3198 31.985C34.2522 31.985 36.1071 32.7449 37.4841 34.1006C38.8612 35.4564 39.6498 37.2993 39.6799 39.2315C39.6823 39.3615 39.6466 39.4895 39.5774 39.5996C39.5081 39.7097 39.4083 39.7973 39.29 39.8516C37.1033 40.8542 34.7254 41.3717 32.3198 41.3684C29.8339 41.3684 27.4722 40.8259 25.3495 39.8516C25.2313 39.7973 25.1314 39.7097 25.0622 39.5996C24.9929 39.4895 24.9573 39.3615 24.9596 39.2315V39.2315Z" fill="#0D6EFD"/>
<defs>
<linearGradient id="paint0_linear_4796_110705" x1="41.2086" y1="63.9936" x2="21.0237" y2="7.06937" gradientUnits="userSpaceOnUse">
<stop offset="0.0625" stop-color="#0D6EFD"/>
<stop offset="1" stop-color="#C5CBD2"/>
</linearGradient>
<linearGradient id="paint1_linear_4796_110705" x1="-10.991" y1="-5.00641" x2="37.6256" y2="81.7699" gradientUnits="userSpaceOnUse">
<stop stop-color="white"/>
<stop offset="1" stop-color="white" stop-opacity="0"/>
</linearGradient>
<linearGradient id="paint2_linear_4796_110705" x1="32.0004" y1="10.375" x2="32.0004" y2="55.348" gradientUnits="userSpaceOnUse">
<stop stop-color="white"/>
<stop offset="0.0001" stop-color="white" stop-opacity="0.81"/>
<stop offset="1" stop-color="white" stop-opacity="0"/>
</linearGradient>
</defs>
</svg>
