<svg width="65" height="64" viewBox="0 0 65 64" fill="none" xmlns="http://www.w3.org/2000/svg">
<path d="M27.7842 4.53902C30.1612 2.06278 34.1215 2.06278 36.4985 4.53902L37.0397 5.10279C38.5197 6.64459 40.7043 7.28942 42.7843 6.79842L43.5327 6.62176C46.8596 5.83645 50.1746 7.96615 50.8433 11.3184L51.0196 12.2024C51.4341 14.28 52.9068 15.9886 54.9005 16.7049L55.727 17.0018C58.9195 18.1488 60.5415 21.6994 59.3184 24.8635L58.9622 25.7849C58.2038 27.7467 58.5206 29.9616 59.7984 31.6321L60.3945 32.4115C62.4511 35.1 61.8969 38.9536 59.1661 40.9536L58.4074 41.5092C56.706 42.7553 55.7778 44.7986 55.9586 46.8997L56.0408 47.8544C56.3327 51.2466 53.7645 54.2096 50.3653 54.4023L49.5522 54.4484C47.4266 54.5689 45.5214 55.7998 44.5377 57.688L44.1517 58.429C42.5676 61.4697 38.7729 62.5836 35.7967 60.8814L35.1399 60.5057C33.2821 59.4431 31.0006 59.4431 29.1428 60.5057L28.486 60.8814C25.5098 62.5836 21.7151 61.4697 20.131 58.429L19.745 57.688C18.7613 55.7998 16.8562 54.5689 14.7305 54.4484L13.9174 54.4023C10.5182 54.2096 7.94998 51.2466 8.24193 47.8544L8.32409 46.8997C8.50493 44.7986 7.57671 42.7553 5.87531 41.5092L5.11666 40.9536C2.38582 38.9535 1.83162 35.1 3.88817 32.4115L4.4843 31.6321C5.76213 29.9616 6.07891 27.7467 5.32056 25.7849L4.96436 24.8635C3.7412 21.6994 5.36317 18.1488 8.55569 17.0018L9.3822 16.7049C11.376 15.9886 12.8487 14.28 13.2631 12.2024L13.4394 11.3184C14.1081 7.96615 17.4231 5.83645 20.75 6.62176L21.4984 6.79842C23.5784 7.28942 25.7631 6.64459 27.2431 5.10279L27.7842 4.53902Z" fill="url(#paint0_linear_4796_110725)"/>
<path d="M27.7842 4.53902C30.1612 2.06278 34.1215 2.06278 36.4985 4.53902L37.0397 5.10279C38.5197 6.64459 40.7043 7.28942 42.7843 6.79842L43.5327 6.62176C46.8596 5.83645 50.1746 7.96615 50.8433 11.3184L51.0196 12.2024C51.4341 14.28 52.9068 15.9886 54.9005 16.7049L55.727 17.0018C58.9195 18.1488 60.5415 21.6994 59.3184 24.8635L58.9622 25.7849C58.2038 27.7467 58.5206 29.9616 59.7984 31.6321L60.3945 32.4115C62.4511 35.1 61.8969 38.9536 59.1661 40.9536L58.4074 41.5092C56.706 42.7553 55.7778 44.7986 55.9586 46.8997L56.0408 47.8544C56.3327 51.2466 53.7645 54.2096 50.3653 54.4023L49.5522 54.4484C47.4266 54.5689 45.5214 55.7998 44.5377 57.688L44.1517 58.429C42.5676 61.4697 38.7729 62.5836 35.7967 60.8814L35.1399 60.5057C33.2821 59.4431 31.0006 59.4431 29.1428 60.5057L28.486 60.8814C25.5098 62.5836 21.7151 61.4697 20.131 58.429L19.745 57.688C18.7613 55.7998 16.8562 54.5689 14.7305 54.4484L13.9174 54.4023C10.5182 54.2096 7.94998 51.2466 8.24193 47.8544L8.32409 46.8997C8.50493 44.7986 7.57671 42.7553 5.87531 41.5092L5.11666 40.9536C2.38582 38.9535 1.83162 35.1 3.88817 32.4115L4.4843 31.6321C5.76213 29.9616 6.07891 27.7467 5.32056 25.7849L4.96436 24.8635C3.7412 21.6994 5.36317 18.1488 8.55569 17.0018L9.3822 16.7049C11.376 15.9886 12.8487 14.28 13.2631 12.2024L13.4394 11.3184C14.1081 7.96615 17.4231 5.83645 20.75 6.62176L21.4984 6.79842C23.5784 7.28942 25.7631 6.64459 27.2431 5.10279L27.7842 4.53902Z" fill="black" fill-opacity="0.1"/>
<path d="M24.2256 19.9957C27.0021 19.8005 29.7054 19.0007 32.1414 17.6536C34.5773 19.0007 37.2806 19.8005 40.0571 19.9957C41.3887 22.5005 43.2627 24.6797 45.5395 26.3713C45.3 29.2414 45.7124 32.1314 46.7449 34.8199C45.0136 37.101 43.8154 39.7447 43.2414 42.5506C40.6104 43.5272 38.224 45.0725 36.2563 47.074C33.5464 46.4772 30.7363 46.4772 28.0264 47.074C26.0587 45.0725 23.6724 43.5272 21.0413 42.5506C20.4673 39.7447 19.2691 37.101 17.5378 34.8199C18.5703 32.1314 18.9827 29.2414 18.7432 26.3713C21.02 24.6797 22.894 22.5005 24.2256 19.9957Z" stroke="#929292" stroke-opacity="0.1" stroke-width="26.1648"/>
<path d="M10.5191 32.5662C10.5191 20.3128 20.4524 10.3795 32.7057 10.3795V10.3795C44.959 10.3795 54.8923 20.3128 54.8923 32.5662V33.0224C54.8923 45.2758 44.959 55.2091 32.7057 55.2091V55.2091C20.4524 55.2091 10.5191 45.2758 10.5191 33.0225V32.5662Z" fill="black" fill-opacity="0.04"/>
<path d="M52.6372 32.5662V33.0224C52.6372 44.0303 43.7136 52.954 32.7057 52.954C21.6978 52.954 12.7742 44.0303 12.7742 33.0225V32.5662C12.7742 21.5583 21.6978 12.6346 32.7057 12.6346C43.7136 12.6346 52.6372 21.5583 52.6372 32.5662Z" stroke="white" stroke-opacity="0.3" stroke-width="4.51016"/>
<path d="M54.9553 32.8245C54.9553 45.2164 45.0108 55.2621 32.7436 55.2621C20.4763 55.2621 10.5318 45.2164 10.5318 32.8245C10.5318 20.4325 20.4763 10.3868 32.7436 10.3868C45.0108 10.3868 54.9553 20.4325 54.9553 32.8245ZM15.165 32.8245C15.165 42.6316 23.0352 50.5818 32.7436 50.5818C42.4519 50.5818 50.3221 42.6316 50.3221 32.8245C50.3221 23.0174 42.4519 15.0671 32.7436 15.0671C23.0352 15.0671 15.165 23.0174 15.165 32.8245Z" fill="url(#paint1_linear_4796_110725)" fill-opacity="0.5"/>
<path fill-rule="evenodd" clip-rule="evenodd" d="M27.8064 26.415C27.8064 25.3501 28.2294 24.3289 28.9823 23.576C29.7353 22.823 30.7565 22.4 31.8214 22.4C32.8862 22.4 33.9074 22.823 34.6604 23.576C35.4133 24.3289 35.8363 25.3501 35.8363 26.415C35.8363 27.4798 35.4133 28.501 34.6604 29.254C33.9074 30.0069 32.8862 30.4299 31.8214 30.4299C30.7565 30.4299 29.7353 30.0069 28.9823 29.254C28.2294 28.501 27.8064 27.4798 27.8064 26.415V26.415ZM24.4615 38.9997C24.4916 37.0676 25.2802 35.2248 26.6572 33.8691C28.0342 32.5134 29.889 31.7535 31.8214 31.7535C33.7537 31.7535 35.6086 32.5134 36.9855 33.8691C38.3625 35.2248 39.1512 37.0676 39.1813 38.9997C39.1836 39.1298 39.1479 39.2577 39.0787 39.3678C39.0094 39.4779 38.9096 39.5655 38.7914 39.6198C36.6047 40.6224 34.2269 41.1398 31.8214 41.1365C29.3357 41.1365 26.974 40.5941 24.8514 39.6198C24.7331 39.5655 24.6333 39.4779 24.564 39.3678C24.4948 39.2577 24.4592 39.1298 24.4615 38.9997V38.9997Z" fill="#CFCFCF"/>
<defs>
<linearGradient id="paint0_linear_4796_110725" x1="15.8886" y1="12.5943" x2="58.3251" y2="38.7733" gradientUnits="userSpaceOnUse">
<stop stop-color="#B6C0D6"/>
<stop offset="1" stop-color="#6B6A7B" stop-opacity="0.84"/>
</linearGradient>
<linearGradient id="paint1_linear_4796_110725" x1="32.7436" y1="10.3868" x2="32.7436" y2="55.2621" gradientUnits="userSpaceOnUse">
<stop stop-color="white"/>
<stop offset="0.0001" stop-color="white" stop-opacity="0.81"/>
<stop offset="1" stop-color="white" stop-opacity="0"/>
</linearGradient>
</defs>
</svg>
