<svg width="65" height="64" viewBox="0 0 65 64" fill="none" xmlns="http://www.w3.org/2000/svg">
<path d="M28.5248 4.4745C30.868 2.03357 34.7717 2.03357 37.1148 4.47451L37.7522 5.13848C39.2111 6.65829 41.3646 7.29393 43.4149 6.80993L44.298 6.60148C47.5774 5.82737 50.8451 7.9267 51.5043 11.2311L51.7076 12.2504C52.1161 14.2983 53.5678 15.9825 55.5332 16.6886L56.4885 17.0318C59.6355 18.1625 61.2343 21.6625 60.0286 24.7814L59.6232 25.8302C58.8757 27.7639 59.1879 29.9473 60.4475 31.594L61.1264 32.4815C63.1537 35.1318 62.6074 38.9303 59.9155 40.9018L59.0468 41.5381C57.3697 42.7664 56.4547 44.7805 56.6329 46.8517L56.7269 47.943C57.0146 51.2868 54.4831 54.2075 51.1323 54.3975L50.1818 54.4514C48.0864 54.5702 46.2084 55.7835 45.2388 57.6448L44.7888 58.5086C43.2273 61.506 39.4867 62.604 36.5529 60.926L35.7756 60.4814C33.9443 59.434 31.6954 59.434 29.8641 60.4814L29.0867 60.926C26.1529 62.604 22.4123 61.506 20.8509 58.5086L20.4009 57.6448C19.4312 55.7835 17.5532 54.5702 15.4578 54.4514L14.5074 54.3975C11.1566 54.2075 8.625 51.2868 8.91279 47.943L9.00671 46.8517C9.18497 44.7805 8.26998 42.7664 6.59285 41.5381L5.72417 40.9018C3.03228 38.9303 2.48598 35.1318 4.5132 32.4815L5.1921 31.594C6.45171 29.9473 6.76397 27.7639 6.01644 25.8302L5.61102 24.7814C4.4053 21.6624 6.00414 18.1625 9.15113 17.0318L10.1065 16.6886C12.0718 15.9825 13.5235 14.2983 13.932 12.2503L14.1354 11.2311C14.7945 7.9267 18.0622 5.82737 21.3416 6.60148L22.2247 6.80993C24.2751 7.29393 26.4286 6.65829 27.8875 5.13848L28.5248 4.4745Z" fill="url(#paint0_linear_4796_110715)"/>
<path d="M28.5248 4.4745C30.868 2.03357 34.7717 2.03358 37.1148 4.47451L37.7522 5.13848C39.2111 6.65829 41.3646 7.29393 43.4149 6.80993L44.298 6.60148C47.5774 5.82737 50.8451 7.9267 51.5043 11.2311L51.7076 12.2504C52.1161 14.2983 53.5678 15.9825 55.5332 16.6886L56.4885 17.0318C59.6355 18.1625 61.2343 21.6625 60.0286 24.7814L59.6232 25.8302C58.8757 27.7639 59.1879 29.9473 60.4475 31.594L61.1264 32.4815C63.1537 35.1318 62.6074 38.9303 59.9155 40.9018L59.0468 41.5381C57.3697 42.7664 56.4547 44.7805 56.6329 46.8517L56.7269 47.943C57.0146 51.2868 54.4831 54.2075 51.1323 54.3975L50.1818 54.4514C48.0864 54.5702 46.2084 55.7835 45.2388 57.6448L44.7888 58.5086C43.2273 61.506 39.4867 62.604 36.5529 60.926L35.7756 60.4814C33.9443 59.434 31.6954 59.434 29.8641 60.4814L29.0867 60.926C26.1529 62.604 22.4123 61.506 20.8509 58.5086L20.4009 57.6448C19.4312 55.7835 17.5532 54.5702 15.4578 54.4514L14.5074 54.3975C11.1566 54.2075 8.625 51.2868 8.91279 47.943L9.00671 46.8517C9.18497 44.7805 8.26998 42.7664 6.59285 41.5381L5.72417 40.9018C3.03228 38.9303 2.48598 35.1318 4.5132 32.4815L5.19211 31.594C6.45171 29.9473 6.76397 27.7639 6.01644 25.8302L5.61102 24.7814C4.4053 21.6625 6.00414 18.1625 9.15113 17.0318L10.1065 16.6886C12.0718 15.9825 13.5235 14.2983 13.932 12.2503L14.1354 11.2311C14.7945 7.9267 18.0622 5.82737 21.3416 6.60148L22.2247 6.80993C24.2751 7.29393 26.4286 6.65829 27.8875 5.13848L28.5248 4.4745Z" fill="url(#paint1_linear_4796_110715)" fill-opacity="0.1"/>
<path d="M10.6323 32.4367C10.6323 20.1834 20.5656 10.2501 32.8189 10.2501V10.2501C45.0723 10.2501 55.0056 20.1834 55.0056 32.4367V32.893C55.0056 45.1464 45.0723 55.0797 32.8189 55.0797V55.0797C20.5656 55.0797 10.6323 45.1464 10.6323 32.893V32.4367Z" fill="black" fill-opacity="0.04"/>
<path d="M52.7826 32.4367V32.893C52.7826 43.9187 43.8446 52.8567 32.8189 52.8567C21.7933 52.8567 12.8552 43.9187 12.8552 32.893V32.4367C12.8552 21.4111 21.7933 12.473 32.8189 12.473C43.8446 12.473 52.7826 21.4111 52.7826 32.4367Z" stroke="white" stroke-opacity="0.3" stroke-width="4.44584"/>
<path d="M55.3057 32.8688C55.3057 45.2878 45.2381 55.3553 32.8192 55.3553C20.4002 55.3553 10.3327 45.2878 10.3327 32.8688C10.3327 20.4499 20.4002 10.3823 32.8192 10.3823C45.2381 10.3823 55.3057 20.4499 55.3057 32.8688ZM14.9621 32.8688C14.9621 42.731 22.957 50.7259 32.8192 50.7259C42.6814 50.7259 50.6763 42.731 50.6763 32.8688C50.6763 23.0066 42.6814 15.0117 32.8192 15.0117C22.957 15.0117 14.9621 23.0066 14.9621 32.8688Z" fill="url(#paint2_linear_4796_110715)" fill-opacity="0.5"/>
<path fill-rule="evenodd" clip-rule="evenodd" d="M28.4849 26.415C28.4849 25.3501 28.9079 24.3289 29.6608 23.576C30.4138 22.823 31.435 22.4 32.4998 22.4C33.5647 22.4 34.5859 22.823 35.3388 23.576C36.0918 24.3289 36.5148 25.3501 36.5148 26.415C36.5148 27.4798 36.0918 28.501 35.3388 29.254C34.5859 30.0069 33.5647 30.4299 32.4998 30.4299C31.435 30.4299 30.4138 30.0069 29.6608 29.254C28.9079 28.501 28.4849 27.4798 28.4849 26.415V26.415ZM25.1399 38.9997C25.17 37.0676 25.9587 35.2248 27.3356 33.8691C28.7126 32.5134 30.5675 31.7535 32.4998 31.7535C34.4322 31.7535 36.287 32.5134 37.664 33.8691C39.041 35.2248 39.8296 37.0676 39.8597 38.9997C39.862 39.1298 39.8264 39.2577 39.7572 39.3678C39.6879 39.4779 39.5881 39.5655 39.4698 39.6198C37.2832 40.6224 34.9054 41.1398 32.4998 41.1365C30.0141 41.1365 27.6524 40.5941 25.5298 39.6198C25.4116 39.5655 25.3118 39.4779 25.2425 39.3678C25.1733 39.2577 25.1376 39.1298 25.1399 38.9997V38.9997Z" fill="#5C4033"/>
<defs>
<linearGradient id="paint0_linear_4796_110715" x1="42.0285" y1="64.0002" x2="21.8436" y2="7.07599" gradientUnits="userSpaceOnUse">
<stop offset="0.0625" stop-color="#87704F"/>
<stop offset="1" stop-color="#CBC6C5"/>
</linearGradient>
<linearGradient id="paint1_linear_4796_110715" x1="-10.1712" y1="-4.99979" x2="38.4455" y2="81.7765" gradientUnits="userSpaceOnUse">
<stop stop-color="white"/>
<stop offset="1" stop-color="white" stop-opacity="0"/>
</linearGradient>
<linearGradient id="paint2_linear_4796_110715" x1="32.8192" y1="10.3823" x2="32.8192" y2="55.3553" gradientUnits="userSpaceOnUse">
<stop stop-color="white"/>
<stop offset="0.0001" stop-color="white" stop-opacity="0.81"/>
<stop offset="1" stop-color="white" stop-opacity="0"/>
</linearGradient>
</defs>
</svg>
