<svg width="65" height="64" viewBox="0 0 65 64" fill="none" xmlns="http://www.w3.org/2000/svg">
<path d="M28.185 4.53902C30.562 2.06278 34.5222 2.06278 36.8992 4.53902L37.4404 5.10279C38.9204 6.64459 41.1051 7.28942 43.1851 6.79842L43.9335 6.62176C47.2603 5.83645 50.5753 7.96615 51.244 11.3184L51.4204 12.2024C51.8348 14.28 53.3075 15.9886 55.3013 16.7049L56.1278 17.0018C59.3203 18.1488 60.9423 21.6994 59.7191 24.8635L59.3629 25.7849C58.6046 27.7467 58.9213 29.9616 60.1992 31.6321L60.7953 32.4115C62.8519 35.1 62.2977 38.9536 59.5668 40.9536L58.8082 41.5092C57.1068 42.7553 56.1785 44.7986 56.3594 46.8997L56.4415 47.8544C56.7335 51.2466 54.1653 54.2096 50.766 54.4023L49.953 54.4484C47.8273 54.5689 45.9221 55.7998 44.9385 57.688L44.5525 58.429C42.9684 61.4697 39.1737 62.5836 36.1975 60.8814L35.5406 60.5057C33.6828 59.4431 31.4014 59.4431 29.5436 60.5057L28.8868 60.8814C25.9105 62.5836 22.1158 61.4697 20.5318 58.429L20.1458 57.688C19.1621 55.7998 17.2569 54.5689 15.1312 54.4484L14.3182 54.4023C10.9189 54.2096 8.35073 51.2466 8.64268 47.8544L8.72485 46.8997C8.90568 44.7986 7.97746 42.7553 6.27607 41.5092L5.51741 40.9536C2.78657 38.9535 2.23238 35.1 4.28892 32.4115L4.88506 31.6321C6.16289 29.9616 6.47967 27.7467 5.72132 25.7849L5.36512 24.8635C4.14196 21.6994 5.76393 18.1488 8.95645 17.0018L9.78295 16.7049C11.7767 15.9886 13.2494 14.28 13.6639 12.2024L13.8402 11.3184C14.5089 7.96615 17.8239 5.83645 21.1507 6.62176L21.8992 6.79842C23.9792 7.28942 26.1638 6.64459 27.6438 5.10279L28.185 4.53902Z" fill="url(#paint0_linear_4796_110744)"/>
<path d="M24.6263 19.9957C27.4029 19.8005 30.1062 19.0007 32.5421 17.6536C34.9781 19.0007 37.6813 19.8005 40.4579 19.9957C41.7895 22.5005 43.6635 24.6797 45.9402 26.3713C45.7008 29.2414 46.1131 32.1314 47.1457 34.8199C45.4144 37.101 44.2162 39.7447 43.6421 42.5506C41.0111 43.5272 38.6247 45.0725 36.6571 47.074C33.9472 46.4772 31.1371 46.4772 28.4271 47.074C26.4595 45.0725 24.0731 43.5272 21.4421 42.5506C20.868 39.7447 19.6699 37.101 17.9386 34.8199C18.9711 32.1314 19.3834 29.2414 19.144 26.3713C21.4208 24.6797 23.2947 22.5005 24.6263 19.9957Z" stroke="#929292" stroke-opacity="0.1" stroke-width="26.1648"/>
<path d="M10.9199 32.5662C10.9199 20.3128 20.8531 10.3795 33.1065 10.3795V10.3795C45.3598 10.3795 55.2931 20.3128 55.2931 32.5662V33.0224C55.2931 45.2758 45.3598 55.2091 33.1065 55.2091V55.2091C20.8531 55.2091 10.9199 45.2758 10.9199 33.0225V32.5662Z" fill="black" fill-opacity="0.04"/>
<path d="M53.038 32.5662V33.0224C53.038 44.0303 44.1143 52.954 33.1065 52.954C22.0986 52.954 13.1749 44.0303 13.1749 33.0225V32.5662C13.1749 21.5583 22.0986 12.6346 33.1065 12.6346C44.1143 12.6346 53.038 21.5583 53.038 32.5662Z" stroke="white" stroke-opacity="0.3" stroke-width="4.51016"/>
<path d="M55.3561 32.8245C55.3561 45.2164 45.4115 55.2621 33.1443 55.2621C20.8771 55.2621 10.9326 45.2164 10.9326 32.8245C10.9326 20.4325 20.8771 10.3868 33.1443 10.3868C45.4115 10.3868 55.3561 20.4325 55.3561 32.8245ZM15.5658 32.8245C15.5658 42.6316 23.436 50.5818 33.1443 50.5818C42.8527 50.5818 50.7229 42.6316 50.7229 32.8245C50.7229 23.0174 42.8527 15.0671 33.1443 15.0671C23.436 15.0671 15.5658 23.0174 15.5658 32.8245Z" fill="url(#paint1_linear_4796_110744)" fill-opacity="0.5"/>
<path fill-rule="evenodd" clip-rule="evenodd" d="M28.2071 26.415C28.2071 25.3501 28.6302 24.3289 29.3831 23.576C30.1361 22.823 31.1573 22.4 32.2221 22.4C33.287 22.4 34.3082 22.823 35.0611 23.576C35.8141 24.3289 36.2371 25.3501 36.2371 26.415C36.2371 27.4798 35.8141 28.501 35.0611 29.254C34.3082 30.0069 33.287 30.4299 32.2221 30.4299C31.1573 30.4299 30.1361 30.0069 29.3831 29.254C28.6302 28.501 28.2071 27.4798 28.2071 26.415V26.415ZM24.8622 38.9997C24.8923 37.0676 25.681 35.2248 27.0579 33.8691C28.4349 32.5134 30.2898 31.7535 32.2221 31.7535C34.1545 31.7535 36.0093 32.5134 37.3863 33.8691C38.7633 35.2248 39.5519 37.0676 39.582 38.9997C39.5843 39.1298 39.5487 39.2577 39.4794 39.3678C39.4102 39.4779 39.3103 39.5655 39.1921 39.6198C37.0054 40.6224 34.6277 41.1398 32.2221 41.1365C29.7364 41.1365 27.3747 40.5941 25.2521 39.6198C25.1339 39.5655 25.034 39.4779 24.9648 39.3678C24.8956 39.2577 24.8599 39.1298 24.8622 38.9997V38.9997Z" fill="#8E7AC8"/>
<defs>
<linearGradient id="paint0_linear_4796_110744" x1="11.7796" y1="5.99331" x2="46.8832" y2="61.3244" gradientUnits="userSpaceOnUse">
<stop stop-color="#D2E0ED"/>
<stop offset="0.109389" stop-color="#BFC8E7"/>
<stop offset="0.463563" stop-color="#CBCDFC"/>
<stop offset="0.739611" stop-color="#C3ADCB"/>
<stop offset="1" stop-color="#9699B5"/>
</linearGradient>
<linearGradient id="paint1_linear_4796_110744" x1="33.1443" y1="10.3868" x2="33.1443" y2="55.2621" gradientUnits="userSpaceOnUse">
<stop stop-color="white"/>
<stop offset="0.0001" stop-color="white" stop-opacity="0.81"/>
<stop offset="1" stop-color="white" stop-opacity="0"/>
</linearGradient>
</defs>
</svg>
