<svg width="14" height="14" viewBox="0 0 14 14" fill="none" xmlns="http://www.w3.org/2000/svg">
<g clip-path="url(#clip0_3432_98825)">
<path d="M7.39938 10.8445V12.3638C7.39938 12.715 7.68408 13 8.03559 13H10.5879C10.9392 13 11.2241 12.7153 11.2241 12.3638V10.8393C11.2241 10.4875 10.9384 10.2026 10.5867 10.2031L8.03435 10.2083C7.68358 10.2091 7.39963 10.4935 7.39963 10.8445H7.39938Z" stroke="#939393" stroke-width="0.7" stroke-linecap="round" stroke-linejoin="round"/>
<path d="M10.5173 11.3999C10.7238 11.3999 10.8912 11.2325 10.8912 11.026C10.8912 10.8194 10.7238 10.652 10.5173 10.652C10.3108 10.652 10.1434 10.8194 10.1434 11.026C10.1434 11.2325 10.3108 11.3999 10.5173 11.3999Z" fill="#939393"/>
<path d="M7.98442 10.2083L8.02506 8.85681C8.03154 8.63768 8.11156 8.42777 8.25117 8.25875C8.41546 8.05981 8.68171 7.77511 9.07809 7.45052C9.19451 7.35529 9.35755 7.25283 9.50663 7.23338C9.6779 7.2112 9.88931 7.20247 9.97307 7.12768C10.0439 7.06436 10.6474 6.45084 10.9286 6.16464C11.0411 6.05022 11.1936 5.98166 11.3539 5.97917C11.597 5.97568 11.9021 6.06044 11.8593 6.52114C11.846 6.66224 11.7822 6.79362 11.6823 6.89409C11.3315 7.2471 10.4173 8.15703 10.4173 8.15703" stroke="#939393" stroke-width="0.7" stroke-linecap="round" stroke-linejoin="round"/>
<path d="M11.5307 5.99566L11.6591 5.49531C11.7217 5.25125 11.7511 4.99996 11.7463 4.74817L11.7356 4.18052C11.7306 3.92249 11.8391 3.67195 12.0395 3.50966C12.2048 3.37578 12.4292 3.29028 12.6954 3.42888C12.7911 3.47874 12.8512 3.57772 12.8537 3.68541C12.8642 4.12443 12.8869 4.79529 12.9016 5.21112C12.9103 5.46166 12.9003 5.71245 12.8717 5.9615L12.7602 6.92878C12.7144 7.32815 12.5516 7.70684 12.2848 8.00774C12.2048 8.09823 12.1106 8.19122 11.9999 8.28371C11.6381 8.58661 10.7604 9.3891 10.5824 10.2148" stroke="#939393" stroke-width="0.7" stroke-linecap="round" stroke-linejoin="round"/>
<path d="M6.50501 10.8445V12.3638C6.50501 12.715 6.22031 13 5.8688 13H3.31649C2.96523 13 2.68028 12.7153 2.68028 12.3638V10.8393C2.68028 10.4875 2.96598 10.2026 3.31774 10.2031L5.87005 10.2083C6.22081 10.2091 6.50476 10.4935 6.50476 10.8445H6.50501Z" stroke="#939393" stroke-width="0.7" stroke-linecap="round" stroke-linejoin="round"/>
<path d="M3.38776 11.3999C3.59428 11.3999 3.7617 11.2325 3.7617 11.026C3.7617 10.8194 3.59428 10.652 3.38776 10.652C3.18123 10.652 3.01381 10.8194 3.01381 11.026C3.01381 11.2325 3.18123 11.3999 3.38776 11.3999Z" fill="#939393"/>
<path d="M5.92007 10.2083L5.87943 8.85681C5.87295 8.63768 5.79293 8.42777 5.65332 8.25875C5.48903 8.05981 5.22278 7.77511 4.8264 7.45052C4.70998 7.35529 4.54694 7.25283 4.39786 7.23338C4.22659 7.2112 4.01518 7.20247 3.93142 7.12768C3.86062 7.06436 3.25707 6.45084 2.97586 6.16464C2.86343 6.05022 2.71086 5.98166 2.55056 5.97917C2.30749 5.97568 2.00235 6.06044 2.04523 6.52114C2.05844 6.66224 2.12227 6.79362 2.22223 6.89409C2.573 7.2471 3.48717 8.15703 3.48717 8.15703" stroke="#939393" stroke-width="0.7" stroke-linecap="round" stroke-linejoin="round"/>
<path d="M2.37394 5.99569L2.24555 5.49535C2.18298 5.25128 2.15356 4.99999 2.1583 4.7482L2.16902 4.18055C2.17401 3.92253 2.06556 3.67198 1.86513 3.50969C1.69984 3.37581 1.47547 3.29031 1.20922 3.42892C1.11349 3.47877 1.05341 3.57775 1.05092 3.68544C1.04045 4.12446 1.01776 4.79532 1.00305 5.21115C0.994328 5.46169 1.0043 5.71248 1.03297 5.96153L1.14441 6.92881C1.19028 7.32818 1.35307 7.70687 1.61982 8.00777C1.69984 8.09826 1.79408 8.19125 1.90476 8.28374C2.2665 8.58664 3.14427 9.38913 3.32227 10.2148" stroke="#939393" stroke-width="0.7" stroke-linecap="round" stroke-linejoin="round"/>
<path d="M6.98313 4.75739C7.54336 4.75739 7.99752 4.30323 7.99752 3.743C7.99752 3.18277 7.54336 2.72861 6.98313 2.72861C6.42289 2.72861 5.96873 3.18277 5.96873 3.743C5.96873 4.30323 6.42289 4.75739 6.98313 4.75739Z" stroke="#939393" stroke-width="0.7" stroke-linecap="round" stroke-linejoin="round"/>
<path d="M9.54902 3.09061L9.30146 3.29429C9.01901 3.52663 9.01901 3.95917 9.30146 4.19151L9.54902 4.39519C9.63677 4.46748 9.65946 4.59238 9.60262 4.69085L9.11374 5.53747C9.0569 5.63594 8.93724 5.67882 8.83079 5.63893L8.53064 5.5265C8.1881 5.39811 7.81366 5.61425 7.75357 5.97524L7.70097 6.2916C7.68227 6.40378 7.5853 6.4858 7.47162 6.4858H6.49387C6.38019 6.4858 6.28322 6.40353 6.26452 6.2916L6.21192 5.97524C6.15184 5.6145 5.77739 5.39836 5.43485 5.5265L5.1347 5.63893C5.02825 5.67882 4.90859 5.63594 4.85175 5.53747L4.36287 4.69085C4.30603 4.59238 4.32872 4.46748 4.41647 4.39519L4.66403 4.19151C4.94648 3.95917 4.94648 3.52663 4.66403 3.29429L4.41647 3.09061C4.32872 3.01832 4.30603 2.89342 4.36287 2.79494L4.85175 1.94833C4.90859 1.84986 5.02825 1.80698 5.1347 1.84686L5.43485 1.9593C5.77739 2.08769 6.15184 1.87155 6.21192 1.51056L6.26452 1.1942C6.28322 1.08202 6.38019 1 6.49387 1H7.47162C7.5853 1 7.68227 1.08227 7.70097 1.1942L7.75357 1.51056C7.81366 1.8713 8.1881 2.08744 8.53064 1.9593L8.83079 1.84686C8.93724 1.80698 9.0569 1.84986 9.11374 1.94833L9.60262 2.79494C9.65946 2.89342 9.63677 3.01832 9.54902 3.09061Z" stroke="#939393" stroke-width="0.7" stroke-linecap="round" stroke-linejoin="round"/>
</g>
<defs>
<clipPath id="clip0_3432_98825">
<rect width="14" height="14" fill="white"/>
</clipPath>
</defs>
</svg>
