<svg width="21" height="20" viewBox="0 0 21 20" fill="none" xmlns="http://www.w3.org/2000/svg">
<path d="M17 12.25H17.625V16.9375C17.6251 17.2119 17.5529 17.4814 17.4157 17.719L16.8747 17.406C16.9569 17.2635 17.0001 17.102 17 16.9375V12.25ZM17.625 7.5625V3.1875C17.6243 2.60754 17.3937 2.05152 16.9836 1.64142C16.5735 1.23133 16.0175 1.00065 15.4375 1H6.6875C6.3069 0.999843 5.93936 1.13876 5.65402 1.39063L6.06754 1.85938C6.2387 1.70827 6.45918 1.62492 6.6875 1.625H15.4375C15.8518 1.62547 16.2489 1.79023 16.5418 2.08316C16.8348 2.37608 16.9995 2.77324 17 3.1875V7.5625H17.625ZM15.75 7.25V6H13.875C13.4607 5.99953 13.0636 5.83477 12.7707 5.54184C12.4777 5.24892 12.313 4.85176 12.3125 4.4375V2.875H5.4375C5.18895 2.87529 4.95066 2.97415 4.77491 3.14991C4.59915 3.32566 4.50029 3.56395 4.5 3.8125V12.25H3.875V3.8125C3.87547 3.39824 4.04023 3.00108 4.33316 2.70816C4.62608 2.41523 5.02324 2.25047 5.4375 2.25H12.625C12.7027 2.25001 12.7777 2.27898 12.8352 2.33125L16.2727 5.45625C16.305 5.48554 16.3307 5.52125 16.3483 5.56107C16.3659 5.60089 16.375 5.64396 16.375 5.6875V7.25H15.75ZM15.2542 5.375L12.9375 3.26891V4.4375C12.9378 4.68605 13.0367 4.92434 13.2124 5.10009C13.3882 5.27585 13.6264 5.37471 13.875 5.375H15.2542ZM15.75 18.1875C15.7497 18.4361 15.6508 18.6743 15.4751 18.8501C15.2993 19.0258 15.0611 19.1247 14.8125 19.125H5.4375C5.18895 19.1247 4.95066 19.0258 4.77491 18.8501C4.59915 18.6743 4.50029 18.4361 4.5 18.1875V16.625H3.875V18.1875C3.87547 18.6018 4.04023 18.9989 4.33316 19.2918C4.62608 19.5848 5.02324 19.7495 5.4375 19.75H14.8125C15.2268 19.7495 15.6239 19.5848 15.9168 19.2918C16.2098 18.9989 16.3745 18.6018 16.375 18.1875V11.9375H15.75V18.1875ZM6.6875 8.8125V9.4375H8.25V8.8125H6.6875ZM6.0625 8.8125H5.4375V9.4375H6.0625V8.8125ZM6.6875 10.6875H8.5625V10.0625H6.6875V10.6875ZM6.0625 10.0625H5.4375V10.6875H6.0625V10.0625ZM6.6875 11.9375H8.875V11.3125H6.6875V11.9375ZM5.4375 11.9375H6.0625V11.3125H5.4375V11.9375ZM12.3125 13.1875H12.9375V12.5625H12.3125V13.1875ZM15.125 12.5625H13.5625V13.1875H15.125V12.5625ZM12.3125 14.4375H12.9375V13.8125H12.3125V14.4375ZM13.5625 14.4375H15.125V13.8125H13.5625V14.4375ZM13.5625 15.6875H15.125V15.0625H13.5625V15.6875ZM12.3125 16.3125V16.9375H12.9375V16.3125H12.3125ZM13.5625 16.9375H15.125V16.3125H13.5625V16.9375ZM9.1875 7.5625H5.4375V8.1875H9.1875V7.5625ZM11.0625 18.1875H15.125V17.5625H11.0625V18.1875ZM5.4375 18.1875H8.875V17.5625H5.4375V18.1875ZM9.1875 6.9375H10.4375V6.3125H9.1875V6.9375ZM12 5.0625H9.1875V5.6875H12V5.0625ZM5.59375 6.9375C5.55231 6.9375 5.51257 6.92104 5.48326 6.89174C5.45396 6.86243 5.4375 6.82269 5.4375 6.78125V4.75C5.4375 4.69197 5.45366 4.63508 5.48417 4.58572C5.51468 4.53636 5.55833 4.49646 5.61023 4.47051L6.86023 3.84551C6.90363 3.82381 6.95148 3.81251 7 3.81251C7.04852 3.81251 7.09637 3.82381 7.13977 3.84551L8.38977 4.47051C8.44167 4.49646 8.48532 4.53636 8.51583 4.58572C8.54634 4.63508 8.5625 4.69197 8.5625 4.75V6.78125C8.5625 6.82269 8.54604 6.86243 8.51674 6.89174C8.48743 6.92104 8.44769 6.9375 8.40625 6.9375H5.59375ZM7.9375 5.6875H7.3125V6.3125H7.9375V5.6875ZM6.0625 5.0625H7.9375V4.94313L7 4.47438L6.0625 4.94313V5.0625ZM6.0625 6.3125H6.6875V5.6875H6.0625V6.3125ZM19.5 12.5625C19.5 12.8388 19.1561 12.973 18.9665 12.7835C18.5013 12.3157 17.9478 11.9448 17.3383 11.6923C16.7287 11.4398 16.0751 11.3107 15.4153 11.3125H12V12.25C12 12.3134 11.9807 12.3752 11.9447 12.4274C11.9088 12.4796 11.8578 12.5195 11.7985 12.5421C11.7393 12.5646 11.6746 12.5686 11.6131 12.5535C11.5515 12.5384 11.496 12.5049 11.4539 12.4576L8.95395 9.64508C8.90312 9.58788 8.87504 9.51402 8.87504 9.4375C8.87504 9.36098 8.90312 9.28712 8.95395 9.22992L11.4539 6.41742C11.496 6.37006 11.5515 6.33662 11.6131 6.32154C11.6746 6.30645 11.7393 6.31043 11.7985 6.33294C11.8578 6.35546 11.9088 6.39545 11.9447 6.44761C11.9807 6.49977 12 6.56163 12 6.625V7.5625H14.5C15.8256 7.56401 17.0965 8.09128 18.0339 9.02863C18.9712 9.96599 19.4985 11.2369 19.5 12.5625ZM18.8125 11.8222C18.6365 10.8056 18.1076 9.88373 17.3187 9.21885C16.5298 8.55398 15.5317 8.18876 14.5 8.1875H11.6875C11.6046 8.1875 11.5251 8.15458 11.4665 8.09597C11.4079 8.03737 11.375 7.95788 11.375 7.875V7.44695L9.60547 9.4375L11.375 11.428V11C11.375 10.9171 11.4079 10.8376 11.4665 10.779C11.5251 10.7204 11.6046 10.6875 11.6875 10.6875H15.4153C16.6413 10.684 17.8347 11.0826 18.8125 11.8222ZM7 16.9375C5.67438 16.936 4.40349 16.4087 3.46613 15.4714C2.52878 14.534 2.00151 13.2631 2 11.9375C2 11.8757 2.01832 11.8153 2.05266 11.7639C2.087 11.7125 2.13581 11.6724 2.19291 11.6488C2.25001 11.6251 2.31285 11.6189 2.37347 11.631C2.43409 11.6431 2.48977 11.6728 2.53348 11.7165C2.99874 12.1843 3.55217 12.5552 4.16174 12.8077C4.7713 13.0602 5.4249 13.1893 6.08469 13.1875H9.5V12.25C9.50001 12.1866 9.51928 12.1248 9.55526 12.0726C9.59124 12.0204 9.64223 11.9805 9.70146 11.9579C9.76069 11.9354 9.82536 11.9314 9.88691 11.9465C9.94845 11.9616 10.004 11.9951 10.0461 12.0424L12.5461 14.8549C12.5969 14.9121 12.625 14.986 12.625 15.0625C12.625 15.139 12.5969 15.2129 12.5461 15.2701L10.0461 18.0826C10.004 18.1299 9.94845 18.1634 9.88691 18.1785C9.82536 18.1936 9.76069 18.1896 9.70146 18.1671C9.64223 18.1445 9.59124 18.1046 9.55526 18.0524C9.51928 18.0002 9.50001 17.9384 9.5 17.875V16.9375H7ZM7 16.3125H9.8125C9.89538 16.3125 9.97487 16.3454 10.0335 16.404C10.0921 16.4626 10.125 16.5421 10.125 16.625V17.053L11.8945 15.0625L10.125 13.072V13.5C10.125 13.5829 10.0921 13.6624 10.0335 13.721C9.97487 13.7796 9.89538 13.8125 9.8125 13.8125H6.08469C4.85866 13.816 3.6653 13.4174 2.6875 12.6778C2.86345 13.6944 3.39243 14.6163 4.1813 15.2811C4.97016 15.946 5.96832 16.3112 7 16.3125Z" fill="black"/>
</svg>
