<svg width="18" height="18" viewBox="0 0 18 18" fill="none" xmlns="http://www.w3.org/2000/svg">
<path d="M6.97564 2.47505C6.97564 2.29603 6.90452 2.12434 6.77793 1.99775C6.65135 1.87116 6.47966 1.80005 6.30064 1.80005C6.12161 1.80005 5.94993 1.87116 5.82334 1.99775C5.69675 2.12434 5.62564 2.29603 5.62564 2.47505V3.60725C4.54218 3.63147 3.46086 3.71499 2.38654 3.85745C2.29866 3.86915 2.21395 3.89804 2.13725 3.94248C2.06054 3.98692 1.99333 4.04603 1.93947 4.11644C1.88561 4.18685 1.84614 4.26718 1.82332 4.35284C1.80051 4.43851 1.79479 4.52782 1.80649 4.6157C1.81819 4.70357 1.84708 4.78828 1.89152 4.86499C1.93596 4.9417 1.99507 5.0089 2.06548 5.06276C2.13589 5.11663 2.21622 5.15609 2.30188 5.17891C2.38754 5.20173 2.47686 5.20745 2.56474 5.19575C4.30988 4.96423 6.07277 4.89554 7.83064 4.99055C7.45818 6.24876 6.94493 7.46093 6.30064 8.60405C5.96413 8.00726 5.66301 7.39119 5.39884 6.75905C5.32683 6.59858 5.19502 6.47255 5.03149 6.40779C4.86795 6.34304 4.6856 6.34468 4.52325 6.41237C4.36091 6.48005 4.23139 6.60843 4.16228 6.77017C4.09317 6.93192 4.08993 7.11425 4.15324 7.27835C4.53186 8.18503 4.98083 9.0607 5.49604 9.89735C4.53405 11.3033 3.37362 12.5625 2.05084 13.6359C1.97898 13.6907 1.91886 13.7594 1.87403 13.8379C1.82921 13.9164 1.8006 14.003 1.7899 14.0928C1.7792 14.1825 1.78663 14.2735 1.81175 14.3603C1.83686 14.4471 1.87916 14.528 1.93611 14.5981C1.99307 14.6683 2.06354 14.7263 2.14334 14.7687C2.22313 14.8111 2.31063 14.8371 2.40065 14.8451C2.49067 14.853 2.58137 14.8428 2.66738 14.8151C2.75338 14.7873 2.83294 14.7426 2.90134 14.6835C4.18564 13.6414 5.32839 12.436 6.30064 11.0979C6.38614 11.2167 6.47344 11.3337 6.56164 11.4498C6.67024 11.5924 6.83101 11.6859 7.00857 11.7098C7.18613 11.7338 7.36593 11.6863 7.50844 11.5776C7.65094 11.469 7.74446 11.3083 7.76842 11.1307C7.79239 10.9532 7.74484 10.7734 7.63624 10.6308C7.45264 10.3914 7.27624 10.1466 7.10524 9.89735C8.02565 8.40357 8.73241 6.7883 9.20494 5.09855C9.48394 5.12645 9.76114 5.15975 10.0365 5.19575C10.214 5.21938 10.3936 5.17154 10.5358 5.06276C10.678 4.95398 10.7712 4.79317 10.7948 4.6157C10.8184 4.43823 10.7706 4.25864 10.6618 4.11644C10.553 3.97424 10.3922 3.88108 10.2147 3.85745C9.14044 3.71471 8.05911 3.63119 6.97564 3.60725V2.47505Z" fill="#707070"/>
<path fill-rule="evenodd" clip-rule="evenodd" d="M11.7016 7.19995C11.827 7.19996 11.9499 7.2349 12.0566 7.30088C12.1633 7.36685 12.2494 7.46124 12.3055 7.57345L16.1305 15.2235C16.1709 15.3028 16.1952 15.3894 16.2019 15.4783C16.2087 15.5671 16.1979 15.6564 16.17 15.741C16.1421 15.8256 16.0977 15.9038 16.0394 15.9712C15.9812 16.0386 15.9101 16.0938 15.8304 16.1336C15.7507 16.1734 15.6639 16.197 15.575 16.2031C15.4862 16.2092 15.397 16.1976 15.3126 16.169C15.2282 16.1405 15.1503 16.0955 15.0834 16.0367C15.0165 15.9779 14.9618 15.9065 14.9227 15.8265L14.2099 14.4H9.19416L8.48046 15.8265C8.44129 15.9065 8.38667 15.9779 8.31975 16.0367C8.25283 16.0955 8.17493 16.1405 8.09054 16.169C8.00616 16.1976 7.91695 16.2092 7.82808 16.2031C7.7392 16.197 7.65241 16.1734 7.57271 16.1336C7.49301 16.0938 7.42197 16.0386 7.36369 15.9712C7.30541 15.9038 7.26105 15.8256 7.23316 15.741C7.20527 15.6564 7.1944 15.5671 7.20118 15.4783C7.20796 15.3894 7.23225 15.3028 7.27266 15.2235L11.0977 7.57345C11.1537 7.46124 11.2399 7.36685 11.3465 7.30088C11.4532 7.2349 11.5761 7.19996 11.7016 7.19995ZM13.5349 13.05L11.7016 9.38425L9.86916 13.05H13.5349Z" fill="#707070"/>
</svg>
