<svg width="29" height="24" viewBox="0 0 29 24" fill="none" xmlns="http://www.w3.org/2000/svg">
<path d="M12.5633 1.57236C13.4589 0.142549 15.5417 0.142548 16.4373 1.57235L27.9796 20.0014C28.933 21.5235 27.8388 23.5 26.0427 23.5H2.95793C1.16185 23.5 0.0676149 21.5235 1.02098 20.0014L12.5633 1.57236Z" fill="#DC3545" stroke="#FEF2F2"/>
<path d="M15.088 16.5087H13.9015L13.5317 8.48047H15.4579L15.088 16.5087ZM15.7198 18.4657C15.7198 19.1283 15.1959 19.6214 14.5025 19.6214C13.8091 19.6214 13.2852 19.1283 13.2852 18.4657C13.2852 17.7723 13.8091 17.2792 14.5025 17.2792C15.2113 17.2792 15.7198 17.7723 15.7198 18.4657Z" fill="#FEF2F2"/>
</svg>
