<svg width="20" height="20" viewBox="0 0 20 20" fill="none" xmlns="http://www.w3.org/2000/svg">
<rect x="3" y="3" width="15" height="15" rx="7.5" stroke="#939393" stroke-width="1.58"/>
<path d="M11.2426 14.168C11.0589 14.1851 10.8745 14.1437 10.7157 14.0496C10.5998 13.9305 10.5442 13.7653 10.5647 13.6003C10.5689 13.4631 10.5853 13.3264 10.6137 13.192C10.6411 13.0378 10.6765 12.8851 10.7198 12.7346L11.2017 11.0765C11.2514 10.9129 11.2843 10.7446 11.2997 10.5742C11.2997 10.3905 11.3242 10.2638 11.3242 10.1903C11.3345 9.86279 11.1946 9.54848 10.9444 9.33682C10.6367 9.10056 10.2534 8.98443 9.8663 9.01012C9.58887 9.01429 9.31358 9.05971 9.04953 9.14488C8.76094 9.23473 8.45736 9.34226 8.13884 9.46751L8 10.0066C8.09392 9.97391 8.20829 9.93716 8.33895 9.89631C8.46361 9.85939 8.59283 9.84012 8.72282 9.83914C8.90518 9.81938 9.08873 9.86416 9.24146 9.96573C9.34521 10.0895 9.39388 10.2503 9.37623 10.4109C9.37577 10.5482 9.36072 10.6851 9.33131 10.8192C9.3027 10.9622 9.26596 11.1133 9.22104 11.2725L8.73507 12.9387C8.69591 13.0936 8.66457 13.2503 8.64116 13.4084C8.62207 13.5437 8.61252 13.6801 8.61255 13.8167C8.61055 14.1465 8.76136 14.4587 9.02092 14.6621C9.33341 14.902 9.72213 15.021 10.1154 14.997C10.3923 15.0026 10.6682 14.9626 10.9321 14.8785C11.1636 14.7996 11.4726 14.6866 11.8592 14.5396L11.9899 14.025C11.8852 14.0684 11.7773 14.1039 11.6673 14.1312C11.5281 14.163 11.3852 14.1753 11.2426 14.168Z" fill="#939393"/>
<path d="M11.753 6.30665C11.5308 6.10254 11.2379 5.99272 10.9363 6.00037C10.6347 5.99357 10.3422 6.10327 10.1195 6.30665C9.71125 6.65866 9.66566 7.27497 10.0177 7.68323C10.0491 7.71963 10.0831 7.75363 10.1195 7.78501C10.5846 8.20099 11.2879 8.20099 11.753 7.78501C12.1612 7.42953 12.204 6.81045 11.8485 6.40222C11.819 6.36821 11.787 6.33627 11.753 6.30665Z" fill="#939393"/>
</svg>
