<svg width="20" height="20" viewBox="0 0 20 20" fill="none" xmlns="http://www.w3.org/2000/svg">
<path d="M12.25 7H12.2575" stroke="#939393" stroke-width="1.5" stroke-linecap="round" stroke-linejoin="round"/>
<path d="M3.25 5.5C3.25 4.90326 3.48705 4.33097 3.90901 3.90901C4.33097 3.48705 4.90326 3.25 5.5 3.25H14.5C15.0967 3.25 15.669 3.48705 16.091 3.90901C16.5129 4.33097 16.75 4.90326 16.75 5.5V14.5C16.75 15.0967 16.5129 15.669 16.091 16.091C15.669 16.5129 15.0967 16.75 14.5 16.75H5.5C4.90326 16.75 4.33097 16.5129 3.90901 16.091C3.48705 15.669 3.25 15.0967 3.25 14.5V5.5Z" stroke="#939393" stroke-width="1.5" stroke-linecap="round" stroke-linejoin="round"/>
<path d="M3.25 13L7 9.25002C7.696 8.58027 8.554 8.58027 9.25 9.25002L13 13" stroke="#939393" stroke-width="1.5" stroke-linecap="round" stroke-linejoin="round"/>
<path d="M11.5 11.5L12.25 10.75C12.946 10.0803 13.804 10.0803 14.5 10.75L16.75 13" stroke="#939393" stroke-width="1.5" stroke-linecap="round" stroke-linejoin="round"/>
</svg>
