<svg width="18" height="19" viewBox="0 0 18 19" fill="none" xmlns="http://www.w3.org/2000/svg">
<g id="Frame">
<path id="Vector" d="M5.0625 2.64722V4.33472M12.9375 2.64722V4.33472M2.25 14.4597V6.02222C2.25 5.57466 2.42779 5.14544 2.74426 4.82897C3.06072 4.51251 3.48995 4.33472 3.9375 4.33472H14.0625C14.5101 4.33472 14.9393 4.51251 15.2557 4.82897C15.5722 5.14544 15.75 5.57466 15.75 6.02222V14.4597M2.25 14.4597C2.25 14.9073 2.42779 15.3365 2.74426 15.653C3.06072 15.9694 3.48995 16.1472 3.9375 16.1472H14.0625C14.5101 16.1472 14.9393 15.9694 15.2557 15.653C15.5722 15.3365 15.75 14.9073 15.75 14.4597M2.25 14.4597V8.83472C2.25 8.38716 2.42779 7.95794 2.74426 7.64147C3.06072 7.32501 3.48995 7.14722 3.9375 7.14722H14.0625C14.5101 7.14722 14.9393 7.32501 15.2557 7.64147C15.5722 7.95794 15.75 8.38716 15.75 8.83472V14.4597M9 9.95972H9.006V9.96572H9V9.95972ZM9 11.6472H9.006V11.6532H9V11.6472ZM9 13.3347H9.006V13.3407H9V13.3347ZM7.3125 11.6472H7.3185V11.6532H7.3125V11.6472ZM7.3125 13.3347H7.3185V13.3407H7.3125V13.3347ZM5.625 11.6472H5.631V11.6532H5.625V11.6472ZM5.625 13.3347H5.631V13.3407H5.625V13.3347ZM10.6875 9.95972H10.6935V9.96572H10.6875V9.95972ZM10.6875 11.6472H10.6935V11.6532H10.6875V11.6472ZM10.6875 13.3347H10.6935V13.3407H10.6875V13.3347ZM12.375 9.95972H12.381V9.96572H12.375V9.95972ZM12.375 11.6472H12.381V11.6532H12.375V11.6472Z" stroke="#939393" stroke-width="1.5" stroke-linecap="round" stroke-linejoin="round"/>
</g>
</svg>
