<svg width="14" height="14" viewBox="0 0 14 14" fill="none" xmlns="http://www.w3.org/2000/svg">
<path d="M6.88704 3.9126C5.60053 3.9126 4.55847 4.95566 4.55847 6.2405C4.55847 7.52535 5.60053 8.56974 6.88704 8.56974C8.17355 8.56974 9.21561 7.52668 9.21561 6.2405C9.21561 4.95433 8.17355 3.9126 6.88704 3.9126Z" stroke="#939393" stroke-linecap="round" stroke-linejoin="round"/>
<path d="M9.17895 6.65581H9.21558C10.5021 6.65581 11.5441 5.61375 11.5441 4.3279C11.5441 3.04206 10.5021 2 9.21558 2C8.07128 2 7.1198 2.82559 6.92331 3.91394" stroke="#939393" stroke-linecap="round" stroke-linejoin="round"/>
<path d="M6.85039 3.91394C6.65524 2.82559 5.70243 2 4.55812 2C3.27161 2 2.22955 3.04206 2.22955 4.3279C2.22955 5.61375 3.27161 6.65581 4.55812 6.65581H4.59476" stroke="#939393" stroke-linecap="round" stroke-linejoin="round"/>
<path d="M5.42701 8.05524C4.19212 8.61507 3.32857 9.85961 3.32857 11.298V12H10.4455V11.298C10.4455 9.85961 9.58194 8.61507 8.34705 8.05524" stroke="#939393" stroke-linecap="round" stroke-linejoin="round"/>
<path d="M10.2327 10.086H12.7754V9.38401C12.7754 7.94697 11.9105 6.7011 10.676 6.14127" stroke="#939393" stroke-linecap="round" stroke-linejoin="round"/>
<path d="M3.09811 6.14127C1.86322 6.7011 1 7.94697 1 9.38401V10.086H3.54138" stroke="#939393" stroke-linecap="round" stroke-linejoin="round"/>
</svg>
