<svg width="20" height="21" viewBox="0 0 20 21" fill="none" xmlns="http://www.w3.org/2000/svg">
<rect y="0.5" width="20" height="20" rx="10" fill="#FAFAFA"/>
<path id="hw6" d="M12.0406 5.47443C12.1939 4.84186 13.0936 4.84186 13.2469 5.47443C13.3277 5.80774 13.6634 6.0126 13.9967 5.93182C14.059 5.91674 14.1189 5.89192 14.1739 5.85835C14.7296 5.51968 15.366 6.15566 15.0274 6.71183C14.8488 7.00476 14.9417 7.38674 15.2346 7.56532C15.2891 7.5984 15.3485 7.62322 15.4108 7.6383C16.0434 7.79158 16.0434 8.69129 15.4108 8.84457C15.0775 8.92534 14.8726 9.26109 14.9534 9.59441C14.9685 9.65669 14.9933 9.71654 15.0269 9.77153C15.3655 10.3272 14.7296 10.9637 14.1734 10.625C13.8805 10.4464 13.4985 10.5394 13.3199 10.8323C13.2868 10.8868 13.262 10.9462 13.2469 11.0084C13.0936 11.641 12.1939 11.641 12.0406 11.0084C11.9599 10.6751 11.6241 10.4703 11.2908 10.551C11.2285 10.5661 11.1687 10.5909 11.1137 10.6245C10.558 10.9632 9.92154 10.3272 10.2602 9.77104C10.4388 9.47811 10.3458 9.09614 10.0529 8.91756C9.99842 8.88447 9.93906 8.85965 9.87677 8.84457C9.2442 8.69129 9.2442 7.79158 9.87677 7.6383C10.2101 7.55753 10.4149 7.22178 10.3342 6.88847C10.3191 6.82618 10.2943 6.76633 10.2607 6.71135C9.92202 6.15566 10.558 5.51919 11.1142 5.85786C11.4743 6.07683 11.9409 5.88317 12.0406 5.47443Z" stroke="#939393" stroke-width="0.8" stroke-linecap="round" stroke-linejoin="round"/>
<path id="hw5" d="M11.5635 8.24064C11.5635 8.83733 12.0473 9.32111 12.644 9.32111C13.2407 9.32111 13.7244 8.83733 13.7244 8.24064C13.7244 7.64394 13.2407 7.16016 12.644 7.16016C12.0473 7.16016 11.5635 7.64394 11.5635 8.24064Z" stroke="#939393" stroke-width="0.8" stroke-linecap="round" stroke-linejoin="round"/>
<path id="hw4" d="M11.0337 14.0861L13.3836 13.8262" stroke="#939393" stroke-width="0.8" stroke-linecap="round" stroke-linejoin="round"/>
<path id="hw3" d="M11.0337 14.0861L13.3836 13.8262" stroke="#939393" stroke-width="0.8" stroke-linecap="round" stroke-linejoin="round"/>
<path id="hw2" d="M6.19581 14.5664L7.16316 16.0804C7.28129 16.2654 7.22714 16.5109 7.04237 16.6291L6.55976 16.9373C6.37473 17.0554 6.12918 17.0013 6.01105 16.8165L4.06254 13.7674C3.94441 13.5824 3.99857 13.3368 4.18333 13.2187L4.66594 12.9102C4.85097 12.7921 5.09652 12.8462 5.21466 13.031L5.65878 13.726" stroke="#939393" stroke-width="0.8" stroke-linecap="round" stroke-linejoin="round"/>
<path id="hw1" d="M7.07859 15.9466L7.56067 15.4785C7.71915 15.3248 7.94692 15.2662 8.15982 15.324L9.90976 15.8008C10.103 15.8669 10.3077 15.8858 10.5086 15.856L13.9268 15.349C14.1397 15.3174 14.3419 15.2319 14.5164 15.1003L16.8134 13.3631C16.9955 13.1764 17.0175 12.8754 16.8644 12.6601C16.6969 12.4247 16.3807 12.3747 16.1572 12.5489L14.6634 13.422C14.27 13.6519 13.8338 13.7894 13.3847 13.8255L13.3897 13.4982C13.3348 13.1058 13.0327 12.8024 12.6581 12.7637L10.939 12.633C10.5418 12.5919 10.3385 12.4616 9.98515 12.2648C9.64031 12.0729 9.00506 11.8494 8.66261 11.7634C8.06134 11.6123 7.42396 11.7249 6.89728 12.0519L5.24609 13.078" stroke="#939393" stroke-width="0.8" stroke-linecap="round" stroke-linejoin="round"/>
</svg>
