<svg width="13" height="13" viewBox="0 0 13 13" fill="none" xmlns="http://www.w3.org/2000/svg">
<path d="M7.0384 10.9005H1.96076C1.43165 10.9005 1 10.4688 1 9.9397V3.69709C1 3.16797 1.43165 2.73633 1.96076 2.73633H9.98565C10.5148 2.73633 10.9464 3.16797 10.9464 3.69709V7.81397" stroke="#939393" stroke-width="0.8" stroke-miterlimit="10"/>
<path d="M8.6626 1V2.73586" stroke="#939393" stroke-width="0.8" stroke-miterlimit="10" stroke-linecap="round"/>
<path d="M3.29736 1V2.73586" stroke="#939393" stroke-width="0.8" stroke-miterlimit="10" stroke-linecap="round"/>
<path d="M1 4.91211H10.9511" stroke="#939393" stroke-width="0.8" stroke-miterlimit="10"/>
<path fill-rule="evenodd" clip-rule="evenodd" d="M11.6054 9.50291C11.6054 10.8814 10.4869 12 9.10837 12C7.72989 12 6.61597 10.8814 6.61133 9.50291C6.61133 8.12442 7.72989 7.00586 9.10837 7.00586C10.4869 7.00586 11.6054 8.12442 11.6054 9.50291Z" stroke="#939393" stroke-width="0.8" stroke-miterlimit="10"/>
<path d="M7.74414 9.41546L8.626 10.2602C8.7049 10.3344 8.83022 10.3344 8.90448 10.2602L10.4733 8.69141" stroke="#939393" stroke-width="0.8" stroke-miterlimit="10" stroke-linecap="round"/>
</svg>
