<svg width="13" height="11" viewBox="0 0 13 11" fill="none" xmlns="http://www.w3.org/2000/svg">
<path d="M6.49214 2.41211C5.20564 2.41211 4.16357 3.45517 4.16357 4.74001C4.16357 6.02486 5.20564 7.06925 6.49214 7.06925C7.77865 7.06925 8.82072 6.02619 8.82072 4.74001C8.82072 3.45384 7.77865 2.41211 6.49214 2.41211Z" stroke="#939393" stroke-width="0.8" stroke-linecap="round" stroke-linejoin="round"/>
<path d="M8.78445 5.15581H8.82108C10.1076 5.15581 11.1496 4.11375 11.1496 2.82791C11.1496 1.54206 10.1076 0.5 8.82108 0.5C7.67678 0.5 6.7253 1.32559 6.52881 2.41394" stroke="#939393" stroke-width="0.8" stroke-linecap="round" stroke-linejoin="round"/>
<path d="M6.4558 2.41394C6.26064 1.32559 5.30784 0.5 4.16353 0.5C2.87702 0.5 1.83496 1.54206 1.83496 2.82791C1.83496 4.11375 2.87702 5.15581 4.16353 5.15581H4.20017" stroke="#939393" stroke-width="0.8" stroke-linecap="round" stroke-linejoin="round"/>
<path d="M5.03253 6.55469C3.79764 7.11452 2.93408 8.35906 2.93408 9.79744V10.4995H10.051V9.79744C10.051 8.35906 9.18745 7.11452 7.95257 6.55469" stroke="#939393" stroke-width="0.8" stroke-linecap="round" stroke-linejoin="round"/>
<path d="M9.83838 8.58541H12.3811V7.88337C12.3811 6.44633 11.5162 5.20045 10.2816 4.64062" stroke="#939393" stroke-width="0.8" stroke-linecap="round" stroke-linejoin="round"/>
<path d="M2.70358 4.64062C1.46869 5.20045 0.605469 6.44633 0.605469 7.88337V8.58541H3.14685" stroke="#939393" stroke-width="0.8" stroke-linecap="round" stroke-linejoin="round"/>
</svg>
