<svg width="10" height="13" viewBox="0 0 10 13" fill="none" xmlns="http://www.w3.org/2000/svg">
<path d="M9.59658 3.92771V11.5435C9.59658 11.7956 9.39222 12 9.1401 12H1.83735C1.58523 12 1.38086 11.7956 1.38086 11.5435V1.45649C1.38086 1.20437 1.58523 1 1.83735 1H6.66905C6.79006 1 6.90611 1.0481 6.99169 1.13368L9.46291 3.6049C9.54849 3.69048 9.59658 3.80653 9.59658 3.92771Z" stroke="#939393" stroke-width="0.8" stroke-linecap="round" stroke-linejoin="round"/>
<path d="M9.52802 3.73914H7.3144C7.06228 3.73914 6.85791 3.53478 6.85791 3.28266V1.0918" stroke="#939393" stroke-width="0.8" stroke-linecap="round" stroke-linejoin="round"/>
<path d="M5.85693 5.54102H8.03804" stroke="#939393" stroke-width="0.8" stroke-linecap="round" stroke-linejoin="round"/>
<path d="M5.85693 7.82422H8.03804" stroke="#939393" stroke-width="0.8" stroke-linecap="round" stroke-linejoin="round"/>
<path d="M5.85693 10.1055H8.04779" stroke="#939393" stroke-width="0.8" stroke-linecap="round" stroke-linejoin="round"/>
<path d="M2.93115 5.45491L3.3594 5.88315L4.39081 4.85156" stroke="#939393" stroke-width="0.8" stroke-linecap="round" stroke-linejoin="round"/>
<path d="M2.93115 7.91176L3.3594 8.34001L4.39081 7.30859" stroke="#939393" stroke-width="0.8" stroke-linecap="round" stroke-linejoin="round"/>
<path d="M2.93115 10.193L3.3594 10.6213L4.39081 9.58984" stroke="#939393" stroke-width="0.8" stroke-linecap="round" stroke-linejoin="round"/>
</svg>
