<svg width="13" height="13" viewBox="0 0 13 13" fill="none" xmlns="http://www.w3.org/2000/svg">
<path d="M1.53955 11.999C3.63459 10.7418 4.68242 9.48467 4.68242 8.22752C4.68242 6.3418 4.05385 6.3418 3.42527 6.3418C2.7967 6.3418 2.14801 7.0238 2.16812 8.22752C2.1895 9.51484 3.2103 10.0359 3.73956 10.7418C4.68242 11.999 5.31099 12.3132 5.93957 11.3704C6.35882 10.7418 6.67311 10.2182 6.88243 9.79895C7.511 11.2654 8.34889 11.999 9.39672 11.999H10.9682" stroke="#939393" stroke-width="0.8" stroke-linecap="round" stroke-linejoin="round"/>
<path d="M12.2247 10.7434V3.20051C12.2247 2.49588 11.6722 1.94336 10.9676 1.94336C10.263 1.94336 9.71045 2.49588 9.71045 3.20051V10.7434L10.9676 12.0005L12.2247 10.7434Z" stroke="#939393" stroke-width="0.8" stroke-linecap="round" stroke-linejoin="round"/>
<path d="M9.71045 4.45703H12.2247" stroke="#939393" stroke-width="0.8" stroke-linecap="round" stroke-linejoin="round"/>
<path d="M2.71821 1.72528C2.71821 1.91763 2.6437 2.10211 2.51106 2.23812C2.37843 2.37414 2.19854 2.45055 2.01097 2.45055C1.8234 2.45055 1.64351 2.37414 1.51088 2.23812C1.37824 2.10211 1.30373 1.91763 1.30373 1.72528C1.30373 1.53292 1.37824 1.34844 1.51088 1.21243C1.64351 1.07641 1.8234 1 2.01097 1C2.19854 1 2.37843 1.07641 2.51106 1.21243C2.6437 1.34844 2.71821 1.53292 2.71821 1.72528V1.72528ZM0.59668 4.4558C0.60274 4.07524 0.754411 3.71237 1.01898 3.44545C1.28355 3.17852 1.63983 3.02893 2.01097 3.02893C2.38211 3.02893 2.73839 3.17852 3.00296 3.44545C3.26753 3.71237 3.4192 4.07524 3.42526 4.4558C2.98156 4.66444 2.49909 4.77212 2.01097 4.77144C1.50628 4.77144 1.02725 4.65849 0.59668 4.4558Z" stroke="#939393" stroke-width="0.8" stroke-linecap="round" stroke-linejoin="round"/>
</svg>
