<svg width="13" height="14" viewBox="0 0 13 14" fill="none" xmlns="http://www.w3.org/2000/svg">
<path d="M10.2386 11.2029C9.80186 10.6247 9.23686 10.1558 8.58806 9.83317C7.93927 9.51051 7.22442 9.34291 6.49983 9.34357C5.77523 9.34291 5.06038 9.51051 4.41159 9.83317C3.7628 10.1558 3.19779 10.6247 2.76108 11.2029M10.238 11.2029C11.0901 10.4449 11.6918 9.44579 11.9631 8.338C12.2344 7.23021 12.1625 6.06612 11.757 5.00011C11.3515 3.93411 10.6315 3.01655 9.69257 2.36913C8.75362 1.7217 7.64004 1.375 6.49951 1.375C5.35899 1.375 4.24541 1.7217 3.30645 2.36913C2.3675 3.01655 1.64753 3.93411 1.24203 5.00011C0.836538 6.06612 0.76467 7.23021 1.03596 8.338C1.30725 9.44579 1.90889 10.4449 2.76108 11.2029M10.238 11.2029C9.20921 12.1206 7.87834 12.6268 6.49983 12.6248C5.12109 12.6269 3.78997 12.1207 2.76108 11.2029M8.37483 5.59357C8.37483 6.09085 8.17728 6.56776 7.82565 6.91939C7.47402 7.27102 6.99711 7.46857 6.49983 7.46857C6.00254 7.46857 5.52563 7.27102 5.174 6.91939C4.82237 6.56776 4.62483 6.09085 4.62483 5.59357C4.62483 5.09628 4.82237 4.61937 5.174 4.26774C5.52563 3.91611 6.00254 3.71857 6.49983 3.71857C6.99711 3.71857 7.47402 3.91611 7.82565 4.26774C8.17728 4.61937 8.37483 5.09628 8.37483 5.59357V5.59357Z" stroke="white" stroke-width="1.5" stroke-linecap="round" stroke-linejoin="round"/>
</svg>
