<svg width="44" height="44" viewBox="0 0 44 44" fill="none" xmlns="http://www.w3.org/2000/svg">
<g clip-path="url(#clip0_164_37)">
<path d="M25.6665 5.5V12.8333C25.6665 13.3196 25.8597 13.7859 26.2035 14.1297C26.5473 14.4735 27.0136 14.6667 27.4998 14.6667H34.8332" stroke="black" stroke-width="3" stroke-linecap="round" stroke-linejoin="round"/>
<path d="M9.1665 14.6667V9.16667C9.1665 8.19421 9.55281 7.26158 10.2404 6.57394C10.9281 5.88631 11.8607 5.5 12.8332 5.5H25.6665L34.8332 14.6667V34.8333C34.8332 35.8058 34.4469 36.7384 33.7592 37.4261C33.0716 38.1137 32.139 38.5 31.1665 38.5H21.9998" stroke="black" stroke-width="3" stroke-linecap="round" stroke-linejoin="round"/>
<path d="M11 31.1665C14.0376 31.1665 16.5 28.7041 16.5 25.6665C16.5 22.6289 14.0376 20.1665 11 20.1665C7.96243 20.1665 5.5 22.6289 5.5 25.6665C5.5 28.7041 7.96243 31.1665 11 31.1665Z" stroke="black" stroke-width="3" stroke-linecap="round" stroke-linejoin="round"/>
<path d="M8.25 31.1665L5.5 40.3332L11 37.5832L16.5 40.3332L13.75 31.1665" stroke="black" stroke-width="3" stroke-linecap="round" stroke-linejoin="round"/>
</g>
<defs>
<clipPath id="clip0_164_37">
<rect width="44" height="44" fill="white"/>
</clipPath>
</defs>
</svg>
