<svg width="25" height="24" viewBox="0 0 25 24" fill="none" xmlns="http://www.w3.org/2000/svg">
<path d="M7.327 6.17521C7.14699 6.46012 6.90682 6.70219 6.62334 6.88444C6.33985 7.06669 6.01993 7.18471 5.686 7.23021C5.306 7.28421 4.929 7.34221 4.552 7.40521C3.499 7.58021 2.75 8.50721 2.75 9.57421V18.0002C2.75 18.5969 2.98705 19.1692 3.40901 19.5912C3.83097 20.0132 4.40326 20.2502 5 20.2502H20C20.5967 20.2502 21.169 20.0132 21.591 19.5912C22.0129 19.1692 22.25 18.5969 22.25 18.0002V9.57421C22.25 8.50721 21.5 7.58021 20.448 7.40521C20.0707 7.34234 19.6927 7.28401 19.314 7.23021C18.9802 7.18457 18.6605 7.06649 18.3772 6.88424C18.0939 6.702 17.8539 6.46 17.674 6.17521L16.852 4.85921C16.6674 4.5593 16.4132 4.3083 16.111 4.12744C15.8089 3.94658 15.4675 3.8412 15.116 3.82021C13.3733 3.7266 11.6267 3.7266 9.884 3.82021C9.53245 3.8412 9.19114 3.94658 8.88896 4.12744C8.58678 4.3083 8.33262 4.5593 8.148 4.85921L7.327 6.17521V6.17521Z" stroke="white" stroke-width="1.5" stroke-linecap="round" stroke-linejoin="round"/>
<path d="M17 12.75C17 13.9435 16.5259 15.0881 15.682 15.932C14.8381 16.7759 13.6935 17.25 12.5 17.25C11.3065 17.25 10.1619 16.7759 9.31802 15.932C8.47411 15.0881 8 13.9435 8 12.75C8 11.5565 8.47411 10.4119 9.31802 9.56802C10.1619 8.72411 11.3065 8.25 12.5 8.25C13.6935 8.25 14.8381 8.72411 15.682 9.56802C16.5259 10.4119 17 11.5565 17 12.75V12.75ZM19.25 10.5H19.258V10.508H19.25V10.5Z" stroke="white" stroke-width="1.5" stroke-linecap="round" stroke-linejoin="round"/>
</svg>
