<?xml version="1.0" encoding="utf-8"?>
<!-- Generator: Adobe Illustrator 25.3.0, SVG Export Plug-In . SVG Version: 6.00 Build 0)  -->
<svg version="1.1" id="Layer_1" xmlns="http://www.w3.org/2000/svg" xmlns:xlink="http://www.w3.org/1999/xlink" x="0px" y="0px"
	 width="456.3px" height="317.8px" viewBox="0 0 456.3 317.8" style="enable-background:new 0 0 456.3 317.8;" xml:space="preserve"
	>
<style type="text/css">
	.st0{fill:#DC3545;}
	.st1{fill:#FFC107;}
	.st2{fill:#0D6EFD;fill-opacity:0.8;}
	.st3{fill:#ADADAD;}
</style>
<g>
	<path class="st0" d="M157.9,52c21.7-12.5,46.3-19.1,71.3-19.1c25,0,49.6,6.6,71.3,19.1l-71.3,123.5L157.9,52z"/>
	<path class="st1" d="M300.5,52c32.8,18.9,56.6,50.1,66.4,86.6l-137.7,36.9L300.5,52z"/>
	<path class="st2" d="M367.1,138.3c6.9,25.8,6.4,52.9-1.3,78.5c-7.8,25.5-22.5,48.3-42.6,65.9c-20.1,17.5-44.7,29.1-71,33.3
		c-26.3,4.2-53.3,1-77.9-9.3c-24.6-10.3-45.8-27.3-61.2-49.1c-15.4-21.8-24.4-47.4-25.9-74.1s4.4-53.2,17.2-76.6
		c12.8-23.4,31.9-42.8,55.1-55.9l70.1,124.2L367.1,138.3z"/>
	<path d="M372.2,258.8v-9.2h3.5v-1.5h-8.6v1.5h3.5v9.2H372.2z M379.3,258.9c2.2,0,3.9-1.7,3.9-4.1c0-2.3-1.6-4.1-3.9-4.1
		c-2.2,0-3.9,1.7-3.9,4.1C375.4,257.2,377,258.9,379.3,258.9z M379.3,257.6c-1.3,0-2.3-1-2.3-2.8c0-1.7,1-2.7,2.3-2.7s2.3,1,2.3,2.7
		C381.6,256.6,380.6,257.6,379.3,257.6z M388.9,257.3c-0.3,0.1-0.6,0.2-1,0.2c-0.8,0-1.3-0.4-1.3-1.5v-3.9h2.4v-1.3h-2.4v-2.3h-1.5
		v2.3h-1.7v1.3h1.7v4.2c0,1.7,1,2.5,2.5,2.5c0.5,0,0.9-0.1,1.3-0.3V257.3z M395.2,258.8h1.2v-5c0-1.9-1.1-3-3.1-3
		c-1.8,0-3.1,1.2-3.2,2.9h1.4c0-1.1,0.7-1.7,1.8-1.7c1,0,1.6,0.6,1.6,1.8v0.6c-0.6-0.1-1-0.1-1.5-0.1c-2.3,0-3.6,0.8-3.6,2.3
		c0,1.4,1.1,2.4,2.7,2.4c1.2,0,2-0.5,2.5-1.4V258.8z M391.4,256.5c0-0.9,0.7-1.4,2.2-1.4c0.4,0,0.8,0,1.4,0.1v0.6c0,1.2-0.8,2-2,2
		C392,257.9,391.4,257.3,391.4,256.5z M399.9,258.8v-10.6h-1.5v10.6H399.9z M409.9,259c2.7,0,4.8-1.8,5.2-4.4h-1.7
		c-0.3,1.7-1.7,2.9-3.5,2.9c-2.1,0-3.6-1.7-3.6-4.1c0-2.4,1.5-4.1,3.6-4.1c1.8,0,3.2,1.2,3.5,2.9h1.7c-0.4-2.6-2.5-4.4-5.2-4.4
		c-3,0-5.3,2.4-5.3,5.5C404.6,256.6,406.9,259,409.9,259z M421.4,258.8h1.2v-5c0-1.9-1.1-3-3.1-3c-1.8,0-3.1,1.2-3.2,2.9h1.4
		c0-1.1,0.7-1.7,1.8-1.7c1,0,1.6,0.6,1.6,1.8v0.6c-0.6-0.1-1-0.1-1.5-0.1c-2.3,0-3.6,0.8-3.6,2.3c0,1.4,1.1,2.4,2.7,2.4
		c1.2,0,2-0.5,2.5-1.4V258.8z M417.6,256.5c0-0.9,0.7-1.4,2.2-1.4c0.4,0,0.8,0,1.4,0.1v0.6c0,1.2-0.8,2-2,2
		C418.2,257.9,417.6,257.3,417.6,256.5z M430.9,256.4c0-1.1-0.7-1.8-2.3-2.1l-1.3-0.3c-0.9-0.2-1.3-0.5-1.3-1.1
		c0-0.7,0.6-1.1,1.6-1.1c1.1,0,1.7,0.5,1.8,1.5h1.4c-0.1-1.6-1.4-2.6-3.3-2.6c-1.8,0-3,1-3,2.3c0,1.2,0.8,1.9,2.3,2.2l1.3,0.2
		c1,0.2,1.4,0.5,1.4,1.1c0,0.7-0.7,1.1-1.7,1.1c-1.2,0-2-0.6-2-1.6h-1.4c0.1,1.7,1.4,2.7,3.5,2.7C429.7,258.9,430.9,258,430.9,256.4
		z M434,254.4c0-1.4,0.9-2.3,1.9-2.3c1.1,0,1.7,0.8,1.7,2.1v4.6h1.5v-5.1c0-1.9-1.1-2.9-2.7-2.9c-1.1,0-1.9,0.6-2.4,1.4v-4h-1.5
		v10.6h1.5V254.4z M444.3,258.9c1.9,0,3.2-1.1,3.6-2.8h-1.5c-0.3,1-1,1.6-2.1,1.6c-1.3,0-2.1-0.9-2.2-2.5h5.9
		c0.3-2.5-1.3-4.4-3.6-4.4c-2.2,0-3.7,1.7-3.7,4C440.5,257.3,442,258.9,444.3,258.9z M444.2,251.9c1.2,0,2,0.9,2.1,2.3H442
		C442.2,252.8,443,251.9,444.2,251.9z M448.8,254.9c0,2.4,1.4,4.1,3.5,4.1c1.1,0,2.1-0.6,2.6-1.6v1.4h1.4v-10.6h-1.5v4.1
		c-0.5-1-1.5-1.5-2.5-1.5C450.1,250.8,448.8,252.5,448.8,254.9z M450.3,254.9c0-1.8,0.9-2.8,2.2-2.8c1.2,0,2.2,1,2.2,2.7
		c0,1.7-0.9,2.8-2.2,2.8C451.2,257.6,450.3,256.6,450.3,254.9z"/>
	<path class="st3" d="M374.6,264.2h-1.4v5.7c0,1.3-0.8,2.1-2.1,2.1c-1.3,0-2.1-0.8-2.1-2.1v-5.7h-1.4v5.7c0,2,1.3,3.4,3.4,3.4
		c2.1,0,3.4-1.3,3.4-3.4V264.2z M383,270.5c0-1.3-0.9-2-2.4-2.3l-1.3-0.3c-0.8-0.2-1.6-0.5-1.6-1.3c0-0.8,0.6-1.4,1.8-1.4
		c1.1,0,1.9,0.7,2,1.8h1.4c-0.1-1.8-1.5-2.9-3.3-2.9c-1.8,0-3.1,1.1-3.1,2.6c0,1.5,1.1,2.1,2.4,2.4l1.3,0.2c1,0.2,1.5,0.6,1.5,1.3
		c0,0.9-0.8,1.4-2,1.4c-1.4,0-2.1-0.7-2.1-1.9h-1.4c0.1,1.8,1.4,2.9,3.5,2.9C381.8,273.2,383,272,383,270.5z M387.4,273.1
		c2.8,0,4.5-1.9,4.5-4.5c0-2.6-1.6-4.4-4.5-4.4h-2.8v8.9H387.4z M385.9,265.4h1.4c2,0,3.1,1.2,3.1,3.2c0,2-1.1,3.3-3.1,3.3h-1.4
		V265.4z M400.9,272h-3.5l1.7-1.9c1.4-1.5,1.7-2.1,1.7-3.1c0-1.4-1.1-2.4-2.7-2.4c-1.7,0-2.8,1.1-2.8,2.7h1.2c0-0.9,0.6-1.5,1.5-1.5
		c0.9,0,1.4,0.6,1.4,1.4c0,0.8-0.4,1.3-1.4,2.4l-2.6,2.8v0.7h5.4V272z M404.8,273.2c1.8,0,3.1-1.2,3.1-2.8c0-1.6-1.2-2.7-2.8-2.7
		c-0.2,0-0.5,0-0.7,0.1l2.5-3.1h-1.4l-2.5,3.1c-0.7,0.9-1.1,1.5-1.1,2.6C401.7,271.9,403,273.2,404.8,273.2z M404.8,272.1
		c-1,0-1.8-0.7-1.8-1.7c0-1.2,0.8-1.8,1.8-1.8c1,0,1.8,0.7,1.8,1.8C406.5,271.4,405.8,272.1,404.8,272.1z M411.6,273.2
		c1.9,0,3-1.3,3-2.8c0-1.4-1-2.7-2.8-2.7c-0.6,0-1.1,0.2-1.6,0.5l0.4-2.4h3.6v-1.1h-4.5l-0.7,4.7l1,0.3c0.3-0.6,0.9-0.9,1.6-0.9
		c1.1,0,1.7,0.8,1.7,1.6c0,1-0.6,1.7-1.7,1.7c-0.9,0-1.6-0.5-1.7-1.4h-1.2C408.7,272.1,409.9,273.2,411.6,273.2z M417.3,273.1V269
		l3.7,4.1h1.7l-4-4.5l4-4.3h-1.6l-3.8,4.1v-4.1H416v8.9H417.3z"/>
	<path d="M359.9,81v-9.2h3.5v-1.5h-8.6v1.5h3.5V81H359.9z M366.9,81.2c2.2,0,3.9-1.7,3.9-4.1c0-2.3-1.6-4.1-3.9-4.1
		c-2.2,0-3.9,1.7-3.9,4.1C363.1,79.4,364.7,81.2,366.9,81.2z M366.9,79.8c-1.3,0-2.3-1-2.3-2.8s1-2.7,2.3-2.7c1.3,0,2.3,1,2.3,2.7
		S368.2,79.8,366.9,79.8z M376.6,79.6c-0.3,0.1-0.6,0.2-1,0.2c-0.8,0-1.3-0.4-1.3-1.5v-3.9h2.4v-1.3h-2.4v-2.3h-1.5v2.3h-1.7v1.3
		h1.7v4.2c0,1.7,1,2.5,2.5,2.5c0.5,0,0.9-0.1,1.3-0.3V79.6z M382.8,81h1.2v-5c0-1.9-1.1-3-3.1-3c-1.8,0-3.1,1.2-3.2,2.9h1.4
		c0-1.1,0.7-1.7,1.8-1.7c1,0,1.6,0.6,1.6,1.8v0.6c-0.6-0.1-1-0.1-1.5-0.1c-2.3,0-3.6,0.8-3.6,2.3c0,1.4,1.1,2.4,2.7,2.4
		c1.2,0,2-0.5,2.5-1.4V81z M379,78.7c0-0.9,0.7-1.4,2.2-1.4c0.4,0,0.8,0,1.4,0.1v0.6c0,1.2-0.8,2-2,2C379.7,80.1,379,79.6,379,78.7z
		 M387.6,81V70.4h-1.5V81H387.6z M396.2,81c3.3,0,5.3-2.3,5.3-5.4c0-3.1-2-5.3-5.3-5.3h-3.4V81H396.2z M394.5,71.8h1.7
		c2.5,0,3.8,1.5,3.8,3.9c0,2.4-1.3,4-3.8,4h-1.7V71.8z M408.1,77.8c0,1.2-0.8,2.1-1.8,2.1c-1,0-1.7-0.6-1.7-1.9v-4.8h-1.5v5.1
		c0,2,1.1,2.9,2.7,2.9c1.1,0,2-0.6,2.4-1.4V81h1.4v-7.9h-1.5V77.8z M414.9,81.2c1.9,0,3.2-1.1,3.6-2.8H417c-0.3,1-1,1.6-2.1,1.6
		c-1.3,0-2.1-0.9-2.2-2.5h5.9c0.3-2.5-1.3-4.4-3.6-4.4c-2.2,0-3.7,1.7-3.7,4C411.1,79.5,412.6,81.2,414.9,81.2z M414.8,74.1
		c1.2,0,2,0.9,2.1,2.3h-4.3C412.8,75,413.6,74.1,414.8,74.1z"/>
	<path class="st3" d="M362.3,86.4h-1.4v5.7c0,1.3-0.8,2.1-2.1,2.1c-1.3,0-2.1-0.8-2.1-2.1v-5.7h-1.4v5.7c0,2,1.3,3.4,3.4,3.4
		c2.1,0,3.4-1.3,3.4-3.4V86.4z M370.7,92.7c0-1.3-0.9-2-2.4-2.3l-1.3-0.3c-0.8-0.2-1.6-0.5-1.6-1.3c0-0.8,0.6-1.4,1.8-1.4
		c1.1,0,1.9,0.7,2,1.8h1.4c-0.1-1.8-1.5-2.9-3.3-2.9c-1.8,0-3.1,1.1-3.1,2.6c0,1.5,1.1,2.1,2.4,2.4l1.3,0.2c1,0.2,1.5,0.6,1.5,1.3
		c0,0.9-0.8,1.4-2,1.4c-1.4,0-2.1-0.7-2.1-1.9h-1.4c0.1,1.8,1.4,2.9,3.5,2.9C369.4,95.4,370.7,94.2,370.7,92.7z M375,95.3
		c2.8,0,4.5-1.9,4.5-4.5c0-2.6-1.6-4.4-4.5-4.4h-2.8v8.9H375z M373.6,87.6h1.4c2,0,3.1,1.2,3.1,3.2c0,2-1.1,3.3-3.1,3.3h-1.4V87.6z
		 M385.6,95.3v-8.3h-2.9V88h1.6v7.3H385.6z M389.7,95.3v-8.3h-2.9V88h1.6v7.3H389.7z M394.1,95.4c1.8,0,3.1-1.2,3.1-2.8
		c0-1.6-1.2-2.7-2.8-2.7c-0.2,0-0.5,0-0.7,0.1l2.5-3.1h-1.4l-2.5,3.1c-0.7,0.9-1.1,1.5-1.1,2.6C391.1,94.2,392.4,95.4,394.1,95.4z
		 M394.1,94.4c-1,0-1.8-0.7-1.8-1.7c0-1.2,0.8-1.8,1.8-1.8c1,0,1.8,0.7,1.8,1.8C395.9,93.7,395.1,94.4,394.1,94.4z M399.9,95.3v-4.1
		l3.7,4.1h1.7l-4-4.5l4-4.3h-1.6l-3.8,4.1v-4.1h-1.4v8.9H399.9z"/>
	<path d="M201.9,10.6V1.5h3.5V0h-8.6v1.5h3.5v9.2H201.9z M208.9,10.8c2.2,0,3.9-1.7,3.9-4.1c0-2.3-1.6-4.1-3.9-4.1S205,4.4,205,6.7
		C205,9,206.7,10.8,208.9,10.8z M208.9,9.5c-1.3,0-2.3-1-2.3-2.8s1-2.7,2.3-2.7s2.3,1,2.3,2.7S210.2,9.5,208.9,9.5z M218.6,9.2
		c-0.3,0.1-0.6,0.2-1,0.2c-0.8,0-1.3-0.4-1.3-1.5V4.1h2.4V2.8h-2.4V0.5h-1.5v2.3H213v1.3h1.7v4.2c0,1.7,1,2.5,2.5,2.5
		c0.5,0,0.9-0.1,1.3-0.3V9.2z M224.8,10.6h1.2v-5c0-1.9-1.1-3-3.1-3c-1.8,0-3.1,1.2-3.2,2.9h1.4c0-1.1,0.7-1.7,1.8-1.7
		c1,0,1.6,0.6,1.6,1.8v0.6c-0.6-0.1-1-0.1-1.5-0.1c-2.3,0-3.6,0.8-3.6,2.3c0,1.4,1.1,2.4,2.7,2.4c1.2,0,2-0.5,2.5-1.4V10.6z
		 M221,8.4c0-0.9,0.7-1.4,2.2-1.4c0.4,0,0.8,0,1.4,0.1v0.6c0,1.2-0.8,2-2,2C221.6,9.7,221,9.2,221,8.4z M229.6,10.6V0h-1.5v10.6
		H229.6z M243.1,0h-1.6v6.9c0,1.5-0.9,2.5-2.5,2.5c-1.6,0-2.5-1-2.5-2.5V0h-1.6v6.8c0,2.4,1.6,4,4.1,4s4.1-1.6,4.1-4V0z M246.7,6.2
		c0-1.4,0.9-2.3,1.9-2.3c1.1,0,1.7,0.8,1.7,2.1v4.6h1.5V5.6c0-1.9-1.1-2.9-2.7-2.9c-1.1,0-2,0.6-2.5,1.5V2.8h-1.4v7.9h1.5V6.2z
		 M256.9,10.8c2,0,3.4-1.3,3.6-3.3h-1.6c-0.2,1.3-0.9,2-2.1,2c-1.3,0-2.1-1.1-2.1-2.8c0-1.7,0.8-2.8,2.1-2.8c1.1,0,1.9,0.8,2,2h1.6
		c-0.3-2-1.7-3.3-3.6-3.3c-2.1,0-3.7,1.7-3.7,4.1C253.2,9.1,254.7,10.8,256.9,10.8z M266.8,10.6h1.2v-5c0-1.9-1.1-3-3.1-3
		c-1.8,0-3.1,1.2-3.2,2.9h1.4c0-1.1,0.7-1.7,1.8-1.7c1,0,1.6,0.6,1.6,1.8v0.6c-0.6-0.1-1-0.1-1.5-0.1c-2.3,0-3.6,0.8-3.6,2.3
		c0,1.4,1.1,2.4,2.7,2.4c1.2,0,2-0.5,2.5-1.4V10.6z M263,8.4c0-0.9,0.7-1.4,2.2-1.4c0.4,0,0.8,0,1.4,0.1v0.6c0,1.2-0.8,2-2,2
		C263.6,9.7,263,9.2,263,8.4z M276.2,8.3c0-1.1-0.7-1.8-2.3-2.1L272.6,6c-0.9-0.2-1.3-0.5-1.3-1.1c0-0.7,0.6-1.1,1.6-1.1
		c1.1,0,1.7,0.5,1.8,1.5h1.4c-0.1-1.6-1.4-2.6-3.3-2.6c-1.8,0-3,1-3,2.3c0,1.2,0.8,1.9,2.3,2.2l1.3,0.2c1,0.2,1.4,0.5,1.4,1.1
		c0,0.7-0.7,1.1-1.7,1.1c-1.2,0-2-0.6-2-1.6h-1.4c0.1,1.7,1.4,2.7,3.5,2.7C275,10.8,276.2,9.8,276.2,8.3z M279.4,6.2
		c0-1.4,0.9-2.3,1.9-2.3c1.1,0,1.7,0.8,1.7,2.1v4.6h1.5V5.6c0-1.9-1.1-2.9-2.7-2.9c-1.1,0-1.9,0.6-2.4,1.4V0h-1.5v10.6h1.5V6.2z
		 M291.2,10.6h1.2v-5c0-1.9-1.1-3-3.1-3c-1.8,0-3.1,1.2-3.2,2.9h1.4c0-1.1,0.7-1.7,1.8-1.7c1,0,1.6,0.6,1.6,1.8v0.6
		c-0.6-0.1-1-0.1-1.5-0.1c-2.3,0-3.6,0.8-3.6,2.3c0,1.4,1.1,2.4,2.7,2.4c1.2,0,2-0.5,2.5-1.4V10.6z M287.4,8.4
		c0-0.9,0.7-1.4,2.2-1.4c0.4,0,0.8,0,1.4,0.1v0.6c0,1.2-0.8,2-2,2C288,9.7,287.4,9.2,287.4,8.4z M301.9,6.7c0-2.4-1.4-4.1-3.5-4.1
		c-1.1,0-2,0.5-2.5,1.5V0h-1.5v10.6h1.4V9.2c0.6,1,1.5,1.6,2.6,1.6C300.6,10.8,301.9,9.1,301.9,6.7z M300.4,6.7
		c0,1.7-0.9,2.7-2.2,2.7c-1.3,0-2.2-1-2.2-2.8c0-1.8,1-2.7,2.2-2.7C299.4,4,300.4,4.9,300.4,6.7z M304.9,10.6V0h-1.5v10.6H304.9z
		 M310.3,10.8c1.9,0,3.2-1.1,3.6-2.8h-1.5c-0.3,1-1,1.6-2.1,1.6c-1.3,0-2.1-0.9-2.2-2.5h5.9c0.3-2.5-1.3-4.4-3.6-4.4
		c-2.2,0-3.7,1.7-3.7,4C306.5,9.1,308,10.8,310.3,10.8z M310.2,3.8c1.2,0,2,0.9,2.1,2.3H308C308.2,4.6,309,3.8,310.2,3.8z"/>
	<path class="st3" d="M204.3,16.1h-1.4v5.7c0,1.3-0.8,2.1-2.1,2.1c-1.3,0-2.1-0.8-2.1-2.1v-5.7h-1.4v5.7c0,2,1.3,3.4,3.4,3.4
		c2.1,0,3.4-1.3,3.4-3.4V16.1z M212.6,22.3c0-1.3-0.9-2-2.4-2.3l-1.3-0.3c-0.8-0.2-1.6-0.5-1.6-1.3c0-0.8,0.6-1.4,1.8-1.4
		c1.1,0,1.9,0.7,2,1.8h1.4c-0.1-1.8-1.5-2.9-3.3-2.9c-1.8,0-3.1,1.1-3.1,2.6c0,1.5,1.1,2.1,2.4,2.4l1.3,0.2c1,0.2,1.5,0.6,1.5,1.3
		c0,0.9-0.8,1.4-2,1.4c-1.4,0-2.1-0.7-2.1-1.9h-1.4c0.1,1.8,1.4,2.9,3.5,2.9C211.4,25,212.6,23.9,212.6,22.3z M217,24.9
		c2.8,0,4.5-1.9,4.5-4.5c0-2.6-1.6-4.4-4.5-4.4h-2.8v8.9H217z M215.6,17.2h1.4c2,0,3.1,1.2,3.1,3.2c0,2-1.1,3.3-3.1,3.3h-1.4V17.2z
		 M231.2,22.6c0-1-0.7-1.7-1.6-2c0.7-0.3,1.2-1,1.2-1.8c0-1.4-1.1-2.3-2.7-2.3c-1.6,0-2.7,1-2.7,2.3c0,0.9,0.5,1.5,1.2,1.8
		c-0.9,0.3-1.6,1-1.6,2c0,1.5,1.2,2.5,3.1,2.5C230,25,231.2,24,231.2,22.6z M226.7,18.8c0-0.8,0.6-1.3,1.5-1.3
		c0.9,0,1.4,0.5,1.4,1.3c0,0.8-0.6,1.3-1.4,1.3C227.3,20.1,226.7,19.6,226.7,18.8z M226.4,22.6c0-0.9,0.7-1.4,1.8-1.4
		c1,0,1.8,0.5,1.8,1.4c0,0.9-0.7,1.5-1.8,1.5C227.1,24,226.4,23.5,226.4,22.6z M234.2,24.9v-4.1l3.7,4.1h1.7l-4-4.5l4-4.3h-1.6
		l-3.8,4.1v-4.1h-1.4v8.9H234.2z"/>
</g>
</svg>
