<svg width="11" height="13" viewBox="0 0 11 13" fill="none" xmlns="http://www.w3.org/2000/svg">
<path d="M10.3077 3.32692C10.3077 4.61195 8.2239 5.65385 5.65385 5.65385C3.08379 5.65385 1 4.61195 1 3.32692M10.3077 3.32692C10.3077 2.0419 8.2239 1 5.65385 1C3.08379 1 1 2.0419 1 3.32692M10.3077 3.32692V9.67308C10.3077 10.9581 8.2239 12 5.65385 12C3.08379 12 1 10.9581 1 9.67308V3.32692M10.3077 3.32692V5.44231M1 3.32692V5.44231M10.3077 5.44231V7.55769C10.3077 8.84272 8.2239 9.88462 5.65385 9.88462C3.08379 9.88462 1 8.84272 1 7.55769V5.44231M10.3077 5.44231C10.3077 6.72733 8.2239 7.76923 5.65385 7.76923C3.08379 7.76923 1 6.72733 1 5.44231" stroke="#ADADAD" stroke-linecap="round" stroke-linejoin="round"/>
</svg>
