<svg width="16" height="16" viewBox="0 0 16 16" fill="none" xmlns="http://www.w3.org/2000/svg">
<path d="M5.46875 6.3125H5.1875M8.28125 6.3125H8M11.0938 6.3125H10.8125M5.46875 6.3125C5.46875 6.38709 5.43912 6.45863 5.38637 6.51138C5.33363 6.56412 5.26209 6.59375 5.1875 6.59375C5.11291 6.59375 5.04137 6.56412 4.98863 6.51138C4.93588 6.45863 4.90625 6.38709 4.90625 6.3125C4.90625 6.23791 4.93588 6.16637 4.98863 6.11363C5.04137 6.06088 5.11291 6.03125 5.1875 6.03125C5.26209 6.03125 5.33363 6.06088 5.38637 6.11363C5.43912 6.16637 5.46875 6.23791 5.46875 6.3125V6.3125ZM8.28125 6.3125C8.28125 6.38709 8.25162 6.45863 8.19887 6.51138C8.14613 6.56412 8.07459 6.59375 8 6.59375C7.92541 6.59375 7.85387 6.56412 7.80113 6.51138C7.74838 6.45863 7.71875 6.38709 7.71875 6.3125C7.71875 6.23791 7.74838 6.16637 7.80113 6.11363C7.85387 6.06088 7.92541 6.03125 8 6.03125C8.07459 6.03125 8.14613 6.06088 8.19887 6.11363C8.25162 6.16637 8.28125 6.23791 8.28125 6.3125V6.3125ZM11.0938 6.3125C11.0938 6.38709 11.0641 6.45863 11.0114 6.51138C10.9586 6.56412 10.8871 6.59375 10.8125 6.59375C10.7379 6.59375 10.6664 6.56412 10.6136 6.51138C10.5609 6.45863 10.5312 6.38709 10.5312 6.3125C10.5312 6.23791 10.5609 6.16637 10.6136 6.11363C10.6664 6.06088 10.7379 6.03125 10.8125 6.03125C10.8871 6.03125 10.9586 6.06088 11.0114 6.11363C11.0641 6.16637 11.0938 6.23791 11.0938 6.3125V6.3125ZM0.6875 8.57C0.6875 9.77 1.52975 10.8155 2.71775 10.9903C3.533 11.1103 4.3565 11.2025 5.1875 11.267V14.75L8.3255 11.6128C8.48087 11.458 8.68976 11.3689 8.909 11.3638C10.3727 11.3277 11.8329 11.203 13.2815 10.9903C14.4702 10.8155 15.3125 9.77075 15.3125 8.56925V4.05575C15.3125 2.85425 14.4702 1.8095 13.2822 1.63475C11.5332 1.37804 9.76777 1.24944 8 1.25C6.206 1.25 4.442 1.38125 2.71775 1.63475C1.52975 1.8095 0.6875 2.855 0.6875 4.05575V8.56925V8.57Z" stroke="#ADADAD" stroke-linecap="round" stroke-linejoin="round"/>
</svg>
