<svg width="324" height="262" viewBox="0 0 324 262" fill="none" xmlns="http://www.w3.org/2000/svg">
<path d="M161.5 262C136.074 262 111.359 253.61 91.188 238.132C71.0166 222.654 56.5162 200.953 49.9356 176.394C43.355 151.834 45.062 125.79 54.7919 102.3C64.5218 78.81 81.7309 59.1868 103.75 46.4741L161.5 146.5L161.5 262Z" fill="#0D6EFD"/>
<path d="M103.75 46.4741C121.308 36.3368 141.226 31 161.5 31C181.774 31 201.692 36.3368 219.25 46.4741L161.5 146.5L103.75 46.4741Z" fill="#0D6EFD" fill-opacity="0.4"/>
<path d="M219.25 46.4741C245.779 61.7903 265.136 87.0177 273.064 116.606L161.5 146.5L219.25 46.4741Z" fill="#0D6EFD" fill-opacity="0.6"/>
<path d="M273.064 116.606C277.65 133.719 278.237 151.657 274.781 169.033C271.324 186.409 263.917 202.757 253.132 216.812C242.347 230.867 228.474 242.253 212.584 250.089C196.695 257.925 179.216 262 161.5 262L161.5 146.5L273.064 116.606Z" fill="#0D6EFD" fill-opacity="0.8"/>
<path d="M2.256 214V205.384H0.936V214H2.256ZM5.2395 210.412C5.2395 209.284 5.9355 208.588 6.7635 208.588C7.6635 208.588 8.1435 209.2 8.1435 210.292V214H9.3555V209.884C9.3555 208.36 8.4915 207.52 7.1835 207.52C6.3075 207.52 5.5875 207.988 5.1555 208.696V207.64H4.0275V214H5.2395V210.412ZM16.0106 207.64H14.7746L12.9866 212.608L11.2226 207.64H9.91463L12.3026 214H13.6226L16.0106 207.64ZM19.336 214.12C21.136 214.12 22.456 212.704 22.456 210.82C22.456 208.936 21.136 207.52 19.336 207.52C17.536 207.52 16.216 208.936 16.216 210.82C16.216 212.704 17.536 214.12 19.336 214.12ZM19.336 213.052C18.292 213.052 17.476 212.212 17.476 210.82C17.476 209.428 18.292 208.6 19.336 208.6C20.38 208.6 21.208 209.428 21.208 210.82C21.208 212.212 20.38 213.052 19.336 213.052ZM25.1676 206.164C25.1676 205.696 24.8076 205.36 24.2916 205.36C23.7756 205.36 23.4036 205.696 23.4036 206.164C23.4036 206.62 23.7756 206.968 24.2916 206.968C24.8076 206.968 25.1676 206.62 25.1676 206.164ZM24.9036 214V207.64H23.6916V214H24.9036ZM29.0941 214.132C30.6901 214.132 31.8181 213.1 32.0341 211.42H30.7741C30.6301 212.452 30.0061 213.052 29.1061 213.052C28.0621 213.052 27.3781 212.176 27.3781 210.82C27.3781 209.476 28.0621 208.588 29.1061 208.588C29.9941 208.588 30.6301 209.2 30.7621 210.22H32.0341C31.8061 208.564 30.6661 207.52 29.0941 207.52C27.3781 207.52 26.1301 208.9 26.1301 210.82C26.1301 212.764 27.3541 214.132 29.0941 214.132ZM35.8115 214.12C37.3115 214.12 38.4035 213.268 38.7155 211.852H37.5155C37.3115 212.68 36.6875 213.172 35.7875 213.172C34.7195 213.172 34.0715 212.416 33.9755 211.12H38.7155C38.9315 209.056 37.6715 207.52 35.7755 207.52C34.0235 207.52 32.7395 208.9 32.7395 210.784C32.7395 212.788 33.9755 214.12 35.8115 214.12ZM35.7515 208.432C36.7355 208.432 37.3715 209.14 37.4315 210.316H33.9875C34.1195 209.128 34.7795 208.432 35.7515 208.432ZM45.0441 212.104C45.0441 211.192 44.4441 210.64 43.1841 210.412L42.1041 210.208C41.3361 210.064 41.0121 209.824 41.0121 209.308C41.0121 208.756 41.5281 208.432 42.2961 208.432C43.1481 208.432 43.7121 208.876 43.7841 209.644H44.9481C44.8401 208.336 43.8081 207.52 42.2841 207.52C40.8081 207.52 39.8361 208.3 39.8361 209.416C39.8361 210.376 40.4961 210.976 41.6721 211.204L42.7041 211.396C43.4961 211.552 43.8201 211.78 43.8201 212.308C43.8201 212.908 43.2561 213.208 42.4041 213.208C41.4321 213.208 40.7961 212.716 40.7481 211.924H39.5841C39.7041 213.292 40.7001 214.12 42.3801 214.12C44.0721 214.12 45.0441 213.352 45.0441 212.104Z" fill="black"/>
<path d="M6.31 218.82H5.21V223.45C5.21 224.49 4.6 225.16 3.53 225.16C2.47 225.16 1.86 224.49 1.86 223.45V218.82H0.76V223.42C0.76 225.07 1.81 226.15 3.53 226.15C5.25 226.15 6.31 225.07 6.31 223.42V218.82ZM13.0905 223.9C13.0905 222.83 12.4005 222.29 11.1705 222.04L10.1105 221.83C9.44055 221.69 8.85055 221.45 8.85055 220.77C8.85055 220.15 9.36055 219.6 10.2905 219.6C11.1905 219.6 11.8105 220.2 11.8705 221.06H12.9905C12.9005 219.63 11.7705 218.72 10.2805 218.72C8.79055 218.72 7.73055 219.63 7.73055 220.84C7.73055 222.06 8.65055 222.57 9.66055 222.77L10.7005 222.97C11.5305 223.15 11.9205 223.45 11.9205 224.05C11.9205 224.79 11.2405 225.22 10.3305 225.22C9.23055 225.22 8.65055 224.63 8.60055 223.72H7.48055C7.57055 225.15 8.62055 226.1 10.3505 226.1C12.0905 226.1 13.0905 225.15 13.0905 223.9ZM16.634 226C18.874 226 20.244 224.45 20.244 222.38C20.244 220.28 18.924 218.82 16.634 218.82H14.364V226H16.634ZM15.464 219.77H16.584C18.244 219.77 19.124 220.76 19.124 222.38C19.124 224.03 18.234 225.05 16.584 225.05H15.464V219.77ZM27.5951 225.1H24.7451L26.1051 223.56C27.2151 222.38 27.5051 221.84 27.5051 221.07C27.5051 219.96 26.5851 219.14 25.3251 219.14C23.9851 219.14 23.0451 220.04 23.0451 221.29H24.0351C24.0351 220.54 24.5351 220.05 25.2851 220.05C25.9751 220.05 26.4451 220.52 26.4451 221.19C26.4451 221.8 26.1351 222.27 25.3351 223.14L23.2251 225.42V226H27.5951V225.1ZM33.2713 224.51V223.63H32.3513V219.24H31.5713L28.0913 223.8V224.51H31.3413V226H32.3513V224.51H33.2713ZM29.2213 223.63L31.3413 220.77V223.63H29.2213ZM35.5128 226V222.67L38.5228 226H39.9028L36.6228 222.34L39.8228 218.82H38.5528L35.5128 222.14V218.82H34.4128V226H35.5128Z" fill="#ADADAD"/>
<path d="M277.692 214.18C279.852 214.18 281.58 212.74 281.904 210.604H280.5C280.26 211.996 279.132 212.992 277.704 212.992C276 212.992 274.8 211.612 274.8 209.68C274.8 207.772 276 206.392 277.704 206.392C279.132 206.392 280.26 207.376 280.5 208.768H281.904C281.58 206.644 279.852 205.204 277.692 205.204C275.292 205.204 273.432 207.148 273.432 209.68C273.432 212.224 275.292 214.18 277.692 214.18ZM284.392 210.412C284.392 209.284 285.088 208.588 285.916 208.588C286.816 208.588 287.296 209.2 287.296 210.292V214H288.508V209.884C288.508 208.36 287.644 207.52 286.336 207.52C285.46 207.52 284.812 207.976 284.392 208.66V205.384H283.18V214H284.392V210.412ZM292.733 214.12C294.233 214.12 295.325 213.268 295.637 211.852H294.437C294.233 212.68 293.609 213.172 292.709 213.172C291.641 213.172 290.993 212.416 290.897 211.12H295.637C295.853 209.056 294.593 207.52 292.697 207.52C290.945 207.52 289.661 208.9 289.661 210.784C289.661 212.788 290.897 214.12 292.733 214.12ZM292.673 208.432C293.657 208.432 294.293 209.14 294.353 210.316H290.909C291.041 209.128 291.701 208.432 292.673 208.432ZM296.353 210.82C296.353 212.74 297.457 214.12 299.173 214.12C300.025 214.12 300.757 213.688 301.213 212.92V216.316H302.425V207.64H301.297V208.816C300.853 207.988 300.085 207.52 299.173 207.52C297.457 207.52 296.353 208.9 296.353 210.82ZM297.613 210.82C297.613 209.392 298.357 208.588 299.413 208.588C300.433 208.588 301.213 209.392 301.213 210.82C301.213 212.224 300.445 213.04 299.413 213.04C298.357 213.04 297.613 212.248 297.613 210.82ZM308.082 211.384C308.082 212.38 307.422 213.052 306.606 213.052C305.814 213.052 305.262 212.596 305.262 211.492V207.64H304.05V211.732C304.05 213.364 304.938 214.12 306.222 214.12C307.086 214.12 307.83 213.652 308.166 212.992V214H309.294V207.64H308.082V211.384ZM313.593 214.12C315.093 214.12 316.185 213.268 316.497 211.852H315.297C315.093 212.68 314.469 213.172 313.569 213.172C312.501 213.172 311.853 212.416 311.757 211.12H316.497C316.713 209.056 315.453 207.52 313.557 207.52C311.805 207.52 310.521 208.9 310.521 210.784C310.521 212.788 311.757 214.12 313.593 214.12ZM313.533 208.432C314.517 208.432 315.153 209.14 315.213 210.316H311.769C311.901 209.128 312.561 208.432 313.533 208.432ZM322.825 212.104C322.825 211.192 322.225 210.64 320.965 210.412L319.885 210.208C319.117 210.064 318.793 209.824 318.793 209.308C318.793 208.756 319.309 208.432 320.077 208.432C320.929 208.432 321.493 208.876 321.565 209.644H322.729C322.621 208.336 321.589 207.52 320.065 207.52C318.589 207.52 317.617 208.3 317.617 209.416C317.617 210.376 318.277 210.976 319.453 211.204L320.485 211.396C321.277 211.552 321.601 211.78 321.601 212.308C321.601 212.908 321.037 213.208 320.185 213.208C319.213 213.208 318.577 212.716 318.529 211.924H317.365C317.485 213.292 318.481 214.12 320.161 214.12C321.853 214.12 322.825 213.352 322.825 212.104Z" fill="black"/>
<path d="M279.31 218.82H278.21V223.45C278.21 224.49 277.6 225.16 276.53 225.16C275.47 225.16 274.86 224.49 274.86 223.45V218.82H273.76V223.42C273.76 225.07 274.81 226.15 276.53 226.15C278.25 226.15 279.31 225.07 279.31 223.42V218.82ZM286.091 223.9C286.091 222.83 285.401 222.29 284.171 222.04L283.111 221.83C282.441 221.69 281.851 221.45 281.851 220.77C281.851 220.15 282.361 219.6 283.291 219.6C284.191 219.6 284.811 220.2 284.871 221.06H285.991C285.901 219.63 284.771 218.72 283.281 218.72C281.791 218.72 280.731 219.63 280.731 220.84C280.731 222.06 281.651 222.57 282.661 222.77L283.701 222.97C284.531 223.15 284.921 223.45 284.921 224.05C284.921 224.79 284.241 225.22 283.331 225.22C282.231 225.22 281.651 224.63 281.601 223.72H280.481C280.571 225.15 281.621 226.1 283.351 226.1C285.091 226.1 286.091 225.15 286.091 223.9ZM289.634 226C291.874 226 293.244 224.45 293.244 222.38C293.244 220.28 291.924 218.82 289.634 218.82H287.364V226H289.634ZM288.464 219.77H289.584C291.244 219.77 292.124 220.76 292.124 222.38C292.124 224.03 291.234 225.05 289.584 225.05H288.464V219.77ZM298.215 226V219.24H295.885V220.12H297.195V226H298.215ZM301.748 226.09C303.188 226.09 304.168 225.27 304.168 224.07C304.168 223.29 303.658 222.71 302.768 222.47C303.468 222.14 303.858 221.61 303.858 220.95C303.858 219.89 303.018 219.14 301.718 219.14C300.488 219.14 299.548 219.97 299.518 221.08H300.498C300.528 220.39 300.988 219.95 301.678 219.95C302.358 219.95 302.808 220.38 302.808 221.02C302.808 221.68 302.308 222.12 301.548 222.12H300.898V222.93H301.598C302.528 222.93 303.118 223.38 303.118 224.09C303.118 224.82 302.598 225.28 301.748 225.28C300.928 225.28 300.388 224.81 300.348 224.08H299.358C299.368 225.27 300.348 226.09 301.748 226.09ZM306.53 226V222.67L309.54 226H310.92L307.64 222.34L310.84 218.82H309.57L306.53 222.14V218.82H305.43V226H306.53Z" fill="#ADADAD"/>
<path d="M270.032 67.528C270.032 66.544 269.456 65.812 268.388 65.512C269.216 65.152 269.708 64.456 269.708 63.64C269.708 62.188 268.664 61.384 266.924 61.384H263.936V70H267.092C268.88 70 270.032 69.1 270.032 67.528ZM266.84 62.44C267.884 62.44 268.448 62.932 268.448 63.736C268.448 64.54 267.884 65.032 266.84 65.032H265.148V62.44H266.84ZM267.008 66.088C268.136 66.088 268.772 66.616 268.772 67.492C268.772 68.404 268.136 68.944 267.008 68.944H265.148V66.088H267.008ZM275.359 70.18C277.855 70.18 279.739 68.224 279.739 65.68C279.739 63.136 277.855 61.204 275.359 61.204C272.863 61.204 270.979 63.136 270.979 65.68C270.979 68.224 272.863 70.18 275.359 70.18ZM275.359 68.992C273.535 68.992 272.347 67.528 272.347 65.68C272.347 63.832 273.535 62.392 275.359 62.392C277.183 62.392 278.371 63.832 278.371 65.68C278.371 67.528 277.183 68.992 275.359 68.992ZM286.864 70H288.196V61.384H286.972V67.936L282.544 61.384H281.104V70H282.328V63.268L286.864 70ZM292.781 70C295.469 70 297.113 68.14 297.113 65.656C297.113 63.136 295.529 61.384 292.781 61.384H290.057V70H292.781ZM291.377 62.524H292.721C294.713 62.524 295.769 63.712 295.769 65.656C295.769 67.636 294.701 68.86 292.721 68.86H291.377V62.524ZM304.795 67.48C304.795 66.196 303.967 65.548 302.491 65.248L301.219 64.996C300.415 64.828 299.707 64.54 299.707 63.724C299.707 62.98 300.319 62.32 301.435 62.32C302.515 62.32 303.259 63.04 303.331 64.072H304.675C304.567 62.356 303.211 61.264 301.423 61.264C299.635 61.264 298.363 62.356 298.363 63.808C298.363 65.272 299.467 65.884 300.679 66.124L301.927 66.364C302.923 66.58 303.391 66.94 303.391 67.66C303.391 68.548 302.575 69.064 301.483 69.064C300.163 69.064 299.467 68.356 299.407 67.264H298.063C298.171 68.98 299.431 70.12 301.507 70.12C303.595 70.12 304.795 68.98 304.795 67.48Z" fill="black"/>
<path d="M269.31 74.82H268.21V79.45C268.21 80.49 267.6 81.16 266.53 81.16C265.47 81.16 264.86 80.49 264.86 79.45V74.82H263.76V79.42C263.76 81.07 264.81 82.15 266.53 82.15C268.25 82.15 269.31 81.07 269.31 79.42V74.82ZM276.091 79.9C276.091 78.83 275.401 78.29 274.171 78.04L273.111 77.83C272.441 77.69 271.851 77.45 271.851 76.77C271.851 76.15 272.361 75.6 273.291 75.6C274.191 75.6 274.811 76.2 274.871 77.06H275.991C275.901 75.63 274.771 74.72 273.281 74.72C271.791 74.72 270.731 75.63 270.731 76.84C270.731 78.06 271.651 78.57 272.661 78.77L273.701 78.97C274.531 79.15 274.921 79.45 274.921 80.05C274.921 80.79 274.241 81.22 273.331 81.22C272.231 81.22 271.651 80.63 271.601 79.72H270.481C270.571 81.15 271.621 82.1 273.351 82.1C275.091 82.1 276.091 81.15 276.091 79.9ZM279.634 82C281.874 82 283.244 80.45 283.244 78.38C283.244 76.28 281.924 74.82 279.634 74.82H277.364V82H279.634ZM278.464 75.77H279.584C281.244 75.77 282.124 76.76 282.124 78.38C282.124 80.03 281.234 81.05 279.584 81.05H278.464V75.77ZM291.115 80.51V79.63H290.195V75.24H289.415L285.935 79.8V80.51H289.185V82H290.195V80.51H291.115ZM287.065 79.63L289.185 76.77V79.63H287.065ZM293.357 82V78.67L296.367 82H297.747L294.467 78.34L297.667 74.82H296.397L293.357 78.14V74.82H292.257V82H293.357Z" fill="#ADADAD"/>
<path d="M139.692 13.18C141.852 13.18 143.58 11.74 143.904 9.604H142.5C142.26 10.996 141.132 11.992 139.704 11.992C138 11.992 136.8 10.612 136.8 8.68C136.8 6.772 138 5.392 139.704 5.392C141.132 5.392 142.26 6.376 142.5 7.768H143.904C143.58 5.644 141.852 4.204 139.692 4.204C137.292 4.204 135.432 6.148 135.432 8.68C135.432 11.224 137.292 13.18 139.692 13.18ZM149.152 13.18C151.648 13.18 153.532 11.224 153.532 8.68C153.532 6.136 151.648 4.204 149.152 4.204C146.656 4.204 144.772 6.136 144.772 8.68C144.772 11.224 146.656 13.18 149.152 13.18ZM149.152 11.992C147.328 11.992 146.14 10.528 146.14 8.68C146.14 6.832 147.328 5.392 149.152 5.392C150.976 5.392 152.164 6.832 152.164 8.68C152.164 10.528 150.976 11.992 149.152 11.992ZM160.657 13H161.989V4.384H160.765V10.936L156.337 4.384H154.897V13H156.121V6.268L160.657 13ZM167.27 13V5.572H170.078V4.384H163.142V5.572H165.95V13H167.27ZM172.565 13V9.76H174.149L176.297 13H177.881L175.541 9.568C176.849 9.256 177.629 8.308 177.629 7.072C177.629 5.356 176.441 4.384 174.461 4.384H171.245V13H172.565ZM172.565 5.488H174.377C175.601 5.488 176.297 6.04 176.297 7.072C176.297 8.116 175.601 8.656 174.377 8.656H172.565V5.488ZM184.966 13H186.37L183.094 4.384H181.642L178.342 13H179.674L180.466 10.864H184.186L184.966 13ZM182.338 5.824L183.79 9.796H180.862L182.338 5.824ZM190.774 13.18C192.934 13.18 194.662 11.74 194.986 9.604H193.582C193.342 10.996 192.214 11.992 190.786 11.992C189.082 11.992 187.882 10.612 187.882 8.68C187.882 6.772 189.082 5.392 190.786 5.392C192.214 5.392 193.342 6.376 193.582 7.768H194.986C194.662 5.644 192.934 4.204 190.774 4.204C188.374 4.204 186.514 6.148 186.514 8.68C186.514 11.224 188.374 13.18 190.774 13.18ZM199.473 13V5.572H202.281V4.384H195.345V5.572H198.153V13H199.473ZM209.513 10.48C209.513 9.196 208.685 8.548 207.209 8.248L205.937 7.996C205.133 7.828 204.425 7.54 204.425 6.724C204.425 5.98 205.037 5.32 206.153 5.32C207.233 5.32 207.977 6.04 208.049 7.072H209.393C209.285 5.356 207.929 4.264 206.141 4.264C204.353 4.264 203.081 5.356 203.081 6.808C203.081 8.272 204.185 8.884 205.397 9.124L206.645 9.364C207.641 9.58 208.109 9.94 208.109 10.66C208.109 11.548 207.293 12.064 206.201 12.064C204.881 12.064 204.185 11.356 204.125 10.264H202.781C202.889 11.98 204.149 13.12 206.225 13.12C208.313 13.12 209.513 11.98 209.513 10.48Z" fill="black"/>
<path d="M141.31 17.82H140.21V22.45C140.21 23.49 139.6 24.16 138.53 24.16C137.47 24.16 136.86 23.49 136.86 22.45V17.82H135.76V22.42C135.76 24.07 136.81 25.15 138.53 25.15C140.25 25.15 141.31 24.07 141.31 22.42V17.82ZM148.091 22.9C148.091 21.83 147.401 21.29 146.171 21.04L145.111 20.83C144.441 20.69 143.851 20.45 143.851 19.77C143.851 19.15 144.361 18.6 145.291 18.6C146.191 18.6 146.811 19.2 146.871 20.06H147.991C147.901 18.63 146.771 17.72 145.281 17.72C143.791 17.72 142.731 18.63 142.731 19.84C142.731 21.06 143.651 21.57 144.661 21.77L145.701 21.97C146.531 22.15 146.921 22.45 146.921 23.05C146.921 23.79 146.241 24.22 145.331 24.22C144.231 24.22 143.651 23.63 143.601 22.72H142.481C142.571 24.15 143.621 25.1 145.351 25.1C147.091 25.1 148.091 24.15 148.091 22.9ZM151.634 25C153.874 25 155.244 23.45 155.244 21.38C155.244 19.28 153.924 17.82 151.634 17.82H149.364V25H151.634ZM150.464 18.77H151.584C153.244 18.77 154.124 19.76 154.124 21.38C154.124 23.03 153.234 24.05 151.584 24.05H150.464V18.77ZM163.115 23.51V22.63H162.195V18.24H161.415L157.935 22.8V23.51H161.185V25H162.195V23.51H163.115ZM159.065 22.63L161.185 19.77V22.63H159.065ZM165.357 25V21.67L168.367 25H169.747L166.467 21.34L169.667 17.82H168.397L165.357 21.14V17.82H164.257V25H165.357Z" fill="#ADADAD"/>
</svg>
