<svg width="431" height="435" viewBox="0 0 431 435" fill="none" xmlns="http://www.w3.org/2000/svg">
<rect x="112.882" y="329.337" width="153.33" height="34.8959" fill="#F8FAFB"/>
<path d="M174.434 342.126L176.544 348.757H176.625L178.738 342.126H180.784L177.775 350.854H175.397L172.385 342.126H174.434ZM182.94 350.977C182.522 350.977 182.15 350.905 181.824 350.76C181.497 350.612 181.238 350.395 181.048 350.108C180.86 349.818 180.767 349.457 180.767 349.025C180.767 348.662 180.833 348.356 180.967 348.109C181.101 347.862 181.282 347.663 181.512 347.513C181.743 347.362 182.004 347.248 182.297 347.172C182.592 347.095 182.902 347.041 183.226 347.01C183.606 346.97 183.913 346.933 184.146 346.899C184.379 346.862 184.548 346.808 184.653 346.737C184.758 346.666 184.811 346.561 184.811 346.422V346.396C184.811 346.126 184.726 345.917 184.555 345.77C184.387 345.622 184.149 345.548 183.839 345.548C183.512 345.548 183.253 345.621 183.059 345.765C182.866 345.907 182.738 346.086 182.676 346.302L180.997 346.166C181.082 345.768 181.25 345.425 181.5 345.135C181.75 344.842 182.072 344.618 182.467 344.461C182.865 344.302 183.325 344.223 183.848 344.223C184.211 344.223 184.559 344.265 184.892 344.351C185.227 344.436 185.524 344.568 185.782 344.747C186.044 344.926 186.25 345.156 186.4 345.437C186.551 345.716 186.626 346.05 186.626 346.439V350.854H184.905V349.946H184.853C184.748 350.15 184.608 350.331 184.432 350.487C184.255 350.64 184.044 350.761 183.797 350.849C183.549 350.934 183.264 350.977 182.94 350.977ZM183.46 349.724C183.727 349.724 183.963 349.672 184.167 349.567C184.372 349.459 184.532 349.314 184.649 349.132C184.765 348.95 184.824 348.744 184.824 348.514V347.819C184.767 347.856 184.689 347.89 184.589 347.922C184.493 347.95 184.383 347.977 184.261 348.003C184.139 348.025 184.017 348.047 183.895 348.067C183.772 348.084 183.662 348.099 183.562 348.113C183.349 348.145 183.163 348.194 183.004 348.263C182.845 348.331 182.721 348.423 182.633 348.54C182.545 348.653 182.501 348.795 182.501 348.966C182.501 349.213 182.591 349.402 182.77 349.532C182.951 349.66 183.182 349.724 183.46 349.724ZM189.85 342.126V350.854H188.034V342.126H189.85ZM195.501 348.067V344.308H197.317V350.854H195.574V349.665H195.506C195.358 350.048 195.112 350.356 194.769 350.589C194.428 350.822 194.011 350.939 193.52 350.939C193.082 350.939 192.697 350.839 192.365 350.64C192.033 350.442 191.773 350.159 191.585 349.792C191.401 349.426 191.307 348.987 191.304 348.476V344.308H193.119V348.152C193.122 348.538 193.226 348.844 193.43 349.068C193.635 349.292 193.909 349.405 194.253 349.405C194.472 349.405 194.676 349.355 194.867 349.256C195.057 349.153 195.21 349.003 195.327 348.804C195.446 348.605 195.504 348.359 195.501 348.067ZM201.752 350.981C201.079 350.981 200.499 350.845 200.013 350.572C199.53 350.297 199.158 349.907 198.897 349.405C198.635 348.899 198.505 348.301 198.505 347.611C198.505 346.937 198.635 346.346 198.897 345.838C199.158 345.329 199.526 344.933 200 344.649C200.478 344.365 201.037 344.223 201.679 344.223C202.111 344.223 202.513 344.292 202.885 344.432C203.26 344.568 203.587 344.774 203.865 345.05C204.147 345.325 204.365 345.672 204.522 346.089C204.678 346.504 204.756 346.99 204.756 347.547V348.045H199.229V346.92H203.047C203.047 346.659 202.99 346.427 202.877 346.226C202.763 346.024 202.606 345.866 202.404 345.753C202.205 345.636 201.973 345.578 201.709 345.578C201.434 345.578 201.189 345.642 200.976 345.77C200.766 345.895 200.601 346.064 200.482 346.277C200.363 346.487 200.302 346.721 200.299 346.98V348.05C200.299 348.373 200.358 348.653 200.478 348.889C200.6 349.125 200.772 349.307 200.993 349.434C201.215 349.562 201.478 349.626 201.782 349.626C201.983 349.626 202.168 349.598 202.336 349.541C202.503 349.484 202.647 349.399 202.766 349.285C202.885 349.172 202.976 349.032 203.039 348.868L204.718 348.979C204.633 349.382 204.458 349.734 204.194 350.035C203.932 350.334 203.594 350.567 203.179 350.734C202.767 350.899 202.292 350.981 201.752 350.981Z" fill="black"/>
<rect x="26.1709" y="364.232" width="86.711" height="34.8959" fill="#F8FAFB"/>
<path d="M58.213 381.385C58.213 382.337 58.0326 383.147 57.6718 383.814C57.3138 384.482 56.8252 384.992 56.2059 385.344C55.5894 385.694 54.8962 385.868 54.1263 385.868C53.3508 385.868 52.6547 385.692 52.0383 385.34C51.4218 384.988 50.9346 384.478 50.5766 383.81C50.2187 383.142 50.0397 382.334 50.0397 381.385C50.0397 380.434 50.2187 379.624 50.5766 378.956C50.9346 378.289 51.4218 377.78 52.0383 377.431C52.6547 377.079 53.3508 376.902 54.1263 376.902C54.8962 376.902 55.5894 377.079 56.2059 377.431C56.8252 377.78 57.3138 378.289 57.6718 378.956C58.0326 379.624 58.213 380.434 58.213 381.385ZM56.3422 381.385C56.3422 380.769 56.2499 380.249 56.0653 379.826C55.8834 379.402 55.6263 379.081 55.2939 378.863C54.9616 378.644 54.5724 378.535 54.1263 378.535C53.6803 378.535 53.2911 378.644 52.9587 378.863C52.6263 379.081 52.3678 379.402 52.1831 379.826C52.0013 380.249 51.9104 380.769 51.9104 381.385C51.9104 382.002 52.0013 382.522 52.1831 382.945C52.3678 383.368 52.6263 383.689 52.9587 383.908C53.2911 384.127 53.6803 384.236 54.1263 384.236C54.5724 384.236 54.9616 384.127 55.2939 383.908C55.6263 383.689 55.8834 383.368 56.0653 382.945C56.2499 382.522 56.3422 382.002 56.3422 381.385ZM59.5798 385.749V377.022H63.023C63.6849 377.022 64.2488 377.148 64.7148 377.401C65.1807 377.651 65.5358 377.999 65.7801 378.445C66.0273 378.888 66.1508 379.4 66.1508 379.979C66.1508 380.559 66.0258 381.07 65.7758 381.513C65.5258 381.956 65.1636 382.302 64.6892 382.549C64.2176 382.796 63.6466 382.919 62.9761 382.919H60.7815V381.441H62.6778C63.0329 381.441 63.3256 381.38 63.5557 381.258C63.7886 381.133 63.9619 380.961 64.0756 380.742C64.192 380.52 64.2503 380.266 64.2503 379.979C64.2503 379.689 64.192 379.437 64.0756 379.221C63.9619 379.002 63.7886 378.833 63.5557 378.714C63.3227 378.591 63.0273 378.53 62.6693 378.53H61.425V385.749H59.5798ZM70.7201 385.941C69.9871 385.938 69.3564 385.758 68.828 385.4C68.3025 385.042 67.8976 384.523 67.6135 383.844C67.3323 383.165 67.1931 382.348 67.1959 381.394C67.1959 380.442 67.3366 379.631 67.6178 378.961C67.9019 378.29 68.3067 377.78 68.8323 377.431C69.3607 377.079 69.99 376.902 70.7201 376.902C71.4502 376.902 72.078 377.079 72.6036 377.431C73.132 377.783 73.5383 378.294 73.8224 378.965C74.1064 379.633 74.2471 380.442 74.2442 381.394C74.2442 382.351 74.1022 383.169 73.8181 383.848C73.5368 384.527 73.1334 385.046 72.6079 385.404C72.0823 385.762 71.453 385.941 70.7201 385.941ZM70.7201 384.411C71.2201 384.411 71.6192 384.16 71.9175 383.657C72.2158 383.154 72.3635 382.4 72.3607 381.394C72.3607 380.732 72.2925 380.181 72.1562 379.741C72.0226 379.3 71.8323 378.969 71.5851 378.748C71.3408 378.526 71.0525 378.415 70.7201 378.415C70.2229 378.415 69.8252 378.664 69.5269 379.161C69.2286 379.658 69.078 380.402 69.0752 381.394C69.0752 382.064 69.142 382.624 69.2755 383.073C69.4118 383.519 69.6036 383.854 69.8508 384.079C70.0979 384.3 70.3877 384.411 70.7201 384.411ZM78.9818 385.941C78.2488 385.938 77.6182 385.758 77.0898 385.4C76.5642 385.042 76.1594 384.523 75.8753 383.844C75.594 383.165 75.4548 382.348 75.4577 381.394C75.4577 380.442 75.5983 379.631 75.8795 378.961C76.1636 378.29 76.5684 377.78 77.094 377.431C77.6224 377.079 78.2517 376.902 78.9818 376.902C79.7119 376.902 80.3398 377.079 80.8653 377.431C81.3937 377.783 81.8 378.294 82.0841 378.965C82.3682 379.633 82.5088 380.442 82.5059 381.394C82.5059 382.351 82.3639 383.169 82.0798 383.848C81.7986 384.527 81.3952 385.046 80.8696 385.404C80.344 385.762 79.7148 385.941 78.9818 385.941ZM78.9818 384.411C79.4818 384.411 79.8809 384.16 80.1792 383.657C80.4775 383.154 80.6253 382.4 80.6224 381.394C80.6224 380.732 80.5542 380.181 80.4179 379.741C80.2844 379.3 80.094 378.969 79.8469 378.748C79.6025 378.526 79.3142 378.415 78.9818 378.415C78.4846 378.415 78.0869 378.664 77.7886 379.161C77.4903 379.658 77.3398 380.402 77.3369 381.394C77.3369 382.064 77.4037 382.624 77.5372 383.073C77.6736 383.519 77.8653 383.854 78.1125 384.079C78.3596 384.3 78.6494 384.411 78.9818 384.411ZM87.6185 377.022V385.749H85.7733V378.773H85.7222L83.7236 380.026V378.39L85.8841 377.022H87.6185Z" fill="black"/>
<rect x="26.1709" y="399.13" width="86.711" height="34.8959" fill="#F8FAFB"/>
<path d="M58.213 416.283C58.213 417.235 58.0326 418.044 57.6718 418.712C57.3138 419.379 56.8252 419.889 56.2059 420.242C55.5894 420.591 54.8962 420.766 54.1263 420.766C53.3508 420.766 52.6547 420.59 52.0383 420.237C51.4218 419.885 50.9346 419.375 50.5766 418.708C50.2187 418.04 50.0397 417.232 50.0397 416.283C50.0397 415.331 50.2187 414.521 50.5766 413.854C50.9346 413.186 51.4218 412.678 52.0383 412.328C52.6547 411.976 53.3508 411.8 54.1263 411.8C54.8962 411.8 55.5894 411.976 56.2059 412.328C56.8252 412.678 57.3138 413.186 57.6718 413.854C58.0326 414.521 58.213 415.331 58.213 416.283ZM56.3422 416.283C56.3422 415.666 56.2499 415.146 56.0653 414.723C55.8834 414.3 55.6263 413.979 55.2939 413.76C54.9616 413.541 54.5724 413.432 54.1263 413.432C53.6803 413.432 53.2911 413.541 52.9587 413.76C52.6263 413.979 52.3678 414.3 52.1831 414.723C52.0013 415.146 51.9104 415.666 51.9104 416.283C51.9104 416.899 52.0013 417.419 52.1831 417.843C52.3678 418.266 52.6263 418.587 52.9587 418.806C53.2911 419.024 53.6803 419.134 54.1263 419.134C54.5724 419.134 54.9616 419.024 55.2939 418.806C55.6263 418.587 55.8834 418.266 56.0653 417.843C56.2499 417.419 56.3422 416.899 56.3422 416.283ZM59.5798 420.646V411.919H63.023C63.6849 411.919 64.2488 412.046 64.7148 412.298C65.1807 412.548 65.5358 412.896 65.7801 413.343C66.0273 413.786 66.1508 414.297 66.1508 414.877C66.1508 415.456 66.0258 415.968 65.7758 416.411C65.5258 416.854 65.1636 417.199 64.6892 417.446C64.2176 417.693 63.6466 417.817 62.9761 417.817H60.7815V416.338H62.6778C63.0329 416.338 63.3256 416.277 63.5557 416.155C63.7886 416.03 63.9619 415.858 64.0756 415.639C64.192 415.418 64.2503 415.164 64.2503 414.877C64.2503 414.587 64.192 414.334 64.0756 414.118C63.9619 413.899 63.7886 413.73 63.5557 413.611C63.3227 413.489 63.0273 413.428 62.6693 413.428H61.425V420.646H59.5798ZM70.7201 420.838C69.9871 420.835 69.3564 420.655 68.828 420.297C68.3025 419.939 67.8976 419.421 67.6135 418.742C67.3323 418.063 67.1931 417.246 67.1959 416.291C67.1959 415.34 67.3366 414.529 67.6178 413.858C67.9019 413.188 68.3067 412.678 68.8323 412.328C69.3607 411.976 69.99 411.8 70.7201 411.8C71.4502 411.8 72.078 411.976 72.6036 412.328C73.132 412.681 73.5383 413.192 73.8224 413.862C74.1064 414.53 74.2471 415.34 74.2442 416.291C74.2442 417.249 74.1022 418.067 73.8181 418.746C73.5368 419.425 73.1334 419.943 72.6079 420.301C72.0823 420.659 71.453 420.838 70.7201 420.838ZM70.7201 419.308C71.2201 419.308 71.6192 419.057 71.9175 418.554C72.2158 418.051 72.3635 417.297 72.3607 416.291C72.3607 415.629 72.2925 415.078 72.1562 414.638C72.0226 414.198 71.8323 413.867 71.5851 413.645C71.3408 413.423 71.0525 413.313 70.7201 413.313C70.2229 413.313 69.8252 413.561 69.5269 414.058C69.2286 414.556 69.078 415.3 69.0752 416.291C69.0752 416.962 69.142 417.521 69.2755 417.97C69.4118 418.416 69.6036 418.752 69.8508 418.976C70.0979 419.198 70.3877 419.308 70.7201 419.308ZM78.9818 420.838C78.2488 420.835 77.6182 420.655 77.0898 420.297C76.5642 419.939 76.1594 419.421 75.8753 418.742C75.594 418.063 75.4548 417.246 75.4577 416.291C75.4577 415.34 75.5983 414.529 75.8795 413.858C76.1636 413.188 76.5684 412.678 77.094 412.328C77.6224 411.976 78.2517 411.8 78.9818 411.8C79.7119 411.8 80.3398 411.976 80.8653 412.328C81.3937 412.681 81.8 413.192 82.0841 413.862C82.3682 414.53 82.5088 415.34 82.5059 416.291C82.5059 417.249 82.3639 418.067 82.0798 418.746C81.7986 419.425 81.3952 419.943 80.8696 420.301C80.344 420.659 79.7148 420.838 78.9818 420.838ZM78.9818 419.308C79.4818 419.308 79.8809 419.057 80.1792 418.554C80.4775 418.051 80.6253 417.297 80.6224 416.291C80.6224 415.629 80.5542 415.078 80.4179 414.638C80.2844 414.198 80.094 413.867 79.8469 413.645C79.6025 413.423 79.3142 413.313 78.9818 413.313C78.4846 413.313 78.0869 413.561 77.7886 414.058C77.4903 414.556 77.3398 415.3 77.3369 416.291C77.3369 416.962 77.4037 417.521 77.5372 417.97C77.6736 418.416 77.8653 418.752 78.1125 418.976C78.3596 419.198 78.6494 419.308 78.9818 419.308ZM83.8216 420.646V419.317L86.9282 416.441C87.1924 416.185 87.414 415.955 87.593 415.75C87.7748 415.546 87.9126 415.345 88.0063 415.149C88.1001 414.95 88.1469 414.736 88.1469 414.506C88.1469 414.25 88.0887 414.03 87.9722 413.845C87.8557 413.658 87.6966 413.514 87.4949 413.415C87.2932 413.313 87.0645 413.262 86.8089 413.262C86.5418 413.262 86.3089 413.316 86.11 413.423C85.9111 413.531 85.7577 413.686 85.6498 413.888C85.5418 414.09 85.4878 414.33 85.4878 414.608H83.7364C83.7364 414.037 83.8657 413.541 84.1242 413.121C84.3827 412.7 84.7449 412.375 85.2108 412.145C85.6768 411.915 86.2137 411.8 86.8216 411.8C87.4466 411.8 87.9907 411.911 88.4537 412.132C88.9197 412.351 89.2819 412.655 89.5404 413.044C89.7989 413.433 89.9282 413.879 89.9282 414.382C89.9282 414.712 89.8628 415.037 89.7322 415.358C89.6043 415.679 89.3756 416.036 89.0461 416.428C88.7165 416.817 88.252 417.284 87.6526 417.83L86.3785 419.078V419.138H90.0432V420.646H83.8216Z" fill="black"/>
<rect x="266.212" y="329.337" width="153.33" height="34.8959" fill="#F8FAFB"/>
<path d="M315.003 350.854H313.025L316.038 342.126H318.416L321.424 350.854H319.447L317.261 344.121H317.193L315.003 350.854ZM314.879 347.423H319.549V348.863H314.879V347.423ZM325.093 350.981C324.423 350.981 323.846 350.839 323.363 350.555C322.883 350.268 322.514 349.871 322.255 349.362C322 348.854 321.872 348.268 321.872 347.606C321.872 346.936 322.001 346.348 322.26 345.842C322.521 345.334 322.892 344.937 323.372 344.653C323.852 344.366 324.423 344.223 325.085 344.223C325.656 344.223 326.156 344.327 326.585 344.534C327.014 344.741 327.353 345.032 327.603 345.407C327.853 345.782 327.991 346.223 328.017 346.729H326.304C326.255 346.402 326.128 346.139 325.92 345.94C325.716 345.738 325.447 345.638 325.115 345.638C324.833 345.638 324.588 345.714 324.378 345.868C324.17 346.018 324.008 346.238 323.892 346.528C323.775 346.818 323.717 347.169 323.717 347.581C323.717 347.998 323.774 348.354 323.887 348.646C324.004 348.939 324.167 349.162 324.378 349.315C324.588 349.469 324.833 349.545 325.115 349.545C325.322 349.545 325.508 349.503 325.673 349.417C325.841 349.332 325.978 349.209 326.086 349.047C326.197 348.882 326.27 348.684 326.304 348.454H328.017C327.988 348.954 327.852 349.395 327.608 349.775C327.366 350.153 327.032 350.449 326.606 350.662C326.18 350.875 325.676 350.981 325.093 350.981ZM332.136 350.981C331.466 350.981 330.889 350.839 330.406 350.555C329.926 350.268 329.557 349.871 329.298 349.362C329.043 348.854 328.915 348.268 328.915 347.606C328.915 346.936 329.044 346.348 329.303 345.842C329.564 345.334 329.935 344.937 330.415 344.653C330.895 344.366 331.466 344.223 332.128 344.223C332.699 344.223 333.199 344.327 333.628 344.534C334.057 344.741 334.396 345.032 334.646 345.407C334.896 345.782 335.034 346.223 335.06 346.729H333.347C333.298 346.402 333.17 346.139 332.963 345.94C332.759 345.738 332.49 345.638 332.158 345.638C331.876 345.638 331.631 345.714 331.42 345.868C331.213 346.018 331.051 346.238 330.935 346.528C330.818 346.818 330.76 347.169 330.76 347.581C330.76 347.998 330.817 348.354 330.93 348.646C331.047 348.939 331.21 349.162 331.42 349.315C331.631 349.469 331.876 349.545 332.158 349.545C332.365 349.545 332.551 349.503 332.716 349.417C332.884 349.332 333.021 349.209 333.129 349.047C333.24 348.882 333.313 348.684 333.347 348.454H335.06C335.031 348.954 334.895 349.395 334.651 349.775C334.409 350.153 334.075 350.449 333.649 350.662C333.223 350.875 332.719 350.981 332.136 350.981ZM339.205 350.981C338.532 350.981 337.952 350.845 337.466 350.572C336.983 350.297 336.611 349.907 336.35 349.405C336.088 348.899 335.958 348.301 335.958 347.611C335.958 346.937 336.088 346.346 336.35 345.838C336.611 345.329 336.979 344.933 337.454 344.649C337.931 344.365 338.49 344.223 339.133 344.223C339.564 344.223 339.966 344.292 340.338 344.432C340.713 344.568 341.04 344.774 341.319 345.05C341.6 345.325 341.819 345.672 341.975 346.089C342.131 346.504 342.209 346.99 342.209 347.547V348.045H336.682V346.92H340.5C340.5 346.659 340.444 346.427 340.33 346.226C340.216 346.024 340.059 345.866 339.857 345.753C339.658 345.636 339.427 345.578 339.162 345.578C338.887 345.578 338.642 345.642 338.429 345.77C338.219 345.895 338.054 346.064 337.935 346.277C337.816 346.487 337.755 346.721 337.752 346.98V348.05C337.752 348.373 337.811 348.653 337.931 348.889C338.053 349.125 338.225 349.307 338.446 349.434C338.668 349.562 338.931 349.626 339.235 349.626C339.436 349.626 339.621 349.598 339.789 349.541C339.956 349.484 340.1 349.399 340.219 349.285C340.338 349.172 340.429 349.032 340.492 348.868L342.171 348.979C342.086 349.382 341.911 349.734 341.647 350.035C341.385 350.334 341.047 350.567 340.633 350.734C340.221 350.899 339.745 350.981 339.205 350.981ZM343.394 353.308V344.308H345.184V345.407H345.265C345.344 345.231 345.459 345.052 345.61 344.871C345.763 344.686 345.962 344.532 346.206 344.41C346.454 344.285 346.76 344.223 347.127 344.223C347.604 344.223 348.044 344.348 348.448 344.598C348.851 344.845 349.174 345.219 349.415 345.719C349.657 346.216 349.777 346.839 349.777 347.589C349.777 348.319 349.659 348.936 349.424 349.439C349.191 349.939 348.873 350.318 348.469 350.577C348.069 350.832 347.62 350.96 347.123 350.96C346.77 350.96 346.471 350.902 346.223 350.785C345.979 350.669 345.779 350.523 345.623 350.346C345.466 350.167 345.347 349.987 345.265 349.805H345.209V353.308H343.394ZM345.171 347.581C345.171 347.97 345.225 348.309 345.333 348.599C345.441 348.889 345.597 349.115 345.802 349.277C346.006 349.436 346.255 349.515 346.547 349.515C346.843 349.515 347.093 349.434 347.297 349.273C347.502 349.108 347.657 348.881 347.762 348.591C347.87 348.298 347.924 347.961 347.924 347.581C347.924 347.203 347.871 346.871 347.766 346.584C347.661 346.297 347.506 346.072 347.302 345.91C347.097 345.748 346.846 345.667 346.547 345.667C346.252 345.667 346.002 345.746 345.797 345.902C345.596 346.058 345.441 346.28 345.333 346.567C345.225 346.854 345.171 347.192 345.171 347.581ZM354.469 344.308V345.672H350.527V344.308H354.469ZM351.422 342.74H353.238V348.842C353.238 349.01 353.263 349.14 353.314 349.234C353.365 349.325 353.436 349.389 353.527 349.426C353.621 349.463 353.729 349.481 353.851 349.481C353.936 349.481 354.022 349.474 354.107 349.46C354.192 349.443 354.258 349.43 354.303 349.422L354.588 350.773C354.498 350.801 354.37 350.834 354.205 350.871C354.04 350.91 353.84 350.934 353.604 350.943C353.167 350.96 352.783 350.902 352.454 350.768C352.127 350.635 351.873 350.427 351.691 350.146C351.509 349.865 351.419 349.51 351.422 349.081V342.74ZM358.564 350.981C357.891 350.981 357.311 350.845 356.826 350.572C356.343 350.297 355.971 349.907 355.709 349.405C355.448 348.899 355.317 348.301 355.317 347.611C355.317 346.937 355.448 346.346 355.709 345.838C355.971 345.329 356.338 344.933 356.813 344.649C357.29 344.365 357.85 344.223 358.492 344.223C358.924 344.223 359.326 344.292 359.698 344.432C360.073 344.568 360.4 344.774 360.678 345.05C360.959 345.325 361.178 345.672 361.334 346.089C361.49 346.504 361.569 346.99 361.569 347.547V348.045H356.042V346.92H359.86C359.86 346.659 359.803 346.427 359.689 346.226C359.576 346.024 359.418 345.866 359.216 345.753C359.017 345.636 358.786 345.578 358.522 345.578C358.246 345.578 358.002 345.642 357.789 345.77C357.579 345.895 357.414 346.064 357.294 346.277C357.175 346.487 357.114 346.721 357.111 346.98V348.05C357.111 348.373 357.171 348.653 357.29 348.889C357.412 349.125 357.584 349.307 357.806 349.434C358.027 349.562 358.29 349.626 358.594 349.626C358.796 349.626 358.981 349.598 359.148 349.541C359.316 349.484 359.459 349.399 359.579 349.285C359.698 349.172 359.789 349.032 359.851 348.868L361.53 348.979C361.445 349.382 361.27 349.734 361.006 350.035C360.745 350.334 360.407 350.567 359.992 350.734C359.58 350.899 359.104 350.981 358.564 350.981ZM365.165 350.96C364.668 350.96 364.218 350.832 363.814 350.577C363.414 350.318 363.096 349.939 362.86 349.439C362.627 348.936 362.51 348.319 362.51 347.589C362.51 346.839 362.631 346.216 362.873 345.719C363.114 345.219 363.435 344.845 363.836 344.598C364.239 344.348 364.681 344.223 365.161 344.223C365.527 344.223 365.833 344.285 366.077 344.41C366.324 344.532 366.523 344.686 366.674 344.871C366.827 345.052 366.944 345.231 367.023 345.407H367.079V342.126H368.89V350.854H367.1V349.805H367.023C366.938 349.987 366.817 350.167 366.661 350.346C366.508 350.523 366.307 350.669 366.06 350.785C365.816 350.902 365.517 350.96 365.165 350.96ZM365.74 349.515C366.033 349.515 366.28 349.436 366.482 349.277C366.686 349.115 366.843 348.889 366.951 348.599C367.061 348.309 367.117 347.97 367.117 347.581C367.117 347.192 367.063 346.854 366.955 346.567C366.847 346.28 366.691 346.058 366.486 345.902C366.282 345.746 366.033 345.667 365.74 345.667C365.442 345.667 365.191 345.748 364.986 345.91C364.782 346.072 364.627 346.297 364.522 346.584C364.417 346.871 364.364 347.203 364.364 347.581C364.364 347.961 364.417 348.298 364.522 348.591C364.63 348.881 364.784 349.108 364.986 349.273C365.191 349.434 365.442 349.515 365.74 349.515Z" fill="black"/>
<path d="M169.83 385.75V384.983L172.71 381.83C173.048 381.46 173.327 381.139 173.546 380.866C173.764 380.591 173.926 380.332 174.031 380.091C174.139 379.847 174.193 379.591 174.193 379.324C174.193 379.017 174.119 378.751 173.972 378.527C173.827 378.303 173.628 378.129 173.375 378.007C173.122 377.885 172.838 377.824 172.523 377.824C172.188 377.824 171.895 377.893 171.645 378.033C171.398 378.169 171.206 378.361 171.07 378.608C170.936 378.855 170.869 379.145 170.869 379.477H169.864C169.864 378.966 169.982 378.517 170.217 378.131C170.453 377.744 170.774 377.443 171.181 377.227C171.59 377.011 172.048 376.903 172.557 376.903C173.068 376.903 173.521 377.011 173.916 377.227C174.311 377.443 174.621 377.734 174.845 378.101C175.07 378.467 175.182 378.875 175.182 379.324C175.182 379.645 175.124 379.959 175.007 380.266C174.894 380.57 174.695 380.909 174.411 381.284C174.129 381.656 173.739 382.111 173.239 382.648L171.279 384.744V384.812H175.335V385.75H169.83ZM179.993 385.869C179.635 385.864 179.277 385.795 178.919 385.665C178.561 385.534 178.235 385.314 177.939 385.004C177.644 384.692 177.406 384.27 177.227 383.739C177.048 383.205 176.959 382.534 176.959 381.727C176.959 380.955 177.031 380.27 177.176 379.673C177.321 379.074 177.531 378.57 177.807 378.161C178.083 377.749 178.415 377.436 178.804 377.223C179.196 377.01 179.638 376.903 180.129 376.903C180.618 376.903 181.053 377.001 181.433 377.197C181.817 377.391 182.129 377.661 182.371 378.007C182.612 378.354 182.769 378.753 182.84 379.205H181.8C181.703 378.812 181.516 378.487 181.237 378.229C180.959 377.97 180.59 377.841 180.129 377.841C179.453 377.841 178.921 378.135 178.531 378.723C178.145 379.311 177.95 380.136 177.948 381.199H178.016C178.175 380.957 178.364 380.751 178.583 380.581C178.804 380.408 179.048 380.274 179.315 380.18C179.583 380.087 179.865 380.04 180.163 380.04C180.663 380.04 181.121 380.165 181.536 380.415C181.95 380.662 182.283 381.004 182.533 381.442C182.783 381.876 182.908 382.375 182.908 382.938C182.908 383.477 182.787 383.972 182.546 384.42C182.304 384.866 181.965 385.222 181.527 385.486C181.092 385.747 180.581 385.875 179.993 385.869ZM179.993 384.932C180.351 384.932 180.672 384.842 180.956 384.663C181.243 384.484 181.469 384.244 181.634 383.943C181.801 383.642 181.885 383.307 181.885 382.938C181.885 382.577 181.804 382.249 181.642 381.953C181.483 381.655 181.263 381.418 180.982 381.241C180.703 381.065 180.385 380.977 180.027 380.977C179.757 380.977 179.506 381.031 179.273 381.139C179.04 381.244 178.835 381.389 178.659 381.574C178.486 381.759 178.35 381.97 178.25 382.209C178.151 382.445 178.101 382.693 178.101 382.955C178.101 383.301 178.182 383.625 178.344 383.926C178.509 384.227 178.733 384.47 179.017 384.655C179.304 384.839 179.629 384.932 179.993 384.932ZM184.923 385.818C184.713 385.818 184.533 385.743 184.382 385.592C184.232 385.442 184.156 385.261 184.156 385.051C184.156 384.841 184.232 384.661 184.382 384.51C184.533 384.359 184.713 384.284 184.923 384.284C185.134 384.284 185.314 384.359 185.465 384.51C185.615 384.661 185.69 384.841 185.69 385.051C185.69 385.19 185.655 385.318 185.584 385.435C185.516 385.551 185.423 385.645 185.307 385.716C185.193 385.784 185.065 385.818 184.923 385.818ZM190.02 385.869C189.378 385.869 188.831 385.695 188.379 385.345C187.928 384.993 187.583 384.483 187.344 383.815C187.105 383.145 186.986 382.335 186.986 381.386C186.986 380.443 187.105 379.638 187.344 378.97C187.585 378.3 187.932 377.788 188.384 377.436C188.838 377.081 189.384 376.903 190.02 376.903C190.656 376.903 191.2 377.081 191.652 377.436C192.107 377.788 192.453 378.3 192.692 378.97C192.933 379.638 193.054 380.443 193.054 381.386C193.054 382.335 192.935 383.145 192.696 383.815C192.458 384.483 192.112 384.993 191.661 385.345C191.209 385.695 190.662 385.869 190.02 385.869ZM190.02 384.932C190.656 384.932 191.151 384.625 191.503 384.011C191.855 383.398 192.031 382.523 192.031 381.386C192.031 380.631 191.95 379.987 191.788 379.456C191.629 378.925 191.399 378.52 191.098 378.241C190.8 377.963 190.44 377.824 190.02 377.824C189.389 377.824 188.896 378.135 188.541 378.757C188.186 379.376 188.009 380.253 188.009 381.386C188.009 382.142 188.088 382.784 188.247 383.312C188.406 383.841 188.635 384.243 188.933 384.518C189.235 384.794 189.597 384.932 190.02 384.932ZM197.52 385.869C196.878 385.869 196.331 385.695 195.879 385.345C195.428 384.993 195.083 384.483 194.844 383.815C194.605 383.145 194.486 382.335 194.486 381.386C194.486 380.443 194.605 379.638 194.844 378.97C195.085 378.3 195.432 377.788 195.884 377.436C196.338 377.081 196.884 376.903 197.52 376.903C198.156 376.903 198.7 377.081 199.152 377.436C199.607 377.788 199.953 378.3 200.192 378.97C200.433 379.638 200.554 380.443 200.554 381.386C200.554 382.335 200.435 383.145 200.196 383.815C199.958 384.483 199.612 384.993 199.161 385.345C198.709 385.695 198.162 385.869 197.52 385.869ZM197.52 384.932C198.156 384.932 198.651 384.625 199.003 384.011C199.355 383.398 199.531 382.523 199.531 381.386C199.531 380.631 199.45 379.987 199.288 379.456C199.129 378.925 198.899 378.52 198.598 378.241C198.3 377.963 197.94 377.824 197.52 377.824C196.889 377.824 196.396 378.135 196.041 378.757C195.686 379.376 195.509 380.253 195.509 381.386C195.509 382.142 195.588 382.784 195.747 383.312C195.906 383.841 196.135 384.243 196.433 384.518C196.735 384.794 197.097 384.932 197.52 384.932ZM205.02 385.869C204.378 385.869 203.831 385.695 203.379 385.345C202.928 384.993 202.583 384.483 202.344 383.815C202.105 383.145 201.986 382.335 201.986 381.386C201.986 380.443 202.105 379.638 202.344 378.97C202.585 378.3 202.932 377.788 203.384 377.436C203.838 377.081 204.384 376.903 205.02 376.903C205.656 376.903 206.2 377.081 206.652 377.436C207.107 377.788 207.453 378.3 207.692 378.97C207.933 379.638 208.054 380.443 208.054 381.386C208.054 382.335 207.935 383.145 207.696 383.815C207.458 384.483 207.112 384.993 206.661 385.345C206.209 385.695 205.662 385.869 205.02 385.869ZM205.02 384.932C205.656 384.932 206.151 384.625 206.503 384.011C206.855 383.398 207.031 382.523 207.031 381.386C207.031 380.631 206.95 379.987 206.788 379.456C206.629 378.925 206.399 378.52 206.098 378.241C205.8 377.963 205.44 377.824 205.02 377.824C204.389 377.824 203.896 378.135 203.541 378.757C203.186 379.376 203.009 380.253 203.009 381.386C203.009 382.142 203.088 382.784 203.247 383.312C203.406 383.841 203.635 384.243 203.933 384.518C204.235 384.794 204.597 384.932 205.02 384.932Z" fill="black"/>
<path d="M172.557 420.766C172.057 420.766 171.607 420.666 171.206 420.468C170.806 420.269 170.485 419.996 170.243 419.649C170.002 419.303 169.869 418.908 169.847 418.465H170.869C170.909 418.86 171.088 419.186 171.406 419.445C171.727 419.7 172.111 419.828 172.557 419.828C172.915 419.828 173.233 419.744 173.511 419.577C173.793 419.409 174.013 419.179 174.172 418.887C174.334 418.591 174.415 418.257 174.415 417.885C174.415 417.504 174.331 417.165 174.163 416.867C173.999 416.566 173.771 416.328 173.482 416.155C173.192 415.982 172.861 415.894 172.489 415.891C172.222 415.888 171.948 415.929 171.666 416.014C171.385 416.097 171.154 416.203 170.972 416.334L169.983 416.215L170.511 411.919H175.046V412.857H171.398L171.091 415.431H171.142C171.321 415.289 171.546 415.171 171.815 415.077C172.085 414.983 172.367 414.936 172.659 414.936C173.193 414.936 173.669 415.064 174.087 415.32C174.507 415.573 174.837 415.919 175.075 416.36C175.317 416.8 175.438 417.303 175.438 417.868C175.438 418.425 175.313 418.922 175.063 419.36C174.815 419.794 174.475 420.138 174.04 420.391C173.605 420.641 173.111 420.766 172.557 420.766ZM179.977 420.766C179.335 420.766 178.788 420.591 178.336 420.242C177.885 419.889 177.54 419.379 177.301 418.712C177.062 418.041 176.943 417.232 176.943 416.283C176.943 415.34 177.062 414.534 177.301 413.867C177.542 413.196 177.889 412.685 178.341 412.333C178.795 411.977 179.341 411.8 179.977 411.8C180.613 411.8 181.157 411.977 181.609 412.333C182.064 412.685 182.41 413.196 182.649 413.867C182.89 414.534 183.011 415.34 183.011 416.283C183.011 417.232 182.892 418.041 182.653 418.712C182.415 419.379 182.069 419.889 181.618 420.242C181.166 420.591 180.619 420.766 179.977 420.766ZM179.977 419.828C180.613 419.828 181.108 419.521 181.46 418.908C181.812 418.294 181.988 417.419 181.988 416.283C181.988 415.527 181.907 414.884 181.746 414.352C181.586 413.821 181.356 413.416 181.055 413.138C180.757 412.86 180.398 412.72 179.977 412.72C179.346 412.72 178.853 413.031 178.498 413.654C178.143 414.273 177.966 415.149 177.966 416.283C177.966 417.039 178.045 417.681 178.204 418.209C178.363 418.737 178.592 419.139 178.89 419.415C179.192 419.691 179.554 419.828 179.977 419.828ZM185.076 420.715C184.866 420.715 184.685 420.639 184.535 420.489C184.384 420.338 184.309 420.158 184.309 419.948C184.309 419.737 184.384 419.557 184.535 419.406C184.685 419.256 184.866 419.181 185.076 419.181C185.286 419.181 185.466 419.256 185.617 419.406C185.768 419.557 185.843 419.737 185.843 419.948C185.843 420.087 185.807 420.215 185.736 420.331C185.668 420.448 185.576 420.541 185.459 420.612C185.346 420.681 185.218 420.715 185.076 420.715ZM190.172 420.766C189.53 420.766 188.983 420.591 188.532 420.242C188.08 419.889 187.735 419.379 187.496 418.712C187.258 418.041 187.138 417.232 187.138 416.283C187.138 415.34 187.258 414.534 187.496 413.867C187.738 413.196 188.084 412.685 188.536 412.333C188.991 411.977 189.536 411.8 190.172 411.8C190.809 411.8 191.353 411.977 191.804 412.333C192.259 412.685 192.606 413.196 192.844 413.867C193.086 414.534 193.206 415.34 193.206 416.283C193.206 417.232 193.087 418.041 192.848 418.712C192.61 419.379 192.265 419.889 191.813 420.242C191.361 420.591 190.814 420.766 190.172 420.766ZM190.172 419.828C190.809 419.828 191.303 419.521 191.655 418.908C192.008 418.294 192.184 417.419 192.184 416.283C192.184 415.527 192.103 414.884 191.941 414.352C191.782 413.821 191.552 413.416 191.25 413.138C190.952 412.86 190.593 412.72 190.172 412.72C189.542 412.72 189.049 413.031 188.694 413.654C188.339 414.273 188.161 415.149 188.161 416.283C188.161 417.039 188.241 417.681 188.4 418.209C188.559 418.737 188.787 419.139 189.086 419.415C189.387 419.691 189.749 419.828 190.172 419.828ZM197.672 420.766C197.03 420.766 196.483 420.591 196.032 420.242C195.58 419.889 195.235 419.379 194.996 418.712C194.758 418.041 194.638 417.232 194.638 416.283C194.638 415.34 194.758 414.534 194.996 413.867C195.238 413.196 195.584 412.685 196.036 412.333C196.491 411.977 197.036 411.8 197.672 411.8C198.309 411.8 198.853 411.977 199.304 412.333C199.759 412.685 200.106 413.196 200.344 413.867C200.586 414.534 200.706 415.34 200.706 416.283C200.706 417.232 200.587 418.041 200.348 418.712C200.11 419.379 199.765 419.889 199.313 420.242C198.861 420.591 198.314 420.766 197.672 420.766ZM197.672 419.828C198.309 419.828 198.803 419.521 199.155 418.908C199.508 418.294 199.684 417.419 199.684 416.283C199.684 415.527 199.603 414.884 199.441 414.352C199.282 413.821 199.052 413.416 198.75 413.138C198.452 412.86 198.093 412.72 197.672 412.72C197.042 412.72 196.549 413.031 196.194 413.654C195.839 414.273 195.661 415.149 195.661 416.283C195.661 417.039 195.741 417.681 195.9 418.209C196.059 418.737 196.287 419.139 196.586 419.415C196.887 419.691 197.249 419.828 197.672 419.828ZM205.172 420.766C204.53 420.766 203.983 420.591 203.532 420.242C203.08 419.889 202.735 419.379 202.496 418.712C202.258 418.041 202.138 417.232 202.138 416.283C202.138 415.34 202.258 414.534 202.496 413.867C202.738 413.196 203.084 412.685 203.536 412.333C203.991 411.977 204.536 411.8 205.172 411.8C205.809 411.8 206.353 411.977 206.804 412.333C207.259 412.685 207.606 413.196 207.844 413.867C208.086 414.534 208.206 415.34 208.206 416.283C208.206 417.232 208.087 418.041 207.848 418.712C207.61 419.379 207.265 419.889 206.813 420.242C206.361 420.591 205.814 420.766 205.172 420.766ZM205.172 419.828C205.809 419.828 206.303 419.521 206.655 418.908C207.008 418.294 207.184 417.419 207.184 416.283C207.184 415.527 207.103 414.884 206.941 414.352C206.782 413.821 206.552 413.416 206.25 413.138C205.952 412.86 205.593 412.72 205.172 412.72C204.542 412.72 204.049 413.031 203.694 413.654C203.339 414.273 203.161 415.149 203.161 416.283C203.161 417.039 203.241 417.681 203.4 418.209C203.559 418.737 203.787 419.139 204.086 419.415C204.387 419.691 204.749 419.828 205.172 419.828Z" fill="black"/>
<path d="M325.051 420.766C324.489 420.766 323.988 420.669 323.547 420.476C323.11 420.283 322.762 420.014 322.503 419.671C322.248 419.324 322.108 418.922 322.086 418.465H323.159C323.182 418.746 323.279 418.989 323.449 419.193C323.62 419.395 323.843 419.551 324.118 419.662C324.394 419.773 324.699 419.828 325.034 419.828C325.409 419.828 325.742 419.763 326.032 419.632C326.321 419.502 326.549 419.32 326.713 419.087C326.878 418.854 326.961 418.584 326.961 418.277C326.961 417.956 326.881 417.673 326.722 417.429C326.563 417.182 326.33 416.989 326.023 416.85C325.716 416.71 325.341 416.641 324.898 416.641H324.199V415.703H324.898C325.245 415.703 325.549 415.641 325.81 415.516C326.074 415.391 326.28 415.215 326.428 414.987C326.578 414.76 326.654 414.493 326.654 414.186C326.654 413.891 326.588 413.634 326.458 413.415C326.327 413.196 326.142 413.026 325.904 412.904C325.668 412.781 325.39 412.72 325.069 412.72C324.767 412.72 324.483 412.776 324.216 412.887C323.952 412.994 323.736 413.152 323.569 413.36C323.401 413.564 323.31 413.811 323.296 414.101H322.273C322.29 413.644 322.428 413.243 322.686 412.899C322.945 412.553 323.283 412.283 323.701 412.09C324.121 411.896 324.583 411.8 325.086 411.8C325.625 411.8 326.088 411.909 326.475 412.128C326.861 412.344 327.158 412.629 327.365 412.985C327.573 413.34 327.676 413.723 327.676 414.135C327.676 414.627 327.547 415.046 327.289 415.392C327.033 415.739 326.685 415.979 326.245 416.112V416.181C326.796 416.271 327.226 416.506 327.536 416.884C327.846 417.259 328 417.723 328 418.277C328 418.752 327.871 419.178 327.613 419.556C327.357 419.931 327.007 420.226 326.564 420.442C326.121 420.658 325.617 420.766 325.051 420.766ZM332.471 420.766C331.971 420.766 331.52 420.666 331.12 420.468C330.719 420.269 330.398 419.996 330.157 419.649C329.915 419.303 329.783 418.908 329.76 418.465H330.783C330.823 418.86 331.002 419.186 331.32 419.445C331.641 419.7 332.025 419.828 332.471 419.828C332.828 419.828 333.147 419.744 333.425 419.577C333.706 419.409 333.926 419.179 334.086 418.887C334.248 418.591 334.328 418.257 334.328 417.885C334.328 417.504 334.245 417.165 334.077 416.867C333.912 416.566 333.685 416.328 333.395 416.155C333.105 415.982 332.775 415.894 332.402 415.891C332.135 415.888 331.861 415.929 331.58 416.014C331.299 416.097 331.067 416.203 330.885 416.334L329.897 416.215L330.425 411.919H334.959V412.857H331.311L331.005 415.431H331.056C331.235 415.289 331.459 415.171 331.729 415.077C331.999 414.983 332.28 414.936 332.573 414.936C333.107 414.936 333.583 415.064 334 415.32C334.421 415.573 334.75 415.919 334.989 416.36C335.23 416.8 335.351 417.303 335.351 417.868C335.351 418.425 335.226 418.922 334.976 419.36C334.729 419.794 334.388 420.138 333.953 420.391C333.519 420.641 333.025 420.766 332.471 420.766ZM337.466 420.715C337.256 420.715 337.075 420.639 336.925 420.489C336.774 420.338 336.699 420.158 336.699 419.948C336.699 419.737 336.774 419.557 336.925 419.406C337.075 419.256 337.256 419.181 337.466 419.181C337.676 419.181 337.857 419.256 338.007 419.406C338.158 419.557 338.233 419.737 338.233 419.948C338.233 420.087 338.197 420.215 338.126 420.331C338.058 420.448 337.966 420.541 337.849 420.612C337.736 420.681 337.608 420.715 337.466 420.715ZM342.562 420.766C341.92 420.766 341.374 420.591 340.922 420.242C340.47 419.889 340.125 419.379 339.886 418.712C339.648 418.041 339.528 417.232 339.528 416.283C339.528 415.34 339.648 414.534 339.886 413.867C340.128 413.196 340.474 412.685 340.926 412.333C341.381 411.977 341.926 411.8 342.562 411.8C343.199 411.8 343.743 411.977 344.195 412.333C344.649 412.685 344.996 413.196 345.234 413.867C345.476 414.534 345.597 415.34 345.597 416.283C345.597 417.232 345.477 418.041 345.239 418.712C345 419.379 344.655 419.889 344.203 420.242C343.751 420.591 343.205 420.766 342.562 420.766ZM342.562 419.828C343.199 419.828 343.693 419.521 344.045 418.908C344.398 418.294 344.574 417.419 344.574 416.283C344.574 415.527 344.493 414.884 344.331 414.352C344.172 413.821 343.942 413.416 343.641 413.138C343.342 412.86 342.983 412.72 342.562 412.72C341.932 412.72 341.439 413.031 341.084 413.654C340.729 414.273 340.551 415.149 340.551 416.283C340.551 417.039 340.631 417.681 340.79 418.209C340.949 418.737 341.178 419.139 341.476 419.415C341.777 419.691 342.139 419.828 342.562 419.828ZM350.062 420.766C349.42 420.766 348.874 420.591 348.422 420.242C347.97 419.889 347.625 419.379 347.386 418.712C347.148 418.041 347.028 417.232 347.028 416.283C347.028 415.34 347.148 414.534 347.386 413.867C347.628 413.196 347.974 412.685 348.426 412.333C348.881 411.977 349.426 411.8 350.062 411.8C350.699 411.8 351.243 411.977 351.695 412.333C352.149 412.685 352.496 413.196 352.734 413.867C352.976 414.534 353.097 415.34 353.097 416.283C353.097 417.232 352.977 418.041 352.739 418.712C352.5 419.379 352.155 419.889 351.703 420.242C351.251 420.591 350.705 420.766 350.062 420.766ZM350.062 419.828C350.699 419.828 351.193 419.521 351.545 418.908C351.898 418.294 352.074 417.419 352.074 416.283C352.074 415.527 351.993 414.884 351.831 414.352C351.672 413.821 351.442 413.416 351.141 413.138C350.842 412.86 350.483 412.72 350.062 412.72C349.432 412.72 348.939 413.031 348.584 413.654C348.229 414.273 348.051 415.149 348.051 416.283C348.051 417.039 348.131 417.681 348.29 418.209C348.449 418.737 348.678 419.139 348.976 419.415C349.277 419.691 349.639 419.828 350.062 419.828ZM357.562 420.766C356.92 420.766 356.374 420.591 355.922 420.242C355.47 419.889 355.125 419.379 354.886 418.712C354.648 418.041 354.528 417.232 354.528 416.283C354.528 415.34 354.648 414.534 354.886 413.867C355.128 413.196 355.474 412.685 355.926 412.333C356.381 411.977 356.926 411.8 357.562 411.8C358.199 411.8 358.743 411.977 359.195 412.333C359.649 412.685 359.996 413.196 360.234 413.867C360.476 414.534 360.597 415.34 360.597 416.283C360.597 417.232 360.477 418.041 360.239 418.712C360 419.379 359.655 419.889 359.203 420.242C358.751 420.591 358.205 420.766 357.562 420.766ZM357.562 419.828C358.199 419.828 358.693 419.521 359.045 418.908C359.398 418.294 359.574 417.419 359.574 416.283C359.574 415.527 359.493 414.884 359.331 414.352C359.172 413.821 358.942 413.416 358.641 413.138C358.342 412.86 357.983 412.72 357.562 412.72C356.932 412.72 356.439 413.031 356.084 413.654C355.729 414.273 355.551 415.149 355.551 416.283C355.551 417.039 355.631 417.681 355.79 418.209C355.949 418.737 356.178 419.139 356.476 419.415C356.777 419.691 357.139 419.828 357.562 419.828Z" fill="black"/>
<path d="M322.103 385.75V384.983L324.983 381.83C325.321 381.46 325.6 381.139 325.819 380.866C326.037 380.591 326.199 380.332 326.304 380.091C326.412 379.847 326.466 379.591 326.466 379.324C326.466 379.017 326.392 378.751 326.245 378.527C326.1 378.303 325.901 378.129 325.648 378.007C325.395 377.885 325.111 377.824 324.796 377.824C324.461 377.824 324.168 377.893 323.918 378.033C323.671 378.169 323.479 378.361 323.343 378.608C323.209 378.855 323.142 379.145 323.142 379.477H322.137C322.137 378.966 322.255 378.517 322.49 378.131C322.726 377.744 323.047 377.443 323.453 377.227C323.863 377.011 324.321 376.903 324.83 376.903C325.341 376.903 325.794 377.011 326.189 377.227C326.584 377.443 326.894 377.734 327.118 378.101C327.343 378.467 327.455 378.875 327.455 379.324C327.455 379.645 327.397 379.959 327.28 380.266C327.167 380.57 326.968 380.909 326.684 381.284C326.402 381.656 326.012 382.111 325.512 382.648L323.551 384.744V384.812H327.608V385.75H322.103ZM332.096 385.869C331.596 385.869 331.145 385.77 330.745 385.571C330.344 385.372 330.023 385.099 329.782 384.753C329.54 384.406 329.408 384.011 329.385 383.568H330.408C330.448 383.963 330.627 384.29 330.945 384.548C331.266 384.804 331.65 384.932 332.096 384.932C332.453 384.932 332.772 384.848 333.05 384.68C333.331 384.513 333.551 384.283 333.711 383.99C333.873 383.695 333.953 383.361 333.953 382.989C333.953 382.608 333.87 382.268 333.702 381.97C333.537 381.669 333.31 381.432 333.02 381.259C332.73 381.085 332.4 380.997 332.027 380.994C331.76 380.991 331.486 381.033 331.205 381.118C330.924 381.2 330.692 381.307 330.51 381.438L329.522 381.318L330.05 377.023H334.584V377.96H330.936L330.63 380.534H330.681C330.86 380.392 331.084 380.274 331.354 380.18C331.624 380.087 331.905 380.04 332.198 380.04C332.732 380.04 333.208 380.168 333.625 380.423C334.046 380.676 334.375 381.023 334.614 381.463C334.855 381.903 334.976 382.406 334.976 382.972C334.976 383.528 334.851 384.026 334.601 384.463C334.354 384.898 334.013 385.241 333.578 385.494C333.144 385.744 332.65 385.869 332.096 385.869ZM337.091 385.818C336.881 385.818 336.7 385.743 336.55 385.592C336.399 385.442 336.324 385.261 336.324 385.051C336.324 384.841 336.399 384.661 336.55 384.51C336.7 384.359 336.881 384.284 337.091 384.284C337.301 384.284 337.482 384.359 337.632 384.51C337.783 384.661 337.858 384.841 337.858 385.051C337.858 385.19 337.822 385.318 337.751 385.435C337.683 385.551 337.591 385.645 337.474 385.716C337.361 385.784 337.233 385.818 337.091 385.818ZM342.188 385.869C341.545 385.869 340.999 385.695 340.547 385.345C340.095 384.993 339.75 384.483 339.511 383.815C339.273 383.145 339.153 382.335 339.153 381.386C339.153 380.443 339.273 379.638 339.511 378.97C339.753 378.3 340.099 377.788 340.551 377.436C341.006 377.081 341.551 376.903 342.188 376.903C342.824 376.903 343.368 377.081 343.82 377.436C344.274 377.788 344.621 378.3 344.859 378.97C345.101 379.638 345.222 380.443 345.222 381.386C345.222 382.335 345.102 383.145 344.864 383.815C344.625 384.483 344.28 384.993 343.828 385.345C343.376 385.695 342.83 385.869 342.188 385.869ZM342.188 384.932C342.824 384.932 343.318 384.625 343.67 384.011C344.023 383.398 344.199 382.523 344.199 381.386C344.199 380.631 344.118 379.987 343.956 379.456C343.797 378.925 343.567 378.52 343.266 378.241C342.967 377.963 342.608 377.824 342.188 377.824C341.557 377.824 341.064 378.135 340.709 378.757C340.354 379.376 340.176 380.253 340.176 381.386C340.176 382.142 340.256 382.784 340.415 383.312C340.574 383.841 340.803 384.243 341.101 384.518C341.402 384.794 341.764 384.932 342.188 384.932ZM349.688 385.869C349.045 385.869 348.499 385.695 348.047 385.345C347.595 384.993 347.25 384.483 347.011 383.815C346.773 383.145 346.653 382.335 346.653 381.386C346.653 380.443 346.773 379.638 347.011 378.97C347.253 378.3 347.599 377.788 348.051 377.436C348.506 377.081 349.051 376.903 349.688 376.903C350.324 376.903 350.868 377.081 351.32 377.436C351.774 377.788 352.121 378.3 352.359 378.97C352.601 379.638 352.722 380.443 352.722 381.386C352.722 382.335 352.602 383.145 352.364 383.815C352.125 384.483 351.78 384.993 351.328 385.345C350.876 385.695 350.33 385.869 349.688 385.869ZM349.688 384.932C350.324 384.932 350.818 384.625 351.17 384.011C351.523 383.398 351.699 382.523 351.699 381.386C351.699 380.631 351.618 379.987 351.456 379.456C351.297 378.925 351.067 378.52 350.766 378.241C350.467 377.963 350.108 377.824 349.688 377.824C349.057 377.824 348.564 378.135 348.209 378.757C347.854 379.376 347.676 380.253 347.676 381.386C347.676 382.142 347.756 382.784 347.915 383.312C348.074 383.841 348.303 384.243 348.601 384.518C348.902 384.794 349.264 384.932 349.688 384.932ZM357.188 385.869C356.545 385.869 355.999 385.695 355.547 385.345C355.095 384.993 354.75 384.483 354.511 383.815C354.273 383.145 354.153 382.335 354.153 381.386C354.153 380.443 354.273 379.638 354.511 378.97C354.753 378.3 355.099 377.788 355.551 377.436C356.006 377.081 356.551 376.903 357.188 376.903C357.824 376.903 358.368 377.081 358.82 377.436C359.274 377.788 359.621 378.3 359.859 378.97C360.101 379.638 360.222 380.443 360.222 381.386C360.222 382.335 360.102 383.145 359.864 383.815C359.625 384.483 359.28 384.993 358.828 385.345C358.376 385.695 357.83 385.869 357.188 385.869ZM357.188 384.932C357.824 384.932 358.318 384.625 358.67 384.011C359.023 383.398 359.199 382.523 359.199 381.386C359.199 380.631 359.118 379.987 358.956 379.456C358.797 378.925 358.567 378.52 358.266 378.241C357.967 377.963 357.608 377.824 357.188 377.824C356.557 377.824 356.064 378.135 355.709 378.757C355.354 379.376 355.176 380.253 355.176 381.386C355.176 382.142 355.256 382.784 355.415 383.312C355.574 383.841 355.803 384.243 356.101 384.518C356.402 384.794 356.764 384.932 357.188 384.932Z" fill="black"/>
<g clip-path="url(#clip0_492_32)">
<path d="M26.1709 241.38C41.9058 236.394 73.3755 231.006 104.845 216.451C136.315 201.896 152.05 181.251 183.52 168.607C214.989 155.963 230.724 162.83 262.194 153.233C293.664 143.636 309.398 132.779 340.868 120.621C372.338 108.464 403.808 98.0805 419.543 92.4453V242.627H26.1709V241.38Z" fill="#0D6EFD" fill-opacity="0.101961"/>
<path d="M26.1709 241.38C41.9058 236.394 73.3755 231.006 104.845 216.451C136.315 201.896 152.05 181.251 183.52 168.607C214.989 155.963 230.724 162.83 262.194 153.233C293.664 143.636 309.398 132.779 340.868 120.621C372.338 108.464 403.808 98.0805 419.543 92.4453" stroke="#0D6EFD" stroke-width="4"/>
<path d="M26.1709 244.527C27.9089 244.527 29.3179 243.118 29.3179 241.38C29.3179 239.642 27.9089 238.233 26.1709 238.233C24.4329 238.233 23.0239 239.642 23.0239 241.38C23.0239 243.118 24.4329 244.527 26.1709 244.527Z" fill="#0D6EFD"/>
<path d="M104.397 199.221C106.135 199.221 107.544 197.812 107.544 196.074C107.544 194.336 106.135 192.927 104.397 192.927C102.659 192.927 101.25 194.336 101.25 196.074C101.25 197.812 102.659 199.221 104.397 199.221Z" fill="#0D6EFD"/>
<path d="M183.52 171.755C185.258 171.755 186.667 170.346 186.667 168.608C186.667 166.87 185.258 165.461 183.52 165.461C181.782 165.461 180.373 166.87 180.373 168.608C180.373 170.346 181.782 171.755 183.52 171.755Z" fill="#0D6EFD"/>
<path d="M262.194 156.381C263.932 156.381 265.341 154.972 265.341 153.234C265.341 151.496 263.932 150.087 262.194 150.087C260.456 150.087 259.047 151.496 259.047 153.234C259.047 154.972 260.456 156.381 262.194 156.381Z" fill="#0D6EFD"/>
<path d="M340.868 123.769C342.606 123.769 344.015 122.36 344.015 120.622C344.015 118.884 342.606 117.475 340.868 117.475C339.13 117.475 337.721 118.884 337.721 120.622C337.721 122.36 339.13 123.769 340.868 123.769Z" fill="#0D6EFD"/>
<path d="M419.542 95.5928C421.281 95.5928 422.689 94.1838 422.689 92.4458C422.689 90.7078 421.281 89.2988 419.542 89.2988C417.804 89.2988 416.396 90.7078 416.396 92.4458C416.396 94.1838 417.804 95.5928 419.542 95.5928Z" fill="#0D6EFD"/>
</g>
<g clip-path="url(#clip1_492_32)">
<path d="M26.6709 241.07V240.166C31.0228 238.73 36.5474 237.035 42.9213 235.08C59.7039 229.931 82.3739 222.975 105.026 214.189C118.088 209.123 128.451 203.503 138.321 198.15C140.368 197.04 142.394 195.942 144.418 194.862C156.204 188.575 167.961 182.913 183.633 179.261C197.024 176.141 207.515 178.897 217.721 181.577C219.397 182.018 221.065 182.456 222.738 182.866C228.655 184.316 234.617 185.405 241.088 184.909C247.567 184.413 254.526 182.332 262.455 177.486C270.398 172.631 277.326 165.347 283.736 156.915C289.949 148.741 295.697 139.46 301.415 130.226L301.956 129.353C307.859 119.822 313.746 110.381 320.118 102.244C326.491 94.1068 333.326 87.3062 341.109 83.0367C356.678 74.4958 372.259 76.0936 385.967 80.0667C391.98 81.8097 397.617 84.0048 402.733 85.9971C403.451 86.2768 404.159 86.5525 404.856 86.8224C410.287 88.9244 415.109 90.6906 419.043 91.1893V241.07H26.6709Z" fill="#198754" fill-opacity="0.101961" stroke="#198754"/>
<path d="M26.1709 239.805C41.9058 234.589 68.655 210.42 100.125 198.214C131.595 186.008 147.329 134.697 178.799 127.365C210.269 120.032 232.298 213.219 263.767 193.984C295.237 174.749 309.398 99.8615 340.868 82.5984C372.338 65.3352 403.808 89.1146 419.543 90.7437" stroke="#198754" stroke-width="4"/>
<path d="M26.1709 242.987C27.9089 242.987 29.3179 241.563 29.3179 239.806C29.3179 238.049 27.9089 236.625 26.1709 236.625C24.4329 236.625 23.0239 238.049 23.0239 239.806C23.0239 241.563 24.4329 242.987 26.1709 242.987Z" fill="#198754"/>
<path d="M104.397 219.382C106.135 219.382 107.544 217.958 107.544 216.201C107.544 214.445 106.135 213.021 104.397 213.021C102.659 213.021 101.25 214.445 101.25 216.201C101.25 217.958 102.659 219.382 104.397 219.382Z" fill="#198754"/>
<path d="M181.421 130.556C183.159 130.556 184.568 129.132 184.568 127.375C184.568 125.618 183.159 124.194 181.421 124.194C179.683 124.194 178.274 125.618 178.274 127.375C178.274 129.132 179.683 130.556 181.421 130.556Z" fill="#198754"/>
<path d="M263.243 197.175C264.981 197.175 266.39 195.751 266.39 193.994C266.39 192.238 264.981 190.813 263.243 190.813C261.505 190.813 260.096 192.238 260.096 193.994C260.096 195.751 261.505 197.175 263.243 197.175Z" fill="#198754"/>
<path d="M340.868 85.7796C342.606 85.7796 344.015 84.3555 344.015 82.5988C344.015 80.8421 342.606 79.418 340.868 79.418C339.13 79.418 337.721 80.8421 337.721 82.5988C337.721 84.3555 339.13 85.7796 340.868 85.7796Z" fill="#198754"/>
<path d="M419.542 93.9251C421.281 93.9251 422.689 92.501 422.689 90.7443C422.689 88.9876 421.281 87.5635 419.542 87.5635C417.804 87.5635 416.396 88.9876 416.396 90.7443C416.396 92.501 417.804 93.9251 419.542 93.9251Z" fill="#198754"/>
<rect x="132.171" y="81.7695" width="82" height="24" rx="12" fill="black"/>
<path d="M140.221 97.7695C142.461 97.7695 143.831 96.2195 143.831 94.1495C143.831 92.0495 142.511 90.5895 140.221 90.5895H137.951V97.7695H140.221ZM139.051 91.5395H140.171C141.831 91.5395 142.711 92.5295 142.711 94.1495C142.711 95.7995 141.821 96.8195 140.171 96.8195H139.051V91.5395ZM147.122 97.8695C148.622 97.8695 149.722 96.6895 149.722 95.1195C149.722 93.5495 148.622 92.3695 147.122 92.3695C145.622 92.3695 144.522 93.5495 144.522 95.1195C144.522 96.6895 145.622 97.8695 147.122 97.8695ZM147.122 96.9795C146.252 96.9795 145.572 96.2795 145.572 95.1195C145.572 93.9595 146.252 93.2695 147.122 93.2695C147.992 93.2695 148.682 93.9595 148.682 95.1195C148.682 96.2795 147.992 96.9795 147.122 96.9795ZM152.842 97.8795C154.172 97.8795 155.112 97.0195 155.292 95.6195H154.242C154.122 96.4795 153.602 96.9795 152.852 96.9795C151.982 96.9795 151.412 96.2495 151.412 95.1195C151.412 93.9995 151.982 93.2595 152.852 93.2595C153.592 93.2595 154.122 93.7695 154.232 94.6195H155.292C155.102 93.2395 154.152 92.3695 152.842 92.3695C151.412 92.3695 150.372 93.5195 150.372 95.1195C150.372 96.7395 151.392 97.8795 152.842 97.8795ZM159.618 95.5895C159.618 96.4195 159.068 96.9795 158.388 96.9795C157.728 96.9795 157.268 96.5995 157.268 95.6795V92.4695H156.258V95.8795C156.258 97.2395 156.998 97.8695 158.068 97.8695C158.788 97.8695 159.408 97.4795 159.688 96.9295V97.7695H160.628V92.4695H159.618V95.5895ZM163.041 97.7695V94.7295C163.041 93.8395 163.591 93.2595 164.291 93.2595C165.031 93.2595 165.421 93.7795 165.421 94.6595V97.7695H166.431V94.7295C166.431 93.8395 166.991 93.2595 167.681 93.2595C168.421 93.2595 168.811 93.7795 168.811 94.6595V97.7695H169.821V94.3395C169.821 93.0795 169.121 92.3695 168.031 92.3695C167.221 92.3695 166.611 92.7895 166.241 93.4695C166.001 92.7695 165.411 92.3695 164.631 92.3695C163.901 92.3695 163.331 92.7395 162.971 93.3495V92.4695H162.031V97.7695H163.041ZM173.352 97.8695C174.602 97.8695 175.512 97.1595 175.772 95.9795H174.772C174.602 96.6695 174.082 97.0795 173.332 97.0795C172.442 97.0795 171.902 96.4495 171.822 95.3695H175.772C175.952 93.6495 174.902 92.3695 173.322 92.3695C171.862 92.3695 170.792 93.5195 170.792 95.0895C170.792 96.7595 171.822 97.8695 173.352 97.8695ZM173.302 93.1295C174.122 93.1295 174.652 93.7195 174.702 94.6995H171.832C171.942 93.7095 172.492 93.1295 173.302 93.1295ZM177.856 94.7795C177.856 93.8395 178.436 93.2595 179.126 93.2595C179.876 93.2595 180.276 93.7695 180.276 94.6795V97.7695H181.286V94.3395C181.286 93.0695 180.566 92.3695 179.476 92.3695C178.746 92.3695 178.146 92.7595 177.786 93.3495V92.4695H176.846V97.7695H177.856V94.7795ZM185.597 96.7895C185.387 96.8895 185.177 96.9295 184.937 96.9295C184.397 96.9295 184.047 96.6695 184.047 95.9395V93.3295H185.647V92.4695H184.047V90.8995H183.037V92.4695H181.867V93.3295H183.037V96.1695C183.037 97.3395 183.717 97.8695 184.697 97.8695C185.017 97.8695 185.287 97.8195 185.597 97.6795V96.7895ZM194.031 95.6695C194.031 94.5995 193.341 94.0595 192.111 93.8095L191.051 93.5995C190.381 93.4595 189.791 93.2195 189.791 92.5395C189.791 91.9195 190.301 91.3695 191.231 91.3695C192.131 91.3695 192.751 91.9695 192.811 92.8295H193.931C193.841 91.3995 192.711 90.4895 191.221 90.4895C189.731 90.4895 188.671 91.3995 188.671 92.6095C188.671 93.8295 189.591 94.3395 190.601 94.5395L191.641 94.7395C192.471 94.9195 192.861 95.2195 192.861 95.8195C192.861 96.5595 192.181 96.9895 191.271 96.9895C190.171 96.9895 189.591 96.3995 189.541 95.4895H188.421C188.511 96.9195 189.561 97.8695 191.291 97.8695C193.031 97.8695 194.031 96.9195 194.031 95.6695ZM197.444 97.8695C198.944 97.8695 200.044 96.6895 200.044 95.1195C200.044 93.5495 198.944 92.3695 197.444 92.3695C195.944 92.3695 194.844 93.5495 194.844 95.1195C194.844 96.6895 195.944 97.8695 197.444 97.8695ZM197.444 96.9795C196.574 96.9795 195.894 96.2795 195.894 95.1195C195.894 93.9595 196.574 93.2695 197.444 93.2695C198.314 93.2695 199.004 93.9595 199.004 95.1195C199.004 96.2795 198.314 96.9795 197.444 96.9795ZM202.094 97.7695V90.5895H201.074V97.7695H202.094ZM203.116 95.1195C203.116 96.7095 204.036 97.8695 205.466 97.8695C206.216 97.8695 206.856 97.4895 207.236 96.8195V97.7695H208.176V90.5895H207.166V93.3795C206.796 92.7295 206.176 92.3695 205.466 92.3695C204.036 92.3695 203.116 93.5095 203.116 95.1195ZM204.166 95.1195C204.166 93.9195 204.786 93.2595 205.666 93.2595C206.506 93.2595 207.166 93.9095 207.166 95.0995C207.166 96.2695 206.526 96.9695 205.666 96.9695C204.786 96.9695 204.166 96.2995 204.166 95.1195Z" fill="white"/>
<path d="M172.671 117.77L165.31 105.02L180.032 105.02L172.671 117.77Z" fill="black"/>
<rect x="121.171" y="177.77" width="106" height="24" rx="12" fill="black"/>
<path d="M129.221 193.77C131.461 193.77 132.831 192.22 132.831 190.15C132.831 188.05 131.511 186.59 129.221 186.59H126.951V193.77H129.221ZM128.051 187.54H129.171C130.831 187.54 131.711 188.53 131.711 190.15C131.711 191.8 130.821 192.82 129.171 192.82H128.051V187.54ZM136.122 193.87C137.622 193.87 138.722 192.69 138.722 191.12C138.722 189.55 137.622 188.37 136.122 188.37C134.622 188.37 133.522 189.55 133.522 191.12C133.522 192.69 134.622 193.87 136.122 193.87ZM136.122 192.98C135.252 192.98 134.572 192.28 134.572 191.12C134.572 189.96 135.252 189.27 136.122 189.27C136.992 189.27 137.682 189.96 137.682 191.12C137.682 192.28 136.992 192.98 136.122 192.98ZM141.842 193.88C143.172 193.88 144.112 193.02 144.292 191.62H143.242C143.122 192.48 142.602 192.98 141.852 192.98C140.982 192.98 140.412 192.25 140.412 191.12C140.412 190 140.982 189.26 141.852 189.26C142.592 189.26 143.122 189.77 143.232 190.62H144.292C144.102 189.24 143.152 188.37 141.842 188.37C140.412 188.37 139.372 189.52 139.372 191.12C139.372 192.74 140.392 193.88 141.842 193.88ZM148.618 191.59C148.618 192.42 148.068 192.98 147.388 192.98C146.728 192.98 146.268 192.6 146.268 191.68V188.47H145.258V191.88C145.258 193.24 145.998 193.87 147.068 193.87C147.788 193.87 148.408 193.48 148.688 192.93V193.77H149.628V188.47H148.618V191.59ZM152.041 193.77V190.73C152.041 189.84 152.591 189.26 153.291 189.26C154.031 189.26 154.421 189.78 154.421 190.66V193.77H155.431V190.73C155.431 189.84 155.991 189.26 156.681 189.26C157.421 189.26 157.811 189.78 157.811 190.66V193.77H158.821V190.34C158.821 189.08 158.121 188.37 157.031 188.37C156.221 188.37 155.611 188.79 155.241 189.47C155.001 188.77 154.411 188.37 153.631 188.37C152.901 188.37 152.331 188.74 151.971 189.35V188.47H151.031V193.77H152.041ZM162.352 193.87C163.602 193.87 164.512 193.16 164.772 191.98H163.772C163.602 192.67 163.082 193.08 162.332 193.08C161.442 193.08 160.902 192.45 160.822 191.37H164.772C164.952 189.65 163.902 188.37 162.322 188.37C160.862 188.37 159.792 189.52 159.792 191.09C159.792 192.76 160.822 193.87 162.352 193.87ZM162.302 189.13C163.122 189.13 163.652 189.72 163.702 190.7H160.832C160.942 189.71 161.492 189.13 162.302 189.13ZM166.856 190.78C166.856 189.84 167.436 189.26 168.126 189.26C168.876 189.26 169.276 189.77 169.276 190.68V193.77H170.286V190.34C170.286 189.07 169.566 188.37 168.476 188.37C167.746 188.37 167.146 188.76 166.786 189.35V188.47H165.846V193.77H166.856V190.78ZM174.597 192.79C174.387 192.89 174.177 192.93 173.937 192.93C173.397 192.93 173.047 192.67 173.047 191.94V189.33H174.647V188.47H173.047V186.9H172.037V188.47H170.867V189.33H172.037V192.17C172.037 193.34 172.717 193.87 173.697 193.87C174.017 193.87 174.287 193.82 174.597 193.68V192.79ZM182.721 193.77H183.891L181.161 186.59H179.951L177.201 193.77H178.311L178.971 191.99H182.071L182.721 193.77ZM180.531 187.79L181.741 191.1H179.301L180.531 187.79ZM186.588 193.88C187.918 193.88 188.858 193.02 189.038 191.62H187.988C187.868 192.48 187.348 192.98 186.598 192.98C185.728 192.98 185.158 192.25 185.158 191.12C185.158 190 185.728 189.26 186.598 189.26C187.338 189.26 187.868 189.77 187.978 190.62H189.038C188.848 189.24 187.898 188.37 186.588 188.37C185.158 188.37 184.118 189.52 184.118 191.12C184.118 192.74 185.138 193.88 186.588 193.88ZM192.096 193.88C193.426 193.88 194.366 193.02 194.546 191.62H193.496C193.376 192.48 192.856 192.98 192.106 192.98C191.236 192.98 190.666 192.25 190.666 191.12C190.666 190 191.236 189.26 192.106 189.26C192.846 189.26 193.376 189.77 193.486 190.62H194.546C194.356 189.24 193.406 188.37 192.096 188.37C190.666 188.37 189.626 189.52 189.626 191.12C189.626 192.74 190.646 193.88 192.096 193.88ZM197.693 193.87C198.943 193.87 199.853 193.16 200.113 191.98H199.113C198.943 192.67 198.423 193.08 197.673 193.08C196.783 193.08 196.243 192.45 196.163 191.37H200.113C200.293 189.65 199.243 188.37 197.663 188.37C196.203 188.37 195.133 189.52 195.133 191.09C195.133 192.76 196.163 193.87 197.693 193.87ZM197.643 189.13C198.463 189.13 198.993 189.72 199.043 190.7H196.173C196.283 189.71 196.833 189.13 197.643 189.13ZM206.247 191.12C206.247 189.52 205.317 188.37 203.907 188.37C203.157 188.37 202.507 188.76 202.127 189.44V188.47H201.187V195.7H202.197V192.87C202.577 193.51 203.187 193.87 203.907 193.87C205.327 193.87 206.247 192.72 206.247 191.12ZM205.197 191.12C205.197 192.31 204.567 192.97 203.697 192.97C202.847 192.97 202.197 192.29 202.197 191.12C202.197 189.93 202.857 189.26 203.697 189.26C204.567 189.26 205.197 189.93 205.197 191.12ZM210.183 192.79C209.973 192.89 209.763 192.93 209.523 192.93C208.983 192.93 208.633 192.67 208.633 191.94V189.33H210.233V188.47H208.633V186.9H207.623V188.47H206.453V189.33H207.623V192.17C207.623 193.34 208.303 193.87 209.283 193.87C209.603 193.87 209.873 193.82 210.183 193.68V192.79ZM213.231 193.87C214.481 193.87 215.391 193.16 215.651 191.98H214.651C214.481 192.67 213.961 193.08 213.211 193.08C212.321 193.08 211.781 192.45 211.701 191.37H215.651C215.831 189.65 214.781 188.37 213.201 188.37C211.741 188.37 210.671 189.52 210.671 191.09C210.671 192.76 211.701 193.87 213.231 193.87ZM213.181 189.13C214.001 189.13 214.531 189.72 214.581 190.7H211.711C211.821 189.71 212.371 189.13 213.181 189.13ZM216.247 191.12C216.247 192.71 217.167 193.87 218.597 193.87C219.347 193.87 219.987 193.49 220.367 192.82V193.77H221.307V186.59H220.297V189.38C219.927 188.73 219.307 188.37 218.597 188.37C217.167 188.37 216.247 189.51 216.247 191.12ZM217.297 191.12C217.297 189.92 217.917 189.26 218.797 189.26C219.637 189.26 220.297 189.91 220.297 191.1C220.297 192.27 219.657 192.97 218.797 192.97C217.917 192.97 217.297 192.3 217.297 191.12Z" fill="white"/>
<path d="M175.671 165.77L183.032 178.52H168.31L175.671 165.77Z" fill="black"/>
</g>
<line x1="26.728" y1="241.569" x2="26.728" y2="8.93019" stroke="black"/>
<path d="M26.1709 242.099H419.543" stroke="black"/>
<path d="M95.4873 257.922C97.9833 257.922 99.8673 255.966 99.8673 253.422C99.8673 250.878 97.9833 248.946 95.4873 248.946C92.9913 248.946 91.1073 250.878 91.1073 253.422C91.1073 255.966 92.9913 257.922 95.4873 257.922ZM95.4873 256.734C93.6633 256.734 92.4753 255.27 92.4753 253.422C92.4753 251.574 93.6633 250.134 95.4873 250.134C97.3113 250.134 98.4993 251.574 98.4993 253.422C98.4993 255.27 97.3113 256.734 95.4873 256.734ZM104.22 254.742C106.152 254.742 107.4 253.722 107.4 251.91C107.4 250.11 106.152 249.126 104.22 249.126H101.232V257.742H102.552V254.742H104.22ZM104.208 250.242C105.372 250.242 106.08 250.854 106.08 251.922C106.08 252.99 105.372 253.626 104.208 253.626H102.552V250.242H104.208ZM110.797 257.742V249.63H108.001V250.686H109.573V257.742H110.797Z" fill="#ADADAD"/>
<path d="M13.0118 236.779C13.0118 239.467 14.0558 240.943 15.9998 240.943C17.9438 240.943 18.9998 239.467 18.9998 236.779C18.9998 234.091 17.9198 232.591 15.9998 232.591C14.0798 232.591 13.0118 234.091 13.0118 236.779ZM14.2598 236.779C14.2598 234.751 14.8838 233.683 15.9998 233.683C17.1398 233.683 17.7518 234.751 17.7518 236.779C17.7518 238.795 17.1398 239.851 15.9998 239.851C14.8598 239.851 14.2598 238.783 14.2598 236.779Z" fill="#ADADAD"/>
<path d="M11.9471 196.388H8.5271L10.1591 194.54C11.4911 193.124 11.8391 192.476 11.8391 191.552C11.8391 190.22 10.7351 189.236 9.2231 189.236C7.6151 189.236 6.4871 190.316 6.4871 191.816H7.6751C7.6751 190.916 8.2751 190.328 9.1751 190.328C10.0031 190.328 10.5671 190.892 10.5671 191.696C10.5671 192.428 10.1951 192.992 9.2351 194.036L6.7031 196.772V197.468H11.9471V196.388ZM15.7895 197.588C17.6735 197.588 18.7175 196.328 18.7175 194.876C18.7175 193.496 17.7455 192.248 15.9575 192.248C15.4055 192.248 14.8895 192.416 14.4335 192.776L14.7935 190.436H18.2495V189.356H13.9175L13.1975 193.88L14.1815 194.192C14.5175 193.604 15.0575 193.304 15.7775 193.304C16.8575 193.304 17.4575 194.036 17.4575 194.876C17.4575 195.8 16.9055 196.496 15.7895 196.496C14.8895 196.496 14.2295 195.98 14.1455 195.116H12.9335C12.9935 196.556 14.2055 197.588 15.7895 197.588Z" fill="#ADADAD"/>
<path d="M9.3911 143.657C11.2751 143.657 12.3191 142.397 12.3191 140.945C12.3191 139.565 11.3471 138.317 9.5591 138.317C9.0071 138.317 8.4911 138.485 8.0351 138.845L8.3951 136.505H11.8511V135.425H7.5191L6.7991 139.949L7.7831 140.261C8.1191 139.673 8.6591 139.373 9.3791 139.373C10.4591 139.373 11.0591 140.105 11.0591 140.945C11.0591 141.869 10.5071 142.565 9.3911 142.565C8.4911 142.565 7.8311 142.049 7.7471 141.185H6.5351C6.5951 142.625 7.8071 143.657 9.3911 143.657ZM13.3234 139.493C13.3234 142.181 14.3674 143.657 16.3114 143.657C18.2554 143.657 19.3114 142.181 19.3114 139.493C19.3114 136.805 18.2314 135.305 16.3114 135.305C14.3914 135.305 13.3234 136.805 13.3234 139.493ZM14.5714 139.493C14.5714 137.465 15.1954 136.397 16.3114 136.397C17.4514 136.397 18.0634 137.465 18.0634 139.493C18.0634 141.509 17.4514 142.565 16.3114 142.565C15.1714 142.565 14.5714 141.497 14.5714 139.493Z" fill="#ADADAD"/>
<path d="M11.7791 82.2034V81.4954H6.3071V82.5874H10.4231L7.3391 89.6074H8.6471L11.7791 82.2034ZM15.2622 89.7274C17.1462 89.7274 18.1902 88.4674 18.1902 87.0154C18.1902 85.6354 17.2182 84.3874 15.4302 84.3874C14.8782 84.3874 14.3622 84.5554 13.9062 84.9154L14.2662 82.5754H17.7222V81.4954H13.3902L12.6702 86.0194L13.6542 86.3314C13.9902 85.7434 14.5302 85.4434 15.2502 85.4434C16.3302 85.4434 16.9302 86.1754 16.9302 87.0154C16.9302 87.9394 16.3782 88.6354 15.2622 88.6354C14.3622 88.6354 13.7022 88.1194 13.6182 87.2554H12.4062C12.4662 88.6954 13.6782 89.7274 15.2622 89.7274Z" fill="#ADADAD"/>
<path d="M3.80399 35.6777V27.5657H1.00799V28.6217H2.57999V35.6777H3.80399ZM5.34093 31.6337C5.34093 34.3217 6.38493 35.7977 8.32893 35.7977C10.2729 35.7977 11.3289 34.3217 11.3289 31.6337C11.3289 28.9457 10.2489 27.4457 8.32893 27.4457C6.40893 27.4457 5.34093 28.9457 5.34093 31.6337ZM6.58893 31.6337C6.58893 29.6057 7.21293 28.5377 8.32893 28.5377C9.46893 28.5377 10.0809 29.6057 10.0809 31.6337C10.0809 33.6497 9.46893 34.7057 8.32893 34.7057C7.18893 34.7057 6.58893 33.6377 6.58893 31.6337ZM12.5011 31.6337C12.5011 34.3217 13.5451 35.7977 15.4891 35.7977C17.4331 35.7977 18.4891 34.3217 18.4891 31.6337C18.4891 28.9457 17.4091 27.4457 15.4891 27.4457C13.5691 27.4457 12.5011 28.9457 12.5011 31.6337ZM13.7491 31.6337C13.7491 29.6057 14.3731 28.5377 15.4891 28.5377C16.6291 28.5377 17.2411 29.6057 17.2411 31.6337C17.2411 33.6497 16.6291 34.7057 15.4891 34.7057C14.3491 34.7057 13.7491 33.6377 13.7491 31.6337Z" fill="#ADADAD"/>
<path d="M173.739 257.922C176.235 257.922 178.119 255.966 178.119 253.422C178.119 250.878 176.235 248.946 173.739 248.946C171.243 248.946 169.359 250.878 169.359 253.422C169.359 255.966 171.243 257.922 173.739 257.922ZM173.739 256.734C171.915 256.734 170.727 255.27 170.727 253.422C170.727 251.574 171.915 250.134 173.739 250.134C175.563 250.134 176.751 251.574 176.751 253.422C176.751 255.27 175.563 256.734 173.739 256.734ZM182.472 254.742C184.404 254.742 185.652 253.722 185.652 251.91C185.652 250.11 184.404 249.126 182.472 249.126H179.484V257.742H180.804V254.742H182.472ZM182.46 250.242C183.624 250.242 184.332 250.854 184.332 251.922C184.332 252.99 183.624 253.626 182.46 253.626H180.804V250.242H182.46ZM191.904 256.662H188.484L190.116 254.814C191.448 253.398 191.796 252.75 191.796 251.826C191.796 250.494 190.692 249.51 189.18 249.51C187.572 249.51 186.444 250.59 186.444 252.09H187.632C187.632 251.19 188.232 250.602 189.132 250.602C189.96 250.602 190.524 251.166 190.524 251.97C190.524 252.702 190.152 253.266 189.192 254.31L186.66 257.046V257.742H191.904V256.662Z" fill="#ADADAD"/>
<path d="M255.162 257.922C257.658 257.922 259.542 255.966 259.542 253.422C259.542 250.878 257.658 248.946 255.162 248.946C252.666 248.946 250.782 250.878 250.782 253.422C250.782 255.966 252.666 257.922 255.162 257.922ZM255.162 256.734C253.338 256.734 252.15 255.27 252.15 253.422C252.15 251.574 253.338 250.134 255.162 250.134C256.986 250.134 258.174 251.574 258.174 253.422C258.174 255.27 256.986 256.734 255.162 256.734ZM263.895 254.742C265.827 254.742 267.075 253.722 267.075 251.91C267.075 250.11 265.827 249.126 263.895 249.126H260.907V257.742H262.227V254.742H263.895ZM263.883 250.242C265.047 250.242 265.755 250.854 265.755 251.922C265.755 252.99 265.047 253.626 263.883 253.626H262.227V250.242H263.883ZM270.867 257.85C272.595 257.85 273.771 256.866 273.771 255.426C273.771 254.49 273.159 253.794 272.091 253.506C272.931 253.11 273.399 252.474 273.399 251.682C273.399 250.41 272.391 249.51 270.831 249.51C269.355 249.51 268.227 250.506 268.191 251.838H269.367C269.403 251.01 269.955 250.482 270.783 250.482C271.599 250.482 272.139 250.998 272.139 251.766C272.139 252.558 271.539 253.086 270.627 253.086H269.847V254.058H270.687C271.803 254.058 272.511 254.598 272.511 255.45C272.511 256.326 271.887 256.878 270.867 256.878C269.883 256.878 269.235 256.314 269.187 255.438H267.999C268.011 256.866 269.187 257.85 270.867 257.85Z" fill="#ADADAD"/>
<path d="M334.471 257.922C336.967 257.922 338.851 255.966 338.851 253.422C338.851 250.878 336.967 248.946 334.471 248.946C331.975 248.946 330.091 250.878 330.091 253.422C330.091 255.966 331.975 257.922 334.471 257.922ZM334.471 256.734C332.647 256.734 331.459 255.27 331.459 253.422C331.459 251.574 332.647 250.134 334.471 250.134C336.295 250.134 337.483 251.574 337.483 253.422C337.483 255.27 336.295 256.734 334.471 256.734ZM343.204 254.742C345.136 254.742 346.384 253.722 346.384 251.91C346.384 250.11 345.136 249.126 343.204 249.126H340.216V257.742H341.536V254.742H343.204ZM343.192 250.242C344.356 250.242 345.064 250.854 345.064 251.922C345.064 252.99 344.356 253.626 343.192 253.626H341.536V250.242H343.192ZM353.261 255.954V254.898H352.157V249.63H351.221L347.045 255.102V255.954H350.945V257.742H352.157V255.954H353.261ZM348.401 254.898L350.945 251.466V254.898H348.401Z" fill="#ADADAD"/>
<path d="M409.55 257.922C412.046 257.922 413.93 255.966 413.93 253.422C413.93 250.878 412.046 248.946 409.55 248.946C407.054 248.946 405.17 250.878 405.17 253.422C405.17 255.966 407.054 257.922 409.55 257.922ZM409.55 256.734C407.726 256.734 406.538 255.27 406.538 253.422C406.538 251.574 407.726 250.134 409.55 250.134C411.374 250.134 412.562 251.574 412.562 253.422C412.562 255.27 411.374 256.734 409.55 256.734ZM418.283 254.742C420.215 254.742 421.463 253.722 421.463 251.91C421.463 250.11 420.215 249.126 418.283 249.126H415.295V257.742H416.615V254.742H418.283ZM418.271 250.242C419.435 250.242 420.143 250.854 420.143 251.922C420.143 252.99 419.435 253.626 418.271 253.626H416.615V250.242H418.271ZM425.16 257.862C427.044 257.862 428.088 256.602 428.088 255.15C428.088 253.77 427.116 252.522 425.328 252.522C424.776 252.522 424.26 252.69 423.804 253.05L424.164 250.71H427.62V249.63H423.288L422.568 254.154L423.552 254.466C423.888 253.878 424.428 253.578 425.148 253.578C426.228 253.578 426.828 254.31 426.828 255.15C426.828 256.074 426.276 256.77 425.16 256.77C424.26 256.77 423.6 256.254 423.516 255.39H422.304C422.364 256.83 423.576 257.862 425.16 257.862Z" fill="#ADADAD"/>
<circle cx="311.682" cy="24.7921" r="5.28725" fill="#198754"/>
<circle cx="311.682" cy="8.92983" r="5.28725" fill="#0D6EFD"/>
<path d="M324.249 28.3896C326.489 28.3896 327.859 26.8396 327.859 24.7696C327.859 22.6696 326.539 21.2096 324.249 21.2096H321.979V28.3896H324.249ZM323.079 22.1596H324.199C325.859 22.1596 326.739 23.1496 326.739 24.7696C326.739 26.4196 325.849 27.4396 324.199 27.4396H323.079V22.1596ZM331.15 28.4896C332.65 28.4896 333.75 27.3096 333.75 25.7396C333.75 24.1696 332.65 22.9896 331.15 22.9896C329.65 22.9896 328.55 24.1696 328.55 25.7396C328.55 27.3096 329.65 28.4896 331.15 28.4896ZM331.15 27.5996C330.28 27.5996 329.6 26.8996 329.6 25.7396C329.6 24.5796 330.28 23.8896 331.15 23.8896C332.02 23.8896 332.71 24.5796 332.71 25.7396C332.71 26.8996 332.02 27.5996 331.15 27.5996ZM336.87 28.4996C338.2 28.4996 339.14 27.6396 339.32 26.2396H338.27C338.15 27.0996 337.63 27.5996 336.88 27.5996C336.01 27.5996 335.44 26.8696 335.44 25.7396C335.44 24.6196 336.01 23.8796 336.88 23.8796C337.62 23.8796 338.15 24.3896 338.26 25.2396H339.32C339.13 23.8596 338.18 22.9896 336.87 22.9896C335.44 22.9896 334.4 24.1396 334.4 25.7396C334.4 27.3596 335.42 28.4996 336.87 28.4996ZM343.647 26.2096C343.647 27.0396 343.097 27.5996 342.417 27.5996C341.757 27.5996 341.297 27.2196 341.297 26.2996V23.0896H340.287V26.4996C340.287 27.8596 341.027 28.4896 342.097 28.4896C342.817 28.4896 343.437 28.0996 343.717 27.5496V28.3896H344.657V23.0896H343.647V26.2096ZM347.069 28.3896V25.3496C347.069 24.4596 347.619 23.8796 348.319 23.8796C349.059 23.8796 349.449 24.3996 349.449 25.2796V28.3896H350.459V25.3496C350.459 24.4596 351.019 23.8796 351.709 23.8796C352.449 23.8796 352.839 24.3996 352.839 25.2796V28.3896H353.849V24.9596C353.849 23.6996 353.149 22.9896 352.059 22.9896C351.249 22.9896 350.639 23.4096 350.269 24.0896C350.029 23.3896 349.439 22.9896 348.659 22.9896C347.929 22.9896 347.359 23.3596 346.999 23.9696V23.0896H346.059V28.3896H347.069ZM357.38 28.4896C358.63 28.4896 359.54 27.7796 359.8 26.5996H358.8C358.63 27.2896 358.11 27.6996 357.36 27.6996C356.47 27.6996 355.93 27.0696 355.85 25.9896H359.8C359.98 24.2696 358.93 22.9896 357.35 22.9896C355.89 22.9896 354.82 24.1396 354.82 25.7096C354.82 27.3796 355.85 28.4896 357.38 28.4896ZM357.33 23.7496C358.15 23.7496 358.68 24.3396 358.73 25.3196H355.86C355.97 24.3296 356.52 23.7496 357.33 23.7496ZM361.884 25.3996C361.884 24.4596 362.464 23.8796 363.154 23.8796C363.904 23.8796 364.304 24.3896 364.304 25.2996V28.3896H365.314V24.9596C365.314 23.6896 364.594 22.9896 363.504 22.9896C362.774 22.9896 362.174 23.3796 361.814 23.9696V23.0896H360.874V28.3896H361.884V25.3996ZM369.626 27.4096C369.416 27.5096 369.206 27.5496 368.966 27.5496C368.426 27.5496 368.076 27.2896 368.076 26.5596V23.9496H369.676V23.0896H368.076V21.5196H367.066V23.0896H365.896V23.9496H367.066V26.7896C367.066 27.9596 367.746 28.4896 368.726 28.4896C369.046 28.4896 369.316 28.4396 369.626 28.2996V27.4096ZM378.059 26.2896C378.059 25.2196 377.369 24.6796 376.139 24.4296L375.079 24.2196C374.409 24.0796 373.819 23.8396 373.819 23.1596C373.819 22.5396 374.329 21.9896 375.259 21.9896C376.159 21.9896 376.779 22.5896 376.839 23.4496H377.959C377.869 22.0196 376.739 21.1096 375.249 21.1096C373.759 21.1096 372.699 22.0196 372.699 23.2296C372.699 24.4496 373.619 24.9596 374.629 25.1596L375.669 25.3596C376.499 25.5396 376.889 25.8396 376.889 26.4396C376.889 27.1796 376.209 27.6096 375.299 27.6096C374.199 27.6096 373.619 27.0196 373.569 26.1096H372.449C372.539 27.5396 373.589 28.4896 375.319 28.4896C377.059 28.4896 378.059 27.5396 378.059 26.2896ZM381.473 28.4896C382.973 28.4896 384.073 27.3096 384.073 25.7396C384.073 24.1696 382.973 22.9896 381.473 22.9896C379.973 22.9896 378.873 24.1696 378.873 25.7396C378.873 27.3096 379.973 28.4896 381.473 28.4896ZM381.473 27.5996C380.603 27.5996 379.923 26.8996 379.923 25.7396C379.923 24.5796 380.603 23.8896 381.473 23.8896C382.343 23.8896 383.033 24.5796 383.033 25.7396C383.033 26.8996 382.343 27.5996 381.473 27.5996ZM386.122 28.3896V21.2096H385.102V28.3896H386.122ZM387.144 25.7396C387.144 27.3296 388.064 28.4896 389.494 28.4896C390.244 28.4896 390.884 28.1096 391.264 27.4396V28.3896H392.204V21.2096H391.194V23.9996C390.824 23.3496 390.204 22.9896 389.494 22.9896C388.064 22.9896 387.144 24.1296 387.144 25.7396ZM388.194 25.7396C388.194 24.5396 388.814 23.8796 389.694 23.8796C390.534 23.8796 391.194 24.5296 391.194 25.7196C391.194 26.8896 390.554 27.5896 389.694 27.5896C388.814 27.5896 388.194 26.9196 388.194 25.7396Z" fill="black"/>
<path d="M324.249 11.4707C326.489 11.4707 327.859 9.9207 327.859 7.8507C327.859 5.7507 326.539 4.2907 324.249 4.2907H321.979V11.4707H324.249ZM323.079 5.2407H324.199C325.859 5.2407 326.739 6.2307 326.739 7.8507C326.739 9.5007 325.849 10.5207 324.199 10.5207H323.079V5.2407ZM331.15 11.5707C332.65 11.5707 333.75 10.3907 333.75 8.8207C333.75 7.2507 332.65 6.0707 331.15 6.0707C329.65 6.0707 328.55 7.2507 328.55 8.8207C328.55 10.3907 329.65 11.5707 331.15 11.5707ZM331.15 10.6807C330.28 10.6807 329.6 9.9807 329.6 8.8207C329.6 7.6607 330.28 6.9707 331.15 6.9707C332.02 6.9707 332.71 7.6607 332.71 8.8207C332.71 9.9807 332.02 10.6807 331.15 10.6807ZM336.87 11.5807C338.2 11.5807 339.14 10.7207 339.32 9.3207H338.27C338.15 10.1807 337.63 10.6807 336.88 10.6807C336.01 10.6807 335.44 9.9507 335.44 8.8207C335.44 7.7007 336.01 6.9607 336.88 6.9607C337.62 6.9607 338.15 7.4707 338.26 8.3207H339.32C339.13 6.9407 338.18 6.0707 336.87 6.0707C335.44 6.0707 334.4 7.2207 334.4 8.8207C334.4 10.4407 335.42 11.5807 336.87 11.5807ZM343.647 9.2907C343.647 10.1207 343.097 10.6807 342.417 10.6807C341.757 10.6807 341.297 10.3007 341.297 9.3807V6.1707H340.287V9.5807C340.287 10.9407 341.027 11.5707 342.097 11.5707C342.817 11.5707 343.437 11.1807 343.717 10.6307V11.4707H344.657V6.1707H343.647V9.2907ZM347.069 11.4707V8.4307C347.069 7.5407 347.619 6.9607 348.319 6.9607C349.059 6.9607 349.449 7.4807 349.449 8.3607V11.4707H350.459V8.4307C350.459 7.5407 351.019 6.9607 351.709 6.9607C352.449 6.9607 352.839 7.4807 352.839 8.3607V11.4707H353.849V8.0407C353.849 6.7807 353.149 6.0707 352.059 6.0707C351.249 6.0707 350.639 6.4907 350.269 7.1707C350.029 6.4707 349.439 6.0707 348.659 6.0707C347.929 6.0707 347.359 6.4407 346.999 7.0507V6.1707H346.059V11.4707H347.069ZM357.38 11.5707C358.63 11.5707 359.54 10.8607 359.8 9.6807H358.8C358.63 10.3707 358.11 10.7807 357.36 10.7807C356.47 10.7807 355.93 10.1507 355.85 9.0707H359.8C359.98 7.3507 358.93 6.0707 357.35 6.0707C355.89 6.0707 354.82 7.2207 354.82 8.7907C354.82 10.4607 355.85 11.5707 357.38 11.5707ZM357.33 6.8307C358.15 6.8307 358.68 7.4207 358.73 8.4007H355.86C355.97 7.4107 356.52 6.8307 357.33 6.8307ZM361.884 8.4807C361.884 7.5407 362.464 6.9607 363.154 6.9607C363.904 6.9607 364.304 7.4707 364.304 8.3807V11.4707H365.314V8.0407C365.314 6.7707 364.594 6.0707 363.504 6.0707C362.774 6.0707 362.174 6.4607 361.814 7.0507V6.1707H360.874V11.4707H361.884V8.4807ZM369.626 10.4907C369.416 10.5907 369.206 10.6307 368.966 10.6307C368.426 10.6307 368.076 10.3707 368.076 9.6407V7.0307H369.676V6.1707H368.076V4.6007H367.066V6.1707H365.896V7.0307H367.066V9.8707C367.066 11.0407 367.746 11.5707 368.726 11.5707C369.046 11.5707 369.316 11.5207 369.626 11.3807V10.4907ZM377.749 11.4707H378.919L376.189 4.2907H374.979L372.229 11.4707H373.339L373.999 9.6907H377.099L377.749 11.4707ZM375.559 5.4907L376.769 8.8007H374.329L375.559 5.4907ZM381.616 11.5807C382.946 11.5807 383.886 10.7207 384.066 9.3207H383.016C382.896 10.1807 382.376 10.6807 381.626 10.6807C380.756 10.6807 380.186 9.9507 380.186 8.8207C380.186 7.7007 380.756 6.9607 381.626 6.9607C382.366 6.9607 382.896 7.4707 383.006 8.3207H384.066C383.876 6.9407 382.926 6.0707 381.616 6.0707C380.186 6.0707 379.146 7.2207 379.146 8.8207C379.146 10.4407 380.166 11.5807 381.616 11.5807ZM387.124 11.5807C388.454 11.5807 389.394 10.7207 389.574 9.3207H388.524C388.404 10.1807 387.884 10.6807 387.134 10.6807C386.264 10.6807 385.694 9.9507 385.694 8.8207C385.694 7.7007 386.264 6.9607 387.134 6.9607C387.874 6.9607 388.404 7.4707 388.514 8.3207H389.574C389.384 6.9407 388.434 6.0707 387.124 6.0707C385.694 6.0707 384.654 7.2207 384.654 8.8207C384.654 10.4407 385.674 11.5807 387.124 11.5807ZM392.722 11.5707C393.972 11.5707 394.882 10.8607 395.142 9.6807H394.142C393.972 10.3707 393.452 10.7807 392.702 10.7807C391.812 10.7807 391.272 10.1507 391.192 9.0707H395.142C395.322 7.3507 394.272 6.0707 392.692 6.0707C391.232 6.0707 390.162 7.2207 390.162 8.7907C390.162 10.4607 391.192 11.5707 392.722 11.5707ZM392.672 6.8307C393.492 6.8307 394.022 7.4207 394.072 8.4007H391.202C391.312 7.4107 391.862 6.8307 392.672 6.8307ZM401.276 8.8207C401.276 7.2207 400.346 6.0707 398.936 6.0707C398.186 6.0707 397.536 6.4607 397.156 7.1407V6.1707H396.216V13.4007H397.226V10.5707C397.606 11.2107 398.216 11.5707 398.936 11.5707C400.356 11.5707 401.276 10.4207 401.276 8.8207ZM400.226 8.8207C400.226 10.0107 399.596 10.6707 398.726 10.6707C397.876 10.6707 397.226 9.9907 397.226 8.8207C397.226 7.6307 397.886 6.9607 398.726 6.9607C399.596 6.9607 400.226 7.6307 400.226 8.8207ZM405.211 10.4907C405.001 10.5907 404.791 10.6307 404.551 10.6307C404.011 10.6307 403.661 10.3707 403.661 9.6407V7.0307H405.261V6.1707H403.661V4.6007H402.651V6.1707H401.481V7.0307H402.651V9.8707C402.651 11.0407 403.331 11.5707 404.311 11.5707C404.631 11.5707 404.901 11.5207 405.211 11.3807V10.4907ZM408.259 11.5707C409.509 11.5707 410.419 10.8607 410.679 9.6807H409.679C409.509 10.3707 408.989 10.7807 408.239 10.7807C407.349 10.7807 406.809 10.1507 406.729 9.0707H410.679C410.859 7.3507 409.809 6.0707 408.229 6.0707C406.769 6.0707 405.699 7.2207 405.699 8.7907C405.699 10.4607 406.729 11.5707 408.259 11.5707ZM408.209 6.8307C409.029 6.8307 409.559 7.4207 409.609 8.4007H406.739C406.849 7.4107 407.399 6.8307 408.209 6.8307ZM411.275 8.8207C411.275 10.4107 412.195 11.5707 413.625 11.5707C414.375 11.5707 415.015 11.1907 415.395 10.5207V11.4707H416.335V4.2907H415.325V7.0807C414.955 6.4307 414.335 6.0707 413.625 6.0707C412.195 6.0707 411.275 7.2107 411.275 8.8207ZM412.325 8.8207C412.325 7.6207 412.945 6.9607 413.825 6.9607C414.665 6.9607 415.325 7.6107 415.325 8.8007C415.325 9.9707 414.685 10.6707 413.825 10.6707C412.945 10.6707 412.325 10.0007 412.325 8.8207Z" fill="black"/>
<defs>
<clipPath id="clip0_492_32">
<rect width="393.372" height="196.686" fill="white" transform="translate(26.1709 45.9414)"/>
</clipPath>
<clipPath id="clip1_492_32">
<rect width="393.372" height="198.801" fill="white" transform="translate(26.1709 42.7695)"/>
</clipPath>
</defs>
</svg>
