<svg width="16" height="16" viewBox="0 0 16 16" fill="none" xmlns="http://www.w3.org/2000/svg">
<path d="M11.6465 2.36544L13.625 4.34394M12.5 9.50019V13.0627C12.5 13.5102 12.3222 13.9395 12.0057 14.2559C11.6893 14.5724 11.2601 14.7502 10.8125 14.7502H2.9375C2.48995 14.7502 2.06072 14.5724 1.74426 14.2559C1.42779 13.9395 1.25 13.5102 1.25 13.0627V5.18769C1.25 4.74013 1.42779 4.31091 1.74426 3.99444C2.06072 3.67798 2.48995 3.50019 2.9375 3.50019H6.5M11.6465 2.36544L12.9117 1.09944C13.1755 0.835678 13.5332 0.6875 13.9062 0.6875C14.2793 0.6875 14.637 0.835678 14.9008 1.09944C15.1645 1.36319 15.3127 1.72093 15.3127 2.09394C15.3127 2.46695 15.1645 2.82468 14.9008 3.08844L6.9365 11.0527C6.53999 11.449 6.05102 11.7402 5.51375 11.9002L3.5 12.5002L4.1 10.4864C4.25996 9.94916 4.55123 9.46019 4.9475 9.06369L11.6465 2.36544V2.36544Z" stroke="#0D6EFD" stroke-linecap="round" stroke-linejoin="round"/>
</svg>
