<svg width="107" height="113" viewBox="0 0 107 113" fill="none" xmlns="http://www.w3.org/2000/svg">
<path d="M61.7734 5.05698C52.0513 13.7934 43.6515 13.3342 38.3987 9.28744C33.1519 19.4014 24.7522 29.5521 15.0301 32.0438L9.4772 47.0433C9.4772 47.0433 12.4526 50.4718 12.4526 58.6756C12.4233 62.1137 11.9604 65.5345 11.0751 68.8568C10.0649 72.9037 8.76089 77.0913 8.76089 84.089C8.76089 88.8276 9.37311 93.4377 11.7853 97.6314C13.241 100.169 15.3373 102.28 17.8647 103.754L9.42209 98.8558C6.75971 97.3832 4.54815 95.214 3.02435 92.5806C0.62443 88.3807 0.012207 83.7768 0.012207 79.032C0.012207 72.0404 1.31624 67.8467 2.32641 63.7938C3.20683 60.4729 3.6635 57.0541 3.68555 53.6186C3.68555 45.4148 0.710142 41.9863 0.710142 41.9863L6.25689 26.9868C15.979 24.4951 24.3787 14.3444 29.6255 4.23047C34.8784 8.27727 43.2781 8.73644 53.0002 0L61.7734 5.05698Z" fill="#0D6EFD"/>
<path opacity="0.8" d="M32.7174 6.01217L29.6562 4.23059C30.5938 4.9566 31.623 5.55564 32.7174 6.01217Z" fill="white"/>
<path opacity="0.85" d="M53.0125 0.0119629C45.0108 7.19947 37.9089 8.16067 32.7173 6.02401L38.3987 9.2994C43.6516 13.3462 52.0513 13.8054 61.7734 5.06893L53.0125 0.0119629Z" fill="white"/>
<path opacity="0.65" d="M29.6381 4.23059C24.3914 14.3445 15.9917 24.4952 6.26953 26.987L15.0305 32.0439C24.7526 29.5522 33.1523 19.4015 38.3991 9.28756L29.6381 4.23059Z" fill="white"/>
<path opacity="0.55" d="M6.26941 26.9873L0.722656 41.9868L9.47746 47.0438L15.0303 32.0443L6.26941 26.9873Z" fill="white"/>
<path opacity="0.4" d="M11.7853 97.6315C9.38539 93.4377 8.76092 88.8277 8.76092 84.089C8.76092 77.0913 10.065 72.9037 11.0751 68.8569C11.9605 65.5345 12.4233 62.1138 12.4526 58.6756C12.4526 50.4718 9.47723 47.0434 9.47723 47.0434L0.722425 41.9864C0.722425 41.9864 3.69783 45.4148 3.69783 53.6186C3.66779 57.0552 3.20289 60.4741 2.31421 63.7938C1.30404 67.8467 0 72.0405 0 79.0321C0 83.7768 0.612221 88.3807 3.02438 92.5745C4.54818 95.2079 6.75974 97.3771 9.42212 98.8498L17.8647 103.748C15.3381 102.276 13.2419 100.167 11.7853 97.6315Z" fill="white"/>
<path opacity="0.05" d="M11.7853 97.6315C9.38539 93.4377 8.76092 88.8277 8.76092 84.089C8.76092 77.0913 10.065 72.9037 11.0751 68.8569C11.9605 65.5345 12.4233 62.1138 12.4526 58.6756C12.4526 50.4718 9.47723 47.0434 9.47723 47.0434L0.722425 41.9864C0.722425 41.9864 3.69783 45.4148 3.69783 53.6186C3.66779 57.0552 3.20289 60.4741 2.31421 63.7938C1.30404 67.8467 0 72.0405 0 79.0321C0 83.7768 0.612221 88.3807 3.02438 92.5745C4.54818 95.2079 6.75974 97.3771 9.42212 98.8498L17.8647 103.748C15.3381 102.276 13.2419 100.167 11.7853 97.6315Z" fill="black"/>
<path d="M38.3985 107.904C23.8766 108.07 15.5564 104.231 11.779 97.6312C9.38522 93.4375 8.76074 88.8275 8.76074 84.0827C8.76074 77.0911 10.0587 72.9096 11.075 68.8567C11.9603 65.5364 12.4231 62.1177 12.4525 58.6815C12.4525 50.4777 9.47705 47.0493 9.47705 47.0493L15.0299 32.0437C24.752 29.5519 33.1518 19.3951 38.3985 9.28729C43.6514 13.3341 52.0511 13.7933 61.7732 5.05682L67.3261 13.628C65.4181 18.4253 64.4075 23.5323 64.3446 28.6948C64.2932 31.6113 64.7617 34.5137 65.7282 37.2659C66.7384 40.1434 68.0424 42.8311 68.0424 49.8227C68.0265 55.6342 67.0032 61.3989 65.018 66.8609C61.2345 77.8564 52.9266 91.2947 38.3985 107.904Z" fill="#0D6EFD"/>
<path opacity="0.75" d="M38.3985 107.904C23.8766 108.07 15.5564 104.231 11.779 97.6312C9.38522 93.4375 8.76074 88.8275 8.76074 84.0827C8.76074 77.0911 10.0587 72.9096 11.075 68.8567C11.9603 65.5364 12.4231 62.1177 12.4525 58.6815C12.4525 50.4777 9.47705 47.0493 9.47705 47.0493L15.0299 32.0437C24.752 29.5519 33.1518 19.3951 38.3985 9.28729C43.6514 13.3341 52.0511 13.7933 61.7732 5.05682L67.3261 13.628C65.4181 18.4253 64.4075 23.5323 64.3446 28.6948C64.2932 31.6113 64.7617 34.5137 65.7282 37.2659C66.7384 40.1434 68.0424 42.8311 68.0424 49.8227C68.0265 55.6342 67.0032 61.3989 65.018 66.8609C61.2345 77.8564 52.9266 91.2947 38.3985 107.904Z" fill="white"/>
<path d="M36.6783 104.134C25.4318 103.999 18.1586 101.183 15.0607 95.7645C13.3098 92.7034 12.5322 89.1035 12.5322 84.0833C12.5318 79.7062 13.1501 75.351 14.3689 71.147C14.4852 70.6817 14.6077 70.2287 14.7179 69.7695C15.6857 66.1523 16.1877 62.4264 16.2117 58.6821C16.2117 52.7007 14.7791 48.7886 13.6404 46.6213L17.9259 35.1115C28.3337 31.4932 35.858 21.214 39.8435 14.4734C41.9903 15.3861 44.3003 15.8527 46.6331 15.8448C51.335 15.8448 56.1165 14.0938 60.8918 10.6348L63.1264 14.0999C61.499 18.8052 60.6391 23.7415 60.5796 28.7199C60.5252 32.0676 61.0641 35.3985 62.1714 38.5583C62.2877 38.8889 62.4101 39.2195 62.5326 39.5501C63.4264 41.999 64.2713 44.3071 64.2713 49.86C64.2507 55.2521 63.298 60.6001 61.4551 65.6676C57.7389 76.455 49.4065 89.3974 36.6783 104.134Z" fill="#0D6EFD"/>
<path opacity="0.4" d="M36.6783 104.134C25.4318 103.999 18.1586 101.183 15.0607 95.7645C13.3098 92.7034 12.5322 89.1035 12.5322 84.0833C12.5318 79.7062 13.1501 75.351 14.3689 71.147C14.4852 70.6817 14.6077 70.2287 14.7179 69.7695C15.6857 66.1523 16.1877 62.4264 16.2117 58.6821C16.2117 52.7007 14.7791 48.7886 13.6404 46.6213L17.9259 35.1115C28.3337 31.4932 35.858 21.214 39.8435 14.4734C41.9903 15.3861 44.3003 15.8527 46.6331 15.8448C51.335 15.8448 56.1165 14.0938 60.8918 10.6348L63.1264 14.0999C61.499 18.8052 60.6391 23.7415 60.5796 28.7199C60.5252 32.0676 61.0641 35.3985 62.1714 38.5583C62.2877 38.8889 62.4101 39.2195 62.5326 39.5501C63.4264 41.999 64.2713 44.3071 64.2713 49.86C64.2507 55.2521 63.298 60.6001 61.4551 65.6676C57.7389 76.455 49.4065 89.3974 36.6783 104.134Z" fill="white"/>
<path opacity="0.15" d="M36.6783 104.134C25.4318 103.999 18.1586 101.183 15.0607 95.7645C13.3098 92.7034 12.5322 89.1035 12.5322 84.0833C12.5318 79.7062 13.1501 75.351 14.3689 71.147C14.4852 70.6817 14.6077 70.2287 14.7179 69.7695C15.6857 66.1523 16.1877 62.4264 16.2117 58.6821C16.2117 52.7007 14.7791 48.7886 13.6404 46.6213L17.9259 35.1115C28.3337 31.4932 35.858 21.214 39.8435 14.4734C41.9903 15.3861 44.3003 15.8527 46.6331 15.8448C51.335 15.8448 56.1165 14.0938 60.8918 10.6348L63.1264 14.0999C61.499 18.8052 60.6391 23.7415 60.5796 28.7199C60.5252 32.0676 61.0641 35.3985 62.1714 38.5583C62.2877 38.8889 62.4101 39.2195 62.5326 39.5501C63.4264 41.999 64.2713 44.3071 64.2713 49.86C64.2507 55.2521 63.298 60.6001 61.4551 65.6676C57.7389 76.455 49.4065 89.3974 36.6783 104.134Z" fill="black"/>
<path opacity="0.8" d="M17.6382 98.8799C21.4707 102.259 27.8378 104.029 36.6784 104.133L31.0398 100.919C26.4909 100.98 21.9629 100.292 17.6382 98.8799Z" fill="white"/>
<path opacity="0.15" d="M60.1814 12.4041L63.1201 14.0999L60.8855 10.6348L59.606 11.5164L60.1814 12.4041Z" fill="black"/>
<path d="M59.2263 36.8618C58.1191 33.702 57.5802 30.3711 57.6346 27.0233C57.6941 22.045 58.554 17.1086 60.1814 12.4034L59.6059 11.5157C55.2591 14.387 50.9123 15.8441 46.6268 15.8441C44.294 15.852 41.984 15.3855 39.8372 14.4727C35.8516 21.2072 28.3274 31.4926 17.9196 35.1108L13.634 46.6206C14.7727 48.7879 16.2053 52.7 16.2053 58.6814C16.1813 62.4257 15.6793 66.1517 14.7115 69.7688C14.6013 70.228 14.4789 70.681 14.3626 71.1463C13.1438 75.3503 12.5254 79.7055 12.5259 84.0826C12.5259 89.1029 13.3034 92.7027 15.0544 95.7638C15.9764 97.3406 17.2297 98.6983 18.7277 99.7433C22.4868 101.458 27.4948 102.355 33.7517 102.437C46.4737 87.6947 54.8061 74.7584 58.5223 63.9711C60.3658 58.9037 61.3186 53.5556 61.3385 48.1634C61.3385 42.6105 60.4875 40.3025 59.5937 37.8536C59.4651 37.523 59.3427 37.1924 59.2263 36.8618Z" fill="#455A64"/>
<path d="M17.9196 35.1109L13.634 46.6207C14.7727 48.7879 16.2053 52.7001 16.2053 58.6815C16.1813 62.4258 15.6793 66.1517 14.7115 69.7689C14.6013 70.228 14.4789 70.6811 14.3626 71.1464C13.1438 75.3504 12.5254 79.7056 12.5259 84.0827C12.5259 89.1029 13.3034 92.7028 15.0544 95.7639C15.9764 97.3406 17.2297 98.6984 18.7277 99.7434C22.4868 101.458 27.4948 102.356 33.7517 102.437V60.01L39.8739 58.1733V14.4728C38.0666 17.5359 36.0194 20.4511 33.7517 23.1909C29.6682 28.107 24.3418 32.8762 17.9196 35.1109Z" fill="#37474F"/>
<path d="M48.4512 44.3498C48.3856 44.2297 48.3076 44.1169 48.2185 44.0131L48.1879 43.9764C48.0092 43.782 47.803 43.6149 47.5757 43.4805L45.537 42.305C45.1687 42.0987 44.7729 41.9462 44.3615 41.852C44.1152 41.7978 43.8657 41.759 43.6146 41.7356V35.6991C43.6146 32.6686 42.4697 30.2748 40.4739 29.1238C38.478 27.9728 36.1883 28.1687 33.8435 29.5401C29.4844 32.0564 26.0744 38.197 26.0744 43.5172V50.6435L22.0092 52.9883C21.8883 53.058 21.7736 53.1379 21.6663 53.2271L21.5561 53.3128C21.3898 53.4459 21.254 53.6131 21.1579 53.8033C21.0617 53.9934 21.0076 54.2019 20.999 54.4148V78.8609C21.0013 78.9663 21.0156 79.071 21.0419 79.1731C21.17 79.5847 21.4415 79.9367 21.8072 80.165L22.0337 80.3119L23.0316 80.8874L24.0785 81.4996C24.4873 81.7256 24.9296 81.8848 25.3887 81.971C26.6413 82.2479 27.9512 82.079 29.0926 81.4935L47.6002 70.8102C47.8863 70.6834 48.1334 70.4827 48.3164 70.2288C48.4993 69.9749 48.6113 69.6768 48.6409 69.3653V44.9314C48.6264 44.7249 48.5612 44.5252 48.4512 44.3498ZM30.0538 43.5172C30.0538 39.6235 32.6986 34.8114 35.8271 33.0053C36.8924 32.3931 37.8474 32.2339 38.4535 32.589C39.1698 32.9992 39.5923 34.1624 39.5923 35.6991V42.8254L34.3333 45.8865L30.0477 48.3354L30.0538 43.5172Z" fill="#263238"/>
<path d="M50.7533 46.009C50.7242 45.6972 50.6124 45.3989 50.4294 45.1449C50.2465 44.8909 49.9989 44.6904 49.7125 44.5641L47.6738 43.3825C46.8976 42.9859 46.0384 42.7791 45.1667 42.7791C44.2951 42.7791 43.4358 42.9859 42.6597 43.3825L24.1521 54.0658C23.8655 54.1937 23.6181 54.3954 23.4353 54.6504C23.2524 54.9054 23.1406 55.2044 23.1113 55.5168V79.9629C23.1387 80.2759 23.2497 80.5757 23.4329 80.831C23.616 81.0863 23.8644 81.2876 24.1521 81.4139L26.1908 82.5955C26.9683 82.9878 27.827 83.1922 28.6979 83.1922C29.5687 83.1922 30.4274 82.9878 31.2049 82.5955L49.7125 71.906C49.9986 71.7792 50.2457 71.5786 50.4287 71.3246C50.6116 71.0707 50.7236 70.7727 50.7533 70.4612V46.009Z" fill="#0D6EFD"/>
<path opacity="0.4" d="M26.1909 58.1735L24.1522 56.9491C22.7624 56.1532 22.7624 54.8553 24.1522 54.0532L42.6597 43.3699C43.4359 42.9733 44.2951 42.7665 45.1668 42.7665C46.0384 42.7665 46.8976 42.9733 47.6738 43.3699L49.7125 44.5515C51.0962 45.3474 51.0962 46.6453 49.7125 47.4412L31.2356 58.1735C30.4542 58.5709 29.5899 58.778 28.7133 58.778C27.8366 58.778 26.9723 58.5709 26.1909 58.1735Z" fill="white"/>
<path opacity="0.1" d="M28.7009 58.743V83.1891C27.8257 83.2022 26.9617 82.9914 26.1908 82.5768L24.146 81.4381C23.8582 81.3111 23.6101 81.1086 23.428 80.8521C23.2458 80.5956 23.1364 80.2946 23.1113 79.981V55.5165C23.1392 55.8278 23.2498 56.1259 23.4317 56.38C23.6137 56.634 23.8603 56.8348 24.146 56.9614L26.1908 58.143C26.9618 58.5559 27.8265 58.7626 28.7009 58.743Z" fill="black"/>
<path d="M42.1701 70.8342L37.7498 73.3872L38.4355 65.3915C37.909 65.1099 37.5723 64.4242 37.5723 63.4385C37.5723 61.6753 38.6375 59.6305 39.9599 58.8713C41.2823 58.1122 42.3476 58.9142 42.3476 60.708C42.3205 61.7499 42.023 62.7667 41.4844 63.6589L42.1701 70.8342Z" fill="#455A64"/>
<path d="M42.1703 70.8344L38.1663 68.5263L37.75 73.3874L42.1703 70.8344Z" fill="#37474F"/>
<path d="M39.9596 58.8714C38.9972 59.5208 38.2796 60.4733 37.9209 61.5775L41.484 63.6345C42.0227 62.7423 42.3202 61.7254 42.3473 60.6836C42.3473 58.9143 41.282 58.1061 39.9596 58.8714Z" fill="#37474F"/>
<path d="M45.7517 46.5413V36.7457C45.7517 33.6846 44.6068 31.3214 42.6109 30.1704C40.6151 29.0194 38.3254 29.2215 35.9806 30.5867C31.6215 33.103 28.2114 39.2436 28.2114 44.5638V54.39C28.2292 54.5695 28.2956 54.7407 28.4035 54.8853C28.5114 55.0298 28.6567 55.1422 28.8236 55.2104C29.2615 55.4306 29.7448 55.5453 30.2348 55.5453C30.7249 55.5453 31.2082 55.4306 31.646 55.2104C31.813 55.1422 31.9583 55.0298 32.0661 54.8853C32.174 54.7407 32.2404 54.5695 32.2582 54.39V44.5944C32.2582 40.7007 34.903 35.8886 38.0315 34.0825C39.0968 33.4703 40.058 33.3172 40.6641 33.6662C41.3742 34.0764 41.8028 35.2396 41.8028 36.7763V46.5719C41.8221 46.7494 41.8892 46.9184 41.997 47.0607C42.1049 47.2031 42.2493 47.3134 42.415 47.38C42.8528 47.6002 43.3361 47.7149 43.8262 47.7149C44.3163 47.7149 44.7996 47.6002 45.2374 47.38C45.4016 47.3112 45.5447 47.2003 45.6522 47.0583C45.7597 46.9164 45.8278 46.7486 45.8496 46.5719L45.7517 46.5413Z" fill="#E0E0E0"/>
<path d="M69.543 89.5247L72.2368 87.9696L73.302 86.6717L70.6082 88.2267L69.543 89.5247Z" fill="#0D6EFD"/>
<path opacity="0.4" d="M69.543 89.5247L72.2368 87.9696L73.302 86.6717L70.6082 88.2267L69.543 89.5247Z" fill="black"/>
<path d="M76.8711 93.7548L79.5649 92.1998L81.8179 90.2039L79.1241 91.759L76.8711 93.7548Z" fill="#0D6EFD"/>
<path opacity="0.4" d="M76.8711 93.7548L79.5649 92.1998L81.8179 90.2039L79.1241 91.759L76.8711 93.7548Z" fill="black"/>
<path d="M99.805 99.1308C100.443 99.9853 100.828 101.001 100.919 102.063C100.287 101.206 99.9014 100.192 99.805 99.1308ZM106.068 99.2104C105.162 93.0391 101.85 86.9659 97.8949 84.6517C95.997 83.5558 94.2215 83.519 92.8379 84.3394L90.3033 85.8026L90.1563 85.8884C90.0433 85.9498 89.9348 86.0193 89.8319 86.0965C89.615 86.2386 89.4103 86.3983 89.2196 86.5741L89.1339 86.6536C89.0543 86.7332 88.9748 86.8251 88.9013 86.9108C88.8278 86.9965 88.7115 87.1312 88.6319 87.2414C88.4491 87.4825 88.2834 87.7362 88.136 88.0005C88.0625 88.1352 87.9829 88.276 87.9156 88.423L65.7592 75.6336L63.0654 77.1825V78.9029L63.2981 79.0315L63.5124 79.16V79.5212L63.0654 79.7784V80.7763L66.3225 87.6638L69.5428 89.5005L70.608 88.2026L73.4487 89.9045L75.0773 92.6963L76.8772 93.7309L79.1241 91.7351L81.8852 93.333L82.8158 97.1594L87.4442 99.8348C87.6794 100.81 87.9717 101.771 88.3197 102.712L88.4238 103.012C89.9666 107.053 92.4155 110.518 95.1582 112.116C95.4921 112.307 95.84 112.473 96.199 112.612C96.3893 112.687 96.5835 112.753 96.7806 112.808C96.9499 112.855 97.1216 112.894 97.2949 112.924C97.8371 113.025 98.3934 113.025 98.9356 112.924L99.1622 112.869C99.2695 112.851 99.3742 112.82 99.4744 112.777L99.7132 112.685C99.7996 112.653 99.8836 112.614 99.9642 112.569L100.191 112.453L100.307 112.385L100.362 112.355L102.903 110.892C104.948 109.704 106.276 106.704 106.276 102.461C106.278 101.367 106.199 100.274 106.037 99.192L106.068 99.2104Z" fill="#0D6EFD"/>
<path d="M98.9844 104.335C97.9252 103.722 97.062 101.886 97.062 100.263C97.062 98.641 97.9252 97.8145 98.9844 98.4267C100.044 99.0389 100.913 100.876 100.913 102.504C100.913 104.133 100.05 104.947 98.9844 104.335ZM103.35 100.765C102.443 94.5942 99.1252 88.4903 95.1702 86.2067C93.3335 85.1537 91.6499 85.0741 90.2724 85.8026L90.1255 85.8883C90.0124 85.9497 89.9039 86.0193 89.801 86.0965C89.5842 86.2386 89.3794 86.3983 89.1888 86.574L89.1031 86.6536C89.0235 86.7332 88.9439 86.825 88.8704 86.9107C88.797 86.9965 88.6806 87.1312 88.601 87.2414C88.4182 87.4825 88.2525 87.7362 88.1051 88.0005C88.0317 88.1352 87.9521 88.276 87.8847 88.4229C87.4872 89.2558 87.1992 90.1365 87.0276 91.0433L63.0713 77.1825V78.9028L63.3039 79.0314L63.5182 79.16V79.5212L63.0713 79.7783V80.7763L66.3283 87.6638L69.5486 89.5005L70.6139 88.2025L73.4546 89.9045L75.0831 92.6963L76.8831 93.7309L79.1299 91.7351L81.8911 93.333L82.8216 97.1594L87.4501 99.8348C87.6852 100.81 87.9776 101.771 88.3255 102.712L88.4296 103.012C89.9724 107.053 92.4213 110.518 95.1641 112.116C95.4979 112.307 95.8459 112.473 96.2049 112.612C96.3952 112.687 96.5893 112.753 96.7865 112.808C96.9558 112.855 97.1275 112.894 97.3007 112.924C97.843 113.025 98.3993 113.025 98.9415 112.924L99.168 112.869C99.2753 112.851 99.3801 112.82 99.4803 112.777L99.719 112.685C99.8055 112.653 99.8894 112.614 99.97 112.569L100.197 112.453L100.313 112.385L100.368 112.355C102.327 111.13 103.588 108.161 103.588 104.016C103.586 102.928 103.507 101.842 103.35 100.765Z" fill="#0D6EFD"/>
<path opacity="0.4" d="M100.913 102.479C100.913 104.12 100.05 104.928 98.9905 104.316C97.9314 103.704 97.062 101.867 97.062 100.245C97.062 98.6222 97.9253 97.7957 98.9905 98.4079C99.3067 98.593 99.5834 98.8385 99.8048 99.1304C99.8984 100.192 100.284 101.207 100.919 102.063C100.926 102.202 100.924 102.341 100.913 102.479Z" fill="black"/>
<path opacity="0.4" d="M106.288 102.479C106.288 106.722 104.96 109.722 102.915 110.91L100.374 112.373C102.333 111.148 103.594 108.179 103.594 104.034C103.591 102.94 103.51 101.847 103.35 100.765C102.443 94.5937 99.1252 88.4899 95.1703 86.2063C93.3336 85.1532 91.65 85.0736 90.2725 85.8022L92.8071 84.339C94.2152 83.5186 95.9661 83.5553 97.864 84.6512C101.819 86.947 105.131 93.0693 106.037 99.1915C106.203 100.28 106.287 101.379 106.288 102.479Z" fill="white"/>
<path d="M103.594 104.034C103.594 108.179 102.333 111.136 100.374 112.373L102.915 110.909C104.96 109.722 106.288 106.722 106.288 102.479C106.288 102.32 106.288 102.161 106.288 102.008L103.6 103.563C103.588 103.716 103.594 103.875 103.594 104.034Z" fill="#0D6EFD"/>
<path opacity="0.1" d="M103.594 104.034C103.594 108.179 102.333 111.136 100.374 112.373L102.915 110.909C104.96 109.722 106.288 106.722 106.288 102.479C106.288 102.32 106.288 102.161 106.288 102.008L103.6 103.563C103.588 103.716 103.594 103.875 103.594 104.034Z" fill="black"/>
<path opacity="0.15" d="M87.1564 92.8067V93.6822L63.0654 79.7786L63.5124 79.5215V79.1541L87.1564 92.8067Z" fill="black"/>
<path opacity="0.15" d="M87.1564 93.1732V93.6813L63.0654 79.7777L63.5124 79.5206V79.5145L87.1564 93.1732Z" fill="black"/>
<path opacity="0.15" d="M97.6378 110.934C96.7256 110.909 95.8363 110.643 95.0604 110.163C91.1299 107.892 87.9341 101.145 87.9341 95.1205C87.9341 91.6064 88.9994 88.9983 90.8544 87.9085C92.1523 87.1616 93.6829 87.2535 95.2869 88.1779C99.2113 90.4493 102.407 97.196 102.407 103.22C102.407 106.734 101.342 109.342 99.4868 110.432C98.9268 110.763 98.2881 110.936 97.6378 110.934ZM92.74 87.8596C92.1684 87.8585 91.6066 88.0084 91.1115 88.2942C89.4218 89.2677 88.4177 91.8207 88.4177 95.1205C88.4177 101.004 91.4789 107.573 95.3175 109.771C96.7746 110.616 98.146 110.708 99.297 110.047C100.987 109.073 101.991 106.52 101.991 103.22C101.991 97.3368 98.9296 90.7615 95.091 88.5697C94.3745 88.1253 93.5523 87.8802 92.7094 87.8596H92.74Z" fill="black"/>
<path opacity="0.5" d="M87.9153 88.4228C87.5179 89.2556 87.2298 90.1364 87.0582 91.0431L63.0713 77.1823L65.7651 75.6334L87.9153 88.4228Z" fill="white"/>
</svg>
