<svg width="16" height="16" viewBox="0 0 16 16" fill="none" xmlns="http://www.w3.org/2000/svg">
<path d="M10.6913 12.2149H8.61133C7.01901 12.2149 5.54761 11.3654 4.75151 9.98638C3.95523 8.60737 3.95523 6.90833 4.75151 5.52931C5.54767 4.1503 7.01911 3.30078 8.61133 3.30078H10.6913C10.9037 3.30078 11.0998 3.41395 11.206 3.59788C11.3121 3.7818 11.3121 4.00828 11.206 4.19219C11.0998 4.376 10.9037 4.48929 10.6913 4.48929H8.61133C7.44358 4.48929 6.36453 5.1122 5.78078 6.12351C5.1969 7.13481 5.1969 8.38076 5.78078 9.39213C6.36453 10.4034 7.44358 11.0263 8.61133 11.0263H10.0971V8.05501C10.0971 7.84272 10.2102 7.64649 10.3942 7.54041C10.5781 7.43421 10.8046 7.43421 10.9885 7.54041C11.1723 7.64649 11.2856 7.84273 11.2856 8.05501V11.6207C11.2856 11.7782 11.223 11.9294 11.1115 12.0409C11 12.1523 10.8489 12.215 10.6913 12.215L10.6913 12.2149Z" fill="#ADADAD"/>
<path d="M8.31453 13.9994C8.15684 13.9994 8.00574 13.9368 7.89432 13.8253C7.78277 13.7139 7.72021 13.5627 7.72021 13.4051V2.11378C7.72021 1.9015 7.83351 1.70539 8.01731 1.59918C8.20124 1.49298 8.42771 1.49298 8.61163 1.59918C8.79556 1.70539 8.90872 1.9015 8.90872 2.11378V13.4051C8.90872 13.5627 8.84617 13.7139 8.73474 13.8253C8.62332 13.9368 8.4721 13.9994 8.31454 13.9994H8.31453Z" fill="#ADADAD"/>
</svg>
