<?xml version="1.0" encoding="utf-8"?>
<!-- Generator: Adobe Illustrator 25.3.0, SVG Export Plug-In . SVG Version: 6.00 Build 0)  -->
<svg version="1.1" id="Layer_1" xmlns="http://www.w3.org/2000/svg" xmlns:xlink="http://www.w3.org/1999/xlink" x="0px" y="0px"
	 width="10.8px" height="18.3px" viewBox="0 0 10.8 18.3" style="enable-background:new 0 0 10.8 18.3;" xml:space="preserve">
<style type="text/css">
	.st0{fill:#ADADAD;stroke:#ADADAD;stroke-width:0.75;stroke-miterlimit:10;}
</style>
<g>
	<path class="st0" d="M9.5,15.4H6.6c-2.2,0-4.3-1.2-5.4-3.1c-1.1-1.9-1.1-4.3,0-6.3c1.1-1.9,3.2-3.1,5.4-3.1h2.9
		c0.3,0,0.6,0.2,0.7,0.4c0.1,0.3,0.1,0.6,0,0.8c-0.1,0.3-0.4,0.4-0.7,0.4H6.6c-1.6,0-3.2,0.9-4,2.3c-0.8,1.4-0.8,3.2,0,4.6
		c0.8,1.4,2.3,2.3,4,2.3h2.1V9.5c0-0.3,0.2-0.6,0.4-0.7c0.3-0.1,0.6-0.1,0.8,0c0.3,0.1,0.4,0.4,0.4,0.7v5c0,0.2-0.1,0.4-0.2,0.6
		C10,15.3,9.8,15.4,9.5,15.4L9.5,15.4z"/>
	<path class="st0" d="M5.9,17.9c-0.2,0-0.4-0.1-0.6-0.2C5.1,17.5,5,17.3,5,17V1.2c0-0.3,0.2-0.6,0.4-0.7c0.3-0.1,0.6-0.1,0.8,0
		c0.3,0.1,0.4,0.4,0.4,0.7V17c0,0.2-0.1,0.4-0.2,0.6C6.3,17.8,6.1,17.9,5.9,17.9L5.9,17.9z"/>
</g>
</svg>
