<svg width="16" height="16" viewBox="0 0 16 16" fill="none" xmlns="http://www.w3.org/2000/svg">
<path fill-rule="evenodd" clip-rule="evenodd" d="M14.3996 7.99961C14.3996 9.69699 13.7253 11.3249 12.5251 12.5251C11.3249 13.7253 9.69699 14.3996 7.99961 14.3996C6.30222 14.3996 4.67436 13.7253 3.47413 12.5251C2.27389 11.3249 1.59961 9.69699 1.59961 7.99961C1.59961 6.30222 2.27389 4.67436 3.47413 3.47413C4.67436 2.27389 6.30222 1.59961 7.99961 1.59961C9.69699 1.59961 11.3249 2.27389 12.5251 3.47413C13.7253 4.67436 14.3996 6.30222 14.3996 7.99961ZM7.99961 3.99961C8.15874 3.99961 8.31135 4.06282 8.42387 4.17535C8.5364 4.28787 8.59961 4.44048 8.59961 4.59961V8.19961C8.59961 8.35874 8.5364 8.51135 8.42387 8.62387C8.31135 8.73639 8.15874 8.79961 7.99961 8.79961C7.84048 8.79961 7.68787 8.73639 7.57535 8.62387C7.46282 8.51135 7.39961 8.35874 7.39961 8.19961V4.59961C7.39961 4.44048 7.46282 4.28787 7.57535 4.17535C7.68787 4.06282 7.84048 3.99961 7.99961 3.99961ZM7.99961 11.9996C8.21178 11.9996 8.41527 11.9153 8.56529 11.7653C8.71532 11.6153 8.79961 11.4118 8.79961 11.1996C8.79961 10.9874 8.71532 10.784 8.56529 10.6339C8.41527 10.4839 8.21178 10.3996 7.99961 10.3996C7.78744 10.3996 7.58395 10.4839 7.43392 10.6339C7.2839 10.784 7.19961 10.9874 7.19961 11.1996C7.19961 11.4118 7.2839 11.6153 7.43392 11.7653C7.58395 11.9153 7.78744 11.9996 7.99961 11.9996Z" fill="#ADADAD"/>
</svg>
