<svg width="12" height="12" viewBox="0 0 12 12" fill="none" xmlns="http://www.w3.org/2000/svg">
<path fill-rule="evenodd" clip-rule="evenodd" d="M11.5999 6.00039C11.5999 7.4856 11.0099 8.90998 9.9597 9.96019C8.9095 11.0104 7.48511 11.6004 5.9999 11.6004C4.51469 11.6004 3.09031 11.0104 2.0401 9.96019C0.989901 8.90998 0.399902 7.4856 0.399902 6.00039C0.399902 4.51518 0.989901 3.0908 2.0401 2.04059C3.09031 0.990389 4.51469 0.400391 5.9999 0.400391C7.48511 0.400391 8.9095 0.990389 9.9597 2.04059C11.0099 3.0908 11.5999 4.51518 11.5999 6.00039ZM5.9999 2.50039C6.13914 2.50039 6.27268 2.5557 6.37113 2.65416C6.46959 2.75262 6.5249 2.88615 6.5249 3.02539V6.17539C6.5249 6.31463 6.46959 6.44816 6.37113 6.54662C6.27268 6.64508 6.13914 6.70039 5.9999 6.70039C5.86066 6.70039 5.72713 6.64508 5.62867 6.54662C5.53021 6.44816 5.4749 6.31463 5.4749 6.17539V3.02539C5.4749 2.88615 5.53021 2.75262 5.62867 2.65416C5.72713 2.5557 5.86066 2.50039 5.9999 2.50039ZM5.9999 9.50039C6.18555 9.50039 6.3636 9.42664 6.49488 9.29537C6.62615 9.16409 6.6999 8.98604 6.6999 8.80039C6.6999 8.61474 6.62615 8.43669 6.49488 8.30542C6.3636 8.17414 6.18555 8.10039 5.9999 8.10039C5.81425 8.10039 5.6362 8.17414 5.50493 8.30542C5.37365 8.43669 5.2999 8.61474 5.2999 8.80039C5.2999 8.98604 5.37365 9.16409 5.50493 9.29537C5.6362 9.42664 5.81425 9.50039 5.9999 9.50039Z" fill="#ADADAD"/>
</svg>
