<svg width="104" height="93" viewBox="0 0 104 93" fill="none" xmlns="http://www.w3.org/2000/svg">
<g clip-path="url(#clip0_1_182)">
<path d="M103.088 35.5651C103.05 35.5651 103.014 35.5537 102.983 35.5325L52.5236 0.525654C52.37 0.419618 52.1876 0.36295 52.0007 0.363267C51.8139 0.363585 51.6316 0.420871 51.4784 0.527429L1.38201 35.5322C1.34239 35.5598 1.29335 35.5707 1.24568 35.5624C1.198 35.5541 1.15561 35.5272 1.12782 35.4877C1.10002 35.4482 1.08911 35.3994 1.09747 35.3519C1.10584 35.3044 1.1328 35.2622 1.17243 35.2345L51.2689 0.229768C51.4834 0.0806096 51.7385 0.000429966 52.0001 1.72443e-06C52.2617 -0.000426517 52.5172 0.0789165 52.7322 0.227372L103.192 35.2341C103.224 35.2563 103.248 35.288 103.26 35.3246C103.273 35.3612 103.273 35.4009 103.262 35.4378C103.25 35.4747 103.227 35.507 103.196 35.5299C103.164 35.5528 103.126 35.5651 103.088 35.5651L103.088 35.5651Z" fill="#3F3D56"/>
<path d="M4.24463 36.8059L52.0503 1.51196L100.219 39.3172L54.5135 66.308L29.6994 60.6736L4.24463 36.8059Z" fill="#E6E6E6"/>
<path d="M31.7938 82.9791H8.17658C8.03156 82.9792 7.88793 82.9509 7.75389 82.8958C7.61986 82.8406 7.49806 82.7597 7.39545 82.6576C7.29284 82.5555 7.21144 82.4343 7.15591 82.3009C7.10037 82.1674 7.07178 82.0244 7.07178 81.8799C7.07178 81.7354 7.10037 81.5924 7.15591 81.459C7.21144 81.3255 7.29284 81.2043 7.39545 81.1022C7.49806 81.0001 7.61986 80.9192 7.75389 80.864C7.88793 80.8089 8.03156 80.7806 8.17658 80.7808H31.7938C31.9388 80.7806 32.0824 80.8089 32.2164 80.864C32.3505 80.9192 32.4723 81.0001 32.5749 81.1022C32.6775 81.2043 32.7589 81.3255 32.8144 81.459C32.87 81.5924 32.8986 81.7354 32.8986 81.8799C32.8986 82.0244 32.87 82.1674 32.8144 82.3009C32.7589 82.4343 32.6775 82.5555 32.5749 82.6576C32.4723 82.7597 32.3505 82.8406 32.2164 82.8958C32.0824 82.9509 31.9388 82.9792 31.7938 82.9791Z" fill="#0D6EFD"/>
<path d="M16.6499 78.2535H8.17658C8.03156 78.2537 7.88793 78.2254 7.75389 78.1702C7.61986 78.1151 7.49806 78.0341 7.39545 77.932C7.29284 77.8299 7.21144 77.7087 7.15591 77.5753C7.10037 77.4418 7.07178 77.2988 7.07178 77.1543C7.07178 77.0099 7.10037 76.8668 7.15591 76.7334C7.21144 76.5999 7.29284 76.4787 7.39545 76.3766C7.49806 76.2745 7.61986 76.1936 7.75389 76.1384C7.88793 76.0833 8.03156 76.055 8.17658 76.0552H16.6499C16.7949 76.055 16.9385 76.0833 17.0726 76.1384C17.2066 76.1936 17.3284 76.2745 17.431 76.3766C17.5336 76.4787 17.615 76.5999 17.6706 76.7334C17.7261 76.8668 17.7547 77.0099 17.7547 77.1543C17.7547 77.2988 17.7261 77.4418 17.6706 77.5753C17.615 77.7087 17.5336 77.8299 17.431 77.932C17.3284 78.0341 17.2066 78.1151 17.0726 78.1702C16.9385 78.2254 16.7949 78.2537 16.6499 78.2535Z" fill="#0D6EFD"/>
<path d="M52.7225 56.4642C52.543 56.4644 52.3652 56.4297 52.1991 56.362L22.7158 44.1755V6.02962C22.7162 5.6923 22.8509 5.36892 23.0903 5.1304C23.3298 4.89189 23.6544 4.75772 23.993 4.75732H80.5544C80.893 4.75772 81.2177 4.89189 81.4571 5.1304C81.6965 5.36892 81.8312 5.6923 81.8316 6.02962V44.2021L81.7762 44.2257L53.2619 56.3561C53.0911 56.4275 52.9078 56.4643 52.7225 56.4642Z" fill="white"/>
<path d="M52.7225 56.555C52.5311 56.5552 52.3414 56.5183 52.1642 56.4462L22.6245 44.2362V6.02967C22.6249 5.66826 22.7692 5.32178 23.0258 5.06622C23.2823 4.81066 23.6301 4.66691 23.9929 4.6665H80.5543C80.9171 4.66691 81.265 4.81066 81.5215 5.06622C81.778 5.32178 81.9223 5.66826 81.9227 6.02967V44.2622L53.2976 56.4396C53.1156 56.516 52.92 56.5552 52.7225 56.555ZM22.9894 43.9934L52.3034 56.1101C52.5768 56.2206 52.883 56.2188 53.1551 56.1051L81.5578 44.0222V6.02967C81.5575 5.76464 81.4517 5.51056 81.2636 5.32316C81.0755 5.13575 80.8204 5.03033 80.5543 5.03002H23.9929C23.7269 5.03033 23.4718 5.13575 23.2837 5.32316C23.0956 5.51056 22.9897 5.76464 22.9894 6.02967L22.9894 43.9934Z" fill="#3F3D56"/>
<path d="M102.723 35.2017H102.686L81.7403 44.1113L53.082 56.3017C52.97 56.3486 52.8498 56.3731 52.7284 56.3737C52.6069 56.3744 52.4865 56.3511 52.374 56.3054L22.807 44.0859L1.3465 35.2162L1.31372 35.2017H1.27719C0.938576 35.202 0.613934 35.3362 0.374495 35.5747C0.135056 35.8132 0.000375723 36.1366 0 36.474V91.7278C0.000376205 92.0651 0.135056 92.3885 0.374495 92.627C0.613934 92.8655 0.938576 92.9997 1.27719 93.0001H102.723C103.061 92.9997 103.386 92.8655 103.625 92.627C103.865 92.3885 104 92.0651 104 91.7278V36.474C104 36.1366 103.865 35.8132 103.625 35.5747C103.386 35.3362 103.061 35.202 102.723 35.2017ZM103.635 91.7278C103.635 91.9688 103.539 92.1999 103.368 92.3703C103.197 92.5407 102.965 92.6365 102.723 92.6366H1.27719C1.03527 92.6365 0.803286 92.5407 0.632221 92.3703C0.461156 92.1999 0.365009 91.9688 0.364912 91.7278V36.474C0.365243 36.2389 0.456754 36.0132 0.620311 35.8438C0.783868 35.6744 1.00681 35.5746 1.24254 35.5652L22.807 44.4785L52.2336 56.6416C52.5521 56.7707 52.9091 56.7688 53.2261 56.6362L81.7403 44.5058L102.759 35.5652C102.995 35.5753 103.217 35.6754 103.38 35.8447C103.543 36.0139 103.635 36.2393 103.635 36.474V91.7278Z" fill="#3F3D56"/>
<path d="M52.4277 45.6474C51.3393 45.6495 50.2797 45.2989 49.4088 44.6485L49.3548 44.6081L37.9858 35.937C37.4593 35.5351 37.0174 35.0339 36.6853 34.4618C36.3533 33.8898 36.1376 33.2583 36.0505 32.6032C35.9635 31.9482 36.0068 31.2825 36.178 30.6441C36.3492 30.0058 36.645 29.4072 37.0484 28.8827C37.4519 28.3582 37.955 27.918 38.5292 27.5872C39.1034 27.2564 39.7374 27.0416 40.395 26.9548C41.0526 26.8681 41.7209 26.9113 42.3617 27.0819C43.0025 27.2524 43.6033 27.5471 44.1299 27.9489L51.4939 33.5739L68.8961 10.9658C69.2997 10.4415 69.8031 10.0014 70.3774 9.67084C70.9517 9.34026 71.5858 9.1256 72.2434 9.03912C72.901 8.95265 73.5692 8.99605 74.21 9.16686C74.8508 9.33767 75.4515 9.63253 75.9779 10.0346L75.8697 10.181L75.9807 10.0367C77.0424 10.8497 77.7372 12.0489 77.9124 13.3715C78.0877 14.694 77.7291 16.0318 76.9155 17.0913L56.4462 43.6838C55.9728 44.2966 55.364 44.7925 54.6671 45.133C53.9702 45.4736 53.2039 45.6496 52.4277 45.6474Z" fill="#0D6EFD"/>
</g>
<defs>
<clipPath id="clip0_1_182">
<rect width="104" height="93" fill="white"/>
</clipPath>
</defs>
</svg>
