<svg width="807" height="800" viewBox="0 0 807 800" fill="none" xmlns="http://www.w3.org/2000/svg">
<path d="M548.212 757.901L541.756 759.177L531.185 762.01L510.796 736.656L518.936 740.82L530.633 748.109L549.219 751.513L565.502 750.548L565.511 757.344L556.378 760.471L548.212 757.901Z" stroke="white" stroke-width="0.2" stroke-linecap="round" stroke-linejoin="round"/>
<path d="M366.467 337.546L396.249 353.132L406.54 352.64L424.693 358.653L438.583 360.596L442.494 365.893L439.166 388.991L452.392 389.299L466.277 387.845L474.59 383.351L480.849 370.344L478.311 358.335L483.071 354.114L491.989 360.335L495.724 370.891L488.827 380.669L483.323 388.036L475.687 404.357L467.931 426.15L469.819 437.426L472.712 451.607L478.875 464.457L477.765 467.927L480.933 476.369L483.494 483.387L503.1 490.596L506.015 499.785L515.847 503.496L518.237 509.88L515.906 529.085L503.089 540.45L482.261 548.977L469.18 550.896L475.829 557.951L478.703 567.831L484.321 573.577L480.338 579.856L470.066 584.648L456.867 582.746L454.659 587.19L463.513 599.093L473.046 600.844L476.776 595.313L483.93 600.873L476.184 607.481L472.319 617.58L478.425 630.22L480.139 637.464L469.991 640.184L465.462 648.648L468.392 658.74L484.74 664.783L496.414 664.374L500.065 676.311L492.323 686.317L495.19 702.09L489.15 709.147L488.89 715.788L501.451 727.151L513.159 731.944L508.55 732.5L497.624 733.161L471.589 738.325L462.15 732.696L455.527 724.047L449.2 726.649L442.4 723.26L432.164 711.274L436.286 703.824L434.289 695.523L428.67 689.777L427.091 677.964L420.064 661.039L414.162 654.237L417.288 650.68L412.968 646.399L406.369 645.448L406.531 639.287L398.617 635.969L386.659 622.632L389.517 618.92L378.122 604.299L372.748 591.01L369.096 579.072L373.079 572.794L362.533 561.344L355.865 549.988L359.828 539.409L353.809 528.786L353.68 514.772L347.378 503.091L343.315 501.46L326.668 480.769L327.369 465.626L320.262 453.481L318.823 440.498L320.921 426.34L325.631 416.014L319.987 411.861L320.489 406.968L311.045 385.253L321.128 375.527L319.869 360.682L317.06 357.809L322.231 343.281L338.994 342.415L349.422 350.044L349.859 338.144L363.56 335.153L366.467 337.546Z" stroke="white" stroke-width="0.2" stroke-linecap="round" stroke-linejoin="round"/>
<path d="M409.46 295.888L407.693 291.83L394.407 287.912L383.357 290.647L364.137 300.102L362.87 313.131L365.275 320.417L366.466 337.546L363.559 335.153L349.858 338.144L349.421 350.044L338.993 342.415L322.23 343.281L317.059 357.809L309.324 361.921L297.728 344.861L285.827 331.735L284.64 318.004L276.346 314.109L271.203 305.063L261.945 297.574L264.167 281.343L254.977 271.569L256.056 266.295L252.16 261.901L254.364 254.059L250.671 242.813L248.065 233.087L249.201 228.025L231.681 209.153L240.901 208.042L246.919 205.976L248.168 201.336L256.843 193.12L261.614 186.404L276.425 179.943L278.298 190.317L281.617 195.093L283.419 204.354L300.39 212.722L314.544 211.422L320.766 215.193L329.748 215.732L336.053 218.122L343.452 216.139L351.717 218.23L354.87 225.769L358.483 229.106L360.647 234.644L357.11 235.819L367.278 250.089L390.069 244.662L391.108 252.768L394.216 257.6L402.001 259.593L407.861 267.086L409.481 278.208L408.319 284.864L412.05 292.022L409.46 295.888V295.888Z" stroke="white" stroke-width="0.2" stroke-linecap="round" stroke-linejoin="round"/>
<path d="M336.109 -5.7696L343.003 -6.25723L343.478 -9.55699L340.684 -11.5275L340.877 -15.8843L346.079 -15.9188L351.391 -18.9281L358.949 -17.7811L364.971 -16.4489L367.602 -21.006L370.464 -21.3196L373.175 -17.9673L378.657 -20.3425L381.891 -26.8742L383.034 -37.8305L386.88 -52.2301L390.939 -53.9974L395.727 -47.1228L408.414 -25.1436L415.591 -24.5741L418.295 -15.3284L412.206 -1.68744L416.877 1.36646L438.796 -2.24094L442.901 11.3878L449.613 0.0724852L465.926 0.912983L488.22 3.77657L496.236 10.0129L496.373 18.1336L509.193 10.1665L534.375 11.1233L552.232 5.88529L572.994 12.3318L592.717 23.3619L603.039 24.6748L613.357 22.59L618.93 25.6287L627.803 41.8318L632.338 49.4539L633.903 73.0537L630.574 83.4627L619.337 106.641L616.284 124L610.943 137.894L608.097 139.11L608.011 149.783L616.711 174.643L619.994 196.197L621.739 205.246L619.829 211.649L623.644 230.115L617.352 250.608L620.091 265.056L612.529 273.2L612.413 282.069L599.728 285.467L583.117 295.357L576.937 303.584L565.329 311L555.322 325.237L550.279 341.091L552.364 351.409L557.095 358.072L560.143 371.984L560.208 378.991L555.059 388.528L551.946 414.967L546.322 427.804L541.313 436.171L541.597 449.917L537.506 459.171L531.026 452.749L533.076 445.176L522.606 438.238L510.419 433.346L494.777 428.247L490.873 429.746L474.722 422.744L467.93 426.15L475.687 404.357L483.323 388.036L488.827 380.67L495.723 370.891L491.989 360.335L483.071 354.114L478.31 358.335L477.694 350.116L476.176 341.913L473.502 334.472L468.439 333.336L464.777 336.583L460.168 337.138L457.117 332.517L451.449 320.667L447.836 317.33L438.571 315.733L434.656 319.728L421.446 320.322L415.672 302.155L409.461 295.889L412.05 292.023L408.32 284.865L409.482 278.209L407.861 267.087L402.001 259.593L394.216 257.6L391.109 252.768L390.07 244.662L367.278 250.089L357.11 235.819L360.647 234.645L358.483 229.107L354.87 225.769L351.717 218.23L343.452 216.139L336.053 218.122L329.748 215.733L320.766 215.194L314.544 211.423L300.39 212.723L283.419 204.354L281.617 195.093L278.298 190.318L276.425 179.943L261.615 186.404L256.843 193.121L248.168 201.337L246.919 205.977L240.901 208.043L231.682 209.153L225.539 213.292L219.646 213.285L213.94 192.834L206.733 203.149L196.106 205.77L189.261 199.673L181.057 201.191L181.585 194.705L172.399 188.33L163.616 177.54L166.164 174.365L164.155 168.559L170.324 162.827L166.861 155.824L168.575 150.38L167.51 143.867L178.336 130.996L187.382 125.853L188.506 123.286L199.459 121.031L194.14 82.5753L192.765 76.599L188.823 69.4978L181.966 65.8967L179.515 55.9034L185.714 51.9765L188.436 52.8333L187.443 47.4346L180.069 47.8241L177.803 39.3674L201.173 33.5589L203.887 27.62L208.459 31.1533L212.726 38.6207L214.598 36.3061L223.078 41.7383L232.154 38.4L233.347 33.5485L241.376 27.998L245.827 24.3129L245.778 18.2081L253.426 12.08L251.999 9.29003L241.567 10.9521L237.765 2.6806L235.963 -6.5803L229.771 -8.54676L231.757 -10.4383L240.878 -11.0696L251.299 -10.2362L254.043 -14.3704L262.144 -18.8072L274.316 -27.5067L277.339 -33.9818L274.839 -37.3908L281.069 -39.513L284.399 -37.233L284.35 -30.6488L289.089 -29.879L293.325 -24.2163L291.245 -18.4473L292.19 -6.46428L297.019 -0.280654L299.353 5.89191L308.452 10.2517L314.542 9.29982L315.074 6.21149L318.709 4.55755L323.583 0.759098L326.425 -3.85469L333.531 -4.39895L336.109 -5.7696V-5.7696Z" stroke="white" stroke-width="0.2" stroke-linecap="round" stroke-linejoin="round"/>
<path d="M128.101 -93.6958L120.902 -89.2743L119.332 -81.6025L115.489 -76.4941L113.043 -70.4004L113.746 -60.1654L112.093 -51.1119L118.451 -51.9091L121.362 -46.1179L124.749 -43.6264L126.799 -38.5109L126.679 -33.0404L127.683 -30.1372L130.926 -29.8732L134.71 -25.9018L149.803 -31.3057L157.233 -31.4838L168.439 -21.7971L172.905 -24.5799L181.743 -26.2683L188.112 -29.561L192.964 -28.3683L192.353 -20.5004L190.851 -15.1128L192.188 -5.04777L196.949 3.42007L201.197 6.58724L202.413 9.43376L198.095 17.842L203.116 19.6688L207.59 23.6816L214.599 36.3059L212.726 38.6204L208.459 31.153L203.887 27.6197L201.173 33.5586L177.804 39.3671L180.07 47.8238L187.443 47.4343L188.437 52.833L185.714 51.9762L179.516 55.9031L181.967 65.8964L188.823 69.4975L192.765 76.5987L194.14 82.575L199.459 121.031L191.402 115.485L187.751 116.237L191.412 100.301L180.41 96.4507L173.562 99.6454L168.499 98.5093L162.908 103.86L153.519 104.336L142.324 92.1538L135.92 90.244L130.359 84.7099L120.625 80.52L117.794 82.6382L111.87 80.8265L104.761 77.973L101.945 80.9935L91.287 81.8099L86.7409 76.6833L84.4721 77.5179L70.5933 73.0792L67.9804 69.2474L72.1369 67.0007L69.9013 60.3486L71.5016 54.4816L77.1947 52.0497L80.2141 42.1768L82.9393 33.7424L77.8612 31.7041L78.3021 23.2019L72.6343 11.3515L74.4196 7.02094L69.8806 -3.99901L63.2469 -10.1523L63.3934 -17.2161L67.4821 -17.1787L68.7315 -21.8188L64.2531 -29.2294L65.2233 -31.5287L71.4677 -32.7487L78.4322 -44.8117L83.1096 -47.6511L82.1315 -52.1476L81.9756 -64.5685L87.521 -72.6257L94.8072 -75.0313L95.3393 -78.1195L104.925 -79.555L112.837 -88.9262L116.907 -93.189L121.282 -101.386L125.737 -101.673L129.448 -98.8154L128.101 -93.6958V-93.6958Z" stroke="white" stroke-width="0.2" stroke-linecap="round" stroke-linejoin="round"/>
<path d="M117.794 82.6381L122.261 92.5444L120.99 102.175L111.946 120.007L99.1969 129.088L95.1812 142.854L95.7143 152.454L90.69 159.919L83.5351 154.358L78.2759 154.181L73.6966 156.541L71.7594 151.849L74.2923 147.771L71.283 142.459L74.6948 130.669L70.3602 125.485L67.62 133.017L58.5776 128.869L59.8835 124.44L54.4837 112.745L58.1455 109.498L57.9937 100.474L60.1108 90.6167L58.0037 85.2898L63.7646 80.5738L70.5936 73.0791L84.4724 77.5178L86.7412 76.6832L91.2873 81.8098L101.945 80.9934L104.761 77.9729L111.871 80.8264L117.794 82.6381V82.6381Z" stroke="white" stroke-width="0.2" stroke-linecap="round" stroke-linejoin="round"/>
<path d="M315.193 -59.3069L316.364 -46.4783L309.871 -41.1129L311.355 -38.1115L310.956 -30.3002L318.636 -21.9346L322.441 -22.9543L325.96 -15.7398L336.109 -5.7699L333.531 -4.39924L326.426 -3.85498L323.583 0.758801L318.71 4.55726L315.074 6.21119L314.542 9.29953L308.452 10.2514L299.353 5.89161L297.02 -0.280951L292.19 -6.46458L291.245 -18.4476L293.325 -24.2166L289.089 -29.8793L284.351 -30.6491L284.399 -37.2333L281.069 -39.5133L274.84 -37.3911L264.298 -45.443L266.661 -50.155L264.962 -56.4975L271.795 -60.5944L274.075 -63.9244L268.91 -67.9787L268.664 -73.1246L276.448 -83.8209L285.418 -80.7863L294.718 -73.9876L296.855 -66.8561L301.352 -67.8343L309.45 -62.9798L315.193 -59.3069V-59.3069Z" stroke="white" stroke-width="0.2" stroke-linecap="round" stroke-linejoin="round"/>
<path d="M199.458 121.031L188.506 123.286L187.381 125.854L178.336 130.996L167.509 143.868L168.574 150.38L166.861 155.824L170.324 162.827L164.155 168.559L166.164 174.365L163.616 177.541L172.398 188.33L181.584 194.706L181.056 201.192L189.26 199.674L196.106 205.77L206.733 203.149L213.939 192.834L219.646 213.285L225.539 213.292L231.681 209.154L249.201 228.025L248.065 233.088L250.671 242.813L254.364 254.06L252.16 261.902L256.056 266.296L254.977 271.57L264.167 281.344L261.945 297.574L261.489 305.174L256.475 310.143L241.906 305.663L238.741 300.619L210.38 293.717L183.737 284.767L171.591 279.185L162.669 269.566L163.284 265.096L147.109 250.396L126.893 229.074L106.957 205.412L100.184 200.429L93.2929 191.625L81.1886 185.351L71.0475 182.177L73.0555 175.295L63.2007 163.886L64.2456 153.409L71.2821 142.46L74.2914 147.772L71.7585 151.85L73.6957 156.542L78.275 154.182L83.5342 154.359L90.6891 159.92L95.7134 152.455L95.1803 142.855L99.196 129.089L111.945 120.008L120.989 102.176L122.261 92.5452L117.793 82.6389L120.625 80.5207L130.358 84.7106L135.92 90.2448L142.323 92.1546L153.518 104.337L162.907 103.86L168.498 98.5101L173.561 99.6461L180.409 96.4515L191.411 100.301L187.75 116.238L191.401 115.486L199.458 121.031V121.031Z" stroke="white" stroke-width="0.2" stroke-linecap="round" stroke-linejoin="round"/>
<path d="M409.461 295.888L415.672 302.155L421.446 320.322L434.656 319.728L438.571 315.733L447.836 317.329L451.449 320.666L457.117 332.517L460.168 337.138L464.778 336.582L468.44 333.335L473.503 334.471L476.176 341.912L477.695 350.116L478.311 358.335L480.849 370.344L474.59 383.351L466.277 387.844L452.392 389.299L439.166 388.991L442.494 365.893L438.583 360.596L424.693 358.653L406.54 352.64L396.249 353.132L366.467 337.546L365.276 320.417L362.871 313.131L364.138 300.102L383.358 290.647L394.408 287.912L407.694 291.83L409.461 295.888Z" fill="white" stroke="white" stroke-width="0.2" stroke-linecap="round" stroke-linejoin="round"/>
<path d="M354.252 -66.6003L350.814 -53.2163L353.941 -44.0839L360.745 -37.2963L359.949 -30.9649L360.591 -24.3392L358.949 -17.7812L351.391 -18.9282L346.079 -15.9188L340.877 -15.8843L340.685 -11.5275L343.479 -9.55707L343.003 -6.2573L336.109 -5.76968L325.96 -15.7396L322.441 -22.9541L318.636 -21.9344L310.956 -30.3L311.355 -38.1113L309.871 -41.1126L316.364 -46.478L315.193 -59.3067L330.306 -60.4104L330.894 -63.2872L340.336 -66.9502L354.252 -66.6003V-66.6003Z" stroke="white" stroke-width="0.2" stroke-linecap="round" stroke-linejoin="round"/>
<path d="M537.505 459.171L536.445 468.745L527.011 479.204L517.395 478.835L511.872 481.901L498.715 479.308L491.217 481.771L480.932 476.369L477.764 467.927L478.874 464.458L472.711 451.607L469.818 437.427L467.929 426.15L474.721 422.744L490.872 429.746L494.776 428.247L510.418 433.346L522.605 438.238L533.075 445.176L531.026 452.75L537.505 459.171V459.171Z" stroke="white" stroke-width="0.2" stroke-linecap="round" stroke-linejoin="round"/>
<path d="M276.448 -83.8209L268.664 -73.1245L268.91 -67.9787L274.075 -63.9244L271.795 -60.5943L264.962 -56.4974L266.661 -50.1549L264.298 -45.443L274.84 -37.391L277.339 -33.982L274.316 -27.507L262.145 -18.8075L254.043 -14.3707L251.299 -10.2364L240.879 -11.0699L231.757 -10.4386L229.772 -8.54701L235.963 -6.58055L237.765 2.68035L241.568 10.9519L251.999 9.28978L253.426 12.0797L245.778 18.2078L245.827 24.3126L241.377 27.9977L233.347 33.5483L232.154 38.3997L223.078 41.738L214.598 36.3059L207.59 23.6816L203.116 19.6688L198.095 17.842L202.413 9.43377L201.197 6.58725L196.949 3.42008L192.188 -5.04775L190.851 -15.1128L192.353 -20.5004L192.964 -28.3683L188.112 -29.5609L181.743 -26.2683L172.905 -24.5799L168.439 -21.7971L157.233 -31.4838L149.803 -31.3057L134.71 -25.9018L130.926 -29.8731L127.683 -30.1372L126.679 -33.0404L126.799 -38.5109L124.749 -43.6264L121.362 -46.1179L118.451 -51.909L112.093 -51.1119L113.746 -60.1654L113.043 -70.4004L115.489 -76.4941L119.331 -81.6025L120.901 -89.2743L128.101 -93.6958L128.528 -90.4113L121.793 -86.7939L127.03 -81.6259L128.321 -74.2678L124.709 -64.9158L131.615 -55.2099L136.674 -57.4717L137.183 -68.2581L132.342 -71.9462L129.567 -82.3057L143.316 -91.8812L140.348 -97.8838L143.598 -103.513L149.798 -94.7511L158.311 -96.8056L167.482 -91.3321L169.151 -86.7942L179.722 -89.6266L192.278 -94.3507L200.419 -90.1872L209.751 -90.8751L215.595 -96.9729L214.9 -100.412L229.684 -105.28L243.792 -109.287L234.509 -102.494L240.071 -96.9599L249.811 -98.6634L260.504 -94.2773L264.872 -83.8916L270.947 -85.7458L276.448 -83.8209V-83.8209Z" stroke="white" stroke-width="0.2" stroke-linecap="round" stroke-linejoin="round"/>
<path d="M510.796 736.656L531.186 762.01L541.756 759.178L548.212 757.901L548.515 763.258L542.826 769.088L537.638 770.025L530.801 770.724L520.902 769.297L508.976 770.454L491.193 767.514L475.85 764.374L451.222 755.338L461.684 755.481L482.188 759.277L498.868 759.793L499.819 753.193L496.805 744.484L502.521 737.061L510.796 736.656Z" stroke="white" stroke-width="0.2" stroke-linecap="round" stroke-linejoin="round"/>
<path d="M317.06 357.809L319.869 360.682L321.127 375.526L311.044 385.253L320.488 406.968L319.986 411.861L325.631 416.013L320.92 426.339L318.822 440.497L320.262 453.481L327.368 465.625L326.667 480.769L343.315 501.46L347.377 503.091L353.679 514.771L353.809 528.785L359.828 539.409L355.864 549.988L362.533 561.344L373.078 572.793L369.096 579.072L372.748 591.01L378.121 604.299L389.516 618.92L386.659 622.631L398.617 635.969L406.53 639.287L406.368 645.448L412.968 646.399L417.287 650.68L414.161 654.236L420.063 661.039L427.09 677.964L428.67 689.777L434.288 695.522L436.286 703.824L432.164 711.273L442.4 723.259L449.199 726.649L455.527 724.047L462.15 732.696L471.588 738.324L497.623 733.161L508.549 732.5L499.458 734.936L496.714 739.07L490.772 745.647L497.595 756.735L493.635 758.022L479.239 757.575L460.947 752.732L442.896 749.638L433.922 743.205L431.248 735.764L419.99 729.264L403.414 709.686L399.592 697.115L404.061 685.041L385.437 685.726L388.03 672.568L377.853 651.502L392.842 652.471L381.615 625.795L372.195 624.467L378.785 640.603L370.875 640.683L362.606 622.505L351.693 598.691L351.526 588.765L341.037 577.527L331.884 563.664L336.365 561.784L331.799 539.668L328.501 517.212L323.331 497.071L310.859 478.433L309.125 466.888L300.21 451.376L299.597 433.866L290.67 408.16L283.079 379.83L275.19 349.541L266.07 328.192L256.475 310.142L261.489 305.174L261.945 297.574L271.203 305.063L276.346 314.109L284.641 318.004L285.827 331.735L297.728 344.861L309.324 361.921L317.06 357.809Z" stroke="white" stroke-width="0.2" stroke-linecap="round" stroke-linejoin="round"/>
<path d="M601.345 694.039L602.614 693.699L602.769 693.431L603.769 692.937L604.728 693.133L605.744 693.541L606.125 694.118L606.182 694.33L605.181 694.824L604.589 694.303L604.109 694.205L604.068 694.896L604.547 694.994L604.928 695.572L605.449 694.979L605.929 695.077L606.367 695.866L607.058 695.908L607.213 695.64L608.44 695.991L608.424 695.088L606.62 695.119L606.548 694.005L607.069 693.412L610.183 692.351L612.003 693.223L612.483 693.321L612.709 694.167L611.384 694.295L610.214 694.156L609.059 694.918L609.806 695.171L610.708 695.156L612.668 694.858L613.359 694.899L613.684 695.265L613.544 696.436L612.487 696.719L612.332 696.987L610.909 697.595L609.965 698.301L610.713 698.554L609.036 699.909L608.134 699.925L607.134 700.419L605.654 700.816L604.272 700.733L602.777 700.227L602.947 700.861L603.694 701.114L605.076 701.197L605.88 701.661L606.247 701.337L607.149 701.322L608.164 701.729L607.798 702.054L608.504 702.998L608.082 703.111L607.277 702.647L606.375 702.662L605.544 703.791L604.952 703.27L604.204 703.017L603.57 703.187L602.4 703.047L602.033 703.372L602.683 704.104L603.317 703.935L603.853 704.244L603.487 704.569L605.307 705.441L604.941 705.765L603.982 705.569L603.347 705.739L602.543 705.275L601.852 705.233L601.161 705.192L601.29 706.517L602.404 706.445L602.574 707.079L602.475 707.559L601.573 707.574L601.248 707.208L600.078 707.068L599.753 706.702L599.331 706.815L598.202 705.985L598.609 704.969L598.496 704.546L597.367 703.716L597.254 703.293L598.198 702.587L597.873 702.221L598.873 701.726L598.492 701.149L599.534 699.963L600.689 699.2L601.761 699.819L601.988 700.665L602.565 700.284L601.168 699.298L601.21 698.608L599.828 698.525L598.813 698.117L598.911 697.637L599.87 697.834L599.798 696.72L598.205 696.694L598.246 696.003L598.726 696.101L599.246 695.508L599.881 695.338L600.134 694.591L599.329 694.126L600.175 693.9L601.345 694.039Z" stroke="white" stroke-width="0.2" stroke-linecap="round" stroke-linejoin="round"/>
</svg>
