<svg width="44" height="20" viewBox="0 0 44 20" fill="none" xmlns="http://www.w3.org/2000/svg">
<g filter="url(#filter0_d_492_31)">
<path d="M3.13252 15.5778V10.2287C3.13252 8.90973 3.77368 8.36016 4.57971 8.36016C5.47733 8.36016 5.93531 9.0746 5.93531 10.2104V15.5778H9.06783V10.2287C9.06783 8.90973 9.72731 8.36016 10.515 8.36016C11.4126 8.36016 11.8706 9.0746 11.8706 10.2104V15.5778H15.0031V9.23947C15.0031 6.8397 13.6292 5.53906 11.6691 5.53906C10.2219 5.53906 9.34261 6.10695 8.49994 7.05953C7.95038 6.07031 6.96116 5.53906 5.71548 5.53906C4.43316 5.53906 3.62713 6.05199 2.87606 6.93129V5.72225H0V15.5778H3.13252Z" fill="url(#paint0_linear_492_31)"/>
</g>
<g filter="url(#filter1_d_492_31)">
<path d="M17.1713 2.79525C17.1713 1.75107 16.3469 1 15.1562 1C13.9655 1 13.1411 1.75107 13.1411 2.79525C13.1411 3.8211 13.9655 4.57217 15.1562 4.57217C16.3469 4.57217 17.1713 3.8211 17.1713 2.79525ZM16.7499 15.5778V5.72228H13.6174V15.5778H16.7499Z" fill="url(#paint1_linear_492_31)"/>
</g>
<path d="M15.063 15.5757V9.26448C15.063 7.77036 14.5212 6.6988 13.6294 6.09766V15.5757H15.063Z" fill="#4474E8"/>
<g filter="url(#filter2_d_492_31)">
<path d="M26.4429 10.559C26.4429 7.74502 24.7041 5.46094 22.0501 5.46094C20.897 5.46094 19.927 5.91775 19.1216 6.75829V5.7229H16.248L16.248 19.001H19.3779V14.5607C20.1466 15.2916 21.0252 15.6571 22.0501 15.6571C24.7041 15.6571 26.4429 13.4095 26.4429 10.559ZM23.1849 10.559C23.1849 12.1304 22.2515 12.8431 21.2997 12.8431C20.3479 12.8431 19.4145 12.1487 19.4145 10.5773C19.4145 9.0241 20.3296 8.27492 21.2997 8.27492C22.2515 8.27492 23.1849 9.0241 23.1849 10.559Z" fill="url(#paint2_linear_492_31)"/>
</g>
<path d="M29.0715 15.6558C31.9107 15.6558 34.0893 13.372 34.0893 10.5584C34.0893 7.74473 31.9107 5.46094 29.0715 5.46094C26.2322 5.46094 24.0537 7.74473 24.0537 10.5584C24.0537 13.372 26.2322 15.6558 29.0715 15.6558ZM29.0715 12.8604C28.1251 12.8604 27.2322 12.0931 27.2322 10.5584C27.2322 9.02365 28.1251 8.27457 29.0715 8.27457C30.0179 8.27457 30.9107 9.02365 30.9107 10.5584C30.9107 12.0931 30.0179 12.8604 29.0715 12.8604Z" fill="#70C2F3"/>
<g filter="url(#filter3_d_492_31)">
<path d="M25.3595 7.10156C26.0527 8.01037 26.4431 9.2248 26.4431 10.5582C26.4431 11.9047 26.0551 13.1167 25.366 14.0207C24.5454 13.1113 24.0537 11.8942 24.0537 10.5576C24.0537 9.22442 24.5428 8.01023 25.3595 7.10156Z" fill="#55B3F0"/>
</g>
<path d="M16.2481 5.72289L16.749 5.72266L16.749 15.5759L16.248 15.5761L16.2481 5.72289Z" fill="url(#paint3_linear_492_31)"/>
<rect x="36.2705" y="5.5" width="3.24005" height="10.1701" fill="#3A6EB7"/>
<rect x="32.8506" y="12.2051" width="3.24005" height="10.1701" transform="rotate(-90 32.8506 12.2051)" fill="#3A6EB7"/>
<defs>
<filter id="filter0_d_492_31" x="0" y="5.53906" width="15.0029" height="10.1082" filterUnits="userSpaceOnUse" color-interpolation-filters="sRGB">
<feFlood flood-opacity="0" result="BackgroundImageFix"/>
<feColorMatrix in="SourceAlpha" type="matrix" values="0 0 0 0 0 0 0 0 0 0 0 0 0 0 0 0 0 0 127 0" result="hardAlpha"/>
<feOffset dy="0.0691215"/>
<feColorMatrix type="matrix" values="0 0 0 0 0 0 0 0 0 0 0 0 0 0 0 0 0 0 0.25 0"/>
<feBlend mode="normal" in2="BackgroundImageFix" result="effect1_dropShadow_492_31"/>
<feBlend mode="normal" in="SourceGraphic" in2="effect1_dropShadow_492_31" result="shape"/>
</filter>
<filter id="filter1_d_492_31" x="12.893" y="0.867056" width="4.52657" height="15.0744" filterUnits="userSpaceOnUse" color-interpolation-filters="sRGB">
<feFlood flood-opacity="0" result="BackgroundImageFix"/>
<feColorMatrix in="SourceAlpha" type="matrix" values="0 0 0 0 0 0 0 0 0 0 0 0 0 0 0 0 0 0 127 0" result="hardAlpha"/>
<feOffset dy="0.115202"/>
<feGaussianBlur stdDeviation="0.124073"/>
<feColorMatrix type="matrix" values="0 0 0 0 0.101961 0 0 0 0 0.443137 0 0 0 0 0.858824 0 0 0 0.25 0"/>
<feBlend mode="normal" in2="BackgroundImageFix" result="effect1_dropShadow_492_31"/>
<feBlend mode="normal" in="SourceGraphic" in2="effect1_dropShadow_492_31" result="shape"/>
</filter>
<filter id="filter2_d_492_31" x="16.248" y="5.46094" width="10.1948" height="13.6092" filterUnits="userSpaceOnUse" color-interpolation-filters="sRGB">
<feFlood flood-opacity="0" result="BackgroundImageFix"/>
<feColorMatrix in="SourceAlpha" type="matrix" values="0 0 0 0 0 0 0 0 0 0 0 0 0 0 0 0 0 0 127 0" result="hardAlpha"/>
<feOffset dy="0.0691215"/>
<feColorMatrix type="matrix" values="0 0 0 0 0 0 0 0 0 0 0 0 0 0 0 0 0 0 0.25 0"/>
<feBlend mode="normal" in2="BackgroundImageFix" result="effect1_dropShadow_492_31"/>
<feBlend mode="normal" in="SourceGraphic" in2="effect1_dropShadow_492_31" result="shape"/>
</filter>
<filter id="filter3_d_492_31" x="23.7351" y="7.10156" width="2.70824" height="7.23753" filterUnits="userSpaceOnUse" color-interpolation-filters="sRGB">
<feFlood flood-opacity="0" result="BackgroundImageFix"/>
<feColorMatrix in="SourceAlpha" type="matrix" values="0 0 0 0 0 0 0 0 0 0 0 0 0 0 0 0 0 0 127 0" result="hardAlpha"/>
<feOffset dx="-0.318589" dy="0.318589"/>
<feComposite in2="hardAlpha" operator="out"/>
<feColorMatrix type="matrix" values="0 0 0 0 0.309804 0 0 0 0 0.654902 0 0 0 0 0.909804 0 0 0 1 0"/>
<feBlend mode="normal" in2="BackgroundImageFix" result="effect1_dropShadow_492_31"/>
<feBlend mode="normal" in="SourceGraphic" in2="effect1_dropShadow_492_31" result="shape"/>
</filter>
<linearGradient id="paint0_linear_492_31" x1="10.7619" y1="6.09737" x2="4.94761" y2="15.0179" gradientUnits="userSpaceOnUse">
<stop stop-color="#6298EC"/>
<stop offset="1" stop-color="#3A64E2"/>
</linearGradient>
<linearGradient id="paint1_linear_492_31" x1="15.1562" y1="1" x2="15.1562" y2="15.5778" gradientUnits="userSpaceOnUse">
<stop stop-color="#74AEF3"/>
<stop offset="1" stop-color="#4B77E1"/>
</linearGradient>
<linearGradient id="paint2_linear_492_31" x1="23.5609" y1="6.21397" x2="12.611" y2="11.582" gradientUnits="userSpaceOnUse">
<stop stop-color="#71C1F3"/>
<stop offset="1" stop-color="#4382E5"/>
</linearGradient>
<linearGradient id="paint3_linear_492_31" x1="16.4985" y1="5.72266" x2="16.4985" y2="15.5761" gradientUnits="userSpaceOnUse">
<stop stop-color="#55AAED"/>
<stop offset="1" stop-color="#55AAED" stop-opacity="0.5"/>
</linearGradient>
</defs>
</svg>
