<svg width="12" height="16" viewBox="0 0 12 16" fill="none" xmlns="http://www.w3.org/2000/svg">
<path d="M8.50031 4C8.50031 4.66304 8.23692 5.29893 7.76808 5.76777C7.29924 6.23661 6.66335 6.5 6.00031 6.5C5.33727 6.5 4.70138 6.23661 4.23254 5.76777C3.7637 5.29893 3.50031 4.66304 3.50031 4C3.50031 3.33696 3.7637 2.70107 4.23254 2.23223C4.70138 1.76339 5.33727 1.5 6.00031 1.5C6.66335 1.5 7.29924 1.76339 7.76808 2.23223C8.23692 2.70107 8.50031 3.33696 8.50031 4V4ZM1.00098 13.412C1.0224 12.1002 1.55854 10.8494 2.49376 9.92936C3.42899 9.00929 4.68837 8.49365 6.00031 8.49365C7.31225 8.49365 8.57163 9.00929 9.50686 9.92936C10.4421 10.8494 10.9782 12.1002 10.9996 13.412C9.43124 14.1312 7.72574 14.5023 6.00031 14.5C4.21631 14.5 2.52298 14.1107 1.00098 13.412Z" stroke="#ADADAD" stroke-width="1.5" stroke-linecap="round" stroke-linejoin="round"/>
</svg>
