<svg width="12" height="14" viewBox="0 0 12 14" fill="none" xmlns="http://www.w3.org/2000/svg">
<path d="M11.5 3.25C11.5 4.76867 9.03733 6 6 6C2.96267 6 0.5 4.76867 0.5 3.25M11.5 3.25C11.5 1.73133 9.03733 0.5 6 0.5C2.96267 0.5 0.5 1.73133 0.5 3.25M11.5 3.25V10.75C11.5 12.2687 9.03733 13.5 6 13.5C2.96267 13.5 0.5 12.2687 0.5 10.75V3.25M11.5 3.25V5.75M0.5 3.25V5.75M11.5 5.75V8.25C11.5 9.76867 9.03733 11 6 11C2.96267 11 0.5 9.76867 0.5 8.25V5.75M11.5 5.75C11.5 7.26867 9.03733 8.5 6 8.5C2.96267 8.5 0.5 7.26867 0.5 5.75" stroke="#ADADAD" stroke-linecap="round" stroke-linejoin="round"/>
</svg>
