<svg width="179" height="119" viewBox="0 0 179 119" fill="none" xmlns="http://www.w3.org/2000/svg">
<path d="M32 114.992V116.992H34H53.7696V114.992H125.23V116.992H145H147V114.992V105.108H145V69.3802H147V59.4961V49.612H145V13.8841H147V4V2H145H125.23V4H53.7696V2H34H32V4V13.8841H34V49.612H32V59.4961V69.3802H34V105.108H32V114.992Z" stroke="black" stroke-width="4" stroke-dasharray="218 394"/>
<path fill-rule="evenodd" clip-rule="evenodd" d="M75.1094 8.11133H79.2205V16.333H83.3316V12.2221H91.5538V8.11133H95.6649V12.2221H103.887V8.11133H107.998V16.333H99.776V20.4438H103.887V40.9979H112.109V49.2195H116.22V40.9979H120.332V49.2195H128.554V53.3304H120.332V57.4412H124.443V61.552H128.554V57.4412H136.776V53.3304H132.665V40.9979H136.776V49.2195H140.887V61.552H136.776V65.6628H140.887V73.8845H136.776V69.7737H132.665V61.552H128.554V73.8845H132.665V82.1061H140.887V86.2169H128.554V90.3278H140.887V110.882H107.998V106.771H99.776V110.882H95.6649V106.771H91.5538V110.882H87.4427V102.66H91.5538V98.5494H87.4427V94.4386H83.3316V98.5494H79.2205V106.771H83.3316V110.882H70.9983V90.3278H75.1094V86.2169H70.9983V77.9953H62.776V73.8845H66.8872V69.7737H62.776V57.4412H66.8872V53.3304H62.776V49.2195H58.6649V45.1087H38.1094V40.9979H58.6649V45.1087H62.776V40.9979H83.3316V45.1087H79.2205V53.3304H83.3316V49.2195H91.5538V45.1087H87.4427V32.7763H91.5538V40.9979H95.6649V28.6654H87.4427V24.5546H83.3316V36.8871H79.2205V24.5546H70.9983V20.4438H75.1094V16.333H70.9983V12.2221H75.1094V8.11133ZM54.5538 73.8845H58.6649V77.9953H46.3316V73.8845H50.4427V69.7737H46.3316V65.6628H42.2205V77.9953H38.1094V61.552H42.2205V57.4412H46.3316V53.3304H38.1094V49.2195H50.4427V53.3304H54.5538V57.4412H58.6649V65.6628H54.5538V73.8845ZM38.1094 8.11133H66.8872V36.8871H38.1094V8.11133ZM112.109 8.11133H140.887V36.8871H112.109V8.11133ZM70.9983 28.6654H75.1094V36.8871H70.9983V28.6654ZM124.443 40.9979H128.554V45.1087H124.443V40.9979ZM38.1094 82.1061H66.8872V110.882H38.1094V82.1061Z" fill="black"/>
<path fill-rule="evenodd" clip-rule="evenodd" d="M42.2188 12.2207H62.7743V32.7748H42.2188V12.2207ZM116.219 12.2207H136.774V32.7748H116.219V12.2207ZM87.441 16.3315H95.6632V20.4423H91.5521V24.5532H87.441V16.3315ZM79.2187 20.4423H83.3299V24.5532H79.2187V20.4423ZM95.6632 24.5532H103.885V28.664H95.6632V24.5532ZM99.7743 32.7748H103.885V40.9965H107.997V49.2181H95.6632V40.9965H99.7743V32.7748ZM62.7743 45.1073H75.1076V61.5506H79.2187V57.4397H83.3299V61.5506H87.441V53.3289H103.885V57.4397H112.108V53.3289H116.219V57.4397H112.108V61.5506H116.219V73.883H103.885V65.6614H99.7743V73.883H91.5521V69.7722H87.441V77.9939H91.5521V82.1047H99.7743V77.9939H103.885V90.3263H99.7743V94.4371H107.997V98.548H116.219V106.77H112.108V102.659H107.997V98.548H95.6632V94.4371H87.441V86.2155H91.5521V82.1047H83.3299V69.7722H79.2187V73.883H75.1076V69.7722H70.9965V61.5506H66.8854V65.6614H62.7743V61.5506H66.8854V57.4397H70.9965V53.3289H66.8854V49.2181H62.7743V45.1073ZM46.3299 57.4397H50.441V61.5506H58.6632V65.6614H54.5521V69.7722H50.441V65.6614H46.3299V57.4397ZM120.33 61.5506H124.441V65.6614H120.33V61.5506ZM120.33 69.7722H124.441V73.883H128.552V77.9939H124.441V73.883H120.33V69.7722ZM107.997 77.9939H120.33V90.3263H107.997V77.9939ZM42.2188 86.2155H62.7743V106.77H42.2188V86.2155ZM79.2187 86.2155H83.3299V94.4371H79.2187V86.2155ZM124.441 94.4371H128.552V102.659H132.663V98.548H136.774V106.77H128.552V102.659H120.33V98.548H124.441V94.4371ZM95.6632 102.659H99.7743V106.77H95.6632V102.659Z" fill="white"/>
<path d="M46.3359 28.6645V22.4983V16.332H58.6693V28.6645H46.3359Z" fill="black"/>
<path d="M120.336 28.6645V22.4983V16.332H132.669V28.6645H120.336Z" fill="black"/>
<path d="M91.5582 61.5511V59.4957V57.4402H99.7804V65.6619H95.6693V61.5511H91.5582V65.6619H87.447V61.5511H91.5582Z" fill="black"/>
<path d="M79.2248 65.6619V63.6065V61.5511H83.3359V65.6619H79.2248V69.7727H75.1137V65.6619H79.2248Z" fill="black"/>
<path d="M103.891 65.6619V63.6065V61.5511H108.003V65.6619H112.114V69.7727H108.003V65.6619H103.891Z" fill="black"/>
<path d="M112.114 86.216V84.1606V82.1052H116.225V86.216H112.114Z" fill="black"/>
<path d="M95.6693 90.3268V88.2714V86.216H99.7804V90.3268H95.6693Z" fill="black"/>
<path d="M46.3359 102.659V96.493V90.3268H58.6693V102.659H46.3359Z" fill="black"/>
<rect x="0.5" y="38" width="178" height="44" fill="url(#paint0_linear_8212_122175)"/>
<rect x="0.5" y="77" width="178" height="5" fill="#007BFF"/>
<defs>
<linearGradient id="paint0_linear_8212_122175" x1="89.5" y1="38" x2="89.5" y2="82" gradientUnits="userSpaceOnUse">
<stop stop-color="#007BFF" stop-opacity="0"/>
<stop offset="1" stop-color="#007BFF"/>
</linearGradient>
</defs>
</svg>
