<svg width="14" height="14" viewBox="0 0 14 14" fill="none" xmlns="http://www.w3.org/2000/svg">
<path d="M0.564453 12.998C3.0642 11.498 4.31445 9.99805 4.31445 8.49805C4.31445 6.24805 3.56445 6.24805 2.81445 6.24805C2.06445 6.24805 1.29045 7.0618 1.31445 8.49805C1.33995 10.034 2.55795 10.6558 3.18945 11.498C4.31445 12.998 5.06445 13.373 5.81445 12.248C6.3147 11.498 6.6897 10.8733 6.93945 10.373C7.68945 12.1228 8.6892 12.998 9.93945 12.998H11.8145" stroke="#ADADAD" stroke-linecap="round" stroke-linejoin="round"/>
<path d="M13.3145 11.5V2.5C13.3145 1.65925 12.6552 1 11.8145 1C10.9737 1 10.3145 1.65925 10.3145 2.5V11.5L11.8145 13L13.3145 11.5Z" stroke="#ADADAD" stroke-linecap="round" stroke-linejoin="round"/>
</svg>
