<svg width="286" height="370" viewBox="0 0 286 370" fill="none" xmlns="http://www.w3.org/2000/svg">
<path d="M72.0863 61.3753C93.7632 48.8602 118.352 42.2715 143.383 42.2715C168.413 42.2715 193.002 48.8602 214.679 61.3753L143.383 184.864L72.0863 61.3753Z" fill="#198754"/>
<path d="M213.287 60.5822C240.801 76.0579 262.402 100.226 274.703 129.298C287.004 158.37 289.311 190.703 281.261 221.226C273.211 251.75 255.26 278.74 230.221 297.965C205.183 317.189 174.473 327.562 142.905 327.456C111.338 327.35 80.698 316.772 55.7888 297.381C30.8796 277.989 13.1094 250.88 5.26395 220.302C-2.58149 189.725 -0.0586033 157.409 12.4371 128.42C24.9328 99.4311 46.6948 75.408 74.3117 60.1169L143.383 184.864L213.287 60.5822Z" fill="#0D6EFD" fill-opacity="0.8"/>
<path d="M129.015 16H130.407L133.785 7.85185V16H135.296V5.36296H133.281L129.726 14L126.156 5.36296H124.156V16H125.652V7.86667L129.015 16ZM139.226 16V5.36296H137.596V16H139.226ZM145.22 12.2963C147.605 12.2963 149.146 11.037 149.146 8.8C149.146 6.57778 147.605 5.36296 145.22 5.36296H141.531V16H143.161V12.2963H145.22ZM145.205 6.74074C146.642 6.74074 147.516 7.4963 147.516 8.81481C147.516 10.1333 146.642 10.9185 145.205 10.9185H143.161V6.74074H145.205ZM155.561 16.2222C158.643 16.2222 160.969 13.8074 160.969 10.6667C160.969 7.52593 158.643 5.14074 155.561 5.14074C152.48 5.14074 150.154 7.52593 150.154 10.6667C150.154 13.8074 152.48 16.2222 155.561 16.2222ZM155.561 14.7556C153.309 14.7556 151.843 12.9481 151.843 10.6667C151.843 8.38519 153.309 6.60741 155.561 6.60741C157.813 6.60741 159.28 8.38519 159.28 10.6667C159.28 12.9481 157.813 14.7556 155.561 14.7556ZM167.083 14.6519V11.6296H170.091V10.3407H167.083V7.34815H165.691V10.3407H162.683V11.6296H165.691V14.6519H167.083Z" fill="black"/>
<path d="M130.79 21.42H129.432V27.136C129.432 28.42 128.679 29.2471 127.358 29.2471C126.049 29.2471 125.296 28.42 125.296 27.136V21.42H123.938V27.099C123.938 29.136 125.235 30.4694 127.358 30.4694C129.481 30.4694 130.79 29.136 130.79 27.099V21.42ZM139.161 27.6916C139.161 26.3706 138.309 25.7039 136.791 25.3953L135.482 25.136C134.655 24.9632 133.927 24.6669 133.927 23.8274C133.927 23.062 134.556 22.3829 135.704 22.3829C136.815 22.3829 137.581 23.1237 137.655 24.1854H139.038C138.927 22.42 137.532 21.2965 135.692 21.2965C133.853 21.2965 132.544 22.42 132.544 23.9138C132.544 25.42 133.68 26.0496 134.927 26.2965L136.211 26.5434C137.235 26.7657 137.717 27.136 137.717 27.8768C137.717 28.7904 136.877 29.3212 135.754 29.3212C134.396 29.3212 133.68 28.5928 133.618 27.4694H132.235C132.346 29.2348 133.643 30.4076 135.778 30.4076C137.927 30.4076 139.161 29.2348 139.161 27.6916ZM143.536 30.2842C146.301 30.2842 147.993 28.3706 147.993 25.815C147.993 23.2225 146.363 21.42 143.536 21.42H140.733V30.2842H143.536ZM142.091 22.5928H143.474C145.523 22.5928 146.61 23.815 146.61 25.815C146.61 27.8521 145.511 29.1113 143.474 29.1113H142.091V22.5928ZM157.747 27.9385C157.747 26.9262 157.068 26.2595 156.191 25.9385C156.883 25.6299 157.426 24.9755 157.426 24.1237C157.426 22.7657 156.278 21.815 154.698 21.815C153.093 21.815 151.957 22.7657 151.957 24.1237C151.957 24.9755 152.488 25.6299 153.191 25.9385C152.315 26.2595 151.624 26.9262 151.624 27.9385C151.624 29.3953 152.87 30.3953 154.698 30.3953C156.512 30.3953 157.747 29.3953 157.747 27.9385ZM153.241 24.1607C153.241 23.3336 153.833 22.815 154.698 22.815C155.549 22.815 156.142 23.3336 156.142 24.1607C156.142 24.9755 155.549 25.4694 154.698 25.4694C153.833 25.4694 153.241 24.9755 153.241 24.1607ZM152.932 27.9138C152.932 27.0126 153.648 26.4694 154.698 26.4694C155.735 26.4694 156.463 27.0126 156.463 27.9138C156.463 28.8397 155.735 29.3953 154.698 29.3953C153.648 29.3953 152.932 28.8397 152.932 27.9138ZM158.954 26.1237C158.954 28.8891 160.028 30.4076 162.028 30.4076C164.028 30.4076 165.115 28.8891 165.115 26.1237C165.115 23.3583 164.003 21.815 162.028 21.815C160.053 21.815 158.954 23.3583 158.954 26.1237ZM160.238 26.1237C160.238 24.0373 160.88 22.9385 162.028 22.9385C163.201 22.9385 163.831 24.0373 163.831 26.1237C163.831 28.1978 163.201 29.2842 162.028 29.2842C160.855 29.2842 160.238 28.1854 160.238 26.1237ZM168.037 30.2842V26.1731L171.753 30.2842H173.456L169.407 25.7657L173.358 21.42H171.79L168.037 25.5187V21.42H166.679V30.2842H168.037Z" fill="#ADADAD"/>
<path d="M113.452 351V347H115.407L118.059 351H120.015L117.126 346.763C118.741 346.378 119.704 345.207 119.704 343.681C119.704 341.563 118.237 340.363 115.792 340.363H111.822V351H113.452ZM113.452 341.726H115.689C117.2 341.726 118.059 342.407 118.059 343.681C118.059 344.97 117.2 345.637 115.689 345.637H113.452V341.726ZM124.323 351.148C126.174 351.148 127.523 350.096 127.908 348.348H126.426C126.174 349.37 125.404 349.978 124.293 349.978C122.974 349.978 122.174 349.044 122.056 347.444H127.908C128.174 344.896 126.619 343 124.278 343C122.115 343 120.53 344.704 120.53 347.03C120.53 349.504 122.056 351.148 124.323 351.148ZM124.249 344.126C125.463 344.126 126.249 345 126.323 346.452H122.071C122.234 344.985 123.049 344.126 124.249 344.126ZM132.495 354.022C134.717 354.022 136.035 352.793 136.035 350.733V343.148H134.643V344.541C134.11 343.548 133.221 343 132.095 343C130.124 343 128.791 344.57 128.791 346.911C128.791 349.222 130.184 350.837 132.139 350.837C133.206 350.837 134.095 350.289 134.539 349.341V350.763C134.539 352.111 133.828 352.837 132.48 352.837C131.265 352.837 130.554 352.244 130.465 351.148H129.013C129.102 352.926 130.435 354.022 132.495 354.022ZM130.302 346.911C130.302 345.296 131.117 344.289 132.406 344.289C133.695 344.289 134.539 345.326 134.539 346.956C134.539 348.511 133.68 349.533 132.406 349.533C131.102 349.533 130.302 348.541 130.302 346.911ZM143.011 347.77C143.011 349 142.196 349.83 141.188 349.83C140.211 349.83 139.529 349.267 139.529 347.904V343.148H138.033V348.2C138.033 350.215 139.129 351.148 140.714 351.148C141.781 351.148 142.699 350.57 143.114 349.756V351H144.507V343.148H143.011V347.77ZM148.096 351V340.363H146.585V351H148.096ZM154.928 351H156.173V345.963C156.173 344.096 155.047 343 153.106 343C151.269 343 150.01 344.17 149.936 345.933H151.299C151.343 344.837 152.01 344.185 153.106 344.185C154.143 344.185 154.751 344.822 154.751 345.948V346.526C154.114 346.452 153.743 346.437 153.284 346.437C150.943 346.437 149.714 347.237 149.714 348.778C149.714 350.215 150.78 351.148 152.41 351.148C153.565 351.148 154.44 350.659 154.928 349.785V351ZM151.136 348.733C151.136 347.815 151.877 347.37 153.373 347.37C153.758 347.37 154.173 347.385 154.751 347.459V348.096C154.751 349.296 153.965 350.081 152.706 350.081C151.743 350.081 151.136 349.548 151.136 348.733ZM159.67 346.985C159.67 345.252 160.899 344.511 162.588 344.6V343.044C161.299 343.044 160.114 343.726 159.566 344.807V343.148H158.173V351H159.67V346.985ZM168.617 351V340.363H166.987V351H168.617ZM172.3 346.57C172.3 345.178 173.159 344.319 174.181 344.319C175.293 344.319 175.885 345.074 175.885 346.422V351H177.381V345.919C177.381 344.037 176.315 343 174.7 343C173.618 343 172.73 343.578 172.196 344.452V343.148H170.804V351H172.3V346.57ZM185.598 343.148H184.072L181.864 349.281L179.687 343.148H178.072L181.02 351H182.649L185.598 343.148ZM189.644 351.148C191.496 351.148 192.844 350.096 193.229 348.348H191.748C191.496 349.37 190.725 349.978 189.614 349.978C188.296 349.978 187.496 349.044 187.377 347.444H193.229C193.496 344.896 191.94 343 189.599 343C187.436 343 185.851 344.704 185.851 347.03C185.851 349.504 187.377 351.148 189.644 351.148ZM189.57 344.126C190.785 344.126 191.57 345 191.644 346.452H187.392C187.555 344.985 188.37 344.126 189.57 344.126ZM201.042 348.659C201.042 347.533 200.301 346.852 198.746 346.57L197.412 346.319C196.464 346.141 196.064 345.844 196.064 345.207C196.064 344.526 196.701 344.126 197.649 344.126C198.701 344.126 199.398 344.674 199.487 345.622H200.924C200.79 344.007 199.516 343 197.635 343C195.812 343 194.612 343.963 194.612 345.341C194.612 346.526 195.427 347.267 196.879 347.548L198.153 347.785C199.131 347.978 199.531 348.259 199.531 348.911C199.531 349.652 198.835 350.022 197.783 350.022C196.583 350.022 195.798 349.415 195.738 348.437H194.301C194.449 350.126 195.679 351.148 197.753 351.148C199.842 351.148 201.042 350.2 201.042 348.659ZM207.004 349.548C206.693 349.696 206.382 349.756 206.026 349.756C205.226 349.756 204.708 349.37 204.708 348.289V344.422H207.078V343.148H204.708V340.822H203.212V343.148H201.478V344.422H203.212V348.63C203.212 350.363 204.219 351.148 205.671 351.148C206.145 351.148 206.545 351.074 207.004 350.867V349.548ZM210.002 351V346.496C210.002 345.178 210.817 344.319 211.854 344.319C212.951 344.319 213.528 345.089 213.528 346.393V351H215.025V346.496C215.025 345.178 215.854 344.319 216.877 344.319C217.973 344.319 218.551 345.089 218.551 346.393V351H220.047V345.919C220.047 344.052 219.01 343 217.395 343C216.195 343 215.291 343.622 214.743 344.63C214.388 343.593 213.514 343 212.358 343C211.277 343 210.432 343.548 209.899 344.452V343.148H208.506V351H210.002ZM225.278 351.148C227.129 351.148 228.478 350.096 228.863 348.348H227.381C227.129 349.37 226.359 349.978 225.248 349.978C223.929 349.978 223.129 349.044 223.011 347.444H228.863C229.129 344.896 227.574 343 225.233 343C223.07 343 221.485 344.704 221.485 347.03C221.485 349.504 223.011 351.148 225.278 351.148ZM225.203 344.126C226.418 344.126 227.203 345 227.278 346.452H223.026C223.189 344.985 224.003 344.126 225.203 344.126ZM231.95 346.57C231.95 345.178 232.809 344.319 233.831 344.319C234.942 344.319 235.535 345.074 235.535 346.422V351H237.031V345.919C237.031 344.037 235.965 343 234.35 343C233.268 343 232.379 343.578 231.846 344.452V343.148H230.454V351H231.95V346.57ZM243.419 349.548C243.108 349.696 242.797 349.756 242.441 349.756C241.641 349.756 241.123 349.37 241.123 348.289V344.422H243.493V343.148H241.123V340.822H239.626V343.148H237.893V344.422H239.626V348.63C239.626 350.363 240.634 351.148 242.086 351.148C242.56 351.148 242.96 351.074 243.419 350.867V349.548Z" fill="black"/>
<path d="M118.457 356.42H117.099V362.136C117.099 363.42 116.346 364.247 115.025 364.247C113.716 364.247 112.963 363.42 112.963 362.136V356.42H111.605V362.099C111.605 364.136 112.901 365.469 115.025 365.469C117.148 365.469 118.457 364.136 118.457 362.099V356.42ZM126.828 362.692C126.828 361.371 125.976 360.704 124.457 360.395L123.149 360.136C122.321 359.963 121.593 359.667 121.593 358.827C121.593 358.062 122.223 357.383 123.371 357.383C124.482 357.383 125.247 358.124 125.322 359.185H126.704C126.593 357.42 125.198 356.297 123.359 356.297C121.519 356.297 120.21 357.42 120.21 358.914C120.21 360.42 121.346 361.05 122.593 361.297L123.877 361.543C124.902 361.766 125.383 362.136 125.383 362.877C125.383 363.79 124.544 364.321 123.42 364.321C122.062 364.321 121.346 363.593 121.284 362.469H119.902C120.013 364.235 121.309 365.408 123.445 365.408C125.593 365.408 126.828 364.235 126.828 362.692ZM131.202 365.284C133.968 365.284 135.659 363.371 135.659 360.815C135.659 358.222 134.029 356.42 131.202 356.42H128.4V365.284H131.202ZM129.758 357.593H131.141C133.19 357.593 134.276 358.815 134.276 360.815C134.276 362.852 133.178 364.111 131.141 364.111H129.758V357.593ZM142.204 365.395C143.981 365.395 145.191 364.383 145.191 362.901C145.191 361.939 144.562 361.222 143.463 360.926C144.327 360.519 144.809 359.864 144.809 359.05C144.809 357.741 143.772 356.815 142.167 356.815C140.648 356.815 139.488 357.84 139.451 359.21H140.66C140.697 358.358 141.265 357.815 142.117 357.815C142.957 357.815 143.512 358.346 143.512 359.136C143.512 359.951 142.895 360.494 141.957 360.494H141.154V361.494H142.018C143.167 361.494 143.895 362.05 143.895 362.926C143.895 363.827 143.253 364.395 142.204 364.395C141.191 364.395 140.525 363.815 140.475 362.914H139.253C139.265 364.383 140.475 365.395 142.204 365.395ZM152.442 362.939C152.442 361.926 151.763 361.259 150.887 360.939C151.578 360.63 152.121 359.976 152.121 359.124C152.121 357.766 150.973 356.815 149.393 356.815C147.788 356.815 146.652 357.766 146.652 359.124C146.652 359.976 147.183 360.63 147.887 360.939C147.01 361.259 146.319 361.926 146.319 362.939C146.319 364.395 147.566 365.395 149.393 365.395C151.208 365.395 152.442 364.395 152.442 362.939ZM147.936 359.161C147.936 358.334 148.529 357.815 149.393 357.815C150.245 357.815 150.837 358.334 150.837 359.161C150.837 359.976 150.245 360.469 149.393 360.469C148.529 360.469 147.936 359.976 147.936 359.161ZM147.628 362.914C147.628 362.013 148.344 361.469 149.393 361.469C150.43 361.469 151.158 362.013 151.158 362.914C151.158 363.84 150.43 364.395 149.393 364.395C148.344 364.395 147.628 363.84 147.628 362.914ZM156.405 356.827C154.627 356.827 153.343 358.062 153.343 359.642C153.343 361.247 154.528 362.346 156.146 362.346C156.38 362.346 156.627 362.309 156.874 362.222L154.417 365.284H155.849L158.355 362.173C159.096 361.259 159.454 360.605 159.454 359.58C159.454 358.062 158.183 356.827 156.405 356.827ZM156.392 357.877C157.368 357.877 158.158 358.568 158.158 359.618C158.158 360.778 157.368 361.371 156.392 361.371C155.405 361.371 154.639 360.704 154.639 359.605C154.639 358.568 155.405 357.877 156.392 357.877ZM162.165 365.284V361.173L165.881 365.284H167.585L163.536 360.766L167.486 356.42H165.918L162.165 360.519V356.42H160.807V365.284H162.165Z" fill="#ADADAD"/>
<path d="M84.2519 195.148H71.5852L77.6297 188.304C82.563 183.06 83.8519 180.66 83.8519 177.237C83.8519 172.304 79.763 168.66 74.163 168.66C68.2074 168.66 64.0297 172.66 64.0297 178.215H68.4297C68.4297 174.882 70.6519 172.704 73.9852 172.704C77.0519 172.704 79.1408 174.793 79.1408 177.771C79.1408 180.482 77.763 182.571 74.2074 186.437L64.8297 196.571V199.148H84.2519V195.148ZM97.372 199.148V169.104H87.0165V173.015H92.8387V199.148H97.372ZM122.62 195.148H109.953L115.998 188.304C120.931 183.06 122.22 180.66 122.22 177.237C122.22 172.304 118.131 168.66 112.531 168.66C106.575 168.66 102.398 172.66 102.398 178.215H106.798C106.798 174.882 109.02 172.704 112.353 172.704C115.42 172.704 117.509 174.793 117.509 177.771C117.509 180.482 116.131 182.571 112.575 186.437L103.198 196.571V199.148H122.62V195.148ZM134.219 195.948C134.219 193.86 132.841 192.437 130.796 192.437C128.796 192.437 127.374 193.86 127.374 195.948C127.374 197.948 128.796 199.371 130.796 199.371C132.841 199.371 134.219 197.948 134.219 195.948ZM137.873 184.171C137.873 194.126 141.74 199.593 148.94 199.593C156.14 199.593 160.051 194.126 160.051 184.171C160.051 174.215 156.051 168.66 148.94 168.66C141.829 168.66 137.873 174.215 137.873 184.171ZM142.496 184.171C142.496 176.66 144.807 172.704 148.94 172.704C153.162 172.704 155.429 176.66 155.429 184.171C155.429 191.637 153.162 195.548 148.94 195.548C144.718 195.548 142.496 191.593 142.496 184.171ZM164.393 184.171C164.393 194.126 168.259 199.593 175.459 199.593C182.659 199.593 186.57 194.126 186.57 184.171C186.57 174.215 182.57 168.66 175.459 168.66C168.348 168.66 164.393 174.215 164.393 184.171ZM169.015 184.171C169.015 176.66 171.326 172.704 175.459 172.704C179.681 172.704 181.948 176.66 181.948 184.171C181.948 191.637 179.681 195.548 175.459 195.548C171.237 195.548 169.015 191.593 169.015 184.171ZM190.912 184.171C190.912 194.126 194.778 199.593 201.978 199.593C209.178 199.593 213.089 194.126 213.089 184.171C213.089 174.215 209.089 168.66 201.978 168.66C194.867 168.66 190.912 174.215 190.912 184.171ZM195.534 184.171C195.534 176.66 197.845 172.704 201.978 172.704C206.2 172.704 208.467 176.66 208.467 184.171C208.467 191.637 206.2 195.548 201.978 195.548C197.756 195.548 195.534 191.593 195.534 184.171Z" fill="white"/>
</svg>
