<svg width="12" height="12" viewBox="0 0 12 12" fill="none" xmlns="http://www.w3.org/2000/svg">
<path fill-rule="evenodd" clip-rule="evenodd" d="M6.1115 0.122466C6.02855 0.0438315 5.91861 0 5.80431 0C5.69002 0 5.58008 0.0438315 5.49713 0.122466C4.23344 1.32255 2.5504 1.98064 0.807845 1.95603C0.712913 1.9548 0.620058 1.98386 0.542766 2.03899C0.465474 2.09412 0.407768 2.17246 0.378028 2.26262C0.12679 3.02829 -0.000818714 3.82911 3.95236e-06 4.63494C3.95236e-06 8.1723 2.41936 11.1435 5.69299 11.9859C5.76601 12.0047 5.84262 12.0047 5.91564 11.9859C9.18927 11.1435 11.6086 8.1723 11.6086 4.63494C11.6086 3.80746 11.4759 3.00974 11.2306 2.26262C11.201 2.17235 11.1433 2.09388 11.066 2.03864C10.9887 1.98339 10.8958 1.95424 10.8008 1.95544L10.7157 1.95603C8.93209 1.95603 7.31224 1.25952 6.1115 0.122466V0.122466ZM7.9534 4.8945C7.98911 4.84691 8.01496 4.79265 8.02941 4.73493C8.04386 4.6772 8.04663 4.61717 8.03755 4.55836C8.02846 4.49955 8.00772 4.44315 7.97653 4.39247C7.94534 4.34179 7.90433 4.29786 7.85592 4.26326C7.80751 4.22866 7.75266 4.20408 7.69462 4.19098C7.63657 4.17787 7.57649 4.1765 7.51791 4.18695C7.45933 4.19739 7.40342 4.21945 7.35349 4.25181C7.30355 4.28417 7.26058 4.32618 7.22711 4.37539L5.30068 7.07216L4.33389 6.10537C4.24925 6.0265 4.1373 5.98357 4.02163 5.98561C3.90596 5.98765 3.7956 6.03451 3.7138 6.11631C3.63199 6.19811 3.58513 6.30848 3.58309 6.42415C3.58105 6.53982 3.62399 6.65176 3.70286 6.7364L5.04231 8.07586C5.08814 8.12166 5.1434 8.15693 5.20423 8.17923C5.26506 8.20153 5.33002 8.21033 5.3946 8.205C5.45917 8.19968 5.52181 8.18036 5.57817 8.1484C5.63453 8.11643 5.68326 8.07259 5.72097 8.0199L7.9534 4.8945V4.8945Z" fill="#198754"/>
</svg>
