<svg width="13" height="13" viewBox="0 0 13 13" fill="none" xmlns="http://www.w3.org/2000/svg">
<path d="M4.78123 1.57444C4.83623 1.24322 5.12345 1 5.45956 1H7.04417C7.38029 1 7.66751 1.24322 7.72251 1.57444L7.85267 2.35728C7.89117 2.58583 8.04395 2.7765 8.24684 2.88894C8.29206 2.91339 8.33667 2.93967 8.38129 2.96656C8.57929 3.08633 8.82129 3.12361 9.03823 3.04233L9.78195 2.76367C9.93436 2.70635 10.1022 2.70499 10.2555 2.75982C10.4088 2.81466 10.5377 2.92214 10.6192 3.06311L11.4112 4.43628C11.4925 4.57726 11.5211 4.74252 11.4921 4.90266C11.463 5.06279 11.378 5.20741 11.2523 5.31078L10.6393 5.81617C10.4603 5.96283 10.3717 6.19078 10.376 6.42239C10.3769 6.47433 10.3769 6.52628 10.376 6.57822C10.3717 6.80922 10.4603 7.03656 10.6387 7.18322L11.2529 7.68922C11.512 7.90311 11.5792 8.27222 11.4118 8.56311L10.6186 9.93628C10.5372 10.0772 10.4085 10.1847 10.2553 10.2397C10.1021 10.2946 9.93435 10.2934 9.78195 10.2363L9.03823 9.95767C8.82129 9.87639 8.5799 9.91367 8.38067 10.0334C8.33637 10.0604 8.29155 10.0865 8.24623 10.1117C8.04395 10.2235 7.89117 10.4142 7.85267 10.6427L7.72251 11.4249C7.66751 11.7568 7.38029 12 7.04417 12H5.45895C5.12284 12 4.83562 11.7568 4.78062 11.4256L4.65045 10.6427C4.61256 10.4142 4.45979 10.2235 4.2569 10.1111C4.21158 10.0861 4.16676 10.0602 4.12245 10.0334C3.92384 9.91367 3.68245 9.87639 3.4649 9.95767L2.72117 10.2363C2.56884 10.2935 2.40118 10.2948 2.24799 10.2399C2.09481 10.1851 1.96603 10.0777 1.88456 9.93689L1.09195 8.56372C1.01064 8.42274 0.981981 8.25748 1.01108 8.09734C1.04017 7.93721 1.12513 7.79259 1.25084 7.68922L1.8644 7.18383C2.04284 7.03717 2.13145 6.80922 2.12717 6.57761C2.12622 6.52567 2.12622 6.47372 2.12717 6.42178C2.13145 6.19078 2.04284 5.96344 1.8644 5.81678L1.25084 5.31078C1.12528 5.20744 1.04042 5.06293 1.01133 4.90294C0.98224 4.74294 1.01081 4.57781 1.09195 4.43689L1.88456 3.06372C1.96596 2.92264 2.09479 2.81503 2.24812 2.76008C2.40145 2.70513 2.56931 2.7064 2.72179 2.76367L3.4649 3.04233C3.68245 3.12361 3.92384 3.08633 4.12245 2.96656C4.16645 2.93967 4.21167 2.91339 4.2569 2.88833C4.45979 2.7765 4.61256 2.58583 4.65045 2.35728L4.78123 1.57444V1.57444Z" stroke="#ADADAD" stroke-linecap="round" stroke-linejoin="round"/>
<path d="M8.08464 6.49935C8.08464 6.98558 7.89148 7.45189 7.54766 7.79571C7.20385 8.13953 6.73753 8.33268 6.2513 8.33268C5.76507 8.33268 5.29876 8.13953 4.95494 7.79571C4.61112 7.45189 4.41797 6.98558 4.41797 6.49935C4.41797 6.01312 4.61112 5.5468 4.95494 5.20299C5.29876 4.85917 5.76507 4.66602 6.2513 4.66602C6.73753 4.66602 7.20385 4.85917 7.54766 5.20299C7.89148 5.5468 8.08464 6.01312 8.08464 6.49935V6.49935Z" stroke="#ADADAD" stroke-linecap="round" stroke-linejoin="round"/>
</svg>
