<svg width="236" height="162" viewBox="0 0 236 162" fill="none" xmlns="http://www.w3.org/2000/svg">
<g clip-path="url(#clip0_1301_1459)">
<path opacity="0.1" d="M137.117 23.9536C121.988 23.4712 107.578 18.9775 93.819 14.0629C80.0605 9.14819 66.4286 3.69615 51.661 1.09812C42.1622 -0.57748 31.3018 -0.805971 23.6478 3.86963C16.2852 8.37598 13.9041 16.1574 12.625 23.3781C11.6624 28.809 11.0967 34.5255 13.7332 39.6115C15.5654 43.1404 18.8161 46.1087 21.0642 49.4895C28.8891 61.2568 23.3587 75.766 14.8793 87.254C10.9025 92.6362 6.29028 97.7857 3.22109 103.521C0.151907 109.257 -1.26448 115.832 1.41842 121.684C4.08021 127.485 10.4212 131.839 17.2921 134.907C31.2448 141.131 47.6884 142.913 63.7309 143.922C99.2123 146.162 134.886 145.187 170.481 144.22C183.651 143.86 196.867 143.499 209.834 141.624C217.028 140.583 224.456 138.933 229.676 134.947C236.308 129.889 237.95 121.32 233.507 114.978C226.056 104.336 205.45 101.691 200.24 90.273C197.367 83.9853 200.322 76.9803 204.487 71.1538C213.424 58.6482 228.407 47.6701 229.197 33.3809C229.739 23.5622 222.537 13.7286 211.4 9.08261C199.727 4.2166 183.537 4.82591 174.927 12.8908C166.059 21.1863 150.477 24.3809 137.117 23.9536Z" fill="#4285F4"/>
<path opacity="0.1" d="M169.481 162C184.519 162 196.711 160.011 196.711 157.557C196.711 155.103 184.519 153.114 169.481 153.114C154.442 153.114 142.25 155.103 142.25 157.557C142.25 160.011 154.442 162 169.481 162Z" fill="#4285F4"/>
<path d="M62.3525 82.4175L62.285 86.1495L61.7319 116.408L57.0015 127.513L40.6973 127.699V84.1354L57.7129 82.7856L62.3525 82.4175Z" fill="#5F5D7E"/>
<path opacity="0.1" d="M62.3525 82.4175L62.285 86.1495L61.7319 116.408L57.0015 127.513L40.6973 127.699V84.1354L57.7129 82.7856L62.3525 82.4175Z" fill="black"/>
<path d="M62.3525 82.4175L62.2849 86.1495L61.7319 116.408L57.0015 127.513L58.2469 86.2214L58.2426 86.1939L57.7128 82.7856L62.3525 82.4175Z" fill="#5F5D7E"/>
<path opacity="0.1" d="M57.7129 82.7856L62.3525 82.4175L62.285 86.1495L58.2427 86.1939L40.6973 86.3907V84.1354L57.7129 82.7856Z" fill="black"/>
<path d="M208.907 84.1353V127.447H205.112L189.926 116.346V82.9146L203.493 81.6367L204.324 82.0197L205.112 82.3835L208.907 84.1353Z" fill="#5F5D7E"/>
<path opacity="0.1" d="M208.907 82.0198H205.112V127.447H208.907V82.0198Z" fill="black"/>
<path opacity="0.1" d="M208.907 82.0197V84.5098L205.112 84.5542L189.926 84.7213V82.9146L203.493 81.6367L204.324 82.0197L205.112 82.3835V82.0197H208.907Z" fill="black"/>
<path d="M208.907 80.6065V84.1355L22.4026 86.2215V81.73L39.9501 78.1735L192.664 77.0522L208.907 80.6065Z" fill="#5F5D7E"/>
<path opacity="0.1" d="M208.907 80.6064V84.1354L22.4026 86.2214V81.7299L208.907 80.6064Z" fill="black"/>
<path opacity="0.1" d="M54.1837 79.8512C58.827 79.8512 62.5912 79.6097 62.5912 79.3117C62.5912 79.0138 58.827 78.7722 54.1837 78.7722C49.5403 78.7722 45.7761 79.0138 45.7761 79.3117C45.7761 79.6097 49.5403 79.8512 54.1837 79.8512Z" fill="black"/>
<path d="M61.2402 58.4536C61.0622 58.7001 60.9201 58.9708 60.8181 59.2575C60.7927 59.3273 60.7674 59.4077 60.7421 59.4839C60.6943 59.461 60.644 59.444 60.5922 59.4331C60.3752 59.3774 60.1507 59.3574 59.9273 59.3739C59.9273 59.2878 59.9315 59.1969 59.9399 59.1009C59.9674 58.115 59.8513 56.7399 58.912 57.3217C58.0127 57.8823 58.6544 58.8153 59.2349 59.4183C59.2856 59.4712 59.3362 59.5198 59.3848 59.5664C58.855 59.9472 58.7515 60.8252 58.665 61.7434C58.5784 62.6616 57.7995 63.6686 57.2845 64.2399L57.1367 64.3985C56.9283 64.231 56.6867 64.1098 56.4279 64.043C56.1691 63.9763 55.8992 63.9655 55.6359 64.0114C55.612 63.931 55.5888 63.8464 55.5663 63.7575C55.1441 62.2448 54.2807 59.6235 53.1725 59.0481L53.3182 58.864C53.7889 58.2462 54.3187 57.3301 53.5293 57.0953C52.7398 56.8605 52.6849 57.8908 52.7208 58.6609C52.7208 58.7582 52.7335 58.8492 52.7419 58.9359C52.5866 58.9441 52.4344 58.9838 52.2948 59.0525C52.1551 59.1212 52.0308 59.2176 51.9292 59.3358C51.8913 59.2892 51.8533 59.2427 51.8089 59.1919C51.1757 58.4409 50.0105 57.2519 49.658 58.1531C49.3308 58.9994 50.3545 60.0784 51.0765 60.7088L51.1208 60.749C50.6374 62.7166 52.7483 64.3203 53.886 65.0206L54.0317 65.1115C52.4633 66.9627 51.4986 70.4345 51.4986 70.4345L55.8892 71.2215C55.8892 71.2215 58.8001 68.7039 58.4222 66.3386H58.4518C61.3605 65.7547 62.0234 62.6447 61.5695 60.7998L61.6223 60.7787C62.1514 60.5598 62.6152 60.2078 62.969 59.7568C63.7838 58.6207 62.0761 57.3407 61.2402 58.4536Z" fill="#4285F4"/>
<path opacity="0.1" d="M61.2402 58.4536C61.0622 58.7001 60.9201 58.9708 60.8181 59.2575C60.7927 59.3273 60.7674 59.4077 60.7421 59.4839C60.6943 59.461 60.644 59.444 60.5922 59.4331C60.3752 59.3774 60.1507 59.3574 59.9273 59.3739C59.9273 59.2878 59.9315 59.1969 59.9399 59.1009C59.9674 58.115 59.8513 56.7399 58.912 57.3217C58.0127 57.8823 58.6544 58.8153 59.2349 59.4183C59.2856 59.4712 59.3362 59.5198 59.3848 59.5664C58.855 59.9472 58.7515 60.8252 58.665 61.7434C58.5784 62.6616 57.7995 63.6686 57.2845 64.2399L57.1367 64.3985C56.9283 64.231 56.6867 64.1098 56.4279 64.043C56.1691 63.9763 55.8992 63.9655 55.6359 64.0114C55.612 63.931 55.5888 63.8464 55.5663 63.7575C55.1441 62.2448 54.2807 59.6235 53.1725 59.0481L53.3182 58.864C53.7889 58.2462 54.3187 57.3301 53.5293 57.0953C52.7398 56.8605 52.6849 57.8908 52.7208 58.6609C52.7208 58.7582 52.7335 58.8492 52.7419 58.9359C52.5866 58.9441 52.4344 58.9838 52.2948 59.0525C52.1551 59.1212 52.0308 59.2176 51.9292 59.3358C51.8913 59.2892 51.8533 59.2427 51.8089 59.1919C51.1757 58.4409 50.0105 57.2519 49.658 58.1531C49.3308 58.9994 50.3545 60.0784 51.0765 60.7088L51.1208 60.749C50.6374 62.7166 52.7483 64.3203 53.886 65.0206L54.0317 65.1115C52.4633 66.9627 51.4986 70.4345 51.4986 70.4345L55.8892 71.2215C55.8892 71.2215 58.8001 68.7039 58.4222 66.3386H58.4518C61.3605 65.7547 62.0234 62.6447 61.5695 60.7998L61.6223 60.7787C62.1514 60.5598 62.6152 60.2078 62.969 59.7568C63.7838 58.6207 62.0761 57.3407 61.2402 58.4536Z" fill="black"/>
<path d="M52.499 59.7228L51.986 61.2291C51.986 61.2291 51.7011 61.0282 51.3401 60.7087C50.6203 60.074 49.5944 58.9908 49.9237 58.153C50.2762 57.2517 51.4393 58.4407 52.0747 59.1918C52.3301 59.4922 52.499 59.7228 52.499 59.7228Z" fill="#4285F4"/>
<path d="M53.582 58.8639C53.4256 59.0693 53.2586 59.2663 53.0817 59.4542C53.038 59.1915 53.0077 58.9267 52.9909 58.6608C52.9487 57.8907 53.0289 56.8668 53.7994 57.0953C54.5699 57.3237 54.0527 58.2462 53.582 58.8639Z" fill="#4285F4"/>
<path d="M60.2036 59.1008C60.1888 59.5959 60.1403 59.9915 60.1403 59.9915C59.916 59.8156 59.7044 59.624 59.507 59.4182C58.9265 58.8152 58.2827 57.8822 59.1841 57.3216C60.115 56.7398 60.2311 58.1149 60.2036 59.1008Z" fill="#4285F4"/>
<path d="M63.237 59.7503C62.8832 60.2013 62.4194 60.5532 61.8903 60.7721C61.7432 60.8358 61.5924 60.8902 61.4386 60.935L60.8328 60.0888C60.8977 59.8077 60.9816 59.5313 61.084 59.2616C61.186 58.9749 61.3281 58.7042 61.5061 58.4576C62.3441 57.3405 64.0518 58.6205 63.237 59.7503Z" fill="#4285F4"/>
<path opacity="0.1" d="M52.0748 59.1919C52.3302 59.4923 52.497 59.7229 52.497 59.7229L51.9841 61.2293C51.9841 61.2293 51.6991 61.0283 51.3381 60.7088C51.418 60.2267 51.6169 59.7721 51.9165 59.3865C51.9693 59.3167 52.022 59.2511 52.0748 59.1919Z" fill="black"/>
<path opacity="0.1" d="M53.582 58.864C53.4256 59.0694 53.2586 59.2664 53.0817 59.4543C53.038 59.1915 53.0077 58.9267 52.991 58.6609C53.2042 58.6656 53.4107 58.7366 53.582 58.864Z" fill="black"/>
<path d="M56.1065 64.8427L54.8294 65.4055C54.5964 65.2889 54.3695 65.1604 54.1497 65.0204C52.8072 64.1932 50.1095 62.1114 51.9186 59.6551C53.7276 57.1988 55.2368 61.6036 55.83 63.7574C56.0094 64.4005 56.1065 64.8427 56.1065 64.8427Z" fill="#4285F4"/>
<path opacity="0.1" d="M59.5007 59.4204C59.6857 59.2281 59.9374 59.1145 60.2037 59.103C60.1889 59.5981 60.1403 59.9937 60.1403 59.9937C59.9138 59.818 59.7001 59.6265 59.5007 59.4204Z" fill="black"/>
<path opacity="0.1" d="M61.8903 60.7723C61.7432 60.8359 61.5924 60.8903 61.4386 60.9352L60.8328 60.0889C60.8977 59.8078 60.9816 59.5314 61.084 59.2617C61.4745 59.486 61.7615 60.0551 61.8903 60.7723Z" fill="black"/>
<path d="M58.7199 66.3322C58.6495 66.3463 58.5791 66.359 58.5088 66.3702C54.2301 67.024 57.0987 64.7073 57.0987 64.7073C57.0987 64.7073 57.2908 64.5296 57.5526 64.2398C58.0676 63.6686 58.8465 62.6679 58.9352 61.7433C59.0681 60.3533 59.2244 59.0501 60.8624 59.433C62.5004 59.8159 62.7727 65.5198 58.7199 66.3322Z" fill="#4285F4"/>
<path d="M58.6417 77.0142H50.4622V79.17H58.6417V77.0142Z" fill="#474157"/>
<path d="M59.8491 70.0093H49.1619V77.5325H59.8491V70.0093Z" fill="#474157"/>
<path opacity="0.1" d="M58.5614 77.0142H50.3818V79.17H58.5614V77.0142Z" fill="black"/>
<path opacity="0.1" d="M59.8154 70.0093H49.1282V77.5325H59.8154V70.0093Z" fill="black"/>
<path d="M59.1801 77.0142H51.0005V79.17H59.1801V77.0142Z" fill="#474157"/>
<path opacity="0.1" d="M55.8301 63.7573C56.0096 64.392 56.1067 64.8427 56.1067 64.8427L54.8296 65.4054C54.5966 65.2889 54.3697 65.1604 54.1499 65.0204C54.6502 64.3857 55.2138 63.9054 55.8301 63.7573Z" fill="black"/>
<path opacity="0.1" d="M58.7199 66.3321C58.6495 66.3462 58.5791 66.3589 58.5088 66.3702C54.2301 67.024 57.0987 64.7073 57.0987 64.7073C57.0987 64.7073 57.2908 64.5296 57.5526 64.2397C58.3462 64.8808 58.684 65.6022 58.7199 66.3321Z" fill="black"/>
<path d="M51.7603 70.4344C51.7603 70.4344 54.1582 61.8342 57.5187 64.4851C60.8792 67.1361 56.1508 71.2214 56.1508 71.2214L51.7603 70.4344Z" fill="#4285F4"/>
<path opacity="0.1" d="M52.9719 61.2715C53.12 61.2715 53.24 61.1512 53.24 61.0028C53.24 60.8544 53.12 60.7341 52.9719 60.7341C52.8239 60.7341 52.7039 60.8544 52.7039 61.0028C52.7039 61.1512 52.8239 61.2715 52.9719 61.2715Z" fill="black"/>
<path opacity="0.1" d="M52.9487 62.5303C53.0968 62.5303 53.2168 62.41 53.2168 62.2616C53.2168 62.1132 53.0968 61.9929 52.9487 61.9929C52.8007 61.9929 52.6807 62.1132 52.6807 62.2616C52.6807 62.41 52.8007 62.5303 52.9487 62.5303Z" fill="black"/>
<path opacity="0.1" d="M60.7461 61.5191C60.8942 61.5191 61.0142 61.3988 61.0142 61.2504C61.0142 61.102 60.8942 60.9817 60.7461 60.9817C60.598 60.9817 60.478 61.102 60.478 61.2504C60.478 61.3988 60.598 61.5191 60.7461 61.5191Z" fill="black"/>
<path opacity="0.1" d="M54.4727 67.9634C54.6207 67.9634 54.7407 67.8431 54.7407 67.6947C54.7407 67.5463 54.6207 67.426 54.4727 67.426C54.3246 67.426 54.2046 67.5463 54.2046 67.6947C54.2046 67.8431 54.3246 67.9634 54.4727 67.9634Z" fill="black"/>
<path opacity="0.1" d="M60.1848 63.6072C60.3329 63.6072 60.4529 63.4869 60.4529 63.3385C60.4529 63.1901 60.3329 63.0698 60.1848 63.0698C60.0368 63.0698 59.9167 63.1901 59.9167 63.3385C59.9167 63.4869 60.0368 63.6072 60.1848 63.6072Z" fill="black"/>
<path opacity="0.1" d="M57.4067 66.3914C57.5548 66.3914 57.6748 66.2711 57.6748 66.1227C57.6748 65.9743 57.5548 65.854 57.4067 65.854C57.2587 65.854 57.1387 65.9743 57.1387 66.1227C57.1387 66.2711 57.2587 66.3914 57.4067 66.3914Z" fill="black"/>
<path opacity="0.1" d="M53.8901 61.8111C54.0382 61.8111 54.1582 61.6908 54.1582 61.5424C54.1582 61.394 54.0382 61.2737 53.8901 61.2737C53.7421 61.2737 53.6221 61.394 53.6221 61.5424C53.6221 61.6908 53.7421 61.8111 53.8901 61.8111Z" fill="black"/>
<path opacity="0.1" d="M60.0054 62.3272C60.1534 62.3272 60.2735 62.2069 60.2735 62.0585C60.2735 61.9101 60.1534 61.7898 60.0054 61.7898C59.8573 61.7898 59.7373 61.9101 59.7373 62.0585C59.7373 62.2069 59.8573 62.3272 60.0054 62.3272Z" fill="black"/>
<path opacity="0.1" d="M59.0872 64.4153C59.2352 64.4153 59.3553 64.295 59.3553 64.1466C59.3553 63.9982 59.2352 63.8779 59.0872 63.8779C58.9391 63.8779 58.8191 63.9982 58.8191 64.1466C58.8191 64.295 58.9391 64.4153 59.0872 64.4153Z" fill="black"/>
<path opacity="0.1" d="M56.2649 67.7622C56.413 67.7622 56.533 67.6419 56.533 67.4935C56.533 67.3451 56.413 67.2249 56.2649 67.2249C56.1168 67.2249 55.9968 67.3451 55.9968 67.4935C55.9968 67.6419 56.1168 67.7622 56.2649 67.7622Z" fill="black"/>
<path opacity="0.1" d="M55.6821 66.438C55.8302 66.438 55.9502 66.3177 55.9502 66.1693C55.9502 66.0209 55.8302 65.9006 55.6821 65.9006C55.5341 65.9006 55.4141 66.0209 55.4141 66.1693C55.4141 66.3177 55.5341 66.438 55.6821 66.438Z" fill="black"/>
<path opacity="0.1" d="M54.2932 63.4507C54.4413 63.4507 54.5613 63.3304 54.5613 63.182C54.5613 63.0336 54.4413 62.9133 54.2932 62.9133C54.1452 62.9133 54.0251 63.0336 54.0251 63.182C54.0251 63.3304 54.1452 63.4507 54.2932 63.4507Z" fill="black"/>
<path opacity="0.1" d="M59.1801 77.0142H51.0005V77.8012H59.1801V77.0142Z" fill="black"/>
<path d="M60.3875 70.0093H49.7002V77.5325H60.3875V70.0093Z" fill="#474157"/>
<path opacity="0.1" d="M56.6238 68.9746C56.7718 68.9746 56.8919 68.8543 56.8919 68.7059C56.8919 68.5575 56.7718 68.4373 56.6238 68.4373C56.4757 68.4373 56.3557 68.5575 56.3557 68.7059C56.3557 68.8543 56.4757 68.9746 56.6238 68.9746Z" fill="black"/>
<path opacity="0.1" d="M55.0088 69.3111C55.1569 69.3111 55.2769 69.1908 55.2769 69.0424C55.2769 68.894 55.1569 68.7737 55.0088 68.7737C54.8607 68.7737 54.7407 68.894 54.7407 69.0424C54.7407 69.1908 54.8607 69.3111 55.0088 69.3111Z" fill="black"/>
<path d="M80.6367 98.7566C80.6367 98.7566 81.9687 100.502 80.0225 103.138C78.0762 105.774 76.4699 108.004 77.1179 109.642C77.1179 109.642 80.0562 104.746 82.4457 104.678C84.8352 104.611 83.2584 101.699 80.6367 98.7566Z" fill="#4285F4"/>
<path opacity="0.1" d="M80.6368 98.7566C80.7522 98.9251 80.8438 99.1088 80.9091 99.3024C83.2416 102.053 84.4849 104.615 82.241 104.678C80.1534 104.738 77.6478 108.486 77.0483 109.426C77.0673 109.498 77.0905 109.568 77.118 109.637C77.118 109.637 80.0563 104.742 82.4458 104.674C84.8353 104.606 83.2585 101.699 80.6368 98.7566Z" fill="black"/>
<path d="M83.1043 100.98C83.1043 101.596 83.0347 102.093 82.9502 102.093C82.8658 102.093 82.7961 101.596 82.7961 100.98C82.7961 100.365 82.8827 100.657 82.9671 100.657C83.0516 100.657 83.1043 100.367 83.1043 100.98Z" fill="#FFD037"/>
<path d="M83.9529 101.714C83.4146 102.009 82.946 102.186 82.8974 102.112C82.8489 102.038 83.2605 101.738 83.7988 101.444C84.3371 101.15 84.1239 101.363 84.164 101.444C84.2041 101.524 84.4911 101.42 83.9529 101.714Z" fill="#FFD037"/>
<path d="M73.5928 98.7566C73.5928 98.7566 72.2587 100.502 74.2071 103.138C76.1554 105.774 77.7596 108.004 77.1095 109.642C77.1095 109.642 74.1733 104.746 71.7817 104.678C69.3901 104.611 70.9627 101.699 73.5928 98.7566Z" fill="#4285F4"/>
<path opacity="0.1" d="M73.5928 98.7566C73.4764 98.9245 73.3847 99.1083 73.3205 99.3024C70.9859 102.053 69.7447 104.615 71.9864 104.678C74.0762 104.738 76.5818 108.486 77.1813 109.426C77.1602 109.5 77.1369 109.572 77.1095 109.637C77.1095 109.637 74.1733 104.742 71.7817 104.674C69.3901 104.606 70.9627 101.699 73.5928 98.7566Z" fill="black"/>
<path d="M71.1147 100.98C71.1147 101.596 71.1844 102.093 71.2688 102.093C71.3533 102.093 71.4229 101.596 71.4229 100.98C71.4229 100.365 71.3364 100.657 71.252 100.657C71.1675 100.657 71.1147 100.367 71.1147 100.98Z" fill="#FFD037"/>
<path d="M70.2662 101.714C70.8045 102.009 71.2731 102.186 71.3216 102.112C71.3702 102.038 70.9607 101.738 70.4224 101.444C69.8841 101.15 70.0952 101.363 70.0551 101.444C70.015 101.524 69.7279 101.42 70.2662 101.714Z" fill="#FFD037"/>
<path opacity="0.1" d="M77.1118 122.998C84.8037 122.998 91.0392 122.038 91.0392 120.855C91.0392 119.671 84.8037 118.712 77.1118 118.712C69.4198 118.712 63.1843 119.671 63.1843 120.855C63.1843 122.038 69.4198 122.998 77.1118 122.998Z" fill="#4285F4"/>
<path d="M84.278 107.289L84.2105 107.835L84.1176 108.605L84.0796 108.925L83.9867 109.697L83.9445 110.016L83.8516 110.786L82.7856 119.543C82.6907 120.326 81.4178 120.935 79.879 120.935H74.3401C72.8034 120.935 71.5306 120.326 71.4356 119.543L70.3675 110.786L70.2746 110.016L70.2366 109.697L70.1395 108.925L70.1015 108.605L70.0086 107.835L69.9411 107.289C69.8883 106.847 70.5743 106.475 71.4482 106.475H82.773C83.6427 106.475 84.3329 106.847 84.278 107.289Z" fill="#65617D"/>
<path d="M84.2125 107.833L84.1175 108.603H70.1035L70.0085 107.833H84.2125Z" fill="#9D9CB5"/>
<path d="M84.0796 108.925L83.9867 109.695H70.2366L70.1416 108.925H84.0796Z" fill="#9D9CB5"/>
<path d="M83.9467 110.016L83.8538 110.786H70.3696L70.2747 110.016H83.9467Z" fill="#9D9CB5"/>
<path d="M119.363 77.5472V77.983H106.505V77.6297C107.315 77.3294 108.014 76.7875 108.506 76.0771C108.999 75.3667 109.263 74.5218 109.262 73.6565C109.262 72.8457 109.03 72.0519 108.593 71.3697C108.156 70.6874 107.532 70.1454 106.797 69.8081H119.276C118.532 70.1481 117.902 70.6974 117.463 71.3894C117.025 72.0813 116.796 72.8861 116.805 73.7059C116.814 74.5256 117.061 75.3251 117.515 76.007C117.969 76.689 118.611 77.224 119.363 77.5472Z" fill="#C8CAD7"/>
<path opacity="0.1" d="M119.276 69.8081C118.703 70.0717 118.196 70.4607 117.792 70.9465C117.388 71.4324 117.098 72.0027 116.944 72.6156H109.133C108.977 72.0027 108.686 71.4325 108.282 70.9467C107.878 70.461 107.37 70.0719 106.797 69.8081H119.276Z" fill="black"/>
<path d="M91.7822 67.5867V70.0345C91.7822 71.3843 92.7701 72.4802 93.986 72.4802H131.815C133.03 72.4802 134.018 71.3843 134.018 70.0345V67.5867H91.7822Z" fill="#C8CAD7"/>
<path opacity="0.1" d="M119.363 77.5472V77.9831H106.505V77.6297C106.858 77.4982 107.192 77.3203 107.497 77.1008H118.575C118.821 77.2773 119.085 77.4269 119.363 77.5472Z" fill="black"/>
<path d="M122.97 77.2363H102.902C102.547 77.2363 102.258 77.5252 102.258 77.8816C102.258 78.238 102.547 78.5269 102.902 78.5269H122.97C123.326 78.5269 123.614 78.238 123.614 77.8816C123.614 77.5252 123.326 77.2363 122.97 77.2363Z" fill="#C8CAD7"/>
<path d="M134.018 40.7835C134.018 40.4934 133.961 40.2062 133.851 39.9382C133.74 39.6702 133.578 39.4267 133.373 39.2216C133.168 39.0165 132.925 38.8538 132.658 38.7428C132.391 38.6318 132.104 38.5747 131.815 38.5747H93.986C93.4015 38.5747 92.841 38.8074 92.4277 39.2216C92.0144 39.6359 91.7822 40.1977 91.7822 40.7835V68.0627H134.018V40.7835Z" fill="#5F5D7E"/>
<path d="M132.866 41.7672V65.2087C132.866 65.4971 132.751 65.7737 132.548 65.9776C132.344 66.1816 132.068 66.2961 131.781 66.2961H94.0195C93.7318 66.2961 93.4558 66.1816 93.2524 65.9776C93.0489 65.7737 92.9346 65.4971 92.9346 65.2087V41.7672C92.9377 41.576 92.9916 41.389 93.0908 41.2256C93.1861 41.0605 93.3231 40.9233 93.4879 40.8279C93.6528 40.7325 93.8397 40.6821 94.0301 40.6819H131.781C132.068 40.6819 132.344 40.7962 132.547 40.9996C132.751 41.2031 132.865 41.4792 132.866 41.7672Z" fill="#4285F4"/>
<path d="M112.901 40.1362C113.182 40.1362 113.41 39.9079 113.41 39.6263C113.41 39.3447 113.182 39.1165 112.901 39.1165C112.62 39.1165 112.393 39.3447 112.393 39.6263C112.393 39.9079 112.62 40.1362 112.901 40.1362Z" fill="white"/>
<path d="M112.901 71.3928C113.594 71.3928 114.155 70.8302 114.155 70.1361C114.155 69.442 113.594 68.8794 112.901 68.8794C112.209 68.8794 111.647 69.442 111.647 70.1361C111.647 70.8302 112.209 71.3928 112.901 71.3928Z" fill="white"/>
<path d="M132.866 41.7674H92.9346C92.9346 41.479 93.0489 41.2024 93.2524 40.9984C93.4558 40.7945 93.7318 40.6799 94.0195 40.6799H131.781C132.068 40.6799 132.344 40.7945 132.548 40.9984C132.751 41.2024 132.866 41.479 132.866 41.7674Z" fill="white"/>
<path d="M94.0217 41.4942C94.1709 41.4942 94.2918 41.373 94.2918 41.2234C94.2918 41.0739 94.1709 40.9526 94.0217 40.9526C93.8724 40.9526 93.7515 41.0739 93.7515 41.2234C93.7515 41.373 93.8724 41.4942 94.0217 41.4942Z" fill="#EDEDF4"/>
<path d="M94.8344 41.4942C94.9836 41.4942 95.1046 41.373 95.1046 41.2234C95.1046 41.0739 94.9836 40.9526 94.8344 40.9526C94.6852 40.9526 94.5642 41.0739 94.5642 41.2234C94.5642 41.373 94.6852 41.4942 94.8344 41.4942Z" fill="#EDEDF4"/>
<path d="M95.6471 41.4942C95.7964 41.4942 95.9173 41.373 95.9173 41.2234C95.9173 41.0739 95.7964 40.9526 95.6471 40.9526C95.4979 40.9526 95.377 41.0739 95.377 41.2234C95.377 41.373 95.4979 41.4942 95.6471 41.4942Z" fill="#EDEDF4"/>
<path d="M138.685 89.251C138.685 89.251 141.218 90.2834 144.328 91.5211C144.434 91.8775 144.516 92.2408 144.572 92.6085C144.627 93.3279 146.05 94.3413 146.05 94.3413C146.05 94.3413 148.689 94.8194 150.675 95.3801C152.218 95.8032 152.431 94.9569 152.233 94.6269L152.695 94.8046C152.798 99.0867 152.917 102.209 152.917 102.209C152.917 102.209 153.592 102.209 154.658 102.26C154.671 102.396 154.683 102.535 154.698 102.683C155.106 106.915 155.855 113.896 156.435 114.476C157.28 115.295 156.906 121.329 156.581 122.395C156.256 123.461 156.581 131.135 156.581 131.135C156.581 131.135 157.888 135.823 157.778 140.939C157.668 146.054 159.192 148.72 159.192 148.72L159.739 148.76C159.739 148.902 159.722 149.042 159.716 149.183C159.69 149.647 159.671 150.11 159.665 150.531C159.631 151.174 159.411 151.793 159.032 152.312C158.157 153.566 157.553 154.989 157.261 156.491C157.197 156.826 157.152 157.166 157.126 157.506C157.126 157.591 157.115 157.637 157.115 157.637C157.115 157.637 157.622 159.131 162.375 159.628C167.129 160.125 166.441 156.679 166.441 156.679C166.441 156.679 166.464 156.582 166.494 156.404C166.702 155.239 166.708 154.047 166.513 152.879C166.346 151.97 166.489 150.396 166.696 148.953C166.717 148.802 166.741 148.654 166.762 148.508C167.159 148.425 167.533 148.251 167.853 148.001C169.341 146.64 167.853 135.825 167.853 135.825C167.853 135.825 165.168 126.98 165.822 125.7C166.477 124.42 167.237 121.331 167.237 121.331V110.566C168.292 108.859 168.767 106.523 168.963 104.397C168.976 104.255 168.989 104.116 168.999 103.974C169.879 103.991 170.724 103.959 171.49 103.906L171.701 104.329C172.947 106.747 174.213 109.142 174.523 109.496C175.176 110.243 174.631 113.653 174.523 115.358C174.416 117.063 175.72 120.474 175.72 120.474C174.089 121.432 173.761 132.73 173.761 132.73C173.761 132.73 174.958 135.501 172.455 138.592C169.951 141.683 170.931 147.546 171.258 147.332C171.344 147.275 171.874 147.362 172.628 147.487C172.491 147.993 172.246 148.464 171.91 148.866C171.102 149.873 170.825 151.451 170.745 152.712C170.698 153.369 170.698 154.029 170.745 154.686L172.558 155.956C172.558 155.956 173.683 155.956 173.683 156.952C173.683 157.948 176.44 158.941 176.44 158.941C176.44 158.941 180.539 160.077 183.697 158.941C184.721 158.573 185.033 157.94 184.913 157.172C184.664 155.566 182.521 153.364 180.976 151.764C179.933 150.679 179.459 149.24 179.247 147.994C179.224 147.861 179.205 147.73 179.188 147.601C179.316 147.529 179.429 147.435 179.524 147.324C180.831 145.724 182.245 141.355 182.245 141.355C182.245 141.355 181.599 136.891 183.013 132.834C184.069 129.831 185.35 122.795 185.945 119.348C186.163 118.098 186.203 116.823 186.063 115.561C185.789 113.046 185.367 108.385 185.517 104.695C185.567 103.491 185.531 101.577 185.449 99.3321V99.3004C186.224 97.8342 187.904 95.4414 190.707 95.2447C194.771 94.959 192.666 92.7228 192.666 92.7228C192.666 92.7228 190.283 75.9393 188.713 72.9604C188.689 72.9085 188.661 72.8583 188.63 72.8102C188.398 72.44 188.145 71.6995 187.877 70.7115C186.329 64.9887 184.349 50.8899 184.349 50.8899L184.107 47.4604C186.53 48.6516 191.026 50.8243 192.839 51.459C195.372 52.3476 198.897 51.7785 199.769 48.8652C200.641 45.952 197.012 40.0557 197.012 40.0557C196.478 37.9654 192.791 33.6135 190.872 31.4534C190.686 31.172 190.503 30.8927 190.323 30.6262C189.829 29.8878 189.384 29.2362 189.101 28.8533L189.073 28.9061C189.004 28.8088 188.938 28.7179 188.881 28.6417L188.835 28.7348C188.149 27.4654 187.378 26.16 186.781 25.4597C185.392 23.8349 179.334 22.0874 178.735 22.5676C178.298 22.9167 180.111 24.44 181.379 25.3751L180.168 24.5542L177.46 22.2059L176.267 21.3977C176.217 21.364 176.165 21.3343 176.111 21.3088C176.421 20.0868 176.459 18.8112 176.221 17.573C175.983 16.3347 175.475 15.1643 174.734 14.1452C174.65 14.0289 174.559 13.9125 174.468 13.8004C175.716 12.7595 176.111 11.0394 176.111 9.52674V9.46961C176.018 8.90267 175.767 8.37367 175.387 7.94423C175.406 7.98231 175.425 8.02462 175.442 8.06482C175.223 7.78487 174.947 7.55572 174.632 7.39318C174.317 7.23064 173.97 7.13858 173.616 7.12335C172.56 7.10643 171.676 7.80036 170.749 8.27638C169.796 8.75496 168.751 9.02162 167.685 9.05813C166.619 9.09465 165.559 8.90016 164.575 8.48795C164.003 8.24253 163.427 7.91672 162.806 7.9675C162.185 8.01827 161.694 8.41813 161.271 8.83492C160.256 9.81565 159.458 10.9992 158.928 12.3088C158.772 12.6918 158.633 13.1001 158.331 13.3878C158.101 13.5758 157.852 13.7389 157.588 13.8744C157.133 14.165 156.741 14.5451 156.437 14.9916C156.133 15.4381 155.922 15.9419 155.817 16.4724C155.62 17.5286 155.731 18.6194 156.136 19.6142C156.381 20.3028 156.781 20.9255 157.305 21.4336C157.7 21.7997 158.173 22.0683 158.591 22.4132C158.78 22.5681 158.958 22.7379 159.12 22.921C157.222 23.3421 155.486 24.3063 154.124 25.6967C153.1 26.688 152.245 27.8399 151.591 29.1071C149.824 32.4351 148.752 34.5063 148.114 35.8201C147.796 35.9174 147.599 35.964 147.599 35.964C147.599 35.964 145.206 38.0944 145.242 44.2044L143.39 56.4245V62.6763C143.39 62.6763 141.007 69.4612 141.398 75.0761C141.398 75.1523 141.398 75.2263 141.412 75.3004L141.218 76.2545C140.919 76.6628 140.77 77.162 140.796 77.6678C140.784 77.8408 140.797 78.0146 140.834 78.184L139.863 82.9908L140.047 83.1854L139.546 84.5966C137.661 87.6156 138.685 89.251 138.685 89.251ZM152.684 54.9774C152.805 55.0599 152.872 55.1022 152.872 55.1022C152.872 55.1022 153.928 64.574 153.294 70.2059L151.072 70.0535L150.016 69.7277L150.394 66.7171C150.394 66.7171 151.747 58.7856 152.676 54.9774H152.684ZM161.419 27.4844L161.63 27.1586C161.586 27.275 161.542 27.3892 161.495 27.495L161.419 27.4844ZM151.386 70.1593L152.537 70.2778L153.265 70.4301C153.252 70.5317 153.24 70.6311 153.227 70.7284L151.386 70.1593ZM176.111 29.2087C176.11 29.1033 176.103 28.998 176.09 28.8935L176.993 29.4308L177.048 29.4647C176.736 29.3737 176.415 29.2933 176.111 29.2193V29.2087ZM183.123 33.3977C182.999 33.2027 182.865 33.0141 182.722 32.8328C183.355 32.9851 183.748 33.074 183.748 33.074C184.253 32.986 184.773 33.0387 185.251 33.2263C185.405 33.5416 185.579 33.8468 185.772 34.1403L187.44 37.3772C187.44 37.3772 187.077 37.4132 186.35 37.0578C185.624 36.7023 183.123 33.3977 183.123 33.3977ZM151.441 94.3286L151.963 94.5401C151.846 94.5761 151.661 94.4915 151.441 94.3286Z" fill="url(#paint0_linear_1301_1459)"/>
<path d="M169.504 24.7849C170.175 25.1805 170.196 26.8709 170.093 28.2271C170.019 29.2193 169.882 30.0317 169.882 30.0317L174.249 40.6735C174.249 40.6735 175.868 33.091 175.893 29.7059C175.895 29.4388 175.855 29.1732 175.773 28.9189C175.011 26.4796 170.73 25.1255 169.504 24.7849Z" fill="#67647E"/>
<path d="M169.189 24.7002C169.189 24.7002 169.307 24.7277 169.512 24.7849C169.414 24.7282 169.302 24.699 169.189 24.7002Z" fill="#67647E"/>
<path d="M170.703 154.248L172.461 155.518C172.461 155.518 173.552 155.518 173.552 156.506C173.552 157.494 176.225 158.48 176.225 158.48C176.225 158.48 180.202 159.607 183.262 158.48C184.254 158.114 184.558 157.487 184.442 156.724C184.2 155.13 182.12 152.953 180.624 151.356C179.613 150.279 179.146 148.851 178.948 147.616C178.801 146.732 178.762 145.833 178.829 144.939L172.391 144.48C172.76 145.454 172.76 146.53 172.391 147.504C172.251 147.852 172.061 148.178 171.828 148.472C171.043 149.471 170.772 151.039 170.696 152.281C170.652 152.936 170.654 153.593 170.703 154.248Z" fill="#67647E"/>
<path d="M157.472 157.174C157.472 157.174 157.964 158.655 162.574 159.15C167.184 159.645 166.515 156.222 166.515 156.222C166.515 156.222 166.538 156.125 166.568 155.949C166.768 154.792 166.774 153.609 166.584 152.45C166.424 151.549 166.563 149.985 166.764 148.553C167 146.848 167.323 145.326 167.323 145.326L160.18 145.855C160.18 145.855 160.056 147.313 159.984 148.786C159.961 149.245 159.942 149.704 159.935 150.123C159.902 150.758 159.688 151.371 159.319 151.889C158.473 153.14 157.893 154.551 157.613 156.036C157.552 156.369 157.508 156.705 157.482 157.043C157.472 157.128 157.472 157.174 157.472 157.174Z" fill="#67647E"/>
<path d="M170.703 154.248L172.461 155.518C172.461 155.518 173.552 155.518 173.552 156.506C173.552 157.494 176.225 158.479 176.225 158.479C176.225 158.479 180.202 159.607 183.262 158.479C184.254 158.113 184.558 157.487 184.442 156.723C184.347 156.723 184.257 156.736 184.181 156.738C182.927 156.778 181.707 157.117 180.459 157.229C179.748 157.282 179.035 157.293 178.323 157.263C177.97 157.261 177.617 157.233 177.268 157.18C176.423 157.03 175.64 156.592 174.886 156.163C174.702 156.076 174.54 155.949 174.412 155.79C174.31 155.615 174.239 155.423 174.2 155.223C173.934 154.267 173.191 153.501 172.339 152.998C171.82 152.702 171.27 152.464 170.699 152.289C170.654 152.941 170.656 153.596 170.703 154.248Z" fill="#67647E"/>
<path d="M157.472 157.174C157.472 157.174 157.964 158.655 162.574 159.15C167.184 159.645 166.515 156.222 166.515 156.222C166.515 156.222 166.538 156.125 166.568 155.949C166.357 156.059 166.177 156.161 166.095 156.207C165.673 156.455 165.295 156.795 164.856 157.026C163.8 157.582 162.534 157.417 161.343 157.238C160.784 157.153 160.224 157.068 159.667 156.965C159.242 156.906 158.829 156.784 158.441 156.601C158.152 156.432 157.876 156.244 157.613 156.038C157.552 156.371 157.508 156.707 157.482 157.045C157.472 157.128 157.472 157.174 157.472 157.174Z" fill="#67647E"/>
<path opacity="0.1" d="M170.703 154.248L172.461 155.518C172.461 155.518 173.552 155.518 173.552 156.506C173.552 157.494 176.225 158.479 176.225 158.479C176.225 158.479 180.202 159.607 183.262 158.479C184.254 158.113 184.558 157.487 184.442 156.723C184.347 156.723 184.257 156.736 184.181 156.738C182.927 156.778 181.707 157.117 180.459 157.229C179.748 157.282 179.035 157.293 178.323 157.263C177.97 157.261 177.617 157.233 177.268 157.18C176.423 157.03 175.64 156.592 174.886 156.163C174.702 156.076 174.54 155.949 174.412 155.79C174.31 155.615 174.239 155.423 174.2 155.223C173.934 154.267 173.191 153.501 172.339 152.998C171.82 152.702 171.27 152.464 170.699 152.289C170.654 152.941 170.656 153.596 170.703 154.248Z" fill="black"/>
<path opacity="0.1" d="M157.472 157.174C157.472 157.174 157.964 158.655 162.574 159.15C167.184 159.645 166.515 156.222 166.515 156.222C166.515 156.222 166.538 156.125 166.568 155.949C166.357 156.059 166.177 156.161 166.095 156.207C165.673 156.455 165.295 156.795 164.856 157.026C163.8 157.582 162.534 157.417 161.343 157.238C160.784 157.153 160.224 157.068 159.667 156.965C159.242 156.906 158.829 156.784 158.441 156.601C158.152 156.432 157.876 156.244 157.613 156.038C157.552 156.371 157.508 156.707 157.482 157.045C157.472 157.128 157.472 157.174 157.472 157.174Z" fill="black"/>
<path opacity="0.1" d="M172.392 144.48C172.76 145.454 172.76 146.53 172.392 147.504C174.239 147.819 177.681 148.456 178.948 147.616C178.802 146.732 178.762 145.833 178.83 144.939L172.392 144.48Z" fill="black"/>
<path opacity="0.1" d="M159.986 148.786C161.29 148.879 164.801 149.063 166.766 148.553C167.002 146.848 167.325 145.326 167.325 145.326L160.182 145.855C160.182 145.855 160.058 147.313 159.986 148.786Z" fill="black"/>
<path d="M154.835 99.4528C154.835 99.4528 154.945 100.775 155.12 102.626C155.515 106.828 156.243 113.765 156.809 114.33C157.62 115.145 157.267 121.132 156.951 122.19C156.634 123.248 156.951 130.864 156.951 130.864C157.747 134.046 158.137 137.316 158.112 140.596C158.006 145.674 159.484 148.318 159.484 148.318C159.484 148.318 166.449 148.953 167.891 147.603C169.333 146.253 167.891 135.518 167.891 135.518C167.891 135.518 165.282 126.745 165.915 125.475C166.549 124.206 167.287 121.138 167.287 121.138V110.454C168.311 108.762 168.765 106.434 168.961 104.331C169.118 102.533 169.122 100.724 168.976 98.9239C168.976 98.9239 170.287 101.611 171.623 104.268C172.83 106.669 174.059 109.045 174.367 109.396C175 110.137 174.473 113.522 174.367 115.214C174.262 116.907 175.528 120.292 175.528 120.292C173.945 121.244 173.628 132.457 173.628 132.457C173.628 132.457 174.789 135.207 172.362 138.275C169.934 141.343 170.884 147.161 171.201 146.949C171.518 146.738 177.956 148.536 179.222 146.949C180.489 145.363 181.861 141.025 181.861 141.025C181.861 141.025 181.227 136.583 182.6 132.563C183.617 129.584 184.864 122.6 185.443 119.179C185.65 117.937 185.685 116.673 185.546 115.422C185.28 112.923 184.871 108.298 185.016 104.632C185.065 103.437 185.031 101.537 184.951 99.3089C184.679 91.6714 183.855 80.1961 183.855 80.1961L178.135 76.3117L174.359 73.7476L173.434 73.8893L156.205 76.5571L155.536 85.0748L154.835 99.4528Z" fill="#444053"/>
<path opacity="0.1" d="M178.139 76.3159L178.441 77.9788C178.441 77.9788 180.974 90.1438 181.502 96.385C182.03 102.626 184.246 100.828 184.246 100.828C184.439 100.304 184.677 99.7971 184.955 99.3131C184.683 91.6756 183.86 80.2003 183.86 80.2003L178.139 76.3159Z" fill="black"/>
<path d="M160.043 30.165C160.043 30.165 171.864 39.6495 169.681 37.7454C168.486 36.7002 169.299 32.2447 170.279 28.4365C171.085 25.2947 172.003 22.5909 172.003 22.5909C172.003 22.5909 161.685 12.916 162.435 20.8265C162.698 23.6149 162.479 25.5973 162.084 26.9978C161.36 29.5641 160.043 30.165 160.043 30.165Z" fill="#EFB7B9"/>
<path opacity="0.1" d="M161.027 27.6431L168.52 33.514L170.701 31.081C170.701 31.081 172.567 30.2707 172.706 31.1868C172.845 32.1029 173.375 37.7453 172.284 38.2742C171.192 38.8032 169.787 39.1565 168.556 38.9809C167.325 38.8053 165.951 37.428 165.037 36.8991C164.123 36.3701 160.746 33.6198 160.746 33.6198L159.057 31.2587L161.027 27.6431Z" fill="black"/>
<path d="M161.027 27.8547L168.52 33.7257L170.701 31.2927C170.701 31.2927 172.567 30.4824 172.706 31.3985C172.845 32.3145 173.375 37.957 172.284 38.4859C171.192 39.0148 169.787 39.3681 168.556 39.1925C167.325 39.0169 165.951 37.6396 165.037 37.1107C164.123 36.5818 160.746 33.8315 160.746 33.8315L159.057 31.4704L161.027 27.8547Z" fill="#A36468"/>
<path opacity="0.1" d="M154.835 99.4526C154.835 99.4526 154.945 100.775 155.12 102.626C157.442 102.715 161.947 102.99 165.109 103.819C166.371 104.132 167.664 104.302 168.963 104.325C169.12 102.526 169.125 100.717 168.978 98.9174C168.978 98.9174 170.289 101.604 171.625 104.262C172.768 104.184 173.905 104.037 175.03 103.819L173.622 85.483C173.622 85.483 173.669 79.3285 173.436 73.8828L156.205 76.557L155.536 85.0746L154.835 99.4526Z" fill="black"/>
<path opacity="0.1" d="M167.781 33.0211C167.781 33.0211 162.662 27.4125 161.449 28.3031C160.235 29.1938 159.45 31.3645 159.45 31.3645L163.619 35.947L167.781 33.0211Z" fill="black"/>
<path d="M167.57 32.8096C167.57 32.8096 162.451 27.201 161.238 28.0917C160.024 28.9824 159.239 31.1531 159.239 31.1531L163.408 35.7356L167.57 32.8096Z" fill="#A36468"/>
<path opacity="0.1" d="M171.826 36.404L168.871 32.691C168.871 32.691 169.335 29.1812 170.416 29.6297C171.497 30.0782 171.826 31.8744 171.826 31.8744V36.404Z" fill="black"/>
<path d="M172.037 36.1587L169.096 32.4457C169.096 32.4457 169.561 28.9358 170.642 29.3843C171.722 29.8328 172.037 31.629 172.037 31.629V36.1587Z" fill="#A36468"/>
<path opacity="0.1" d="M158.494 29.4944C158.494 29.4944 164.554 36.0529 168.172 36.493C168.499 36.5332 168.826 36.5882 169.149 36.6538C170.095 36.8399 172.155 36.6538 171.828 31.2313L172.284 30.2708L175.1 31.9993L176.05 39.7553L177.738 59.6425L180.235 81.7871C180.235 81.7871 172.567 81.0466 170.42 82.9866C168.273 84.9267 167.676 72.4084 167.676 72.4084L161.801 47.0205L155.538 30.694L158.494 29.4944Z" fill="black"/>
<path opacity="0.1" d="M155.538 31.5402L161.801 47.8667L167.676 73.2545C167.676 73.2545 168.275 85.7708 170.42 83.8328C171.121 83.1981 172.413 82.8512 173.833 82.6713C175.58 82.4823 177.34 82.4426 179.093 82.5528C179.794 82.5909 180.235 82.6332 180.235 82.6332L177.736 60.4887L176.047 40.6015L175.098 32.8455L172.284 31.117L171.826 32.0775C171.826 32.2193 171.84 32.3589 171.847 32.5007C172.045 37.5105 170.067 37.6882 169.149 37.5063C168.824 37.4407 168.499 37.3857 168.17 37.3455C165.607 37.0303 161.82 33.6516 159.83 31.7094C159.009 30.9055 158.491 30.3469 158.491 30.3469L155.538 31.5402Z" fill="black"/>
<path d="M155.538 30.9054L161.801 47.2319L167.676 72.6198C167.676 72.6198 168.275 85.136 170.42 83.1981C171.121 82.5634 172.413 82.2164 173.833 82.0366C175.58 81.8475 177.34 81.8079 179.093 81.9181C179.794 81.9562 180.235 81.9985 180.235 81.9985L177.736 59.8539L176.047 39.9667L175.098 32.2107L172.284 30.4823L171.826 31.4428C171.826 31.5845 171.84 31.7241 171.847 31.8659C172.045 36.8758 170.067 37.0535 169.149 36.8715C168.824 36.806 168.499 36.7509 168.17 36.7107C165.607 36.3955 161.82 33.0168 159.83 31.0746C159.009 30.2707 158.491 29.7122 158.491 29.7122L155.538 30.9054Z" fill="#4285F4"/>
<path opacity="0.1" d="M171.826 31.4429C171.826 31.5847 171.84 31.7243 171.847 31.8661L171.895 31.8999C172.638 32.3907 173.831 40.6799 173.831 40.6799L175.378 61.8005L178.228 77.5621C178.228 77.5621 178.602 79.3583 179.091 81.9246C179.792 81.9627 180.233 82.005 180.233 82.005L177.736 59.8541L176.047 39.9669L175.098 32.2109L172.284 30.4824L171.826 31.4429Z" fill="black"/>
<path d="M169.888 30.0318C169.888 30.0318 171.577 31.4027 172.32 31.8936C173.063 32.3844 174.255 40.6735 174.255 40.6735L175.803 61.7941L178.652 77.5558C178.652 77.5558 181.185 89.7208 181.713 95.962C182.241 102.203 184.457 100.405 184.457 100.405C184.457 100.405 186.112 95.5388 190.051 95.2575C193.99 94.9761 191.951 92.7525 191.951 92.7525C191.951 92.7525 189.643 76.0875 188.126 73.1192C188.102 73.0683 188.075 73.0188 188.046 72.9711C187.822 72.603 187.575 71.8689 187.315 70.8872C185.814 65.2088 183.896 51.2116 183.896 51.2116L182.699 33.8632C179.636 28.8597 170.137 29.0332 170.137 29.0332L169.888 30.0318Z" fill="#67647E"/>
<path opacity="0.1" d="M155.538 30.9054L161.801 47.2319L167.676 72.6198C167.676 72.6198 168.275 85.136 170.42 83.1981C171.121 82.5634 172.413 82.2164 173.833 82.0366C173.808 77.7333 173.677 70.0112 173.058 66.7658C172.523 63.8002 172.3 60.7865 172.391 57.7742L164.721 41.0246C164.721 41.0246 158.952 33.8969 158.916 32.8772C158.903 32.5006 159.313 31.8024 159.832 31.0683C159.011 30.2643 158.494 29.7058 158.494 29.7058L155.538 30.9054Z" fill="black"/>
<path d="M174.817 103.403L173.411 85.0662C173.411 85.0662 173.517 71.3843 172.636 66.7658C172.1 63.8004 171.876 60.7866 171.967 57.7742L164.298 41.0246C164.298 41.0246 158.529 33.897 158.494 32.8772C158.458 31.8575 161.514 28.4661 161.514 28.4661C161.514 28.4661 154.835 29.2489 153.955 32.2446C153.075 35.2404 148.256 36.4061 148.256 36.4061C148.256 36.4061 145.934 38.5218 145.97 44.5874C146.006 50.653 153.358 55.4111 153.358 55.4111C153.358 55.4111 154.589 66.8356 153.533 71.9851C152.478 77.1346 153.392 102.167 153.392 102.167C153.392 102.167 160.463 102.239 164.896 103.403C169.329 104.566 174.817 103.403 174.817 103.403Z" fill="#67647E"/>
<path d="M164.404 74.3125L158.986 94.8682C158.986 94.8682 158.247 96.7025 154.447 95.2914C150.648 93.8802 139.602 89.2977 139.602 89.2977C139.602 89.2977 138.616 87.675 140.446 84.6792L145.97 68.4585L164.404 74.3125Z" fill="#B07473"/>
<path d="M157.396 83.4012L148.636 73.7475L143.042 71.4731L140.746 83.0818L151.38 94.665L157.396 83.4012Z" fill="#E1E7EF"/>
<path d="M148.034 86.6255C148.034 86.6255 150.639 88.1593 151.325 88.2122C152.011 88.2651 154.434 92.8497 153.411 92.8138C152.387 92.7778 150.006 91.5444 150.244 92.1791C150.483 92.8138 152.034 94.7179 152.486 94.538C152.938 94.3582 153.147 95.9344 151.22 95.3843C149.292 94.8342 146.734 94.3519 146.734 94.3519C146.734 94.3519 145.362 93.3469 145.309 92.6339C145.256 91.921 144.07 88.1636 144.07 88.1636L148.034 86.6255Z" fill="#EFB7B9"/>
<path d="M189.852 32.4649C189.852 32.4649 187.598 27.5883 186.251 25.974C184.905 24.3598 179.03 22.6271 178.441 23.1031C177.852 23.5791 181.396 26.2533 182.03 26.596C182.663 26.9388 177.937 30.1228 177.842 30.1927C177.747 30.2625 174.148 29.8711 175.995 31.0876C177.842 32.3041 183.302 33.5438 183.302 33.5438C183.67 33.4799 184.047 33.4917 184.41 33.5786C184.773 33.6656 185.114 33.8258 185.413 34.0495C186.471 34.8196 189.852 32.4649 189.852 32.4649Z" fill="#EFB7B9"/>
<path opacity="0.1" d="M142.956 86.871C143.254 87.8518 143.654 88.7985 144.15 89.6954C144.678 89.2173 149.717 87.5523 149.717 87.5523L149.157 86.6869L148.245 85.2779C148.245 85.2779 143.753 84.3005 142.989 85.2779C142.732 85.6058 142.778 86.2109 142.956 86.871Z" fill="black"/>
<path d="M142.745 86.6593C143.043 87.6402 143.443 88.5868 143.939 89.4837C144.467 89.0056 149.506 87.3406 149.506 87.3406L148.946 86.4753L148.034 85.0663C148.034 85.0663 143.543 84.0888 142.778 85.0663C142.521 85.3942 142.567 85.9993 142.745 86.6593Z" fill="#A36468"/>
<path opacity="0.1" d="M184.702 33.567C184.864 33.9301 185.054 34.2796 185.272 34.6121C186.085 35.8963 187.315 37.4111 187.315 37.4111C187.315 37.4111 192.115 35.1982 192.115 35.1008C192.115 35.0035 190.659 32.7038 189.475 30.8907C188.995 30.1587 188.563 29.5113 188.288 29.1326C188.288 29.1326 186.496 32.89 184.727 32.9154C184.265 32.9217 184.512 33.1079 184.702 33.567Z" fill="black"/>
<path d="M184.913 33.7787C185.075 34.1417 185.266 34.4912 185.483 34.8238C186.296 36.108 187.526 37.6228 187.526 37.6228C187.526 37.6228 192.326 35.4098 192.326 35.3125C192.326 35.2152 190.87 32.9155 189.686 31.1023C189.207 30.3703 188.774 29.7229 188.499 29.3442C188.499 29.3442 186.707 33.1016 184.938 33.127C184.476 33.1334 184.723 33.3196 184.913 33.7787Z" fill="#A36468"/>
<path d="M157.843 72.584L158.46 70.7328L149.81 70.1235L153.041 70.4684L157.157 71.3527L156.841 72.584H157.843Z" fill="#B07473"/>
<path opacity="0.1" d="M142.745 86.6593C143.699 86.2087 146.244 85.2715 148.946 86.4753L148.034 85.0663C148.034 85.0663 143.543 84.0888 142.778 85.0663C142.521 85.3942 142.567 85.9993 142.745 86.6593Z" fill="black"/>
<path d="M142.24 75.2286C142.261 75.5354 142.28 75.8421 142.299 76.1468C142.352 77.0798 142.388 78.0043 142.411 78.8971C142.517 83.0311 142.346 86.4416 142.346 86.4416C142.346 86.4416 145.617 84.4677 149.1 86.1242L149.451 79.4345V79.3182L149.808 76.3922L150.964 66.9416C150.964 66.9416 153.145 53.8245 153.814 53.3316C154.483 52.8386 148.853 42.2244 148.853 42.2244L145.968 44.5876L144.174 56.7166V62.9218C144.174 62.9218 141.852 69.6581 142.24 75.2286Z" fill="#67647E"/>
<path opacity="0.1" d="M184.81 33.4801L185.485 34.8236C186.298 36.1078 187.528 37.6226 187.528 37.6226C187.528 37.6226 192.328 35.4096 192.328 35.3123C192.328 35.215 190.872 32.9153 189.688 31.1021C189.323 30.679 189.101 30.4463 189.101 30.4463C190.509 33.9371 184.81 33.4801 184.81 33.4801Z" fill="black"/>
<path d="M180.727 32.8773L182.699 33.8674C182.699 33.8674 185.126 37.1467 185.829 37.5C186.532 37.8533 186.885 37.8173 186.885 37.8173L184.81 33.6918C184.81 33.6918 190.509 34.1488 189.101 30.658C189.101 30.658 195.47 37.6396 196.172 40.4619C196.172 40.4619 199.691 46.3138 198.847 49.2059C198.003 52.098 194.589 52.6608 192.126 51.7807C189.663 50.9006 182.099 47.0204 182.099 47.0204L180.727 32.8773Z" fill="#67647E"/>
<path opacity="0.1" d="M187.799 39.7554C187.799 39.7554 193.112 45.7152 192.689 46.5255C192.267 47.3358 188.079 40.9549 187.799 39.7554Z" fill="black"/>
<path opacity="0.2" d="M163.823 23.7124C163.823 23.7124 156.347 21.455 152.125 29.6003C147.903 37.7455 147.762 38.3104 147.973 38.6976C148.184 39.0847 156.381 36.9352 156.839 37.8873C157.297 38.8393 152.195 42.7533 152.195 42.7533L171.965 57.7744L163.659 40.0791C163.1 38.8395 162.356 37.693 161.451 36.6792C160.085 35.1475 158.217 32.8012 158.878 32.0777C159.46 31.443 160.393 29.7864 161.651 27.8802C162.574 26.4818 164.039 24.9056 163.823 23.7124Z" fill="black"/>
<path d="M164.035 23.5007C164.035 23.5007 156.558 21.2433 152.336 29.3886C148.115 37.5339 147.973 38.0987 148.184 38.4859C148.395 38.8731 156.592 36.7236 157.05 37.6756C157.508 38.6277 152.406 42.5416 152.406 42.5416L171.965 57.7743L163.87 39.8674C163.311 38.6279 162.567 37.4813 161.662 36.4676C160.296 34.9358 158.428 32.5896 159.089 31.866C159.672 31.2313 160.605 29.5748 161.863 27.6686C162.785 26.2701 164.25 24.6939 164.035 23.5007Z" fill="#67647E"/>
<path opacity="0.1" d="M164.035 23.5007C164.035 23.5007 156.558 21.2433 152.336 29.3886C148.115 37.5339 147.973 38.0987 148.184 38.4859C148.395 38.8731 156.592 36.7236 157.05 37.6756C157.508 38.6277 152.406 42.5416 152.406 42.5416L171.965 57.7743L163.482 39.0064C163.153 38.2768 162.708 37.6058 162.164 37.0198C160.828 35.5769 158.342 32.6848 159.089 31.866C159.672 31.2313 160.605 29.5748 161.863 27.6686C162.785 26.2701 164.25 24.6939 164.035 23.5007Z" fill="black"/>
<path d="M162.504 60.8398C163.359 60.8398 164.052 60.1455 164.052 59.2891C164.052 58.4326 163.359 57.7383 162.504 57.7383C161.65 57.7383 160.957 58.4326 160.957 59.2891C160.957 60.1455 161.65 60.8398 162.504 60.8398Z" fill="#444053"/>
<path d="M162.504 70.4661C163.359 70.4661 164.052 69.7717 164.052 68.9153C164.052 68.0588 163.359 67.3645 162.504 67.3645C161.65 67.3645 160.957 68.0588 160.957 68.9153C160.957 69.7717 161.65 70.4661 162.504 70.4661Z" fill="#444053"/>
<path d="M142.411 78.897C143.302 79.1086 147.526 79.0134 149.447 79.4344V79.318L149.803 76.3921C147.638 76.1213 142.93 75.6072 142.293 76.1467C141.468 76.8512 141.349 78.6537 142.411 78.897Z" fill="#67647E"/>
<path opacity="0.1" d="M142.411 79.1087C143.302 79.3202 147.526 79.225 149.447 79.6461V79.5297L149.803 76.6037C147.638 76.3329 142.93 75.8188 142.293 76.3583C141.468 77.0628 141.349 78.8654 142.411 79.1087Z" fill="black"/>
<path opacity="0.1" d="M142.411 78.897C143.302 79.1086 147.526 79.0134 149.447 79.4344V79.318L149.803 76.3921C147.638 76.1213 142.93 75.6072 142.293 76.1467C141.468 76.8512 141.349 78.6537 142.411 78.897Z" fill="black"/>
<path d="M143.331 78.4188C143.847 78.4188 144.264 78.0002 144.264 77.4837C144.264 76.9672 143.847 76.5486 143.331 76.5486C142.816 76.5486 142.398 76.9672 142.398 77.4837C142.398 78.0002 142.816 78.4188 143.331 78.4188Z" fill="#444053"/>
<path opacity="0.1" d="M160.957 81.2222L157.016 94.6925C157.016 94.6925 155.961 95.1855 155.961 94.3054C155.961 93.4253 160.957 81.2222 160.957 81.2222Z" fill="white"/>
<path opacity="0.1" d="M162.468 26.3356C162.717 26.5358 162.977 26.7215 163.247 26.892C164.588 27.7383 165.78 28.8892 167.49 28.8892C168.439 28.8906 169.381 28.7355 170.279 28.4301C171.085 25.2884 172.003 22.5846 172.003 22.5846C172.003 22.5846 161.685 12.9097 162.435 20.8201C162.699 23.6085 162.863 24.9351 162.468 26.3356Z" fill="black"/>
<path d="M158.823 19.7793C158.823 21.4974 159.331 23.1769 160.284 24.6054C161.236 26.034 162.59 27.1474 164.173 27.8049C165.757 28.4624 167.5 28.6344 169.181 28.2992C170.862 27.964 172.407 27.1367 173.619 25.9218C174.831 24.7069 175.656 23.1591 175.991 21.474C176.325 19.7889 176.153 18.0423 175.497 16.4549C174.841 14.8676 173.731 13.5109 172.305 12.5564C170.88 11.6019 169.204 11.0924 167.49 11.0924C166.35 11.0871 165.221 11.3081 164.167 11.7428C163.113 12.1775 162.155 12.8171 161.35 13.6248C160.544 14.4326 159.905 15.3923 159.472 16.4486C159.038 17.505 158.818 18.637 158.823 19.7793Z" fill="#EFB7B9"/>
<path d="M172.402 27.0508C172.482 27.2495 172.624 27.4167 172.807 27.5268L174.184 28.373L176.757 29.9407L180.828 32.4203C180.924 32.4781 181.021 32.531 181.12 32.579C181.597 32.822 182.124 32.9522 182.659 32.9595C183.194 32.9669 183.724 32.8512 184.208 32.6213C184.573 32.4565 184.895 32.2072 185.145 31.8939C185.396 31.5805 185.569 31.2121 185.65 30.8187C185.758 30.2712 185.712 29.7042 185.518 29.1812C185.323 28.6581 184.987 28.1996 184.548 27.8568C184.526 27.8379 184.5 27.8242 184.472 27.8166C183.605 27.5729 182.79 27.1736 182.065 26.6382L179.503 24.861L177.215 22.7644L176.058 21.9626C175.888 21.8448 175.689 21.7782 175.483 21.7707C175.276 21.7632 175.072 21.8151 174.895 21.9203C173.709 22.6079 171.347 24.3766 172.402 27.0508Z" fill="#E1E7EF"/>
<path d="M174.184 28.3605L176.757 29.9282C177.293 27.7617 178.656 26.2321 179.841 25.077L177.215 22.7498C175.218 23.742 174.424 27.0509 174.184 28.3605Z" fill="#A36468"/>
<path opacity="0.1" d="M181.114 32.5664C181.591 32.8094 182.117 32.9396 182.653 32.9469C183.188 32.9543 183.718 32.8386 184.202 32.6087C184.567 32.4439 184.888 32.1947 185.139 31.8813C185.39 31.568 185.562 31.1995 185.643 30.8062C185.752 30.2586 185.706 29.6916 185.512 29.1686C185.317 28.6455 184.981 28.187 184.542 27.8442C183.902 28.1154 183.311 28.4875 182.79 28.9465C182.062 29.5778 181.535 30.4089 181.274 31.3372C181.171 31.7388 181.117 32.1516 181.114 32.5664Z" fill="black"/>
<path opacity="0.1" d="M158.823 19.7794C158.821 21.0445 159.096 22.2947 159.629 23.4416C160.152 23.9634 160.551 24.597 160.795 25.2949C161.381 26.01 161.611 26.4141 162.395 26.9092C162.709 26.577 163.418 26.376 163.547 25.9465C163.874 24.84 163.689 23.6574 163.672 22.5044C163.672 21.9924 163.743 21.3873 164.193 21.1419C164.567 20.9303 165.037 21.0826 165.405 21.29C165.772 21.4973 166.137 21.766 166.559 21.8147C167.193 21.8866 167.771 21.4402 168.126 20.9155C168.48 20.3908 168.685 19.7773 169.021 19.2399C169.464 18.5312 170.118 17.9874 170.762 17.4585C171.499 16.8492 172.214 16.1743 173 15.6285C173.468 15.3005 174.03 15.1482 174.492 14.8182L174.566 14.7632C173.503 13.258 171.991 12.1306 170.247 11.5443C168.502 10.9579 166.617 10.9429 164.864 11.5015C163.111 12.0602 161.581 13.1634 160.495 14.6515C159.409 16.1397 158.823 17.9356 158.823 19.7794Z" fill="black"/>
<path d="M175.9 10.1764C175.716 8.95778 174.709 7.81321 173.481 7.79205C172.465 7.77513 171.6 8.46483 170.701 8.93662C169.78 9.41227 168.765 9.67789 167.73 9.71447C166.695 9.75105 165.664 9.55767 164.712 9.14819C164.161 8.90489 163.6 8.58119 162.998 8.63197C162.397 8.68275 161.917 9.07626 161.5 9.47823C160.513 10.4581 159.739 11.6323 159.228 12.9268C159.078 13.3076 158.941 13.7117 158.65 13.9994C158.426 14.1835 158.184 14.3444 157.928 14.4796C157.487 14.7733 157.108 15.1523 156.815 15.5944C156.522 16.0365 156.32 16.5329 156.22 17.0544C156.03 18.1032 156.137 19.1845 156.531 20.175C156.768 20.8542 157.156 21.4711 157.664 21.9796C158.048 22.3414 158.508 22.6143 158.912 22.9507C159.568 23.5108 160.069 24.2318 160.365 25.0434C160.661 25.8549 160.742 26.7295 160.6 27.5819C161.723 27.84 162.8 26.833 163.133 25.7265C163.467 24.62 163.275 23.4394 163.258 22.2843C163.258 21.7723 163.33 21.1693 163.779 20.9239C164.153 20.7124 164.624 20.8647 164.991 21.072C165.358 21.2794 165.721 21.5459 166.146 21.5967C166.779 21.6686 167.357 21.2222 167.712 20.6976C168.066 20.1729 168.269 19.5593 168.607 19.022C169.048 18.3132 169.704 17.7695 170.348 17.2406C171.085 16.6313 171.801 15.9564 172.584 15.4105C173.054 15.0826 173.616 14.9303 174.078 14.6002C175.467 13.6038 175.9 11.7758 175.9 10.1764Z" fill="#585268"/>
<path opacity="0.1" d="M169.189 24.7002C169.189 24.7002 169.307 24.7277 169.512 24.7849C169.414 24.7282 169.302 24.699 169.189 24.7002Z" fill="black"/>
<g opacity="0.1">
<path d="M162.703 25.043C163.03 23.9365 162.844 22.7538 162.827 21.6008C162.827 21.0888 162.899 20.4837 163.349 20.2383C163.722 20.0268 164.193 20.1791 164.56 20.3864C164.927 20.5938 165.291 20.8624 165.715 20.9111C166.348 20.983 166.926 20.5387 167.281 20.0119C167.636 19.4851 167.838 18.8737 168.176 18.3363C168.617 17.6276 169.274 17.0839 169.918 16.555C170.654 15.9478 171.37 15.2708 172.153 14.7249C172.624 14.397 173.185 14.2447 173.647 13.9146C175.045 12.9118 175.478 11.0839 175.478 9.48656C175.43 9.18027 175.336 8.88329 175.197 8.60645C175.569 9.03649 175.813 9.56298 175.9 10.1255C175.9 11.7228 175.478 13.5507 174.07 14.5536C173.607 14.8836 173.046 15.0359 172.575 15.3638C171.792 15.9097 171.076 16.5867 170.34 17.1939C169.696 17.7228 169.039 18.2665 168.598 18.9753C168.261 19.5127 168.06 20.1262 167.703 20.6509C167.347 21.1756 166.766 21.622 166.137 21.55C165.715 21.5014 165.356 21.2306 164.982 21.0253C164.609 20.8201 164.138 20.6741 163.771 20.8773C163.321 21.1227 163.241 21.7235 163.249 22.2397C163.266 23.3928 163.46 24.567 163.125 25.6819C162.789 26.7969 161.719 27.7976 160.592 27.5352C160.627 27.3367 160.649 27.1359 160.657 26.9344C161.597 26.854 162.422 25.9929 162.703 25.043Z" fill="black"/>
<path d="M157.242 21.2941C157.626 21.6558 158.086 21.9288 158.489 22.2652C158.933 22.64 159.306 23.0923 159.589 23.6001C159.388 23.3439 159.161 23.1092 158.912 22.8999C158.506 22.5635 158.048 22.2905 157.664 21.9288C157.357 21.6334 157.098 21.2923 156.896 20.9175C157.003 21.0505 157.118 21.1763 157.242 21.2941Z" fill="black"/>
</g>
<path opacity="0.1" d="M168.902 96.8145C169.056 97.2736 169.276 97.7221 169.305 98.2066C169.356 99.0296 168.854 99.7976 168.818 100.623C168.776 101.583 169.358 102.444 169.915 103.225C169.255 103.225 168.533 102.996 168.197 102.427C168.082 102.208 167.999 101.974 167.95 101.731C167.353 99.3427 166.772 96.7299 167.811 94.5C167.97 94.1142 168.203 93.7635 168.497 93.4675C168.672 94.5931 168.524 95.6995 168.902 96.8145Z" fill="black"/>
<path opacity="0.1" d="M185.413 79.9569L187.167 77.5852C187.59 77.0119 188.027 76.4153 188.179 75.7192C188.343 74.9555 188.151 74.1642 188.126 73.392C188.126 73.3052 188.126 73.2164 188.126 73.1275C188.102 73.0766 188.075 73.0271 188.046 72.9794C187.822 72.6113 187.575 71.8772 187.315 70.8955C187.059 71.1502 186.861 71.4568 186.733 71.7947C185.916 73.7918 186.671 76.136 185.996 78.1839C185.802 78.7721 185.485 79.3349 185.413 79.9569Z" fill="black"/>
<path opacity="0.1" d="M180.947 151.75C180.08 152.372 179.09 152.802 178.045 153.009C176.999 153.217 175.92 153.198 174.882 152.954" fill="black"/>
<path opacity="0.1" d="M166.413 152.099C165.97 152.515 165.445 152.836 164.873 153.042C164.3 153.247 163.692 153.333 163.085 153.293C162.478 153.253 161.886 153.089 161.345 152.811C160.804 152.533 160.325 152.146 159.939 151.676" fill="black"/>
<path opacity="0.1" d="M175.676 120.205C176.518 120.4 177.4 120.315 178.19 119.965C178.98 119.615 179.635 119.018 180.058 118.263" fill="black"/>
<path opacity="0.1" d="M165.67 125.552C164.333 125.65 163.003 125.284 161.903 124.515L165.67 125.552Z" fill="black"/>
<path opacity="0.1" d="M172.499 138.334C173.624 138.793 174.627 139.506 175.722 140.027C176.818 140.547 178.086 140.89 179.247 140.526" fill="black"/>
<path d="M111.736 141.472C121.659 141.472 129.704 139.146 129.704 136.278C129.704 133.409 121.659 131.084 111.736 131.084C101.813 131.084 93.7686 133.409 93.7686 136.278C93.7686 139.146 101.813 141.472 111.736 141.472Z" fill="#5F5D7E"/>
<path opacity="0.1" d="M111.736 135.643C113.721 135.643 115.331 135.178 115.331 134.604C115.331 134.031 113.721 133.566 111.736 133.566C109.751 133.566 108.141 134.031 108.141 134.604C108.141 135.178 109.751 135.643 111.736 135.643Z" fill="black"/>
<path d="M113.431 107.207H109.737V134.604H113.431V107.207Z" fill="#5F5D7E"/>
<path opacity="0.1" d="M113.431 108.563V111.736C112.692 111.508 111.006 110.545 109.737 109.788V107.207H110.508L113.431 108.563Z" fill="black"/>
<path d="M104.728 95.2786C104.728 95.2786 116.925 92.1326 119.96 89.7779C122.995 87.4232 134.915 98.505 133.341 102.683C131.766 106.862 126.033 109.894 126.033 109.894C126.033 109.894 110.176 112.479 107.478 107.086C104.781 101.693 104.728 95.2786 104.728 95.2786Z" fill="#474157"/>
<path opacity="0.1" d="M104.728 95.2786C104.728 95.2786 116.925 92.1326 119.96 89.7779C122.995 87.4232 134.915 98.505 133.341 102.683C131.766 106.862 126.033 109.894 126.033 109.894C126.033 109.894 110.176 112.479 107.478 107.086C104.781 101.693 104.728 95.2786 104.728 95.2786Z" fill="black"/>
<path d="M103.673 94.0091C103.673 94.0091 115.869 90.8631 118.905 88.5083C121.94 86.1536 133.86 97.2354 132.285 101.414C130.711 105.592 124.977 108.624 124.977 108.624C124.977 108.624 109.121 111.209 106.423 105.817C103.725 100.424 103.673 94.0091 103.673 94.0091Z" fill="#474157"/>
<path opacity="0.1" d="M128.741 72.4486C128.695 72.4486 128.65 72.438 128.606 72.4295C128.652 72.4247 128.698 72.4312 128.741 72.4486Z" fill="black"/>
<path d="M92.6075 84.6411C91.3895 84.3428 88.0312 84.0678 86.4332 89.4394C86.0612 90.6871 85.5875 91.9021 85.0169 93.072C83.4823 96.2264 81.5044 102.711 90.2117 104.139L111.109 108.899C111.109 108.899 122.297 110.274 123.035 109.745C123.774 109.217 123.669 108.053 123.669 108.053C123.669 108.053 111.32 108.053 108.893 104.245C106.465 100.437 106.36 95.2532 106.36 95.2532C106.36 95.2532 106.664 87.2497 93.9057 84.9246C93.4751 84.8463 93.0402 84.7469 92.6075 84.6411Z" fill="#474157"/>
<path opacity="0.1" d="M92.6075 84.677C91.3895 84.3787 88.0312 84.1036 86.4332 89.4753C86.0609 90.7236 85.5872 91.9392 85.0169 93.11C83.4823 96.2623 81.5044 102.749 90.2117 104.177L111.109 108.937C111.109 108.937 122.297 110.312 123.035 109.783C123.774 109.255 123.669 108.091 123.669 108.091C123.669 108.091 111.32 108.091 108.893 104.283C106.465 100.475 106.36 95.2912 106.36 95.2912C106.36 95.2912 106.664 87.2877 93.9057 84.9626C93.4751 84.8822 93.0402 84.7828 92.6075 84.677Z" fill="black"/>
<path d="M136.414 79.168C136.293 78.3935 135.896 77.6893 135.296 77.1863C134.696 76.6832 133.935 76.4153 133.153 76.4324C130.47 76.4832 122.81 76.809 118.14 78.8781C117.114 79.333 116.086 79.7751 115.031 80.1475C114.077 80.4881 112.939 81.0318 112.376 81.8125C111.812 82.5932 98.5495 92.8139 117.653 102.652C117.653 102.652 127.89 105.573 131.901 98.7187C131.901 98.7187 134.751 91.3541 134.54 88.8048C134.328 86.2554 136.439 79.3795 136.439 79.3795C136.439 79.3795 136.435 79.3076 136.414 79.168Z" fill="#474157"/>
<path opacity="0.1" d="M136.414 81.0211C136.174 79.5401 134.768 78.4696 133.153 78.4971C130.147 78.5479 120.895 78.9202 116.597 81.5161C116.597 81.5161 113.326 83.4689 112.376 83.4689C111.426 83.4689 98.5496 93.624 117.653 102.707C117.653 102.707 127.891 105.402 131.901 99.074C131.901 99.074 134.751 92.2764 134.54 89.9238C134.329 87.5711 136.439 81.2221 136.439 81.2221C136.439 81.2221 136.435 81.148 136.414 81.0211Z" fill="black"/>
<path d="M126.202 102.658H122.824V109.866H126.202V102.658Z" fill="#5F5D7E"/>
</g>
<defs>
<linearGradient id="paint0_linear_1301_1459" x1="169.158" y1="159.679" x2="169.158" y2="7.12758" gradientUnits="userSpaceOnUse">
<stop stop-color="#808080" stop-opacity="0.25"/>
<stop offset="0.54" stop-color="#808080" stop-opacity="0.12"/>
<stop offset="1" stop-color="#808080" stop-opacity="0.1"/>
</linearGradient>
<clipPath id="clip0_1301_1459">
<rect width="236" height="162" fill="white"/>
</clipPath>
</defs>
</svg>
