<svg width="249" height="215" viewBox="0 0 249 215" fill="none" xmlns="http://www.w3.org/2000/svg">
<g clip-path="url(#clip0_164_454)">
<path d="M103.576 186.783L106.296 177.903C103.024 174.292 98.922 171.537 94.3467 169.876C98.8168 177.301 94.4853 186.987 96.2903 195.468C96.8734 198.109 98.0419 200.585 99.7091 202.712C101.376 204.839 103.499 206.562 105.921 207.754L110.048 212.881C112.212 209.091 113.53 204.876 113.912 200.526C114.295 196.176 113.732 191.795 112.263 187.684C111.416 185.386 110.284 183.204 108.893 181.19C106.44 184.081 103.576 186.783 103.576 186.783Z" fill="#F2F2F2"/>
<path d="M88.6223 187.917L87.1064 178.753C82.5716 176.984 77.6746 176.352 72.8408 176.912C80.1445 181.558 80.5761 192.164 85.9645 198.949C87.6613 201.052 89.8084 202.745 92.2466 203.903C94.6848 205.061 97.3517 205.654 100.05 205.639L106.024 208.382C106.275 204.023 105.58 199.66 103.987 195.596C102.394 191.532 99.9416 187.862 96.7981 184.84C95.0179 183.162 93.0339 181.715 90.8931 180.534C89.9839 184.218 88.6223 187.917 88.6223 187.917Z" fill="#F2F2F2"/>
<path d="M177.632 210.602L173.443 210.602L171.45 194.402L177.633 194.402L177.632 210.602Z" fill="#FFB6B6"/>
<path d="M178.7 214.673L165.193 214.672V214.501C165.193 213.103 165.747 211.763 166.733 210.774C167.719 209.786 169.056 209.23 170.45 209.23H170.451L172.918 207.354L177.521 209.23L178.7 209.231L178.7 214.673Z" fill="#2F2E41"/>
<path d="M245.301 195.282L242.445 198.355L229.266 188.771L233.482 184.237L245.301 195.282Z" fill="#FFB6B6"/>
<path d="M249 197.274L239.79 207.181L239.665 207.064C238.645 206.111 238.045 204.79 237.996 203.393C237.947 201.996 238.453 200.637 239.404 199.614L239.404 199.614L239.717 196.525L244.225 194.428L245.029 193.563L249 197.274Z" fill="#2F2E41"/>
<path d="M239.103 186.178L234.675 195.462L207.486 177.413L203.53 172.01L190.561 154.293L185.289 162.68L181.621 171.448C180.425 172.23 179.418 173.268 178.671 174.488C177.925 175.707 177.458 177.078 177.304 178.501L177.136 180.053L179.454 200.946L170.644 203.658L165.583 175.592L167.238 169.51L168.941 160.973L177.515 133.996H200.458L213.618 162.08L214.58 167.803L218.311 172.096L239.103 186.178Z" fill="#2F2E41"/>
<path d="M191.421 89.8594L195.283 92.8081L199.941 94.2432C199.941 94.2432 201.867 121.4 203.602 123.14C205.337 124.88 203.772 124.926 204.121 127.186C204.47 129.446 205.317 134.079 205.317 134.079C193.605 140.294 183.508 140.461 175.398 133.188C175.294 132.738 175.347 132.266 175.547 131.85C175.748 131.434 176.084 131.1 176.5 130.902C178.009 130.099 175.108 126.35 176.342 125.724C177.576 125.097 175.84 119.661 175.84 119.661L176.979 108.318L176.079 106.505L178.274 95.4111L182.082 94.0169L183.603 90.3425L191.421 89.8594Z" fill="#3F3D56"/>
<path d="M193.84 138.127C193.823 137.636 193.913 137.148 194.105 136.696C194.296 136.245 194.584 135.841 194.948 135.512C195.311 135.184 195.743 134.94 196.211 134.797C196.679 134.654 197.173 134.616 197.658 134.685L203.101 124.077L206.133 129.479L200.5 138.724C200.33 139.533 199.87 140.251 199.208 140.742C198.545 141.234 197.726 141.465 196.905 141.391C196.085 141.317 195.319 140.944 194.754 140.343C194.189 139.741 193.864 138.953 193.84 138.127H193.84Z" fill="#FFB6B6"/>
<path d="M203.007 135.532L214.682 117.39L214.644 117.307C214.6 117.211 211.956 111.486 209.394 106.243C209 105.435 208.607 104.639 208.226 103.877C208.062 103.548 207.9 103.226 207.741 102.911C206.665 100.784 205.725 99.0261 205.163 98.1912C203.922 96.3033 202.074 94.8979 199.927 94.2083L199.873 94.1943L199.821 94.2159C198.771 94.6603 197.903 95.4504 197.36 96.4559C196.817 97.4614 196.633 98.6222 196.837 99.747C197.849 105.172 200.106 110.287 203.428 114.688L205.321 117.19L198.743 131.527L203.007 135.532Z" fill="#3F3D56"/>
<path d="M162.86 65.9913C163.182 66.3614 163.419 66.7976 163.554 67.2693C163.689 67.741 163.719 68.2367 163.643 68.7214C163.566 69.2061 163.384 69.668 163.11 70.0747C162.836 70.4814 162.477 70.823 162.057 71.0753L164.491 82.7522L158.742 80.4702L157.312 69.7315C156.936 68.9962 156.842 68.1483 157.048 67.3482C157.254 66.5482 157.746 65.8517 158.429 65.3906C159.113 64.9296 159.942 64.7361 160.759 64.8469C161.575 64.9576 162.323 65.3648 162.86 65.9913H162.86Z" fill="#FFB6B6"/>
<path d="M157.369 73.7949L159.694 95.2591L159.776 95.2996C159.844 95.3331 162.789 96.7814 166.405 98.5063C167.015 98.7973 166.927 100.058 167.565 100.359C168.004 100.567 169.163 99.8136 169.607 100.022C173.558 101.874 177.554 103.676 179.147 104.164C181.297 104.847 183.615 104.772 185.716 103.952L185.767 103.929L185.793 103.879C186.33 102.871 186.509 101.709 186.299 100.586C186.089 99.4619 185.503 98.4436 184.638 97.6984C180.444 94.1232 175.478 91.5743 170.133 90.2528L167.092 89.5047L163.197 74.2145L157.369 73.7949Z" fill="#3F3D56"/>
<path d="M187.303 88.6435C191.522 88.6435 194.943 85.2142 194.943 80.9839C194.943 76.7536 191.522 73.3242 187.303 73.3242C183.084 73.3242 179.663 76.7536 179.663 80.9839C179.663 85.2142 183.084 88.6435 187.303 88.6435Z" fill="#FFB6B6"/>
<path d="M179.718 75.8511C180.346 74.0185 183.474 72.7475 188.544 72.5707C193.614 72.394 194.9 78.3847 194.9 78.3847C198.285 81.1376 191.286 88.5078 190.947 88.2424L191.1 86.8577C191.352 84.564 192.423 82.7744 191.061 80.3841L189.752 80.3991C188.063 80.7249 186.373 81.0506 184.684 81.3763L186.684 79.6106L186.628 79.5231C185.777 79.9674 184.851 80.2492 183.897 80.3543C182.822 80.4176 181.647 79.9886 181.132 79.0403C180.994 78.7796 180.91 78.494 180.885 78.2002C179.435 78.781 178.772 80.5729 178.772 80.5729C178.772 80.5729 179.09 77.6837 179.718 75.8511Z" fill="#2F2E41"/>
<path d="M30.7805 76.3105C30.6769 76.1787 30.5653 76.0534 30.4463 75.9353C30.4754 75.8953 30.5044 75.8516 30.5335 75.8115L30.7805 76.3105Z" fill="#2F2E41"/>
<path d="M32.2665 107.117C31.0168 109.343 28.521 110.585 26.047 111.193C23.2681 111.923 20.3419 111.866 17.5933 111.029C17.2445 110.916 16.8958 110.785 16.5579 110.639C16.7204 110.207 16.8491 109.762 16.943 109.31C17.0695 108.698 17.1328 108.074 17.1319 107.449C16.8567 107.987 16.5001 108.48 16.0747 108.909C15.7467 109.255 15.374 109.555 14.9667 109.802C13.7034 109.033 12.6094 108.014 11.7516 106.808C11.8061 106.673 11.8606 106.538 11.9115 106.403C12.1753 105.699 12.3842 104.976 12.5363 104.24C12.7427 103.244 12.8462 102.23 12.8451 101.213C12.3972 102.089 11.8163 102.89 11.1231 103.588C10.9153 103.811 10.6946 104.021 10.462 104.218C10.1018 103.121 9.96255 101.964 10.0523 100.813C10.1421 99.6614 10.4592 98.5396 10.9851 97.5124C12.4237 94.8462 15.2138 93.2618 17.6987 91.539C20.1872 89.8162 22.6757 87.4851 22.8864 84.4583C23.0281 82.415 22.0835 80.368 22.4613 78.3574C22.6203 77.5096 23.0082 76.7217 23.5829 76.0796C24.1575 75.4376 24.897 74.966 25.7205 74.7161C26.5441 74.4663 27.4203 74.4479 28.2536 74.6628C29.0869 74.8778 29.8454 75.3179 30.4464 75.9353C29.0369 77.9385 27.6346 80.011 27.0642 82.3931C26.483 84.8189 26.9589 87.6636 28.8661 89.2698C29.52 89.8234 30.3229 90.2168 30.8279 90.9089C31.5 91.8267 31.5036 93.0505 31.6126 94.1797C31.8305 96.376 32.5462 98.4885 32.9313 100.663C33.32 102.834 33.3418 105.19 32.2665 107.117Z" fill="#2F2E41"/>
<path d="M6.64795 197.441L9.96363 200.01L21.4226 188.41L16.5289 184.619L6.64795 197.441Z" fill="#A0616A"/>
<path d="M6.78909 194.932L12.272 198.678L10.5368 200.93L12.8606 208.24C12.9754 208.601 12.9721 208.99 12.8512 209.349C12.7302 209.708 12.498 210.019 12.1883 210.236C11.8787 210.453 11.5079 210.566 11.13 210.557C10.7521 210.548 10.387 210.418 10.0879 210.186L3.8481 205.352L4.48888 202.292L2.35264 204.194L0 202.371L6.78909 194.932Z" fill="#2F2E41"/>
<path d="M23.4692 82.7815C23.4688 84.0803 23.7863 85.3594 24.3939 86.5064C25.0016 87.6534 25.8808 88.6334 26.9544 89.3602C28.028 90.0871 29.2632 90.5386 30.5514 90.6751C31.8397 90.8116 33.1417 90.629 34.3431 90.1433C35.5445 89.6575 36.6087 88.8835 37.4421 87.8892C38.2755 86.8948 38.8527 85.7106 39.1231 84.4404C39.3934 83.1702 39.3487 81.8528 38.9927 80.604C38.6367 79.3552 37.9804 78.2131 37.0814 77.278L37.0434 77.2399C36.9801 77.1733 36.9168 77.1066 36.8503 77.0431C36.8499 77.0431 36.8495 77.0431 36.8491 77.0429C36.8487 77.0427 36.8484 77.0425 36.8481 77.0422C36.8478 77.0419 36.8475 77.0416 36.8474 77.0412C36.8472 77.0408 36.8472 77.0404 36.8472 77.04C36.7649 76.9638 36.6825 76.8876 36.5971 76.8146C35.2042 75.5895 33.2465 74.2598 31.249 74.2598C26.8773 74.2598 23.4692 78.3984 23.4692 82.7815Z" fill="#2F2E41"/>
<path d="M68.5786 78.7072C68.6165 79.1304 68.5614 79.5567 68.4171 79.9563C68.2729 80.3558 68.043 80.7188 67.7437 81.0196C67.4444 81.3204 67.083 81.5518 66.6848 81.6974C66.2867 81.843 65.8616 81.8993 65.4394 81.8624L45.8422 99.6027L42.4697 94.2624L62.7936 78.5036C62.9025 77.7966 63.2663 77.1542 63.816 76.6981C64.3657 76.2421 65.0632 76.0041 65.7763 76.0291C66.4894 76.0542 67.1685 76.3407 67.685 76.8343C68.2015 77.3278 68.5195 77.9942 68.5786 78.7071V78.7072Z" fill="#A0616A"/>
<path d="M37.4662 104.957C37.4662 104.957 38.1953 106.308 40.686 104.223C42.68 102.554 52.2331 95.3076 54.2912 92.3383C54.7611 92.525 55.2797 92.5496 55.7651 92.4083C56.2505 92.267 56.6753 91.9678 56.9724 91.5578L51.3335 86.6064C49.6463 86.8012 49.6824 87.9375 49.8581 88.5827L45.6046 90.5149L34.6206 97.5527L36.9218 103.991L37.4662 104.957Z" fill="#0D6EFD"/>
<path d="M26.8254 117.397L26.4147 119.358L26.0659 126.592L41.4212 127.438L40.9444 116.312L39.456 113.86L26.8254 117.397Z" fill="#A0616A"/>
<path d="M33.3335 91.2709C36.9987 91.2709 39.9698 88.2921 39.9698 84.6174C39.9698 80.9428 36.9987 77.9639 33.3335 77.9639C29.6684 77.9639 26.6973 80.9428 26.6973 84.6174C26.6973 88.2921 29.6684 91.2709 33.3335 91.2709Z" fill="#A0616A"/>
<path d="M21.5516 109.159L21.5107 103.628C21.5098 101.638 22.1815 99.7063 23.4162 98.1482C24.651 96.5901 26.3759 95.4975 28.3096 95.0486L28.3346 95.0427L29.6469 93.27L34.9783 93.8047L35.9554 95.8071L39.8187 98.1134L41.3061 102.907C41.9512 103.338 42.501 103.898 42.9214 104.551C43.3417 105.204 43.6236 105.937 43.7495 106.704C44.2545 109.938 41.9961 113.174 41.7274 113.545L41.0352 117.453L25.9775 120.117L25.8553 120.133L21.5516 109.159Z" fill="#0D6EFD"/>
<path d="M41.4541 83.4315C40.6801 83.923 39.8769 84.367 39.0491 84.7609C38.209 85.1656 37.3302 85.4841 36.4262 85.7116C36.1676 85.1426 35.851 84.6019 35.4817 84.098C35.5767 84.6951 35.5792 85.3032 35.4889 85.901C33.9905 86.1434 32.4558 86.0171 31.0169 85.5331L29.7672 83.4315L29.6727 85.7772C28.6373 85.9666 27.6056 86.145 26.5702 86.3308C26.5085 86.3381 26.4467 86.3526 26.3886 86.3636C25.7455 83.457 26.6574 80.2554 28.6846 78.3177C29.691 77.3657 30.9465 76.7199 32.3049 76.4555C33.6632 76.1911 35.0685 76.319 36.3572 76.8243C36.5207 76.8899 36.6878 76.9627 36.8476 77.0392C36.8476 77.0397 36.8477 77.0402 36.8479 77.0406C36.8481 77.0411 36.8483 77.0415 36.8487 77.0418C36.849 77.0422 36.8494 77.0424 36.8499 77.0426C36.8503 77.0428 36.8508 77.0429 36.8513 77.0429C36.9457 77.0902 37.0256 77.2031 37.131 77.1922C41.6648 76.6859 41.8102 80.2117 41.4541 83.4315Z" fill="#2F2E41"/>
<path d="M30.4141 188.862L33.7348 191.423L45.1706 179.801L40.2695 176.02L30.4141 188.862Z" fill="#A0616A"/>
<path d="M30.8512 186.584L36.3416 190.32L34.6111 192.575L36.9496 199.881C37.0651 200.242 37.0626 200.63 36.9424 200.989C36.8221 201.349 36.5905 201.66 36.2813 201.878C35.9721 202.096 35.6015 202.209 35.2236 202.201C34.8457 202.193 34.4803 202.064 34.1808 201.833L27.9312 197.011L28.5659 193.95L26.4335 195.856L24.0771 194.038L30.8512 186.584Z" fill="#2F2E41"/>
<path d="M19.6383 174.677L19.6381 174.633L21.212 171.914L19.6049 168.374L19.5567 159.281L19.8172 157.915C20.1676 156.079 20.0656 154.185 19.5202 152.398L19.4909 146.862C19.4344 145.476 21.577 144.256 21.0773 143.1C16.3546 132.173 25.9 123.837 25.9645 123.77L26.1595 123.567L27.2179 124.371L28.2252 124.372L41.8189 126.855L41.9171 127.039C42.4517 128.044 43.4836 131.51 43.5448 133.078C44.2223 133.865 51.9394 142.818 52.6254 143.44C57.2612 147.645 59.9153 154.606 61.0848 158.38C61.3752 159.313 61.4338 160.303 61.2553 161.264C61.0769 162.225 60.6668 163.127 60.0609 163.893L42.5113 183.165L37.7885 178.795L47.2845 161.446L46.5997 159.686C45.3711 159.458 44.2592 158.811 43.4537 157.853L41.5309 155.565C40.9985 154.933 40.6602 154.16 40.5569 153.339L39.3908 153.199L35.2139 148.802L32.3159 175.114L31.5281 177.192L17.8077 193.364L11.9951 189.722L19.6383 174.677Z" fill="#2F2E41"/>
<path d="M17.543 61.6971C17.2794 62.0298 17.0918 62.4164 16.9933 62.8297C16.8949 63.243 16.888 63.6729 16.9732 64.0891C17.0584 64.5054 17.2336 64.8978 17.4864 65.2388C17.7392 65.5798 18.0635 65.8611 18.4365 66.0628L14.0737 79.0124L17.6362 92.7355L23.3807 90.1318L19.8359 79.7808L22.488 64.7142C22.7845 64.0635 22.8326 63.3264 22.6233 62.6425C22.4139 61.9586 21.9616 61.3754 21.3521 61.0035C20.7426 60.6317 20.0181 60.4968 19.3161 60.6247C18.6141 60.7525 17.9832 61.1341 17.543 61.6971Z" fill="#A0616A"/>
<path d="M22.8011 104.043C22.8011 104.043 21.4519 104.769 20.5136 101.655C19.7624 99.1623 14.6501 85.6262 14.5579 82.0115C14.063 81.9086 13.6163 81.6435 13.2882 81.258C12.96 80.8725 12.7692 80.3885 12.7456 79.8822L20.1706 78.8521C21.4735 79.9443 20.8205 80.8738 20.3201 81.316L22.849 85.6107L28.1348 97.2051L23.7857 103.535L22.8011 104.043Z" fill="#0D6EFD"/>
<path d="M26.5684 86.33C27.3309 84.0246 28.6981 81.9674 30.5267 80.3741C32.3553 78.7809 34.5778 77.7105 36.9611 77.275C36.9706 77.2719 37.0023 77.2591 37.0434 77.2401C37.0687 77.2242 37.1004 77.2084 37.1321 77.1925C37.0371 77.1386 36.9453 77.091 36.8503 77.0433C36.8499 77.0433 36.8495 77.0432 36.8491 77.0431C36.8487 77.0429 36.8484 77.0427 36.8481 77.0424C36.8478 77.0421 36.8475 77.0417 36.8474 77.0414C36.8472 77.041 36.8471 77.0406 36.8472 77.0401C36.7648 76.964 36.6825 76.8878 36.5971 76.8148L36.3565 76.8243C36.3565 76.8243 27.9011 75.4818 26.5684 86.33Z" fill="#FD6584"/>
<path d="M135.673 160.473C136.596 159.083 136.05 157.092 134.453 156.027C132.857 154.962 130.814 155.226 129.892 156.617C128.969 158.007 129.515 159.998 131.112 161.063C132.708 162.128 134.751 161.864 135.673 160.473Z" fill="#F2F2F2"/>
<path d="M116.941 108.569C117.864 107.178 117.318 105.187 115.721 104.122C114.124 103.057 112.082 103.321 111.159 104.712C110.236 106.103 110.783 108.093 112.379 109.158C113.976 110.223 116.018 109.959 116.941 108.569Z" fill="#F2F2F2"/>
<path d="M195.277 188.475C196.2 187.084 195.654 185.093 194.057 184.029C192.461 182.964 190.418 183.228 189.496 184.618C188.573 186.009 189.119 188 190.716 189.065C192.312 190.13 194.355 189.866 195.277 188.475Z" fill="#F2F2F2"/>
<path d="M36.9014 21.4915C37.8242 20.1008 37.278 18.1101 35.6814 17.0451C34.0848 15.9801 32.0424 16.2442 31.1196 17.6348C30.1968 19.0255 30.743 21.0162 32.3396 22.0812C33.9362 23.1461 35.9786 22.8821 36.9014 21.4915Z" fill="#F2F2F2"/>
<path d="M110.81 5.10034C111.733 3.70968 111.187 1.71899 109.59 0.654002C107.994 -0.410982 105.951 -0.146974 105.028 1.24369C104.106 2.63435 104.652 4.62506 106.248 5.69005C107.845 6.75503 109.887 6.491 110.81 5.10034Z" fill="#F2F2F2"/>
<path d="M75.8311 142.619C76.7539 141.228 76.2077 139.238 74.6111 138.173C73.0145 137.108 70.9721 137.372 70.0493 138.762C69.1265 140.153 69.6727 142.144 71.2693 143.209C72.8659 144.274 74.9083 144.01 75.8311 142.619Z" fill="#E6E6E6"/>
<path d="M228.289 215H6.8028C6.69545 215 6.5926 214.957 6.5168 214.881C6.441 214.804 6.39844 214.701 6.39844 214.594C6.39844 214.486 6.441 214.383 6.5168 214.307C6.5926 214.23 6.69545 214.187 6.8028 214.187H228.289C228.396 214.187 228.499 214.23 228.575 214.306C228.651 214.382 228.694 214.486 228.694 214.594C228.694 214.701 228.651 214.805 228.575 214.881C228.499 214.957 228.396 215 228.289 215Z" fill="#CCCCCC"/>
<path d="M48.0268 79.9613C46.1637 79.9559 44.3679 79.2623 42.9828 78.0131C41.5977 76.7638 40.7203 75.0466 40.5184 73.1896L36.1945 32.9269C35.982 30.9279 36.5692 28.926 37.8271 27.3604C39.085 25.7948 40.911 24.7935 42.9044 24.576L171.293 10.7161C173.286 10.503 175.283 11.0916 176.845 12.3528C178.406 13.614 179.405 15.4447 179.622 17.4433L183.946 57.7058C184.158 59.705 183.571 61.707 182.313 63.2726C181.055 64.8382 179.229 65.8396 177.236 66.0571L177.218 65.8873L177.236 66.0571L48.8478 79.917C48.5751 79.9465 48.3011 79.9613 48.0268 79.9613Z" fill="#E6E6E6"/>
<path d="M169.878 12.5855C169.637 12.5855 169.396 12.5986 169.156 12.6245L45.3972 25.9847C44.5318 26.0781 43.6933 26.3415 42.9294 26.7598C42.1656 27.1781 41.4914 27.7432 40.9454 28.4228C40.3994 29.1023 39.9922 29.883 39.7472 30.7204C39.5021 31.5577 39.4239 32.4352 39.5171 33.3028L41.7033 53.66C42.0567 56.951 43.0532 60.14 44.6358 63.0449C46.2185 65.9498 48.3563 68.5137 50.9273 70.5902C53.4982 72.6667 56.4519 74.2152 59.6198 75.1472C62.7876 76.0793 66.1076 76.3766 69.39 76.0222L156.413 66.6277C159.686 66.2744 162.857 65.2784 165.745 63.6965C168.634 62.1145 171.183 59.9776 173.248 57.4078C175.313 54.838 176.853 51.8856 177.78 48.7192C178.706 45.5528 179.002 42.2344 178.65 38.9534L176.455 18.5198C176.28 16.8922 175.512 15.3866 174.299 14.2915C173.085 13.1964 171.511 12.5889 169.878 12.5854V12.5855Z" fill="white"/>
<path d="M143.816 33.7714L74.6455 41.2386C74.4478 41.2602 74.2477 41.2426 74.0567 41.1866C73.8658 41.1306 73.6877 41.0374 73.5327 40.9124C73.3776 40.7874 73.2487 40.6329 73.1533 40.4579C73.0579 40.2829 72.9978 40.0907 72.9765 39.8924C72.9552 39.6941 72.9731 39.4935 73.0292 39.3021C73.0852 39.1107 73.1784 38.9323 73.3033 38.7771C73.4282 38.6218 73.5825 38.4928 73.7572 38.3973C73.9318 38.3019 74.1236 38.2419 74.3214 38.2208L143.492 30.7536C143.69 30.7319 143.89 30.7496 144.081 30.8056C144.272 30.8616 144.45 30.9547 144.605 31.0798C144.76 31.2048 144.889 31.3593 144.984 31.5343C145.08 31.7093 145.14 31.9015 145.161 32.0998C145.182 32.2981 145.164 32.4987 145.108 32.6901C145.052 32.8815 144.959 33.0599 144.834 33.2151C144.709 33.3704 144.555 33.4994 144.38 33.5949C144.206 33.6903 144.014 33.7503 143.816 33.7714Z" fill="#0D6EFD"/>
<path d="M144.811 43.0334L75.6406 50.5006C75.2414 50.5437 74.8416 50.4261 74.5289 50.1735C74.2163 49.921 74.0165 49.5544 73.9735 49.1542C73.9306 48.754 74.0479 48.3531 74.2998 48.0396C74.5516 47.7262 74.9173 47.5259 75.3165 47.4828L144.487 40.0156C144.886 39.9725 145.286 40.0901 145.599 40.3426C145.911 40.5951 146.111 40.9618 146.154 41.362C146.197 41.7622 146.08 42.1631 145.828 42.4766C145.576 42.79 145.21 42.9903 144.811 43.0334Z" fill="#0D6EFD"/>
<path d="M84.696 58.892L76.6352 59.7622C76.2361 59.8053 75.8362 59.6876 75.5236 59.4351C75.2109 59.1826 75.0112 58.8159 74.9682 58.4158C74.9252 58.0156 75.0425 57.6146 75.2944 57.3012C75.5462 56.9878 75.912 56.7875 76.3111 56.7444L84.3719 55.8742C84.5697 55.8526 84.7698 55.8702 84.9608 55.9262C85.1517 55.9822 85.3298 56.0754 85.4848 56.2004C85.6398 56.3254 85.7688 56.4799 85.8642 56.6549C85.9596 56.8299 86.0197 57.0221 86.041 57.2204C86.0623 57.4187 86.0444 57.6193 85.9883 57.8107C85.9322 58.0021 85.8391 58.1805 85.7142 58.3357C85.5892 58.491 85.435 58.62 85.2603 58.7155C85.0856 58.8109 84.8939 58.8709 84.696 58.892Z" fill="#0D6EFD"/>
<path d="M45.3048 34.6258C46.8097 34.6258 48.0296 33.4027 48.0296 31.8939C48.0296 30.3852 46.8097 29.1621 45.3048 29.1621C43.8 29.1621 42.5801 30.3852 42.5801 31.8939C42.5801 33.4027 43.8 34.6258 45.3048 34.6258Z" fill="#3F3D56"/>
<path d="M167.237 20.9666C168.742 20.9666 169.962 19.7435 169.962 18.2348C169.962 16.726 168.742 15.5029 167.237 15.5029C165.733 15.5029 164.513 16.726 164.513 18.2348C164.513 19.7435 165.733 20.9666 167.237 20.9666Z" fill="#3F3D56"/>
<path d="M130.4 77.0503C130.15 76.8298 129.951 76.5562 129.82 76.2493C129.688 75.9424 129.626 75.6099 129.638 75.276C129.775 71.3081 129.123 67.3525 127.721 63.6396C127.602 63.3275 127.554 62.9927 127.58 62.6596C127.607 62.3265 127.706 62.0035 127.873 61.714C128.032 61.4358 128.251 61.196 128.512 61.0113C128.774 60.8267 129.073 60.7018 129.388 60.6453C132.555 58.7291 135.802 58.1912 139.04 59.0467C139.562 58.9697 140.094 59.0817 140.542 59.3628C140.989 59.6439 141.321 60.0755 141.48 60.5803C142.791 64.8474 143.52 69.2727 143.647 73.7359C143.66 74.2713 143.479 74.7932 143.138 75.2056C142.797 75.6181 142.32 75.8935 141.793 75.9812L132.211 77.5683C131.889 77.6222 131.56 77.6037 131.247 77.5141C130.934 77.4245 130.644 77.266 130.4 77.0503Z" fill="#0D6EFD"/>
<path d="M131.251 65.4889L139.316 64.153C139.382 64.1422 139.446 64.1184 139.503 64.0829C139.56 64.0474 139.61 64.001 139.649 63.9463C139.688 63.8915 139.716 63.8296 139.732 63.764C139.747 63.6984 139.749 63.6304 139.738 63.564C139.727 63.4975 139.703 63.4339 139.668 63.3767C139.632 63.3195 139.586 63.2699 139.531 63.2307C139.476 63.1916 139.415 63.1636 139.349 63.1484C139.284 63.1332 139.216 63.1312 139.15 63.1423L131.085 64.4782C130.951 64.5006 130.832 64.5752 130.753 64.6855C130.675 64.7959 130.643 64.933 130.665 65.0668C130.687 65.2007 130.761 65.3203 130.871 65.3994C130.981 65.4785 131.118 65.5107 131.251 65.4889Z" fill="white"/>
<path d="M131.917 69.5322L139.982 68.1963C140.116 68.1742 140.235 68.0997 140.314 67.9892C140.393 67.8788 140.425 67.7415 140.403 67.6074C140.381 67.4734 140.306 67.3537 140.196 67.2745C140.086 67.1954 139.949 67.1634 139.815 67.1856L131.751 68.5214C131.684 68.5323 131.621 68.5561 131.564 68.5916C131.506 68.627 131.457 68.6735 131.418 68.7282C131.378 68.7829 131.35 68.8448 131.335 68.9104C131.32 68.976 131.318 69.044 131.329 69.1105C131.34 69.1769 131.363 69.2406 131.399 69.2978C131.435 69.355 131.481 69.4046 131.536 69.4437C131.59 69.4829 131.652 69.5109 131.718 69.526C131.783 69.5412 131.851 69.5433 131.917 69.5322Z" fill="white"/>
<path d="M132.583 73.5751L140.648 72.2393C140.782 72.2171 140.901 72.1426 140.98 72.0322C141.059 71.9218 141.091 71.7844 141.069 71.6504C141.047 71.5164 140.973 71.3966 140.863 71.3175C140.752 71.2384 140.615 71.2064 140.482 71.2285L132.417 72.5644C132.351 72.5754 132.287 72.5993 132.23 72.6348C132.173 72.6703 132.124 72.7168 132.085 72.7715C132.046 72.8261 132.018 72.888 132.003 72.9535C131.987 73.019 131.985 73.0869 131.996 73.1533C132.007 73.2196 132.031 73.2832 132.066 73.3403C132.102 73.3974 132.148 73.447 132.203 73.4862C132.257 73.5253 132.319 73.5533 132.384 73.5686C132.45 73.5839 132.517 73.5861 132.583 73.5751Z" fill="white"/>
</g>
<defs>
<clipPath id="clip0_164_454">
<rect width="249" height="215" fill="white"/>
</clipPath>
</defs>
</svg>
