<svg width="552" height="276" viewBox="0 0 552 276" fill="none" xmlns="http://www.w3.org/2000/svg">
<g clip-path="url(#clip0_273_11488)">
<path d="M181.785 276.001C165.129 276.001 148.497 275.704 131.891 275.109C108.162 274.259 83.6259 273.38 60.8202 260.764C44.8666 251.94 30.7373 237.781 19.96 219.819C12.7567 207.644 7.47488 194.436 4.30013 180.659C-1.62198 155.575 -1.42027 129.44 4.88832 104.45C7.09909 95.8819 10.1468 87.5507 13.9877 79.576C30.619 45.2249 60.9532 22.1659 97.2127 16.3121C97.5121 16.2733 97.8149 16.2669 98.1157 16.2929C98.2788 16.3016 98.4414 16.3109 98.6071 16.304L98.8204 16.2363C99.3673 16.0468 99.9291 15.903 100.5 15.8064C156.422 7.50283 215.539 24.304 271.456 64.3922C314.692 95.3926 371.991 112.086 446.628 115.426L447.688 115.481C468.465 116.672 488.563 125.215 505.811 140.19C522.835 154.97 535.617 174.689 542.776 197.217C543.656 199.964 544.463 202.823 545.174 205.714C545.835 208.401 545.789 211.214 545.038 213.878C544.287 216.541 542.858 218.966 540.889 220.916V220.921L540.703 221.112C540.256 221.555 539.785 221.981 539.304 222.377L538.738 222.843C533.968 226.762 530.201 229.857 525.692 232.262C522.685 233.855 519.486 235.059 516.174 235.846C497.986 240.269 479.515 244.369 461.276 248.035C425.853 255.158 389.498 261.035 353.219 265.5C296.343 272.495 239.091 276.002 181.785 276.001ZM97.6917 17.5095C97.5803 17.5085 97.469 17.516 97.3587 17.532C61.4383 23.3311 31.3912 46.1637 14.9248 80.1748C11.1218 88.0705 8.10427 96.3191 5.91549 104.802C-0.335614 129.571 -0.534819 155.474 5.33462 180.335C8.47829 193.98 13.7089 207.062 20.8427 219.12C31.5144 236.907 45.4993 250.923 61.2856 259.654C83.8866 272.158 108.307 273.032 131.924 273.878C205.79 276.51 279.748 273.3 353.104 264.276C389.36 259.813 425.692 253.941 461.091 246.821C479.318 243.159 497.776 239.062 515.952 234.641C519.184 233.874 522.306 232.699 525.24 231.145C529.658 228.789 533.39 225.723 538.114 221.841L538.68 221.376C539.093 221.035 539.5 220.671 539.888 220.292L540 220.176C543.882 216.273 545.392 211.124 544.142 206.049V206.048C543.438 203.188 542.64 200.359 541.769 197.641C527.146 151.621 489.317 119.099 447.636 116.711L446.583 116.656C412.489 115.13 382.655 110.903 355.379 103.733C322.818 95.1731 294.391 82.2882 270.889 65.4366C215.184 25.502 156.314 8.76336 100.636 17.0276C100.116 17.1171 99.6047 17.2494 99.1065 17.4232L98.722 17.5305C98.5035 17.5403 98.2847 17.5377 98.0665 17.5227C97.938 17.5161 97.8134 17.5095 97.6917 17.5095H97.6917Z" fill="#F0F0F0"/>
<path d="M172.422 89.9247C170.88 88.4491 169.303 80.2205 167.334 79.3852C168.806 82.629 167.737 83.4878 167.73 87.0478C167.748 89.0692 167.511 91.085 167.025 93.0474H133.677V67.0891C133.677 64.7567 134.138 62.4471 135.033 60.2922C135.927 58.1373 137.239 56.1793 138.893 54.53C140.546 52.8808 142.509 51.5725 144.67 50.6799C146.83 49.7874 149.146 49.3281 151.484 49.3281C152.377 49.3455 153.264 49.475 154.124 49.7135C156.99 50.4854 159.602 51.9955 161.699 54.0924C163.795 56.1892 165.302 58.7991 166.068 61.6602C168.611 70.9284 172.654 86.3561 172.422 89.9247Z" fill="#2F2E41"/>
<path d="M135.634 121.858L135.651 101.625L123.726 102.688L127.935 115.449L125.965 147.524C125.01 147.737 124.138 148.224 123.455 148.924C122.772 149.623 122.308 150.506 122.119 151.464C121.931 152.422 122.026 153.415 122.393 154.32C122.76 155.225 123.383 156.004 124.186 156.562C124.99 157.121 125.939 157.433 126.917 157.463C127.896 157.493 128.862 157.237 129.697 156.729C130.533 156.22 131.202 155.48 131.624 154.599C132.045 153.717 132.2 152.733 132.07 151.765L135.634 121.858Z" fill="#FFB6B6"/>
<path d="M159.101 266.444L163.918 266.443L166.21 247.91H159.1L159.101 266.444Z" fill="#FFB6B6"/>
<path d="M157.469 264.074L165.084 263.621V266.875L172.325 271.863C172.682 272.109 172.952 272.463 173.093 272.873C173.235 273.283 173.242 273.727 173.112 274.141C172.983 274.554 172.724 274.916 172.374 275.173C172.024 275.43 171.601 275.568 171.166 275.568H162.1L160.537 272.349L159.927 275.568H156.509L157.469 264.074Z" fill="#2F2E41"/>
<path d="M131.246 266.444L136.064 266.443L138.355 247.91H131.245L131.246 266.444Z" fill="#FFB6B6"/>
<path d="M129.615 264.074L137.23 263.621V266.875L144.47 271.863C144.828 272.109 145.097 272.463 145.239 272.873C145.38 273.283 145.387 273.727 145.258 274.141C145.129 274.554 144.87 274.916 144.52 275.173C144.17 275.43 143.747 275.568 143.312 275.568H134.246L132.683 272.349L132.073 275.568H128.654L129.615 264.074Z" fill="#2F2E41"/>
<path d="M154.811 79.7734L144.831 79.9686L137.787 87.3853L132.139 88.2115C129.584 88.5852 127.235 89.8222 125.485 91.7158C123.735 93.6093 122.69 96.0447 122.523 98.6148L123.502 103.975H129.372L132.768 123.864C131.448 127.22 131.358 129.869 134.069 130.909L142.483 146.719L167.334 135.594C168.595 133.433 168.999 131.262 167.71 129.151L169.487 98.7054H175.46C175.46 93.0112 173.529 88.2107 167.856 87.5771C165.603 87.3339 163.339 87.2047 161.073 87.1901L154.811 79.7734Z" fill="#E6E6E6"/>
<path d="M167.334 135.594C167.334 135.594 143.07 139.888 134.069 130.91C134.069 130.91 133.155 132.458 131.778 135.024C131.382 135.762 130.617 136.262 130.155 137.156C129.735 137.968 128.656 138.967 128.198 139.889C127.83 140.63 128.421 141.599 128.038 142.399C123.428 152.043 118.042 165.647 119.197 174.629C119.941 180.422 121.479 193.901 123.099 208.379C123.226 209.51 122.201 210.963 122.328 212.103C122.448 213.178 123.72 213.94 123.84 215.018C123.919 215.733 123.031 216.463 123.111 217.178C123.198 217.962 124.253 218.73 124.339 219.511C126.558 239.502 128.59 258.165 128.59 258.165H139.939L142.08 215.54L140.33 200.002L144.44 168.579L150.114 198.441L150.844 215.247L156.842 258.945H167.334V216.643L168.117 214.445L167.334 211.627L168.117 208.59L167.334 205.283V135.594Z" fill="#2F2E41"/>
<path d="M157.874 74.0026C156.328 76.0508 154.129 77.5129 151.639 78.148C149.149 78.783 146.516 78.5533 144.174 77.4965C141.832 76.4397 139.921 74.619 138.755 72.3341C137.589 70.0492 137.238 67.4364 137.76 64.9261C138.282 62.4157 139.645 60.1574 141.626 58.5231C143.606 56.8889 146.086 55.9761 148.656 55.935C151.226 55.894 153.733 56.7272 155.765 58.2974C157.797 59.8677 159.232 62.0813 159.834 64.5737C159.867 64.7089 159.894 64.8434 159.921 64.983C160.239 66.5453 160.221 68.1571 159.868 69.7119C159.515 71.2667 158.836 72.7291 157.874 74.0026Z" fill="#FFB6B6"/>
<path d="M155.515 67.5655C155.275 66.3642 154.668 65.2665 153.778 64.4232C153.866 65.5744 153.706 66.731 153.308 67.8154C150.333 68.0782 147.344 67.4877 144.694 66.1134C142.698 64.7628 140.158 64.8799 137.2 66.1134C137.2 64.6781 137.483 63.2567 138.033 61.9306C138.584 60.6044 139.391 59.3994 140.409 58.3845C141.426 57.3695 142.635 56.5644 143.964 56.0152C145.294 55.466 146.719 55.1834 148.158 55.1836H150.115C153.021 55.1841 155.808 56.3358 157.863 58.3855C159.918 60.4351 161.072 63.2148 161.073 66.1134C159.267 66.7595 157.407 67.2454 155.515 67.5655Z" fill="#2F2E41"/>
<path d="M69.906 206.87C87.2925 206.87 101.387 192.812 101.387 175.47C101.387 158.129 87.2925 144.07 69.906 144.07C52.5194 144.07 38.4248 158.129 38.4248 175.47C38.4248 192.812 52.5194 206.87 69.906 206.87Z" fill="#F0F0F0"/>
<path d="M270.521 62.7997C287.908 62.7997 302.002 48.7415 302.002 31.3999C302.002 14.0582 287.908 0 270.521 0C253.135 0 239.04 14.0582 239.04 31.3999C239.04 48.7415 253.135 62.7997 270.521 62.7997Z" fill="#F0F0F0"/>
<path d="M520.519 211.796C537.905 211.796 552 197.738 552 180.396C552 163.054 537.905 148.996 520.519 148.996C503.132 148.996 489.038 163.054 489.038 180.396C489.038 197.738 503.132 211.796 520.519 211.796Z" fill="#F0F0F0"/>
<path d="M327.311 34.8242V106.026C327.311 107.505 326.726 108.924 325.683 109.975C324.64 111.026 323.223 111.625 321.741 111.64C321.72 111.642 321.7 111.643 321.679 111.643H313.371C306.723 111.643 300.347 109.009 295.647 104.32C290.946 99.6316 288.305 93.2725 288.305 86.6419V34.8241C288.305 33.3344 288.899 31.9057 289.955 30.8522C291.011 29.7988 292.443 29.207 293.937 29.207H297.303C295.744 33.745 316.912 35.6556 318.074 29.207H321.679C323.173 29.207 324.605 29.7989 325.661 30.8523C326.717 31.9057 327.311 33.3344 327.311 34.8242Z" fill="#0D6EFD"/>
<path d="M302.655 23.8846C302.656 23.6894 302.733 23.5023 302.872 23.3643C303.01 23.2263 303.198 23.1487 303.393 23.1484H308.412C308.607 23.149 308.795 23.2268 308.933 23.3648C309.071 23.5028 309.148 23.6897 309.148 23.8846C309.148 24.0794 309.071 24.2664 308.933 24.4044C308.795 24.5424 308.607 24.6202 308.412 24.6207H303.393C303.198 24.6205 303.01 24.5429 302.872 24.4049C302.733 24.2669 302.656 24.0797 302.655 23.8846Z" fill="#3F3D56"/>
<path d="M323.403 120.674H291.665C289.203 120.672 286.842 119.695 285.101 117.958C283.36 116.221 282.38 113.867 282.378 111.411V61.6382C282.203 61.5134 282.061 61.3489 281.964 61.1584C281.866 60.968 281.815 60.757 281.815 60.543V55.5373C281.815 55.3233 281.866 55.1124 281.964 54.922C282.061 54.7316 282.203 54.5672 282.378 54.4424V53.0989C282.203 52.9741 282.061 52.8097 281.964 52.6193C281.866 52.4289 281.815 52.218 281.815 52.004V46.998C281.815 46.784 281.866 46.5731 281.964 46.3827C282.061 46.1923 282.203 46.0279 282.378 45.9031V43.4749C282.162 43.3597 281.983 43.1882 281.858 42.979C281.733 42.7697 281.667 42.5305 281.667 42.2868V37.2811C281.667 37.0375 281.732 36.7982 281.858 36.5889C281.983 36.3796 282.162 36.2081 282.378 36.0927V29.4393C282.38 26.9832 283.36 24.6287 285.101 22.892C286.842 21.1554 289.203 20.1785 291.665 20.1758H323.403C325.866 20.1785 328.226 21.1554 329.968 22.8921C331.709 24.6287 332.688 26.9833 332.691 29.4393V43.9424C332.858 44.0468 332.996 44.1918 333.092 44.3639C333.187 44.536 333.237 44.7296 333.238 44.9263V54.4713C333.237 54.6681 333.187 54.8616 333.092 55.0338C332.996 55.206 332.858 55.3511 332.691 55.4555V111.411C332.688 113.867 331.709 116.221 329.968 117.958C328.226 119.695 325.866 120.672 323.403 120.674ZM291.665 21.4071C289.53 21.4095 287.483 22.2565 285.974 23.7623C284.464 25.2681 283.615 27.3097 283.612 29.4393V37.1402L283.018 37.163C282.987 37.1641 282.958 37.177 282.937 37.1989C282.915 37.2209 282.903 37.2503 282.902 37.2811V42.2868C282.903 42.3176 282.915 42.347 282.937 42.3689C282.958 42.3909 282.988 42.4038 283.018 42.405L283.612 42.4275V46.7677L283.143 46.8831C283.117 46.8894 283.093 46.904 283.077 46.9248C283.06 46.9456 283.05 46.9713 283.05 46.998V52.004C283.05 52.0307 283.06 52.0564 283.077 52.0772C283.093 52.0979 283.117 52.1126 283.143 52.1188L283.612 52.2343V55.307L283.143 55.4224C283.117 55.4287 283.093 55.4433 283.077 55.4641C283.06 55.4849 283.05 55.5106 283.05 55.5373V60.543C283.05 60.5697 283.06 60.5955 283.076 60.6163C283.093 60.6371 283.116 60.6518 283.143 60.6581L283.612 60.7736V111.411C283.615 113.54 284.464 115.582 285.974 117.088C287.483 118.594 289.53 119.441 291.665 119.443H323.403C325.538 119.441 327.585 118.594 329.095 117.088C330.605 115.582 331.454 113.54 331.456 111.411V54.4012H332.003V44.9967H331.456V29.4393C331.454 27.3097 330.605 25.2682 329.095 23.7624C327.585 22.2566 325.538 21.4096 323.403 21.4071L291.665 21.4071Z" fill="#3F3D56"/>
<path d="M311.217 24.6207C311.624 24.6207 311.955 24.2911 311.955 23.8846C311.955 23.478 311.624 23.1484 311.217 23.1484C310.809 23.1484 310.479 23.478 310.479 23.8846C310.479 24.2911 310.809 24.6207 311.217 24.6207Z" fill="#3F3D56"/>
<path d="M150.665 166.484H68.0816C66.9088 166.481 65.7849 166.015 64.9556 165.187C64.1263 164.36 63.6589 163.239 63.6558 162.07V121.934C63.6588 120.764 64.126 119.643 64.9552 118.816C65.7844 117.989 66.9082 117.523 68.081 117.52H150.665C151.838 117.523 152.961 117.989 153.791 118.816C154.62 119.643 155.087 120.764 155.091 121.933V162.069C155.088 163.239 154.62 164.36 153.791 165.187C152.962 166.014 151.838 166.48 150.665 166.484Z" fill="white"/>
<path d="M150.665 166.484H68.0816C66.9088 166.481 65.7849 166.015 64.9556 165.187C64.1263 164.36 63.6589 163.239 63.6558 162.07V121.934C63.6588 120.764 64.126 119.643 64.9552 118.816C65.7844 117.989 66.9082 117.523 68.081 117.52H150.665C151.838 117.523 152.961 117.989 153.791 118.816C154.62 119.643 155.087 120.764 155.091 121.933V162.069C155.088 163.239 154.62 164.36 153.791 165.187C152.962 166.014 151.838 166.48 150.665 166.484ZM68.0816 118.751C67.2359 118.753 66.4255 119.09 65.8276 119.686C65.2296 120.283 64.8927 121.091 64.8903 121.935V162.069C64.8928 162.913 65.2299 163.721 65.8279 164.317C66.426 164.914 67.2365 165.25 68.0822 165.252H150.664C151.51 165.25 152.321 164.914 152.919 164.317C153.517 163.721 153.854 162.912 153.856 162.069V121.934C153.854 121.09 153.516 120.282 152.918 119.686C152.32 119.089 151.51 118.753 150.664 118.751L68.0816 118.751Z" fill="#3F3D56"/>
<path d="M113.799 160.552C97.5122 160.552 80.5289 160.397 74.1923 160.296C73.3586 160.279 72.5647 159.937 71.98 159.344C71.3953 158.751 71.0662 157.954 71.063 157.122V123.899C71.0633 123.601 71.1819 123.315 71.3928 123.104C71.6036 122.893 71.8897 122.775 72.1883 122.773H146.555C146.854 122.774 147.14 122.892 147.351 123.102C147.563 123.313 147.682 123.598 147.683 123.896V146.437C147.669 150.117 146.21 153.644 143.619 156.263C141.027 158.882 137.51 160.383 133.821 160.445C127.915 160.522 120.922 160.552 113.799 160.552Z" fill="#0D6EFD"/>
<path d="M142.141 144.366H74.9446C74.382 144.365 73.8335 144.19 73.3736 143.867C72.9137 143.544 72.5648 143.087 72.3743 142.559L64.7686 121.277C64.622 120.866 64.5764 120.427 64.6354 119.995C64.6945 119.563 64.8565 119.152 65.108 118.796C65.3594 118.439 65.6929 118.149 66.0804 117.947C66.468 117.746 66.8982 117.641 67.3351 117.64L151.329 117.523C151.729 117.523 152.123 117.61 152.485 117.778C152.847 117.946 153.168 118.192 153.424 118.497C153.681 118.802 153.867 119.159 153.97 119.544C154.073 119.929 154.09 120.332 154.02 120.724L154.085 120.751L153.844 121.312L153.842 121.318L144.647 142.716C144.438 143.206 144.089 143.624 143.643 143.917C143.197 144.21 142.675 144.367 142.141 144.366ZM151.333 118.755L67.3375 118.871C67.0982 118.872 66.8625 118.93 66.6502 119.04C66.4378 119.15 66.2551 119.309 66.1174 119.504C65.9796 119.699 65.8908 119.925 65.8585 120.161C65.8261 120.398 65.8511 120.639 65.9314 120.863L73.5368 142.144C73.6413 142.434 73.8326 142.684 74.0846 142.861C74.3366 143.038 74.6372 143.134 74.9455 143.135H142.141C142.433 143.135 142.719 143.049 142.963 142.889C143.207 142.728 143.398 142.5 143.512 142.232L152.707 120.833L153.159 121.026L152.707 120.833C152.805 120.606 152.844 120.359 152.822 120.113C152.8 119.867 152.717 119.631 152.581 119.425C152.445 119.219 152.26 119.05 152.042 118.933C151.824 118.816 151.581 118.755 151.333 118.755Z" fill="#3F3D56"/>
<path d="M109.248 148.996C112.153 148.996 114.509 146.647 114.509 143.748C114.509 140.85 112.153 138.5 109.248 138.5C106.342 138.5 103.986 140.85 103.986 143.748C103.986 146.647 106.342 148.996 109.248 148.996Z" fill="white"/>
<path d="M308.011 103.438C310.917 103.438 313.273 101.088 313.273 98.1895C313.273 95.2911 310.917 92.9414 308.011 92.9414C305.105 92.9414 302.75 95.2911 302.75 98.1895C302.75 101.088 305.105 103.438 308.011 103.438Z" fill="white"/>
<path d="M507.019 174.311L492.964 160.47C492.279 159.791 491.468 159.253 490.575 158.888C489.682 158.522 488.725 158.336 487.76 158.34H487.711C486.738 158.343 485.776 158.538 484.879 158.914C483.983 159.29 483.17 159.84 482.488 160.532C479.346 163.704 477.558 167.968 477.502 172.427C477.445 176.887 479.124 181.194 482.186 184.445C482.334 184.605 482.488 184.759 482.643 184.913C483.498 185.76 484.441 186.514 485.458 187.16C488.236 188.951 491.476 189.898 494.785 189.888H494.89C497.16 189.88 499.407 189.423 501.499 188.544C503.592 187.665 505.489 186.38 507.081 184.765C508.46 183.369 509.228 181.485 509.217 179.525C509.205 177.565 508.415 175.69 507.019 174.311ZM506.204 183.897C503.595 186.519 500.159 188.164 496.475 188.554C492.792 188.944 489.086 188.056 485.982 186.039C485.095 185.454 484.266 184.783 483.507 184.039C480.478 181.055 478.762 176.994 478.735 172.749C478.709 168.503 480.374 164.421 483.365 161.4C483.934 160.822 484.612 160.363 485.36 160.049C486.108 159.735 486.911 159.573 487.723 159.571H487.76C488.564 159.568 489.36 159.724 490.104 160.028C490.847 160.332 491.523 160.779 492.093 161.344L506.149 175.191C507.312 176.339 507.972 177.9 507.982 179.533C507.992 181.165 507.353 182.734 506.204 183.897Z" fill="#3F3D56"/>
<path d="M460.902 128.887L446.847 115.04C445.463 113.671 443.592 112.905 441.643 112.91H441.6C440.626 112.914 439.662 113.11 438.765 113.488C437.868 113.865 437.054 114.416 436.371 115.108C433.773 117.74 432.089 121.133 431.564 124.789C431.04 128.445 431.704 132.173 433.458 135.426L433.464 135.432C434.188 136.762 435.087 137.99 436.137 139.083C436.254 139.218 436.39 139.354 436.526 139.489C439.753 142.685 444.12 144.474 448.668 144.464H448.779C451.05 144.454 453.296 143.996 455.389 143.116C457.481 142.236 459.378 140.951 460.97 139.335C461.653 138.645 462.194 137.827 462.56 136.928C462.927 136.029 463.112 135.067 463.106 134.097C463.099 133.127 462.901 132.167 462.523 131.274C462.145 130.38 461.594 129.569 460.902 128.887V128.887ZM460.087 138.473C458.61 139.973 456.849 141.165 454.907 141.982C452.965 142.799 450.88 143.224 448.772 143.233H448.668C445.502 143.231 442.408 142.297 439.774 140.546C437.14 138.796 435.084 136.307 433.864 133.394C432.644 130.481 432.315 127.273 432.918 124.174C433.522 121.075 435.03 118.223 437.254 115.976C438.405 114.816 439.97 114.158 441.607 114.148C443.243 114.137 444.817 114.775 445.982 115.921L460.038 129.761C461.201 130.911 461.859 132.474 461.868 134.107C461.877 135.74 461.237 137.311 460.087 138.473L460.087 138.473Z" fill="#3F3D56"/>
<path d="M507.917 178.663L492.421 163.398C491.405 162.399 490.034 161.843 488.607 161.852C487.18 161.86 485.816 162.433 484.812 163.445C483.557 164.71 482.563 166.209 481.889 167.857C481.215 169.505 480.873 171.27 480.884 173.05C480.894 174.83 481.255 176.591 481.948 178.231C482.641 179.872 483.651 181.36 484.921 182.611C486.19 183.861 487.695 184.85 489.348 185.521C491.001 186.191 492.771 186.53 494.555 186.518C496.34 186.506 498.105 186.143 499.749 185.451C501.392 184.758 502.883 183.749 504.136 182.481L507.917 178.663Z" fill="#0D6EFD"/>
<path d="M461.803 133.237L446.308 117.972C445.292 116.973 443.92 116.417 442.493 116.426C441.067 116.435 439.702 117.008 438.698 118.019C437.443 119.284 436.45 120.783 435.776 122.432C435.101 124.08 434.76 125.844 434.77 127.624C434.78 129.404 435.142 131.165 435.834 132.805C436.527 134.446 437.537 135.934 438.807 137.185C440.077 138.436 441.581 139.425 443.234 140.095C444.887 140.766 446.657 141.104 448.441 141.092C450.226 141.08 451.991 140.718 453.635 140.025C455.279 139.332 456.77 138.323 458.022 137.055L461.803 133.237Z" fill="#0D6EFD"/>
<path d="M490.889 188.172L490.519 189.145C488.778 188.486 487.091 187.825 485.457 187.162C456.519 175.384 442.705 161.599 433.464 135.432L433.458 135.426C433.02 134.195 432.594 132.935 432.18 131.646L433.155 131.332C433.482 132.572 433.958 133.767 434.575 134.891C435.081 136.325 435.602 137.723 436.137 139.083C444.822 161.168 457.631 173.79 482.186 184.447C483.42 184.983 484.686 185.514 485.982 186.042C487.487 187.02 489.146 187.74 490.889 188.172Z" fill="#3F3D56"/>
<path d="M446.589 143.342L445.721 144.219L477.781 175.802L478.649 174.926L446.589 143.342Z" fill="#3F3D56"/>
<path d="M175.162 117.174L175.178 96.9414L163.254 98.0042L167.462 110.765L152.186 133.862C151.231 134.076 150.359 134.562 149.676 135.262C148.993 135.962 148.529 136.844 148.341 137.803C148.152 138.761 148.247 139.753 148.614 140.658C148.981 141.563 149.604 142.343 150.408 142.901C151.211 143.459 152.16 143.772 153.138 143.801C154.117 143.831 155.083 143.576 155.919 143.067C156.754 142.559 157.424 141.818 157.845 140.937C158.266 140.056 158.421 139.071 158.291 138.103L175.162 117.174Z" fill="#FFB6B6"/>
</g>
<defs>
<clipPath id="clip0_273_11488">
<rect width="552" height="276" fill="white"/>
</clipPath>
</defs>
</svg>
