<svg width="16" height="14" viewBox="0 0 16 14" fill="none" xmlns="http://www.w3.org/2000/svg">
<path d="M11.9552 11.4139C12.8364 11.4859 13.7229 11.3724 14.5576 11.0807C14.5895 10.6879 14.5095 10.2942 14.3269 9.94494C14.1443 9.59574 13.8666 9.30537 13.5258 9.10742C13.1851 8.90947 12.7953 8.81203 12.4015 8.82638C12.0077 8.84074 11.626 8.96629 11.3006 9.18851M11.9552 11.4139V11.4348C11.9552 11.5913 11.9468 11.7457 11.9294 11.8981C10.6671 12.6223 9.23662 13.0023 7.78125 13C6.27169 13 4.85465 12.5993 3.63308 11.8981C3.6152 11.7371 3.60661 11.5752 3.60735 11.4132M11.9552 11.4139C11.9525 10.6255 11.7254 9.8527 11.3006 9.18851M11.3006 9.18851C10.9234 8.59706 10.4032 8.11098 9.78809 7.77391C9.17294 7.43685 8.4827 7.26039 7.78125 7.26086C7.07992 7.2605 6.38983 7.43702 5.77481 7.77408C5.15978 8.11114 4.63969 8.59786 4.26265 9.18921M3.60735 11.4132C2.72639 11.4878 1.84033 11.3747 1.0063 11.0814C0.974548 10.6887 1.05458 10.2951 1.23714 9.94601C1.4197 9.59692 1.69734 9.30663 2.03796 9.10871C2.37857 8.91079 2.76825 8.81332 3.16193 8.82756C3.55562 8.84181 3.93723 8.96719 4.26265 9.18921M3.60735 11.4132C3.60984 10.6248 3.83804 9.85347 4.26265 9.18921M9.86821 3.08695C9.86821 3.64045 9.64833 4.17127 9.25695 4.56265C8.86557 4.95403 8.33475 5.17391 7.78125 5.17391C7.22776 5.17391 6.69693 4.95403 6.30556 4.56265C5.91418 4.17127 5.6943 3.64045 5.6943 3.08695C5.6943 2.53346 5.91418 2.00263 6.30556 1.61125C6.69693 1.21988 7.22776 1 7.78125 1C8.33475 1 8.86557 1.21988 9.25695 1.61125C9.64833 2.00263 9.86821 2.53346 9.86821 3.08695ZM14.0421 5.17391C14.0421 5.37946 14.0016 5.58299 13.923 5.77289C13.8443 5.96279 13.729 6.13534 13.5837 6.28068C13.4383 6.42603 13.2658 6.54132 13.0759 6.61998C12.886 6.69864 12.6824 6.73913 12.4769 6.73913C12.2714 6.73913 12.0678 6.69864 11.8779 6.61998C11.688 6.54132 11.5155 6.42603 11.3701 6.28068C11.2248 6.13534 11.1095 5.96279 11.0308 5.77289C10.9522 5.58299 10.9117 5.37946 10.9117 5.17391C10.9117 4.75879 11.0766 4.36067 11.3701 4.06713C11.6637 3.7736 12.0618 3.60869 12.4769 3.60869C12.892 3.60869 13.2901 3.7736 13.5837 4.06713C13.8772 4.36067 14.0421 4.75879 14.0421 5.17391ZM4.65082 5.17391C4.65082 5.37946 4.61034 5.58299 4.53168 5.77289C4.45302 5.96279 4.33773 6.13534 4.19238 6.28068C4.04704 6.42603 3.87449 6.54132 3.68459 6.61998C3.49469 6.69864 3.29115 6.73913 3.08561 6.73913C2.88006 6.73913 2.67653 6.69864 2.48662 6.61998C2.29672 6.54132 2.12418 6.42603 1.97883 6.28068C1.83349 6.13534 1.7182 5.96279 1.63954 5.77289C1.56088 5.58299 1.52039 5.37946 1.52039 5.17391C1.52039 4.75879 1.6853 4.36067 1.97883 4.06713C2.27237 3.7736 2.67049 3.60869 3.08561 3.60869C3.50073 3.60869 3.89885 3.7736 4.19238 4.06713C4.48592 4.36067 4.65082 4.75879 4.65082 5.17391Z" stroke="#ADADAD" stroke-linecap="round" stroke-linejoin="round"/>
</svg>
