<svg width="95" height="122" viewBox="0 0 95 122" fill="none" xmlns="http://www.w3.org/2000/svg">
<path fill-rule="evenodd" clip-rule="evenodd" d="M21.5881 26.1428C21.5881 19.2093 24.3181 12.5598 29.1776 7.65706C34.037 2.75433 40.6278 0 47.5 0C54.3722 0 60.963 2.75433 65.8224 7.65706C70.6819 12.5598 73.4119 19.2093 73.4119 26.1428C73.4119 33.0763 70.6819 39.7259 65.8224 44.6286C60.963 49.5313 54.3722 52.2857 47.5 52.2857C40.6278 52.2857 34.037 49.5313 29.1776 44.6286C24.3181 39.7259 21.5881 33.0763 21.5881 26.1428ZM0.000687547 108.086C0.194855 95.5054 5.28464 83.5063 14.1714 74.6789C23.0581 65.8515 35.029 60.9038 47.5 60.9038C59.971 60.9038 71.9419 65.8515 80.8286 74.6789C89.7154 83.5063 94.8051 95.5054 94.9993 108.086C95.0143 108.933 94.7842 109.766 94.3373 110.483C93.8904 111.2 93.246 111.77 92.483 112.124C78.3706 118.652 63.025 122.021 47.5 122C31.4577 122 16.2158 118.468 2.51702 112.124C1.75398 111.77 1.10957 111.2 0.662661 110.483C0.21575 109.766 -0.0142909 108.933 0.000687547 108.086Z" fill="#ADADAD"/>
</svg>
