<svg width="14" height="15" viewBox="0 0 14 15" fill="none" xmlns="http://www.w3.org/2000/svg">
<path d="M11.25 7.99284L6.12135 13.1215C5.55874 13.6841 4.79567 14.0002 4.00002 14.0002C3.20436 14.0002 2.4413 13.6841 1.87868 13.1215C1.31607 12.5589 1 11.7958 1 11.0002C1 10.2045 1.31607 9.44145 1.87868 8.87884L9.17202 1.5855C9.3578 1.39981 9.57833 1.25253 9.82102 1.15207C10.0637 1.05161 10.3238 0.999938 10.5865 1C10.8492 1.00006 11.1092 1.05186 11.3519 1.15243C11.5945 1.25301 11.815 1.40039 12.0007 1.58617C12.1864 1.77195 12.3337 1.99248 12.4341 2.23517C12.5346 2.47787 12.5862 2.73797 12.5862 3.00064C12.5861 3.26331 12.5343 3.52339 12.4338 3.76604C12.3332 4.00868 12.1858 4.22915 12 4.41484L4.70135 11.7135M4.70135 11.7135L4.70735 11.7068M4.70135 11.7135C4.51201 11.895 4.25893 11.9942 3.99665 11.9909C3.73437 11.9876 3.4839 11.8813 3.29922 11.6951C3.11453 11.5088 3.01042 11.2574 3.00933 10.9952C3.00823 10.7329 3.11023 10.4806 3.29335 10.2928L8.50002 5.08617" stroke="#ADADAD" stroke-linecap="round" stroke-linejoin="round"/>
</svg>
