<svg width="34" height="34" viewBox="0 0 34 34" fill="none" xmlns="http://www.w3.org/2000/svg">
<rect width="34" height="34" rx="17" fill="#0D6EFD" fill-opacity="0.4"/>
<path d="M25.2501 19.15V23.4C25.2501 24.494 24.4631 25.436 23.3781 25.58C21.2911 25.857 19.1621 26 17.0001 26C14.8381 26 12.7091 25.857 10.6221 25.58C9.53706 25.436 8.75006 24.494 8.75006 23.4V19.15M25.2501 19.15C25.4875 18.9436 25.6775 18.6883 25.807 18.4016C25.9364 18.1149 26.0023 17.8036 26.0001 17.489V13.706C26.0001 12.625 25.2321 11.691 24.1631 11.531C23.0304 11.3614 21.892 11.2323 20.7501 11.144M25.2501 19.15C25.0561 19.315 24.8301 19.445 24.5771 19.53C22.1333 20.3408 19.5748 20.7528 17.0001 20.75C14.3521 20.75 11.8051 20.321 9.42306 19.53C9.17631 19.4479 8.94778 19.3189 8.75006 19.15M8.75006 19.15C8.5126 18.9436 8.32262 18.6883 8.19315 18.4016C8.06369 18.1149 7.99782 17.8036 8.00006 17.489V13.706C8.00006 12.625 8.76806 11.691 9.83706 11.531C10.9698 11.3614 12.1081 11.2323 13.2501 11.144M20.7501 11.144V10.25C20.7501 9.65326 20.513 9.08097 20.091 8.65901C19.6691 8.23705 19.0968 8 18.5001 8H15.5001C14.9033 8 14.331 8.23705 13.9091 8.65901C13.4871 9.08097 13.2501 9.65326 13.2501 10.25V11.144M20.7501 11.144C18.2538 10.9511 15.7463 10.9511 13.2501 11.144M17.0001 17.75H17.0081V17.758H17.0001V17.75Z" stroke="#0D6EFD" stroke-width="1.5" stroke-linecap="round" stroke-linejoin="round"/>
</svg>
