<svg width="40" height="36" viewBox="0 0 40 36" fill="none" xmlns="http://www.w3.org/2000/svg">
<path d="M2.125 34.5H37.875M4.875 1.5V34.5M24.125 1.5V34.5M35.125 9.75V34.5M10.375 8.375H11.75M10.375 13.875H11.75M10.375 19.375H11.75M17.25 8.375H18.625M17.25 13.875H18.625M17.25 19.375H18.625M10.375 34.5V28.3125C10.375 27.174 11.299 26.25 12.4375 26.25H16.5625C17.701 26.25 18.625 27.174 18.625 28.3125V34.5M3.5 1.5H25.5M24.125 9.75H36.5M29.625 16.625H29.6397V16.6397H29.625V16.625ZM29.625 22.125H29.6397V22.1397H29.625V22.125ZM29.625 27.625H29.6397V27.6397H29.625V27.625Z" stroke="black" stroke-width="3" stroke-linecap="round" stroke-linejoin="round"/>
</svg>
