<svg width="12" height="10" viewBox="0 0 12 10" fill="none" xmlns="http://www.w3.org/2000/svg">
<path fill-rule="evenodd" clip-rule="evenodd" d="M11.3632 0.322475C11.426 0.370177 11.4788 0.429802 11.5186 0.497937C11.5584 0.566072 11.5843 0.641379 11.5949 0.71955C11.6056 0.797721 11.6007 0.87722 11.5805 0.953497C11.5604 1.02977 11.5254 1.10133 11.4776 1.16408L5.0776 9.56407C5.02568 9.63212 4.95981 9.68827 4.88441 9.72875C4.80901 9.76924 4.72582 9.79312 4.64042 9.79881C4.55503 9.80449 4.4694 9.79184 4.3893 9.7617C4.3092 9.73156 4.23647 9.68464 4.176 9.62407L0.575996 6.02408C0.470012 5.91034 0.412314 5.7599 0.415056 5.60446C0.417799 5.44902 0.480768 5.30071 0.590699 5.19078C0.700629 5.08085 0.848937 5.01788 1.00438 5.01513C1.15982 5.01239 1.31026 5.07009 1.424 5.17608L4.5392 8.29047L10.5232 0.436876C10.6195 0.310437 10.762 0.227378 10.9195 0.20593C11.077 0.184482 11.2366 0.226397 11.3632 0.322475Z" fill="#198754"/>
</svg>
