<svg width="27" height="28" viewBox="0 0 27 28" fill="none" xmlns="http://www.w3.org/2000/svg">
<path fill-rule="evenodd" clip-rule="evenodd" d="M14.2145 0.284839C14.0215 0.101946 13.7658 0 13.5 0C13.2342 0 12.9785 0.101946 12.7855 0.284839C9.84638 3.07606 5.93187 4.60668 1.87893 4.54945C1.65813 4.54658 1.44217 4.61417 1.2624 4.7424C1.08263 4.87063 0.94841 5.05283 0.87924 5.26253C0.294895 7.04337 -0.00190421 8.90596 9.19262e-06 10.7802C9.19262e-06 19.0076 5.62708 25.9182 13.2411 27.8774C13.4109 27.9212 13.5891 27.9212 13.7589 27.8774C21.3729 25.9182 27 19.0076 27 10.7802C27 8.85561 26.6912 7.00022 26.1208 5.26253C26.0518 5.05257 25.9177 4.87007 25.7379 4.74157C25.5581 4.61308 25.342 4.54529 25.1211 4.54807L24.9231 4.54945C20.7748 4.54945 17.0072 2.92945 14.2145 0.284839ZM18.4985 11.3839C18.5815 11.2732 18.6417 11.147 18.6753 11.0128C18.7089 10.8785 18.7153 10.7389 18.6942 10.6021C18.6731 10.4653 18.6248 10.3341 18.5523 10.2163C18.4797 10.0984 18.3843 9.99622 18.2717 9.91574C18.1591 9.83526 18.0316 9.77809 17.8966 9.74761C17.7616 9.71713 17.6218 9.71395 17.4856 9.73825C17.3493 9.76254 17.2193 9.81383 17.1032 9.8891C16.987 9.96436 16.8871 10.0621 16.8092 10.1765L12.3286 16.4488L10.08 14.2002C9.88315 14.0168 9.62278 13.9169 9.35374 13.9217C9.08471 13.9264 8.82803 14.0354 8.63776 14.2257C8.4475 14.4159 8.33851 14.6726 8.33376 14.9416C8.32902 15.2107 8.42888 15.4711 8.61231 15.6679L11.7277 18.7833C11.8343 18.8898 11.9628 18.9719 12.1043 19.0237C12.2458 19.0756 12.3969 19.096 12.5471 19.0837C12.6973 19.0713 12.8429 19.0264 12.974 18.952C13.1051 18.8777 13.2184 18.7757 13.3062 18.6531L18.4985 11.3839Z" fill="#198754"/>
</svg>
