<svg width="24" height="24" viewBox="0 0 24 24" fill="none" xmlns="http://www.w3.org/2000/svg">
<g id="Icon-times-circle">
<path id="Vector" d="M20.5018 11.9989C20.5001 10.0327 19.8168 8.12789 18.5683 6.60893C17.3196 5.0898 15.5829 4.05059 13.654 3.66837C11.7251 3.28614 9.72327 3.58454 7.98967 4.51272C6.25608 5.44091 4.89794 6.94146 4.14663 8.75871C3.39533 10.576 3.29735 12.5975 3.86938 14.4789C4.44142 16.3603 5.64808 17.9851 7.28378 19.0766C8.91948 20.1681 10.883 20.6587 12.8399 20.4648C14.7963 20.271 16.625 19.4049 18.0146 18.0142C18.8064 17.2257 19.4339 16.288 19.8608 15.2554C20.2876 14.2229 20.5055 13.1161 20.5018 11.9989ZM20.5018 11.9989C20.5018 11.9987 20.5018 11.9985 20.5018 11.9983L20.0018 12L20.5018 11.9996C20.5018 11.9993 20.5018 11.9991 20.5018 11.9989ZM15.3568 8.64206L15.3568 8.64207L15.3597 8.64496C15.4066 8.69144 15.4437 8.74674 15.4691 8.80767C15.4945 8.8686 15.5076 8.93395 15.5076 8.99996C15.5076 9.06596 15.4945 9.13132 15.4691 9.19225C15.4437 9.25317 15.4066 9.30848 15.3597 9.35496L15.359 9.35563L13.059 11.6456L12.7031 12L13.059 12.3543L15.359 14.6443L15.3597 14.645C15.4066 14.6914 15.4437 14.7467 15.4691 14.8077C15.4945 14.8686 15.5076 14.934 15.5076 15C15.5076 15.066 15.4945 15.1313 15.4691 15.1922C15.4437 15.2532 15.4066 15.3085 15.3597 15.355L15.3568 15.3579C15.3103 15.4047 15.255 15.4419 15.1941 15.4673C15.1331 15.4927 15.0678 15.5058 15.0018 15.5058C14.9358 15.5058 14.8704 15.4927 14.8095 15.4673C14.7486 15.4419 14.6933 15.4047 14.6468 15.3579L14.6461 15.3572L12.3561 13.0572L12.0018 12.7013L11.6475 13.0572L9.35746 15.3572L9.35679 15.3579C9.31031 15.4047 9.25501 15.4419 9.19408 15.4673C9.13315 15.4927 9.06779 15.5058 9.00179 15.5058C8.93578 15.5058 8.87043 15.4927 8.8095 15.4673C8.74857 15.4419 8.69327 15.4047 8.64679 15.3579L8.64389 15.355C8.59702 15.3085 8.55983 15.2532 8.53444 15.1922C8.50906 15.1313 8.49599 15.066 8.49599 15C8.49599 14.934 8.50906 14.8686 8.53444 14.8077C8.55983 14.7467 8.59702 14.6914 8.64389 14.645L8.64457 14.6443L10.9446 12.3543L11.3004 12L10.9446 11.6456L8.64534 9.3564C8.64522 9.35628 8.6451 9.35616 8.64498 9.35604C8.55067 9.26154 8.4977 9.13348 8.4977 8.99996C8.4977 8.86626 8.55081 8.73805 8.64534 8.64351C8.73988 8.54897 8.86809 8.49587 9.00179 8.49587C9.13531 8.49587 9.26337 8.54884 9.35788 8.64315C9.358 8.64327 9.35812 8.64339 9.35824 8.64351L11.6475 10.9427L12.0018 11.2986L12.3561 10.9427L14.6461 8.64274L14.6468 8.64206C14.6933 8.59519 14.7486 8.558 14.8095 8.53261C14.8704 8.50723 14.9358 8.49416 15.0018 8.49416C15.0678 8.49416 15.1331 8.50723 15.1941 8.53261C15.255 8.558 15.3103 8.59519 15.3568 8.64206ZM18.7121 5.27731L18.7182 5.28356L18.7244 5.2896C19.6318 6.16595 20.3555 7.21422 20.8534 8.37326C21.3513 9.5323 21.6134 10.7789 21.6243 12.0403C21.6353 13.3017 21.3949 14.5526 20.9172 15.7202C20.4396 16.8877 19.7342 17.9484 18.8422 18.8404C17.9502 19.7323 16.8895 20.4377 15.722 20.9154C14.5545 21.3931 13.3035 21.6334 12.0421 21.6225C10.7807 21.6115 9.53413 21.3495 8.37509 20.8516C7.21605 20.3537 6.16778 19.6299 5.29143 18.7226L5.2854 18.7164L5.27914 18.7103C4.3718 17.834 3.64807 16.7857 3.15018 15.6267C2.6523 14.4676 2.39023 13.221 2.37926 11.9596C2.3683 10.6982 2.60867 9.44727 3.08634 8.27975C3.56401 7.11223 4.26941 6.05154 5.16139 5.15956C6.05337 4.26758 7.11407 3.56218 8.28158 3.08451C9.4491 2.60684 10.7001 2.36647 11.9615 2.37743C13.2229 2.3884 14.4694 2.65046 15.6285 3.14835C16.7875 3.64624 17.8358 4.36997 18.7121 5.27731Z" stroke="#F44336"/>
</g>
</svg>
