<svg width="20" height="20" viewBox="0 0 20 20" fill="none" xmlns="http://www.w3.org/2000/svg">
<g clip-path="url(#clip0_577_72)">
<path d="M10.0001 2.50001C10.1101 2.50001 10.2193 2.50001 10.3276 2.50001C9.25709 3.49477 8.56897 4.83322 8.38288 6.2827C8.1968 7.73218 8.52453 9.20104 9.30909 10.434C10.0937 11.6669 11.2855 12.5859 12.6773 13.0312C14.0692 13.4766 15.5731 13.4201 16.9276 12.8717C16.4066 14.1254 15.555 15.2142 14.4636 16.0219C13.3723 16.8296 12.0822 17.3259 10.7309 17.4578C9.37962 17.5898 8.01786 17.3525 6.79088 16.7712C5.56391 16.1899 4.51774 15.2864 3.76397 14.1572C3.0102 13.0279 2.5771 11.7152 2.51088 10.3592C2.44466 9.00306 2.7478 7.65443 3.38795 6.45711C4.02811 5.25979 4.98128 4.2587 6.14578 3.56063C7.31028 2.86255 8.64244 2.49367 10.0001 2.49335V2.50001Z" stroke="#939393" stroke-width="1.5" stroke-linecap="round" stroke-linejoin="round"/>
</g>
<defs>
<clipPath id="clip0_577_72">
<rect width="20" height="20" fill="white"/>
</clipPath>
</defs>
</svg>
