<svg width="14" height="14" viewBox="0 0 14 14" fill="none" xmlns="http://www.w3.org/2000/svg">
<path d="M6.55445 12.3684H2.26309C1.9281 12.3684 1.60683 12.2353 1.36995 11.9985C1.13308 11.7616 1 11.4403 1 11.1053V3.52676C1 3.19177 1.13308 2.8705 1.36995 2.63362C1.60683 2.39675 1.9281 2.26367 2.26309 2.26367H9.84165C10.1766 2.26367 10.4979 2.39675 10.7348 2.63362C10.9717 2.8705 11.1047 3.19177 11.1047 3.52676V6.05295" stroke="#ADADAD" stroke-linecap="round" stroke-linejoin="round"/>
<path d="M12.9991 10.4744C12.9991 11.8696 11.8681 13.0006 10.473 13.0006C9.07779 13.0006 7.94678 11.8696 7.94678 10.4744C7.94678 9.07926 9.07779 7.94825 10.473 7.94825C10.8754 7.94825 11.2559 8.04237 11.5936 8.20979M11.5936 8.20979L11.4201 7.1582M11.5936 8.20979L10.9465 9.05284" stroke="#ADADAD" stroke-linecap="round" stroke-linejoin="round"/>
<path d="M8.57861 1V3.52619" stroke="#ADADAD" stroke-linecap="round" stroke-linejoin="round"/>
<path d="M3.52637 1V3.52619" stroke="#ADADAD" stroke-linecap="round" stroke-linejoin="round"/>
<path d="M1 6.05273H11.1047" stroke="#ADADAD" stroke-linecap="round" stroke-linejoin="round"/>
</svg>
