<svg width="14" height="16" viewBox="0 0 14 16" fill="none" xmlns="http://www.w3.org/2000/svg">
<path d="M9.055 5.75039L8.7955 12.5004M5.2045 12.5004L4.945 5.75039M12.421 3.34289C12.6775 3.38189 12.9325 3.42314 13.1875 3.46739M12.421 3.34364L11.62 13.7551C11.5873 14.1791 11.3958 14.575 11.0838 14.8638C10.7717 15.1526 10.3622 15.313 9.937 15.3129H4.063C3.63782 15.313 3.22827 15.1526 2.91623 14.8638C2.6042 14.575 2.41269 14.1791 2.38 13.7551L1.579 3.34289M12.421 3.34289C11.5554 3.21203 10.6853 3.11271 9.8125 3.04514M0.8125 3.46664C1.0675 3.42239 1.3225 3.38114 1.579 3.34289M1.579 3.34289C2.4446 3.21203 3.31468 3.11271 4.1875 3.04514M9.8125 3.04514V2.35814C9.8125 1.47314 9.13 0.735141 8.245 0.707391C7.41521 0.68087 6.58479 0.68087 5.755 0.707391C4.87 0.735141 4.1875 1.47389 4.1875 2.35814V3.04514M9.8125 3.04514C7.94029 2.90045 6.05971 2.90045 4.1875 3.04514" stroke="#DC3545" stroke-linecap="round" stroke-linejoin="round"/>
</svg>
