<svg width="34" height="34" viewBox="0 0 34 34" fill="none" xmlns="http://www.w3.org/2000/svg">
<rect width="34" height="34" rx="17" fill="#DC3545" fill-opacity="0.4"/>
<path d="M23.3641 23.3641C25.0519 21.6762 26.0001 19.387 26.0001 17.0001C26.0001 14.6131 25.0519 12.3239 23.3641 10.6361C21.6762 8.94822 19.387 8 17.0001 8C14.6131 8 12.3239 8.94822 10.6361 10.6361M23.3641 23.3641C21.6762 25.0519 19.387 26.0001 17.0001 26.0001C14.6131 26.0001 12.3239 25.0519 10.6361 23.3641C8.94822 21.6762 8 19.387 8 17.0001C8 14.6131 8.94822 12.3239 10.6361 10.6361M23.3641 23.3641L10.6361 10.6361" stroke="#DC3545" stroke-width="1.5" stroke-linecap="round" stroke-linejoin="round"/>
</svg>
