<svg width="100" height="100" viewBox="0 0 100 100" fill="none" xmlns="http://www.w3.org/2000/svg">
<path d="M7.394 59V57.904H4.898V53.256H3.682V59H7.394ZM10.0871 59.08C11.3271 59.08 12.2551 58.104 12.2551 56.864C12.2551 55.616 11.3271 54.648 10.0871 54.648C8.84713 54.648 7.91913 55.616 7.91913 56.864C7.91913 58.104 8.84713 59.08 10.0871 59.08ZM10.0871 58.096C9.53513 58.096 9.06313 57.656 9.06313 56.864C9.06313 56.072 9.53513 55.64 10.0871 55.64C10.6391 55.64 11.1111 56.072 11.1111 56.864C11.1111 57.656 10.6391 58.096 10.0871 58.096ZM16.5194 59H17.6234L18.8474 54.728H17.7514L17.0314 57.432L16.2714 54.728H15.1754L14.3914 57.432L13.6634 54.728H12.5834L13.7994 59H14.9114L15.7114 56.224L16.5194 59Z" fill="#ADADAD"/>
<path d="M44.9949 54.24V53.592H41.1949V54.584H43.7629L41.8029 59H42.9949L44.9949 54.24ZM47.6167 53.528C46.3767 53.528 45.5207 54.352 45.5207 55.392C45.5207 56.416 46.2887 57.144 47.3927 57.144C47.4807 57.144 47.5687 57.136 47.6647 57.104L46.1127 59H47.3687L48.9927 57.032C49.5127 56.416 49.7047 55.984 49.7047 55.32C49.7047 54.352 48.8407 53.528 47.6167 53.528ZM47.6087 54.456C48.1047 54.456 48.5447 54.776 48.5447 55.36C48.5447 55.992 48.1047 56.272 47.6087 56.272C47.0967 56.272 46.6727 55.968 46.6727 55.352C46.6727 54.776 47.0967 54.456 47.6087 54.456ZM52.0259 56.904C53.0259 56.904 53.7779 56.144 53.7779 55.224C53.7779 54.296 53.0259 53.544 52.0259 53.544C51.0179 53.544 50.2739 54.296 50.2739 55.224C50.2739 56.144 51.0179 56.904 52.0259 56.904ZM53.3539 59L56.4259 53.592H55.5379L52.4659 59H53.3539ZM52.0259 56.12C51.5779 56.12 51.1779 55.816 51.1779 55.224C51.1779 54.632 51.5779 54.328 52.0259 54.328C52.4819 54.328 52.8659 54.632 52.8659 55.224C52.8659 55.816 52.4819 56.12 52.0259 56.12ZM57.0019 59.072C58.0099 59.072 58.7539 58.312 58.7539 57.392C58.7539 56.464 58.0099 55.712 57.0019 55.712C55.9939 55.712 55.2499 56.464 55.2499 57.392C55.2499 58.312 55.9939 59.072 57.0019 59.072ZM57.0019 58.28C56.5539 58.28 56.1539 57.984 56.1539 57.392C56.1539 56.792 56.5539 56.496 57.0019 56.496C57.4579 56.496 57.8499 56.792 57.8499 57.392C57.8499 57.984 57.4579 58.28 57.0019 58.28Z" fill="black"/>
<path d="M83.1696 59V56.568H85.6576V59H86.8736V53.256H85.6576V55.52H83.1696V53.256H81.9536V59H83.1696ZM89.4071 53.736C89.4071 53.344 89.1031 53.064 88.6631 53.064C88.2311 53.064 87.9271 53.344 87.9271 53.736C87.9271 54.112 88.2311 54.392 88.6631 54.392C89.1031 54.392 89.4071 54.112 89.4071 53.736ZM89.2311 59V54.728H88.1191V59H89.2311ZM92.1967 60.624C93.4607 60.624 94.2287 59.936 94.2287 58.8V54.728H93.2127V55.312C92.9007 54.872 92.4687 54.648 91.8927 54.648C90.8367 54.648 90.1007 55.504 90.1007 56.744C90.1007 57.952 90.8847 58.84 91.9327 58.84C92.4527 58.84 92.8927 58.6 93.1247 58.192V58.816C93.1247 59.432 92.8047 59.76 92.1887 59.76C91.6607 59.76 91.3487 59.504 91.3007 59.016H90.2287C90.2767 60 91.0447 60.624 92.1967 60.624ZM91.2127 56.744C91.2127 56.048 91.5807 55.608 92.1487 55.608C92.7327 55.608 93.1167 56.056 93.1167 56.752C93.1167 57.424 92.7327 57.88 92.1487 57.88C91.5727 57.88 91.2127 57.44 91.2127 56.744ZM96.5042 56.672C96.5042 55.984 96.8802 55.632 97.3202 55.632C97.8242 55.632 98.0722 55.984 98.0722 56.616V59H99.1762V56.24C99.1762 55.208 98.5842 54.648 97.7282 54.648C97.1682 54.648 96.8002 54.896 96.5042 55.288V53.256H95.3922V59H96.5042V56.672Z" fill="#ADADAD"/>
<path d="M100 49.9656C100 43.404 98.7076 36.9067 96.1966 30.8446C93.6856 24.7825 90.0052 19.2743 85.3654 14.6346C80.7257 9.99484 75.2175 6.31441 69.1554 3.8034C63.0933 1.2924 56.596 -2.86815e-07 50.0344 0C43.4728 2.86816e-07 36.9755 1.2924 30.9134 3.8034C24.8513 6.31441 19.3432 9.99485 14.7034 14.6346C10.0637 19.2743 6.38325 24.7825 3.87225 30.8446C1.36124 36.9067 0.0688471 43.404 0.0688477 49.9656L20.0551 49.9656C20.0551 46.0286 20.8305 42.1302 22.3371 38.493C23.8437 34.8557 26.052 31.5508 28.8358 28.767C31.6197 25.9831 34.9246 23.7749 38.5618 22.2683C42.1991 20.7617 46.0975 19.9862 50.0344 19.9862C53.9714 19.9862 57.8698 20.7617 61.507 22.2683C65.1443 23.7749 68.4492 25.9831 71.233 28.767C74.0169 31.5508 76.2251 34.8557 77.7317 38.493C79.2383 42.1302 80.0138 46.0286 80.0138 49.9656H100Z" fill="#DC3545"/>
<path d="M99.9312 49.9656C99.9312 42.0805 98.065 34.3073 94.4852 27.2817C90.9055 20.256 85.7138 14.1773 79.3346 9.54258L67.587 25.7118C71.4145 28.4926 74.5295 32.1398 76.6774 36.3552C78.8252 40.5706 79.9449 45.2345 79.9449 49.9656H99.9312Z" fill="#198754"/>
<path d="M79.3346 9.54258C70.8058 3.34601 60.5355 0.00585412 49.9933 7.6835e-06C39.4511 -0.00583876 29.1771 3.32293 20.6414 9.51003L32.3711 25.6922C37.4925 21.98 43.6569 19.9827 49.9822 19.9862C56.3075 19.9897 62.4697 21.9938 67.587 25.7118L79.3346 9.54258Z" fill="#FFC107"/>
<path d="M72.3052 10.5397L52.1166 49.1768C51.6329 50.1026 50.4755 50.439 49.5709 49.9167V49.9167C48.6663 49.3945 48.3789 48.2239 48.9388 47.3421L72.3052 10.5397Z" fill="black"/>
</svg>
