<svg width="12" height="12" viewBox="0 0 12 12" fill="none" xmlns="http://www.w3.org/2000/svg">
<path d="M4.64977 1.64995C4.64977 1.5306 4.60236 1.41614 4.51797 1.33175C4.43358 1.24736 4.31912 1.19995 4.19977 1.19995C4.08043 1.19995 3.96597 1.24736 3.88157 1.33175C3.79718 1.41614 3.74977 1.5306 3.74977 1.64995V2.40475C3.02747 2.4209 2.30659 2.47658 1.59037 2.57155C1.53179 2.57935 1.47532 2.59861 1.42418 2.62824C1.37304 2.65787 1.32824 2.69727 1.29233 2.74421C1.25642 2.79115 1.23011 2.84471 1.2149 2.90181C1.19969 2.95892 1.19587 3.01847 1.20367 3.07705C1.21147 3.13563 1.23074 3.19211 1.26036 3.24324C1.28999 3.29438 1.32939 3.33918 1.37633 3.37509C1.42327 3.411 1.47683 3.43731 1.53394 3.45253C1.59104 3.46774 1.65059 3.47155 1.70917 3.46375C2.8726 3.30941 4.04786 3.26361 5.21977 3.32695C4.97147 4.16576 4.6293 4.97387 4.19977 5.73595C3.97544 5.33809 3.77469 4.92738 3.59857 4.50595C3.55057 4.39897 3.4627 4.31495 3.35367 4.27178C3.24465 4.22861 3.12308 4.22971 3.01485 4.27483C2.90662 4.31995 2.82028 4.40554 2.7742 4.51337C2.72813 4.6212 2.72597 4.74275 2.76817 4.85215C3.02059 5.4566 3.3199 6.04038 3.66337 6.59815C3.02205 7.53543 2.24843 8.37493 1.36657 9.09055C1.31867 9.12708 1.27859 9.17286 1.2487 9.22518C1.21882 9.27749 1.19975 9.33527 1.19262 9.3951C1.18549 9.45492 1.19044 9.51556 1.20718 9.57344C1.22392 9.63131 1.25212 9.68523 1.29009 9.732C1.32806 9.77878 1.37504 9.81745 1.42824 9.84573C1.48144 9.874 1.53977 9.89131 1.59978 9.89662C1.6598 9.90193 1.72026 9.89514 1.7776 9.87664C1.83494 9.85815 1.88798 9.82833 1.93357 9.78895C2.78977 9.09416 3.55161 8.29057 4.19977 7.39855C4.25677 7.47775 4.31497 7.55575 4.37377 7.63315C4.44618 7.72815 4.55335 7.7905 4.67173 7.80648C4.7901 7.82245 4.90997 7.79076 5.00497 7.71835C5.09997 7.64595 5.16232 7.53877 5.1783 7.4204C5.19428 7.30202 5.16258 7.18215 5.09017 7.08715C4.96777 6.92755 4.85017 6.76435 4.73617 6.59815C5.34978 5.6023 5.82095 4.52545 6.13597 3.39895C6.32197 3.41755 6.50677 3.43975 6.69037 3.46375C6.80869 3.4795 6.92841 3.44761 7.02321 3.37509C7.11801 3.30257 7.18012 3.19536 7.19587 3.07705C7.21163 2.95874 7.17974 2.83901 7.10721 2.74421C7.03469 2.64941 6.92749 2.5873 6.80917 2.57155C6.09298 2.47639 5.37209 2.42071 4.64977 2.40475V1.64995Z" fill="#5C5C5C"/>
<path fill-rule="evenodd" clip-rule="evenodd" d="M7.7999 4.80005C7.88352 4.80005 7.96548 4.82335 8.03659 4.86733C8.1077 4.91131 8.16515 4.97424 8.2025 5.04905L10.7525 10.149C10.7794 10.202 10.7956 10.2597 10.8002 10.3189C10.8047 10.3781 10.7974 10.4377 10.7788 10.4941C10.7602 10.5505 10.7307 10.6026 10.6918 10.6476C10.653 10.6925 10.6056 10.7293 10.5525 10.7558C10.4993 10.7823 10.4415 10.7981 10.3822 10.8021C10.323 10.8062 10.2635 10.7985 10.2072 10.7794C10.151 10.7604 10.0991 10.7304 10.0544 10.6912C10.0098 10.652 9.97342 10.6044 9.9473 10.551L9.4721 9.60005H6.1283L5.6525 10.551C5.62639 10.6044 5.58997 10.652 5.54536 10.6912C5.50074 10.7304 5.44881 10.7604 5.39255 10.7794C5.3363 10.7985 5.27683 10.8062 5.21758 10.8021C5.15833 10.7981 5.10047 10.7823 5.04733 10.7558C4.9942 10.7293 4.94684 10.6925 4.90799 10.6476C4.86914 10.6026 4.83956 10.5505 4.82097 10.4941C4.80237 10.4377 4.79513 10.3781 4.79965 10.3189C4.80417 10.2597 4.82036 10.202 4.8473 10.149L7.3973 5.04905C7.43465 4.97424 7.4921 4.91131 7.56322 4.86733C7.63433 4.82335 7.71629 4.80005 7.7999 4.80005ZM9.0221 8.70005L7.7999 6.25625L6.5783 8.70005H9.0221Z" fill="#5C5C5C"/>
</svg>
