<svg width="395" height="306" viewBox="0 0 395 306" fill="none" xmlns="http://www.w3.org/2000/svg">
<path d="M37.5 6V287" stroke="#ADADAD"/>
<path d="M37 287H395" stroke="#ADADAD"/>
<path d="M37.5 6V287" stroke="#ADADAD"/>
<path d="M37.4219 297.008C38.3268 297.008 38.9811 297.381 39.3848 298.126C39.6973 298.702 39.8535 299.492 39.8535 300.494C39.8535 301.445 39.7119 302.231 39.4287 302.853C39.0186 303.744 38.348 304.19 37.417 304.19C36.5771 304.19 35.9521 303.826 35.542 303.097C35.2002 302.488 35.0293 301.671 35.0293 300.646C35.0293 299.851 35.1318 299.169 35.3369 298.6C35.721 297.538 36.416 297.008 37.4219 297.008ZM37.4121 303.39C37.8678 303.39 38.2308 303.188 38.501 302.784C38.7712 302.381 38.9062 301.629 38.9062 300.528C38.9062 299.734 38.8086 299.081 38.6133 298.57C38.418 298.056 38.0387 297.799 37.4756 297.799C36.958 297.799 36.5788 298.043 36.3379 298.531C36.1003 299.016 35.9814 299.732 35.9814 300.68C35.9814 301.393 36.0579 301.965 36.2109 302.398C36.4453 303.059 36.8457 303.39 37.4121 303.39Z" fill="#ADADAD"/>
<path d="M78.9521 302.218C79.0107 302.719 79.2435 303.066 79.6504 303.258C79.8587 303.355 80.0996 303.404 80.373 303.404C80.8939 303.404 81.2796 303.238 81.5303 302.906C81.7809 302.574 81.9062 302.206 81.9062 301.803C81.9062 301.314 81.7565 300.937 81.457 300.67C81.1608 300.403 80.8044 300.27 80.3877 300.27C80.085 300.27 79.8245 300.328 79.6064 300.445C79.3916 300.562 79.2077 300.725 79.0547 300.934L78.293 300.89L78.8252 297.125H82.458V297.975H79.4844L79.1865 299.918C79.3493 299.794 79.5039 299.701 79.6504 299.64C79.9108 299.532 80.2119 299.479 80.5537 299.479C81.195 299.479 81.7386 299.685 82.1846 300.099C82.6305 300.512 82.8535 301.036 82.8535 301.671C82.8535 302.332 82.6484 302.914 82.2383 303.419C81.8314 303.924 81.1803 304.176 80.2852 304.176C79.7155 304.176 79.2109 304.016 78.7715 303.697C78.3353 303.375 78.0911 302.882 78.0391 302.218H78.9521Z" fill="#ADADAD"/>
<path d="M118.891 299.049V298.375C119.525 298.313 119.968 298.211 120.219 298.067C120.469 297.921 120.657 297.577 120.78 297.037H121.474V304H120.536V299.049H118.891ZM126.205 297.008C127.11 297.008 127.764 297.381 128.168 298.126C128.48 298.702 128.637 299.492 128.637 300.494C128.637 301.445 128.495 302.231 128.212 302.853C127.802 303.744 127.131 304.19 126.2 304.19C125.36 304.19 124.735 303.826 124.325 303.097C123.983 302.488 123.812 301.671 123.812 300.646C123.812 299.851 123.915 299.169 124.12 298.6C124.504 297.538 125.199 297.008 126.205 297.008ZM126.195 303.39C126.651 303.39 127.014 303.188 127.284 302.784C127.554 302.381 127.689 301.629 127.689 300.528C127.689 299.734 127.592 299.081 127.396 298.57C127.201 298.056 126.822 297.799 126.259 297.799C125.741 297.799 125.362 298.043 125.121 298.531C124.883 299.016 124.765 299.732 124.765 300.68C124.765 301.393 124.841 301.965 124.994 302.398C125.229 303.059 125.629 303.39 126.195 303.39Z" fill="#ADADAD"/>
<path d="M161.891 299.049V298.375C162.525 298.313 162.968 298.211 163.219 298.067C163.469 297.921 163.657 297.577 163.78 297.037H164.474V304H163.536V299.049H161.891ZM167.735 302.218C167.794 302.719 168.027 303.066 168.434 303.258C168.642 303.355 168.883 303.404 169.156 303.404C169.677 303.404 170.063 303.238 170.313 302.906C170.564 302.574 170.689 302.206 170.689 301.803C170.689 301.314 170.54 300.937 170.24 300.67C169.944 300.403 169.588 300.27 169.171 300.27C168.868 300.27 168.608 300.328 168.39 300.445C168.175 300.562 167.991 300.725 167.838 300.934L167.076 300.89L167.608 297.125H171.241V297.975H168.268L167.97 299.918C168.132 299.794 168.287 299.701 168.434 299.64C168.694 299.532 168.995 299.479 169.337 299.479C169.978 299.479 170.522 299.685 170.968 300.099C171.414 300.512 171.637 301.036 171.637 301.671C171.637 302.332 171.432 302.914 171.021 303.419C170.615 303.924 169.964 304.176 169.068 304.176C168.499 304.176 167.994 304.016 167.555 303.697C167.118 303.375 166.874 302.882 166.822 302.218H167.735Z" fill="#ADADAD"/>
<path d="M204.246 304C204.279 303.398 204.402 302.874 204.617 302.428C204.835 301.982 205.258 301.576 205.887 301.212L206.824 300.67C207.244 300.426 207.539 300.217 207.708 300.045C207.975 299.775 208.108 299.465 208.108 299.117C208.108 298.71 207.986 298.388 207.742 298.15C207.498 297.91 207.173 297.789 206.766 297.789C206.163 297.789 205.747 298.017 205.516 298.473C205.392 298.717 205.324 299.055 205.311 299.488H204.417C204.427 298.88 204.539 298.383 204.754 297.999C205.135 297.322 205.807 296.983 206.771 296.983C207.571 296.983 208.156 297.2 208.523 297.633C208.895 298.066 209.08 298.548 209.08 299.078C209.08 299.638 208.883 300.117 208.489 300.514C208.261 300.745 207.853 301.025 207.264 301.354L206.595 301.725C206.276 301.9 206.025 302.068 205.843 302.228C205.517 302.511 205.312 302.825 205.228 303.17H209.046V304H204.246ZM212.205 297.008C213.11 297.008 213.764 297.381 214.168 298.126C214.48 298.702 214.637 299.492 214.637 300.494C214.637 301.445 214.495 302.231 214.212 302.853C213.802 303.744 213.131 304.19 212.2 304.19C211.36 304.19 210.735 303.826 210.325 303.097C209.983 302.488 209.812 301.671 209.812 300.646C209.812 299.851 209.915 299.169 210.12 298.6C210.504 297.538 211.199 297.008 212.205 297.008ZM212.195 303.39C212.651 303.39 213.014 303.188 213.284 302.784C213.554 302.381 213.689 301.629 213.689 300.528C213.689 299.734 213.592 299.081 213.396 298.57C213.201 298.056 212.822 297.799 212.259 297.799C211.741 297.799 211.362 298.043 211.121 298.531C210.883 299.016 210.765 299.732 210.765 300.68C210.765 301.393 210.841 301.965 210.994 302.398C211.229 303.059 211.629 303.39 212.195 303.39Z" fill="#ADADAD"/>
<path d="M247.246 304C247.279 303.398 247.402 302.874 247.617 302.428C247.835 301.982 248.258 301.576 248.887 301.212L249.824 300.67C250.244 300.426 250.539 300.217 250.708 300.045C250.975 299.775 251.108 299.465 251.108 299.117C251.108 298.71 250.986 298.388 250.742 298.15C250.498 297.91 250.173 297.789 249.766 297.789C249.163 297.789 248.747 298.017 248.516 298.473C248.392 298.717 248.324 299.055 248.311 299.488H247.417C247.427 298.88 247.539 298.383 247.754 297.999C248.135 297.322 248.807 296.983 249.771 296.983C250.571 296.983 251.156 297.2 251.523 297.633C251.895 298.066 252.08 298.548 252.08 299.078C252.08 299.638 251.883 300.117 251.489 300.514C251.261 300.745 250.853 301.025 250.264 301.354L249.595 301.725C249.276 301.9 249.025 302.068 248.843 302.228C248.517 302.511 248.312 302.825 248.228 303.17H252.046V304H247.246ZM253.735 302.218C253.794 302.719 254.027 303.066 254.434 303.258C254.642 303.355 254.883 303.404 255.156 303.404C255.677 303.404 256.063 303.238 256.313 302.906C256.564 302.574 256.689 302.206 256.689 301.803C256.689 301.314 256.54 300.937 256.24 300.67C255.944 300.403 255.588 300.27 255.171 300.27C254.868 300.27 254.608 300.328 254.39 300.445C254.175 300.562 253.991 300.725 253.838 300.934L253.076 300.89L253.608 297.125H257.241V297.975H254.268L253.97 299.918C254.132 299.794 254.287 299.701 254.434 299.64C254.694 299.532 254.995 299.479 255.337 299.479C255.978 299.479 256.522 299.685 256.968 300.099C257.414 300.512 257.637 301.036 257.637 301.671C257.637 302.332 257.432 302.914 257.021 303.419C256.615 303.924 255.964 304.176 255.068 304.176C254.499 304.176 253.994 304.016 253.555 303.697C253.118 303.375 252.874 302.882 252.822 302.218H253.735Z" fill="#ADADAD"/>
<path d="M292.531 304.19C291.704 304.19 291.104 303.964 290.729 303.512C290.358 303.056 290.173 302.503 290.173 301.852H291.091C291.13 302.304 291.215 302.633 291.345 302.838C291.573 303.206 291.984 303.39 292.58 303.39C293.042 303.39 293.413 303.266 293.693 303.019C293.973 302.771 294.113 302.452 294.113 302.062C294.113 301.58 293.965 301.243 293.669 301.051C293.376 300.859 292.967 300.763 292.443 300.763C292.385 300.763 292.325 300.764 292.263 300.768C292.204 300.768 292.144 300.769 292.082 300.772V299.996C292.173 300.006 292.25 300.012 292.312 300.016C292.373 300.019 292.44 300.021 292.512 300.021C292.84 300.021 293.111 299.968 293.322 299.864C293.693 299.682 293.879 299.356 293.879 298.888C293.879 298.539 293.755 298.271 293.508 298.082C293.26 297.893 292.972 297.799 292.644 297.799C292.058 297.799 291.652 297.994 291.428 298.385C291.304 298.6 291.234 298.906 291.218 299.303H290.349C290.349 298.782 290.453 298.339 290.661 297.975C291.019 297.324 291.649 296.998 292.551 296.998C293.264 296.998 293.815 297.158 294.206 297.477C294.597 297.792 294.792 298.251 294.792 298.854C294.792 299.283 294.676 299.632 294.445 299.898C294.302 300.064 294.117 300.195 293.889 300.289C294.257 300.39 294.543 300.585 294.748 300.875C294.956 301.161 295.061 301.513 295.061 301.93C295.061 302.597 294.841 303.141 294.401 303.561C293.962 303.98 293.339 304.19 292.531 304.19ZM298.205 297.008C299.11 297.008 299.764 297.381 300.168 298.126C300.48 298.702 300.637 299.492 300.637 300.494C300.637 301.445 300.495 302.231 300.212 302.853C299.802 303.744 299.131 304.19 298.2 304.19C297.36 304.19 296.735 303.826 296.325 303.097C295.983 302.488 295.812 301.671 295.812 300.646C295.812 299.851 295.915 299.169 296.12 298.6C296.504 297.538 297.199 297.008 298.205 297.008ZM298.195 303.39C298.651 303.39 299.014 303.188 299.284 302.784C299.554 302.381 299.689 301.629 299.689 300.528C299.689 299.734 299.592 299.081 299.396 298.57C299.201 298.056 298.822 297.799 298.259 297.799C297.741 297.799 297.362 298.043 297.121 298.531C296.883 299.016 296.765 299.732 296.765 300.68C296.765 301.393 296.841 301.965 296.994 302.398C297.229 303.059 297.629 303.39 298.195 303.39Z" fill="#ADADAD"/>
<path d="M335.531 304.19C334.704 304.19 334.104 303.964 333.729 303.512C333.358 303.056 333.173 302.503 333.173 301.852H334.091C334.13 302.304 334.215 302.633 334.345 302.838C334.573 303.206 334.984 303.39 335.58 303.39C336.042 303.39 336.413 303.266 336.693 303.019C336.973 302.771 337.113 302.452 337.113 302.062C337.113 301.58 336.965 301.243 336.669 301.051C336.376 300.859 335.967 300.763 335.443 300.763C335.385 300.763 335.325 300.764 335.263 300.768C335.204 300.768 335.144 300.769 335.082 300.772V299.996C335.173 300.006 335.25 300.012 335.312 300.016C335.373 300.019 335.44 300.021 335.512 300.021C335.84 300.021 336.111 299.968 336.322 299.864C336.693 299.682 336.879 299.356 336.879 298.888C336.879 298.539 336.755 298.271 336.508 298.082C336.26 297.893 335.972 297.799 335.644 297.799C335.058 297.799 334.652 297.994 334.428 298.385C334.304 298.6 334.234 298.906 334.218 299.303H333.349C333.349 298.782 333.453 298.339 333.661 297.975C334.019 297.324 334.649 296.998 335.551 296.998C336.264 296.998 336.815 297.158 337.206 297.477C337.597 297.792 337.792 298.251 337.792 298.854C337.792 299.283 337.676 299.632 337.445 299.898C337.302 300.064 337.117 300.195 336.889 300.289C337.257 300.39 337.543 300.585 337.748 300.875C337.956 301.161 338.061 301.513 338.061 301.93C338.061 302.597 337.841 303.141 337.401 303.561C336.962 303.98 336.339 304.19 335.531 304.19ZM339.735 302.218C339.794 302.719 340.027 303.066 340.434 303.258C340.642 303.355 340.883 303.404 341.156 303.404C341.677 303.404 342.063 303.238 342.313 302.906C342.564 302.574 342.689 302.206 342.689 301.803C342.689 301.314 342.54 300.937 342.24 300.67C341.944 300.403 341.588 300.27 341.171 300.27C340.868 300.27 340.608 300.328 340.39 300.445C340.175 300.562 339.991 300.725 339.838 300.934L339.076 300.89L339.608 297.125H343.241V297.975H340.268L339.97 299.918C340.132 299.794 340.287 299.701 340.434 299.64C340.694 299.532 340.995 299.479 341.337 299.479C341.978 299.479 342.522 299.685 342.968 300.099C343.414 300.512 343.637 301.036 343.637 301.671C343.637 302.332 343.432 302.914 343.021 303.419C342.615 303.924 341.964 304.176 341.068 304.176C340.499 304.176 339.994 304.016 339.555 303.697C339.118 303.375 338.874 302.882 338.822 302.218H339.735Z" fill="#ADADAD"/>
<path d="M379.239 301.524V298.355L376.998 301.524H379.239ZM379.254 304V302.291H376.188V301.432L379.391 296.988H380.133V301.524H381.163V302.291H380.133V304H379.254ZM384.205 297.008C385.11 297.008 385.764 297.381 386.168 298.126C386.48 298.702 386.637 299.492 386.637 300.494C386.637 301.445 386.495 302.231 386.212 302.853C385.802 303.744 385.131 304.19 384.2 304.19C383.36 304.19 382.735 303.826 382.325 303.097C381.983 302.488 381.812 301.671 381.812 300.646C381.812 299.851 381.915 299.169 382.12 298.6C382.504 297.538 383.199 297.008 384.205 297.008ZM384.195 303.39C384.651 303.39 385.014 303.188 385.284 302.784C385.554 302.381 385.689 301.629 385.689 300.528C385.689 299.734 385.592 299.081 385.396 298.57C385.201 298.056 384.822 297.799 384.259 297.799C383.741 297.799 383.362 298.043 383.121 298.531C382.883 299.016 382.765 299.732 382.765 300.68C382.765 301.393 382.841 301.965 382.994 302.398C383.229 303.059 383.629 303.39 384.195 303.39Z" fill="#ADADAD"/>
<path d="M25.1387 283.008C26.0436 283.008 26.6979 283.381 27.1016 284.126C27.4141 284.702 27.5703 285.492 27.5703 286.494C27.5703 287.445 27.4287 288.231 27.1455 288.853C26.7354 289.744 26.0648 290.19 25.1338 290.19C24.2939 290.19 23.6689 289.826 23.2588 289.097C22.917 288.488 22.7461 287.671 22.7461 286.646C22.7461 285.851 22.8486 285.169 23.0537 284.6C23.4378 283.538 24.1328 283.008 25.1387 283.008ZM25.1289 289.39C25.5846 289.39 25.9476 289.188 26.2178 288.784C26.488 288.381 26.623 287.629 26.623 286.528C26.623 285.734 26.5254 285.081 26.3301 284.57C26.1348 284.056 25.7555 283.799 25.1924 283.799C24.6748 283.799 24.2956 284.043 24.0547 284.531C23.8171 285.016 23.6982 285.732 23.6982 286.68C23.6982 287.393 23.7747 287.965 23.9277 288.398C24.1621 289.059 24.5625 289.39 25.1289 289.39Z" fill="#ADADAD"/>
<path d="M3.15137 233.492C3.70801 233.466 4.09212 233.263 4.30371 232.882C4.41439 232.687 4.46973 232.46 4.46973 232.203C4.46973 231.796 4.31999 231.487 4.02051 231.275C3.84798 231.152 3.55827 231.035 3.15137 230.924V233.492ZM1.49609 228.78C1.49609 229.103 1.60189 229.355 1.81348 229.537C2.02832 229.719 2.31641 229.846 2.67773 229.918V227.623C2.2513 227.639 1.94694 227.77 1.76465 228.014C1.58561 228.258 1.49609 228.513 1.49609 228.78ZM0.617188 228.839C0.617188 228.344 0.797852 227.898 1.15918 227.501C1.52376 227.104 2.0332 226.902 2.6875 226.896V226.246H3.15137V226.886C3.79915 226.931 4.29557 227.123 4.64062 227.462C4.98893 227.797 5.17122 228.242 5.1875 228.795H4.33301C4.31022 228.548 4.24349 228.334 4.13281 228.155C3.92773 227.826 3.60059 227.654 3.15137 227.638V230.011C3.90658 230.222 4.41927 230.421 4.68945 230.606C5.12891 230.912 5.34863 231.365 5.34863 231.964C5.34863 232.83 5.06706 233.445 4.50391 233.81C4.19141 234.011 3.74056 234.145 3.15137 234.21V235.157H2.6875V234.21C1.74023 234.148 1.09733 233.813 0.758789 233.204C0.573242 232.875 0.480469 232.431 0.480469 231.871H1.34473C1.37077 232.317 1.44076 232.643 1.55469 232.848C1.75651 233.215 2.13086 233.422 2.67773 233.468V230.807C1.97461 230.673 1.4554 230.45 1.12012 230.138C0.784831 229.825 0.617188 229.392 0.617188 228.839ZM6.69141 229.049V228.375C7.32617 228.313 7.76888 228.211 8.01953 228.067C8.27018 227.921 8.45736 227.577 8.58105 227.037H9.27441V234H8.33691V229.049H6.69141ZM14.0059 227.008C14.9108 227.008 15.5651 227.381 15.9688 228.126C16.2812 228.702 16.4375 229.492 16.4375 230.494C16.4375 231.445 16.2959 232.231 16.0127 232.853C15.6025 233.744 14.932 234.19 14.001 234.19C13.1611 234.19 12.5361 233.826 12.126 233.097C11.7842 232.488 11.6133 231.671 11.6133 230.646C11.6133 229.851 11.7158 229.169 11.9209 228.6C12.305 227.538 13 227.008 14.0059 227.008ZM13.9961 233.39C14.4518 233.39 14.8148 233.188 15.085 232.784C15.3551 232.381 15.4902 231.629 15.4902 230.528C15.4902 229.734 15.3926 229.081 15.1973 228.57C15.002 228.056 14.6227 227.799 14.0596 227.799C13.542 227.799 13.1628 228.043 12.9219 228.531C12.6842 229.016 12.5654 229.732 12.5654 230.68C12.5654 231.393 12.6419 231.965 12.7949 232.398C13.0293 233.059 13.4297 233.39 13.9961 233.39ZM19.5723 227.008C20.4772 227.008 21.1315 227.381 21.5352 228.126C21.8477 228.702 22.0039 229.492 22.0039 230.494C22.0039 231.445 21.8623 232.231 21.5791 232.853C21.1689 233.744 20.4984 234.19 19.5674 234.19C18.7275 234.19 18.1025 233.826 17.6924 233.097C17.3506 232.488 17.1797 231.671 17.1797 230.646C17.1797 229.851 17.2822 229.169 17.4873 228.6C17.8714 227.538 18.5664 227.008 19.5723 227.008ZM19.5625 233.39C20.0182 233.39 20.3812 233.188 20.6514 232.784C20.9215 232.381 21.0566 231.629 21.0566 230.528C21.0566 229.734 20.959 229.081 20.7637 228.57C20.5684 228.056 20.1891 227.799 19.626 227.799C19.1084 227.799 18.7292 228.043 18.4883 228.531C18.2507 229.016 18.1318 229.732 18.1318 230.68C18.1318 231.393 18.2083 231.965 18.3613 232.398C18.5957 233.059 18.9961 233.39 19.5625 233.39ZM25.1387 227.008C26.0436 227.008 26.6979 227.381 27.1016 228.126C27.4141 228.702 27.5703 229.492 27.5703 230.494C27.5703 231.445 27.4287 232.231 27.1455 232.853C26.7354 233.744 26.0648 234.19 25.1338 234.19C24.2939 234.19 23.6689 233.826 23.2588 233.097C22.917 232.488 22.7461 231.671 22.7461 230.646C22.7461 229.851 22.8486 229.169 23.0537 228.6C23.4378 227.538 24.1328 227.008 25.1387 227.008ZM25.1289 233.39C25.5846 233.39 25.9476 233.188 26.2178 232.784C26.488 232.381 26.623 231.629 26.623 230.528C26.623 229.734 26.5254 229.081 26.3301 228.57C26.1348 228.056 25.7555 227.799 25.1924 227.799C24.6748 227.799 24.2956 228.043 24.0547 228.531C23.8171 229.016 23.6982 229.732 23.6982 230.68C23.6982 231.393 23.7747 231.965 23.9277 232.398C24.1621 233.059 24.5625 233.39 25.1289 233.39Z" fill="#ADADAD"/>
<path d="M3.15137 177.492C3.70801 177.466 4.09212 177.263 4.30371 176.882C4.41439 176.687 4.46973 176.46 4.46973 176.203C4.46973 175.796 4.31999 175.487 4.02051 175.275C3.84798 175.152 3.55827 175.035 3.15137 174.924V177.492ZM1.49609 172.78C1.49609 173.103 1.60189 173.355 1.81348 173.537C2.02832 173.719 2.31641 173.846 2.67773 173.918V171.623C2.2513 171.639 1.94694 171.77 1.76465 172.014C1.58561 172.258 1.49609 172.513 1.49609 172.78ZM0.617188 172.839C0.617188 172.344 0.797852 171.898 1.15918 171.501C1.52376 171.104 2.0332 170.902 2.6875 170.896V170.246H3.15137V170.886C3.79915 170.931 4.29557 171.123 4.64062 171.462C4.98893 171.797 5.17122 172.242 5.1875 172.795H4.33301C4.31022 172.548 4.24349 172.334 4.13281 172.155C3.92773 171.826 3.60059 171.654 3.15137 171.638V174.011C3.90658 174.222 4.41927 174.421 4.68945 174.606C5.12891 174.912 5.34863 175.365 5.34863 175.964C5.34863 176.83 5.06706 177.445 4.50391 177.81C4.19141 178.011 3.74056 178.145 3.15137 178.21V179.157H2.6875V178.21C1.74023 178.148 1.09733 177.813 0.758789 177.204C0.573242 176.875 0.480469 176.431 0.480469 175.871H1.34473C1.37077 176.317 1.44076 176.643 1.55469 176.848C1.75651 177.215 2.13086 177.422 2.67773 177.468V174.807C1.97461 174.673 1.4554 174.45 1.12012 174.138C0.784831 173.825 0.617188 173.392 0.617188 172.839ZM6.04688 178C6.07943 177.398 6.20312 176.874 6.41797 176.428C6.63607 175.982 7.05924 175.576 7.6875 175.212L8.625 174.67C9.04492 174.426 9.33952 174.217 9.50879 174.045C9.77572 173.775 9.90918 173.465 9.90918 173.117C9.90918 172.71 9.78711 172.388 9.54297 172.15C9.29883 171.91 8.97331 171.789 8.56641 171.789C7.96419 171.789 7.54753 172.017 7.31641 172.473C7.19271 172.717 7.12435 173.055 7.11133 173.488H6.21777C6.22754 172.88 6.33984 172.383 6.55469 171.999C6.93555 171.322 7.60775 170.983 8.57129 170.983C9.37207 170.983 9.95638 171.2 10.3242 171.633C10.6953 172.066 10.8809 172.548 10.8809 173.078C10.8809 173.638 10.6839 174.117 10.29 174.514C10.0622 174.745 9.65365 175.025 9.06445 175.354L8.39551 175.725C8.0765 175.9 7.82585 176.068 7.64355 176.228C7.31803 176.511 7.11296 176.825 7.02832 177.17H10.8467V178H6.04688ZM14.0059 171.008C14.9108 171.008 15.5651 171.381 15.9688 172.126C16.2812 172.702 16.4375 173.492 16.4375 174.494C16.4375 175.445 16.2959 176.231 16.0127 176.853C15.6025 177.744 14.932 178.19 14.001 178.19C13.1611 178.19 12.5361 177.826 12.126 177.097C11.7842 176.488 11.6133 175.671 11.6133 174.646C11.6133 173.851 11.7158 173.169 11.9209 172.6C12.305 171.538 13 171.008 14.0059 171.008ZM13.9961 177.39C14.4518 177.39 14.8148 177.188 15.085 176.784C15.3551 176.381 15.4902 175.629 15.4902 174.528C15.4902 173.734 15.3926 173.081 15.1973 172.57C15.002 172.056 14.6227 171.799 14.0596 171.799C13.542 171.799 13.1628 172.043 12.9219 172.531C12.6842 173.016 12.5654 173.732 12.5654 174.68C12.5654 175.393 12.6419 175.965 12.7949 176.398C13.0293 177.059 13.4297 177.39 13.9961 177.39ZM19.5723 171.008C20.4772 171.008 21.1315 171.381 21.5352 172.126C21.8477 172.702 22.0039 173.492 22.0039 174.494C22.0039 175.445 21.8623 176.231 21.5791 176.853C21.1689 177.744 20.4984 178.19 19.5674 178.19C18.7275 178.19 18.1025 177.826 17.6924 177.097C17.3506 176.488 17.1797 175.671 17.1797 174.646C17.1797 173.851 17.2822 173.169 17.4873 172.6C17.8714 171.538 18.5664 171.008 19.5723 171.008ZM19.5625 177.39C20.0182 177.39 20.3812 177.188 20.6514 176.784C20.9215 176.381 21.0566 175.629 21.0566 174.528C21.0566 173.734 20.959 173.081 20.7637 172.57C20.5684 172.056 20.1891 171.799 19.626 171.799C19.1084 171.799 18.7292 172.043 18.4883 172.531C18.2507 173.016 18.1318 173.732 18.1318 174.68C18.1318 175.393 18.2083 175.965 18.3613 176.398C18.5957 177.059 18.9961 177.39 19.5625 177.39ZM25.1387 171.008C26.0436 171.008 26.6979 171.381 27.1016 172.126C27.4141 172.702 27.5703 173.492 27.5703 174.494C27.5703 175.445 27.4287 176.231 27.1455 176.853C26.7354 177.744 26.0648 178.19 25.1338 178.19C24.2939 178.19 23.6689 177.826 23.2588 177.097C22.917 176.488 22.7461 175.671 22.7461 174.646C22.7461 173.851 22.8486 173.169 23.0537 172.6C23.4378 171.538 24.1328 171.008 25.1387 171.008ZM25.1289 177.39C25.5846 177.39 25.9476 177.188 26.2178 176.784C26.488 176.381 26.623 175.629 26.623 174.528C26.623 173.734 26.5254 173.081 26.3301 172.57C26.1348 172.056 25.7555 171.799 25.1924 171.799C24.6748 171.799 24.2956 172.043 24.0547 172.531C23.8171 173.016 23.6982 173.732 23.6982 174.68C23.6982 175.393 23.7747 175.965 23.9277 176.398C24.1621 177.059 24.5625 177.39 25.1289 177.39Z" fill="#ADADAD"/>
<path d="M3.15137 121.492C3.70801 121.466 4.09212 121.263 4.30371 120.882C4.41439 120.687 4.46973 120.46 4.46973 120.203C4.46973 119.796 4.31999 119.487 4.02051 119.275C3.84798 119.152 3.55827 119.035 3.15137 118.924V121.492ZM1.49609 116.78C1.49609 117.103 1.60189 117.355 1.81348 117.537C2.02832 117.719 2.31641 117.846 2.67773 117.918V115.623C2.2513 115.639 1.94694 115.77 1.76465 116.014C1.58561 116.258 1.49609 116.513 1.49609 116.78ZM0.617188 116.839C0.617188 116.344 0.797852 115.898 1.15918 115.501C1.52376 115.104 2.0332 114.902 2.6875 114.896V114.246H3.15137V114.886C3.79915 114.931 4.29557 115.123 4.64062 115.462C4.98893 115.797 5.17122 116.242 5.1875 116.795H4.33301C4.31022 116.548 4.24349 116.334 4.13281 116.155C3.92773 115.826 3.60059 115.654 3.15137 115.638V118.011C3.90658 118.222 4.41927 118.421 4.68945 118.606C5.12891 118.912 5.34863 119.365 5.34863 119.964C5.34863 120.83 5.06706 121.445 4.50391 121.81C4.19141 122.011 3.74056 122.145 3.15137 122.21V123.157H2.6875V122.21C1.74023 122.148 1.09733 121.813 0.758789 121.204C0.573242 120.875 0.480469 120.431 0.480469 119.871H1.34473C1.37077 120.317 1.44076 120.643 1.55469 120.848C1.75651 121.215 2.13086 121.422 2.67773 121.468V118.807C1.97461 118.673 1.4554 118.45 1.12012 118.138C0.784831 117.825 0.617188 117.392 0.617188 116.839ZM8.33203 122.19C7.50521 122.19 6.90462 121.964 6.53027 121.512C6.15918 121.056 5.97363 120.503 5.97363 119.852H6.8916C6.93066 120.304 7.0153 120.633 7.14551 120.838C7.37337 121.206 7.78516 121.39 8.38086 121.39C8.8431 121.39 9.21419 121.266 9.49414 121.019C9.77409 120.771 9.91406 120.452 9.91406 120.062C9.91406 119.58 9.76595 119.243 9.46973 119.051C9.17676 118.859 8.76823 118.763 8.24414 118.763C8.18555 118.763 8.12533 118.764 8.06348 118.768C8.00488 118.768 7.94466 118.769 7.88281 118.772V117.996C7.97396 118.006 8.05046 118.012 8.1123 118.016C8.17415 118.019 8.24089 118.021 8.3125 118.021C8.64128 118.021 8.91146 117.968 9.12305 117.864C9.49414 117.682 9.67969 117.356 9.67969 116.888C9.67969 116.539 9.55599 116.271 9.30859 116.082C9.0612 115.893 8.77311 115.799 8.44434 115.799C7.8584 115.799 7.45312 115.994 7.22852 116.385C7.10482 116.6 7.03483 116.906 7.01855 117.303H6.14941C6.14941 116.782 6.25358 116.339 6.46191 115.975C6.81999 115.324 7.44987 114.998 8.35156 114.998C9.06445 114.998 9.61621 115.158 10.0068 115.477C10.3975 115.792 10.5928 116.251 10.5928 116.854C10.5928 117.283 10.4772 117.632 10.2461 117.898C10.1029 118.064 9.91732 118.195 9.68945 118.289C10.0573 118.39 10.3438 118.585 10.5488 118.875C10.7572 119.161 10.8613 119.513 10.8613 119.93C10.8613 120.597 10.6416 121.141 10.2021 121.561C9.7627 121.98 9.13932 122.19 8.33203 122.19ZM14.0059 115.008C14.9108 115.008 15.5651 115.381 15.9688 116.126C16.2812 116.702 16.4375 117.492 16.4375 118.494C16.4375 119.445 16.2959 120.231 16.0127 120.853C15.6025 121.744 14.932 122.19 14.001 122.19C13.1611 122.19 12.5361 121.826 12.126 121.097C11.7842 120.488 11.6133 119.671 11.6133 118.646C11.6133 117.851 11.7158 117.169 11.9209 116.6C12.305 115.538 13 115.008 14.0059 115.008ZM13.9961 121.39C14.4518 121.39 14.8148 121.188 15.085 120.784C15.3551 120.381 15.4902 119.629 15.4902 118.528C15.4902 117.734 15.3926 117.081 15.1973 116.57C15.002 116.056 14.6227 115.799 14.0596 115.799C13.542 115.799 13.1628 116.043 12.9219 116.531C12.6842 117.016 12.5654 117.732 12.5654 118.68C12.5654 119.393 12.6419 119.965 12.7949 120.398C13.0293 121.059 13.4297 121.39 13.9961 121.39ZM19.5723 115.008C20.4772 115.008 21.1315 115.381 21.5352 116.126C21.8477 116.702 22.0039 117.492 22.0039 118.494C22.0039 119.445 21.8623 120.231 21.5791 120.853C21.1689 121.744 20.4984 122.19 19.5674 122.19C18.7275 122.19 18.1025 121.826 17.6924 121.097C17.3506 120.488 17.1797 119.671 17.1797 118.646C17.1797 117.851 17.2822 117.169 17.4873 116.6C17.8714 115.538 18.5664 115.008 19.5723 115.008ZM19.5625 121.39C20.0182 121.39 20.3812 121.188 20.6514 120.784C20.9215 120.381 21.0566 119.629 21.0566 118.528C21.0566 117.734 20.959 117.081 20.7637 116.57C20.5684 116.056 20.1891 115.799 19.626 115.799C19.1084 115.799 18.7292 116.043 18.4883 116.531C18.2507 117.016 18.1318 117.732 18.1318 118.68C18.1318 119.393 18.2083 119.965 18.3613 120.398C18.5957 121.059 18.9961 121.39 19.5625 121.39ZM25.1387 115.008C26.0436 115.008 26.6979 115.381 27.1016 116.126C27.4141 116.702 27.5703 117.492 27.5703 118.494C27.5703 119.445 27.4287 120.231 27.1455 120.853C26.7354 121.744 26.0648 122.19 25.1338 122.19C24.2939 122.19 23.6689 121.826 23.2588 121.097C22.917 120.488 22.7461 119.671 22.7461 118.646C22.7461 117.851 22.8486 117.169 23.0537 116.6C23.4378 115.538 24.1328 115.008 25.1387 115.008ZM25.1289 121.39C25.5846 121.39 25.9476 121.188 26.2178 120.784C26.488 120.381 26.623 119.629 26.623 118.528C26.623 117.734 26.5254 117.081 26.3301 116.57C26.1348 116.056 25.7555 115.799 25.1924 115.799C24.6748 115.799 24.2956 116.043 24.0547 116.531C23.8171 117.016 23.6982 117.732 23.6982 118.68C23.6982 119.393 23.7747 119.965 23.9277 120.398C24.1621 121.059 24.5625 121.39 25.1289 121.39Z" fill="#ADADAD"/>
<path d="M3.15137 64.4922C3.70801 64.4661 4.09212 64.2627 4.30371 63.8818C4.41439 63.6865 4.46973 63.4603 4.46973 63.2031C4.46973 62.7962 4.31999 62.487 4.02051 62.2754C3.84798 62.1517 3.55827 62.0345 3.15137 61.9238V64.4922ZM1.49609 59.7803C1.49609 60.1025 1.60189 60.3548 1.81348 60.5371C2.02832 60.7194 2.31641 60.8464 2.67773 60.918V58.623C2.2513 58.6393 1.94694 58.7695 1.76465 59.0137C1.58561 59.2578 1.49609 59.5133 1.49609 59.7803ZM0.617188 59.8389C0.617188 59.3441 0.797852 58.8981 1.15918 58.501C1.52376 58.1038 2.0332 57.902 2.6875 57.8955V57.2461H3.15137V57.8857C3.79915 57.9313 4.29557 58.1234 4.64062 58.4619C4.98893 58.7972 5.17122 59.2415 5.1875 59.7949H4.33301C4.31022 59.5475 4.24349 59.3343 4.13281 59.1553C3.92773 58.8265 3.60059 58.654 3.15137 58.6377V61.0107C3.90658 61.2223 4.41927 61.4209 4.68945 61.6064C5.12891 61.9124 5.34863 62.3649 5.34863 62.9639C5.34863 63.8298 5.06706 64.445 4.50391 64.8096C4.19141 65.0114 3.74056 65.1449 3.15137 65.21V66.1572H2.6875V65.21C1.74023 65.1481 1.09733 64.8128 0.758789 64.2041C0.573242 63.8753 0.480469 63.431 0.480469 62.8711H1.34473C1.37077 63.3171 1.44076 63.6426 1.55469 63.8477C1.75651 64.2155 2.13086 64.4222 2.67773 64.4678V61.8066C1.97461 61.6732 1.4554 61.4502 1.12012 61.1377C0.784831 60.8252 0.617188 60.3923 0.617188 59.8389ZM9.04004 62.5244V59.3555L6.79883 62.5244H9.04004ZM9.05469 65V63.291H5.98828V62.4316L9.19141 57.9883H9.93359V62.5244H10.9639V63.291H9.93359V65H9.05469ZM14.0059 58.0078C14.9108 58.0078 15.5651 58.3805 15.9688 59.126C16.2812 59.7021 16.4375 60.4915 16.4375 61.4941C16.4375 62.4447 16.2959 63.2308 16.0127 63.8525C15.6025 64.7445 14.932 65.1904 14.001 65.1904C13.1611 65.1904 12.5361 64.8258 12.126 64.0967C11.7842 63.488 11.6133 62.6709 11.6133 61.6455C11.6133 60.8512 11.7158 60.1693 11.9209 59.5996C12.305 58.5384 13 58.0078 14.0059 58.0078ZM13.9961 64.3896C14.4518 64.3896 14.8148 64.1878 15.085 63.7842C15.3551 63.3805 15.4902 62.6286 15.4902 61.5283C15.4902 60.734 15.3926 60.0814 15.1973 59.5703C15.002 59.056 14.6227 58.7988 14.0596 58.7988C13.542 58.7988 13.1628 59.043 12.9219 59.5312C12.6842 60.0163 12.5654 60.7324 12.5654 61.6797C12.5654 62.3926 12.6419 62.9655 12.7949 63.3984C13.0293 64.0592 13.4297 64.3896 13.9961 64.3896ZM19.5723 58.0078C20.4772 58.0078 21.1315 58.3805 21.5352 59.126C21.8477 59.7021 22.0039 60.4915 22.0039 61.4941C22.0039 62.4447 21.8623 63.2308 21.5791 63.8525C21.1689 64.7445 20.4984 65.1904 19.5674 65.1904C18.7275 65.1904 18.1025 64.8258 17.6924 64.0967C17.3506 63.488 17.1797 62.6709 17.1797 61.6455C17.1797 60.8512 17.2822 60.1693 17.4873 59.5996C17.8714 58.5384 18.5664 58.0078 19.5723 58.0078ZM19.5625 64.3896C20.0182 64.3896 20.3812 64.1878 20.6514 63.7842C20.9215 63.3805 21.0566 62.6286 21.0566 61.5283C21.0566 60.734 20.959 60.0814 20.7637 59.5703C20.5684 59.056 20.1891 58.7988 19.626 58.7988C19.1084 58.7988 18.7292 59.043 18.4883 59.5312C18.2507 60.0163 18.1318 60.7324 18.1318 61.6797C18.1318 62.3926 18.2083 62.9655 18.3613 63.3984C18.5957 64.0592 18.9961 64.3896 19.5625 64.3896ZM25.1387 58.0078C26.0436 58.0078 26.6979 58.3805 27.1016 59.126C27.4141 59.7021 27.5703 60.4915 27.5703 61.4941C27.5703 62.4447 27.4287 63.2308 27.1455 63.8525C26.7354 64.7445 26.0648 65.1904 25.1338 65.1904C24.2939 65.1904 23.6689 64.8258 23.2588 64.0967C22.917 63.488 22.7461 62.6709 22.7461 61.6455C22.7461 60.8512 22.8486 60.1693 23.0537 59.5996C23.4378 58.5384 24.1328 58.0078 25.1387 58.0078ZM25.1289 64.3896C25.5846 64.3896 25.9476 64.1878 26.2178 63.7842C26.488 63.3805 26.623 62.6286 26.623 61.5283C26.623 60.734 26.5254 60.0814 26.3301 59.5703C26.1348 59.056 25.7555 58.7988 25.1924 58.7988C24.6748 58.7988 24.2956 59.043 24.0547 59.5312C23.8171 60.0163 23.6982 60.7324 23.6982 61.6797C23.6982 62.3926 23.7747 62.9655 23.9277 63.3984C24.1621 64.0592 24.5625 64.3896 25.1289 64.3896Z" fill="#ADADAD"/>
<path d="M3.15137 8.49219C3.70801 8.46615 4.09212 8.2627 4.30371 7.88184C4.41439 7.68652 4.46973 7.46029 4.46973 7.20312C4.46973 6.79622 4.31999 6.48698 4.02051 6.27539C3.84798 6.15169 3.55827 6.03451 3.15137 5.92383V8.49219ZM1.49609 3.78027C1.49609 4.10254 1.60189 4.35482 1.81348 4.53711C2.02832 4.7194 2.31641 4.84635 2.67773 4.91797V2.62305C2.2513 2.63932 1.94694 2.76953 1.76465 3.01367C1.58561 3.25781 1.49609 3.51335 1.49609 3.78027ZM0.617188 3.83887C0.617188 3.34408 0.797852 2.89811 1.15918 2.50098C1.52376 2.10384 2.0332 1.90202 2.6875 1.89551V1.24609H3.15137V1.88574C3.79915 1.93132 4.29557 2.12337 4.64062 2.46191C4.98893 2.7972 5.17122 3.24154 5.1875 3.79492H4.33301C4.31022 3.54753 4.24349 3.33431 4.13281 3.15527C3.92773 2.8265 3.60059 2.65397 3.15137 2.6377V5.01074C3.90658 5.22233 4.41927 5.4209 4.68945 5.60645C5.12891 5.91243 5.34863 6.36491 5.34863 6.96387C5.34863 7.82975 5.06706 8.44499 4.50391 8.80957C4.19141 9.01139 3.74056 9.14486 3.15137 9.20996V10.1572H2.6875V9.20996C1.74023 9.14811 1.09733 8.81283 0.758789 8.2041C0.573242 7.87533 0.480469 7.43099 0.480469 6.87109H1.34473C1.37077 7.31706 1.44076 7.64258 1.55469 7.84766C1.75651 8.21549 2.13086 8.4222 2.67773 8.46777V5.80664C1.97461 5.67318 1.4554 5.4502 1.12012 5.1377C0.784831 4.8252 0.617188 4.39225 0.617188 3.83887ZM6.96973 7.21777C7.02832 7.71908 7.26107 8.06576 7.66797 8.25781C7.8763 8.35547 8.11719 8.4043 8.39062 8.4043C8.91146 8.4043 9.2972 8.23828 9.54785 7.90625C9.7985 7.57422 9.92383 7.20638 9.92383 6.80273C9.92383 6.31445 9.77409 5.93685 9.47461 5.66992C9.17839 5.40299 8.82194 5.26953 8.40527 5.26953C8.10254 5.26953 7.84212 5.32812 7.62402 5.44531C7.40918 5.5625 7.22526 5.72526 7.07227 5.93359L6.31055 5.88965L6.84277 2.125H10.4756V2.97461H7.50195L7.2041 4.91797C7.36686 4.79427 7.52148 4.7015 7.66797 4.63965C7.92839 4.53223 8.22949 4.47852 8.57129 4.47852C9.21257 4.47852 9.75618 4.68522 10.2021 5.09863C10.6481 5.51204 10.8711 6.03613 10.8711 6.6709C10.8711 7.33171 10.666 7.91439 10.2559 8.41895C9.84896 8.9235 9.19792 9.17578 8.30273 9.17578C7.73307 9.17578 7.22852 9.01628 6.78906 8.69727C6.35286 8.375 6.10872 7.88184 6.05664 7.21777H6.96973ZM14.0059 2.00781C14.9108 2.00781 15.5651 2.38053 15.9688 3.12598C16.2812 3.70215 16.4375 4.49154 16.4375 5.49414C16.4375 6.44466 16.2959 7.23079 16.0127 7.85254C15.6025 8.74447 14.932 9.19043 14.001 9.19043C13.1611 9.19043 12.5361 8.82585 12.126 8.09668C11.7842 7.48796 11.6133 6.6709 11.6133 5.64551C11.6133 4.85124 11.7158 4.16927 11.9209 3.59961C12.305 2.53841 13 2.00781 14.0059 2.00781ZM13.9961 8.38965C14.4518 8.38965 14.8148 8.18783 15.085 7.78418C15.3551 7.38053 15.4902 6.62858 15.4902 5.52832C15.4902 4.73405 15.3926 4.08138 15.1973 3.57031C15.002 3.05599 14.6227 2.79883 14.0596 2.79883C13.542 2.79883 13.1628 3.04297 12.9219 3.53125C12.6842 4.01628 12.5654 4.73242 12.5654 5.67969C12.5654 6.39258 12.6419 6.96549 12.7949 7.39844C13.0293 8.05924 13.4297 8.38965 13.9961 8.38965ZM19.5723 2.00781C20.4772 2.00781 21.1315 2.38053 21.5352 3.12598C21.8477 3.70215 22.0039 4.49154 22.0039 5.49414C22.0039 6.44466 21.8623 7.23079 21.5791 7.85254C21.1689 8.74447 20.4984 9.19043 19.5674 9.19043C18.7275 9.19043 18.1025 8.82585 17.6924 8.09668C17.3506 7.48796 17.1797 6.6709 17.1797 5.64551C17.1797 4.85124 17.2822 4.16927 17.4873 3.59961C17.8714 2.53841 18.5664 2.00781 19.5723 2.00781ZM19.5625 8.38965C20.0182 8.38965 20.3812 8.18783 20.6514 7.78418C20.9215 7.38053 21.0566 6.62858 21.0566 5.52832C21.0566 4.73405 20.959 4.08138 20.7637 3.57031C20.5684 3.05599 20.1891 2.79883 19.626 2.79883C19.1084 2.79883 18.7292 3.04297 18.4883 3.53125C18.2507 4.01628 18.1318 4.73242 18.1318 5.67969C18.1318 6.39258 18.2083 6.96549 18.3613 7.39844C18.5957 8.05924 18.9961 8.38965 19.5625 8.38965ZM25.1387 2.00781C26.0436 2.00781 26.6979 2.38053 27.1016 3.12598C27.4141 3.70215 27.5703 4.49154 27.5703 5.49414C27.5703 6.44466 27.4287 7.23079 27.1455 7.85254C26.7354 8.74447 26.0648 9.19043 25.1338 9.19043C24.2939 9.19043 23.6689 8.82585 23.2588 8.09668C22.917 7.48796 22.7461 6.6709 22.7461 5.64551C22.7461 4.85124 22.8486 4.16927 23.0537 3.59961C23.4378 2.53841 24.1328 2.00781 25.1387 2.00781ZM25.1289 8.38965C25.5846 8.38965 25.9476 8.18783 26.2178 7.78418C26.488 7.38053 26.623 6.62858 26.623 5.52832C26.623 4.73405 26.5254 4.08138 26.3301 3.57031C26.1348 3.05599 25.7555 2.79883 25.1924 2.79883C24.6748 2.79883 24.2956 3.04297 24.0547 3.53125C23.8171 4.01628 23.6982 4.73242 23.6982 5.67969C23.6982 6.39258 23.7747 6.96549 23.9277 7.39844C24.1621 8.05924 24.5625 8.38965 25.1289 8.38965Z" fill="#ADADAD"/>
<path d="M38 73.4398C38 73.4398 63.8 77.3738 81 90.2998C98.2 103.226 106.8 126.83 124 138.07C141.2 149.31 149.8 138.07 167 149.31C184.2 160.55 192.8 198.766 210 222.37C227.2 245.974 235.8 267.33 253 267.33C270.2 267.33 278.8 223.494 296 183.03C313.2 142.566 321.8 65.0098 339 65.0098C356.2 65.0098 364.8 247.66 382 247.66" stroke="#0D6EFD" stroke-width="2"/>
<path d="M38 77C36.9393 77 35.922 76.5787 35.1719 75.8288C34.4218 75.0789 34.0003 74.0617 34 73.001C33.9997 71.9403 34.4208 70.9229 35.1705 70.1726C35.9203 69.4223 36.9373 69.0005 37.998 69C39.0587 68.9995 40.0762 69.4203 40.8267 70.1698C41.5772 70.9194 41.9992 71.9363 42 72.997C42.0008 74.0577 41.5803 75.0753 40.8309 75.826C40.0815 76.5766 39.0647 76.9989 38.004 77H38Z" fill="#0D6EFD"/>
<path d="M81 94C79.9393 94 78.922 93.5787 78.1719 92.8288C77.4218 92.0789 77.0003 91.0617 77 90.001C76.9997 88.9403 77.4208 87.9229 78.1705 87.1726C78.9203 86.4223 79.9373 86.0005 80.998 86C82.0587 85.9995 83.0762 86.4203 83.8267 87.1698C84.5772 87.9194 84.9992 88.9363 85 89.997C85.0008 91.0577 84.5803 92.0753 83.8309 92.826C83.0815 93.5766 82.0647 93.9989 81.004 94H81Z" fill="#0D6EFD"/>
<path d="M124 142C122.939 142 121.922 141.579 121.172 140.829C120.422 140.079 120 139.062 120 138.001C120 136.94 120.421 135.923 121.171 135.173C121.92 134.422 122.937 134.001 123.998 134C125.059 133.999 126.076 134.42 126.827 135.17C127.577 135.919 127.999 136.936 128 137.997C128.001 139.058 127.58 140.075 126.831 140.826C126.082 141.577 125.065 141.999 124.004 142H124Z" fill="#0D6EFD"/>
<path d="M167 153C165.939 153 164.922 152.579 164.171 151.829C163.421 151.079 163 150.062 163 149.001C162.999 147.94 163.42 146.923 164.17 146.173C164.92 145.422 165.937 145.001 166.998 145C168.058 144.999 169.076 145.42 169.826 146.17C170.577 146.919 170.999 147.936 171 148.997C171 150.058 170.58 151.075 169.83 151.826C169.081 152.577 168.064 152.999 167.004 153H167Z" fill="#0D6EFD"/>
<path d="M210 226C208.939 226 207.922 225.579 207.171 224.829C206.421 224.079 206 223.062 206 222.001C205.999 220.94 206.42 219.923 207.17 219.173C207.92 218.422 208.937 218.001 209.998 218C211.058 217.999 212.076 218.42 212.826 219.17C213.577 219.919 213.999 220.936 214 221.997C214 223.058 213.58 224.075 212.83 224.826C212.081 225.577 211.064 225.999 210.004 226H210Z" fill="#0D6EFD"/>
<path d="M253 271C251.939 271 250.922 270.579 250.171 269.829C249.421 269.079 249 268.062 249 267.001C248.999 265.94 249.42 264.923 250.17 264.173C250.92 263.422 251.937 263.001 252.998 263C254.058 262.999 255.076 263.42 255.826 264.17C256.577 264.919 256.999 265.936 257 266.997C257 268.058 256.58 269.075 255.83 269.826C255.081 270.577 254.064 270.999 253.004 271H253Z" fill="#0D6EFD"/>
<path d="M296 187C294.939 187 293.922 186.579 293.171 185.829C292.421 185.079 292 184.062 292 183.001C291.999 181.94 292.42 180.923 293.17 180.173C293.92 179.422 294.937 179.001 295.997 179C297.058 178.999 298.076 179.42 298.826 180.17C299.577 180.919 299.999 181.936 300 182.997C300 184.058 299.58 185.075 298.83 185.826C298.081 186.577 297.064 186.999 296.004 187H296Z" fill="#0D6EFD"/>
<path d="M339 69C337.939 69 336.922 68.5787 336.171 67.8288C335.421 67.0789 335 66.0617 335 65.001C334.999 63.9403 335.42 62.9229 336.17 62.1726C336.92 61.4223 337.937 61.0005 338.997 61C340.058 60.9995 341.076 61.4203 341.826 62.1698C342.577 62.9194 342.999 63.9363 343 64.997C343 66.0577 342.58 67.0753 341.83 67.826C341.081 68.5766 340.064 68.9989 339.004 69L339 69Z" fill="#0D6EFD"/>
<path d="M382 252C380.939 252 379.922 251.579 379.171 250.829C378.421 250.079 378 249.062 378 248.001C377.999 246.94 378.42 245.923 379.17 245.173C379.92 244.422 380.937 244.001 381.997 244C383.058 243.999 384.076 244.42 384.826 245.17C385.577 245.919 385.999 246.936 386 247.997C386 249.058 385.58 250.075 384.83 250.826C384.081 251.577 383.064 251.999 382.004 252H382Z" fill="#0D6EFD"/>
</svg>
