<svg width="26" height="33" viewBox="0 0 26 33" fill="none" xmlns="http://www.w3.org/2000/svg">
<path fill-rule="evenodd" clip-rule="evenodd" d="M5.90833 7.07142C5.90833 5.19597 6.65549 3.39732 7.98544 2.07117C9.31538 0.745023 11.1192 0 13 0C14.8808 0 16.6846 0.745023 18.0146 2.07117C19.3445 3.39732 20.0917 5.19597 20.0917 7.07142C20.0917 8.94688 19.3445 10.7455 18.0146 12.0717C16.6846 13.3978 14.8808 14.1428 13 14.1428C11.1192 14.1428 9.31538 13.3978 7.98544 12.0717C6.65549 10.7455 5.90833 8.94688 5.90833 7.07142ZM0.000188171 29.2364C0.0533288 25.8334 1.44632 22.5878 3.87848 20.2C6.31064 17.8123 9.58688 16.474 13 16.474C16.4131 16.474 19.6894 17.8123 22.1215 20.2C24.5537 22.5878 25.9467 25.8334 25.9998 29.2364C26.0039 29.4655 25.9409 29.6908 25.8186 29.8848C25.6963 30.0788 25.52 30.233 25.3111 30.3285C21.4488 32.0944 17.2489 33.0057 13 33C8.60947 33 4.438 32.0445 0.688868 30.3285C0.480035 30.233 0.303673 30.0788 0.18136 29.8848C0.0590473 29.6908 -0.00391118 29.4655 0.000188171 29.2364Z" fill="#5C4033"/>
</svg>
