<svg width="12" height="14" viewBox="0 0 12 14" fill="none" xmlns="http://www.w3.org/2000/svg">
<path d="M7.31445 1V3.66667C7.31445 3.84348 7.38469 4.01305 7.50972 4.13807C7.63474 4.2631 7.80431 4.33333 7.98112 4.33333H10.6478" stroke="#ADADAD" stroke-linecap="round" stroke-linejoin="round"/>
<path d="M9.31445 13H2.64779C2.29416 13 1.95503 12.8595 1.70498 12.6095C1.45493 12.3594 1.31445 12.0203 1.31445 11.6667V2.33333C1.31445 1.97971 1.45493 1.64057 1.70498 1.39052C1.95503 1.14048 2.29416 1 2.64779 1H7.31445L10.6478 4.33333V11.6667C10.6478 12.0203 10.5073 12.3594 10.2573 12.6095C10.0072 12.8595 9.66807 13 9.31445 13Z" stroke="#ADADAD" stroke-linecap="round" stroke-linejoin="round"/>
</svg>
