<svg width="14" height="14" viewBox="0 0 14 14" fill="none" xmlns="http://www.w3.org/2000/svg">
<path d="M8.90452 10.388C10.1467 10.2409 11.3671 9.94779 12.5405 9.51467C11.5468 8.41387 10.9977 6.983 10.9999 5.5V5.03333V5C10.9999 3.93913 10.5784 2.92172 9.82828 2.17157C9.07813 1.42143 8.06072 1 6.99985 1C5.93899 1 4.92157 1.42143 4.17143 2.17157C3.42128 2.92172 2.99985 3.93913 2.99985 5V5.5C3.00186 6.98309 2.45251 8.41397 1.45852 9.51467C2.61385 9.94133 3.83185 10.238 5.09519 10.388M8.90452 10.388C7.63918 10.5381 6.36053 10.5381 5.09519 10.388M8.90452 10.388C9.00059 10.6879 9.02448 11.0063 8.97424 11.3171C8.92401 11.628 8.80107 11.9227 8.61544 12.1771C8.42981 12.4314 8.18672 12.6384 7.90598 12.7811C7.62524 12.9238 7.31477 12.9981 6.99985 12.9981C6.68493 12.9981 6.37447 12.9238 6.09373 12.7811C5.81298 12.6384 5.5699 12.4314 5.38427 12.1771C5.19863 11.9227 5.0757 11.628 5.02546 11.3171C4.97523 11.0063 4.99912 10.6879 5.09519 10.388M1.08252 4C1.2705 2.88331 1.77172 1.84296 2.52785 1M11.4719 1C12.228 1.84296 12.7292 2.88331 12.9172 4" stroke="#198754" stroke-linecap="round" stroke-linejoin="round"/>
</svg>
