<svg width="16" height="14" viewBox="0 0 16 14" fill="none" xmlns="http://www.w3.org/2000/svg">
	<path d="M11.017 5.0101H14.761V5.00935M1.23854 12.7321V8.9881M1.23854 8.9881H4.98254M1.23779 8.9881L3.62354 11.3753C4.39163 12.1434 5.34839 12.6958 6.39763 12.9769C7.44688 13.258 8.55164 13.2579 9.60084 12.9767C10.65 12.6954 11.6067 12.1429 12.3747 11.3747C13.1427 10.6065 13.6949 9.64964 13.9758 8.60035M2.02304 5.39785C2.30397 4.34856 2.85617 3.39171 3.62414 2.6235C4.39211 1.85529 5.34879 1.30279 6.39799 1.02154C7.4472 0.740296 8.55196 0.740214 9.6012 1.0213C10.6504 1.3024 11.6072 1.85475 12.3753 2.62285L14.761 5.00935M14.761 1.2661V5.0086" stroke="#0D6EFD" stroke-width="1.5" stroke-linecap="round" stroke-linejoin="round"></path>
</svg>