<svg width="115" height="113" viewBox="0 0 115 113" fill="none" xmlns="http://www.w3.org/2000/svg">
<path d="M85.39 44.7579C88.6975 41.6727 91.0692 37.7183 92.2335 33.3477C93.3977 28.977 93.3075 24.3668 91.973 20.045C90.6386 15.7233 88.1139 11.8647 84.6882 8.91134C81.2624 5.95795 77.0741 4.02912 72.603 3.34576C68.1318 2.6624 63.5586 3.25214 59.407 5.04744C55.2555 6.84275 51.6936 9.77102 49.1292 13.4969C46.5647 17.2227 45.1015 21.5955 44.9071 26.1144C44.7127 30.6333 45.795 35.1156 48.03 39.0479L43.13 43.6179L44.31 51.7479L36.7 49.6679L30.57 55.3879L31.79 63.4679L24.19 61.3379L18.92 66.2479L19.64 71.2479L15 69.9479L11.94 72.8079L11.48 80.3379L22.71 83.1679L59.16 49.1679C63.4822 51.0891 68.2743 51.6954 72.9388 50.9111C77.6033 50.1269 81.9337 47.9869 85.39 44.7579ZM81.79 15.1479C82.723 16.1471 83.3388 17.4005 83.5593 18.7496C83.7798 20.0988 83.5951 21.483 83.0287 22.7272C82.4623 23.9714 81.5396 25.0196 80.3773 25.7393C79.2151 26.4589 77.8654 26.8176 76.4992 26.77C75.133 26.7224 73.8116 26.2707 72.7022 25.4719C71.5928 24.6731 70.7452 23.5632 70.2668 22.2826C69.7883 21.002 69.7005 19.6083 70.0143 18.2778C70.3282 16.9472 71.0297 15.7397 72.03 14.8079C73.3699 13.5599 75.1503 12.8947 76.9803 12.9584C78.8103 13.0222 80.5402 13.8097 81.79 15.1479Z" fill="#263238"/>
<path d="M81.7903 15.1478C81.7903 15.1478 81.3403 14.7278 80.4203 14.1478C79.1124 13.3661 77.5851 13.0326 76.0703 13.1978C74.8426 13.3303 73.676 13.802 72.7012 14.5602C71.7264 15.3183 70.982 16.3329 70.5513 17.4903C70.1206 18.6476 70.0207 19.9021 70.2628 21.113C70.5049 22.3239 71.0793 23.4436 71.9218 24.3464C72.7644 25.2493 73.8416 25.8997 75.033 26.2248C76.2243 26.5499 77.4826 26.5369 78.667 26.1872C79.8513 25.8375 80.9149 25.1649 81.7385 24.2449C82.5622 23.3248 83.1134 22.1935 83.3304 20.9778C83.6084 19.4797 83.3797 17.9316 82.6804 16.5778C82.1804 15.5778 81.7403 15.1778 81.7903 15.1378C81.8403 15.0978 81.9203 15.2278 82.1203 15.4378C82.4143 15.7407 82.6727 16.0762 82.8903 16.4378C83.7035 17.8171 84.0077 19.4376 83.7503 21.0178C83.6011 21.9579 83.2646 22.8585 82.7607 23.6662C82.2569 24.4738 81.596 25.172 80.8173 25.7195C80.0386 26.2669 79.1578 26.6524 78.2273 26.8531C77.2968 27.0538 76.3355 27.0656 75.4003 26.8878C73.8937 26.6116 72.5161 25.8575 71.4714 24.7372C70.4268 23.617 69.7707 22.1901 69.6003 20.6678C69.4882 19.7232 69.5668 18.7657 69.8314 17.8519C70.096 16.9382 70.5413 16.0869 71.1409 15.3484C71.7405 14.6099 72.4822 13.9992 73.322 13.5525C74.1619 13.1058 75.0828 12.8322 76.0303 12.7478C77.6286 12.6002 79.2281 13.0178 80.5504 13.9278C80.9162 14.1627 81.2521 14.4415 81.5504 14.7578C81.7904 15.0178 81.8503 15.1378 81.7903 15.1478Z" fill="#263238"/>
<path d="M85.3904 44.758C85.3904 44.758 85.2804 44.8781 85.0404 45.0881L83.9804 46.0881C82.5434 47.2582 80.9804 48.2644 79.3204 49.0881C76.1608 50.6016 72.7103 51.4114 69.2072 51.4614C65.7041 51.5115 62.2319 50.8007 59.0304 49.3781H59.2304L22.8404 83.4381L22.7404 83.5481H22.5904L11.3604 80.7281L11.1304 80.678V80.4381C11.2704 78.0881 11.4204 75.5181 11.5804 72.9081V72.6681L11.6604 72.5881L14.7904 69.6681L14.9004 69.5581H15.0604L19.7004 70.8581L19.3304 71.178C19.1004 69.628 18.8604 67.928 18.6104 66.178V66.0281L18.7204 65.928L23.9904 61.008L24.1104 60.8881H24.2704L31.8704 63.0181L31.5004 63.348C31.1304 60.768 30.7304 58.0081 30.3304 55.2181V55.0581L30.4504 54.958L32.0704 53.4381L36.5804 49.2381L36.7004 49.118H36.8604L44.4704 51.2481L44.0904 51.5781C43.697 48.8381 43.307 46.1281 42.9204 43.4481V43.2981L43.0304 43.1881L47.9304 38.618L47.8804 38.9781C45.9842 35.6095 44.9117 31.8402 44.7504 27.9781C44.657 26.112 44.7913 24.2416 45.1504 22.4081C45.478 20.6051 46.015 18.8465 46.7504 17.1681C48.6053 12.923 51.635 9.29656 55.4824 6.71619C59.3299 4.13581 63.8348 2.709 68.4662 2.60391C73.0977 2.49882 77.6627 3.71982 81.6232 6.12302C85.5838 8.52622 88.7748 12.0115 90.8204 16.1681C92.7388 20.0896 93.5578 24.4579 93.1904 28.8081C92.9368 32.0507 92.0177 35.2064 90.4904 38.0781C90.3404 38.3781 90.1904 38.6581 90.0404 38.9381L89.5504 39.6981C89.2204 40.1881 88.9504 40.698 88.6304 41.068C87.9804 41.848 87.4804 42.548 86.9904 43.068L85.7904 44.398L85.4004 44.758C85.4004 44.758 85.5104 44.6181 85.7504 44.3581L86.8304 43.208C87.3004 42.708 87.8304 41.998 88.4204 41.208C88.7204 40.798 88.9804 40.3181 89.3004 39.8381C89.4604 39.5881 89.6204 39.338 89.7804 39.068L90.2204 38.2181C91.6976 35.376 92.5876 32.2656 92.8376 29.0723C93.0875 25.8791 92.6923 22.6681 91.6753 19.6308C90.6583 16.5935 89.0404 13.7919 86.918 11.393C84.7956 8.99401 82.2121 7.04674 79.3214 5.66717C76.4306 4.28759 73.2918 3.50392 70.0918 3.36282C66.8919 3.22173 63.6963 3.72611 60.6953 4.84591C57.6944 5.96571 54.9495 7.67803 52.6242 9.88087C50.2989 12.0837 48.4407 14.732 47.1604 17.6681C46.4473 19.3098 45.9239 21.0276 45.6004 22.7881C45.2584 24.5799 45.1309 26.4061 45.2204 28.2281C45.391 31.986 46.4426 35.6513 48.2904 38.928L48.4004 39.1281L48.2304 39.288L43.3404 43.8581L43.4304 43.598C43.8171 46.2647 44.207 48.9781 44.6004 51.7381L44.6704 52.1881L44.2204 52.068L36.6204 49.9381L36.9104 49.868L32.4004 54.068L30.7904 55.5581L30.8804 55.288C31.2804 58.078 31.6804 60.8481 32.0504 63.4181L32.1204 63.8781L31.6704 63.758L24.0704 61.618L24.3504 61.5481C22.5404 63.2481 20.7404 64.9181 19.0804 66.4681L19.1804 66.208C19.4204 67.918 19.6604 69.618 19.8904 71.208L19.9504 71.648L19.5204 71.5281L14.8904 70.2281L15.1604 70.1581L12.0904 73.0181L12.1804 72.8281C12.0204 75.4381 11.8604 78.0081 11.7204 80.3581L11.5104 80.068L22.7404 82.898L22.4904 82.9681L58.9904 49.0281L59.0804 48.9481H59.1904C62.3474 50.3687 65.7738 51.0916 69.2357 51.0674C72.6975 51.0433 76.1135 50.2726 79.2504 48.8081C80.9053 48.0196 82.4738 47.0611 83.9304 45.9481L85.0204 45.038L85.3904 44.758Z" fill="#263238"/>
<path d="M84.5801 42.0277C87.8861 38.9443 90.2569 34.9922 91.4211 30.6239C92.5852 26.2557 92.4957 21.6479 91.1627 17.3282C89.8297 13.0085 87.3072 9.15149 83.884 6.19883C80.4607 3.24617 76.2752 1.31722 71.8066 0.632875C67.338 -0.0514732 62.767 0.536442 58.617 2.32929C54.467 4.12215 50.9058 7.04746 48.3411 10.7703C45.7765 14.4931 44.3121 18.8629 44.1156 23.3793C43.9191 27.8957 44.9985 32.3762 47.2301 36.3077L42.3401 40.8677L43.5101 49.0077L35.9101 46.8677L29.7901 52.5977L30.9601 60.7277L23.3601 58.5977L18.0901 63.5177L18.8001 68.5177L14.1701 67.2277L11.1001 70.0877L10.6401 77.6177L21.8701 80.4377L58.3201 46.4377C62.6453 48.3692 67.4444 48.9811 72.1158 48.1966C76.7873 47.4121 81.1232 45.2661 84.5801 42.0277ZM81.0201 12.4177C81.9532 13.4168 82.5689 14.6702 82.7894 16.0194C83.0099 17.3685 82.8253 18.7528 82.2589 19.9969C81.6925 21.2411 80.7698 22.2894 79.6075 23.009C78.4452 23.7287 77.0956 24.0874 75.7293 24.0398C74.3631 23.9922 73.0417 23.5404 71.9323 22.7416C70.8229 21.9429 69.9754 20.833 69.4969 19.5524C69.0185 18.2718 68.9306 16.878 69.2445 15.5475C69.5584 14.217 70.2598 13.0094 71.2601 12.0777C71.923 11.4585 72.7014 10.976 73.5508 10.658C74.4003 10.3399 75.3041 10.1924 76.2106 10.224C77.1171 10.2556 78.0085 10.4656 78.8338 10.842C79.659 11.2184 80.402 11.7539 81.0201 12.4177Z" fill="#0D6EFD"/>
<path d="M81.02 12.4177C81.02 12.4177 80.57 11.9977 79.65 11.4177C78.3551 10.6103 76.8276 10.2583 75.31 10.4177C74.0854 10.5523 72.9225 11.025 71.9512 11.7827C70.98 12.5405 70.2386 13.5535 69.8102 14.7085C69.3817 15.8635 69.283 17.1149 69.5251 18.3228C69.7672 19.5307 70.3405 20.6474 71.181 21.5481C72.0215 22.4488 73.0959 23.0979 74.2842 23.4228C75.4725 23.7477 76.7277 23.7357 77.9096 23.388C79.0914 23.0404 80.1532 22.3708 80.9762 21.4542C81.7993 20.5375 82.3511 19.41 82.57 18.1977C82.8457 16.6985 82.6134 15.1501 81.91 13.7977C81.41 12.7977 80.98 12.3977 81.02 12.3577C81.06 12.3177 81.15 12.4477 81.36 12.6577C81.6504 12.9612 81.9054 13.2967 82.12 13.6577C82.9362 15.0395 83.2407 16.6642 82.98 18.2477C82.8293 19.1862 82.4923 20.0851 81.9887 20.8912C81.4852 21.6974 80.8253 22.3946 80.048 22.9417C79.2707 23.4888 78.3917 23.8747 77.4629 24.0767C76.5341 24.2786 75.5743 24.2926 74.64 24.1177C73.1339 23.8564 71.7519 23.1173 70.6984 22.0097C69.6448 20.9022 68.9757 19.485 68.79 17.9677C68.6807 17.0236 68.7613 16.0671 69.027 15.1545C69.2927 14.2419 69.7382 13.3917 70.3373 12.6538C70.9364 11.9159 71.6769 11.3052 72.5154 10.8576C73.354 10.4101 74.2735 10.1347 75.22 10.0477C76.8196 9.90219 78.4194 10.3234 79.74 11.2377C80.108 11.4697 80.4442 11.7487 80.74 12.0677C80.95 12.2877 81.04 12.4077 81.02 12.4177Z" fill="#263238"/>
<path d="M84.5801 42.0281C84.5801 42.0281 84.4701 42.1481 84.2401 42.3581L83.1801 43.2981C81.7409 44.4651 80.1782 45.4711 78.5201 46.2981C75.3586 47.8112 71.9065 48.6206 68.4019 48.6707C64.8973 48.7208 61.4235 48.0102 58.2201 46.5881H58.4201L22.0401 80.6481L21.9301 80.7481H21.7901L10.5501 77.9281L10.3301 77.8681V77.6381C10.4701 75.2881 10.6301 72.7181 10.7801 70.1081V69.9881L10.8601 69.9181L13.9301 67.0481L14.0501 66.9381H14.2101L18.8401 68.2281L18.4701 68.5581C18.2501 67.0081 18.0001 65.3081 17.7501 63.5581V63.4081L17.8701 63.2981L23.1301 58.3881L23.2501 58.2681L23.4201 58.3181L31.0201 60.4481L30.6401 60.7781L29.4701 52.6681V52.5081L29.5801 52.3981L31.2101 50.8881L35.7101 46.6881L35.8301 46.5681L36.0001 46.6181L43.6001 48.7481L43.2201 49.0781C42.8267 46.3381 42.4367 43.6281 42.0501 40.9481V40.7881L42.1701 40.6881L47.0701 36.1181L47.0101 36.4781C45.1139 33.1095 44.0414 29.3403 43.8801 25.4781C43.7915 23.6121 43.9258 21.7422 44.2801 19.9081C44.6095 18.1055 45.1464 16.3472 45.8801 14.6681C48.1554 9.37829 52.2388 5.07081 57.3997 2.51645C62.5605 -0.0379033 68.4619 -0.672415 74.0477 0.726459C79.6336 2.12533 84.5394 5.4663 87.8872 10.1515C91.2351 14.8367 92.8064 20.5603 92.3201 26.2981C92.0651 29.5405 91.1461 32.6959 89.6201 35.5681L89.1701 36.4281L88.6801 37.1881C88.3501 37.6781 88.0801 38.1881 87.7701 38.5581C87.1201 39.3381 86.6201 40.0381 86.1301 40.5581L84.9701 41.6681C84.7201 41.9181 84.5801 42.0381 84.5801 42.0381C84.5801 42.0381 84.7001 41.8881 84.9401 41.6281L86.0101 40.4881C86.4801 39.9881 87.0101 39.2781 87.6001 38.4881C87.9001 38.0881 88.1701 37.6081 88.4901 37.1181L88.9701 36.3581L89.4001 35.4981C90.8782 32.6423 91.7594 29.5154 91.9901 26.3081C92.415 20.6921 90.8396 15.1068 87.5427 10.5406C84.2458 5.97436 79.4399 2.72159 73.9754 1.35787C68.511 -0.00584435 62.7403 0.607404 57.6844 3.0891C52.6286 5.57079 48.6137 9.76094 46.3501 14.9181C45.6402 16.5602 45.1202 18.278 44.8001 20.0381C44.4528 21.8292 44.3252 23.656 44.4201 25.4781C44.5876 29.2352 45.6358 32.9004 47.4801 36.1781L47.6001 36.3781L47.4301 36.5381L42.5301 41.1081L42.6201 40.8481C43.0134 43.5147 43.4034 46.2247 43.7901 48.9781L43.8601 49.4381L43.4201 49.3081L35.7901 47.1681L36.0701 47.0981L31.5701 51.3081L29.9401 52.8181L30.0301 52.5581C30.4401 55.3481 30.8301 58.1081 31.2001 60.6881L31.2701 61.1481L30.8301 61.0181L23.2201 58.8881L23.5101 58.8181L18.2401 63.7281L18.3301 63.4781C18.5701 65.1881 18.8201 66.8781 19.0401 68.4281L19.1001 68.8781L18.6701 68.7581L14.0401 67.4581L14.3101 67.3881L11.2501 70.2481L11.3401 70.0481C11.1801 72.6581 11.0201 75.2381 10.8701 77.5781L10.6601 77.2881L21.8901 80.1281L21.6401 80.1981L58.1401 46.2581L58.2301 46.1781L58.3401 46.2281C61.499 47.6416 64.9246 48.3606 68.3853 48.3365C71.846 48.3123 75.2612 47.5456 78.4001 46.0881C80.0572 45.2978 81.6288 44.3395 83.0901 43.2281L84.1701 42.3181L84.5801 42.0281Z" fill="#263238"/>
<path d="M82.3701 40.1478C83.5575 38.8767 84.641 37.5123 85.6101 36.0678C86.707 34.3556 87.5397 32.488 88.0801 30.5278C88.8191 27.9297 89.0533 25.214 88.7701 22.5278C88.4416 19.2816 87.3558 16.1579 85.6001 13.4078C83.5778 10.2594 80.7547 7.70547 77.4201 6.00776C75.6339 5.0778 73.7145 4.43012 71.7301 4.08776C70.7096 3.89712 69.6771 3.77684 68.6401 3.72776C67.5811 3.71147 66.5221 3.76492 65.4701 3.88777C61.052 4.39448 56.9129 6.30449 53.6605 9.33729C50.4081 12.3701 48.2139 16.3659 47.4001 20.7378C47.2041 21.7782 47.0771 22.8305 47.0201 23.8878C46.9995 24.9266 47.0496 25.9657 47.1701 26.9978C47.3716 29.0017 47.8844 30.9619 48.6901 32.8078C50.1502 36.2539 52.5048 39.2471 55.5101 41.4778C58.1261 43.4255 61.1653 44.7276 64.3801 45.2778C67.0304 45.7475 69.7464 45.7034 72.3801 45.1478C74.3735 44.7387 76.2947 44.0343 78.0801 43.0578C79.5878 42.1962 81.0225 41.213 82.3701 40.1178C82.3701 40.1178 82.3001 40.2078 82.1301 40.3578L81.3801 41.0378C80.9784 41.4061 80.5469 41.7406 80.0901 42.0378C79.4891 42.4928 78.8539 42.9007 78.1901 43.2578C76.4006 44.2827 74.4649 45.028 72.4501 45.4678C67.5875 46.5539 62.4981 45.9034 58.0649 43.6293C53.6317 41.3552 50.1345 37.6009 48.1801 33.0178C47.3458 31.1117 46.8127 29.0875 46.6001 27.0178C46.3135 24.9051 46.3777 22.7596 46.7901 20.6678C47.6205 16.1692 49.8746 12.0565 53.2199 8.9363C56.5652 5.81606 60.8246 3.85341 65.3701 3.33776C67.5112 3.0622 69.6828 3.1365 71.8001 3.55777C73.8371 3.92374 75.8064 4.59815 77.6401 5.55777C81.0548 7.30984 83.938 9.94443 85.9901 13.1878C87.6101 15.7631 88.6637 18.6536 89.0809 21.6674C89.4982 24.6811 89.2695 27.7492 88.4101 30.6678C87.8335 32.6514 86.953 34.5337 85.8001 36.2478C85.4039 36.8837 84.9557 37.4858 84.4601 38.0478C84.1272 38.4837 83.7593 38.8917 83.3601 39.2678L82.6301 39.9678C82.4701 40.0778 82.3801 40.1578 82.3701 40.1478Z" fill="#263238"/>
<path d="M81.4004 23.0583C81.3504 23.0583 81.9004 22.5383 82.5704 21.4683C83.5128 19.941 83.9143 18.1413 83.7104 16.3583C83.5719 15.052 83.1061 13.8019 82.3563 12.7234C81.6064 11.6449 80.5966 10.773 79.4204 10.1883C78.0461 9.48492 76.4926 9.20974 74.9604 9.39827C73.7572 9.54334 72.6041 9.96572 71.5919 10.6321C70.5797 11.2986 69.7361 12.1908 69.1273 13.2387C68.5185 14.2866 68.1613 15.4615 68.0837 16.6709C68.0062 17.8803 68.2105 19.0912 68.6804 20.2083C69.2308 21.4936 70.1061 22.6136 71.2204 23.4583C72.2016 24.1891 73.3374 24.6852 74.5404 24.9083C76.3068 25.2339 78.1313 24.9556 79.7204 24.1183C80.8404 23.5283 81.3504 23.0083 81.4004 23.0583C81.4504 23.1083 81.2904 23.2083 81.0404 23.4383C80.6759 23.7844 80.2694 24.0835 79.8304 24.3283C78.4611 25.1213 76.8907 25.4991 75.3106 25.4156C73.7304 25.3322 72.2086 24.7911 70.9304 23.8583C69.6516 22.9332 68.6624 21.6636 68.078 20.1975C67.4937 18.7313 67.3385 17.1293 67.6304 15.5783C67.9528 13.8207 68.8333 12.2139 70.1411 10.9961C71.4488 9.77844 73.1143 9.01471 74.8904 8.81827C76.5382 8.61921 78.2078 8.92244 79.6804 9.68826C81.0089 10.381 82.1276 11.4169 82.9204 12.6883C83.7558 14.0302 84.186 15.5848 84.1594 17.1654C84.1328 18.7459 83.6505 20.2852 82.7704 21.5983C82.4842 22.0171 82.1484 22.3999 81.7704 22.7383C81.5504 22.9683 81.4104 23.0783 81.4004 23.0583Z" fill="#263238"/>
<path d="M18.9103 79.058C18.8003 78.938 27.0003 71.058 37.2403 61.548C47.4803 52.038 55.8703 44.3579 55.9803 44.4779C56.0903 44.5979 47.8903 52.478 37.6503 61.988C27.4103 71.498 19.0203 79.178 18.9103 79.058Z" fill="#263238"/>
<path d="M23.4303 31.3377L23.7703 30.5977L24.2103 31.2777C24.5697 31.8209 25.076 32.2509 25.6703 32.5177L26.4203 32.8477L25.7403 33.2977C25.1922 33.6544 24.7583 34.1612 24.4903 34.7577L24.1602 35.4977L23.7103 34.8177C23.3525 34.2729 22.8457 33.8425 22.2502 33.5777L21.5103 33.2477L22.1902 32.7977C22.738 32.4434 23.1694 31.9356 23.4303 31.3377Z" fill="#0D6EFD"/>
<path d="M1.12 25.7777L1.31 25.3477L1.57001 25.7377C1.77596 26.0564 2.07175 26.3069 2.42001 26.4577L2.85001 26.6577L2.45001 26.9177C2.1358 27.1244 1.88625 27.4155 1.73001 27.7577L1.54001 28.1977L1.28 27.7977C1.07404 27.4789 0.778283 27.2284 0.430023 27.0777L0 26.8777L0.390015 26.6277C0.70686 26.4168 0.959428 26.1227 1.12 25.7777Z" fill="#0D6EFD"/>
<path d="M71.39 63.8079L71.58 63.3779L71.84 63.7779C72.0541 64.0894 72.3476 64.338 72.69 64.4979L73.12 64.6879L72.73 64.9479C72.4113 65.1539 72.1607 65.4497 72.01 65.7979L71.81 66.2279L71.55 65.8379C71.3447 65.52 71.0534 65.2669 70.71 65.1079L70.27 64.9179L70.67 64.6579C70.9887 64.452 71.2393 64.1562 71.39 63.8079Z" fill="#0D6EFD"/>
<path d="M105.79 44.3074L106.12 43.5674L106.57 44.2474C106.928 44.7925 107.435 45.223 108.03 45.4874L108.77 45.8174L108.09 46.2674C107.545 46.6243 107.114 47.1313 106.85 47.7274L106.51 48.4674L106.07 47.7874C105.708 47.2467 105.203 46.8174 104.61 46.5474L103.86 46.2174L104.54 45.7674C105.088 45.4106 105.522 44.9038 105.79 44.3074Z" fill="#0D6EFD"/>
<path d="M101.32 16.9883L101.88 15.7383L102.63 16.8883C103.233 17.8026 104.082 18.5273 105.08 18.9783L106.33 19.5283L105.18 20.2783C104.267 20.8869 103.543 21.7391 103.09 22.7383L102.53 23.9883L101.78 22.8383C101.177 21.9239 100.328 21.1993 99.3301 20.7483L98.0801 20.1883L99.2301 19.4383C100.144 18.8357 100.869 17.9862 101.32 16.9883Z" fill="#0D6EFD"/>
<path d="M16.5 8.56738L17.06 7.31738L17.81 8.45738C18.4097 9.37431 19.26 10.0997 20.26 10.5474L21.51 11.1074L20.37 11.8574C19.4504 12.454 18.7242 13.3053 18.28 14.3074L17.72 15.5574L16.97 14.4174C16.3689 13.4979 15.5146 12.772 14.51 12.3274L13.27 11.7674L14.41 11.0174C15.3269 10.4177 16.0523 9.56735 16.5 8.56738Z" fill="#0D6EFD"/>
<g filter="url(#filter0_d_1_1053)">
<path d="M94 74.78L102.568 85.616L107.608 81.752L99.04 71.336L111.892 67.388L110.044 61.592L97.024 65.792L97.276 52.688H90.724L90.976 65.792L77.956 61.592L76.108 67.388L88.96 71.336L80.392 81.752L85.432 85.616L94 74.78Z" fill="#0D6EFD"/>
</g>
<defs>
<filter id="filter0_d_1_1053" x="76.108" y="52.688" width="38.7839" height="35.928" filterUnits="userSpaceOnUse" color-interpolation-filters="sRGB">
<feFlood flood-opacity="0" result="BackgroundImageFix"/>
<feColorMatrix in="SourceAlpha" type="matrix" values="0 0 0 0 0 0 0 0 0 0 0 0 0 0 0 0 0 0 127 0" result="hardAlpha"/>
<feOffset dx="3" dy="3"/>
<feComposite in2="hardAlpha" operator="out"/>
<feColorMatrix type="matrix" values="0 0 0 0 0.14902 0 0 0 0 0.196078 0 0 0 0 0.219608 0 0 0 1 0"/>
<feBlend mode="normal" in2="BackgroundImageFix" result="effect1_dropShadow_1_1053"/>
<feBlend mode="normal" in="SourceGraphic" in2="effect1_dropShadow_1_1053" result="shape"/>
</filter>
</defs>
</svg>
