<svg width="406" height="247" viewBox="0 0 406 247" fill="none" xmlns="http://www.w3.org/2000/svg">
<g clip-path="url(#clip0_1_50)">
<path d="M24 227.821C38.88 223.106 68.64 218.01 98.4 204.246C128.16 190.482 143.04 170.958 172.8 159.002C202.56 147.045 217.44 153.538 247.2 144.463C276.96 135.387 291.84 125.12 321.6 113.623C351.36 102.126 381.12 92.3067 396 86.9776V229H24V227.821Z" fill="#0D6EFD" fill-opacity="0.101961"/>
<path d="M24 227.821C38.88 223.106 68.64 218.01 98.4 204.246C128.16 190.482 143.04 170.958 172.8 159.002C202.56 147.045 217.44 153.538 247.2 144.463C276.96 135.387 291.84 125.12 321.6 113.623C351.36 102.126 381.12 92.3067 396 86.9776" stroke="#0D6EFD" stroke-width="4"/>
<path d="M24 230.797C25.6436 230.797 26.976 229.464 26.976 227.821C26.976 226.177 25.6436 224.845 24 224.845C22.3564 224.845 21.024 226.177 21.024 227.821C21.024 229.464 22.3564 230.797 24 230.797Z" fill="#0D6EFD"/>
<path d="M97.9761 187.952C99.6197 187.952 100.952 186.619 100.952 184.976C100.952 183.332 99.6197 182 97.9761 182C96.3325 182 95.0001 183.332 95.0001 184.976C95.0001 186.619 96.3325 187.952 97.9761 187.952Z" fill="#0D6EFD"/>
<path d="M172.8 161.977C174.444 161.977 175.776 160.645 175.776 159.001C175.776 157.358 174.444 156.025 172.8 156.025C171.156 156.025 169.824 157.358 169.824 159.001C169.824 160.645 171.156 161.977 172.8 161.977Z" fill="#0D6EFD"/>
<path d="M247.2 147.439C248.844 147.439 250.176 146.106 250.176 144.463C250.176 142.819 248.844 141.487 247.2 141.487C245.556 141.487 244.224 142.819 244.224 144.463C244.224 146.106 245.556 147.439 247.2 147.439Z" fill="#0D6EFD"/>
<path d="M321.6 116.599C323.244 116.599 324.576 115.267 324.576 113.623C324.576 111.979 323.244 110.647 321.6 110.647C319.956 110.647 318.624 111.979 318.624 113.623C318.624 115.267 319.956 116.599 321.6 116.599Z" fill="#0D6EFD"/>
<path d="M396 89.9536C397.644 89.9536 398.976 88.6212 398.976 86.9776C398.976 85.334 397.644 84.0016 396 84.0016C394.356 84.0016 393.024 85.334 393.024 86.9776C393.024 88.6212 394.356 89.9536 396 89.9536Z" fill="#0D6EFD"/>
</g>
<g clip-path="url(#clip1_1_50)">
<path d="M24.5 227.5V226.692C28.6119 225.336 33.8292 223.735 39.8473 221.889C55.7182 217.019 77.1585 210.441 98.5808 202.132C110.935 197.34 120.737 192.025 130.07 186.963C132.006 185.913 133.921 184.874 135.835 183.854C146.981 177.908 158.096 172.555 172.913 169.103C185.57 166.154 195.484 168.758 205.135 171.293C206.721 171.709 208.299 172.124 209.881 172.511C215.478 173.883 221.119 174.914 227.243 174.445C233.375 173.975 239.96 172.005 247.461 167.421C254.977 162.827 261.531 155.935 267.593 147.961C273.47 140.23 278.906 131.452 284.313 122.72L284.825 121.893C290.408 112.881 295.973 103.954 301.999 96.2602C308.024 88.5663 314.485 82.1384 321.84 78.1034C336.555 70.0315 351.281 71.5407 364.241 75.297C369.926 76.9449 375.255 79.0202 380.093 80.9043C380.773 81.1688 381.442 81.4296 382.102 81.6849C387.226 83.6681 391.781 85.3369 395.5 85.8132V227.5H24.5Z" fill="#198754" fill-opacity="0.101961" stroke="#198754"/>
<path d="M24 226.331C38.88 221.398 64.176 198.542 93.936 186.999C123.696 175.456 138.576 126.934 168.336 119.999C198.096 113.065 218.928 201.189 248.688 182.999C278.448 164.809 291.84 93.9902 321.6 77.665C351.36 61.3398 381.12 83.8273 396 85.3678" stroke="#198754" stroke-width="4"/>
<path d="M24 229.339C25.6436 229.339 26.976 227.992 26.976 226.331C26.976 224.67 25.6436 223.323 24 223.323C22.3564 223.323 21.024 224.67 21.024 226.331C21.024 227.992 22.3564 229.339 24 229.339Z" fill="#198754"/>
<path d="M97.9761 207.017C99.6197 207.017 100.952 205.67 100.952 204.009C100.952 202.348 99.6197 201.001 97.9761 201.001C96.3325 201.001 95.0001 202.348 95.0001 204.009C95.0001 205.67 96.3325 207.017 97.9761 207.017Z" fill="#198754"/>
<path d="M170.816 123.017C172.46 123.017 173.792 121.67 173.792 120.009C173.792 118.348 172.46 117.001 170.816 117.001C169.172 117.001 167.84 118.348 167.84 120.009C167.84 121.67 169.172 123.017 170.816 123.017Z" fill="#198754"/>
<path d="M248.192 186.017C249.836 186.017 251.168 184.67 251.168 183.009C251.168 181.348 249.836 180.001 248.192 180.001C246.548 180.001 245.216 181.348 245.216 183.009C245.216 184.67 246.548 186.017 248.192 186.017Z" fill="#198754"/>
<path d="M321.6 80.673C323.244 80.673 324.576 79.3263 324.576 77.665C324.576 76.0038 323.244 74.657 321.6 74.657C319.956 74.657 318.624 76.0038 318.624 77.665C318.624 79.3263 319.956 80.673 321.6 80.673Z" fill="#198754"/>
<path d="M396 88.3758C397.644 88.3758 398.976 87.0291 398.976 85.3678C398.976 83.7066 397.644 82.3598 396 82.3598C394.356 82.3598 393.024 83.7066 393.024 85.3678C393.024 87.0291 394.356 88.3758 396 88.3758Z" fill="#198754"/>
<rect x="130" y="79" width="82" height="24" rx="12" fill="black"/>
<path d="M138.05 95C140.29 95 141.66 93.45 141.66 91.38C141.66 89.28 140.34 87.82 138.05 87.82H135.78V95H138.05ZM136.88 88.77H138C139.66 88.77 140.54 89.76 140.54 91.38C140.54 93.03 139.65 94.05 138 94.05H136.88V88.77ZM144.951 95.1C146.451 95.1 147.551 93.92 147.551 92.35C147.551 90.78 146.451 89.6 144.951 89.6C143.451 89.6 142.351 90.78 142.351 92.35C142.351 93.92 143.451 95.1 144.951 95.1ZM144.951 94.21C144.081 94.21 143.401 93.51 143.401 92.35C143.401 91.19 144.081 90.5 144.951 90.5C145.821 90.5 146.511 91.19 146.511 92.35C146.511 93.51 145.821 94.21 144.951 94.21ZM150.671 95.11C152.001 95.11 152.941 94.25 153.121 92.85H152.071C151.951 93.71 151.431 94.21 150.681 94.21C149.811 94.21 149.241 93.48 149.241 92.35C149.241 91.23 149.811 90.49 150.681 90.49C151.421 90.49 151.951 91 152.061 91.85H153.121C152.931 90.47 151.981 89.6 150.671 89.6C149.241 89.6 148.201 90.75 148.201 92.35C148.201 93.97 149.221 95.11 150.671 95.11ZM157.448 92.82C157.448 93.65 156.898 94.21 156.218 94.21C155.558 94.21 155.098 93.83 155.098 92.91V89.7H154.088V93.11C154.088 94.47 154.828 95.1 155.898 95.1C156.618 95.1 157.238 94.71 157.518 94.16V95H158.458V89.7H157.448V92.82ZM160.87 95V91.96C160.87 91.07 161.42 90.49 162.12 90.49C162.86 90.49 163.25 91.01 163.25 91.89V95H164.26V91.96C164.26 91.07 164.82 90.49 165.51 90.49C166.25 90.49 166.64 91.01 166.64 91.89V95H167.65V91.57C167.65 90.31 166.95 89.6 165.86 89.6C165.05 89.6 164.44 90.02 164.07 90.7C163.83 90 163.24 89.6 162.46 89.6C161.73 89.6 161.16 89.97 160.8 90.58V89.7H159.86V95H160.87ZM171.181 95.1C172.431 95.1 173.341 94.39 173.601 93.21H172.601C172.431 93.9 171.911 94.31 171.161 94.31C170.271 94.31 169.731 93.68 169.651 92.6H173.601C173.781 90.88 172.731 89.6 171.151 89.6C169.691 89.6 168.621 90.75 168.621 92.32C168.621 93.99 169.651 95.1 171.181 95.1ZM171.131 90.36C171.951 90.36 172.481 90.95 172.531 91.93H169.661C169.771 90.94 170.321 90.36 171.131 90.36ZM175.685 92.01C175.685 91.07 176.265 90.49 176.955 90.49C177.705 90.49 178.105 91 178.105 91.91V95H179.115V91.57C179.115 90.3 178.395 89.6 177.305 89.6C176.575 89.6 175.975 89.99 175.615 90.58V89.7H174.675V95H175.685V92.01ZM183.426 94.02C183.216 94.12 183.006 94.16 182.766 94.16C182.226 94.16 181.876 93.9 181.876 93.17V90.56H183.476V89.7H181.876V88.13H180.866V89.7H179.696V90.56H180.866V93.4C180.866 94.57 181.546 95.1 182.526 95.1C182.846 95.1 183.116 95.05 183.426 94.91V94.02ZM191.86 92.9C191.86 91.83 191.17 91.29 189.94 91.04L188.88 90.83C188.21 90.69 187.62 90.45 187.62 89.77C187.62 89.15 188.13 88.6 189.06 88.6C189.96 88.6 190.58 89.2 190.64 90.06H191.76C191.67 88.63 190.54 87.72 189.05 87.72C187.56 87.72 186.5 88.63 186.5 89.84C186.5 91.06 187.42 91.57 188.43 91.77L189.47 91.97C190.3 92.15 190.69 92.45 190.69 93.05C190.69 93.79 190.01 94.22 189.1 94.22C188 94.22 187.42 93.63 187.37 92.72H186.25C186.34 94.15 187.39 95.1 189.12 95.1C190.86 95.1 191.86 94.15 191.86 92.9ZM195.274 95.1C196.774 95.1 197.874 93.92 197.874 92.35C197.874 90.78 196.774 89.6 195.274 89.6C193.774 89.6 192.674 90.78 192.674 92.35C192.674 93.92 193.774 95.1 195.274 95.1ZM195.274 94.21C194.404 94.21 193.724 93.51 193.724 92.35C193.724 91.19 194.404 90.5 195.274 90.5C196.144 90.5 196.834 91.19 196.834 92.35C196.834 93.51 196.144 94.21 195.274 94.21ZM199.923 95V87.82H198.903V95H199.923ZM200.945 92.35C200.945 93.94 201.865 95.1 203.295 95.1C204.045 95.1 204.685 94.72 205.065 94.05V95H206.005V87.82H204.995V90.61C204.625 89.96 204.005 89.6 203.295 89.6C201.865 89.6 200.945 90.74 200.945 92.35ZM201.995 92.35C201.995 91.15 202.615 90.49 203.495 90.49C204.335 90.49 204.995 91.14 204.995 92.33C204.995 93.5 204.355 94.2 203.495 94.2C202.615 94.2 201.995 93.53 201.995 92.35Z" fill="white"/>
<path d="M170.5 115L163.139 102.25L177.861 102.25L170.5 115Z" fill="black"/>
<rect x="119" y="175" width="106" height="24" rx="12" fill="black"/>
<path d="M127.05 191C129.29 191 130.66 189.45 130.66 187.38C130.66 185.28 129.34 183.82 127.05 183.82H124.78V191H127.05ZM125.88 184.77H127C128.66 184.77 129.54 185.76 129.54 187.38C129.54 189.03 128.65 190.05 127 190.05H125.88V184.77ZM133.951 191.1C135.451 191.1 136.551 189.92 136.551 188.35C136.551 186.78 135.451 185.6 133.951 185.6C132.451 185.6 131.351 186.78 131.351 188.35C131.351 189.92 132.451 191.1 133.951 191.1ZM133.951 190.21C133.081 190.21 132.401 189.51 132.401 188.35C132.401 187.19 133.081 186.5 133.951 186.5C134.821 186.5 135.511 187.19 135.511 188.35C135.511 189.51 134.821 190.21 133.951 190.21ZM139.671 191.11C141.001 191.11 141.941 190.25 142.121 188.85H141.071C140.951 189.71 140.431 190.21 139.681 190.21C138.811 190.21 138.241 189.48 138.241 188.35C138.241 187.23 138.811 186.49 139.681 186.49C140.421 186.49 140.951 187 141.061 187.85H142.121C141.931 186.47 140.981 185.6 139.671 185.6C138.241 185.6 137.201 186.75 137.201 188.35C137.201 189.97 138.221 191.11 139.671 191.11ZM146.448 188.82C146.448 189.65 145.898 190.21 145.218 190.21C144.558 190.21 144.098 189.83 144.098 188.91V185.7H143.088V189.11C143.088 190.47 143.828 191.1 144.898 191.1C145.618 191.1 146.238 190.71 146.518 190.16V191H147.458V185.7H146.448V188.82ZM149.87 191V187.96C149.87 187.07 150.42 186.49 151.12 186.49C151.86 186.49 152.25 187.01 152.25 187.89V191H153.26V187.96C153.26 187.07 153.82 186.49 154.51 186.49C155.25 186.49 155.64 187.01 155.64 187.89V191H156.65V187.57C156.65 186.31 155.95 185.6 154.86 185.6C154.05 185.6 153.44 186.02 153.07 186.7C152.83 186 152.24 185.6 151.46 185.6C150.73 185.6 150.16 185.97 149.8 186.58V185.7H148.86V191H149.87ZM160.181 191.1C161.431 191.1 162.341 190.39 162.601 189.21H161.601C161.431 189.9 160.911 190.31 160.161 190.31C159.271 190.31 158.731 189.68 158.651 188.6H162.601C162.781 186.88 161.731 185.6 160.151 185.6C158.691 185.6 157.621 186.75 157.621 188.32C157.621 189.99 158.651 191.1 160.181 191.1ZM160.131 186.36C160.951 186.36 161.481 186.95 161.531 187.93H158.661C158.771 186.94 159.321 186.36 160.131 186.36ZM164.685 188.01C164.685 187.07 165.265 186.49 165.955 186.49C166.705 186.49 167.105 187 167.105 187.91V191H168.115V187.57C168.115 186.3 167.395 185.6 166.305 185.6C165.575 185.6 164.975 185.99 164.615 186.58V185.7H163.675V191H164.685V188.01ZM172.426 190.02C172.216 190.12 172.006 190.16 171.766 190.16C171.226 190.16 170.876 189.9 170.876 189.17V186.56H172.476V185.7H170.876V184.13H169.866V185.7H168.696V186.56H169.866V189.4C169.866 190.57 170.546 191.1 171.526 191.1C171.846 191.1 172.116 191.05 172.426 190.91V190.02ZM180.55 191H181.72L178.99 183.82H177.78L175.03 191H176.14L176.8 189.22H179.9L180.55 191ZM178.36 185.02L179.57 188.33H177.13L178.36 185.02ZM184.417 191.11C185.747 191.11 186.687 190.25 186.867 188.85H185.817C185.697 189.71 185.177 190.21 184.427 190.21C183.557 190.21 182.987 189.48 182.987 188.35C182.987 187.23 183.557 186.49 184.427 186.49C185.167 186.49 185.697 187 185.807 187.85H186.867C186.677 186.47 185.727 185.6 184.417 185.6C182.987 185.6 181.947 186.75 181.947 188.35C181.947 189.97 182.967 191.11 184.417 191.11ZM189.925 191.11C191.255 191.11 192.195 190.25 192.375 188.85H191.325C191.205 189.71 190.685 190.21 189.935 190.21C189.065 190.21 188.495 189.48 188.495 188.35C188.495 187.23 189.065 186.49 189.935 186.49C190.675 186.49 191.205 187 191.315 187.85H192.375C192.185 186.47 191.235 185.6 189.925 185.6C188.495 185.6 187.455 186.75 187.455 188.35C187.455 189.97 188.475 191.11 189.925 191.11ZM195.523 191.1C196.773 191.1 197.683 190.39 197.943 189.21H196.943C196.773 189.9 196.253 190.31 195.503 190.31C194.613 190.31 194.073 189.68 193.993 188.6H197.943C198.123 186.88 197.073 185.6 195.493 185.6C194.033 185.6 192.963 186.75 192.963 188.32C192.963 189.99 193.993 191.1 195.523 191.1ZM195.473 186.36C196.293 186.36 196.823 186.95 196.873 187.93H194.003C194.113 186.94 194.663 186.36 195.473 186.36ZM204.076 188.35C204.076 186.75 203.146 185.6 201.736 185.6C200.986 185.6 200.336 185.99 199.956 186.67V185.7H199.016V192.93H200.026V190.1C200.406 190.74 201.016 191.1 201.736 191.1C203.156 191.1 204.076 189.95 204.076 188.35ZM203.026 188.35C203.026 189.54 202.396 190.2 201.526 190.2C200.676 190.2 200.026 189.52 200.026 188.35C200.026 187.16 200.686 186.49 201.526 186.49C202.396 186.49 203.026 187.16 203.026 188.35ZM208.012 190.02C207.802 190.12 207.592 190.16 207.352 190.16C206.812 190.16 206.462 189.9 206.462 189.17V186.56H208.062V185.7H206.462V184.13H205.452V185.7H204.282V186.56H205.452V189.4C205.452 190.57 206.132 191.1 207.112 191.1C207.432 191.1 207.702 191.05 208.012 190.91V190.02ZM211.06 191.1C212.31 191.1 213.22 190.39 213.48 189.21H212.48C212.31 189.9 211.79 190.31 211.04 190.31C210.15 190.31 209.61 189.68 209.53 188.6H213.48C213.66 186.88 212.61 185.6 211.03 185.6C209.57 185.6 208.5 186.75 208.5 188.32C208.5 189.99 209.53 191.1 211.06 191.1ZM211.01 186.36C211.83 186.36 212.36 186.95 212.41 187.93H209.54C209.65 186.94 210.2 186.36 211.01 186.36ZM214.076 188.35C214.076 189.94 214.996 191.1 216.426 191.1C217.176 191.1 217.816 190.72 218.196 190.05V191H219.136V183.82H218.126V186.61C217.756 185.96 217.136 185.6 216.426 185.6C214.996 185.6 214.076 186.74 214.076 188.35ZM215.126 188.35C215.126 187.15 215.746 186.49 216.626 186.49C217.466 186.49 218.126 187.14 218.126 188.33C218.126 189.5 217.486 190.2 216.626 190.2C215.746 190.2 215.126 189.53 215.126 188.35Z" fill="white"/>
<path d="M173.5 163L180.861 175.75H166.139L173.5 163Z" fill="black"/>
</g>
<line x1="24.5" y1="228" x2="24.5" y2="8" stroke="black"/>
<path d="M24 228.5H396" stroke="black"/>
<path d="M89.812 244.18C92.308 244.18 94.192 242.224 94.192 239.68C94.192 237.136 92.308 235.204 89.812 235.204C87.316 235.204 85.432 237.136 85.432 239.68C85.432 242.224 87.316 244.18 89.812 244.18ZM89.812 242.992C87.988 242.992 86.8 241.528 86.8 239.68C86.8 237.832 87.988 236.392 89.812 236.392C91.636 236.392 92.824 237.832 92.824 239.68C92.824 241.528 91.636 242.992 89.812 242.992ZM98.5451 241C100.477 241 101.725 239.98 101.725 238.168C101.725 236.368 100.477 235.384 98.5451 235.384H95.5571V244H96.8771V241H98.5451ZM98.5331 236.5C99.6971 236.5 100.405 237.112 100.405 238.18C100.405 239.248 99.6971 239.884 98.5331 239.884H96.8771V236.5H98.5331ZM105.121 244V235.888H102.325V236.944H103.897V244H105.121Z" fill="#ADADAD"/>
<path d="M11.588 223.956C11.588 226.644 12.632 228.12 14.576 228.12C16.52 228.12 17.576 226.644 17.576 223.956C17.576 221.268 16.496 219.768 14.576 219.768C12.656 219.768 11.588 221.268 11.588 223.956ZM12.836 223.956C12.836 221.928 13.46 220.86 14.576 220.86C15.716 220.86 16.328 221.928 16.328 223.956C16.328 225.972 15.716 227.028 14.576 227.028C13.436 227.028 12.836 225.96 12.836 223.956Z" fill="#ADADAD"/>
<path d="M10.868 185.92H7.448L9.08 184.072C10.412 182.656 10.76 182.008 10.76 181.084C10.76 179.752 9.656 178.768 8.144 178.768C6.536 178.768 5.408 179.848 5.408 181.348H6.596C6.596 180.448 7.196 179.86 8.096 179.86C8.924 179.86 9.488 180.424 9.488 181.228C9.488 181.96 9.116 182.524 8.156 183.568L5.624 186.304V187H10.868V185.92ZM14.7104 187.12C16.5944 187.12 17.6384 185.86 17.6384 184.408C17.6384 183.028 16.6664 181.78 14.8784 181.78C14.3264 181.78 13.8104 181.948 13.3544 182.308L13.7144 179.968H17.1704V178.888H12.8384L12.1184 183.412L13.1024 183.724C13.4384 183.136 13.9784 182.836 14.6984 182.836C15.7784 182.836 16.3784 183.568 16.3784 184.408C16.3784 185.332 15.8264 186.028 14.7104 186.028C13.8104 186.028 13.1504 185.512 13.0664 184.648H11.8544C11.9144 186.088 13.1264 187.12 14.7104 187.12Z" fill="#ADADAD"/>
<path d="M8.312 136.12C10.196 136.12 11.24 134.86 11.24 133.408C11.24 132.028 10.268 130.78 8.48 130.78C7.928 130.78 7.412 130.948 6.956 131.308L7.316 128.968H10.772V127.888H6.44L5.72 132.412L6.704 132.724C7.04 132.136 7.58 131.836 8.3 131.836C9.38 131.836 9.98 132.568 9.98 133.408C9.98 134.332 9.428 135.028 8.312 135.028C7.412 135.028 6.752 134.512 6.668 133.648H5.456C5.516 135.088 6.728 136.12 8.312 136.12ZM12.2443 131.956C12.2443 134.644 13.2883 136.12 15.2323 136.12C17.1763 136.12 18.2323 134.644 18.2323 131.956C18.2323 129.268 17.1523 127.768 15.2323 127.768C13.3123 127.768 12.2443 129.268 12.2443 131.956ZM13.4923 131.956C13.4923 129.928 14.1163 128.86 15.2323 128.86C16.3723 128.86 16.9843 129.928 16.9843 131.956C16.9843 133.972 16.3723 135.028 15.2323 135.028C14.0923 135.028 13.4923 133.96 13.4923 131.956Z" fill="#ADADAD"/>
<path d="M10.7 77.596V76.888H5.228V77.98H9.344L6.26 85H7.568L10.7 77.596ZM14.1831 85.12C16.0671 85.12 17.1111 83.86 17.1111 82.408C17.1111 81.028 16.1391 79.78 14.3511 79.78C13.7991 79.78 13.2831 79.948 12.8271 80.308L13.1871 77.968H16.6431V76.888H12.3111L11.5911 81.412L12.5751 81.724C12.9111 81.136 13.4511 80.836 14.1711 80.836C15.2511 80.836 15.8511 81.568 15.8511 82.408C15.8511 83.332 15.2991 84.028 14.1831 84.028C13.2831 84.028 12.6231 83.512 12.5391 82.648H11.3271C11.3871 84.088 12.5991 85.12 14.1831 85.12Z" fill="#ADADAD"/>
<path d="M3.012 34V25.888H0.216V26.944H1.788V34H3.012ZM4.54894 29.956C4.54894 32.644 5.59294 34.12 7.53694 34.12C9.48094 34.12 10.5369 32.644 10.5369 29.956C10.5369 27.268 9.45694 25.768 7.53694 25.768C5.61694 25.768 4.54894 27.268 4.54894 29.956ZM5.79694 29.956C5.79694 27.928 6.42094 26.86 7.53694 26.86C8.67694 26.86 9.28894 27.928 9.28894 29.956C9.28894 31.972 8.67694 33.028 7.53694 33.028C6.39694 33.028 5.79694 31.96 5.79694 29.956ZM11.7091 29.956C11.7091 32.644 12.7531 34.12 14.6971 34.12C16.6411 34.12 17.6971 32.644 17.6971 29.956C17.6971 27.268 16.6171 25.768 14.6971 25.768C12.7771 25.768 11.7091 27.268 11.7091 29.956ZM12.9571 29.956C12.9571 27.928 13.5811 26.86 14.6971 26.86C15.8371 26.86 16.4491 27.928 16.4491 29.956C16.4491 31.972 15.8371 33.028 14.6971 33.028C13.5571 33.028 12.9571 31.96 12.9571 29.956Z" fill="#ADADAD"/>
<path d="M163.812 244.18C166.308 244.18 168.192 242.224 168.192 239.68C168.192 237.136 166.308 235.204 163.812 235.204C161.316 235.204 159.432 237.136 159.432 239.68C159.432 242.224 161.316 244.18 163.812 244.18ZM163.812 242.992C161.988 242.992 160.8 241.528 160.8 239.68C160.8 237.832 161.988 236.392 163.812 236.392C165.636 236.392 166.824 237.832 166.824 239.68C166.824 241.528 165.636 242.992 163.812 242.992ZM172.545 241C174.477 241 175.725 239.98 175.725 238.168C175.725 236.368 174.477 235.384 172.545 235.384H169.557V244H170.877V241H172.545ZM172.533 236.5C173.697 236.5 174.405 237.112 174.405 238.18C174.405 239.248 173.697 239.884 172.533 239.884H170.877V236.5H172.533ZM181.977 242.92H178.557L180.189 241.072C181.521 239.656 181.869 239.008 181.869 238.084C181.869 236.752 180.765 235.768 179.253 235.768C177.645 235.768 176.517 236.848 176.517 238.348H177.705C177.705 237.448 178.305 236.86 179.205 236.86C180.033 236.86 180.597 237.424 180.597 238.228C180.597 238.96 180.225 239.524 179.265 240.568L176.733 243.304V244H181.977V242.92Z" fill="#ADADAD"/>
<path d="M240.812 244.18C243.308 244.18 245.192 242.224 245.192 239.68C245.192 237.136 243.308 235.204 240.812 235.204C238.316 235.204 236.432 237.136 236.432 239.68C236.432 242.224 238.316 244.18 240.812 244.18ZM240.812 242.992C238.988 242.992 237.8 241.528 237.8 239.68C237.8 237.832 238.988 236.392 240.812 236.392C242.636 236.392 243.824 237.832 243.824 239.68C243.824 241.528 242.636 242.992 240.812 242.992ZM249.545 241C251.477 241 252.725 239.98 252.725 238.168C252.725 236.368 251.477 235.384 249.545 235.384H246.557V244H247.877V241H249.545ZM249.533 236.5C250.697 236.5 251.405 237.112 251.405 238.18C251.405 239.248 250.697 239.884 249.533 239.884H247.877V236.5H249.533ZM256.517 244.108C258.245 244.108 259.421 243.124 259.421 241.684C259.421 240.748 258.809 240.052 257.741 239.764C258.581 239.368 259.049 238.732 259.049 237.94C259.049 236.668 258.041 235.768 256.481 235.768C255.005 235.768 253.877 236.764 253.841 238.096H255.017C255.053 237.268 255.605 236.74 256.433 236.74C257.249 236.74 257.789 237.256 257.789 238.024C257.789 238.816 257.189 239.344 256.277 239.344H255.497V240.316H256.337C257.453 240.316 258.161 240.856 258.161 241.708C258.161 242.584 257.537 243.136 256.517 243.136C255.533 243.136 254.885 242.572 254.837 241.696H253.649C253.661 243.124 254.837 244.108 256.517 244.108Z" fill="#ADADAD"/>
<path d="M315.812 244.18C318.308 244.18 320.192 242.224 320.192 239.68C320.192 237.136 318.308 235.204 315.812 235.204C313.316 235.204 311.432 237.136 311.432 239.68C311.432 242.224 313.316 244.18 315.812 244.18ZM315.812 242.992C313.988 242.992 312.8 241.528 312.8 239.68C312.8 237.832 313.988 236.392 315.812 236.392C317.636 236.392 318.824 237.832 318.824 239.68C318.824 241.528 317.636 242.992 315.812 242.992ZM324.545 241C326.477 241 327.725 239.98 327.725 238.168C327.725 236.368 326.477 235.384 324.545 235.384H321.557V244H322.877V241H324.545ZM324.533 236.5C325.697 236.5 326.405 237.112 326.405 238.18C326.405 239.248 325.697 239.884 324.533 239.884H322.877V236.5H324.533ZM334.601 242.212V241.156H333.497V235.888H332.561L328.385 241.36V242.212H332.285V244H333.497V242.212H334.601ZM329.741 241.156L332.285 237.724V241.156H329.741Z" fill="#ADADAD"/>
<path d="M386.812 244.18C389.308 244.18 391.192 242.224 391.192 239.68C391.192 237.136 389.308 235.204 386.812 235.204C384.316 235.204 382.432 237.136 382.432 239.68C382.432 242.224 384.316 244.18 386.812 244.18ZM386.812 242.992C384.988 242.992 383.8 241.528 383.8 239.68C383.8 237.832 384.988 236.392 386.812 236.392C388.636 236.392 389.824 237.832 389.824 239.68C389.824 241.528 388.636 242.992 386.812 242.992ZM395.545 241C397.477 241 398.725 239.98 398.725 238.168C398.725 236.368 397.477 235.384 395.545 235.384H392.557V244H393.877V241H395.545ZM395.533 236.5C396.697 236.5 397.405 237.112 397.405 238.18C397.405 239.248 396.697 239.884 395.533 239.884H393.877V236.5H395.533ZM402.421 244.12C404.305 244.12 405.349 242.86 405.349 241.408C405.349 240.028 404.377 238.78 402.589 238.78C402.037 238.78 401.521 238.948 401.065 239.308L401.425 236.968H404.881V235.888H400.549L399.829 240.412L400.813 240.724C401.149 240.136 401.689 239.836 402.409 239.836C403.489 239.836 404.089 240.568 404.089 241.408C404.089 242.332 403.537 243.028 402.421 243.028C401.521 243.028 400.861 242.512 400.777 241.648H399.565C399.625 243.088 400.837 244.12 402.421 244.12Z" fill="#ADADAD"/>
<circle cx="294" cy="23" r="5" fill="#198754"/>
<circle cx="294" cy="8" r="5" fill="#0D6EFD"/>
<path d="M306.05 27C308.29 27 309.66 25.45 309.66 23.38C309.66 21.28 308.34 19.82 306.05 19.82H303.78V27H306.05ZM304.88 20.77H306C307.66 20.77 308.54 21.76 308.54 23.38C308.54 25.03 307.65 26.05 306 26.05H304.88V20.77ZM312.951 27.1C314.451 27.1 315.551 25.92 315.551 24.35C315.551 22.78 314.451 21.6 312.951 21.6C311.451 21.6 310.351 22.78 310.351 24.35C310.351 25.92 311.451 27.1 312.951 27.1ZM312.951 26.21C312.081 26.21 311.401 25.51 311.401 24.35C311.401 23.19 312.081 22.5 312.951 22.5C313.821 22.5 314.511 23.19 314.511 24.35C314.511 25.51 313.821 26.21 312.951 26.21ZM318.671 27.11C320.001 27.11 320.941 26.25 321.121 24.85H320.071C319.951 25.71 319.431 26.21 318.681 26.21C317.811 26.21 317.241 25.48 317.241 24.35C317.241 23.23 317.811 22.49 318.681 22.49C319.421 22.49 319.951 23 320.061 23.85H321.121C320.931 22.47 319.981 21.6 318.671 21.6C317.241 21.6 316.201 22.75 316.201 24.35C316.201 25.97 317.221 27.11 318.671 27.11ZM325.448 24.82C325.448 25.65 324.898 26.21 324.218 26.21C323.558 26.21 323.098 25.83 323.098 24.91V21.7H322.088V25.11C322.088 26.47 322.828 27.1 323.898 27.1C324.618 27.1 325.238 26.71 325.518 26.16V27H326.458V21.7H325.448V24.82ZM328.87 27V23.96C328.87 23.07 329.42 22.49 330.12 22.49C330.86 22.49 331.25 23.01 331.25 23.89V27H332.26V23.96C332.26 23.07 332.82 22.49 333.51 22.49C334.25 22.49 334.64 23.01 334.64 23.89V27H335.65V23.57C335.65 22.31 334.95 21.6 333.86 21.6C333.05 21.6 332.44 22.02 332.07 22.7C331.83 22 331.24 21.6 330.46 21.6C329.73 21.6 329.16 21.97 328.8 22.58V21.7H327.86V27H328.87ZM339.181 27.1C340.431 27.1 341.341 26.39 341.601 25.21H340.601C340.431 25.9 339.911 26.31 339.161 26.31C338.271 26.31 337.731 25.68 337.651 24.6H341.601C341.781 22.88 340.731 21.6 339.151 21.6C337.691 21.6 336.621 22.75 336.621 24.32C336.621 25.99 337.651 27.1 339.181 27.1ZM339.131 22.36C339.951 22.36 340.481 22.95 340.531 23.93H337.661C337.771 22.94 338.321 22.36 339.131 22.36ZM343.685 24.01C343.685 23.07 344.265 22.49 344.955 22.49C345.705 22.49 346.105 23 346.105 23.91V27H347.115V23.57C347.115 22.3 346.395 21.6 345.305 21.6C344.575 21.6 343.975 21.99 343.615 22.58V21.7H342.675V27H343.685V24.01ZM351.426 26.02C351.216 26.12 351.006 26.16 350.766 26.16C350.226 26.16 349.876 25.9 349.876 25.17V22.56H351.476V21.7H349.876V20.13H348.866V21.7H347.696V22.56H348.866V25.4C348.866 26.57 349.546 27.1 350.526 27.1C350.846 27.1 351.116 27.05 351.426 26.91V26.02ZM359.86 24.9C359.86 23.83 359.17 23.29 357.94 23.04L356.88 22.83C356.21 22.69 355.62 22.45 355.62 21.77C355.62 21.15 356.13 20.6 357.06 20.6C357.96 20.6 358.58 21.2 358.64 22.06H359.76C359.67 20.63 358.54 19.72 357.05 19.72C355.56 19.72 354.5 20.63 354.5 21.84C354.5 23.06 355.42 23.57 356.43 23.77L357.47 23.97C358.3 24.15 358.69 24.45 358.69 25.05C358.69 25.79 358.01 26.22 357.1 26.22C356 26.22 355.42 25.63 355.37 24.72H354.25C354.34 26.15 355.39 27.1 357.12 27.1C358.86 27.1 359.86 26.15 359.86 24.9ZM363.274 27.1C364.774 27.1 365.874 25.92 365.874 24.35C365.874 22.78 364.774 21.6 363.274 21.6C361.774 21.6 360.674 22.78 360.674 24.35C360.674 25.92 361.774 27.1 363.274 27.1ZM363.274 26.21C362.404 26.21 361.724 25.51 361.724 24.35C361.724 23.19 362.404 22.5 363.274 22.5C364.144 22.5 364.834 23.19 364.834 24.35C364.834 25.51 364.144 26.21 363.274 26.21ZM367.923 27V19.82H366.903V27H367.923ZM368.945 24.35C368.945 25.94 369.865 27.1 371.295 27.1C372.045 27.1 372.685 26.72 373.065 26.05V27H374.005V19.82H372.995V22.61C372.625 21.96 372.005 21.6 371.295 21.6C369.865 21.6 368.945 22.74 368.945 24.35ZM369.995 24.35C369.995 23.15 370.615 22.49 371.495 22.49C372.335 22.49 372.995 23.14 372.995 24.33C372.995 25.5 372.355 26.2 371.495 26.2C370.615 26.2 369.995 25.53 369.995 24.35Z" fill="black"/>
<path d="M306.05 11C308.29 11 309.66 9.45 309.66 7.38C309.66 5.28 308.34 3.82 306.05 3.82H303.78V11H306.05ZM304.88 4.77H306C307.66 4.77 308.54 5.76 308.54 7.38C308.54 9.03 307.65 10.05 306 10.05H304.88V4.77ZM312.951 11.1C314.451 11.1 315.551 9.92 315.551 8.35C315.551 6.78 314.451 5.6 312.951 5.6C311.451 5.6 310.351 6.78 310.351 8.35C310.351 9.92 311.451 11.1 312.951 11.1ZM312.951 10.21C312.081 10.21 311.401 9.51 311.401 8.35C311.401 7.19 312.081 6.5 312.951 6.5C313.821 6.5 314.511 7.19 314.511 8.35C314.511 9.51 313.821 10.21 312.951 10.21ZM318.671 11.11C320.001 11.11 320.941 10.25 321.121 8.85H320.071C319.951 9.71 319.431 10.21 318.681 10.21C317.811 10.21 317.241 9.48 317.241 8.35C317.241 7.23 317.811 6.49 318.681 6.49C319.421 6.49 319.951 7 320.061 7.85H321.121C320.931 6.47 319.981 5.6 318.671 5.6C317.241 5.6 316.201 6.75 316.201 8.35C316.201 9.97 317.221 11.11 318.671 11.11ZM325.448 8.82C325.448 9.65 324.898 10.21 324.218 10.21C323.558 10.21 323.098 9.83 323.098 8.91V5.7H322.088V9.11C322.088 10.47 322.828 11.1 323.898 11.1C324.618 11.1 325.238 10.71 325.518 10.16V11H326.458V5.7H325.448V8.82ZM328.87 11V7.96C328.87 7.07 329.42 6.49 330.12 6.49C330.86 6.49 331.25 7.01 331.25 7.89V11H332.26V7.96C332.26 7.07 332.82 6.49 333.51 6.49C334.25 6.49 334.64 7.01 334.64 7.89V11H335.65V7.57C335.65 6.31 334.95 5.6 333.86 5.6C333.05 5.6 332.44 6.02 332.07 6.7C331.83 6 331.24 5.6 330.46 5.6C329.73 5.6 329.16 5.97 328.8 6.58V5.7H327.86V11H328.87ZM339.181 11.1C340.431 11.1 341.341 10.39 341.601 9.21H340.601C340.431 9.9 339.911 10.31 339.161 10.31C338.271 10.31 337.731 9.68 337.651 8.6H341.601C341.781 6.88 340.731 5.6 339.151 5.6C337.691 5.6 336.621 6.75 336.621 8.32C336.621 9.99 337.651 11.1 339.181 11.1ZM339.131 6.36C339.951 6.36 340.481 6.95 340.531 7.93H337.661C337.771 6.94 338.321 6.36 339.131 6.36ZM343.685 8.01C343.685 7.07 344.265 6.49 344.955 6.49C345.705 6.49 346.105 7 346.105 7.91V11H347.115V7.57C347.115 6.3 346.395 5.6 345.305 5.6C344.575 5.6 343.975 5.99 343.615 6.58V5.7H342.675V11H343.685V8.01ZM351.426 10.02C351.216 10.12 351.006 10.16 350.766 10.16C350.226 10.16 349.876 9.9 349.876 9.17V6.56H351.476V5.7H349.876V4.13H348.866V5.7H347.696V6.56H348.866V9.4C348.866 10.57 349.546 11.1 350.526 11.1C350.846 11.1 351.116 11.05 351.426 10.91V10.02ZM359.55 11H360.72L357.99 3.82H356.78L354.03 11H355.14L355.8 9.22H358.9L359.55 11ZM357.36 5.02L358.57 8.33H356.13L357.36 5.02ZM363.417 11.11C364.747 11.11 365.687 10.25 365.867 8.85H364.817C364.697 9.71 364.177 10.21 363.427 10.21C362.557 10.21 361.987 9.48 361.987 8.35C361.987 7.23 362.557 6.49 363.427 6.49C364.167 6.49 364.697 7 364.807 7.85H365.867C365.677 6.47 364.727 5.6 363.417 5.6C361.987 5.6 360.947 6.75 360.947 8.35C360.947 9.97 361.967 11.11 363.417 11.11ZM368.925 11.11C370.255 11.11 371.195 10.25 371.375 8.85H370.325C370.205 9.71 369.685 10.21 368.935 10.21C368.065 10.21 367.495 9.48 367.495 8.35C367.495 7.23 368.065 6.49 368.935 6.49C369.675 6.49 370.205 7 370.315 7.85H371.375C371.185 6.47 370.235 5.6 368.925 5.6C367.495 5.6 366.455 6.75 366.455 8.35C366.455 9.97 367.475 11.11 368.925 11.11ZM374.523 11.1C375.773 11.1 376.683 10.39 376.943 9.21H375.943C375.773 9.9 375.253 10.31 374.503 10.31C373.613 10.31 373.073 9.68 372.993 8.6H376.943C377.123 6.88 376.073 5.6 374.493 5.6C373.033 5.6 371.963 6.75 371.963 8.32C371.963 9.99 372.993 11.1 374.523 11.1ZM374.473 6.36C375.293 6.36 375.823 6.95 375.873 7.93H373.003C373.113 6.94 373.663 6.36 374.473 6.36ZM383.076 8.35C383.076 6.75 382.146 5.6 380.736 5.6C379.986 5.6 379.336 5.99 378.956 6.67V5.7H378.016V12.93H379.026V10.1C379.406 10.74 380.016 11.1 380.736 11.1C382.156 11.1 383.076 9.95 383.076 8.35ZM382.026 8.35C382.026 9.54 381.396 10.2 380.526 10.2C379.676 10.2 379.026 9.52 379.026 8.35C379.026 7.16 379.686 6.49 380.526 6.49C381.396 6.49 382.026 7.16 382.026 8.35ZM387.012 10.02C386.802 10.12 386.592 10.16 386.352 10.16C385.812 10.16 385.462 9.9 385.462 9.17V6.56H387.062V5.7H385.462V4.13H384.452V5.7H383.282V6.56H384.452V9.4C384.452 10.57 385.132 11.1 386.112 11.1C386.432 11.1 386.702 11.05 387.012 10.91V10.02ZM390.06 11.1C391.31 11.1 392.22 10.39 392.48 9.21H391.48C391.31 9.9 390.79 10.31 390.04 10.31C389.15 10.31 388.61 9.68 388.53 8.6H392.48C392.66 6.88 391.61 5.6 390.03 5.6C388.57 5.6 387.5 6.75 387.5 8.32C387.5 9.99 388.53 11.1 390.06 11.1ZM390.01 6.36C390.83 6.36 391.36 6.95 391.41 7.93H388.54C388.65 6.94 389.2 6.36 390.01 6.36ZM393.076 8.35C393.076 9.94 393.996 11.1 395.426 11.1C396.176 11.1 396.816 10.72 397.196 10.05V11H398.136V3.82H397.126V6.61C396.756 5.96 396.136 5.6 395.426 5.6C393.996 5.6 393.076 6.74 393.076 8.35ZM394.126 8.35C394.126 7.15 394.746 6.49 395.626 6.49C396.466 6.49 397.126 7.14 397.126 8.33C397.126 9.5 396.486 10.2 395.626 10.2C394.746 10.2 394.126 9.53 394.126 8.35Z" fill="black"/>
<defs>
<clipPath id="clip0_1_50">
<rect width="372" height="186" fill="white" transform="translate(24 43)"/>
</clipPath>
<clipPath id="clip1_1_50">
<rect width="372" height="188" fill="white" transform="translate(24 40)"/>
</clipPath>
</defs>
</svg>
