<svg width="34" height="34" viewBox="0 0 34 34" fill="none" xmlns="http://www.w3.org/2000/svg">
<rect width="34" height="34" rx="17" fill="#DC3545" fill-opacity="0.4"/>
<path d="M25.9998 25.9998L20.8028 20.8028M20.8028 20.8028C22.2094 19.3962 22.9996 17.4885 22.9996 15.4993C22.9996 13.5101 22.2094 11.6024 20.8028 10.1958C19.3962 8.78923 17.4885 7.99902 15.4993 7.99902C13.5101 7.99902 11.6024 8.78923 10.1958 10.1958C8.78923 11.6024 7.99902 13.5101 7.99902 15.4993C7.99902 17.4885 8.78923 19.3962 10.1958 20.8028C11.6024 22.2094 13.5101 22.9996 15.4993 22.9996C17.4885 22.9996 19.3962 22.2094 20.8028 20.8028V20.8028Z" stroke="#DC3545" stroke-width="1.5" stroke-linecap="round" stroke-linejoin="round"/>
<path d="M11 18L14.1477 15.1379L16.1463 16.9552C17.1298 16.2741 17.8362 15.315 18.1543 14.2288L18.5162 13M18.5162 13L20 15.3368M18.5162 13.0004L15.9463 14.3492" stroke="#DC3545" stroke-linecap="round" stroke-linejoin="round"/>
</svg>
