<svg width="11" height="12" viewBox="0 0 11 12" fill="none" xmlns="http://www.w3.org/2000/svg">
<path fill-rule="evenodd" clip-rule="evenodd" d="M2.85573 2.57143C2.85573 1.88944 3.12665 1.23539 3.60888 0.753153C4.09112 0.270917 4.74517 0 5.42716 0C6.10914 0 6.76319 0.270917 7.24543 0.753153C7.72767 1.23539 7.99858 1.88944 7.99858 2.57143C7.99858 3.25341 7.72767 3.90746 7.24543 4.3897C6.76319 4.87194 6.10914 5.14285 5.42716 5.14285C4.74517 5.14285 4.09112 4.87194 3.60888 4.3897C3.12665 3.90746 2.85573 3.25341 2.85573 2.57143ZM0.713447 10.6314C0.732716 9.39398 1.23781 8.21374 2.11971 7.34547C3.00161 6.4772 4.18956 5.99054 5.42716 5.99054C6.66475 5.99054 7.85271 6.4772 8.73461 7.34547C9.6165 8.21374 10.1216 9.39398 10.1409 10.6314C10.1424 10.7147 10.1195 10.7967 10.0752 10.8672C10.0308 10.9377 9.96688 10.9938 9.89115 11.0286C8.49068 11.6707 6.96782 12.0021 5.42716 12C3.83516 12 2.32259 11.6526 0.963161 11.0286C0.887439 10.9938 0.82349 10.9377 0.77914 10.8672C0.734789 10.7967 0.711961 10.7147 0.713447 10.6314Z" fill="#0D6EFD"/>
</svg>
