<svg width="34" height="34" viewBox="0 0 34 34" fill="none" xmlns="http://www.w3.org/2000/svg">
<rect width="34" height="34" rx="17" fill="#198754" fill-opacity="0.4"/>
<path d="M25.25 11.375C25.25 13.653 21.556 15.5 17 15.5C12.444 15.5 8.75 13.653 8.75 11.375M25.25 11.375C25.25 9.097 21.556 7.25 17 7.25C12.444 7.25 8.75 9.097 8.75 11.375M25.25 11.375V22.625C25.25 24.903 21.556 26.75 17 26.75C12.444 26.75 8.75 24.903 8.75 22.625V11.375M25.25 11.375V15.125M8.75 11.375V15.125M25.25 15.125V18.875C25.25 21.153 21.556 23 17 23C12.444 23 8.75 21.153 8.75 18.875V15.125M25.25 15.125C25.25 17.403 21.556 19.25 17 19.25C12.444 19.25 8.75 17.403 8.75 15.125" stroke="#198754" stroke-width="1.5" stroke-linecap="round" stroke-linejoin="round"/>
</svg>
