<svg width="13" height="14" viewBox="0 0 13 14" fill="none" xmlns="http://www.w3.org/2000/svg">
<path d="M9.44478 2.20603C9.81961 2.4369 10.1661 2.71085 10.4773 3.02228C10.796 3.34103 11.0673 3.68728 11.2935 4.05478C11.8369 4.94098 12.1246 5.96024 12.1246 6.99978C12.1246 8.03932 11.8369 9.05859 11.2935 9.94478M9.44478 2.20603L7.28978 4.79228M9.44478 2.20603C8.55859 1.66262 7.53932 1.375 6.49978 1.375C5.46024 1.375 4.44098 1.66262 3.55478 2.20603C3.17994 2.43689 2.83341 2.71083 2.52228 3.02228C2.21084 3.33342 1.93689 3.67994 1.70603 4.05478M7.28978 4.79228C7.61618 4.90897 7.91251 5.09685 8.15728 5.34228C8.40273 5.58704 8.59061 5.88337 8.70728 6.20978C8.88938 6.72071 8.88938 7.27886 8.70728 7.78978M7.28978 4.79228C6.77886 4.61018 6.22071 4.61018 5.70978 4.79228C5.38337 4.90895 5.08704 5.09683 4.84228 5.34228C4.58916 5.59603 4.40541 5.89353 4.29228 6.20978M11.2935 9.94478L8.70728 7.78978M11.2935 9.94478C11.0627 10.3196 10.7887 10.6661 10.4773 10.9773C10.1585 11.296 9.81228 11.5673 9.44478 11.7935C8.55859 12.3369 7.53932 12.6246 6.49978 12.6246C5.46024 12.6246 4.44098 12.3369 3.55478 11.7935M8.70728 7.78978C8.59416 8.10603 8.41041 8.40353 8.15728 8.65728C7.91252 8.90273 7.61619 9.09061 7.28978 9.20728C6.77886 9.38938 6.22071 9.38938 5.70978 9.20728M3.55478 11.7935L5.70978 9.20728M3.55478 11.7935C3.17994 11.5627 2.83341 11.2887 2.52228 10.9773C2.21085 10.6661 1.9369 10.3196 1.70603 9.94478C1.16262 9.05859 0.875 8.03932 0.875 6.99978C0.875 5.96024 1.16262 4.94098 1.70603 4.05478M5.70978 9.20728C5.38337 9.09061 5.08704 8.90273 4.84228 8.65728C4.59685 8.41251 4.40897 8.11618 4.29228 7.78978C4.11018 7.27886 4.11018 6.72071 4.29228 6.20978M1.70603 4.05478L4.29228 6.20978" stroke="white" stroke-linecap="round" stroke-linejoin="round"/>
</svg>
