<svg width="26" height="24" viewBox="0 0 26 24" fill="none" xmlns="http://www.w3.org/2000/svg">
<path d="M13.4907 6.13253L13.4505 6.11972C13.2727 6.063 13.1768 5.86651 13.2276 5.68422L13.4907 6.13253ZM13.4907 6.13253L13.4926 6.1301M13.4907 6.13253L13.4926 6.1301M13.4926 6.1301C13.6589 6.15953 13.8187 6.05137 13.8655 5.88235C14.299 4.32449 15.663 3.24038 17.1781 3.24038C17.3656 3.24038 17.5106 3.07904 17.5106 2.88904C17.5106 2.69902 17.3656 2.5377 17.1781 2.5377C15.3033 2.5377 13.7317 3.87244 13.2276 5.68418L13.4926 6.1301Z" fill="#0D6EFD" stroke="#F9FFF9" stroke-width="0.123824"/>
<path d="M20.9669 17.071H19.3433C19.1939 17.071 19.0727 16.9414 19.0727 16.7815C19.0727 16.6217 19.1939 16.4921 19.3433 16.4921H20.9669C23.2049 16.4921 25.0259 14.5445 25.0259 12.1508C25.0259 9.75704 23.2049 7.80941 20.9669 7.80941H20.9278C20.8494 7.80941 20.7747 7.77302 20.7233 7.70956C20.6719 7.64609 20.6487 7.56195 20.6599 7.47884C20.6841 7.29857 20.6963 7.11748 20.6963 6.94114C20.6963 4.8666 19.1181 3.17861 17.1784 3.17861C16.4238 3.17861 15.7042 3.43082 15.0973 3.90816C14.9639 4.01297 14.7745 3.96646 14.6974 3.80954C12.9785 0.308769 8.48893 -0.161349 6.16132 2.88402C5.18079 4.16699 4.79553 5.83593 5.10424 7.46253C5.13826 7.64217 5.00972 7.80963 4.83905 7.80963H4.73062C2.49257 7.80963 0.6716 9.75726 0.6716 12.151C0.6716 14.5447 2.49257 16.4923 4.73062 16.4923H6.35421C6.50362 16.4923 6.62481 16.622 6.62481 16.7818C6.62481 16.9416 6.50362 17.0712 6.35421 17.0712H4.73062C2.1941 17.0712 0.130371 14.8639 0.130371 12.151C0.130371 9.51411 2.07984 7.355 4.5182 7.23592C4.28915 5.54835 4.72714 3.84612 5.74227 2.51769C8.23431 -0.743072 13.0101 -0.377583 15.029 3.25841C15.673 2.82654 16.41 2.59999 17.1783 2.59999C19.5283 2.59999 21.3905 4.73926 21.2275 7.23862C23.6434 7.38354 25.567 9.53126 25.567 12.1508C25.567 14.8639 23.5033 17.071 20.9667 17.071L20.9669 17.071Z" fill="#0D6EFD"/>
<path d="M5.98545 16.6185C5.98545 20.6385 9.04417 23.9161 12.8125 23.9161C16.5808 23.9161 19.6395 20.6384 19.6395 16.6185C19.6395 12.5985 16.5808 9.3209 12.8125 9.3209C9.04412 9.3209 5.98545 12.5986 5.98545 16.6185ZM6.6506 16.6185C6.6506 12.9783 9.41874 10.0237 12.8125 10.0237C16.2062 10.0237 18.9744 12.9782 18.9744 16.6185C18.9744 20.2587 16.2062 23.2133 12.8125 23.2133C9.41879 23.2133 6.6506 20.2588 6.6506 16.6185Z" fill="#0D6EFD" stroke="#F9FFF9" stroke-width="0.123824"/>
<path d="M12.6759 19.5312C12.6759 19.6784 12.7885 19.805 12.9359 19.805C13.0833 19.805 13.1959 19.6785 13.1959 19.5312V14.022C13.1959 13.8747 13.0833 13.7481 12.9359 13.7481C12.7885 13.7481 12.6759 13.8748 12.6759 14.022V19.5312Z" fill="#0D6EFD" stroke="#0D6EFD" stroke-width="0.123824"/>
<path d="M12.9363 14.4128L14.3359 15.9097C14.3863 15.9636 14.4534 15.9914 14.5212 15.9914L12.9363 14.4128ZM12.9363 14.4128L11.5368 15.9097L11.5368 15.9097L12.9363 14.4128ZM13.1217 13.8304C13.0198 13.7214 12.8527 13.7214 12.751 13.8304L14.5212 15.9914C14.5889 15.9914 14.6562 15.9638 14.7066 15.9096L14.6613 15.8674L14.7065 15.9097C14.8062 15.8031 14.8062 15.6321 14.7065 15.5255L13.1217 13.8304Z" fill="#0D6EFD" stroke="#0D6EFD" stroke-width="0.123824"/>
</svg>
