<svg width="20" height="20" viewBox="0 0 20 20" fill="none" xmlns="http://www.w3.org/2000/svg">
<g clip-path="url(#clip0_577_58)">
<path d="M2.5 10C2.5 10.9849 2.69399 11.9602 3.0709 12.8701C3.44781 13.7801 4.00026 14.6069 4.6967 15.3033C5.39314 15.9997 6.21993 16.5522 7.12987 16.9291C8.03982 17.306 9.01509 17.5 10 17.5C10.9849 17.5 11.9602 17.306 12.8701 16.9291C13.7801 16.5522 14.6069 15.9997 15.3033 15.3033C15.9997 14.6069 16.5522 13.7801 16.9291 12.8701C17.306 11.9602 17.5 10.9849 17.5 10C17.5 9.01509 17.306 8.03982 16.9291 7.12987C16.5522 6.21993 15.9997 5.39314 15.3033 4.6967C14.6069 4.00026 13.7801 3.44781 12.8701 3.0709C11.9602 2.69399 10.9849 2.5 10 2.5C9.01509 2.5 8.03982 2.69399 7.12987 3.0709C6.21993 3.44781 5.39314 4.00026 4.6967 4.6967C4.00026 5.39314 3.44781 6.21993 3.0709 7.12987C2.69399 8.03982 2.5 9.01509 2.5 10Z" stroke="#939393" stroke-width="1.5" stroke-linecap="round" stroke-linejoin="round"/>
<path d="M7.5 8.33334C7.5 8.99638 7.76339 9.63227 8.23223 10.1011C8.70107 10.57 9.33696 10.8333 10 10.8333C10.663 10.8333 11.2989 10.57 11.7678 10.1011C12.2366 9.63227 12.5 8.99638 12.5 8.33334C12.5 7.6703 12.2366 7.03442 11.7678 6.56558C11.2989 6.09674 10.663 5.83334 10 5.83334C9.33696 5.83334 8.70107 6.09674 8.23223 6.56558C7.76339 7.03442 7.5 7.6703 7.5 8.33334Z" stroke="#939393" stroke-width="1.5" stroke-linecap="round" stroke-linejoin="round"/>
<path d="M5.13965 15.7075C5.34591 15.021 5.76796 14.4193 6.34319 13.9917C6.91842 13.564 7.61619 13.3331 8.33298 13.3333H11.6663C12.384 13.3331 13.0827 13.5645 13.6583 13.9932C14.234 14.4218 14.6559 15.0248 14.8613 15.7125" stroke="#939393" stroke-width="1.5" stroke-linecap="round" stroke-linejoin="round"/>
</g>
<defs>
<clipPath id="clip0_577_58">
<rect width="20" height="20" fill="white"/>
</clipPath>
</defs>
</svg>
