<svg width="32" height="40" viewBox="0 0 32 40" fill="none" xmlns="http://www.w3.org/2000/svg">
<path d="M22.8751 9C22.8751 10.8234 22.1508 12.572 20.8615 13.8614C19.5722 15.1507 17.8235 15.875 16.0001 15.875C14.1768 15.875 12.4281 15.1507 11.1388 13.8614C9.84945 12.572 9.12512 10.8234 9.12512 9C9.12512 7.17664 9.84945 5.42795 11.1388 4.13864C12.4281 2.84933 14.1768 2.125 16.0001 2.125C17.8235 2.125 19.5722 2.84933 20.8615 4.13864C22.1508 5.42795 22.8751 7.17664 22.8751 9V9ZM2.25195 34.883C2.31087 31.2756 3.78524 27.836 6.35711 25.3057C8.92898 22.7755 12.3923 21.3575 16.0001 21.3575C19.608 21.3575 23.0713 22.7755 25.6431 25.3057C28.215 27.836 29.6894 31.2756 29.7483 34.883C25.4352 36.8607 20.7451 37.8814 16.0001 37.875C11.0941 37.875 6.43745 36.8043 2.25195 34.883Z" stroke="black" stroke-width="3" stroke-linecap="round" stroke-linejoin="round"/>
</svg>
