<svg width="13" height="14" viewBox="0 0 13 14" fill="none" xmlns="http://www.w3.org/2000/svg">
<path d="M9.44503 2.20603C9.81986 2.4369 10.1664 2.71085 10.4775 3.02228C10.7963 3.34103 11.0675 3.68728 11.2938 4.05478C11.8372 4.94098 12.1248 5.96024 12.1248 6.99978C12.1248 8.03932 11.8372 9.05859 11.2938 9.94478M9.44503 2.20603L7.29003 4.79228M9.44503 2.20603C8.55883 1.66262 7.53956 1.375 6.50002 1.375C5.46049 1.375 4.44122 1.66262 3.55503 2.20603C3.18018 2.43689 2.83366 2.71083 2.52252 3.02228C2.21108 3.33342 1.93713 3.67994 1.70627 4.05478M7.29003 4.79228C7.61642 4.90897 7.91275 5.09685 8.15753 5.34228C8.40298 5.58704 8.59085 5.88337 8.70753 6.20978C8.88962 6.72071 8.88962 7.27886 8.70753 7.78978M7.29003 4.79228C6.7791 4.61018 6.22095 4.61018 5.71003 4.79228C5.38362 4.90895 5.08728 5.09683 4.84252 5.34228C4.5894 5.59603 4.40565 5.89353 4.29253 6.20978M11.2938 9.94478L8.70753 7.78978M11.2938 9.94478C11.0629 10.3196 10.789 10.6661 10.4775 10.9773C10.1588 11.296 9.81253 11.5673 9.44503 11.7935C8.55883 12.3369 7.53956 12.6246 6.50002 12.6246C5.46049 12.6246 4.44122 12.3369 3.55503 11.7935M8.70753 7.78978C8.5944 8.10603 8.41065 8.40353 8.15753 8.65728C7.91277 8.90273 7.61643 9.09061 7.29003 9.20728C6.7791 9.38938 6.22095 9.38938 5.71003 9.20728M3.55503 11.7935L5.71003 9.20728M3.55503 11.7935C3.18018 11.5627 2.83366 11.2887 2.52252 10.9773C2.21109 10.6661 1.93714 10.3196 1.70627 9.94478C1.16286 9.05859 0.875244 8.03932 0.875244 6.99978C0.875244 5.96024 1.16286 4.94098 1.70627 4.05478M5.71003 9.20728C5.38362 9.09061 5.08728 8.90273 4.84252 8.65728C4.59709 8.41251 4.40921 8.11618 4.29253 7.78978C4.11043 7.27886 4.11043 6.72071 4.29253 6.20978M1.70627 4.05478L4.29253 6.20978" stroke="white" stroke-linecap="round" stroke-linejoin="round"/>
</svg>
