<svg width="58" height="58" viewBox="0 0 58 58" fill="none" xmlns="http://www.w3.org/2000/svg">
<rect width="58" height="58" rx="4" fill="#FEF2F2"/>
<path d="M29.0009 36.2222C28.6712 36.2222 28.349 36.32 28.0749 36.5031C27.8008 36.6862 27.5872 36.9465 27.4611 37.2511C27.3349 37.5556 27.3019 37.8907 27.3662 38.214C27.4305 38.5373 27.5893 38.8343 27.8224 39.0674C28.0554 39.3005 28.3524 39.4592 28.6757 39.5235C28.999 39.5878 29.3341 39.5548 29.6387 39.4287C29.9432 39.3025 30.2035 39.0889 30.3866 38.8148C30.5698 38.5408 30.6675 38.2185 30.6675 37.8889C30.6675 37.4469 30.4919 37.0229 30.1794 36.7104C29.8668 36.3978 29.4429 36.2222 29.0009 36.2222ZM27.8898 24H30.112V34H27.8898V24Z" fill="#DC3545"/>
<path d="M43.4453 44H14.5564C14.3655 44 14.1779 43.9508 14.0115 43.8572C13.8451 43.7636 13.7057 43.6287 13.6066 43.4655C13.5076 43.3023 13.4522 43.1164 13.4459 42.9256C13.4396 42.7348 13.4826 42.5456 13.5707 42.3762L28.0151 14.5985C28.1089 14.4181 28.2504 14.2669 28.4243 14.1613C28.5981 14.0558 28.7975 14 29.0009 14C29.2042 14 29.4037 14.0558 29.5775 14.1613C29.7513 14.2669 29.8928 14.4181 29.9866 14.5985L44.4311 42.3762C44.5192 42.5456 44.5621 42.7348 44.5558 42.9256C44.5495 43.1164 44.4942 43.3023 44.3951 43.4655C44.296 43.6287 44.1566 43.7636 43.9902 43.8572C43.8239 43.9508 43.6362 44 43.4453 44ZM16.3905 41.7778H41.6112L41.6134 41.7741L29.0031 17.5238H28.9986L16.3883 41.7741L16.3905 41.7778Z" fill="#DC3545"/>
</svg>
