<svg width="179" height="111" viewBox="0 0 179 111" fill="none" xmlns="http://www.w3.org/2000/svg">
<path fill-rule="evenodd" clip-rule="evenodd" d="M75.1094 4.11133H79.2205V12.333H83.3316V8.22215H91.5538V4.11133H95.6649V8.22215H103.887V4.11133H107.998V12.333H99.776V16.4438H103.887V36.9979H112.109V45.2195H116.22V36.9979H120.332V45.2195H128.554V49.3304H120.332V53.4412H124.443V57.552H128.554V53.4412H136.776V49.3304H132.665V36.9979H136.776V45.2195H140.887V57.552H136.776V61.6628H140.887V69.8845H136.776V65.7737H132.665V57.552H128.554V69.8845H132.665V78.1061H140.887V82.2169H128.554V86.3278H140.887V106.882H107.998V102.771H99.776V106.882H95.6649V102.771H91.5538V106.882H87.4427V98.6602H91.5538V94.5494H87.4427V90.4386H83.3316V94.5494H79.2205V102.771H83.3316V106.882H70.9983V86.3278H75.1094V82.2169H70.9983V73.9953H62.776V69.8845H66.8872V65.7737H62.776V53.4412H66.8872V49.3304H62.776V45.2195H58.6649V41.1087H38.1094V36.9979H58.6649V41.1087H62.776V36.9979H83.3316V41.1087H79.2205V49.3304H83.3316V45.2195H91.5538V41.1087H87.4427V28.7763H91.5538V36.9979H95.6649V24.6654H87.4427V20.5546H83.3316V32.8871H79.2205V20.5546H70.9983V16.4438H75.1094V12.333H70.9983V8.22215H75.1094V4.11133ZM54.5538 69.8845H58.6649V73.9953H46.3316V69.8845H50.4427V65.7737H46.3316V61.6628H42.2205V73.9953H38.1094V57.552H42.2205V53.4412H46.3316V49.3304H38.1094V45.2195H50.4427V49.3304H54.5538V53.4412H58.6649V61.6628H54.5538V69.8845ZM38.1094 4.11133H66.8872V32.8871H38.1094V4.11133ZM112.109 4.11133H140.887V32.8871H112.109V4.11133ZM70.9983 24.6654H75.1094V32.8871H70.9983V24.6654ZM124.443 36.9979H128.554V41.1087H124.443V36.9979ZM38.1094 78.1061H66.8872V106.882H38.1094V78.1061Z" fill="black"/>
<path fill-rule="evenodd" clip-rule="evenodd" d="M42.2188 8.2207H62.7743V28.7748H42.2188V8.2207ZM116.219 8.2207H136.774V28.7748H116.219V8.2207ZM87.441 12.3315H95.6632V16.4423H91.5521V20.5532H87.441V12.3315ZM79.2187 16.4423H83.3299V20.5532H79.2187V16.4423ZM95.6632 20.5532H103.885V24.664H95.6632V20.5532ZM99.7743 28.7748H103.885V36.9965H107.997V45.2181H95.6632V36.9965H99.7743V28.7748ZM62.7743 41.1073H75.1076V57.5506H79.2187V53.4397H83.3299V57.5506H87.441V49.3289H103.885V53.4397H112.108V49.3289H116.219V53.4397H112.108V57.5506H116.219V69.883H103.885V61.6614H99.7743V69.883H91.5521V65.7722H87.441V73.9939H91.5521V78.1047H99.7743V73.9939H103.885V86.3263H99.7743V90.4371H107.997V94.548H116.219V102.77H112.108V98.6588H107.997V94.548H95.6632V90.4371H87.441V82.2155H91.5521V78.1047H83.3299V65.7722H79.2187V69.883H75.1076V65.7722H70.9965V57.5506H66.8854V61.6614H62.7743V57.5506H66.8854V53.4397H70.9965V49.3289H66.8854V45.2181H62.7743V41.1073ZM46.3299 53.4397H50.441V57.5506H58.6632V61.6614H54.5521V65.7722H50.441V61.6614H46.3299V53.4397ZM120.33 57.5506H124.441V61.6614H120.33V57.5506ZM120.33 65.7722H124.441V69.883H128.552V73.9939H124.441V69.883H120.33V65.7722ZM107.997 73.9939H120.33V86.3263H107.997V73.9939ZM42.2188 82.2155H62.7743V102.77H42.2188V82.2155ZM79.2187 82.2155H83.3299V90.4371H79.2187V82.2155ZM124.441 90.4371H128.552V98.6588H132.663V94.548H136.774V102.77H128.552V98.6588H120.33V94.548H124.441V90.4371ZM95.6632 98.6588H99.7743V102.77H95.6632V98.6588Z" fill="white"/>
<path d="M46.3359 24.6645V18.4983V12.332H58.6693V24.6645H46.3359Z" fill="black"/>
<path d="M120.336 24.6645V18.4983V12.332H132.669V24.6645H120.336Z" fill="black"/>
<path d="M91.5582 57.5511V55.4957V53.4402H99.7804V61.6619H95.6693V57.5511H91.5582V61.6619H87.447V57.5511H91.5582Z" fill="black"/>
<path d="M79.2248 61.6619V59.6065V57.5511H83.3359V61.6619H79.2248V65.7727H75.1137V61.6619H79.2248Z" fill="black"/>
<path d="M103.891 61.6619V59.6065V57.5511H108.003V61.6619H112.114V65.7727H108.003V61.6619H103.891Z" fill="black"/>
<path d="M112.114 82.216V80.1606V78.1052H116.225V82.216H112.114Z" fill="black"/>
<path d="M95.6693 86.3268V84.2714V82.216H99.7804V86.3268H95.6693Z" fill="black"/>
<path d="M46.3359 98.6593V92.493V86.3268H58.6693V98.6593H46.3359Z" fill="black"/>
<rect x="0.5" y="34" width="178" height="44" fill="url(#paint0_linear_8212_122175)"/>
<rect x="0.5" y="73" width="178" height="5" fill="#007BFF"/>
<defs>
<linearGradient id="paint0_linear_8212_122175" x1="89.5" y1="34" x2="89.5" y2="78" gradientUnits="userSpaceOnUse">
<stop stop-color="#007BFF" stop-opacity="0"/>
<stop offset="1" stop-color="#007BFF"/>
</linearGradient>
</defs>
</svg>
