<svg width="20" height="20" viewBox="0 0 20 20" fill="none" xmlns="http://www.w3.org/2000/svg">
<g clip-path="url(#clip0_3978_246)">
<path fill-rule="evenodd" clip-rule="evenodd" d="M4.58333 1.66797C3.84695 1.66797 3.25 2.26492 3.25 3.0013V17.0013C3.25 17.7377 3.84695 18.3346 4.58333 18.3346H15.4167C16.153 18.3346 16.75 17.7377 16.75 17.0013L16.75 6.59648C16.75 6.10868 16.5562 5.64086 16.2113 5.29593L13.122 2.20667C12.7771 1.86175 12.3093 1.66797 11.8215 1.66797H4.58333Z" fill="url(#paint0_linear_3978_246)"/>
<g filter="url(#filter0_dd_3978_246)">
<path d="M9.52545 9.8336C9.81816 9.8336 10.094 9.89642 10.3548 10.0212C10.5503 10.1135 10.7269 10.2391 10.8859 10.3972C11.0409 10.551 11.1681 10.7305 11.2619 10.9277C11.1364 11.0533 10.9853 11.1153 10.8088 11.1153C10.7453 11.1149 10.6821 11.1055 10.6212 11.0875C10.5142 10.9141 10.3683 10.7682 10.1949 10.6613C9.99392 10.5376 9.76231 10.4726 9.52628 10.4737C9.3593 10.4737 9.19712 10.5055 9.04045 10.5691C8.8828 10.6334 8.73977 10.7288 8.61993 10.8498L7.65785 11.8118C7.53688 11.9317 7.44139 12.0748 7.37712 12.2325C7.31418 12.3867 7.28177 12.5516 7.2817 12.7182C7.2817 12.8852 7.31357 13.0474 7.37712 13.204C7.4409 13.362 7.53645 13.5051 7.65785 13.6246C7.77764 13.7457 7.92073 13.8411 8.07847 13.9053C8.23264 13.9681 8.39805 14.0007 8.56503 14.0007C8.73201 14.0007 8.8942 13.9689 9.05087 13.9053C9.20851 13.841 9.35155 13.7456 9.47139 13.6246L10.1449 12.9512C10.3588 13.0092 10.5798 13.0387 10.8088 13.0387C10.8453 13.0387 10.897 13.037 10.9638 13.0339C10.9385 13.0618 10.9128 13.0894 10.8867 13.1165L9.92462 14.0786C9.73941 14.2639 9.52951 14.4038 9.2941 14.4992C8.82618 14.6902 8.302 14.6899 7.8343 14.4984C7.59814 14.4021 7.38373 14.2593 7.20378 14.0786C7.01857 13.8934 6.87868 13.6835 6.78326 13.4489C6.68865 13.2172 6.64003 12.9693 6.64014 12.719C6.64014 12.4686 6.68857 12.2205 6.78326 11.9891C6.87868 11.7545 7.01857 11.5446 7.20378 11.3594L8.16587 10.3974C8.1842 10.379 8.21201 10.3536 8.24857 10.3194C8.42401 10.1628 8.62704 10.0401 8.84732 9.95767C9.06421 9.87639 9.29384 9.83442 9.52545 9.83371V9.8336ZM11.77 7.58985C12.0206 7.58985 12.2686 7.6384 12.4999 7.73298C12.7345 7.82756 12.9444 7.9684 13.1304 8.1536C13.3158 8.33881 13.4565 8.54871 13.5511 8.78329C13.6457 9.01496 13.6941 9.26293 13.6934 9.51319C13.6934 9.7636 13.6449 10.0069 13.5495 10.2431C13.4534 10.4791 13.3106 10.6933 13.1297 10.8728L12.1676 11.8349C12.1493 11.8539 12.1215 11.8794 12.0849 11.9128C11.9097 12.0698 11.7066 12.1925 11.4862 12.2745C11.2692 12.3565 11.0392 12.3985 10.8072 12.3985C10.5202 12.3995 10.2366 12.3354 9.97795 12.211C9.78232 12.1187 9.60576 11.9931 9.4467 11.835C9.29169 11.6812 9.16447 11.5017 9.07066 11.3045C9.19555 11.1789 9.3467 11.1169 9.52389 11.1169C9.58597 11.1169 9.64878 11.1264 9.7116 11.1448C9.81821 11.318 9.96385 11.4639 10.1369 11.5709C10.338 11.6945 10.5696 11.7595 10.8057 11.7585C10.9725 11.7585 11.1348 11.7267 11.2914 11.6631C11.4492 11.599 11.5923 11.5036 11.712 11.3825L12.6741 10.4204C12.7953 10.3007 12.8908 10.1576 12.9547 9.99975C13.0175 9.84558 13.0501 9.681 13.0501 9.51402C13.0501 9.34704 13.0184 9.18485 12.9547 9.02819C12.8907 8.8704 12.7952 8.72729 12.6741 8.60756C12.5543 8.48655 12.4112 8.39108 12.2535 8.32694C12.0992 8.26406 11.9342 8.23166 11.7676 8.23152C11.6007 8.23152 11.4385 8.26329 11.2819 8.32694C11.1241 8.39099 10.981 8.48646 10.8613 8.60756L10.187 9.281C9.9706 9.22246 9.74735 9.19304 9.52316 9.1935C9.48649 9.1935 9.43482 9.19517 9.36805 9.19829C9.39347 9.17048 9.41899 9.14267 9.44597 9.11569L10.4081 8.1536C10.5876 7.97272 10.8017 7.82994 11.0377 7.73381C11.2756 7.63756 11.5188 7.58902 11.77 7.58985Z" fill="white"/>
</g>
<path d="M16.3592 5.44336H12.9741L16.7502 9.2194V5.83398L16.3592 5.44336Z" fill="url(#paint1_linear_3978_246)"/>
<path d="M13.9167 5.83398L16.75 5.83398L12.5833 1.66732L12.5833 4.50065C12.5833 5.23703 13.1803 5.83398 13.9167 5.83398Z" fill="#0D6EFD"/>
</g>
<defs>
<filter id="filter0_dd_3978_246" x="5.64014" y="6.58984" width="16.0532" height="18.0527" filterUnits="userSpaceOnUse" color-interpolation-filters="sRGB">
<feFlood flood-opacity="0" result="BackgroundImageFix"/>
<feColorMatrix in="SourceAlpha" type="matrix" values="0 0 0 0 0 0 0 0 0 0 0 0 0 0 0 0 0 0 127 0" result="hardAlpha"/>
<feOffset dx="4" dy="6"/>
<feGaussianBlur stdDeviation="2"/>
<feColorMatrix type="matrix" values="0 0 0 0 0 0 0 0 0 0 0 0 0 0 0 0 0 0 0.1 0"/>
<feBlend mode="normal" in2="BackgroundImageFix" result="effect1_dropShadow_3978_246"/>
<feColorMatrix in="SourceAlpha" type="matrix" values="0 0 0 0 0 0 0 0 0 0 0 0 0 0 0 0 0 0 127 0" result="hardAlpha"/>
<feOffset/>
<feGaussianBlur stdDeviation="0.5"/>
<feColorMatrix type="matrix" values="0 0 0 0 0 0 0 0 0 0 0 0 0 0 0 0 0 0 0.4 0"/>
<feBlend mode="normal" in2="effect1_dropShadow_3978_246" result="effect2_dropShadow_3978_246"/>
<feBlend mode="normal" in="SourceGraphic" in2="effect2_dropShadow_3978_246" result="shape"/>
</filter>
<linearGradient id="paint0_linear_3978_246" x1="11.9424" y1="18.3346" x2="5.81187" y2="4.33048" gradientUnits="userSpaceOnUse">
<stop offset="0.0625" stop-color="#0D6EFD"/>
<stop offset="1" stop-color="#C5CBD2"/>
</linearGradient>
<linearGradient id="paint1_linear_3978_246" x1="13.8205" y1="4.59701" x2="17.5965" y2="8.37305" gradientUnits="userSpaceOnUse">
<stop stop-opacity="0.2"/>
<stop offset="1" stop-opacity="0"/>
</linearGradient>
<clipPath id="clip0_3978_246">
<rect width="20" height="20" fill="white"/>
</clipPath>
</defs>
</svg>
