<svg width="20" height="21" viewBox="0 0 20 21" fill="none" xmlns="http://www.w3.org/2000/svg">
<path d="M8.32079 2.30999C9.04465 1.55591 10.2506 1.55591 10.9745 2.30999L11.1172 2.45861C11.5679 2.92813 12.2332 3.1245 12.8666 2.97498L13.0635 2.92849C14.0766 2.68934 15.0862 3.33789 15.2898 4.35874L15.3372 4.59645C15.4634 5.22914 15.9119 5.74944 16.5191 5.96758L16.7408 6.04724C17.713 6.39652 18.2069 7.47778 17.8344 8.44134L17.7375 8.69202C17.5066 9.28942 17.6031 9.96393 17.9922 10.4727L18.1543 10.6846C18.7806 11.5033 18.6118 12.6768 17.7802 13.2859L17.5749 13.4362C17.0568 13.8157 16.7741 14.4379 16.8292 15.0778L16.8514 15.3365C16.9404 16.3695 16.1583 17.2718 15.1231 17.3305L14.9073 17.3427C14.2599 17.3795 13.6797 17.7543 13.3802 18.3293L13.2775 18.5265C12.7951 19.4525 11.6395 19.7917 10.7331 19.2733L10.5608 19.1748C9.99503 18.8512 9.30027 18.8512 8.73452 19.1748L8.56217 19.2733C7.65582 19.7917 6.50024 19.4525 6.01785 18.5265L5.91511 18.3293C5.61556 17.7543 5.03537 17.3795 4.38805 17.3427L4.1722 17.3305C3.13703 17.2718 2.35495 16.3695 2.44385 15.3365L2.46612 15.0778C2.52119 14.4379 2.23852 13.8157 1.7204 13.4362L1.51512 13.2859C0.6835 12.6768 0.514731 11.5033 1.14101 10.6846L1.3031 10.4727C1.69223 9.96393 1.7887 9.28942 1.55776 8.69202L1.46086 8.44134C1.08838 7.47779 1.58231 6.39652 2.55452 6.04724L2.77625 5.96758C3.38341 5.74944 3.83188 5.22914 3.95809 4.59645L4.00551 4.35874C4.20915 3.33789 5.21865 2.68934 6.23177 2.92849L6.42872 2.97498C7.06214 3.1245 7.72742 2.92813 8.17813 2.45861L8.32079 2.30999Z" fill="url(#paint0_linear_3922_195)"/>
<path d="M8.32079 2.30999C9.04465 1.55591 10.2506 1.55591 10.9745 2.30999L11.1172 2.45861C11.5679 2.92813 12.2332 3.1245 12.8666 2.97498L13.0635 2.92849C14.0767 2.68934 15.0862 3.33789 15.2898 4.35874L15.3372 4.59645C15.4634 5.22914 15.9119 5.74944 16.5191 5.96758L16.7408 6.04724C17.713 6.39652 18.2069 7.47779 17.8344 8.44134L17.7375 8.69202C17.5066 9.28942 17.6031 9.96393 17.9922 10.4727L18.1543 10.6846C18.7806 11.5033 18.6118 12.6768 17.7802 13.2859L17.5749 13.4362C17.0568 13.8157 16.7741 14.4379 16.8292 15.0778L16.8514 15.3365C16.9404 16.3695 16.1583 17.2718 15.1231 17.3305L14.9073 17.3427C14.2599 17.3795 13.6797 17.7543 13.3802 18.3293L13.2775 18.5265C12.7951 19.4525 11.6395 19.7917 10.7331 19.2733L10.5608 19.1748C9.99503 18.8512 9.30027 18.8512 8.73452 19.1748L8.56217 19.2733C7.65582 19.7917 6.50024 19.4525 6.01785 18.5265L5.91511 18.3293C5.61556 17.7543 5.03537 17.3795 4.38805 17.3427L4.1722 17.3305C3.13703 17.2718 2.35495 16.3695 2.44385 15.3365L2.46612 15.0778C2.52119 14.4379 2.23852 13.8157 1.7204 13.4362L1.51512 13.2859C0.6835 12.6768 0.514731 11.5033 1.14101 10.6846L1.3031 10.4727C1.69223 9.96393 1.7887 9.28942 1.55776 8.69202L1.46086 8.44134C1.08838 7.47778 1.58231 6.39652 2.55452 6.04724L2.77625 5.96758C3.38341 5.74944 3.83188 5.22914 3.95809 4.59645L4.00551 4.35874C4.20915 3.33789 5.21865 2.68934 6.23177 2.92849L6.42872 2.97498C7.06214 3.1245 7.72742 2.92813 8.17813 2.45861L8.32079 2.30999Z" fill="url(#paint1_linear_3922_195)" fill-opacity="0.1"/>
<path d="M2.9585 10.7066C2.9585 7.01235 5.95327 4.01758 9.64752 4.01758C13.3418 4.01758 16.3365 7.01236 16.3365 10.7066V10.8442C16.3365 14.5384 13.3418 17.5332 9.64752 17.5332C5.95327 17.5332 2.9585 14.5384 2.9585 10.8442V10.7066Z" fill="black" fill-opacity="0.04"/>
<path d="M3.64523 10.7066C3.64523 7.39162 6.33254 4.70431 9.64752 4.70431C12.9625 4.70431 15.6498 7.39163 15.6498 10.7066V10.8442C15.6498 14.1591 12.9625 16.8465 9.64752 16.8465C6.33255 16.8465 3.64523 14.1591 3.64523 10.8442V10.7066Z" stroke="white" stroke-opacity="0.3" stroke-width="1.37347"/>
<path d="M16.427 10.8361C16.427 14.5802 13.3918 17.6155 9.64759 17.6155C5.90342 17.6155 2.86816 14.5802 2.86816 10.8361C2.86816 7.0919 5.90342 4.05664 9.64759 4.05664C13.3918 4.05664 16.427 7.0919 16.427 10.8361ZM4.26389 10.8361C4.26389 13.8094 6.67425 16.2198 9.64759 16.2198C12.6209 16.2198 15.0313 13.8094 15.0313 10.8361C15.0313 7.86273 12.6209 5.45236 9.64759 5.45236C6.67425 5.45236 4.26389 7.86273 4.26389 10.8361Z" fill="url(#paint2_linear_3922_195)" fill-opacity="0.5"/>
<path fill-rule="evenodd" clip-rule="evenodd" d="M8.34052 8.89016C8.34052 8.56912 8.46805 8.26123 8.69506 8.03423C8.92207 7.80722 9.22995 7.67969 9.55099 7.67969C9.87203 7.67969 10.1799 7.80722 10.4069 8.03423C10.6339 8.26123 10.7615 8.56912 10.7615 8.89016C10.7615 9.2112 10.6339 9.51908 10.4069 9.74609C10.1799 9.9731 9.87203 10.1006 9.55099 10.1006C9.22995 10.1006 8.92207 9.9731 8.69506 9.74609C8.46805 9.51908 8.34052 9.2112 8.34052 8.89016ZM7.33206 12.6843C7.34113 12.1018 7.5789 11.5462 7.99405 11.1375C8.40919 10.7288 8.96841 10.4997 9.55099 10.4997C10.1336 10.4997 10.6928 10.7288 11.1079 11.1375C11.5231 11.5462 11.7608 12.1018 11.7699 12.6843C11.7706 12.7235 11.7599 12.7621 11.739 12.7953C11.7181 12.8285 11.688 12.8549 11.6524 12.8713C10.9931 13.1735 10.2762 13.3295 9.55099 13.3286C8.80158 13.3286 8.08955 13.165 7.44961 12.8713C7.41397 12.8549 7.38386 12.8285 7.36299 12.7953C7.34211 12.7621 7.33136 12.7235 7.33206 12.6843Z" fill="#5C4033"/>
<defs>
<linearGradient id="paint0_linear_3922_195" x1="12.424" y1="20.223" x2="6.33843" y2="3.061" gradientUnits="userSpaceOnUse">
<stop offset="0.0625" stop-color="#87704F"/>
<stop offset="1" stop-color="#CBC6C5"/>
</linearGradient>
<linearGradient id="paint1_linear_3922_195" x1="-3.31367" y1="-0.579711" x2="11.3437" y2="25.5824" gradientUnits="userSpaceOnUse">
<stop stop-color="white"/>
<stop offset="1" stop-color="white" stop-opacity="0"/>
</linearGradient>
<linearGradient id="paint2_linear_3922_195" x1="9.64759" y1="4.05664" x2="9.64759" y2="17.6155" gradientUnits="userSpaceOnUse">
<stop stop-color="white"/>
<stop offset="0.0001" stop-color="white" stop-opacity="0.81"/>
<stop offset="1" stop-color="white" stop-opacity="0"/>
</linearGradient>
</defs>
</svg>
