<svg width="63" height="63" viewBox="0 0 63 63" fill="none" xmlns="http://www.w3.org/2000/svg">
<mask id="mask0_3979_223" style="mask-type:alpha" maskUnits="userSpaceOnUse" x="0" y="0" width="63" height="63">
<circle cx="31.5002" cy="31.1935" r="31.1935" fill="#D9D9D9"/>
</mask>
<g mask="url(#mask0_3979_223)">
<circle cx="31.5002" cy="31.1935" r="31.1935" fill="white"/>
<path d="M12.8917 49.3727L6.54541 54.7509L29.9943 68.4115L54.9491 65.9375V54.1055L49.4634 49.05C48.9973 48.046 48.5383 45.2422 50.4315 42.0583C50.539 37.7558 50.1088 36.1423 47.5272 33.4532C45.8062 29.796 46.8819 31.1944 47.097 27.8599C47.3121 24.5254 46.7743 19.1472 41.5037 15.0598C37.2872 11.7899 32.0739 12.6217 29.9943 13.4463C28.0223 13.0161 23.4329 12.7364 20.8514 15.0598C17.6245 17.964 15.3656 20.5456 15.3656 27.8599C16.0541 29.753 15.9393 31.7322 15.7959 32.4851C13.8956 34.1345 10.6543 38.8314 12.8917 44.4247C14.1824 46.49 13.4295 48.5839 12.8917 49.3727Z" fill="black"/>
<path d="M2.88802 60.0209C4.78114 54.7718 10.2741 51.2365 12.7839 50.125C31.8228 60.4511 46.3437 51.5233 50.3236 50.125C54.7122 52.3623 59.108 58.9452 60.7573 61.957L30.5319 71.1C20.5285 69.5941 0.994895 65.27 2.88802 60.0209Z" fill="#969696"/>
<path d="M15.7957 49.4545C10.4605 49.8847 5.03932 56.0159 2.99561 59.0277L27.1975 72.1504L58.0683 62.9L56.7775 55.3705C52.1523 50.8528 49.1405 50.315 47.527 49.7772C45.8419 49.3828 41.7831 48.68 39.0295 49.0242C36.9858 48.1637 36.7707 45.367 37.0933 43.0006C39.0295 41.2796 39.7824 39.7737 41.3959 36.2241C42.7727 37.5149 43.3321 33.3916 43.4396 31.1686C43.4755 30.4874 43.1815 29.2755 41.7186 29.8779C39.89 30.6308 38.2766 26.1131 37.9539 24.7148C37.6312 23.3165 36.0177 19.229 29.8866 19.4442C25.1538 18.7557 22.9666 22.5277 22.4647 24.4997C22.2495 25.2526 21.5396 27.3824 20.4209 29.8779C17.8394 29.2325 19.3453 32.6745 19.668 35.0409C19.9262 36.934 20.9229 36.6185 21.389 36.2241C21.9986 38.0886 23.6694 42.0541 25.4764 43.0006C25.9067 47.4753 24.0781 48.8808 23.11 49.0242C22.8949 48.9884 21.1309 49.0242 15.7957 49.4545Z" fill="#CBCBCB"/>
<path d="M36.9858 44.961L36.8782 43.4551C31.9733 46.5529 27.305 44.7458 25.584 43.4551V45.2837C32.1239 48.1233 35.9101 46.2517 36.9858 44.961Z" fill="#BCBCBC"/>
</g>
</svg>
