<svg width="20" height="20" viewBox="0 0 20 20" fill="none" xmlns="http://www.w3.org/2000/svg">
<path fill-rule="evenodd" clip-rule="evenodd" d="M5.35687 2.88756C6.23532 2.71618 7.1607 2.33288 7.90305 1.8329C8.40188 1.49694 9.00279 1.30078 9.64981 1.30078C10.2968 1.30078 10.8977 1.49694 11.3966 1.8329C12.1389 2.33288 13.0643 2.71618 13.9427 2.88756C14.533 3.00273 15.0966 3.28893 15.5541 3.74644C16.0117 4.20395 16.2979 4.76756 16.413 5.35785C16.5844 6.2363 16.9677 7.16168 17.4677 7.90403C17.8036 8.40286 17.9998 9.00377 17.9998 9.65078C17.9998 10.2978 17.8036 10.8987 17.4677 11.3975C16.9677 12.1399 16.5844 13.0653 16.413 13.9437C16.2979 14.534 16.0117 15.0976 15.5541 15.5551C15.0966 16.0126 14.533 16.2988 13.9427 16.414C13.0643 16.5854 12.1389 16.9687 11.3966 17.4687C10.8977 17.8046 10.2968 18.0008 9.64981 18.0008C9.00279 18.0008 8.40188 17.8046 7.90305 17.4687C7.1607 16.9687 6.23532 16.5854 5.35687 16.414C4.76658 16.2988 4.20297 16.0126 3.74546 15.5551C3.28796 15.0976 3.00176 14.534 2.88659 13.9437C2.71521 13.0653 2.3319 12.1399 1.83193 11.3975C1.49597 10.8987 1.2998 10.2978 1.2998 9.65078C1.2998 9.00377 1.49596 8.40286 1.83193 7.90403C2.3319 7.16168 2.7152 6.2363 2.88659 5.35785C3.00175 4.76756 3.28795 4.20395 3.74546 3.74644C4.20297 3.28893 4.76658 3.00273 5.35687 2.88756Z" fill="url(#paint0_linear_3963_328)"/>
<path fill-rule="evenodd" clip-rule="evenodd" d="M5.35687 2.88756C6.23532 2.71618 7.1607 2.33288 7.90305 1.8329C8.40188 1.49694 9.00279 1.30078 9.64981 1.30078C10.2968 1.30078 10.8977 1.49694 11.3966 1.8329C12.1389 2.33288 13.0643 2.71618 13.9427 2.88756C14.533 3.00273 15.0966 3.28893 15.5541 3.74644C16.0117 4.20395 16.2979 4.76756 16.413 5.35785C16.5844 6.2363 16.9677 7.16168 17.4677 7.90403C17.8036 8.40286 17.9998 9.00377 17.9998 9.65078C17.9998 10.2978 17.8036 10.8987 17.4677 11.3975C16.9677 12.1399 16.5844 13.0653 16.413 13.9437C16.2979 14.534 16.0117 15.0976 15.5541 15.5551C15.0966 16.0126 14.533 16.2988 13.9427 16.414C13.0643 16.5854 12.1389 16.9687 11.3966 17.4687C10.8977 17.8046 10.2968 18.0008 9.64981 18.0008C9.00279 18.0008 8.40188 17.8046 7.90305 17.4687C7.1607 16.9687 6.23532 16.5854 5.35687 16.414C4.76658 16.2988 4.20297 16.0126 3.74546 15.5551C3.28796 15.0976 3.00176 14.534 2.88659 13.9437C2.71521 13.0653 2.3319 12.1399 1.83193 11.3975C1.49597 10.8987 1.2998 10.2978 1.2998 9.65078C1.2998 9.00377 1.49596 8.40286 1.83193 7.90403C2.3319 7.16168 2.7152 6.2363 2.88659 5.35785C3.00175 4.76756 3.28795 4.20395 3.74546 3.74644C4.20297 3.28893 4.76658 3.00273 5.35687 2.88756Z" fill="black" fill-opacity="0.1"/>
<path d="M8.21429 10.9819L6.89097 9.62564C6.81972 9.55245 6.72298 9.51131 6.62211 9.51131C6.52123 9.51131 6.4245 9.55245 6.35325 9.62564C6.20452 9.77808 6.20452 10.0243 6.35325 10.1768L7.94733 11.8106C8.09606 11.963 8.33632 11.963 8.48505 11.8106L12.5198 7.67521C12.6686 7.52277 12.6686 7.27653 12.5198 7.12409C12.4486 7.0509 12.3519 7.00977 12.251 7.00977C12.1501 7.00977 12.0534 7.0509 11.9821 7.12409L8.21429 10.9819Z" fill="white"/>
<defs>
<linearGradient id="paint0_linear_3963_328" x1="5.40886" y1="4.5871" x2="16.4821" y2="11.4182" gradientUnits="userSpaceOnUse">
<stop stop-color="#B6C0D6"/>
<stop offset="1" stop-color="#6B6A7B" stop-opacity="0.84"/>
</linearGradient>
</defs>
</svg>
