<svg width="20" height="20" viewBox="0 0 20 20" fill="none" xmlns="http://www.w3.org/2000/svg">
<path d="M15.7867 5.25195H12.52L16.1639 8.89583L16.1639 5.62891L15.7867 5.25195Z" fill="url(#paint0_linear_3968_298)"/>
<mask id="path-2-inside-1_3968_298" fill="white">
<path fill-rule="evenodd" clip-rule="evenodd" d="M4.35407 1.58203C3.65451 1.58203 3.0874 2.14914 3.0874 2.8487V16.1487C3.0874 16.8483 3.65451 17.4154 4.35407 17.4154H14.6457C15.3453 17.4154 15.9124 16.8483 15.9124 16.1487V6.31323C15.9124 5.81837 15.7158 5.34378 15.3659 4.99387L12.5006 2.12853C12.1507 1.77861 11.6761 1.58203 11.1812 1.58203H4.35407Z"/>
</mask>
<path fill-rule="evenodd" clip-rule="evenodd" d="M4.35407 1.58203C3.65451 1.58203 3.0874 2.14914 3.0874 2.8487V16.1487C3.0874 16.8483 3.65451 17.4154 4.35407 17.4154H14.6457C15.3453 17.4154 15.9124 16.8483 15.9124 16.1487V6.31323C15.9124 5.81837 15.7158 5.34378 15.3659 4.99387L12.5006 2.12853C12.1507 1.77861 11.6761 1.58203 11.1812 1.58203H4.35407Z" fill="url(#paint1_linear_3968_298)"/>
<path fill-rule="evenodd" clip-rule="evenodd" d="M4.35407 1.58203C3.65451 1.58203 3.0874 2.14914 3.0874 2.8487V16.1487C3.0874 16.8483 3.65451 17.4154 4.35407 17.4154H14.6457C15.3453 17.4154 15.9124 16.8483 15.9124 16.1487V6.31323C15.9124 5.81837 15.7158 5.34378 15.3659 4.99387L12.5006 2.12853C12.1507 1.77861 11.6761 1.58203 11.1812 1.58203H4.35407Z" fill="black" fill-opacity="0.1"/>
<path d="M12.5006 2.12853L18.2162 -3.58713L12.5006 2.12853ZM15.3659 4.99387L9.65024 10.7095L15.3659 4.99387ZM11.1706 2.8487C11.1706 6.61336 8.11871 9.6652 4.35407 9.6652V-6.50114C-0.809692 -6.50114 -4.99576 -2.31508 -4.99576 2.8487H11.1706ZM11.1706 16.1487V2.8487H-4.99576V16.1487H11.1706ZM4.35407 9.3322C8.11873 9.3322 11.1706 12.3841 11.1706 16.1487H-4.99576C-4.99576 21.3125 -0.809715 25.4985 4.35407 25.4985V9.3322ZM14.6457 9.3322H4.35407V25.4985H14.6457V9.3322ZM7.82924 16.1487C7.82924 12.384 10.8811 9.3322 14.6457 9.3322V25.4985C19.8095 25.4985 23.9956 21.3125 23.9956 16.1487H7.82924ZM7.82924 6.31323V16.1487H23.9956V6.31323H7.82924ZM6.7849 7.84419L9.65024 10.7095L21.0816 -0.721795L18.2162 -3.58713L6.7849 7.84419ZM4.35407 9.6652H11.1812V-6.50114H4.35407V9.6652ZM18.2162 -3.58713C16.3504 -5.45294 13.8199 -6.50114 11.1812 -6.50114V9.6652C9.53227 9.6652 7.95087 9.01016 6.7849 7.84419L18.2162 -3.58713ZM23.9956 6.31323C23.9956 3.67459 22.9474 1.14401 21.0816 -0.721795L9.65024 10.7095C8.48427 9.54356 7.82924 7.96216 7.82924 6.31323H23.9956Z" fill="#929292" fill-opacity="0.1" mask="url(#path-2-inside-1_3968_298)"/>
<g filter="url(#filter0_dd_3968_298)">
<path d="M10.5887 11.4719V13.622C10.5887 13.6927 10.5747 13.7626 10.5476 13.8278C10.5206 13.893 10.4809 13.9523 10.4309 14.0021C10.3298 14.103 10.1928 14.1596 10.0501 14.1596H8.95025C8.8075 14.1596 8.67056 14.103 8.56946 14.0022C8.51943 13.9523 8.47973 13.8931 8.45265 13.8278C8.42556 13.7626 8.41162 13.6926 8.41162 13.6219V11.4719H10.5887ZM10.0501 12.7037H8.95025V13.7833H10.0501V12.7037ZM10.5707 9.3217V10.4013H9.48898V9.3217H10.5707ZM9.50244 1.74219V2.83073H10.5887V3.91927H9.50234V4.92716H10.5887V6.0157H9.50244V7.09089H10.5887V8.16607H9.50244V9.24115H8.41162V8.16597H9.49789V7.09079H8.41162V6.0157H9.49789V4.92716H8.41162V3.83862H9.49789V2.83073H8.41162V1.74219H9.50244Z" fill="white"/>
</g>
<path d="M15.5411 5.16992L12.3252 5.16992L15.9124 8.75716L15.9124 5.54102L15.5411 5.16992Z" fill="url(#paint2_linear_3968_298)"/>
<path d="M13.2209 5.54102L15.9126 5.54102L11.9543 1.58268L11.9543 4.27435C11.9543 4.97391 12.5214 5.54102 13.2209 5.54102Z" fill="#A7A7A7"/>
<defs>
<filter id="filter0_dd_3968_298" x="8.33245" y="1.66302" width="2.88975" height="13.2888" filterUnits="userSpaceOnUse" color-interpolation-filters="sRGB">
<feFlood flood-opacity="0" result="BackgroundImageFix"/>
<feColorMatrix in="SourceAlpha" type="matrix" values="0 0 0 0 0 0 0 0 0 0 0 0 0 0 0 0 0 0 127 0" result="hardAlpha"/>
<feOffset dx="0.316667" dy="0.475"/>
<feGaussianBlur stdDeviation="0.158333"/>
<feColorMatrix type="matrix" values="0 0 0 0 0 0 0 0 0 0 0 0 0 0 0 0 0 0 0.1 0"/>
<feBlend mode="normal" in2="BackgroundImageFix" result="effect1_dropShadow_3968_298"/>
<feColorMatrix in="SourceAlpha" type="matrix" values="0 0 0 0 0 0 0 0 0 0 0 0 0 0 0 0 0 0 127 0" result="hardAlpha"/>
<feOffset/>
<feGaussianBlur stdDeviation="0.0395833"/>
<feColorMatrix type="matrix" values="0 0 0 0 0 0 0 0 0 0 0 0 0 0 0 0 0 0 0.4 0"/>
<feBlend mode="normal" in2="effect1_dropShadow_3968_298" result="effect2_dropShadow_3968_298"/>
<feBlend mode="normal" in="SourceGraphic" in2="effect2_dropShadow_3968_298" result="shape"/>
</filter>
<linearGradient id="paint0_linear_3968_298" x1="13.3368" y1="4.43522" x2="16.9806" y2="8.0791" gradientUnits="userSpaceOnUse">
<stop stop-opacity="0.2"/>
<stop offset="1" stop-opacity="0"/>
</linearGradient>
<linearGradient id="paint1_linear_3968_298" x1="6.24301" y1="4.69781" x2="15.6375" y2="9.39211" gradientUnits="userSpaceOnUse">
<stop stop-color="#B6C0D6"/>
<stop offset="1" stop-color="#6B6A7B" stop-opacity="0.84"/>
</linearGradient>
<linearGradient id="paint2_linear_3968_298" x1="13.1292" y1="4.36589" x2="16.7165" y2="7.95312" gradientUnits="userSpaceOnUse">
<stop stop-opacity="0.2"/>
<stop offset="1" stop-opacity="0"/>
</linearGradient>
</defs>
</svg>
