<svg width="20" height="20" viewBox="0 0 20 20" fill="none" xmlns="http://www.w3.org/2000/svg">
<path d="M15.321 14.0596C15.3197 12.9624 14.992 11.8898 14.3797 10.9796C14.1812 10.6843 13.9567 10.4118 13.7079 10.1627C13.7005 10.1543 13.6929 10.1465 13.685 10.1386C13.6283 10.0827 13.5703 10.028 13.5112 9.97442C13.4056 9.87817 13.2963 9.78613 13.1837 9.6983C12.9935 9.54876 12.7935 9.41268 12.5853 9.29093C12.2866 9.11628 12.2216 8.67452 12.4433 8.40883C12.6431 8.16936 12.8134 7.90539 12.9497 7.62232C13.199 7.10558 13.3284 6.53952 13.3283 5.96563C13.3266 4.95441 12.925 3.9859 12.2114 3.27124C11.4977 2.55599 10.5304 2.15415 9.52121 2.15234C8.51201 2.15415 7.54455 2.55599 6.83101 3.27124C6.11431 3.9859 5.71264 4.95441 5.71414 5.96563C5.71084 6.53952 5.84027 7.10558 6.09329 7.62353C6.22749 7.90584 6.39677 8.16943 6.59608 8.4087C6.81756 8.67457 6.75268 9.11628 6.45396 9.29093C6.24572 9.41268 6.04577 9.54876 5.85559 9.6983C5.67991 9.83486 5.51248 9.98224 5.35422 10.1386C5.34641 10.1465 5.3398 10.1531 5.33244 10.1615C5.08363 10.4105 4.8581 10.6843 4.65959 10.9796C4.04725 11.8898 3.71961 12.9624 3.71826 14.0596V15.5563C3.71826 15.6586 3.74364 15.759 3.79184 15.8486C3.82112 15.9028 3.85836 15.9527 3.90205 15.9954C3.93043 16.0231 3.96152 16.0484 3.995 16.0706C4.05011 16.1079 4.11062 16.135 4.17384 16.1518C4.22549 16.1657 4.2791 16.1729 4.3333 16.1723H14.706C14.7596 16.1729 14.8126 16.1663 14.8638 16.1524C14.9276 16.1356 14.9887 16.1079 15.0443 16.0706C15.1293 16.0147 15.1991 15.9383 15.2474 15.8486C15.2956 15.759 15.321 15.6586 15.321 15.5563V14.0596Z" fill="url(#paint0_linear_3963_235)"/>
<defs>
<linearGradient id="paint0_linear_3963_235" x1="6.57313" y1="4.91128" x2="14.9984" y2="9.21268" gradientUnits="userSpaceOnUse">
<stop stop-color="#B6C0D6"/>
<stop offset="1" stop-color="#6B6A7B"/>
</linearGradient>
</defs>
</svg>
