<svg width="63" height="63" viewBox="0 0 63 63" fill="none" xmlns="http://www.w3.org/2000/svg">
<mask id="mask0_3979_231" style="mask-type:alpha" maskUnits="userSpaceOnUse" x="0" y="0" width="63" height="63">
<circle cx="31.8063" cy="31.1935" r="31.1935" fill="#D9D9D9"/>
</mask>
<g mask="url(#mask0_3979_231)">
<circle cx="31.8063" cy="31.1935" r="31.1935" fill="white"/>
<path d="M22.3413 34.0975L31.8069 40.5513C32.2013 40.2645 34.6251 38.4215 41.1649 33.3445C47.5327 22.6742 41.6669 16.9231 37.938 15.3814C38.4758 14.8435 39.1427 13.3161 37.5078 11.5091C40.4335 7.03441 36.5038 6.05916 34.1733 6.13087C33.2052 5.87989 30.9033 5.93726 29.4405 8.17458C25.3961 9.80955 26.2494 13.4452 27.1816 15.0587C26.2136 14.6643 23.546 15.0587 20.6202 19.7915C18.2108 24.8685 20.8354 31.4801 22.3413 34.0975Z" fill="black"/>
<path d="M25.6753 49.0891L21.1576 53.0689L15.9946 60.0606L31.699 66.7295L51.7058 62.1043L46.3276 53.6068C43.5668 52.567 37.9807 50.1862 37.7225 48.9815C37.3998 47.4756 37.615 46.5075 37.3998 43.3882C39.8093 41.8393 41.2721 38.01 41.7024 36.289C41.7382 36.4683 41.9605 36.7623 42.5629 36.5041C44.2839 33.7074 44.0688 30.4805 43.4234 30.2654C42.9071 30.0933 41.4873 32.1298 40.8419 33.1696C41.3797 30.0144 41.4227 23.2307 37.2923 21.3376C35.9155 20.9934 33.2766 22.9152 32.1292 23.9191C31.197 24.6362 28.7947 26.0274 26.6434 25.8553C25.869 25.6832 24.8149 26.2855 24.3846 26.6082C23.8468 27.0385 22.5775 28.9961 21.803 33.3848C20.8348 32.094 20.6199 31.1259 19.8668 30.1578C18.6836 30.8032 20.1895 33.815 20.2971 35.6436C20.3831 37.1065 21.3368 36.8985 21.803 36.6117C22.6276 38.5478 24.6211 42.6137 25.9979 43.3882C26.084 44.0766 25.8187 47.4756 25.6753 49.0891Z" fill="#CBCBCB"/>
<path d="M15.8868 49.9142C9.51907 50.2584 7.49687 55.0772 7.28174 57.4436L31.6987 68.0924L55.9006 55.2923C53.4379 51.7256 50.598 50.6941 49.3866 50.2541L49.3392 50.2368C48.9448 50.0576 47.0588 49.6345 42.6702 49.3763C37.1845 49.0536 20.8348 49.4839 15.8868 49.9142Z" fill="#969696"/>
<path d="M25.4064 49.2633C30.4619 49.586 32.9358 49.0482 37.6686 49.2633C42.4014 49.4785 33.9366 59.0128 33.9366 59.0128L31.8041 62.171L29.8848 59.0128C29.1384 57.5481 20.3509 48.9407 25.4064 49.2633Z" fill="white"/>
<path d="M25.7831 49.1587L26.2134 45.8242L22.5562 50.6646L24.3848 51.9554L22.126 53.9991L31.8067 62.1739L25.7831 49.1587Z" fill="#757575"/>
<path d="M37.8306 49.1587L37.4004 45.8242L41.0575 50.6646L39.229 51.9554L41.4878 53.9991L31.807 62.1739L37.8306 49.1587Z" fill="#757575"/>
<path d="M37.2923 45.7139V43.6702C32.3873 47.0262 27.7191 44.9251 25.998 43.4551V45.4988C29.6982 48.5966 35.0693 46.933 37.2923 45.7139Z" fill="#BDBDBD"/>
</g>
</svg>
