<svg width="20" height="20" viewBox="0 0 20 20" fill="none" xmlns="http://www.w3.org/2000/svg">
<path d="M15.7867 5.25195H12.52L16.1639 8.89583L16.1639 5.62891L15.7867 5.25195Z" fill="url(#paint0_linear_3963_399)"/>
<path d="M3.25331 6.9349C3.30889 5.94669 4.12645 5.17383 5.11622 5.17383H13.7143C14.7041 5.17383 15.5217 5.94668 15.5773 6.9349L16.041 15.1793C16.1012 16.2493 15.2498 17.15 14.1781 17.15H4.65247C3.5808 17.15 2.72937 16.2493 2.78956 15.1793L3.25331 6.9349Z" fill="url(#paint1_linear_3963_399)"/>
<path d="M3.25331 6.9349C3.30889 5.94669 4.12645 5.17383 5.11622 5.17383H13.7143C14.7041 5.17383 15.5217 5.94668 15.5773 6.9349L16.041 15.1793C16.1012 16.2493 15.2498 17.15 14.1781 17.15H4.65247C3.5808 17.15 2.72937 16.2493 2.78956 15.1793L3.25331 6.9349Z" fill="black" fill-opacity="0.1"/>
<path d="M6.95402 13.1084L7.173 9.21541H11.6576L11.8765 13.1084H6.95402Z" stroke="#929292" stroke-opacity="0.1" stroke-width="8.08317"/>
<path d="M3.0253 6.43298C3.08286 5.44638 3.89972 4.67578 4.888 4.67578H13.9426C14.9308 4.67578 15.7477 5.44638 15.8052 6.43298L16.2862 14.6774C16.3487 15.7488 15.4967 16.6519 14.4235 16.6519H4.40707C3.33387 16.6519 2.48188 15.7488 2.54438 14.6774L3.0253 6.43298Z" fill="url(#paint2_linear_3963_399)"/>
<path d="M3.0253 6.43298C3.08286 5.44638 3.89972 4.67578 4.888 4.67578H13.9426C14.9308 4.67578 15.7477 5.44638 15.8052 6.43298L16.2862 14.6774C16.3487 15.7488 15.4967 16.6519 14.4235 16.6519H4.40707C3.33387 16.6519 2.48188 15.7488 2.54438 14.6774L3.0253 6.43298Z" fill="black" fill-opacity="0.1"/>
<path d="M6.71341 12.6103L6.9405 8.71736H11.89L12.1171 12.6103H6.71341Z" stroke="#929292" stroke-opacity="0.1" stroke-width="8.08317"/>
<path d="M2.56934 5.67525C2.6308 4.69188 3.44628 3.92578 4.43157 3.92578H14.3989C15.3842 3.92578 16.1997 4.69188 16.2612 5.67525L16.7764 13.9197C16.8436 14.9938 15.9905 15.9019 14.9142 15.9019H3.91629C2.84002 15.9019 1.98693 14.9938 2.05407 13.9197L2.56934 5.67525Z" fill="url(#paint3_linear_3963_399)"/>
<path d="M2.56934 5.67525C2.6308 4.69188 3.44628 3.92578 4.43157 3.92578H14.3989C15.3842 3.92578 16.1997 4.69188 16.2612 5.67525L16.7764 13.9197C16.8436 14.9938 15.9905 15.9019 14.9142 15.9019H3.91629C2.84002 15.9019 1.98693 14.9938 2.05407 13.9197L2.56934 5.67525Z" fill="black" fill-opacity="0.1"/>
<path d="M6.23224 11.8603L6.47555 7.96736H12.355L12.5983 11.8603H6.23224Z" stroke="#929292" stroke-opacity="0.1" stroke-width="8.08317"/>
<path d="M9.00702 11.0969C9.00702 12.5181 7.8549 13.6702 6.43368 13.6702C5.01247 13.6702 3.86035 12.5181 3.86035 11.0969C3.86035 9.67567 5.01247 8.52354 6.43368 8.52354C6.84365 8.52354 7.23123 8.61941 7.57522 8.78996M7.57522 8.78996L7.39853 7.71875M7.57522 8.78996L6.91603 9.64875" stroke="white" stroke-width="0.75" stroke-linecap="round" stroke-linejoin="round"/>
<mask id="path-9-inside-1_3963_399" fill="white">
<path fill-rule="evenodd" clip-rule="evenodd" d="M14.8894 11.8914C15.5619 11.3189 16.6406 11.7458 16.6957 12.6273L16.7871 14.0896C16.8485 15.0717 16.0685 15.902 15.0845 15.902H7.66897C7.66897 15.902 7.66896 15.902 7.66896 15.902C7.66894 15.9019 7.66894 15.9019 7.66896 15.9019C9.98119 15.7424 13.0068 13.4936 14.8894 11.8914Z"/>
</mask>
<path fill-rule="evenodd" clip-rule="evenodd" d="M14.8894 11.8914C15.5619 11.3189 16.6406 11.7458 16.6957 12.6273L16.7871 14.0896C16.8485 15.0717 16.0685 15.902 15.0845 15.902H7.66897C7.66897 15.902 7.66896 15.902 7.66896 15.902C7.66894 15.9019 7.66894 15.9019 7.66896 15.9019C9.98119 15.7424 13.0068 13.4936 14.8894 11.8914Z" fill="white"/>
<path d="M7.66896 15.9019L7.66208 15.8022L7.66896 15.9019ZM7.66896 15.902L7.65138 16.0004L7.66896 15.902ZM16.6957 12.6273L16.5959 12.6335L16.6957 12.6273ZM16.5959 12.6335L16.6873 14.0959L16.8869 14.0834L16.7955 12.6211L16.5959 12.6335ZM15.0845 15.802H7.66897V16.002H15.0845V15.802ZM7.67585 16.0017C8.85675 15.9202 10.2082 15.3075 11.4924 14.523C12.7794 13.7368 14.0108 12.7704 14.9542 11.9675L14.8246 11.8152C13.8853 12.6146 12.6627 13.5737 11.3881 14.3523C10.1108 15.1326 8.7934 15.7241 7.66208 15.8022L7.67585 16.0017ZM7.68654 15.8035C7.73982 15.813 7.76816 15.859 7.76893 15.9001C7.76931 15.9207 7.7632 15.9449 7.74588 15.9658C7.72731 15.9882 7.70133 15.9999 7.67585 16.0017L7.66208 15.8022C7.63658 15.8039 7.6106 15.8157 7.59202 15.838C7.57469 15.8589 7.56858 15.8832 7.56896 15.9038C7.56973 15.9449 7.59809 15.9909 7.65138 16.0004L7.68654 15.8035ZM7.66897 15.802C7.67542 15.802 7.68132 15.8026 7.68654 15.8035L7.65138 16.0004C7.6566 16.0013 7.66251 16.002 7.66897 16.002V15.802ZM16.6873 14.0959C16.7451 15.0204 16.0108 15.802 15.0845 15.802V16.002C16.1262 16.002 16.9519 15.1231 16.8869 14.0834L16.6873 14.0959ZM16.7955 12.6211C16.7349 11.6519 15.5556 11.193 14.8246 11.8152L14.9542 11.9675C15.5682 11.4449 16.5463 11.8398 16.5959 12.6335L16.7955 12.6211Z" fill="#868C9B" mask="url(#path-9-inside-1_3963_399)"/>
<mask id="path-11-inside-2_3963_399" fill="white">
<path fill-rule="evenodd" clip-rule="evenodd" d="M14.7454 6.67177C15.6089 6.67177 16.2933 5.9432 16.2395 5.08137C16.1902 4.29239 15.5359 3.67773 14.7454 3.67773H4.08497C3.29445 3.67773 2.64018 4.29239 2.59087 5.08137C2.537 5.9432 3.22145 6.67177 4.08497 6.67177H14.7454Z"/>
</mask>
<path fill-rule="evenodd" clip-rule="evenodd" d="M14.7454 6.67177C15.6089 6.67177 16.2933 5.9432 16.2395 5.08137C16.1902 4.29239 15.5359 3.67773 14.7454 3.67773H4.08497C3.29445 3.67773 2.64018 4.29239 2.59087 5.08137C2.537 5.9432 3.22145 6.67177 4.08497 6.67177H14.7454Z" fill="url(#paint4_linear_3963_399)"/>
<path fill-rule="evenodd" clip-rule="evenodd" d="M14.7454 6.67177C15.6089 6.67177 16.2933 5.9432 16.2395 5.08137C16.1902 4.29239 15.5359 3.67773 14.7454 3.67773H4.08497C3.29445 3.67773 2.64018 4.29239 2.59087 5.08137C2.537 5.9432 3.22145 6.67177 4.08497 6.67177H14.7454Z" fill="black" fill-opacity="0.1"/>
<path d="M16.2395 5.08137L24.3069 4.57716V4.57715L16.2395 5.08137ZM4.08497 11.7609H14.7454V-4.40543H4.08497V11.7609ZM14.7454 -1.4114H4.08497V14.7549H14.7454V-1.4114ZM-5.47656 4.57716C-5.82127 10.0924 -1.4411 14.7549 4.08497 14.7549V-1.4114C7.88401 -1.4114 10.8953 1.79396 10.6583 5.58558L-5.47656 4.57716ZM4.08497 -4.40543C-0.973972 -4.40543 -5.16099 -0.47194 -5.47656 4.57716L10.6583 5.58558C10.4413 9.05672 7.56287 11.7609 4.08497 11.7609V-4.40543ZM8.17204 5.58558C7.93506 1.79395 10.9463 -1.4114 14.7454 -1.4114V14.7549C20.2714 14.7549 24.6516 10.0925 24.3069 4.57715L8.17204 5.58558ZM24.3069 4.57715C23.9913 -0.471942 19.8043 -4.40543 14.7454 -4.40543V11.7609C11.2675 11.7609 8.38899 9.05672 8.17204 5.58558L24.3069 4.57715Z" fill="#929292" fill-opacity="0.1" mask="url(#path-11-inside-2_3963_399)"/>
<path d="M9.4854 15.3885C10.6405 14.6726 11.027 13.3787 11.154 12.1189C11.1987 11.6764 11.597 11.2781 12.1169 10.9934C12.6344 10.7101 13.2545 10.5495 13.7133 10.5717C13.9783 10.5846 14.1834 10.6749 14.3306 10.811C14.478 10.9474 14.5699 11.1322 14.6036 11.3381C14.6713 11.7505 14.5047 12.2442 14.0901 12.5818C12.8114 13.6226 11.1619 14.7674 9.4854 15.3885Z" fill="white" stroke="#868C9B" stroke-width="0.1"/>
<g style="mix-blend-mode:overlay" filter="url(#filter0_di_3963_399)">
<circle cx="5.67282" cy="5.17234" r="0.748508" fill="url(#paint5_linear_3963_399)" shape-rendering="crispEdges"/>
<circle cx="5.67282" cy="5.17234" r="0.748508" fill="black" fill-opacity="0.1" shape-rendering="crispEdges"/>
</g>
<g filter="url(#filter1_iii_3963_399)">
<rect x="5.17383" y="1.92969" width="0.998011" height="3.74254" rx="0.499005" fill="url(#paint6_linear_3963_399)"/>
<rect x="5.17383" y="1.92969" width="0.998011" height="3.74254" rx="0.499005" fill="black" fill-opacity="0.1"/>
</g>
<rect x="5.42333" y="2.17919" width="0.499005" height="3.24354" rx="0.249503" stroke="#929292" stroke-opacity="0.1" stroke-width="0.499005"/>
<g style="mix-blend-mode:overlay" filter="url(#filter2_di_3963_399)">
<circle cx="13.1577" cy="5.17234" r="0.748508" fill="url(#paint7_linear_3963_399)" shape-rendering="crispEdges"/>
<circle cx="13.1577" cy="5.17234" r="0.748508" fill="black" fill-opacity="0.1" shape-rendering="crispEdges"/>
</g>
<g filter="url(#filter3_iii_3963_399)">
<rect x="12.6587" y="1.92969" width="0.998011" height="3.74254" rx="0.499005" fill="url(#paint8_linear_3963_399)"/>
<rect x="12.6587" y="1.92969" width="0.998011" height="3.74254" rx="0.499005" fill="black" fill-opacity="0.1"/>
</g>
<rect x="12.9082" y="2.17919" width="0.499005" height="3.24354" rx="0.249503" stroke="#929292" stroke-opacity="0.1" stroke-width="0.499005"/>
<defs>
<filter id="filter0_di_3963_399" x="4.79504" y="4.42383" width="1.75562" height="1.75464" filterUnits="userSpaceOnUse" color-interpolation-filters="sRGB">
<feFlood flood-opacity="0" result="BackgroundImageFix"/>
<feColorMatrix in="SourceAlpha" type="matrix" values="0 0 0 0 0 0 0 0 0 0 0 0 0 0 0 0 0 0 127 0" result="hardAlpha"/>
<feOffset dy="0.129275"/>
<feGaussianBlur stdDeviation="0.0646377"/>
<feComposite in2="hardAlpha" operator="out"/>
<feColorMatrix type="matrix" values="0 0 0 0 1 0 0 0 0 1 0 0 0 0 1 0 0 0 0.4 0"/>
<feBlend mode="overlay" in2="BackgroundImageFix" result="effect1_dropShadow_3963_399"/>
<feBlend mode="normal" in="SourceGraphic" in2="effect1_dropShadow_3963_399" result="shape"/>
<feColorMatrix in="SourceAlpha" type="matrix" values="0 0 0 0 0 0 0 0 0 0 0 0 0 0 0 0 0 0 127 0" result="hardAlpha"/>
<feOffset dy="0.129275"/>
<feGaussianBlur stdDeviation="0.129275"/>
<feComposite in2="hardAlpha" operator="arithmetic" k2="-1" k3="1"/>
<feColorMatrix type="matrix" values="0 0 0 0 0 0 0 0 0 0 0 0 0 0 0 0 0 0 0.8 0"/>
<feBlend mode="normal" in2="shape" result="effect2_innerShadow_3963_399"/>
</filter>
<filter id="filter1_iii_3963_399" x="5.04455" y="1.67114" width="1.2566" height="4.13001" filterUnits="userSpaceOnUse" color-interpolation-filters="sRGB">
<feFlood flood-opacity="0" result="BackgroundImageFix"/>
<feBlend mode="normal" in="SourceGraphic" in2="BackgroundImageFix" result="shape"/>
<feColorMatrix in="SourceAlpha" type="matrix" values="0 0 0 0 0 0 0 0 0 0 0 0 0 0 0 0 0 0 127 0" result="hardAlpha"/>
<feOffset dx="0.129275" dy="0.258551"/>
<feGaussianBlur stdDeviation="0.0646377"/>
<feComposite in2="hardAlpha" operator="arithmetic" k2="-1" k3="1"/>
<feColorMatrix type="matrix" values="0 0 0 0 1 0 0 0 0 1 0 0 0 0 1 0 0 0 1 0"/>
<feBlend mode="normal" in2="shape" result="effect1_innerShadow_3963_399"/>
<feColorMatrix in="SourceAlpha" type="matrix" values="0 0 0 0 0 0 0 0 0 0 0 0 0 0 0 0 0 0 127 0" result="hardAlpha"/>
<feOffset dx="-0.129275" dy="-0.129275"/>
<feGaussianBlur stdDeviation="0.0646377"/>
<feComposite in2="hardAlpha" operator="arithmetic" k2="-1" k3="1"/>
<feColorMatrix type="matrix" values="0 0 0 0 0 0 0 0 0 0 0 0 0 0 0 0 0 0 0.4 0"/>
<feBlend mode="normal" in2="effect1_innerShadow_3963_399" result="effect2_innerShadow_3963_399"/>
<feColorMatrix in="SourceAlpha" type="matrix" values="0 0 0 0 0 0 0 0 0 0 0 0 0 0 0 0 0 0 127 0" result="hardAlpha"/>
<feOffset dy="-0.258551"/>
<feGaussianBlur stdDeviation="0.129275"/>
<feComposite in2="hardAlpha" operator="arithmetic" k2="-1" k3="1"/>
<feColorMatrix type="matrix" values="0 0 0 0 0 0 0 0 0 0 0 0 0 0 0 0 0 0 1 0"/>
<feBlend mode="normal" in2="effect2_innerShadow_3963_399" result="effect3_innerShadow_3963_399"/>
</filter>
<filter id="filter2_di_3963_399" x="12.2799" y="4.42383" width="1.75562" height="1.75464" filterUnits="userSpaceOnUse" color-interpolation-filters="sRGB">
<feFlood flood-opacity="0" result="BackgroundImageFix"/>
<feColorMatrix in="SourceAlpha" type="matrix" values="0 0 0 0 0 0 0 0 0 0 0 0 0 0 0 0 0 0 127 0" result="hardAlpha"/>
<feOffset dy="0.129275"/>
<feGaussianBlur stdDeviation="0.0646377"/>
<feComposite in2="hardAlpha" operator="out"/>
<feColorMatrix type="matrix" values="0 0 0 0 1 0 0 0 0 1 0 0 0 0 1 0 0 0 0.4 0"/>
<feBlend mode="overlay" in2="BackgroundImageFix" result="effect1_dropShadow_3963_399"/>
<feBlend mode="normal" in="SourceGraphic" in2="effect1_dropShadow_3963_399" result="shape"/>
<feColorMatrix in="SourceAlpha" type="matrix" values="0 0 0 0 0 0 0 0 0 0 0 0 0 0 0 0 0 0 127 0" result="hardAlpha"/>
<feOffset dy="0.129275"/>
<feGaussianBlur stdDeviation="0.129275"/>
<feComposite in2="hardAlpha" operator="arithmetic" k2="-1" k3="1"/>
<feColorMatrix type="matrix" values="0 0 0 0 0 0 0 0 0 0 0 0 0 0 0 0 0 0 0.8 0"/>
<feBlend mode="normal" in2="shape" result="effect2_innerShadow_3963_399"/>
</filter>
<filter id="filter3_iii_3963_399" x="12.5294" y="1.67114" width="1.2566" height="4.13001" filterUnits="userSpaceOnUse" color-interpolation-filters="sRGB">
<feFlood flood-opacity="0" result="BackgroundImageFix"/>
<feBlend mode="normal" in="SourceGraphic" in2="BackgroundImageFix" result="shape"/>
<feColorMatrix in="SourceAlpha" type="matrix" values="0 0 0 0 0 0 0 0 0 0 0 0 0 0 0 0 0 0 127 0" result="hardAlpha"/>
<feOffset dx="0.129275" dy="0.258551"/>
<feGaussianBlur stdDeviation="0.0646377"/>
<feComposite in2="hardAlpha" operator="arithmetic" k2="-1" k3="1"/>
<feColorMatrix type="matrix" values="0 0 0 0 1 0 0 0 0 1 0 0 0 0 1 0 0 0 1 0"/>
<feBlend mode="normal" in2="shape" result="effect1_innerShadow_3963_399"/>
<feColorMatrix in="SourceAlpha" type="matrix" values="0 0 0 0 0 0 0 0 0 0 0 0 0 0 0 0 0 0 127 0" result="hardAlpha"/>
<feOffset dx="-0.129275" dy="-0.129275"/>
<feGaussianBlur stdDeviation="0.0646377"/>
<feComposite in2="hardAlpha" operator="arithmetic" k2="-1" k3="1"/>
<feColorMatrix type="matrix" values="0 0 0 0 0 0 0 0 0 0 0 0 0 0 0 0 0 0 0.4 0"/>
<feBlend mode="normal" in2="effect1_innerShadow_3963_399" result="effect2_innerShadow_3963_399"/>
<feColorMatrix in="SourceAlpha" type="matrix" values="0 0 0 0 0 0 0 0 0 0 0 0 0 0 0 0 0 0 127 0" result="hardAlpha"/>
<feOffset dy="-0.258551"/>
<feGaussianBlur stdDeviation="0.129275"/>
<feComposite in2="hardAlpha" operator="arithmetic" k2="-1" k3="1"/>
<feColorMatrix type="matrix" values="0 0 0 0 0 0 0 0 0 0 0 0 0 0 0 0 0 0 1 0"/>
<feBlend mode="normal" in2="effect2_innerShadow_3963_399" result="effect3_innerShadow_3963_399"/>
</filter>
<linearGradient id="paint0_linear_3963_399" x1="13.3368" y1="4.43522" x2="16.9806" y2="8.0791" gradientUnits="userSpaceOnUse">
<stop stop-opacity="0.2"/>
<stop offset="1" stop-opacity="0"/>
</linearGradient>
<linearGradient id="paint1_linear_3963_399" x1="5.99379" y1="7.53056" x2="14.3179" y2="13.3076" gradientUnits="userSpaceOnUse">
<stop stop-color="#B6C0D6"/>
<stop offset="1" stop-color="#6B6A7B" stop-opacity="0.84"/>
</linearGradient>
<linearGradient id="paint2_linear_3963_399" x1="5.86706" y1="7.03251" x2="14.2928" y2="13.0967" gradientUnits="userSpaceOnUse">
<stop stop-color="#B6C0D6"/>
<stop offset="1" stop-color="#6B6A7B" stop-opacity="0.84"/>
</linearGradient>
<linearGradient id="paint3_linear_3963_399" x1="5.6136" y1="6.28251" x2="14.2073" y2="12.9094" gradientUnits="userSpaceOnUse">
<stop stop-color="#B6C0D6"/>
<stop offset="1" stop-color="#6B6A7B" stop-opacity="0.84"/>
</linearGradient>
<linearGradient id="paint4_linear_3963_399" x1="5.94761" y1="4.26692" x2="7.34963" y2="8.2114" gradientUnits="userSpaceOnUse">
<stop stop-color="#B6C0D6"/>
<stop offset="1" stop-color="#6B6A7B" stop-opacity="0.84"/>
</linearGradient>
<linearGradient id="paint5_linear_3963_399" x1="5.29266" y1="4.71842" x2="6.28529" y2="5.33077" gradientUnits="userSpaceOnUse">
<stop stop-color="#B6C0D6"/>
<stop offset="1" stop-color="#6B6A7B" stop-opacity="0.84"/>
</linearGradient>
<linearGradient id="paint6_linear_3963_399" x1="5.41939" y1="2.66617" x2="6.30891" y2="2.8125" gradientUnits="userSpaceOnUse">
<stop stop-color="#B6C0D6"/>
<stop offset="1" stop-color="#6B6A7B" stop-opacity="0.84"/>
</linearGradient>
<linearGradient id="paint7_linear_3963_399" x1="12.7775" y1="4.71842" x2="13.7701" y2="5.33077" gradientUnits="userSpaceOnUse">
<stop stop-color="#B6C0D6"/>
<stop offset="1" stop-color="#6B6A7B" stop-opacity="0.84"/>
</linearGradient>
<linearGradient id="paint8_linear_3963_399" x1="12.9043" y1="2.66617" x2="13.7938" y2="2.8125" gradientUnits="userSpaceOnUse">
<stop stop-color="#B6C0D6"/>
<stop offset="1" stop-color="#6B6A7B" stop-opacity="0.84"/>
</linearGradient>
</defs>
</svg>
