<svg width="20" height="20" viewBox="0 0 20 20" fill="none" xmlns="http://www.w3.org/2000/svg">
<path d="M7.60834 9.45413C7.48727 9.23629 7.2973 9.06481 7.06823 8.96662C6.83916 8.86843 6.58397 8.84909 6.34272 8.91162C6.10147 8.97415 5.88781 9.11503 5.73528 9.31213C5.58276 9.50923 5.5 9.7514 5.5 10.0006C5.5 10.2499 5.58276 10.492 5.73528 10.6891C5.88781 10.8862 6.10147 11.0271 6.34272 11.0896C6.58397 11.1522 6.83916 11.1328 7.06823 11.0346C7.2973 10.9364 7.48727 10.765 7.60834 10.5471M7.60834 9.45413C7.69834 9.61613 7.74984 9.80213 7.74984 10.0006C7.74984 10.1991 7.69834 10.3856 7.60834 10.5471M7.60834 9.45413L12.3913 6.79713M7.60834 10.5471L12.3913 13.2041M12.3913 13.2041C12.3196 13.3333 12.274 13.4754 12.2571 13.6222C12.2402 13.769 12.2524 13.9177 12.293 14.0598C12.3336 14.2019 12.4018 14.3346 12.4937 14.4504C12.5856 14.5661 12.6994 14.6626 12.8286 14.7344C12.9578 14.8061 13.0998 14.8518 13.2467 14.8686C13.3935 14.8855 13.5422 14.8733 13.6843 14.8327C13.8264 14.7921 13.9591 14.7239 14.0748 14.632C14.1906 14.5401 14.2871 14.4263 14.3588 14.2971C14.5038 14.0362 14.5391 13.7284 14.4571 13.4414C14.3751 13.1545 14.1825 12.9118 13.9216 12.7669C13.6607 12.6219 13.3529 12.5866 13.0659 12.6686C12.7789 12.7506 12.5363 12.9432 12.3913 13.2041V13.2041ZM12.3913 6.79713C12.4615 6.9292 12.5572 7.04596 12.673 7.14059C12.7888 7.23523 12.9223 7.30583 13.0656 7.34827C13.209 7.39071 13.3594 7.40414 13.5081 7.38778C13.6567 7.37141 13.8006 7.32558 13.9313 7.25296C14.062 7.18034 14.1769 7.08239 14.2694 6.96484C14.3618 6.84728 14.4298 6.71248 14.4696 6.56832C14.5093 6.42416 14.5198 6.27352 14.5007 6.12523C14.4815 5.97693 14.4329 5.83394 14.3578 5.70463C14.2099 5.4498 13.9678 5.2632 13.6837 5.18494C13.3997 5.10667 13.0962 5.143 12.8386 5.28611C12.581 5.42921 12.3899 5.66767 12.3062 5.95023C12.2226 6.23278 12.2531 6.53687 12.3913 6.79713V6.79713Z" stroke="#ADADAD" stroke-linecap="round" stroke-linejoin="round"/>
</svg>
